  0
SECTION
  2
HEADER
  9
$ANGBASE
  50
0.0
  9
$ANGDIR
  70
  1
  9
$MEASUREMENT
  70
0
  0
ENDSEC
  0
SECTION
  2
TABLES
  0
TABLE
  2
LTYPE
  70
4
  0
LTYPE
  5
40F
  2
CONTINUOUS
  70
0
  3
Solid line
  72
65
  73
0
  40
0.0
  0
LTYPE
  5
410
  2
DASHDOT
 70
0
  3
Dash Dot ____ _ ____ _
 72
65
 73
4
 40
2.0
 49
1.25
 49
-0.25
 49
0.25
 49
-0.25
  0
LTYPE
  5
411
  2
DASHED
 70
0
  3
Dashed __ __ __ __ __
 72
65
 73
2
 40
0.75
 49
0.5
 49
-0.25
  0
LTYPE
  5
43B
  2
DOTTED
 70
0
  3
Dotted .  .  .  .
 72
65
 73
2
 40
0.2
 49
0.0
 49
-0.2
  0
ENDTAB
  0
TABLE
  2
STYLE
  70
4
  0
STYLE
  2
KICAD
  70
0
  40
0
  41
1
  42
1
  50
0
  71
0
  3
isocp.shx
  0
STYLE
  2
KICADB
  70
0
  40
0
  41
1
  42
1
  50
0
  71
0
  3
isocp.shx
  0
STYLE
  2
KICADI
  70
0
  40
0
  41
1
  42
1
  50
15
  71
0
  3
isocp.shx
  0
STYLE
  2
KICADBI
  70
0
  40
0
  41
1
  42
1
  50
15
  71
0
  3
isocp.shx
  0
ENDTAB
  0
TABLE
  2
LAYER
  70
30
  0
LAYER
  2
BLACK
  70
0
  62
7
  6
CONTINUOUS
  0
LAYER
  2
GRAY1
  70
0
  62
251
  6
CONTINUOUS
  0
LAYER
  2
GRAY2
  70
0
  62
8
  6
CONTINUOUS
  0
LAYER
  2
GRAY3
  70
0
  62
9
  6
CONTINUOUS
  0
LAYER
  2
WHITE
  70
0
  62
7
  6
CONTINUOUS
  0
LAYER
  2
LYELLOW
  70
0
  62
51
  6
CONTINUOUS
  0
LAYER
  2
BLUE1
  70
0
  62
178
  6
CONTINUOUS
  0
LAYER
  2
GREEN1
  70
0
  62
98
  6
CONTINUOUS
  0
LAYER
  2
CYAN1
  70
0
  62
138
  6
CONTINUOUS
  0
LAYER
  2
RED1
  70
0
  62
18
  6
CONTINUOUS
  0
LAYER
  2
MAGENTA1
  70
0
  62
228
  6
CONTINUOUS
  0
LAYER
  2
BROWN1
  70
0
  62
58
  6
CONTINUOUS
  0
LAYER
  2
BLUE2
  70
0
  62
5
  6
CONTINUOUS
  0
LAYER
  2
GREEN2
  70
0
  62
3
  6
CONTINUOUS
  0
LAYER
  2
CYAN2
  70
0
  62
4
  6
CONTINUOUS
  0
LAYER
  2
RED2
  70
0
  62
1
  6
CONTINUOUS
  0
LAYER
  2
MAGENTA2
  70
0
  62
6
  6
CONTINUOUS
  0
LAYER
  2
BROWN2
  70
0
  62
54
  6
CONTINUOUS
  0
LAYER
  2
BLUE3
  70
0
  62
171
  6
CONTINUOUS
  0
LAYER
  2
GREEN3
  70
0
  62
91
  6
CONTINUOUS
  0
LAYER
  2
CYAN3
  70
0
  62
131
  6
CONTINUOUS
  0
LAYER
  2
RED3
  70
0
  62
11
  6
CONTINUOUS
  0
LAYER
  2
MAGENTA3
  70
0
  62
221
  6
CONTINUOUS
  0
LAYER
  2
YELLOW3
  70
0
  62
2
  6
CONTINUOUS
  0
LAYER
  2
BLUE4
  70
0
  62
5
  6
CONTINUOUS
  0
LAYER
  2
GREEN4
  70
0
  62
3
  6
CONTINUOUS
  0
LAYER
  2
CYAN4
  70
0
  62
4
  6
CONTINUOUS
  0
LAYER
  2
RED4
  70
0
  62
1
  6
CONTINUOUS
  0
LAYER
  2
MAGENTA4
  70
0
  62
6
  6
CONTINUOUS
  0
LAYER
  2
YELLOW4
  70
0
  62
2
  6
CONTINUOUS
  0
ENDTAB
  0
ENDSEC
  0
SECTION
  2
ENTITIES
0
LINE
8
BLACK
6
CONTINUOUS
10
154.6
20
-132.5
11
153.6
21
-132.5
0
LINE
8
BLACK
6
CONTINUOUS
10
153.6
20
-132.5
11
153.6
21
-131.6
0
LINE
8
BLACK
6
CONTINUOUS
10
153.6
20
-131.6
11
154.6
21
-131.6
0
LINE
8
BLACK
6
CONTINUOUS
10
154.6
20
-131.6
11
154.6
21
-132.5
0
LINE
8
BLACK
6
CONTINUOUS
10
156.2
20
-132.5
11
155.2
21
-132.5
0
LINE
8
BLACK
6
CONTINUOUS
10
155.2
20
-132.5
11
155.2
21
-131.6
0
LINE
8
BLACK
6
CONTINUOUS
10
155.2
20
-131.6
11
156.2
21
-131.6
0
LINE
8
BLACK
6
CONTINUOUS
10
156.2
20
-131.6
11
156.2
21
-132.5
0
LINE
8
BLACK
6
CONTINUOUS
10
157.731
20
-131.613
11
157.797
21
-131.651
0
LINE
8
BLACK
6
CONTINUOUS
10
157.797
20
-131.651
11
157.846
21
-131.709
0
LINE
8
BLACK
6
CONTINUOUS
10
157.846
20
-131.709
11
157.875
21
-131.819
0
LINE
8
BLACK
6
CONTINUOUS
10
157.875
20
-131.819
11
157.875
21
-132.256
0
LINE
8
BLACK
6
CONTINUOUS
10
157.875
20
-132.256
11
157.862
21
-132.331
0
LINE
8
BLACK
6
CONTINUOUS
10
157.862
20
-132.331
11
157.824
21
-132.397
0
LINE
8
BLACK
6
CONTINUOUS
10
157.824
20
-132.397
11
157.766
21
-132.446
0
LINE
8
BLACK
6
CONTINUOUS
10
157.766
20
-132.446
11
157.656
21
-132.475
0
LINE
8
BLACK
6
CONTINUOUS
10
157.656
20
-132.475
11
157.144
21
-132.475
0
LINE
8
BLACK
6
CONTINUOUS
10
157.144
20
-132.475
11
157.069
21
-132.462
0
LINE
8
BLACK
6
CONTINUOUS
10
157.069
20
-132.462
11
157.003
21
-132.424
0
LINE
8
BLACK
6
CONTINUOUS
10
157.003
20
-132.424
11
156.954
21
-132.366
0
LINE
8
BLACK
6
CONTINUOUS
10
156.954
20
-132.366
11
156.925
21
-132.256
0
LINE
8
BLACK
6
CONTINUOUS
10
156.925
20
-132.256
11
156.925
21
-131.819
0
LINE
8
BLACK
6
CONTINUOUS
10
156.925
20
-131.819
11
156.938
21
-131.744
0
LINE
8
BLACK
6
CONTINUOUS
10
156.938
20
-131.744
11
156.976
21
-131.678
0
LINE
8
BLACK
6
CONTINUOUS
10
156.976
20
-131.678
11
157.034
21
-131.629
0
LINE
8
BLACK
6
CONTINUOUS
10
157.034
20
-131.629
11
157.144
21
-131.6
0
LINE
8
BLACK
6
CONTINUOUS
10
157.144
20
-131.6
11
157.656
21
-131.6
0
LINE
8
BLACK
6
CONTINUOUS
10
157.656
20
-131.6
11
157.731
21
-131.613
0
LINE
8
BLACK
6
CONTINUOUS
10
157.731
20
-130.038
11
157.797
21
-130.076
0
LINE
8
BLACK
6
CONTINUOUS
10
157.797
20
-130.076
11
157.846
21
-130.134
0
LINE
8
BLACK
6
CONTINUOUS
10
157.846
20
-130.134
11
157.875
21
-130.244
0
LINE
8
BLACK
6
CONTINUOUS
10
157.875
20
-130.244
11
157.875
21
-130.681
0
LINE
8
BLACK
6
CONTINUOUS
10
157.875
20
-130.681
11
157.862
21
-130.756
0
LINE
8
BLACK
6
CONTINUOUS
10
157.862
20
-130.756
11
157.824
21
-130.822
0
LINE
8
BLACK
6
CONTINUOUS
10
157.824
20
-130.822
11
157.766
21
-130.871
0
LINE
8
BLACK
6
CONTINUOUS
10
157.766
20
-130.871
11
157.656
21
-130.9
0
LINE
8
BLACK
6
CONTINUOUS
10
157.656
20
-130.9
11
157.144
21
-130.9
0
LINE
8
BLACK
6
CONTINUOUS
10
157.144
20
-130.9
11
157.069
21
-130.887
0
LINE
8
BLACK
6
CONTINUOUS
10
157.069
20
-130.887
11
157.003
21
-130.849
0
LINE
8
BLACK
6
CONTINUOUS
10
157.003
20
-130.849
11
156.954
21
-130.791
0
LINE
8
BLACK
6
CONTINUOUS
10
156.954
20
-130.791
11
156.925
21
-130.681
0
LINE
8
BLACK
6
CONTINUOUS
10
156.925
20
-130.681
11
156.925
21
-130.244
0
LINE
8
BLACK
6
CONTINUOUS
10
156.925
20
-130.244
11
156.938
21
-130.169
0
LINE
8
BLACK
6
CONTINUOUS
10
156.938
20
-130.169
11
156.976
21
-130.103
0
LINE
8
BLACK
6
CONTINUOUS
10
156.976
20
-130.103
11
157.034
21
-130.054
0
LINE
8
BLACK
6
CONTINUOUS
10
157.034
20
-130.054
11
157.144
21
-130.025
0
LINE
8
BLACK
6
CONTINUOUS
10
157.144
20
-130.025
11
157.656
21
-130.025
0
LINE
8
BLACK
6
CONTINUOUS
10
157.656
20
-130.025
11
157.731
21
-130.038
0
LINE
8
BLACK
6
CONTINUOUS
10
153.75
20
-130.85
11
153.2
21
-130.85
0
LINE
8
BLACK
6
CONTINUOUS
10
153.2
20
-130.85
11
153.2
21
-129.15
0
LINE
8
BLACK
6
CONTINUOUS
10
153.2
20
-129.15
11
153.75
21
-129.15
0
LINE
8
BLACK
6
CONTINUOUS
10
153.75
20
-129.15
11
153.75
21
-130.85
0
LINE
8
BLACK
6
CONTINUOUS
10
175.431
20
-128.063
11
175.497
21
-128.101
0
LINE
8
BLACK
6
CONTINUOUS
10
175.497
20
-128.101
11
175.546
21
-128.159
0
LINE
8
BLACK
6
CONTINUOUS
10
175.546
20
-128.159
11
175.575
21
-128.269
0
LINE
8
BLACK
6
CONTINUOUS
10
175.575
20
-128.269
11
175.575
21
-128.706
0
LINE
8
BLACK
6
CONTINUOUS
10
175.575
20
-128.706
11
175.562
21
-128.781
0
LINE
8
BLACK
6
CONTINUOUS
10
175.562
20
-128.781
11
175.524
21
-128.847
0
LINE
8
BLACK
6
CONTINUOUS
10
175.524
20
-128.847
11
175.466
21
-128.896
0
LINE
8
BLACK
6
CONTINUOUS
10
175.466
20
-128.896
11
175.356
21
-128.925
0
LINE
8
BLACK
6
CONTINUOUS
10
175.356
20
-128.925
11
174.844
21
-128.925
0
LINE
8
BLACK
6
CONTINUOUS
10
174.844
20
-128.925
11
174.769
21
-128.912
0
LINE
8
BLACK
6
CONTINUOUS
10
174.769
20
-128.912
11
174.703
21
-128.874
0
LINE
8
BLACK
6
CONTINUOUS
10
174.703
20
-128.874
11
174.654
21
-128.816
0
LINE
8
BLACK
6
CONTINUOUS
10
174.654
20
-128.816
11
174.625
21
-128.706
0
LINE
8
BLACK
6
CONTINUOUS
10
174.625
20
-128.706
11
174.625
21
-128.269
0
LINE
8
BLACK
6
CONTINUOUS
10
174.625
20
-128.269
11
174.638
21
-128.194
0
LINE
8
BLACK
6
CONTINUOUS
10
174.638
20
-128.194
11
174.676
21
-128.128
0
LINE
8
BLACK
6
CONTINUOUS
10
174.676
20
-128.128
11
174.734
21
-128.079
0
LINE
8
BLACK
6
CONTINUOUS
10
174.734
20
-128.079
11
174.844
21
-128.05
0
LINE
8
BLACK
6
CONTINUOUS
10
174.844
20
-128.05
11
175.356
21
-128.05
0
LINE
8
BLACK
6
CONTINUOUS
10
175.356
20
-128.05
11
175.431
21
-128.063
0
LINE
8
BLACK
6
CONTINUOUS
10
173.731
20
-128.063
11
173.797
21
-128.101
0
LINE
8
BLACK
6
CONTINUOUS
10
173.797
20
-128.101
11
173.846
21
-128.159
0
LINE
8
BLACK
6
CONTINUOUS
10
173.846
20
-128.159
11
173.875
21
-128.269
0
LINE
8
BLACK
6
CONTINUOUS
10
173.875
20
-128.269
11
173.875
21
-128.706
0
LINE
8
BLACK
6
CONTINUOUS
10
173.875
20
-128.706
11
173.862
21
-128.781
0
LINE
8
BLACK
6
CONTINUOUS
10
173.862
20
-128.781
11
173.824
21
-128.847
0
LINE
8
BLACK
6
CONTINUOUS
10
173.824
20
-128.847
11
173.766
21
-128.896
0
LINE
8
BLACK
6
CONTINUOUS
10
173.766
20
-128.896
11
173.656
21
-128.925
0
LINE
8
BLACK
6
CONTINUOUS
10
173.656
20
-128.925
11
173.144
21
-128.925
0
LINE
8
BLACK
6
CONTINUOUS
10
173.144
20
-128.925
11
173.069
21
-128.912
0
LINE
8
BLACK
6
CONTINUOUS
10
173.069
20
-128.912
11
173.003
21
-128.874
0
LINE
8
BLACK
6
CONTINUOUS
10
173.003
20
-128.874
11
172.954
21
-128.816
0
LINE
8
BLACK
6
CONTINUOUS
10
172.954
20
-128.816
11
172.925
21
-128.706
0
LINE
8
BLACK
6
CONTINUOUS
10
172.925
20
-128.706
11
172.925
21
-128.269
0
LINE
8
BLACK
6
CONTINUOUS
10
172.925
20
-128.269
11
172.938
21
-128.194
0
LINE
8
BLACK
6
CONTINUOUS
10
172.938
20
-128.194
11
172.976
21
-128.128
0
LINE
8
BLACK
6
CONTINUOUS
10
172.976
20
-128.128
11
173.034
21
-128.079
0
LINE
8
BLACK
6
CONTINUOUS
10
173.034
20
-128.079
11
173.144
21
-128.05
0
LINE
8
BLACK
6
CONTINUOUS
10
173.144
20
-128.05
11
173.656
21
-128.05
0
LINE
8
BLACK
6
CONTINUOUS
10
173.656
20
-128.05
11
173.731
21
-128.063
0
LINE
8
BLACK
6
CONTINUOUS
10
172.131
20
-128.063
11
172.197
21
-128.101
0
LINE
8
BLACK
6
CONTINUOUS
10
172.197
20
-128.101
11
172.246
21
-128.159
0
LINE
8
BLACK
6
CONTINUOUS
10
172.246
20
-128.159
11
172.275
21
-128.269
0
LINE
8
BLACK
6
CONTINUOUS
10
172.275
20
-128.269
11
172.275
21
-128.706
0
LINE
8
BLACK
6
CONTINUOUS
10
172.275
20
-128.706
11
172.262
21
-128.781
0
LINE
8
BLACK
6
CONTINUOUS
10
172.262
20
-128.781
11
172.224
21
-128.847
0
LINE
8
BLACK
6
CONTINUOUS
10
172.224
20
-128.847
11
172.166
21
-128.896
0
LINE
8
BLACK
6
CONTINUOUS
10
172.166
20
-128.896
11
172.056
21
-128.925
0
LINE
8
BLACK
6
CONTINUOUS
10
172.056
20
-128.925
11
171.544
21
-128.925
0
LINE
8
BLACK
6
CONTINUOUS
10
171.544
20
-128.925
11
171.469
21
-128.912
0
LINE
8
BLACK
6
CONTINUOUS
10
171.469
20
-128.912
11
171.403
21
-128.874
0
LINE
8
BLACK
6
CONTINUOUS
10
171.403
20
-128.874
11
171.354
21
-128.816
0
LINE
8
BLACK
6
CONTINUOUS
10
171.354
20
-128.816
11
171.325
21
-128.706
0
LINE
8
BLACK
6
CONTINUOUS
10
171.325
20
-128.706
11
171.325
21
-128.269
0
LINE
8
BLACK
6
CONTINUOUS
10
171.325
20
-128.269
11
171.338
21
-128.194
0
LINE
8
BLACK
6
CONTINUOUS
10
171.338
20
-128.194
11
171.376
21
-128.128
0
LINE
8
BLACK
6
CONTINUOUS
10
171.376
20
-128.128
11
171.434
21
-128.079
0
LINE
8
BLACK
6
CONTINUOUS
10
171.434
20
-128.079
11
171.544
21
-128.05
0
LINE
8
BLACK
6
CONTINUOUS
10
171.544
20
-128.05
11
172.056
21
-128.05
0
LINE
8
BLACK
6
CONTINUOUS
10
172.056
20
-128.05
11
172.131
21
-128.063
0
LINE
8
BLACK
6
CONTINUOUS
10
177.031
20
-128.063
11
177.097
21
-128.101
0
LINE
8
BLACK
6
CONTINUOUS
10
177.097
20
-128.101
11
177.146
21
-128.159
0
LINE
8
BLACK
6
CONTINUOUS
10
177.146
20
-128.159
11
177.175
21
-128.269
0
LINE
8
BLACK
6
CONTINUOUS
10
177.175
20
-128.269
11
177.175
21
-128.706
0
LINE
8
BLACK
6
CONTINUOUS
10
177.175
20
-128.706
11
177.162
21
-128.781
0
LINE
8
BLACK
6
CONTINUOUS
10
177.162
20
-128.781
11
177.124
21
-128.847
0
LINE
8
BLACK
6
CONTINUOUS
10
177.124
20
-128.847
11
177.066
21
-128.896
0
LINE
8
BLACK
6
CONTINUOUS
10
177.066
20
-128.896
11
176.956
21
-128.925
0
LINE
8
BLACK
6
CONTINUOUS
10
176.956
20
-128.925
11
176.444
21
-128.925
0
LINE
8
BLACK
6
CONTINUOUS
10
176.444
20
-128.925
11
176.369
21
-128.912
0
LINE
8
BLACK
6
CONTINUOUS
10
176.369
20
-128.912
11
176.303
21
-128.874
0
LINE
8
BLACK
6
CONTINUOUS
10
176.303
20
-128.874
11
176.254
21
-128.816
0
LINE
8
BLACK
6
CONTINUOUS
10
176.254
20
-128.816
11
176.225
21
-128.706
0
LINE
8
BLACK
6
CONTINUOUS
10
176.225
20
-128.706
11
176.225
21
-128.269
0
LINE
8
BLACK
6
CONTINUOUS
10
176.225
20
-128.269
11
176.238
21
-128.194
0
LINE
8
BLACK
6
CONTINUOUS
10
176.238
20
-128.194
11
176.276
21
-128.128
0
LINE
8
BLACK
6
CONTINUOUS
10
176.276
20
-128.128
11
176.334
21
-128.079
0
LINE
8
BLACK
6
CONTINUOUS
10
176.334
20
-128.079
11
176.444
21
-128.05
0
LINE
8
BLACK
6
CONTINUOUS
10
176.444
20
-128.05
11
176.956
21
-128.05
0
LINE
8
BLACK
6
CONTINUOUS
10
176.956
20
-128.05
11
177.031
21
-128.063
0
LINE
8
BLACK
6
CONTINUOUS
10
154.6
20
-128.4
11
153.6
21
-128.4
0
LINE
8
BLACK
6
CONTINUOUS
10
153.6
20
-128.4
11
153.6
21
-127.5
0
LINE
8
BLACK
6
CONTINUOUS
10
153.6
20
-127.5
11
154.6
21
-127.5
0
LINE
8
BLACK
6
CONTINUOUS
10
154.6
20
-127.5
11
154.6
21
-128.4
0
LINE
8
BLACK
6
CONTINUOUS
10
156.2
20
-128.4
11
155.2
21
-128.4
0
LINE
8
BLACK
6
CONTINUOUS
10
155.2
20
-128.4
11
155.2
21
-127.5
0
LINE
8
BLACK
6
CONTINUOUS
10
155.2
20
-127.5
11
156.2
21
-127.5
0
LINE
8
BLACK
6
CONTINUOUS
10
156.2
20
-127.5
11
156.2
21
-128.4
0
LINE
8
BLACK
6
CONTINUOUS
10
170.531
20
-127.263
11
170.597
21
-127.301
0
LINE
8
BLACK
6
CONTINUOUS
10
170.597
20
-127.301
11
170.646
21
-127.359
0
LINE
8
BLACK
6
CONTINUOUS
10
170.646
20
-127.359
11
170.675
21
-127.469
0
LINE
8
BLACK
6
CONTINUOUS
10
170.675
20
-127.469
11
170.675
21
-127.906
0
LINE
8
BLACK
6
CONTINUOUS
10
170.675
20
-127.906
11
170.662
21
-127.981
0
LINE
8
BLACK
6
CONTINUOUS
10
170.662
20
-127.981
11
170.624
21
-128.047
0
LINE
8
BLACK
6
CONTINUOUS
10
170.624
20
-128.047
11
170.566
21
-128.096
0
LINE
8
BLACK
6
CONTINUOUS
10
170.566
20
-128.096
11
170.456
21
-128.125
0
LINE
8
BLACK
6
CONTINUOUS
10
170.456
20
-128.125
11
169.944
21
-128.125
0
LINE
8
BLACK
6
CONTINUOUS
10
169.944
20
-128.125
11
169.869
21
-128.112
0
LINE
8
BLACK
6
CONTINUOUS
10
169.869
20
-128.112
11
169.803
21
-128.074
0
LINE
8
BLACK
6
CONTINUOUS
10
169.803
20
-128.074
11
169.754
21
-128.016
0
LINE
8
BLACK
6
CONTINUOUS
10
169.754
20
-128.016
11
169.725
21
-127.906
0
LINE
8
BLACK
6
CONTINUOUS
10
169.725
20
-127.906
11
169.725
21
-127.469
0
LINE
8
BLACK
6
CONTINUOUS
10
169.725
20
-127.469
11
169.738
21
-127.394
0
LINE
8
BLACK
6
CONTINUOUS
10
169.738
20
-127.394
11
169.776
21
-127.328
0
LINE
8
BLACK
6
CONTINUOUS
10
169.776
20
-127.328
11
169.834
21
-127.279
0
LINE
8
BLACK
6
CONTINUOUS
10
169.834
20
-127.279
11
169.944
21
-127.25
0
LINE
8
BLACK
6
CONTINUOUS
10
169.944
20
-127.25
11
170.456
21
-127.25
0
LINE
8
BLACK
6
CONTINUOUS
10
170.456
20
-127.25
11
170.531
21
-127.263
0
LINE
8
BLACK
6
CONTINUOUS
10
175.431
20
-126.488
11
175.497
21
-126.526
0
LINE
8
BLACK
6
CONTINUOUS
10
175.497
20
-126.526
11
175.546
21
-126.584
0
LINE
8
BLACK
6
CONTINUOUS
10
175.546
20
-126.584
11
175.575
21
-126.694
0
LINE
8
BLACK
6
CONTINUOUS
10
175.575
20
-126.694
11
175.575
21
-127.131
0
LINE
8
BLACK
6
CONTINUOUS
10
175.575
20
-127.131
11
175.562
21
-127.206
0
LINE
8
BLACK
6
CONTINUOUS
10
175.562
20
-127.206
11
175.524
21
-127.272
0
LINE
8
BLACK
6
CONTINUOUS
10
175.524
20
-127.272
11
175.466
21
-127.321
0
LINE
8
BLACK
6
CONTINUOUS
10
175.466
20
-127.321
11
175.356
21
-127.35
0
LINE
8
BLACK
6
CONTINUOUS
10
175.356
20
-127.35
11
174.844
21
-127.35
0
LINE
8
BLACK
6
CONTINUOUS
10
174.844
20
-127.35
11
174.769
21
-127.337
0
LINE
8
BLACK
6
CONTINUOUS
10
174.769
20
-127.337
11
174.703
21
-127.299
0
LINE
8
BLACK
6
CONTINUOUS
10
174.703
20
-127.299
11
174.654
21
-127.241
0
LINE
8
BLACK
6
CONTINUOUS
10
174.654
20
-127.241
11
174.625
21
-127.131
0
LINE
8
BLACK
6
CONTINUOUS
10
174.625
20
-127.131
11
174.625
21
-126.694
0
LINE
8
BLACK
6
CONTINUOUS
10
174.625
20
-126.694
11
174.638
21
-126.619
0
LINE
8
BLACK
6
CONTINUOUS
10
174.638
20
-126.619
11
174.676
21
-126.553
0
LINE
8
BLACK
6
CONTINUOUS
10
174.676
20
-126.553
11
174.734
21
-126.504
0
LINE
8
BLACK
6
CONTINUOUS
10
174.734
20
-126.504
11
174.844
21
-126.475
0
LINE
8
BLACK
6
CONTINUOUS
10
174.844
20
-126.475
11
175.356
21
-126.475
0
LINE
8
BLACK
6
CONTINUOUS
10
175.356
20
-126.475
11
175.431
21
-126.488
0
LINE
8
BLACK
6
CONTINUOUS
10
177.031
20
-126.488
11
177.097
21
-126.526
0
LINE
8
BLACK
6
CONTINUOUS
10
177.097
20
-126.526
11
177.146
21
-126.584
0
LINE
8
BLACK
6
CONTINUOUS
10
177.146
20
-126.584
11
177.175
21
-126.694
0
LINE
8
BLACK
6
CONTINUOUS
10
177.175
20
-126.694
11
177.175
21
-127.131
0
LINE
8
BLACK
6
CONTINUOUS
10
177.175
20
-127.131
11
177.162
21
-127.206
0
LINE
8
BLACK
6
CONTINUOUS
10
177.162
20
-127.206
11
177.124
21
-127.272
0
LINE
8
BLACK
6
CONTINUOUS
10
177.124
20
-127.272
11
177.066
21
-127.321
0
LINE
8
BLACK
6
CONTINUOUS
10
177.066
20
-127.321
11
176.956
21
-127.35
0
LINE
8
BLACK
6
CONTINUOUS
10
176.956
20
-127.35
11
176.444
21
-127.35
0
LINE
8
BLACK
6
CONTINUOUS
10
176.444
20
-127.35
11
176.369
21
-127.337
0
LINE
8
BLACK
6
CONTINUOUS
10
176.369
20
-127.337
11
176.303
21
-127.299
0
LINE
8
BLACK
6
CONTINUOUS
10
176.303
20
-127.299
11
176.254
21
-127.241
0
LINE
8
BLACK
6
CONTINUOUS
10
176.254
20
-127.241
11
176.225
21
-127.131
0
LINE
8
BLACK
6
CONTINUOUS
10
176.225
20
-127.131
11
176.225
21
-126.694
0
LINE
8
BLACK
6
CONTINUOUS
10
176.225
20
-126.694
11
176.238
21
-126.619
0
LINE
8
BLACK
6
CONTINUOUS
10
176.238
20
-126.619
11
176.276
21
-126.553
0
LINE
8
BLACK
6
CONTINUOUS
10
176.276
20
-126.553
11
176.334
21
-126.504
0
LINE
8
BLACK
6
CONTINUOUS
10
176.334
20
-126.504
11
176.444
21
-126.475
0
LINE
8
BLACK
6
CONTINUOUS
10
176.444
20
-126.475
11
176.956
21
-126.475
0
LINE
8
BLACK
6
CONTINUOUS
10
176.956
20
-126.475
11
177.031
21
-126.488
0
LINE
8
BLACK
6
CONTINUOUS
10
172.131
20
-126.488
11
172.197
21
-126.526
0
LINE
8
BLACK
6
CONTINUOUS
10
172.197
20
-126.526
11
172.246
21
-126.584
0
LINE
8
BLACK
6
CONTINUOUS
10
172.246
20
-126.584
11
172.275
21
-126.694
0
LINE
8
BLACK
6
CONTINUOUS
10
172.275
20
-126.694
11
172.275
21
-127.131
0
LINE
8
BLACK
6
CONTINUOUS
10
172.275
20
-127.131
11
172.262
21
-127.206
0
LINE
8
BLACK
6
CONTINUOUS
10
172.262
20
-127.206
11
172.224
21
-127.272
0
LINE
8
BLACK
6
CONTINUOUS
10
172.224
20
-127.272
11
172.166
21
-127.321
0
LINE
8
BLACK
6
CONTINUOUS
10
172.166
20
-127.321
11
172.056
21
-127.35
0
LINE
8
BLACK
6
CONTINUOUS
10
172.056
20
-127.35
11
171.544
21
-127.35
0
LINE
8
BLACK
6
CONTINUOUS
10
171.544
20
-127.35
11
171.469
21
-127.337
0
LINE
8
BLACK
6
CONTINUOUS
10
171.469
20
-127.337
11
171.403
21
-127.299
0
LINE
8
BLACK
6
CONTINUOUS
10
171.403
20
-127.299
11
171.354
21
-127.241
0
LINE
8
BLACK
6
CONTINUOUS
10
171.354
20
-127.241
11
171.325
21
-127.131
0
LINE
8
BLACK
6
CONTINUOUS
10
171.325
20
-127.131
11
171.325
21
-126.694
0
LINE
8
BLACK
6
CONTINUOUS
10
171.325
20
-126.694
11
171.338
21
-126.619
0
LINE
8
BLACK
6
CONTINUOUS
10
171.338
20
-126.619
11
171.376
21
-126.553
0
LINE
8
BLACK
6
CONTINUOUS
10
171.376
20
-126.553
11
171.434
21
-126.504
0
LINE
8
BLACK
6
CONTINUOUS
10
171.434
20
-126.504
11
171.544
21
-126.475
0
LINE
8
BLACK
6
CONTINUOUS
10
171.544
20
-126.475
11
172.056
21
-126.475
0
LINE
8
BLACK
6
CONTINUOUS
10
172.056
20
-126.475
11
172.131
21
-126.488
0
LINE
8
BLACK
6
CONTINUOUS
10
173.731
20
-126.488
11
173.797
21
-126.526
0
LINE
8
BLACK
6
CONTINUOUS
10
173.797
20
-126.526
11
173.846
21
-126.584
0
LINE
8
BLACK
6
CONTINUOUS
10
173.846
20
-126.584
11
173.875
21
-126.694
0
LINE
8
BLACK
6
CONTINUOUS
10
173.875
20
-126.694
11
173.875
21
-127.131
0
LINE
8
BLACK
6
CONTINUOUS
10
173.875
20
-127.131
11
173.862
21
-127.206
0
LINE
8
BLACK
6
CONTINUOUS
10
173.862
20
-127.206
11
173.824
21
-127.272
0
LINE
8
BLACK
6
CONTINUOUS
10
173.824
20
-127.272
11
173.766
21
-127.321
0
LINE
8
BLACK
6
CONTINUOUS
10
173.766
20
-127.321
11
173.656
21
-127.35
0
LINE
8
BLACK
6
CONTINUOUS
10
173.656
20
-127.35
11
173.144
21
-127.35
0
LINE
8
BLACK
6
CONTINUOUS
10
173.144
20
-127.35
11
173.069
21
-127.337
0
LINE
8
BLACK
6
CONTINUOUS
10
173.069
20
-127.337
11
173.003
21
-127.299
0
LINE
8
BLACK
6
CONTINUOUS
10
173.003
20
-127.299
11
172.954
21
-127.241
0
LINE
8
BLACK
6
CONTINUOUS
10
172.954
20
-127.241
11
172.925
21
-127.131
0
LINE
8
BLACK
6
CONTINUOUS
10
172.925
20
-127.131
11
172.925
21
-126.694
0
LINE
8
BLACK
6
CONTINUOUS
10
172.925
20
-126.694
11
172.938
21
-126.619
0
LINE
8
BLACK
6
CONTINUOUS
10
172.938
20
-126.619
11
172.976
21
-126.553
0
LINE
8
BLACK
6
CONTINUOUS
10
172.976
20
-126.553
11
173.034
21
-126.504
0
LINE
8
BLACK
6
CONTINUOUS
10
173.034
20
-126.504
11
173.144
21
-126.475
0
LINE
8
BLACK
6
CONTINUOUS
10
173.144
20
-126.475
11
173.656
21
-126.475
0
LINE
8
BLACK
6
CONTINUOUS
10
173.656
20
-126.475
11
173.731
21
-126.488
0
LINE
8
BLACK
6
CONTINUOUS
10
156.031
20
-126.163
11
156.097
21
-126.201
0
LINE
8
BLACK
6
CONTINUOUS
10
156.097
20
-126.201
11
156.146
21
-126.259
0
LINE
8
BLACK
6
CONTINUOUS
10
156.146
20
-126.259
11
156.175
21
-126.369
0
LINE
8
BLACK
6
CONTINUOUS
10
156.175
20
-126.369
11
156.175
21
-126.806
0
LINE
8
BLACK
6
CONTINUOUS
10
156.175
20
-126.806
11
156.162
21
-126.881
0
LINE
8
BLACK
6
CONTINUOUS
10
156.162
20
-126.881
11
156.124
21
-126.947
0
LINE
8
BLACK
6
CONTINUOUS
10
156.124
20
-126.947
11
156.066
21
-126.996
0
LINE
8
BLACK
6
CONTINUOUS
10
156.066
20
-126.996
11
155.956
21
-127.025
0
LINE
8
BLACK
6
CONTINUOUS
10
155.956
20
-127.025
11
155.444
21
-127.025
0
LINE
8
BLACK
6
CONTINUOUS
10
155.444
20
-127.025
11
155.369
21
-127.012
0
LINE
8
BLACK
6
CONTINUOUS
10
155.369
20
-127.012
11
155.303
21
-126.974
0
LINE
8
BLACK
6
CONTINUOUS
10
155.303
20
-126.974
11
155.254
21
-126.916
0
LINE
8
BLACK
6
CONTINUOUS
10
155.254
20
-126.916
11
155.225
21
-126.806
0
LINE
8
BLACK
6
CONTINUOUS
10
155.225
20
-126.806
11
155.225
21
-126.369
0
LINE
8
BLACK
6
CONTINUOUS
10
155.225
20
-126.369
11
155.238
21
-126.294
0
LINE
8
BLACK
6
CONTINUOUS
10
155.238
20
-126.294
11
155.276
21
-126.228
0
LINE
8
BLACK
6
CONTINUOUS
10
155.276
20
-126.228
11
155.334
21
-126.179
0
LINE
8
BLACK
6
CONTINUOUS
10
155.334
20
-126.179
11
155.444
21
-126.15
0
LINE
8
BLACK
6
CONTINUOUS
10
155.444
20
-126.15
11
155.956
21
-126.15
0
LINE
8
BLACK
6
CONTINUOUS
10
155.956
20
-126.15
11
156.031
21
-126.163
0
LINE
8
BLACK
6
CONTINUOUS
10
182.906
20
-125.838
11
182.972
21
-125.876
0
LINE
8
BLACK
6
CONTINUOUS
10
182.972
20
-125.876
11
183.021
21
-125.934
0
LINE
8
BLACK
6
CONTINUOUS
10
183.021
20
-125.934
11
183.05
21
-126.044
0
LINE
8
BLACK
6
CONTINUOUS
10
183.05
20
-126.044
11
183.05
21
-126.556
0
LINE
8
BLACK
6
CONTINUOUS
10
183.05
20
-126.556
11
183.037
21
-126.631
0
LINE
8
BLACK
6
CONTINUOUS
10
183.037
20
-126.631
11
182.999
21
-126.697
0
LINE
8
BLACK
6
CONTINUOUS
10
182.999
20
-126.697
11
182.941
21
-126.746
0
LINE
8
BLACK
6
CONTINUOUS
10
182.941
20
-126.746
11
182.831
21
-126.775
0
LINE
8
BLACK
6
CONTINUOUS
10
182.831
20
-126.775
11
182.394
21
-126.775
0
LINE
8
BLACK
6
CONTINUOUS
10
182.394
20
-126.775
11
182.319
21
-126.762
0
LINE
8
BLACK
6
CONTINUOUS
10
182.319
20
-126.762
11
182.253
21
-126.724
0
LINE
8
BLACK
6
CONTINUOUS
10
182.253
20
-126.724
11
182.204
21
-126.666
0
LINE
8
BLACK
6
CONTINUOUS
10
182.204
20
-126.666
11
182.175
21
-126.556
0
LINE
8
BLACK
6
CONTINUOUS
10
182.175
20
-126.556
11
182.175
21
-126.044
0
LINE
8
BLACK
6
CONTINUOUS
10
182.175
20
-126.044
11
182.188
21
-125.969
0
LINE
8
BLACK
6
CONTINUOUS
10
182.188
20
-125.969
11
182.226
21
-125.903
0
LINE
8
BLACK
6
CONTINUOUS
10
182.226
20
-125.903
11
182.284
21
-125.854
0
LINE
8
BLACK
6
CONTINUOUS
10
182.284
20
-125.854
11
182.394
21
-125.825
0
LINE
8
BLACK
6
CONTINUOUS
10
182.394
20
-125.825
11
182.831
21
-125.825
0
LINE
8
BLACK
6
CONTINUOUS
10
182.831
20
-125.825
11
182.906
21
-125.838
0
LINE
8
BLACK
6
CONTINUOUS
10
184.481
20
-125.838
11
184.547
21
-125.876
0
LINE
8
BLACK
6
CONTINUOUS
10
184.547
20
-125.876
11
184.596
21
-125.934
0
LINE
8
BLACK
6
CONTINUOUS
10
184.596
20
-125.934
11
184.625
21
-126.044
0
LINE
8
BLACK
6
CONTINUOUS
10
184.625
20
-126.044
11
184.625
21
-126.556
0
LINE
8
BLACK
6
CONTINUOUS
10
184.625
20
-126.556
11
184.612
21
-126.631
0
LINE
8
BLACK
6
CONTINUOUS
10
184.612
20
-126.631
11
184.574
21
-126.697
0
LINE
8
BLACK
6
CONTINUOUS
10
184.574
20
-126.697
11
184.516
21
-126.746
0
LINE
8
BLACK
6
CONTINUOUS
10
184.516
20
-126.746
11
184.406
21
-126.775
0
LINE
8
BLACK
6
CONTINUOUS
10
184.406
20
-126.775
11
183.969
21
-126.775
0
LINE
8
BLACK
6
CONTINUOUS
10
183.969
20
-126.775
11
183.894
21
-126.762
0
LINE
8
BLACK
6
CONTINUOUS
10
183.894
20
-126.762
11
183.828
21
-126.724
0
LINE
8
BLACK
6
CONTINUOUS
10
183.828
20
-126.724
11
183.779
21
-126.666
0
LINE
8
BLACK
6
CONTINUOUS
10
183.779
20
-126.666
11
183.75
21
-126.556
0
LINE
8
BLACK
6
CONTINUOUS
10
183.75
20
-126.556
11
183.75
21
-126.044
0
LINE
8
BLACK
6
CONTINUOUS
10
183.75
20
-126.044
11
183.763
21
-125.969
0
LINE
8
BLACK
6
CONTINUOUS
10
183.763
20
-125.969
11
183.801
21
-125.903
0
LINE
8
BLACK
6
CONTINUOUS
10
183.801
20
-125.903
11
183.859
21
-125.854
0
LINE
8
BLACK
6
CONTINUOUS
10
183.859
20
-125.854
11
183.969
21
-125.825
0
LINE
8
BLACK
6
CONTINUOUS
10
183.969
20
-125.825
11
184.406
21
-125.825
0
LINE
8
BLACK
6
CONTINUOUS
10
184.406
20
-125.825
11
184.481
21
-125.838
0
LINE
8
BLACK
6
CONTINUOUS
10
170.531
20
-125.688
11
170.597
21
-125.726
0
LINE
8
BLACK
6
CONTINUOUS
10
170.597
20
-125.726
11
170.646
21
-125.784
0
LINE
8
BLACK
6
CONTINUOUS
10
170.646
20
-125.784
11
170.675
21
-125.894
0
LINE
8
BLACK
6
CONTINUOUS
10
170.675
20
-125.894
11
170.675
21
-126.331
0
LINE
8
BLACK
6
CONTINUOUS
10
170.675
20
-126.331
11
170.662
21
-126.406
0
LINE
8
BLACK
6
CONTINUOUS
10
170.662
20
-126.406
11
170.624
21
-126.472
0
LINE
8
BLACK
6
CONTINUOUS
10
170.624
20
-126.472
11
170.566
21
-126.521
0
LINE
8
BLACK
6
CONTINUOUS
10
170.566
20
-126.521
11
170.456
21
-126.55
0
LINE
8
BLACK
6
CONTINUOUS
10
170.456
20
-126.55
11
169.944
21
-126.55
0
LINE
8
BLACK
6
CONTINUOUS
10
169.944
20
-126.55
11
169.869
21
-126.537
0
LINE
8
BLACK
6
CONTINUOUS
10
169.869
20
-126.537
11
169.803
21
-126.499
0
LINE
8
BLACK
6
CONTINUOUS
10
169.803
20
-126.499
11
169.754
21
-126.441
0
LINE
8
BLACK
6
CONTINUOUS
10
169.754
20
-126.441
11
169.725
21
-126.331
0
LINE
8
BLACK
6
CONTINUOUS
10
169.725
20
-126.331
11
169.725
21
-125.894
0
LINE
8
BLACK
6
CONTINUOUS
10
169.725
20
-125.894
11
169.738
21
-125.819
0
LINE
8
BLACK
6
CONTINUOUS
10
169.738
20
-125.819
11
169.776
21
-125.753
0
LINE
8
BLACK
6
CONTINUOUS
10
169.776
20
-125.753
11
169.834
21
-125.704
0
LINE
8
BLACK
6
CONTINUOUS
10
169.834
20
-125.704
11
169.944
21
-125.675
0
LINE
8
BLACK
6
CONTINUOUS
10
169.944
20
-125.675
11
170.456
21
-125.675
0
LINE
8
BLACK
6
CONTINUOUS
10
170.456
20
-125.675
11
170.531
21
-125.688
0
LINE
8
BLACK
6
CONTINUOUS
10
176.981
20
-124.838
11
177.047
21
-124.876
0
LINE
8
BLACK
6
CONTINUOUS
10
177.047
20
-124.876
11
177.096
21
-124.934
0
LINE
8
BLACK
6
CONTINUOUS
10
177.096
20
-124.934
11
177.125
21
-125.044
0
LINE
8
BLACK
6
CONTINUOUS
10
177.125
20
-125.044
11
177.125
21
-125.556
0
LINE
8
BLACK
6
CONTINUOUS
10
177.125
20
-125.556
11
177.112
21
-125.631
0
LINE
8
BLACK
6
CONTINUOUS
10
177.112
20
-125.631
11
177.074
21
-125.697
0
LINE
8
BLACK
6
CONTINUOUS
10
177.074
20
-125.697
11
177.016
21
-125.746
0
LINE
8
BLACK
6
CONTINUOUS
10
177.016
20
-125.746
11
176.906
21
-125.775
0
LINE
8
BLACK
6
CONTINUOUS
10
176.906
20
-125.775
11
176.469
21
-125.775
0
LINE
8
BLACK
6
CONTINUOUS
10
176.469
20
-125.775
11
176.394
21
-125.762
0
LINE
8
BLACK
6
CONTINUOUS
10
176.394
20
-125.762
11
176.328
21
-125.724
0
LINE
8
BLACK
6
CONTINUOUS
10
176.328
20
-125.724
11
176.279
21
-125.666
0
LINE
8
BLACK
6
CONTINUOUS
10
176.279
20
-125.666
11
176.25
21
-125.556
0
LINE
8
BLACK
6
CONTINUOUS
10
176.25
20
-125.556
11
176.25
21
-125.044
0
LINE
8
BLACK
6
CONTINUOUS
10
176.25
20
-125.044
11
176.263
21
-124.969
0
LINE
8
BLACK
6
CONTINUOUS
10
176.263
20
-124.969
11
176.301
21
-124.903
0
LINE
8
BLACK
6
CONTINUOUS
10
176.301
20
-124.903
11
176.359
21
-124.854
0
LINE
8
BLACK
6
CONTINUOUS
10
176.359
20
-124.854
11
176.469
21
-124.825
0
LINE
8
BLACK
6
CONTINUOUS
10
176.469
20
-124.825
11
176.906
21
-124.825
0
LINE
8
BLACK
6
CONTINUOUS
10
176.906
20
-124.825
11
176.981
21
-124.838
0
LINE
8
BLACK
6
CONTINUOUS
10
173.681
20
-124.838
11
173.747
21
-124.876
0
LINE
8
BLACK
6
CONTINUOUS
10
173.747
20
-124.876
11
173.796
21
-124.934
0
LINE
8
BLACK
6
CONTINUOUS
10
173.796
20
-124.934
11
173.825
21
-125.044
0
LINE
8
BLACK
6
CONTINUOUS
10
173.825
20
-125.044
11
173.825
21
-125.556
0
LINE
8
BLACK
6
CONTINUOUS
10
173.825
20
-125.556
11
173.812
21
-125.631
0
LINE
8
BLACK
6
CONTINUOUS
10
173.812
20
-125.631
11
173.774
21
-125.697
0
LINE
8
BLACK
6
CONTINUOUS
10
173.774
20
-125.697
11
173.716
21
-125.746
0
LINE
8
BLACK
6
CONTINUOUS
10
173.716
20
-125.746
11
173.606
21
-125.775
0
LINE
8
BLACK
6
CONTINUOUS
10
173.606
20
-125.775
11
173.169
21
-125.775
0
LINE
8
BLACK
6
CONTINUOUS
10
173.169
20
-125.775
11
173.094
21
-125.762
0
LINE
8
BLACK
6
CONTINUOUS
10
173.094
20
-125.762
11
173.028
21
-125.724
0
LINE
8
BLACK
6
CONTINUOUS
10
173.028
20
-125.724
11
172.979
21
-125.666
0
LINE
8
BLACK
6
CONTINUOUS
10
172.979
20
-125.666
11
172.95
21
-125.556
0
LINE
8
BLACK
6
CONTINUOUS
10
172.95
20
-125.556
11
172.95
21
-125.044
0
LINE
8
BLACK
6
CONTINUOUS
10
172.95
20
-125.044
11
172.963
21
-124.969
0
LINE
8
BLACK
6
CONTINUOUS
10
172.963
20
-124.969
11
173.001
21
-124.903
0
LINE
8
BLACK
6
CONTINUOUS
10
173.001
20
-124.903
11
173.059
21
-124.854
0
LINE
8
BLACK
6
CONTINUOUS
10
173.059
20
-124.854
11
173.169
21
-124.825
0
LINE
8
BLACK
6
CONTINUOUS
10
173.169
20
-124.825
11
173.606
21
-124.825
0
LINE
8
BLACK
6
CONTINUOUS
10
173.606
20
-124.825
11
173.681
21
-124.838
0
LINE
8
BLACK
6
CONTINUOUS
10
172.106
20
-124.838
11
172.172
21
-124.876
0
LINE
8
BLACK
6
CONTINUOUS
10
172.172
20
-124.876
11
172.221
21
-124.934
0
LINE
8
BLACK
6
CONTINUOUS
10
172.221
20
-124.934
11
172.25
21
-125.044
0
LINE
8
BLACK
6
CONTINUOUS
10
172.25
20
-125.044
11
172.25
21
-125.556
0
LINE
8
BLACK
6
CONTINUOUS
10
172.25
20
-125.556
11
172.237
21
-125.631
0
LINE
8
BLACK
6
CONTINUOUS
10
172.237
20
-125.631
11
172.199
21
-125.697
0
LINE
8
BLACK
6
CONTINUOUS
10
172.199
20
-125.697
11
172.141
21
-125.746
0
LINE
8
BLACK
6
CONTINUOUS
10
172.141
20
-125.746
11
172.031
21
-125.775
0
LINE
8
BLACK
6
CONTINUOUS
10
172.031
20
-125.775
11
171.594
21
-125.775
0
LINE
8
BLACK
6
CONTINUOUS
10
171.594
20
-125.775
11
171.519
21
-125.762
0
LINE
8
BLACK
6
CONTINUOUS
10
171.519
20
-125.762
11
171.453
21
-125.724
0
LINE
8
BLACK
6
CONTINUOUS
10
171.453
20
-125.724
11
171.404
21
-125.666
0
LINE
8
BLACK
6
CONTINUOUS
10
171.404
20
-125.666
11
171.375
21
-125.556
0
LINE
8
BLACK
6
CONTINUOUS
10
171.375
20
-125.556
11
171.375
21
-125.044
0
LINE
8
BLACK
6
CONTINUOUS
10
171.375
20
-125.044
11
171.388
21
-124.969
0
LINE
8
BLACK
6
CONTINUOUS
10
171.388
20
-124.969
11
171.426
21
-124.903
0
LINE
8
BLACK
6
CONTINUOUS
10
171.426
20
-124.903
11
171.484
21
-124.854
0
LINE
8
BLACK
6
CONTINUOUS
10
171.484
20
-124.854
11
171.594
21
-124.825
0
LINE
8
BLACK
6
CONTINUOUS
10
171.594
20
-124.825
11
172.031
21
-124.825
0
LINE
8
BLACK
6
CONTINUOUS
10
172.031
20
-124.825
11
172.106
21
-124.838
0
LINE
8
BLACK
6
CONTINUOUS
10
175.406
20
-124.838
11
175.472
21
-124.876
0
LINE
8
BLACK
6
CONTINUOUS
10
175.472
20
-124.876
11
175.521
21
-124.934
0
LINE
8
BLACK
6
CONTINUOUS
10
175.521
20
-124.934
11
175.55
21
-125.044
0
LINE
8
BLACK
6
CONTINUOUS
10
175.55
20
-125.044
11
175.55
21
-125.556
0
LINE
8
BLACK
6
CONTINUOUS
10
175.55
20
-125.556
11
175.537
21
-125.631
0
LINE
8
BLACK
6
CONTINUOUS
10
175.537
20
-125.631
11
175.499
21
-125.697
0
LINE
8
BLACK
6
CONTINUOUS
10
175.499
20
-125.697
11
175.441
21
-125.746
0
LINE
8
BLACK
6
CONTINUOUS
10
175.441
20
-125.746
11
175.331
21
-125.775
0
LINE
8
BLACK
6
CONTINUOUS
10
175.331
20
-125.775
11
174.894
21
-125.775
0
LINE
8
BLACK
6
CONTINUOUS
10
174.894
20
-125.775
11
174.819
21
-125.762
0
LINE
8
BLACK
6
CONTINUOUS
10
174.819
20
-125.762
11
174.753
21
-125.724
0
LINE
8
BLACK
6
CONTINUOUS
10
174.753
20
-125.724
11
174.704
21
-125.666
0
LINE
8
BLACK
6
CONTINUOUS
10
174.704
20
-125.666
11
174.675
21
-125.556
0
LINE
8
BLACK
6
CONTINUOUS
10
174.675
20
-125.556
11
174.675
21
-125.044
0
LINE
8
BLACK
6
CONTINUOUS
10
174.675
20
-125.044
11
174.688
21
-124.969
0
LINE
8
BLACK
6
CONTINUOUS
10
174.688
20
-124.969
11
174.726
21
-124.903
0
LINE
8
BLACK
6
CONTINUOUS
10
174.726
20
-124.903
11
174.784
21
-124.854
0
LINE
8
BLACK
6
CONTINUOUS
10
174.784
20
-124.854
11
174.894
21
-124.825
0
LINE
8
BLACK
6
CONTINUOUS
10
174.894
20
-124.825
11
175.331
21
-124.825
0
LINE
8
BLACK
6
CONTINUOUS
10
175.331
20
-124.825
11
175.406
21
-124.838
0
LINE
8
BLACK
6
CONTINUOUS
10
156.031
20
-124.588
11
156.097
21
-124.626
0
LINE
8
BLACK
6
CONTINUOUS
10
156.097
20
-124.626
11
156.146
21
-124.684
0
LINE
8
BLACK
6
CONTINUOUS
10
156.146
20
-124.684
11
156.175
21
-124.794
0
LINE
8
BLACK
6
CONTINUOUS
10
156.175
20
-124.794
11
156.175
21
-125.231
0
LINE
8
BLACK
6
CONTINUOUS
10
156.175
20
-125.231
11
156.162
21
-125.306
0
LINE
8
BLACK
6
CONTINUOUS
10
156.162
20
-125.306
11
156.124
21
-125.372
0
LINE
8
BLACK
6
CONTINUOUS
10
156.124
20
-125.372
11
156.066
21
-125.421
0
LINE
8
BLACK
6
CONTINUOUS
10
156.066
20
-125.421
11
155.956
21
-125.45
0
LINE
8
BLACK
6
CONTINUOUS
10
155.956
20
-125.45
11
155.444
21
-125.45
0
LINE
8
BLACK
6
CONTINUOUS
10
155.444
20
-125.45
11
155.369
21
-125.437
0
LINE
8
BLACK
6
CONTINUOUS
10
155.369
20
-125.437
11
155.303
21
-125.399
0
LINE
8
BLACK
6
CONTINUOUS
10
155.303
20
-125.399
11
155.254
21
-125.341
0
LINE
8
BLACK
6
CONTINUOUS
10
155.254
20
-125.341
11
155.225
21
-125.231
0
LINE
8
BLACK
6
CONTINUOUS
10
155.225
20
-125.231
11
155.225
21
-124.794
0
LINE
8
BLACK
6
CONTINUOUS
10
155.225
20
-124.794
11
155.238
21
-124.719
0
LINE
8
BLACK
6
CONTINUOUS
10
155.238
20
-124.719
11
155.276
21
-124.653
0
LINE
8
BLACK
6
CONTINUOUS
10
155.276
20
-124.653
11
155.334
21
-124.604
0
LINE
8
BLACK
6
CONTINUOUS
10
155.334
20
-124.604
11
155.444
21
-124.575
0
LINE
8
BLACK
6
CONTINUOUS
10
155.444
20
-124.575
11
155.956
21
-124.575
0
LINE
8
BLACK
6
CONTINUOUS
10
155.956
20
-124.575
11
156.031
21
-124.588
0
LINE
8
BLACK
6
CONTINUOUS
10
187.975
20
-125.13
11
187.325
21
-125.13
0
LINE
8
BLACK
6
CONTINUOUS
10
187.325
20
-125.13
11
187.325
21
-124.07
0
LINE
8
BLACK
6
CONTINUOUS
10
187.325
20
-124.07
11
187.975
21
-124.07
0
LINE
8
BLACK
6
CONTINUOUS
10
187.975
20
-124.07
11
187.975
21
-125.13
0
LINE
8
BLACK
6
CONTINUOUS
10
187.025
20
-125.13
11
186.375
21
-125.13
0
LINE
8
BLACK
6
CONTINUOUS
10
186.375
20
-125.13
11
186.375
21
-124.07
0
LINE
8
BLACK
6
CONTINUOUS
10
186.375
20
-124.07
11
187.025
21
-124.07
0
LINE
8
BLACK
6
CONTINUOUS
10
187.025
20
-124.07
11
187.025
21
-125.13
0
LINE
8
BLACK
6
CONTINUOUS
10
186.075
20
-125.13
11
185.425
21
-125.13
0
LINE
8
BLACK
6
CONTINUOUS
10
185.425
20
-125.13
11
185.425
21
-124.07
0
LINE
8
BLACK
6
CONTINUOUS
10
185.425
20
-124.07
11
186.075
21
-124.07
0
LINE
8
BLACK
6
CONTINUOUS
10
186.075
20
-124.07
11
186.075
21
-125.13
0
LINE
8
BLACK
6
CONTINUOUS
10
184.481
20
-124.138
11
184.547
21
-124.176
0
LINE
8
BLACK
6
CONTINUOUS
10
184.547
20
-124.176
11
184.596
21
-124.234
0
LINE
8
BLACK
6
CONTINUOUS
10
184.596
20
-124.234
11
184.625
21
-124.344
0
LINE
8
BLACK
6
CONTINUOUS
10
184.625
20
-124.344
11
184.625
21
-124.856
0
LINE
8
BLACK
6
CONTINUOUS
10
184.625
20
-124.856
11
184.612
21
-124.931
0
LINE
8
BLACK
6
CONTINUOUS
10
184.612
20
-124.931
11
184.574
21
-124.997
0
LINE
8
BLACK
6
CONTINUOUS
10
184.574
20
-124.997
11
184.516
21
-125.046
0
LINE
8
BLACK
6
CONTINUOUS
10
184.516
20
-125.046
11
184.406
21
-125.075
0
LINE
8
BLACK
6
CONTINUOUS
10
184.406
20
-125.075
11
183.969
21
-125.075
0
LINE
8
BLACK
6
CONTINUOUS
10
183.969
20
-125.075
11
183.894
21
-125.062
0
LINE
8
BLACK
6
CONTINUOUS
10
183.894
20
-125.062
11
183.828
21
-125.024
0
LINE
8
BLACK
6
CONTINUOUS
10
183.828
20
-125.024
11
183.779
21
-124.966
0
LINE
8
BLACK
6
CONTINUOUS
10
183.779
20
-124.966
11
183.75
21
-124.856
0
LINE
8
BLACK
6
CONTINUOUS
10
183.75
20
-124.856
11
183.75
21
-124.344
0
LINE
8
BLACK
6
CONTINUOUS
10
183.75
20
-124.344
11
183.763
21
-124.269
0
LINE
8
BLACK
6
CONTINUOUS
10
183.763
20
-124.269
11
183.801
21
-124.203
0
LINE
8
BLACK
6
CONTINUOUS
10
183.801
20
-124.203
11
183.859
21
-124.154
0
LINE
8
BLACK
6
CONTINUOUS
10
183.859
20
-124.154
11
183.969
21
-124.125
0
LINE
8
BLACK
6
CONTINUOUS
10
183.969
20
-124.125
11
184.406
21
-124.125
0
LINE
8
BLACK
6
CONTINUOUS
10
184.406
20
-124.125
11
184.481
21
-124.138
0
LINE
8
BLACK
6
CONTINUOUS
10
182.906
20
-124.138
11
182.972
21
-124.176
0
LINE
8
BLACK
6
CONTINUOUS
10
182.972
20
-124.176
11
183.021
21
-124.234
0
LINE
8
BLACK
6
CONTINUOUS
10
183.021
20
-124.234
11
183.05
21
-124.344
0
LINE
8
BLACK
6
CONTINUOUS
10
183.05
20
-124.344
11
183.05
21
-124.856
0
LINE
8
BLACK
6
CONTINUOUS
10
183.05
20
-124.856
11
183.037
21
-124.931
0
LINE
8
BLACK
6
CONTINUOUS
10
183.037
20
-124.931
11
182.999
21
-124.997
0
LINE
8
BLACK
6
CONTINUOUS
10
182.999
20
-124.997
11
182.941
21
-125.046
0
LINE
8
BLACK
6
CONTINUOUS
10
182.941
20
-125.046
11
182.831
21
-125.075
0
LINE
8
BLACK
6
CONTINUOUS
10
182.831
20
-125.075
11
182.394
21
-125.075
0
LINE
8
BLACK
6
CONTINUOUS
10
182.394
20
-125.075
11
182.319
21
-125.062
0
LINE
8
BLACK
6
CONTINUOUS
10
182.319
20
-125.062
11
182.253
21
-125.024
0
LINE
8
BLACK
6
CONTINUOUS
10
182.253
20
-125.024
11
182.204
21
-124.966
0
LINE
8
BLACK
6
CONTINUOUS
10
182.204
20
-124.966
11
182.175
21
-124.856
0
LINE
8
BLACK
6
CONTINUOUS
10
182.175
20
-124.856
11
182.175
21
-124.344
0
LINE
8
BLACK
6
CONTINUOUS
10
182.175
20
-124.344
11
182.188
21
-124.269
0
LINE
8
BLACK
6
CONTINUOUS
10
182.188
20
-124.269
11
182.226
21
-124.203
0
LINE
8
BLACK
6
CONTINUOUS
10
182.226
20
-124.203
11
182.284
21
-124.154
0
LINE
8
BLACK
6
CONTINUOUS
10
182.284
20
-124.154
11
182.394
21
-124.125
0
LINE
8
BLACK
6
CONTINUOUS
10
182.394
20
-124.125
11
182.831
21
-124.125
0
LINE
8
BLACK
6
CONTINUOUS
10
182.831
20
-124.125
11
182.906
21
-124.138
0
LINE
8
BLACK
6
CONTINUOUS
10
160.281
20
-123.913
11
160.347
21
-123.951
0
LINE
8
BLACK
6
CONTINUOUS
10
160.347
20
-123.951
11
160.396
21
-124.009
0
LINE
8
BLACK
6
CONTINUOUS
10
160.396
20
-124.009
11
160.425
21
-124.119
0
LINE
8
BLACK
6
CONTINUOUS
10
160.425
20
-124.119
11
160.425
21
-124.556
0
LINE
8
BLACK
6
CONTINUOUS
10
160.425
20
-124.556
11
160.412
21
-124.631
0
LINE
8
BLACK
6
CONTINUOUS
10
160.412
20
-124.631
11
160.374
21
-124.697
0
LINE
8
BLACK
6
CONTINUOUS
10
160.374
20
-124.697
11
160.316
21
-124.746
0
LINE
8
BLACK
6
CONTINUOUS
10
160.316
20
-124.746
11
160.206
21
-124.775
0
LINE
8
BLACK
6
CONTINUOUS
10
160.206
20
-124.775
11
159.694
21
-124.775
0
LINE
8
BLACK
6
CONTINUOUS
10
159.694
20
-124.775
11
159.619
21
-124.762
0
LINE
8
BLACK
6
CONTINUOUS
10
159.619
20
-124.762
11
159.553
21
-124.724
0
LINE
8
BLACK
6
CONTINUOUS
10
159.553
20
-124.724
11
159.504
21
-124.666
0
LINE
8
BLACK
6
CONTINUOUS
10
159.504
20
-124.666
11
159.475
21
-124.556
0
LINE
8
BLACK
6
CONTINUOUS
10
159.475
20
-124.556
11
159.475
21
-124.119
0
LINE
8
BLACK
6
CONTINUOUS
10
159.475
20
-124.119
11
159.488
21
-124.044
0
LINE
8
BLACK
6
CONTINUOUS
10
159.488
20
-124.044
11
159.526
21
-123.978
0
LINE
8
BLACK
6
CONTINUOUS
10
159.526
20
-123.978
11
159.584
21
-123.929
0
LINE
8
BLACK
6
CONTINUOUS
10
159.584
20
-123.929
11
159.694
21
-123.9
0
LINE
8
BLACK
6
CONTINUOUS
10
159.694
20
-123.9
11
160.206
21
-123.9
0
LINE
8
BLACK
6
CONTINUOUS
10
160.206
20
-123.9
11
160.281
21
-123.913
0
LINE
8
BLACK
6
CONTINUOUS
10
162.45
20
-124.35
11
162.45
21
-124.6
0
LINE
8
BLACK
6
CONTINUOUS
10
162.45
20
-124.6
11
162.05
21
-124.6
0
LINE
8
BLACK
6
CONTINUOUS
10
162.05
20
-124.6
11
162.05
21
-124.2
0
LINE
8
BLACK
6
CONTINUOUS
10
162.05
20
-124.2
11
162.3
21
-124.2
0
LINE
8
BLACK
6
CONTINUOUS
10
162.3
20
-124.2
11
162.45
21
-124.35
0
LINE
8
BLACK
6
CONTINUOUS
10
161.85
20
-124.6
11
161.45
21
-124.6
0
LINE
8
BLACK
6
CONTINUOUS
10
161.45
20
-124.6
11
161.45
21
-124.2
0
LINE
8
BLACK
6
CONTINUOUS
10
161.45
20
-124.2
11
161.85
21
-124.2
0
LINE
8
BLACK
6
CONTINUOUS
10
161.85
20
-124.2
11
161.85
21
-124.6
0
LINE
8
BLACK
6
CONTINUOUS
10
162.45
20
-124
11
162.05
21
-124
0
LINE
8
BLACK
6
CONTINUOUS
10
162.05
20
-124
11
162.05
21
-123.6
0
LINE
8
BLACK
6
CONTINUOUS
10
162.05
20
-123.6
11
162.45
21
-123.6
0
LINE
8
BLACK
6
CONTINUOUS
10
162.45
20
-123.6
11
162.45
21
-124
0
LINE
8
BLACK
6
CONTINUOUS
10
161.85
20
-124
11
161.45
21
-124
0
LINE
8
BLACK
6
CONTINUOUS
10
161.45
20
-124
11
161.45
21
-123.6
0
LINE
8
BLACK
6
CONTINUOUS
10
161.45
20
-123.6
11
161.85
21
-123.6
0
LINE
8
BLACK
6
CONTINUOUS
10
161.85
20
-123.6
11
161.85
21
-124
0
LINE
8
BLACK
6
CONTINUOUS
10
169.354
20
-122.801
11
168.329
21
-123.826
0
LINE
8
BLACK
6
CONTINUOUS
10
168.329
20
-123.826
11
168.011
21
-123.508
0
LINE
8
BLACK
6
CONTINUOUS
10
168.011
20
-123.508
11
169.036
21
-122.483
0
LINE
8
BLACK
6
CONTINUOUS
10
169.036
20
-122.483
11
169.354
21
-122.801
0
LINE
8
BLACK
6
CONTINUOUS
10
168.894
20
-122.341
11
167.869
21
-123.366
0
LINE
8
BLACK
6
CONTINUOUS
10
167.869
20
-123.366
11
167.551
21
-123.048
0
LINE
8
BLACK
6
CONTINUOUS
10
167.551
20
-123.048
11
168.576
21
-122.023
0
LINE
8
BLACK
6
CONTINUOUS
10
168.576
20
-122.023
11
168.894
21
-122.341
0
LINE
8
BLACK
6
CONTINUOUS
10
165.34
20
-122.11
11
165.438
21
-122.166
0
LINE
8
BLACK
6
CONTINUOUS
10
165.438
20
-122.166
11
165.747
21
-122.476
0
LINE
8
BLACK
6
CONTINUOUS
10
165.747
20
-122.476
11
165.791
21
-122.538
0
LINE
8
BLACK
6
CONTINUOUS
10
165.791
20
-122.538
11
165.811
21
-122.611
0
LINE
8
BLACK
6
CONTINUOUS
10
165.811
20
-122.611
11
165.804
21
-122.687
0
LINE
8
BLACK
6
CONTINUOUS
10
165.804
20
-122.687
11
165.747
21
-122.785
0
LINE
8
BLACK
6
CONTINUOUS
10
165.747
20
-122.785
11
165.385
21
-123.147
0
LINE
8
BLACK
6
CONTINUOUS
10
165.385
20
-123.147
11
165.323
21
-123.191
0
LINE
8
BLACK
6
CONTINUOUS
10
165.323
20
-123.191
11
165.249
21
-123.211
0
LINE
8
BLACK
6
CONTINUOUS
10
165.249
20
-123.211
11
165.174
21
-123.204
0
LINE
8
BLACK
6
CONTINUOUS
10
165.174
20
-123.204
11
165.076
21
-123.147
0
LINE
8
BLACK
6
CONTINUOUS
10
165.076
20
-123.147
11
164.766
21
-122.838
0
LINE
8
BLACK
6
CONTINUOUS
10
164.766
20
-122.838
11
164.723
21
-122.776
0
LINE
8
BLACK
6
CONTINUOUS
10
164.723
20
-122.776
11
164.703
21
-122.702
0
LINE
8
BLACK
6
CONTINUOUS
10
164.703
20
-122.702
11
164.71
21
-122.627
0
LINE
8
BLACK
6
CONTINUOUS
10
164.71
20
-122.627
11
164.766
21
-122.529
0
LINE
8
BLACK
6
CONTINUOUS
10
164.766
20
-122.529
11
165.129
21
-122.166
0
LINE
8
BLACK
6
CONTINUOUS
10
165.129
20
-122.166
11
165.191
21
-122.123
0
LINE
8
BLACK
6
CONTINUOUS
10
165.191
20
-122.123
11
165.264
21
-122.103
0
LINE
8
BLACK
6
CONTINUOUS
10
165.264
20
-122.103
11
165.34
21
-122.11
0
LINE
8
BLACK
6
CONTINUOUS
10
160.281
20
-122.338
11
160.347
21
-122.376
0
LINE
8
BLACK
6
CONTINUOUS
10
160.347
20
-122.376
11
160.396
21
-122.434
0
LINE
8
BLACK
6
CONTINUOUS
10
160.396
20
-122.434
11
160.425
21
-122.544
0
LINE
8
BLACK
6
CONTINUOUS
10
160.425
20
-122.544
11
160.425
21
-122.981
0
LINE
8
BLACK
6
CONTINUOUS
10
160.425
20
-122.981
11
160.412
21
-123.056
0
LINE
8
BLACK
6
CONTINUOUS
10
160.412
20
-123.056
11
160.374
21
-123.122
0
LINE
8
BLACK
6
CONTINUOUS
10
160.374
20
-123.122
11
160.316
21
-123.171
0
LINE
8
BLACK
6
CONTINUOUS
10
160.316
20
-123.171
11
160.206
21
-123.2
0
LINE
8
BLACK
6
CONTINUOUS
10
160.206
20
-123.2
11
159.694
21
-123.2
0
LINE
8
BLACK
6
CONTINUOUS
10
159.694
20
-123.2
11
159.619
21
-123.187
0
LINE
8
BLACK
6
CONTINUOUS
10
159.619
20
-123.187
11
159.553
21
-123.149
0
LINE
8
BLACK
6
CONTINUOUS
10
159.553
20
-123.149
11
159.504
21
-123.091
0
LINE
8
BLACK
6
CONTINUOUS
10
159.504
20
-123.091
11
159.475
21
-122.981
0
LINE
8
BLACK
6
CONTINUOUS
10
159.475
20
-122.981
11
159.475
21
-122.544
0
LINE
8
BLACK
6
CONTINUOUS
10
159.475
20
-122.544
11
159.488
21
-122.469
0
LINE
8
BLACK
6
CONTINUOUS
10
159.488
20
-122.469
11
159.526
21
-122.403
0
LINE
8
BLACK
6
CONTINUOUS
10
159.526
20
-122.403
11
159.584
21
-122.354
0
LINE
8
BLACK
6
CONTINUOUS
10
159.584
20
-122.354
11
159.694
21
-122.325
0
LINE
8
BLACK
6
CONTINUOUS
10
159.694
20
-122.325
11
160.206
21
-122.325
0
LINE
8
BLACK
6
CONTINUOUS
10
160.206
20
-122.325
11
160.281
21
-122.338
0
LINE
8
BLACK
6
CONTINUOUS
10
162.981
20
-122.313
11
163.047
21
-122.351
0
LINE
8
BLACK
6
CONTINUOUS
10
163.047
20
-122.351
11
163.096
21
-122.409
0
LINE
8
BLACK
6
CONTINUOUS
10
163.096
20
-122.409
11
163.125
21
-122.519
0
LINE
8
BLACK
6
CONTINUOUS
10
163.125
20
-122.519
11
163.125
21
-122.956
0
LINE
8
BLACK
6
CONTINUOUS
10
163.125
20
-122.956
11
163.112
21
-123.031
0
LINE
8
BLACK
6
CONTINUOUS
10
163.112
20
-123.031
11
163.074
21
-123.097
0
LINE
8
BLACK
6
CONTINUOUS
10
163.074
20
-123.097
11
163.016
21
-123.146
0
LINE
8
BLACK
6
CONTINUOUS
10
163.016
20
-123.146
11
162.906
21
-123.175
0
LINE
8
BLACK
6
CONTINUOUS
10
162.906
20
-123.175
11
162.394
21
-123.175
0
LINE
8
BLACK
6
CONTINUOUS
10
162.394
20
-123.175
11
162.319
21
-123.162
0
LINE
8
BLACK
6
CONTINUOUS
10
162.319
20
-123.162
11
162.253
21
-123.124
0
LINE
8
BLACK
6
CONTINUOUS
10
162.253
20
-123.124
11
162.204
21
-123.066
0
LINE
8
BLACK
6
CONTINUOUS
10
162.204
20
-123.066
11
162.175
21
-122.956
0
LINE
8
BLACK
6
CONTINUOUS
10
162.175
20
-122.956
11
162.175
21
-122.519
0
LINE
8
BLACK
6
CONTINUOUS
10
162.175
20
-122.519
11
162.188
21
-122.444
0
LINE
8
BLACK
6
CONTINUOUS
10
162.188
20
-122.444
11
162.226
21
-122.378
0
LINE
8
BLACK
6
CONTINUOUS
10
162.226
20
-122.378
11
162.284
21
-122.329
0
LINE
8
BLACK
6
CONTINUOUS
10
162.284
20
-122.329
11
162.394
21
-122.3
0
LINE
8
BLACK
6
CONTINUOUS
10
162.394
20
-122.3
11
162.906
21
-122.3
0
LINE
8
BLACK
6
CONTINUOUS
10
162.906
20
-122.3
11
162.981
21
-122.313
0
LINE
8
BLACK
6
CONTINUOUS
10
161.631
20
-122.313
11
161.697
21
-122.351
0
LINE
8
BLACK
6
CONTINUOUS
10
161.697
20
-122.351
11
161.746
21
-122.409
0
LINE
8
BLACK
6
CONTINUOUS
10
161.746
20
-122.409
11
161.775
21
-122.519
0
LINE
8
BLACK
6
CONTINUOUS
10
161.775
20
-122.519
11
161.775
21
-122.956
0
LINE
8
BLACK
6
CONTINUOUS
10
161.775
20
-122.956
11
161.762
21
-123.031
0
LINE
8
BLACK
6
CONTINUOUS
10
161.762
20
-123.031
11
161.724
21
-123.097
0
LINE
8
BLACK
6
CONTINUOUS
10
161.724
20
-123.097
11
161.666
21
-123.146
0
LINE
8
BLACK
6
CONTINUOUS
10
161.666
20
-123.146
11
161.556
21
-123.175
0
LINE
8
BLACK
6
CONTINUOUS
10
161.556
20
-123.175
11
161.044
21
-123.175
0
LINE
8
BLACK
6
CONTINUOUS
10
161.044
20
-123.175
11
160.969
21
-123.162
0
LINE
8
BLACK
6
CONTINUOUS
10
160.969
20
-123.162
11
160.903
21
-123.124
0
LINE
8
BLACK
6
CONTINUOUS
10
160.903
20
-123.124
11
160.854
21
-123.066
0
LINE
8
BLACK
6
CONTINUOUS
10
160.854
20
-123.066
11
160.825
21
-122.956
0
LINE
8
BLACK
6
CONTINUOUS
10
160.825
20
-122.956
11
160.825
21
-122.519
0
LINE
8
BLACK
6
CONTINUOUS
10
160.825
20
-122.519
11
160.838
21
-122.444
0
LINE
8
BLACK
6
CONTINUOUS
10
160.838
20
-122.444
11
160.876
21
-122.378
0
LINE
8
BLACK
6
CONTINUOUS
10
160.876
20
-122.378
11
160.934
21
-122.329
0
LINE
8
BLACK
6
CONTINUOUS
10
160.934
20
-122.329
11
161.044
21
-122.3
0
LINE
8
BLACK
6
CONTINUOUS
10
161.044
20
-122.3
11
161.556
21
-122.3
0
LINE
8
BLACK
6
CONTINUOUS
10
161.556
20
-122.3
11
161.631
21
-122.313
0
LINE
8
BLACK
6
CONTINUOUS
10
187.975
20
-122.93
11
187.325
21
-122.93
0
LINE
8
BLACK
6
CONTINUOUS
10
187.325
20
-122.93
11
187.325
21
-121.87
0
LINE
8
BLACK
6
CONTINUOUS
10
187.325
20
-121.87
11
187.975
21
-121.87
0
LINE
8
BLACK
6
CONTINUOUS
10
187.975
20
-121.87
11
187.975
21
-122.93
0
LINE
8
BLACK
6
CONTINUOUS
10
186.075
20
-122.93
11
185.425
21
-122.93
0
LINE
8
BLACK
6
CONTINUOUS
10
185.425
20
-122.93
11
185.425
21
-121.87
0
LINE
8
BLACK
6
CONTINUOUS
10
185.425
20
-121.87
11
186.075
21
-121.87
0
LINE
8
BLACK
6
CONTINUOUS
10
186.075
20
-121.87
11
186.075
21
-122.93
0
LINE
8
BLACK
6
CONTINUOUS
10
168.435
20
-121.881
11
167.41
21
-122.907
0
LINE
8
BLACK
6
CONTINUOUS
10
167.41
20
-122.907
11
167.091
21
-122.589
0
LINE
8
BLACK
6
CONTINUOUS
10
167.091
20
-122.589
11
168.117
21
-121.563
0
LINE
8
BLACK
6
CONTINUOUS
10
168.117
20
-121.563
11
168.435
21
-121.881
0
LINE
8
BLACK
6
CONTINUOUS
10
184.431
20
-121.863
11
184.497
21
-121.901
0
LINE
8
BLACK
6
CONTINUOUS
10
184.497
20
-121.901
11
184.546
21
-121.959
0
LINE
8
BLACK
6
CONTINUOUS
10
184.546
20
-121.959
11
184.575
21
-122.069
0
LINE
8
BLACK
6
CONTINUOUS
10
184.575
20
-122.069
11
184.575
21
-122.506
0
LINE
8
BLACK
6
CONTINUOUS
10
184.575
20
-122.506
11
184.562
21
-122.581
0
LINE
8
BLACK
6
CONTINUOUS
10
184.562
20
-122.581
11
184.524
21
-122.647
0
LINE
8
BLACK
6
CONTINUOUS
10
184.524
20
-122.647
11
184.466
21
-122.696
0
LINE
8
BLACK
6
CONTINUOUS
10
184.466
20
-122.696
11
184.356
21
-122.725
0
LINE
8
BLACK
6
CONTINUOUS
10
184.356
20
-122.725
11
183.844
21
-122.725
0
LINE
8
BLACK
6
CONTINUOUS
10
183.844
20
-122.725
11
183.769
21
-122.712
0
LINE
8
BLACK
6
CONTINUOUS
10
183.769
20
-122.712
11
183.703
21
-122.674
0
LINE
8
BLACK
6
CONTINUOUS
10
183.703
20
-122.674
11
183.654
21
-122.616
0
LINE
8
BLACK
6
CONTINUOUS
10
183.654
20
-122.616
11
183.625
21
-122.506
0
LINE
8
BLACK
6
CONTINUOUS
10
183.625
20
-122.506
11
183.625
21
-122.069
0
LINE
8
BLACK
6
CONTINUOUS
10
183.625
20
-122.069
11
183.638
21
-121.994
0
LINE
8
BLACK
6
CONTINUOUS
10
183.638
20
-121.994
11
183.676
21
-121.928
0
LINE
8
BLACK
6
CONTINUOUS
10
183.676
20
-121.928
11
183.734
21
-121.879
0
LINE
8
BLACK
6
CONTINUOUS
10
183.734
20
-121.879
11
183.844
21
-121.85
0
LINE
8
BLACK
6
CONTINUOUS
10
183.844
20
-121.85
11
184.356
21
-121.85
0
LINE
8
BLACK
6
CONTINUOUS
10
184.356
20
-121.85
11
184.431
21
-121.863
0
LINE
8
BLACK
6
CONTINUOUS
10
167.975
20
-121.422
11
166.95
21
-122.447
0
LINE
8
BLACK
6
CONTINUOUS
10
166.95
20
-122.447
11
166.632
21
-122.129
0
LINE
8
BLACK
6
CONTINUOUS
10
166.632
20
-122.129
11
167.657
21
-121.104
0
LINE
8
BLACK
6
CONTINUOUS
10
167.657
20
-121.104
11
167.975
21
-121.422
0
LINE
8
BLACK
6
CONTINUOUS
10
164.226
20
-120.996
11
164.324
21
-121.053
0
LINE
8
BLACK
6
CONTINUOUS
10
164.324
20
-121.053
11
164.634
21
-121.362
0
LINE
8
BLACK
6
CONTINUOUS
10
164.634
20
-121.362
11
164.677
21
-121.424
0
LINE
8
BLACK
6
CONTINUOUS
10
164.677
20
-121.424
11
164.697
21
-121.498
0
LINE
8
BLACK
6
CONTINUOUS
10
164.697
20
-121.498
11
164.69
21
-121.573
0
LINE
8
BLACK
6
CONTINUOUS
10
164.69
20
-121.573
11
164.634
21
-121.671
0
LINE
8
BLACK
6
CONTINUOUS
10
164.634
20
-121.671
11
164.271
21
-122.034
0
LINE
8
BLACK
6
CONTINUOUS
10
164.271
20
-122.034
11
164.209
21
-122.077
0
LINE
8
BLACK
6
CONTINUOUS
10
164.209
20
-122.077
11
164.136
21
-122.097
0
LINE
8
BLACK
6
CONTINUOUS
10
164.136
20
-122.097
11
164.06
21
-122.09
0
LINE
8
BLACK
6
CONTINUOUS
10
164.06
20
-122.09
11
163.962
21
-122.034
0
LINE
8
BLACK
6
CONTINUOUS
10
163.962
20
-122.034
11
163.653
21
-121.724
0
LINE
8
BLACK
6
CONTINUOUS
10
163.653
20
-121.724
11
163.609
21
-121.662
0
LINE
8
BLACK
6
CONTINUOUS
10
163.609
20
-121.662
11
163.589
21
-121.589
0
LINE
8
BLACK
6
CONTINUOUS
10
163.589
20
-121.589
11
163.596
21
-121.513
0
LINE
8
BLACK
6
CONTINUOUS
10
163.596
20
-121.513
11
163.653
21
-121.415
0
LINE
8
BLACK
6
CONTINUOUS
10
163.653
20
-121.415
11
164.015
21
-121.053
0
LINE
8
BLACK
6
CONTINUOUS
10
164.015
20
-121.053
11
164.077
21
-121.009
0
LINE
8
BLACK
6
CONTINUOUS
10
164.077
20
-121.009
11
164.151
21
-120.989
0
LINE
8
BLACK
6
CONTINUOUS
10
164.151
20
-120.989
11
164.226
21
-120.996
0
LINE
8
BLACK
6
CONTINUOUS
10
167.516
20
-120.962
11
166.49
21
-121.988
0
LINE
8
BLACK
6
CONTINUOUS
10
166.49
20
-121.988
11
166.172
21
-121.669
0
LINE
8
BLACK
6
CONTINUOUS
10
166.172
20
-121.669
11
167.197
21
-120.644
0
LINE
8
BLACK
6
CONTINUOUS
10
167.197
20
-120.644
11
167.516
21
-120.962
0
LINE
8
BLACK
6
CONTINUOUS
10
162.981
20
-120.738
11
163.047
21
-120.776
0
LINE
8
BLACK
6
CONTINUOUS
10
163.047
20
-120.776
11
163.096
21
-120.834
0
LINE
8
BLACK
6
CONTINUOUS
10
163.096
20
-120.834
11
163.125
21
-120.944
0
LINE
8
BLACK
6
CONTINUOUS
10
163.125
20
-120.944
11
163.125
21
-121.381
0
LINE
8
BLACK
6
CONTINUOUS
10
163.125
20
-121.381
11
163.112
21
-121.456
0
LINE
8
BLACK
6
CONTINUOUS
10
163.112
20
-121.456
11
163.074
21
-121.522
0
LINE
8
BLACK
6
CONTINUOUS
10
163.074
20
-121.522
11
163.016
21
-121.571
0
LINE
8
BLACK
6
CONTINUOUS
10
163.016
20
-121.571
11
162.906
21
-121.6
0
LINE
8
BLACK
6
CONTINUOUS
10
162.906
20
-121.6
11
162.394
21
-121.6
0
LINE
8
BLACK
6
CONTINUOUS
10
162.394
20
-121.6
11
162.319
21
-121.587
0
LINE
8
BLACK
6
CONTINUOUS
10
162.319
20
-121.587
11
162.253
21
-121.549
0
LINE
8
BLACK
6
CONTINUOUS
10
162.253
20
-121.549
11
162.204
21
-121.491
0
LINE
8
BLACK
6
CONTINUOUS
10
162.204
20
-121.491
11
162.175
21
-121.381
0
LINE
8
BLACK
6
CONTINUOUS
10
162.175
20
-121.381
11
162.175
21
-120.944
0
LINE
8
BLACK
6
CONTINUOUS
10
162.175
20
-120.944
11
162.188
21
-120.869
0
LINE
8
BLACK
6
CONTINUOUS
10
162.188
20
-120.869
11
162.226
21
-120.803
0
LINE
8
BLACK
6
CONTINUOUS
10
162.226
20
-120.803
11
162.284
21
-120.754
0
LINE
8
BLACK
6
CONTINUOUS
10
162.284
20
-120.754
11
162.394
21
-120.725
0
LINE
8
BLACK
6
CONTINUOUS
10
162.394
20
-120.725
11
162.906
21
-120.725
0
LINE
8
BLACK
6
CONTINUOUS
10
162.906
20
-120.725
11
162.981
21
-120.738
0
LINE
8
BLACK
6
CONTINUOUS
10
161.631
20
-120.738
11
161.697
21
-120.776
0
LINE
8
BLACK
6
CONTINUOUS
10
161.697
20
-120.776
11
161.746
21
-120.834
0
LINE
8
BLACK
6
CONTINUOUS
10
161.746
20
-120.834
11
161.775
21
-120.944
0
LINE
8
BLACK
6
CONTINUOUS
10
161.775
20
-120.944
11
161.775
21
-121.381
0
LINE
8
BLACK
6
CONTINUOUS
10
161.775
20
-121.381
11
161.762
21
-121.456
0
LINE
8
BLACK
6
CONTINUOUS
10
161.762
20
-121.456
11
161.724
21
-121.522
0
LINE
8
BLACK
6
CONTINUOUS
10
161.724
20
-121.522
11
161.666
21
-121.571
0
LINE
8
BLACK
6
CONTINUOUS
10
161.666
20
-121.571
11
161.556
21
-121.6
0
LINE
8
BLACK
6
CONTINUOUS
10
161.556
20
-121.6
11
161.044
21
-121.6
0
LINE
8
BLACK
6
CONTINUOUS
10
161.044
20
-121.6
11
160.969
21
-121.587
0
LINE
8
BLACK
6
CONTINUOUS
10
160.969
20
-121.587
11
160.903
21
-121.549
0
LINE
8
BLACK
6
CONTINUOUS
10
160.903
20
-121.549
11
160.854
21
-121.491
0
LINE
8
BLACK
6
CONTINUOUS
10
160.854
20
-121.491
11
160.825
21
-121.381
0
LINE
8
BLACK
6
CONTINUOUS
10
160.825
20
-121.381
11
160.825
21
-120.944
0
LINE
8
BLACK
6
CONTINUOUS
10
160.825
20
-120.944
11
160.838
21
-120.869
0
LINE
8
BLACK
6
CONTINUOUS
10
160.838
20
-120.869
11
160.876
21
-120.803
0
LINE
8
BLACK
6
CONTINUOUS
10
160.876
20
-120.803
11
160.934
21
-120.754
0
LINE
8
BLACK
6
CONTINUOUS
10
160.934
20
-120.754
11
161.044
21
-120.725
0
LINE
8
BLACK
6
CONTINUOUS
10
161.044
20
-120.725
11
161.556
21
-120.725
0
LINE
8
BLACK
6
CONTINUOUS
10
161.556
20
-120.725
11
161.631
21
-120.738
0
LINE
8
BLACK
6
CONTINUOUS
10
167.056
20
-120.503
11
166.031
21
-121.528
0
LINE
8
BLACK
6
CONTINUOUS
10
166.031
20
-121.528
11
165.712
21
-121.21
0
LINE
8
BLACK
6
CONTINUOUS
10
165.712
20
-121.21
11
166.738
21
-120.184
0
LINE
8
BLACK
6
CONTINUOUS
10
166.738
20
-120.184
11
167.056
21
-120.503
0
LINE
8
BLACK
6
CONTINUOUS
10
191.081
20
-120.338
11
191.147
21
-120.376
0
LINE
8
BLACK
6
CONTINUOUS
10
191.147
20
-120.376
11
191.196
21
-120.434
0
LINE
8
BLACK
6
CONTINUOUS
10
191.196
20
-120.434
11
191.225
21
-120.544
0
LINE
8
BLACK
6
CONTINUOUS
10
191.225
20
-120.544
11
191.225
21
-121.056
0
LINE
8
BLACK
6
CONTINUOUS
10
191.225
20
-121.056
11
191.212
21
-121.131
0
LINE
8
BLACK
6
CONTINUOUS
10
191.212
20
-121.131
11
191.174
21
-121.197
0
LINE
8
BLACK
6
CONTINUOUS
10
191.174
20
-121.197
11
191.116
21
-121.246
0
LINE
8
BLACK
6
CONTINUOUS
10
191.116
20
-121.246
11
191.006
21
-121.275
0
LINE
8
BLACK
6
CONTINUOUS
10
191.006
20
-121.275
11
190.569
21
-121.275
0
LINE
8
BLACK
6
CONTINUOUS
10
190.569
20
-121.275
11
190.494
21
-121.262
0
LINE
8
BLACK
6
CONTINUOUS
10
190.494
20
-121.262
11
190.428
21
-121.224
0
LINE
8
BLACK
6
CONTINUOUS
10
190.428
20
-121.224
11
190.379
21
-121.166
0
LINE
8
BLACK
6
CONTINUOUS
10
190.379
20
-121.166
11
190.35
21
-121.056
0
LINE
8
BLACK
6
CONTINUOUS
10
190.35
20
-121.056
11
190.35
21
-120.544
0
LINE
8
BLACK
6
CONTINUOUS
10
190.35
20
-120.544
11
190.363
21
-120.469
0
LINE
8
BLACK
6
CONTINUOUS
10
190.363
20
-120.469
11
190.401
21
-120.403
0
LINE
8
BLACK
6
CONTINUOUS
10
190.401
20
-120.403
11
190.459
21
-120.354
0
LINE
8
BLACK
6
CONTINUOUS
10
190.459
20
-120.354
11
190.569
21
-120.325
0
LINE
8
BLACK
6
CONTINUOUS
10
190.569
20
-120.325
11
191.006
21
-120.325
0
LINE
8
BLACK
6
CONTINUOUS
10
191.006
20
-120.325
11
191.081
21
-120.338
0
LINE
8
BLACK
6
CONTINUOUS
10
189.506
20
-120.338
11
189.572
21
-120.376
0
LINE
8
BLACK
6
CONTINUOUS
10
189.572
20
-120.376
11
189.621
21
-120.434
0
LINE
8
BLACK
6
CONTINUOUS
10
189.621
20
-120.434
11
189.65
21
-120.544
0
LINE
8
BLACK
6
CONTINUOUS
10
189.65
20
-120.544
11
189.65
21
-121.056
0
LINE
8
BLACK
6
CONTINUOUS
10
189.65
20
-121.056
11
189.637
21
-121.131
0
LINE
8
BLACK
6
CONTINUOUS
10
189.637
20
-121.131
11
189.599
21
-121.197
0
LINE
8
BLACK
6
CONTINUOUS
10
189.599
20
-121.197
11
189.541
21
-121.246
0
LINE
8
BLACK
6
CONTINUOUS
10
189.541
20
-121.246
11
189.431
21
-121.275
0
LINE
8
BLACK
6
CONTINUOUS
10
189.431
20
-121.275
11
188.994
21
-121.275
0
LINE
8
BLACK
6
CONTINUOUS
10
188.994
20
-121.275
11
188.919
21
-121.262
0
LINE
8
BLACK
6
CONTINUOUS
10
188.919
20
-121.262
11
188.853
21
-121.224
0
LINE
8
BLACK
6
CONTINUOUS
10
188.853
20
-121.224
11
188.804
21
-121.166
0
LINE
8
BLACK
6
CONTINUOUS
10
188.804
20
-121.166
11
188.775
21
-121.056
0
LINE
8
BLACK
6
CONTINUOUS
10
188.775
20
-121.056
11
188.775
21
-120.544
0
LINE
8
BLACK
6
CONTINUOUS
10
188.775
20
-120.544
11
188.788
21
-120.469
0
LINE
8
BLACK
6
CONTINUOUS
10
188.788
20
-120.469
11
188.826
21
-120.403
0
LINE
8
BLACK
6
CONTINUOUS
10
188.826
20
-120.403
11
188.884
21
-120.354
0
LINE
8
BLACK
6
CONTINUOUS
10
188.884
20
-120.354
11
188.994
21
-120.325
0
LINE
8
BLACK
6
CONTINUOUS
10
188.994
20
-120.325
11
189.431
21
-120.325
0
LINE
8
BLACK
6
CONTINUOUS
10
189.431
20
-120.325
11
189.506
21
-120.338
0
LINE
8
BLACK
6
CONTINUOUS
10
186.506
20
-120.338
11
186.572
21
-120.376
0
LINE
8
BLACK
6
CONTINUOUS
10
186.572
20
-120.376
11
186.621
21
-120.434
0
LINE
8
BLACK
6
CONTINUOUS
10
186.621
20
-120.434
11
186.65
21
-120.544
0
LINE
8
BLACK
6
CONTINUOUS
10
186.65
20
-120.544
11
186.65
21
-121.056
0
LINE
8
BLACK
6
CONTINUOUS
10
186.65
20
-121.056
11
186.637
21
-121.131
0
LINE
8
BLACK
6
CONTINUOUS
10
186.637
20
-121.131
11
186.599
21
-121.197
0
LINE
8
BLACK
6
CONTINUOUS
10
186.599
20
-121.197
11
186.541
21
-121.246
0
LINE
8
BLACK
6
CONTINUOUS
10
186.541
20
-121.246
11
186.431
21
-121.275
0
LINE
8
BLACK
6
CONTINUOUS
10
186.431
20
-121.275
11
185.994
21
-121.275
0
LINE
8
BLACK
6
CONTINUOUS
10
185.994
20
-121.275
11
185.919
21
-121.262
0
LINE
8
BLACK
6
CONTINUOUS
10
185.919
20
-121.262
11
185.853
21
-121.224
0
LINE
8
BLACK
6
CONTINUOUS
10
185.853
20
-121.224
11
185.804
21
-121.166
0
LINE
8
BLACK
6
CONTINUOUS
10
185.804
20
-121.166
11
185.775
21
-121.056
0
LINE
8
BLACK
6
CONTINUOUS
10
185.775
20
-121.056
11
185.775
21
-120.544
0
LINE
8
BLACK
6
CONTINUOUS
10
185.775
20
-120.544
11
185.788
21
-120.469
0
LINE
8
BLACK
6
CONTINUOUS
10
185.788
20
-120.469
11
185.826
21
-120.403
0
LINE
8
BLACK
6
CONTINUOUS
10
185.826
20
-120.403
11
185.884
21
-120.354
0
LINE
8
BLACK
6
CONTINUOUS
10
185.884
20
-120.354
11
185.994
21
-120.325
0
LINE
8
BLACK
6
CONTINUOUS
10
185.994
20
-120.325
11
186.431
21
-120.325
0
LINE
8
BLACK
6
CONTINUOUS
10
186.431
20
-120.325
11
186.506
21
-120.338
0
LINE
8
BLACK
6
CONTINUOUS
10
188.081
20
-120.338
11
188.147
21
-120.376
0
LINE
8
BLACK
6
CONTINUOUS
10
188.147
20
-120.376
11
188.196
21
-120.434
0
LINE
8
BLACK
6
CONTINUOUS
10
188.196
20
-120.434
11
188.225
21
-120.544
0
LINE
8
BLACK
6
CONTINUOUS
10
188.225
20
-120.544
11
188.225
21
-121.056
0
LINE
8
BLACK
6
CONTINUOUS
10
188.225
20
-121.056
11
188.212
21
-121.131
0
LINE
8
BLACK
6
CONTINUOUS
10
188.212
20
-121.131
11
188.174
21
-121.197
0
LINE
8
BLACK
6
CONTINUOUS
10
188.174
20
-121.197
11
188.116
21
-121.246
0
LINE
8
BLACK
6
CONTINUOUS
10
188.116
20
-121.246
11
188.006
21
-121.275
0
LINE
8
BLACK
6
CONTINUOUS
10
188.006
20
-121.275
11
187.569
21
-121.275
0
LINE
8
BLACK
6
CONTINUOUS
10
187.569
20
-121.275
11
187.494
21
-121.262
0
LINE
8
BLACK
6
CONTINUOUS
10
187.494
20
-121.262
11
187.428
21
-121.224
0
LINE
8
BLACK
6
CONTINUOUS
10
187.428
20
-121.224
11
187.379
21
-121.166
0
LINE
8
BLACK
6
CONTINUOUS
10
187.379
20
-121.166
11
187.35
21
-121.056
0
LINE
8
BLACK
6
CONTINUOUS
10
187.35
20
-121.056
11
187.35
21
-120.544
0
LINE
8
BLACK
6
CONTINUOUS
10
187.35
20
-120.544
11
187.363
21
-120.469
0
LINE
8
BLACK
6
CONTINUOUS
10
187.363
20
-120.469
11
187.401
21
-120.403
0
LINE
8
BLACK
6
CONTINUOUS
10
187.401
20
-120.403
11
187.459
21
-120.354
0
LINE
8
BLACK
6
CONTINUOUS
10
187.459
20
-120.354
11
187.569
21
-120.325
0
LINE
8
BLACK
6
CONTINUOUS
10
187.569
20
-120.325
11
188.006
21
-120.325
0
LINE
8
BLACK
6
CONTINUOUS
10
188.006
20
-120.325
11
188.081
21
-120.338
0
LINE
8
BLACK
6
CONTINUOUS
10
184.431
20
-120.288
11
184.497
21
-120.326
0
LINE
8
BLACK
6
CONTINUOUS
10
184.497
20
-120.326
11
184.546
21
-120.384
0
LINE
8
BLACK
6
CONTINUOUS
10
184.546
20
-120.384
11
184.575
21
-120.494
0
LINE
8
BLACK
6
CONTINUOUS
10
184.575
20
-120.494
11
184.575
21
-120.931
0
LINE
8
BLACK
6
CONTINUOUS
10
184.575
20
-120.931
11
184.562
21
-121.006
0
LINE
8
BLACK
6
CONTINUOUS
10
184.562
20
-121.006
11
184.524
21
-121.072
0
LINE
8
BLACK
6
CONTINUOUS
10
184.524
20
-121.072
11
184.466
21
-121.121
0
LINE
8
BLACK
6
CONTINUOUS
10
184.466
20
-121.121
11
184.356
21
-121.15
0
LINE
8
BLACK
6
CONTINUOUS
10
184.356
20
-121.15
11
183.844
21
-121.15
0
LINE
8
BLACK
6
CONTINUOUS
10
183.844
20
-121.15
11
183.769
21
-121.137
0
LINE
8
BLACK
6
CONTINUOUS
10
183.769
20
-121.137
11
183.703
21
-121.099
0
LINE
8
BLACK
6
CONTINUOUS
10
183.703
20
-121.099
11
183.654
21
-121.041
0
LINE
8
BLACK
6
CONTINUOUS
10
183.654
20
-121.041
11
183.625
21
-120.931
0
LINE
8
BLACK
6
CONTINUOUS
10
183.625
20
-120.931
11
183.625
21
-120.494
0
LINE
8
BLACK
6
CONTINUOUS
10
183.625
20
-120.494
11
183.638
21
-120.419
0
LINE
8
BLACK
6
CONTINUOUS
10
183.638
20
-120.419
11
183.676
21
-120.353
0
LINE
8
BLACK
6
CONTINUOUS
10
183.676
20
-120.353
11
183.734
21
-120.304
0
LINE
8
BLACK
6
CONTINUOUS
10
183.734
20
-120.304
11
183.844
21
-120.275
0
LINE
8
BLACK
6
CONTINUOUS
10
183.844
20
-120.275
11
184.356
21
-120.275
0
LINE
8
BLACK
6
CONTINUOUS
10
184.356
20
-120.275
11
184.431
21
-120.288
0
LINE
8
BLACK
6
CONTINUOUS
10
166.596
20
-120.043
11
165.571
21
-121.068
0
LINE
8
BLACK
6
CONTINUOUS
10
165.571
20
-121.068
11
165.253
21
-120.75
0
LINE
8
BLACK
6
CONTINUOUS
10
165.253
20
-120.75
11
166.278
21
-119.725
0
LINE
8
BLACK
6
CONTINUOUS
10
166.278
20
-119.725
11
166.596
21
-120.043
0
LINE
8
BLACK
6
CONTINUOUS
10
166.137
20
-119.583
11
165.111
21
-120.609
0
LINE
8
BLACK
6
CONTINUOUS
10
165.111
20
-120.609
11
164.793
21
-120.29
0
LINE
8
BLACK
6
CONTINUOUS
10
164.793
20
-120.29
11
165.819
21
-119.265
0
LINE
8
BLACK
6
CONTINUOUS
10
165.819
20
-119.265
11
166.137
21
-119.583
0
LINE
8
BLACK
6
CONTINUOUS
10
165.677
20
-119.124
11
164.652
21
-120.149
0
LINE
8
BLACK
6
CONTINUOUS
10
164.652
20
-120.149
11
164.334
21
-119.831
0
LINE
8
BLACK
6
CONTINUOUS
10
164.334
20
-119.831
11
165.359
21
-118.806
0
LINE
8
BLACK
6
CONTINUOUS
10
165.359
20
-118.806
11
165.677
21
-119.124
0
LINE
8
BLACK
6
CONTINUOUS
10
182.25
20
-119.8
11
181.55
21
-119.8
0
LINE
8
BLACK
6
CONTINUOUS
10
181.55
20
-119.8
11
181.55
21
-119.2
0
LINE
8
BLACK
6
CONTINUOUS
10
181.55
20
-119.2
11
182.25
21
-119.2
0
LINE
8
BLACK
6
CONTINUOUS
10
182.25
20
-119.2
11
182.25
21
-119.8
0
LINE
8
BLACK
6
CONTINUOUS
10
186.506
20
-118.838
11
186.572
21
-118.876
0
LINE
8
BLACK
6
CONTINUOUS
10
186.572
20
-118.876
11
186.621
21
-118.934
0
LINE
8
BLACK
6
CONTINUOUS
10
186.621
20
-118.934
11
186.65
21
-119.044
0
LINE
8
BLACK
6
CONTINUOUS
10
186.65
20
-119.044
11
186.65
21
-119.556
0
LINE
8
BLACK
6
CONTINUOUS
10
186.65
20
-119.556
11
186.637
21
-119.631
0
LINE
8
BLACK
6
CONTINUOUS
10
186.637
20
-119.631
11
186.599
21
-119.697
0
LINE
8
BLACK
6
CONTINUOUS
10
186.599
20
-119.697
11
186.541
21
-119.746
0
LINE
8
BLACK
6
CONTINUOUS
10
186.541
20
-119.746
11
186.431
21
-119.775
0
LINE
8
BLACK
6
CONTINUOUS
10
186.431
20
-119.775
11
185.994
21
-119.775
0
LINE
8
BLACK
6
CONTINUOUS
10
185.994
20
-119.775
11
185.919
21
-119.762
0
LINE
8
BLACK
6
CONTINUOUS
10
185.919
20
-119.762
11
185.853
21
-119.724
0
LINE
8
BLACK
6
CONTINUOUS
10
185.853
20
-119.724
11
185.804
21
-119.666
0
LINE
8
BLACK
6
CONTINUOUS
10
185.804
20
-119.666
11
185.775
21
-119.556
0
LINE
8
BLACK
6
CONTINUOUS
10
185.775
20
-119.556
11
185.775
21
-119.044
0
LINE
8
BLACK
6
CONTINUOUS
10
185.775
20
-119.044
11
185.788
21
-118.969
0
LINE
8
BLACK
6
CONTINUOUS
10
185.788
20
-118.969
11
185.826
21
-118.903
0
LINE
8
BLACK
6
CONTINUOUS
10
185.826
20
-118.903
11
185.884
21
-118.854
0
LINE
8
BLACK
6
CONTINUOUS
10
185.884
20
-118.854
11
185.994
21
-118.825
0
LINE
8
BLACK
6
CONTINUOUS
10
185.994
20
-118.825
11
186.431
21
-118.825
0
LINE
8
BLACK
6
CONTINUOUS
10
186.431
20
-118.825
11
186.506
21
-118.838
0
LINE
8
BLACK
6
CONTINUOUS
10
188.081
20
-118.838
11
188.147
21
-118.876
0
LINE
8
BLACK
6
CONTINUOUS
10
188.147
20
-118.876
11
188.196
21
-118.934
0
LINE
8
BLACK
6
CONTINUOUS
10
188.196
20
-118.934
11
188.225
21
-119.044
0
LINE
8
BLACK
6
CONTINUOUS
10
188.225
20
-119.044
11
188.225
21
-119.556
0
LINE
8
BLACK
6
CONTINUOUS
10
188.225
20
-119.556
11
188.212
21
-119.631
0
LINE
8
BLACK
6
CONTINUOUS
10
188.212
20
-119.631
11
188.174
21
-119.697
0
LINE
8
BLACK
6
CONTINUOUS
10
188.174
20
-119.697
11
188.116
21
-119.746
0
LINE
8
BLACK
6
CONTINUOUS
10
188.116
20
-119.746
11
188.006
21
-119.775
0
LINE
8
BLACK
6
CONTINUOUS
10
188.006
20
-119.775
11
187.569
21
-119.775
0
LINE
8
BLACK
6
CONTINUOUS
10
187.569
20
-119.775
11
187.494
21
-119.762
0
LINE
8
BLACK
6
CONTINUOUS
10
187.494
20
-119.762
11
187.428
21
-119.724
0
LINE
8
BLACK
6
CONTINUOUS
10
187.428
20
-119.724
11
187.379
21
-119.666
0
LINE
8
BLACK
6
CONTINUOUS
10
187.379
20
-119.666
11
187.35
21
-119.556
0
LINE
8
BLACK
6
CONTINUOUS
10
187.35
20
-119.556
11
187.35
21
-119.044
0
LINE
8
BLACK
6
CONTINUOUS
10
187.35
20
-119.044
11
187.363
21
-118.969
0
LINE
8
BLACK
6
CONTINUOUS
10
187.363
20
-118.969
11
187.401
21
-118.903
0
LINE
8
BLACK
6
CONTINUOUS
10
187.401
20
-118.903
11
187.459
21
-118.854
0
LINE
8
BLACK
6
CONTINUOUS
10
187.459
20
-118.854
11
187.569
21
-118.825
0
LINE
8
BLACK
6
CONTINUOUS
10
187.569
20
-118.825
11
188.006
21
-118.825
0
LINE
8
BLACK
6
CONTINUOUS
10
188.006
20
-118.825
11
188.081
21
-118.838
0
LINE
8
BLACK
6
CONTINUOUS
10
185.121
20
-118.913
11
185.187
21
-118.951
0
LINE
8
BLACK
6
CONTINUOUS
10
185.187
20
-118.951
11
185.236
21
-119.009
0
LINE
8
BLACK
6
CONTINUOUS
10
185.236
20
-119.009
11
185.265
21
-119.119
0
LINE
8
BLACK
6
CONTINUOUS
10
185.265
20
-119.119
11
185.265
21
-119.556
0
LINE
8
BLACK
6
CONTINUOUS
10
185.265
20
-119.556
11
185.252
21
-119.631
0
LINE
8
BLACK
6
CONTINUOUS
10
185.252
20
-119.631
11
185.214
21
-119.697
0
LINE
8
BLACK
6
CONTINUOUS
10
185.214
20
-119.697
11
185.156
21
-119.746
0
LINE
8
BLACK
6
CONTINUOUS
10
185.156
20
-119.746
11
185.046
21
-119.775
0
LINE
8
BLACK
6
CONTINUOUS
10
185.046
20
-119.775
11
184.534
21
-119.775
0
LINE
8
BLACK
6
CONTINUOUS
10
184.534
20
-119.775
11
184.459
21
-119.762
0
LINE
8
BLACK
6
CONTINUOUS
10
184.459
20
-119.762
11
184.393
21
-119.724
0
LINE
8
BLACK
6
CONTINUOUS
10
184.393
20
-119.724
11
184.344
21
-119.666
0
LINE
8
BLACK
6
CONTINUOUS
10
184.344
20
-119.666
11
184.315
21
-119.556
0
LINE
8
BLACK
6
CONTINUOUS
10
184.315
20
-119.556
11
184.315
21
-119.119
0
LINE
8
BLACK
6
CONTINUOUS
10
184.315
20
-119.119
11
184.328
21
-119.044
0
LINE
8
BLACK
6
CONTINUOUS
10
184.328
20
-119.044
11
184.366
21
-118.978
0
LINE
8
BLACK
6
CONTINUOUS
10
184.366
20
-118.978
11
184.424
21
-118.929
0
LINE
8
BLACK
6
CONTINUOUS
10
184.424
20
-118.929
11
184.534
21
-118.9
0
LINE
8
BLACK
6
CONTINUOUS
10
184.534
20
-118.9
11
185.046
21
-118.9
0
LINE
8
BLACK
6
CONTINUOUS
10
185.046
20
-118.9
11
185.121
21
-118.913
0
LINE
8
BLACK
6
CONTINUOUS
10
191.081
20
-118.838
11
191.147
21
-118.876
0
LINE
8
BLACK
6
CONTINUOUS
10
191.147
20
-118.876
11
191.196
21
-118.934
0
LINE
8
BLACK
6
CONTINUOUS
10
191.196
20
-118.934
11
191.225
21
-119.044
0
LINE
8
BLACK
6
CONTINUOUS
10
191.225
20
-119.044
11
191.225
21
-119.556
0
LINE
8
BLACK
6
CONTINUOUS
10
191.225
20
-119.556
11
191.212
21
-119.631
0
LINE
8
BLACK
6
CONTINUOUS
10
191.212
20
-119.631
11
191.174
21
-119.697
0
LINE
8
BLACK
6
CONTINUOUS
10
191.174
20
-119.697
11
191.116
21
-119.746
0
LINE
8
BLACK
6
CONTINUOUS
10
191.116
20
-119.746
11
191.006
21
-119.775
0
LINE
8
BLACK
6
CONTINUOUS
10
191.006
20
-119.775
11
190.569
21
-119.775
0
LINE
8
BLACK
6
CONTINUOUS
10
190.569
20
-119.775
11
190.494
21
-119.762
0
LINE
8
BLACK
6
CONTINUOUS
10
190.494
20
-119.762
11
190.428
21
-119.724
0
LINE
8
BLACK
6
CONTINUOUS
10
190.428
20
-119.724
11
190.379
21
-119.666
0
LINE
8
BLACK
6
CONTINUOUS
10
190.379
20
-119.666
11
190.35
21
-119.556
0
LINE
8
BLACK
6
CONTINUOUS
10
190.35
20
-119.556
11
190.35
21
-119.044
0
LINE
8
BLACK
6
CONTINUOUS
10
190.35
20
-119.044
11
190.363
21
-118.969
0
LINE
8
BLACK
6
CONTINUOUS
10
190.363
20
-118.969
11
190.401
21
-118.903
0
LINE
8
BLACK
6
CONTINUOUS
10
190.401
20
-118.903
11
190.459
21
-118.854
0
LINE
8
BLACK
6
CONTINUOUS
10
190.459
20
-118.854
11
190.569
21
-118.825
0
LINE
8
BLACK
6
CONTINUOUS
10
190.569
20
-118.825
11
191.006
21
-118.825
0
LINE
8
BLACK
6
CONTINUOUS
10
191.006
20
-118.825
11
191.081
21
-118.838
0
LINE
8
BLACK
6
CONTINUOUS
10
189.506
20
-118.838
11
189.572
21
-118.876
0
LINE
8
BLACK
6
CONTINUOUS
10
189.572
20
-118.876
11
189.621
21
-118.934
0
LINE
8
BLACK
6
CONTINUOUS
10
189.621
20
-118.934
11
189.65
21
-119.044
0
LINE
8
BLACK
6
CONTINUOUS
10
189.65
20
-119.044
11
189.65
21
-119.556
0
LINE
8
BLACK
6
CONTINUOUS
10
189.65
20
-119.556
11
189.637
21
-119.631
0
LINE
8
BLACK
6
CONTINUOUS
10
189.637
20
-119.631
11
189.599
21
-119.697
0
LINE
8
BLACK
6
CONTINUOUS
10
189.599
20
-119.697
11
189.541
21
-119.746
0
LINE
8
BLACK
6
CONTINUOUS
10
189.541
20
-119.746
11
189.431
21
-119.775
0
LINE
8
BLACK
6
CONTINUOUS
10
189.431
20
-119.775
11
188.994
21
-119.775
0
LINE
8
BLACK
6
CONTINUOUS
10
188.994
20
-119.775
11
188.919
21
-119.762
0
LINE
8
BLACK
6
CONTINUOUS
10
188.919
20
-119.762
11
188.853
21
-119.724
0
LINE
8
BLACK
6
CONTINUOUS
10
188.853
20
-119.724
11
188.804
21
-119.666
0
LINE
8
BLACK
6
CONTINUOUS
10
188.804
20
-119.666
11
188.775
21
-119.556
0
LINE
8
BLACK
6
CONTINUOUS
10
188.775
20
-119.556
11
188.775
21
-119.044
0
LINE
8
BLACK
6
CONTINUOUS
10
188.775
20
-119.044
11
188.788
21
-118.969
0
LINE
8
BLACK
6
CONTINUOUS
10
188.788
20
-118.969
11
188.826
21
-118.903
0
LINE
8
BLACK
6
CONTINUOUS
10
188.826
20
-118.903
11
188.884
21
-118.854
0
LINE
8
BLACK
6
CONTINUOUS
10
188.884
20
-118.854
11
188.994
21
-118.825
0
LINE
8
BLACK
6
CONTINUOUS
10
188.994
20
-118.825
11
189.431
21
-118.825
0
LINE
8
BLACK
6
CONTINUOUS
10
189.431
20
-118.825
11
189.506
21
-118.838
0
LINE
8
BLACK
6
CONTINUOUS
10
183.661
20
-118.913
11
183.727
21
-118.951
0
LINE
8
BLACK
6
CONTINUOUS
10
183.727
20
-118.951
11
183.776
21
-119.009
0
LINE
8
BLACK
6
CONTINUOUS
10
183.776
20
-119.009
11
183.805
21
-119.119
0
LINE
8
BLACK
6
CONTINUOUS
10
183.805
20
-119.119
11
183.805
21
-119.556
0
LINE
8
BLACK
6
CONTINUOUS
10
183.805
20
-119.556
11
183.792
21
-119.631
0
LINE
8
BLACK
6
CONTINUOUS
10
183.792
20
-119.631
11
183.754
21
-119.697
0
LINE
8
BLACK
6
CONTINUOUS
10
183.754
20
-119.697
11
183.696
21
-119.746
0
LINE
8
BLACK
6
CONTINUOUS
10
183.696
20
-119.746
11
183.586
21
-119.775
0
LINE
8
BLACK
6
CONTINUOUS
10
183.586
20
-119.775
11
183.074
21
-119.775
0
LINE
8
BLACK
6
CONTINUOUS
10
183.074
20
-119.775
11
182.999
21
-119.762
0
LINE
8
BLACK
6
CONTINUOUS
10
182.999
20
-119.762
11
182.933
21
-119.724
0
LINE
8
BLACK
6
CONTINUOUS
10
182.933
20
-119.724
11
182.884
21
-119.666
0
LINE
8
BLACK
6
CONTINUOUS
10
182.884
20
-119.666
11
182.855
21
-119.556
0
LINE
8
BLACK
6
CONTINUOUS
10
182.855
20
-119.556
11
182.855
21
-119.119
0
LINE
8
BLACK
6
CONTINUOUS
10
182.855
20
-119.119
11
182.868
21
-119.044
0
LINE
8
BLACK
6
CONTINUOUS
10
182.868
20
-119.044
11
182.906
21
-118.978
0
LINE
8
BLACK
6
CONTINUOUS
10
182.906
20
-118.978
11
182.964
21
-118.929
0
LINE
8
BLACK
6
CONTINUOUS
10
182.964
20
-118.929
11
183.074
21
-118.9
0
LINE
8
BLACK
6
CONTINUOUS
10
183.074
20
-118.9
11
183.586
21
-118.9
0
LINE
8
BLACK
6
CONTINUOUS
10
183.586
20
-118.9
11
183.661
21
-118.913
0
LINE
8
BLACK
6
CONTINUOUS
10
165.217
20
-118.664
11
164.192
21
-119.689
0
LINE
8
BLACK
6
CONTINUOUS
10
164.192
20
-119.689
11
163.874
21
-119.371
0
LINE
8
BLACK
6
CONTINUOUS
10
163.874
20
-119.371
11
164.899
21
-118.346
0
LINE
8
BLACK
6
CONTINUOUS
10
164.899
20
-118.346
11
165.217
21
-118.664
0
LINE
8
BLACK
6
CONTINUOUS
10
173.526
20
-118.629
11
172.501
21
-119.654
0
LINE
8
BLACK
6
CONTINUOUS
10
172.501
20
-119.654
11
172.183
21
-119.336
0
LINE
8
BLACK
6
CONTINUOUS
10
172.183
20
-119.336
11
173.208
21
-118.311
0
LINE
8
BLACK
6
CONTINUOUS
10
173.208
20
-118.311
11
173.526
21
-118.629
0
LINE
8
BLACK
6
CONTINUOUS
10
173.066
20
-118.169
11
172.041
21
-119.194
0
LINE
8
BLACK
6
CONTINUOUS
10
172.041
20
-119.194
11
171.723
21
-118.876
0
LINE
8
BLACK
6
CONTINUOUS
10
171.723
20
-118.876
11
172.748
21
-117.851
0
LINE
8
BLACK
6
CONTINUOUS
10
172.748
20
-117.851
11
173.066
21
-118.169
0
LINE
8
BLACK
6
CONTINUOUS
10
158.94
20
-118.88
11
157.34
21
-118.88
0
LINE
8
BLACK
6
CONTINUOUS
10
157.34
20
-118.88
11
157.34
21
-117.28
0
LINE
8
BLACK
6
CONTINUOUS
10
157.34
20
-117.28
11
158.94
21
-117.28
0
LINE
8
BLACK
6
CONTINUOUS
10
158.94
20
-117.28
11
158.94
21
-118.88
0
LINE
8
BLACK
6
CONTINUOUS
10
153.86
20
-118.88
11
152.26
21
-118.88
0
LINE
8
BLACK
6
CONTINUOUS
10
152.26
20
-118.88
11
152.26
21
-117.28
0
LINE
8
BLACK
6
CONTINUOUS
10
152.26
20
-117.28
11
153.86
21
-117.28
0
LINE
8
BLACK
6
CONTINUOUS
10
153.86
20
-117.28
11
153.86
21
-118.88
0
LINE
8
BLACK
6
CONTINUOUS
10
156.4
20
-118.88
11
154.8
21
-118.88
0
LINE
8
BLACK
6
CONTINUOUS
10
154.8
20
-118.88
11
154.8
21
-117.28
0
LINE
8
BLACK
6
CONTINUOUS
10
154.8
20
-117.28
11
156.4
21
-117.28
0
LINE
8
BLACK
6
CONTINUOUS
10
156.4
20
-117.28
11
156.4
21
-118.88
0
LINE
8
BLACK
6
CONTINUOUS
10
172.607
20
-117.71
11
171.581
21
-118.735
0
LINE
8
BLACK
6
CONTINUOUS
10
171.581
20
-118.735
11
171.263
21
-118.417
0
LINE
8
BLACK
6
CONTINUOUS
10
171.263
20
-118.417
11
172.289
21
-117.391
0
LINE
8
BLACK
6
CONTINUOUS
10
172.289
20
-117.391
11
172.607
21
-117.71
0
LINE
8
BLACK
6
CONTINUOUS
10
182.25
20
-118.4
11
181.55
21
-118.4
0
LINE
8
BLACK
6
CONTINUOUS
10
181.55
20
-118.4
11
181.55
21
-117.8
0
LINE
8
BLACK
6
CONTINUOUS
10
181.55
20
-117.8
11
182.25
21
-117.8
0
LINE
8
BLACK
6
CONTINUOUS
10
182.25
20
-117.8
11
182.25
21
-118.4
0
LINE
8
BLACK
6
CONTINUOUS
10
172.147
20
-117.25
11
171.122
21
-118.275
0
LINE
8
BLACK
6
CONTINUOUS
10
171.122
20
-118.275
11
170.804
21
-117.957
0
LINE
8
BLACK
6
CONTINUOUS
10
170.804
20
-117.957
11
171.829
21
-116.932
0
LINE
8
BLACK
6
CONTINUOUS
10
171.829
20
-116.932
11
172.147
21
-117.25
0
LINE
8
BLACK
6
CONTINUOUS
10
191.081
20
-117.338
11
191.147
21
-117.376
0
LINE
8
BLACK
6
CONTINUOUS
10
191.147
20
-117.376
11
191.196
21
-117.434
0
LINE
8
BLACK
6
CONTINUOUS
10
191.196
20
-117.434
11
191.225
21
-117.544
0
LINE
8
BLACK
6
CONTINUOUS
10
191.225
20
-117.544
11
191.225
21
-118.056
0
LINE
8
BLACK
6
CONTINUOUS
10
191.225
20
-118.056
11
191.212
21
-118.131
0
LINE
8
BLACK
6
CONTINUOUS
10
191.212
20
-118.131
11
191.174
21
-118.197
0
LINE
8
BLACK
6
CONTINUOUS
10
191.174
20
-118.197
11
191.116
21
-118.246
0
LINE
8
BLACK
6
CONTINUOUS
10
191.116
20
-118.246
11
191.006
21
-118.275
0
LINE
8
BLACK
6
CONTINUOUS
10
191.006
20
-118.275
11
190.569
21
-118.275
0
LINE
8
BLACK
6
CONTINUOUS
10
190.569
20
-118.275
11
190.494
21
-118.262
0
LINE
8
BLACK
6
CONTINUOUS
10
190.494
20
-118.262
11
190.428
21
-118.224
0
LINE
8
BLACK
6
CONTINUOUS
10
190.428
20
-118.224
11
190.379
21
-118.166
0
LINE
8
BLACK
6
CONTINUOUS
10
190.379
20
-118.166
11
190.35
21
-118.056
0
LINE
8
BLACK
6
CONTINUOUS
10
190.35
20
-118.056
11
190.35
21
-117.544
0
LINE
8
BLACK
6
CONTINUOUS
10
190.35
20
-117.544
11
190.363
21
-117.469
0
LINE
8
BLACK
6
CONTINUOUS
10
190.363
20
-117.469
11
190.401
21
-117.403
0
LINE
8
BLACK
6
CONTINUOUS
10
190.401
20
-117.403
11
190.459
21
-117.354
0
LINE
8
BLACK
6
CONTINUOUS
10
190.459
20
-117.354
11
190.569
21
-117.325
0
LINE
8
BLACK
6
CONTINUOUS
10
190.569
20
-117.325
11
191.006
21
-117.325
0
LINE
8
BLACK
6
CONTINUOUS
10
191.006
20
-117.325
11
191.081
21
-117.338
0
LINE
8
BLACK
6
CONTINUOUS
10
186.506
20
-117.338
11
186.572
21
-117.376
0
LINE
8
BLACK
6
CONTINUOUS
10
186.572
20
-117.376
11
186.621
21
-117.434
0
LINE
8
BLACK
6
CONTINUOUS
10
186.621
20
-117.434
11
186.65
21
-117.544
0
LINE
8
BLACK
6
CONTINUOUS
10
186.65
20
-117.544
11
186.65
21
-118.056
0
LINE
8
BLACK
6
CONTINUOUS
10
186.65
20
-118.056
11
186.637
21
-118.131
0
LINE
8
BLACK
6
CONTINUOUS
10
186.637
20
-118.131
11
186.599
21
-118.197
0
LINE
8
BLACK
6
CONTINUOUS
10
186.599
20
-118.197
11
186.541
21
-118.246
0
LINE
8
BLACK
6
CONTINUOUS
10
186.541
20
-118.246
11
186.431
21
-118.275
0
LINE
8
BLACK
6
CONTINUOUS
10
186.431
20
-118.275
11
185.994
21
-118.275
0
LINE
8
BLACK
6
CONTINUOUS
10
185.994
20
-118.275
11
185.919
21
-118.262
0
LINE
8
BLACK
6
CONTINUOUS
10
185.919
20
-118.262
11
185.853
21
-118.224
0
LINE
8
BLACK
6
CONTINUOUS
10
185.853
20
-118.224
11
185.804
21
-118.166
0
LINE
8
BLACK
6
CONTINUOUS
10
185.804
20
-118.166
11
185.775
21
-118.056
0
LINE
8
BLACK
6
CONTINUOUS
10
185.775
20
-118.056
11
185.775
21
-117.544
0
LINE
8
BLACK
6
CONTINUOUS
10
185.775
20
-117.544
11
185.788
21
-117.469
0
LINE
8
BLACK
6
CONTINUOUS
10
185.788
20
-117.469
11
185.826
21
-117.403
0
LINE
8
BLACK
6
CONTINUOUS
10
185.826
20
-117.403
11
185.884
21
-117.354
0
LINE
8
BLACK
6
CONTINUOUS
10
185.884
20
-117.354
11
185.994
21
-117.325
0
LINE
8
BLACK
6
CONTINUOUS
10
185.994
20
-117.325
11
186.431
21
-117.325
0
LINE
8
BLACK
6
CONTINUOUS
10
186.431
20
-117.325
11
186.506
21
-117.338
0
LINE
8
BLACK
6
CONTINUOUS
10
188.081
20
-117.338
11
188.147
21
-117.376
0
LINE
8
BLACK
6
CONTINUOUS
10
188.147
20
-117.376
11
188.196
21
-117.434
0
LINE
8
BLACK
6
CONTINUOUS
10
188.196
20
-117.434
11
188.225
21
-117.544
0
LINE
8
BLACK
6
CONTINUOUS
10
188.225
20
-117.544
11
188.225
21
-118.056
0
LINE
8
BLACK
6
CONTINUOUS
10
188.225
20
-118.056
11
188.212
21
-118.131
0
LINE
8
BLACK
6
CONTINUOUS
10
188.212
20
-118.131
11
188.174
21
-118.197
0
LINE
8
BLACK
6
CONTINUOUS
10
188.174
20
-118.197
11
188.116
21
-118.246
0
LINE
8
BLACK
6
CONTINUOUS
10
188.116
20
-118.246
11
188.006
21
-118.275
0
LINE
8
BLACK
6
CONTINUOUS
10
188.006
20
-118.275
11
187.569
21
-118.275
0
LINE
8
BLACK
6
CONTINUOUS
10
187.569
20
-118.275
11
187.494
21
-118.262
0
LINE
8
BLACK
6
CONTINUOUS
10
187.494
20
-118.262
11
187.428
21
-118.224
0
LINE
8
BLACK
6
CONTINUOUS
10
187.428
20
-118.224
11
187.379
21
-118.166
0
LINE
8
BLACK
6
CONTINUOUS
10
187.379
20
-118.166
11
187.35
21
-118.056
0
LINE
8
BLACK
6
CONTINUOUS
10
187.35
20
-118.056
11
187.35
21
-117.544
0
LINE
8
BLACK
6
CONTINUOUS
10
187.35
20
-117.544
11
187.363
21
-117.469
0
LINE
8
BLACK
6
CONTINUOUS
10
187.363
20
-117.469
11
187.401
21
-117.403
0
LINE
8
BLACK
6
CONTINUOUS
10
187.401
20
-117.403
11
187.459
21
-117.354
0
LINE
8
BLACK
6
CONTINUOUS
10
187.459
20
-117.354
11
187.569
21
-117.325
0
LINE
8
BLACK
6
CONTINUOUS
10
187.569
20
-117.325
11
188.006
21
-117.325
0
LINE
8
BLACK
6
CONTINUOUS
10
188.006
20
-117.325
11
188.081
21
-117.338
0
LINE
8
BLACK
6
CONTINUOUS
10
189.506
20
-117.338
11
189.572
21
-117.376
0
LINE
8
BLACK
6
CONTINUOUS
10
189.572
20
-117.376
11
189.621
21
-117.434
0
LINE
8
BLACK
6
CONTINUOUS
10
189.621
20
-117.434
11
189.65
21
-117.544
0
LINE
8
BLACK
6
CONTINUOUS
10
189.65
20
-117.544
11
189.65
21
-118.056
0
LINE
8
BLACK
6
CONTINUOUS
10
189.65
20
-118.056
11
189.637
21
-118.131
0
LINE
8
BLACK
6
CONTINUOUS
10
189.637
20
-118.131
11
189.599
21
-118.197
0
LINE
8
BLACK
6
CONTINUOUS
10
189.599
20
-118.197
11
189.541
21
-118.246
0
LINE
8
BLACK
6
CONTINUOUS
10
189.541
20
-118.246
11
189.431
21
-118.275
0
LINE
8
BLACK
6
CONTINUOUS
10
189.431
20
-118.275
11
188.994
21
-118.275
0
LINE
8
BLACK
6
CONTINUOUS
10
188.994
20
-118.275
11
188.919
21
-118.262
0
LINE
8
BLACK
6
CONTINUOUS
10
188.919
20
-118.262
11
188.853
21
-118.224
0
LINE
8
BLACK
6
CONTINUOUS
10
188.853
20
-118.224
11
188.804
21
-118.166
0
LINE
8
BLACK
6
CONTINUOUS
10
188.804
20
-118.166
11
188.775
21
-118.056
0
LINE
8
BLACK
6
CONTINUOUS
10
188.775
20
-118.056
11
188.775
21
-117.544
0
LINE
8
BLACK
6
CONTINUOUS
10
188.775
20
-117.544
11
188.788
21
-117.469
0
LINE
8
BLACK
6
CONTINUOUS
10
188.788
20
-117.469
11
188.826
21
-117.403
0
LINE
8
BLACK
6
CONTINUOUS
10
188.826
20
-117.403
11
188.884
21
-117.354
0
LINE
8
BLACK
6
CONTINUOUS
10
188.884
20
-117.354
11
188.994
21
-117.325
0
LINE
8
BLACK
6
CONTINUOUS
10
188.994
20
-117.325
11
189.431
21
-117.325
0
LINE
8
BLACK
6
CONTINUOUS
10
189.431
20
-117.325
11
189.506
21
-117.338
0
LINE
8
BLACK
6
CONTINUOUS
10
183.661
20
-117.338
11
183.727
21
-117.376
0
LINE
8
BLACK
6
CONTINUOUS
10
183.727
20
-117.376
11
183.776
21
-117.434
0
LINE
8
BLACK
6
CONTINUOUS
10
183.776
20
-117.434
11
183.805
21
-117.544
0
LINE
8
BLACK
6
CONTINUOUS
10
183.805
20
-117.544
11
183.805
21
-117.981
0
LINE
8
BLACK
6
CONTINUOUS
10
183.805
20
-117.981
11
183.792
21
-118.056
0
LINE
8
BLACK
6
CONTINUOUS
10
183.792
20
-118.056
11
183.754
21
-118.122
0
LINE
8
BLACK
6
CONTINUOUS
10
183.754
20
-118.122
11
183.696
21
-118.171
0
LINE
8
BLACK
6
CONTINUOUS
10
183.696
20
-118.171
11
183.586
21
-118.2
0
LINE
8
BLACK
6
CONTINUOUS
10
183.586
20
-118.2
11
183.074
21
-118.2
0
LINE
8
BLACK
6
CONTINUOUS
10
183.074
20
-118.2
11
182.999
21
-118.187
0
LINE
8
BLACK
6
CONTINUOUS
10
182.999
20
-118.187
11
182.933
21
-118.149
0
LINE
8
BLACK
6
CONTINUOUS
10
182.933
20
-118.149
11
182.884
21
-118.091
0
LINE
8
BLACK
6
CONTINUOUS
10
182.884
20
-118.091
11
182.855
21
-117.981
0
LINE
8
BLACK
6
CONTINUOUS
10
182.855
20
-117.981
11
182.855
21
-117.544
0
LINE
8
BLACK
6
CONTINUOUS
10
182.855
20
-117.544
11
182.868
21
-117.469
0
LINE
8
BLACK
6
CONTINUOUS
10
182.868
20
-117.469
11
182.906
21
-117.403
0
LINE
8
BLACK
6
CONTINUOUS
10
182.906
20
-117.403
11
182.964
21
-117.354
0
LINE
8
BLACK
6
CONTINUOUS
10
182.964
20
-117.354
11
183.074
21
-117.325
0
LINE
8
BLACK
6
CONTINUOUS
10
183.074
20
-117.325
11
183.586
21
-117.325
0
LINE
8
BLACK
6
CONTINUOUS
10
183.586
20
-117.325
11
183.661
21
-117.338
0
LINE
8
BLACK
6
CONTINUOUS
10
185.121
20
-117.338
11
185.187
21
-117.376
0
LINE
8
BLACK
6
CONTINUOUS
10
185.187
20
-117.376
11
185.236
21
-117.434
0
LINE
8
BLACK
6
CONTINUOUS
10
185.236
20
-117.434
11
185.265
21
-117.544
0
LINE
8
BLACK
6
CONTINUOUS
10
185.265
20
-117.544
11
185.265
21
-117.981
0
LINE
8
BLACK
6
CONTINUOUS
10
185.265
20
-117.981
11
185.252
21
-118.056
0
LINE
8
BLACK
6
CONTINUOUS
10
185.252
20
-118.056
11
185.214
21
-118.122
0
LINE
8
BLACK
6
CONTINUOUS
10
185.214
20
-118.122
11
185.156
21
-118.171
0
LINE
8
BLACK
6
CONTINUOUS
10
185.156
20
-118.171
11
185.046
21
-118.2
0
LINE
8
BLACK
6
CONTINUOUS
10
185.046
20
-118.2
11
184.534
21
-118.2
0
LINE
8
BLACK
6
CONTINUOUS
10
184.534
20
-118.2
11
184.459
21
-118.187
0
LINE
8
BLACK
6
CONTINUOUS
10
184.459
20
-118.187
11
184.393
21
-118.149
0
LINE
8
BLACK
6
CONTINUOUS
10
184.393
20
-118.149
11
184.344
21
-118.091
0
LINE
8
BLACK
6
CONTINUOUS
10
184.344
20
-118.091
11
184.315
21
-117.981
0
LINE
8
BLACK
6
CONTINUOUS
10
184.315
20
-117.981
11
184.315
21
-117.544
0
LINE
8
BLACK
6
CONTINUOUS
10
184.315
20
-117.544
11
184.328
21
-117.469
0
LINE
8
BLACK
6
CONTINUOUS
10
184.328
20
-117.469
11
184.366
21
-117.403
0
LINE
8
BLACK
6
CONTINUOUS
10
184.366
20
-117.403
11
184.424
21
-117.354
0
LINE
8
BLACK
6
CONTINUOUS
10
184.424
20
-117.354
11
184.534
21
-117.325
0
LINE
8
BLACK
6
CONTINUOUS
10
184.534
20
-117.325
11
185.046
21
-117.325
0
LINE
8
BLACK
6
CONTINUOUS
10
185.046
20
-117.325
11
185.121
21
-117.338
0
LINE
8
BLACK
6
CONTINUOUS
10
171.688
20
-116.79
11
170.662
21
-117.816
0
LINE
8
BLACK
6
CONTINUOUS
10
170.662
20
-117.816
11
170.344
21
-117.497
0
LINE
8
BLACK
6
CONTINUOUS
10
170.344
20
-117.497
11
171.369
21
-116.472
0
LINE
8
BLACK
6
CONTINUOUS
10
171.369
20
-116.472
11
171.688
21
-116.79
0
LINE
8
BLACK
6
CONTINUOUS
10
175.481
20
-116.638
11
175.547
21
-116.676
0
LINE
8
BLACK
6
CONTINUOUS
10
175.547
20
-116.676
11
175.596
21
-116.734
0
LINE
8
BLACK
6
CONTINUOUS
10
175.596
20
-116.734
11
175.625
21
-116.844
0
LINE
8
BLACK
6
CONTINUOUS
10
175.625
20
-116.844
11
175.625
21
-117.356
0
LINE
8
BLACK
6
CONTINUOUS
10
175.625
20
-117.356
11
175.612
21
-117.431
0
LINE
8
BLACK
6
CONTINUOUS
10
175.612
20
-117.431
11
175.574
21
-117.497
0
LINE
8
BLACK
6
CONTINUOUS
10
175.574
20
-117.497
11
175.516
21
-117.546
0
LINE
8
BLACK
6
CONTINUOUS
10
175.516
20
-117.546
11
175.406
21
-117.575
0
LINE
8
BLACK
6
CONTINUOUS
10
175.406
20
-117.575
11
174.969
21
-117.575
0
LINE
8
BLACK
6
CONTINUOUS
10
174.969
20
-117.575
11
174.894
21
-117.562
0
LINE
8
BLACK
6
CONTINUOUS
10
174.894
20
-117.562
11
174.828
21
-117.524
0
LINE
8
BLACK
6
CONTINUOUS
10
174.828
20
-117.524
11
174.779
21
-117.466
0
LINE
8
BLACK
6
CONTINUOUS
10
174.779
20
-117.466
11
174.75
21
-117.356
0
LINE
8
BLACK
6
CONTINUOUS
10
174.75
20
-117.356
11
174.75
21
-116.844
0
LINE
8
BLACK
6
CONTINUOUS
10
174.75
20
-116.844
11
174.763
21
-116.769
0
LINE
8
BLACK
6
CONTINUOUS
10
174.763
20
-116.769
11
174.801
21
-116.703
0
LINE
8
BLACK
6
CONTINUOUS
10
174.801
20
-116.703
11
174.859
21
-116.654
0
LINE
8
BLACK
6
CONTINUOUS
10
174.859
20
-116.654
11
174.969
21
-116.625
0
LINE
8
BLACK
6
CONTINUOUS
10
174.969
20
-116.625
11
175.406
21
-116.625
0
LINE
8
BLACK
6
CONTINUOUS
10
175.406
20
-116.625
11
175.481
21
-116.638
0
LINE
8
BLACK
6
CONTINUOUS
10
173.906
20
-116.638
11
173.972
21
-116.676
0
LINE
8
BLACK
6
CONTINUOUS
10
173.972
20
-116.676
11
174.021
21
-116.734
0
LINE
8
BLACK
6
CONTINUOUS
10
174.021
20
-116.734
11
174.05
21
-116.844
0
LINE
8
BLACK
6
CONTINUOUS
10
174.05
20
-116.844
11
174.05
21
-117.356
0
LINE
8
BLACK
6
CONTINUOUS
10
174.05
20
-117.356
11
174.037
21
-117.431
0
LINE
8
BLACK
6
CONTINUOUS
10
174.037
20
-117.431
11
173.999
21
-117.497
0
LINE
8
BLACK
6
CONTINUOUS
10
173.999
20
-117.497
11
173.941
21
-117.546
0
LINE
8
BLACK
6
CONTINUOUS
10
173.941
20
-117.546
11
173.831
21
-117.575
0
LINE
8
BLACK
6
CONTINUOUS
10
173.831
20
-117.575
11
173.394
21
-117.575
0
LINE
8
BLACK
6
CONTINUOUS
10
173.394
20
-117.575
11
173.319
21
-117.562
0
LINE
8
BLACK
6
CONTINUOUS
10
173.319
20
-117.562
11
173.253
21
-117.524
0
LINE
8
BLACK
6
CONTINUOUS
10
173.253
20
-117.524
11
173.204
21
-117.466
0
LINE
8
BLACK
6
CONTINUOUS
10
173.204
20
-117.466
11
173.175
21
-117.356
0
LINE
8
BLACK
6
CONTINUOUS
10
173.175
20
-117.356
11
173.175
21
-116.844
0
LINE
8
BLACK
6
CONTINUOUS
10
173.175
20
-116.844
11
173.188
21
-116.769
0
LINE
8
BLACK
6
CONTINUOUS
10
173.188
20
-116.769
11
173.226
21
-116.703
0
LINE
8
BLACK
6
CONTINUOUS
10
173.226
20
-116.703
11
173.284
21
-116.654
0
LINE
8
BLACK
6
CONTINUOUS
10
173.284
20
-116.654
11
173.394
21
-116.625
0
LINE
8
BLACK
6
CONTINUOUS
10
173.394
20
-116.625
11
173.831
21
-116.625
0
LINE
8
BLACK
6
CONTINUOUS
10
173.831
20
-116.625
11
173.906
21
-116.638
0
LINE
8
BLACK
6
CONTINUOUS
10
171.228
20
-116.331
11
170.203
21
-117.356
0
LINE
8
BLACK
6
CONTINUOUS
10
170.203
20
-117.356
11
169.884
21
-117.038
0
LINE
8
BLACK
6
CONTINUOUS
10
169.884
20
-117.038
11
170.91
21
-116.012
0
LINE
8
BLACK
6
CONTINUOUS
10
170.91
20
-116.012
11
171.228
21
-116.331
0
LINE
8
BLACK
6
CONTINUOUS
10
170.768
20
-115.871
11
169.743
21
-116.896
0
LINE
8
BLACK
6
CONTINUOUS
10
169.743
20
-116.896
11
169.425
21
-116.578
0
LINE
8
BLACK
6
CONTINUOUS
10
169.425
20
-116.578
11
170.45
21
-115.553
0
LINE
8
BLACK
6
CONTINUOUS
10
170.45
20
-115.553
11
170.768
21
-115.871
0
LINE
8
BLACK
6
CONTINUOUS
10
180.531
20
-115.863
11
180.597
21
-115.901
0
LINE
8
BLACK
6
CONTINUOUS
10
180.597
20
-115.901
11
180.646
21
-115.959
0
LINE
8
BLACK
6
CONTINUOUS
10
180.646
20
-115.959
11
180.675
21
-116.069
0
LINE
8
BLACK
6
CONTINUOUS
10
180.675
20
-116.069
11
180.675
21
-116.506
0
LINE
8
BLACK
6
CONTINUOUS
10
180.675
20
-116.506
11
180.662
21
-116.581
0
LINE
8
BLACK
6
CONTINUOUS
10
180.662
20
-116.581
11
180.624
21
-116.647
0
LINE
8
BLACK
6
CONTINUOUS
10
180.624
20
-116.647
11
180.566
21
-116.696
0
LINE
8
BLACK
6
CONTINUOUS
10
180.566
20
-116.696
11
180.456
21
-116.725
0
LINE
8
BLACK
6
CONTINUOUS
10
180.456
20
-116.725
11
179.944
21
-116.725
0
LINE
8
BLACK
6
CONTINUOUS
10
179.944
20
-116.725
11
179.869
21
-116.712
0
LINE
8
BLACK
6
CONTINUOUS
10
179.869
20
-116.712
11
179.803
21
-116.674
0
LINE
8
BLACK
6
CONTINUOUS
10
179.803
20
-116.674
11
179.754
21
-116.616
0
LINE
8
BLACK
6
CONTINUOUS
10
179.754
20
-116.616
11
179.725
21
-116.506
0
LINE
8
BLACK
6
CONTINUOUS
10
179.725
20
-116.506
11
179.725
21
-116.069
0
LINE
8
BLACK
6
CONTINUOUS
10
179.725
20
-116.069
11
179.738
21
-115.994
0
LINE
8
BLACK
6
CONTINUOUS
10
179.738
20
-115.994
11
179.776
21
-115.928
0
LINE
8
BLACK
6
CONTINUOUS
10
179.776
20
-115.928
11
179.834
21
-115.879
0
LINE
8
BLACK
6
CONTINUOUS
10
179.834
20
-115.879
11
179.944
21
-115.85
0
LINE
8
BLACK
6
CONTINUOUS
10
179.944
20
-115.85
11
180.456
21
-115.85
0
LINE
8
BLACK
6
CONTINUOUS
10
180.456
20
-115.85
11
180.531
21
-115.863
0
LINE
8
BLACK
6
CONTINUOUS
10
160.531
20
-115.863
11
160.597
21
-115.901
0
LINE
8
BLACK
6
CONTINUOUS
10
160.597
20
-115.901
11
160.646
21
-115.959
0
LINE
8
BLACK
6
CONTINUOUS
10
160.646
20
-115.959
11
160.675
21
-116.069
0
LINE
8
BLACK
6
CONTINUOUS
10
160.675
20
-116.069
11
160.675
21
-116.506
0
LINE
8
BLACK
6
CONTINUOUS
10
160.675
20
-116.506
11
160.662
21
-116.581
0
LINE
8
BLACK
6
CONTINUOUS
10
160.662
20
-116.581
11
160.624
21
-116.647
0
LINE
8
BLACK
6
CONTINUOUS
10
160.624
20
-116.647
11
160.566
21
-116.696
0
LINE
8
BLACK
6
CONTINUOUS
10
160.566
20
-116.696
11
160.456
21
-116.725
0
LINE
8
BLACK
6
CONTINUOUS
10
160.456
20
-116.725
11
159.944
21
-116.725
0
LINE
8
BLACK
6
CONTINUOUS
10
159.944
20
-116.725
11
159.869
21
-116.712
0
LINE
8
BLACK
6
CONTINUOUS
10
159.869
20
-116.712
11
159.803
21
-116.674
0
LINE
8
BLACK
6
CONTINUOUS
10
159.803
20
-116.674
11
159.754
21
-116.616
0
LINE
8
BLACK
6
CONTINUOUS
10
159.754
20
-116.616
11
159.725
21
-116.506
0
LINE
8
BLACK
6
CONTINUOUS
10
159.725
20
-116.506
11
159.725
21
-116.069
0
LINE
8
BLACK
6
CONTINUOUS
10
159.725
20
-116.069
11
159.738
21
-115.994
0
LINE
8
BLACK
6
CONTINUOUS
10
159.738
20
-115.994
11
159.776
21
-115.928
0
LINE
8
BLACK
6
CONTINUOUS
10
159.776
20
-115.928
11
159.834
21
-115.879
0
LINE
8
BLACK
6
CONTINUOUS
10
159.834
20
-115.879
11
159.944
21
-115.85
0
LINE
8
BLACK
6
CONTINUOUS
10
159.944
20
-115.85
11
160.456
21
-115.85
0
LINE
8
BLACK
6
CONTINUOUS
10
160.456
20
-115.85
11
160.531
21
-115.863
0
LINE
8
BLACK
6
CONTINUOUS
10
182.75
20
-116.57
11
181.55
21
-116.57
0
LINE
8
BLACK
6
CONTINUOUS
10
181.55
20
-116.57
11
181.55
21
-115.77
0
LINE
8
BLACK
6
CONTINUOUS
10
181.55
20
-115.77
11
182.75
21
-115.77
0
LINE
8
BLACK
6
CONTINUOUS
10
182.75
20
-115.77
11
182.75
21
-116.57
0
LINE
8
BLACK
6
CONTINUOUS
10
189.05
20
-116.57
11
187.85
21
-116.57
0
LINE
8
BLACK
6
CONTINUOUS
10
187.85
20
-116.57
11
187.85
21
-115.77
0
LINE
8
BLACK
6
CONTINUOUS
10
187.85
20
-115.77
11
189.05
21
-115.77
0
LINE
8
BLACK
6
CONTINUOUS
10
189.05
20
-115.77
11
189.05
21
-116.57
0
LINE
8
BLACK
6
CONTINUOUS
10
170.309
20
-115.411
11
169.283
21
-116.437
0
LINE
8
BLACK
6
CONTINUOUS
10
169.283
20
-116.437
11
168.965
21
-116.119
0
LINE
8
BLACK
6
CONTINUOUS
10
168.965
20
-116.119
11
169.99
21
-115.093
0
LINE
8
BLACK
6
CONTINUOUS
10
169.99
20
-115.093
11
170.309
21
-115.411
0
LINE
8
BLACK
6
CONTINUOUS
10
169.849
20
-114.952
11
168.824
21
-115.977
0
LINE
8
BLACK
6
CONTINUOUS
10
168.824
20
-115.977
11
168.506
21
-115.659
0
LINE
8
BLACK
6
CONTINUOUS
10
168.506
20
-115.659
11
169.531
21
-114.634
0
LINE
8
BLACK
6
CONTINUOUS
10
169.531
20
-114.634
11
169.849
21
-114.952
0
LINE
8
BLACK
6
CONTINUOUS
10
192.73
20
-115.058
11
192.796
21
-115.096
0
LINE
8
BLACK
6
CONTINUOUS
10
192.796
20
-115.096
11
192.844
21
-115.154
0
LINE
8
BLACK
6
CONTINUOUS
10
192.844
20
-115.154
11
192.874
21
-115.263
0
LINE
8
BLACK
6
CONTINUOUS
10
192.874
20
-115.263
11
192.874
21
-115.701
0
LINE
8
BLACK
6
CONTINUOUS
10
192.874
20
-115.701
11
192.86
21
-115.776
0
LINE
8
BLACK
6
CONTINUOUS
10
192.86
20
-115.776
11
192.822
21
-115.841
0
LINE
8
BLACK
6
CONTINUOUS
10
192.822
20
-115.841
11
192.764
21
-115.89
0
LINE
8
BLACK
6
CONTINUOUS
10
192.764
20
-115.89
11
192.655
21
-115.92
0
LINE
8
BLACK
6
CONTINUOUS
10
192.655
20
-115.92
11
192.142
21
-115.92
0
LINE
8
BLACK
6
CONTINUOUS
10
192.142
20
-115.92
11
192.068
21
-115.906
0
LINE
8
BLACK
6
CONTINUOUS
10
192.068
20
-115.906
11
192.002
21
-115.868
0
LINE
8
BLACK
6
CONTINUOUS
10
192.002
20
-115.868
11
191.953
21
-115.81
0
LINE
8
BLACK
6
CONTINUOUS
10
191.953
20
-115.81
11
191.924
21
-115.701
0
LINE
8
BLACK
6
CONTINUOUS
10
191.924
20
-115.701
11
191.924
21
-115.263
0
LINE
8
BLACK
6
CONTINUOUS
10
191.924
20
-115.263
11
191.937
21
-115.189
0
LINE
8
BLACK
6
CONTINUOUS
10
191.937
20
-115.189
11
191.975
21
-115.123
0
LINE
8
BLACK
6
CONTINUOUS
10
191.975
20
-115.123
11
192.033
21
-115.074
0
LINE
8
BLACK
6
CONTINUOUS
10
192.033
20
-115.074
11
192.142
21
-115.045
0
LINE
8
BLACK
6
CONTINUOUS
10
192.142
20
-115.045
11
192.655
21
-115.045
0
LINE
8
BLACK
6
CONTINUOUS
10
192.655
20
-115.045
11
192.73
21
-115.058
0
LINE
8
BLACK
6
CONTINUOUS
10
191.18
20
-115.058
11
191.246
21
-115.096
0
LINE
8
BLACK
6
CONTINUOUS
10
191.246
20
-115.096
11
191.294
21
-115.154
0
LINE
8
BLACK
6
CONTINUOUS
10
191.294
20
-115.154
11
191.324
21
-115.263
0
LINE
8
BLACK
6
CONTINUOUS
10
191.324
20
-115.263
11
191.324
21
-115.701
0
LINE
8
BLACK
6
CONTINUOUS
10
191.324
20
-115.701
11
191.31
21
-115.776
0
LINE
8
BLACK
6
CONTINUOUS
10
191.31
20
-115.776
11
191.272
21
-115.841
0
LINE
8
BLACK
6
CONTINUOUS
10
191.272
20
-115.841
11
191.214
21
-115.89
0
LINE
8
BLACK
6
CONTINUOUS
10
191.214
20
-115.89
11
191.105
21
-115.92
0
LINE
8
BLACK
6
CONTINUOUS
10
191.105
20
-115.92
11
190.592
21
-115.92
0
LINE
8
BLACK
6
CONTINUOUS
10
190.592
20
-115.92
11
190.518
21
-115.906
0
LINE
8
BLACK
6
CONTINUOUS
10
190.518
20
-115.906
11
190.452
21
-115.868
0
LINE
8
BLACK
6
CONTINUOUS
10
190.452
20
-115.868
11
190.403
21
-115.81
0
LINE
8
BLACK
6
CONTINUOUS
10
190.403
20
-115.81
11
190.374
21
-115.701
0
LINE
8
BLACK
6
CONTINUOUS
10
190.374
20
-115.701
11
190.374
21
-115.263
0
LINE
8
BLACK
6
CONTINUOUS
10
190.374
20
-115.263
11
190.387
21
-115.189
0
LINE
8
BLACK
6
CONTINUOUS
10
190.387
20
-115.189
11
190.425
21
-115.123
0
LINE
8
BLACK
6
CONTINUOUS
10
190.425
20
-115.123
11
190.483
21
-115.074
0
LINE
8
BLACK
6
CONTINUOUS
10
190.483
20
-115.074
11
190.592
21
-115.045
0
LINE
8
BLACK
6
CONTINUOUS
10
190.592
20
-115.045
11
191.105
21
-115.045
0
LINE
8
BLACK
6
CONTINUOUS
10
191.105
20
-115.045
11
191.18
21
-115.058
0
LINE
8
BLACK
6
CONTINUOUS
10
194.28
20
-115.058
11
194.346
21
-115.096
0
LINE
8
BLACK
6
CONTINUOUS
10
194.346
20
-115.096
11
194.394
21
-115.154
0
LINE
8
BLACK
6
CONTINUOUS
10
194.394
20
-115.154
11
194.424
21
-115.263
0
LINE
8
BLACK
6
CONTINUOUS
10
194.424
20
-115.263
11
194.424
21
-115.701
0
LINE
8
BLACK
6
CONTINUOUS
10
194.424
20
-115.701
11
194.41
21
-115.776
0
LINE
8
BLACK
6
CONTINUOUS
10
194.41
20
-115.776
11
194.372
21
-115.841
0
LINE
8
BLACK
6
CONTINUOUS
10
194.372
20
-115.841
11
194.314
21
-115.89
0
LINE
8
BLACK
6
CONTINUOUS
10
194.314
20
-115.89
11
194.205
21
-115.92
0
LINE
8
BLACK
6
CONTINUOUS
10
194.205
20
-115.92
11
193.692
21
-115.92
0
LINE
8
BLACK
6
CONTINUOUS
10
193.692
20
-115.92
11
193.618
21
-115.906
0
LINE
8
BLACK
6
CONTINUOUS
10
193.618
20
-115.906
11
193.552
21
-115.868
0
LINE
8
BLACK
6
CONTINUOUS
10
193.552
20
-115.868
11
193.503
21
-115.81
0
LINE
8
BLACK
6
CONTINUOUS
10
193.503
20
-115.81
11
193.474
21
-115.701
0
LINE
8
BLACK
6
CONTINUOUS
10
193.474
20
-115.701
11
193.474
21
-115.263
0
LINE
8
BLACK
6
CONTINUOUS
10
193.474
20
-115.263
11
193.487
21
-115.189
0
LINE
8
BLACK
6
CONTINUOUS
10
193.487
20
-115.189
11
193.525
21
-115.123
0
LINE
8
BLACK
6
CONTINUOUS
10
193.525
20
-115.123
11
193.583
21
-115.074
0
LINE
8
BLACK
6
CONTINUOUS
10
193.583
20
-115.074
11
193.692
21
-115.045
0
LINE
8
BLACK
6
CONTINUOUS
10
193.692
20
-115.045
11
194.205
21
-115.045
0
LINE
8
BLACK
6
CONTINUOUS
10
194.205
20
-115.045
11
194.28
21
-115.058
0
LINE
8
BLACK
6
CONTINUOUS
10
169.389
20
-114.492
11
168.364
21
-115.517
0
LINE
8
BLACK
6
CONTINUOUS
10
168.364
20
-115.517
11
168.046
21
-115.199
0
LINE
8
BLACK
6
CONTINUOUS
10
168.046
20
-115.199
11
169.071
21
-114.174
0
LINE
8
BLACK
6
CONTINUOUS
10
169.071
20
-114.174
11
169.389
21
-114.492
0
LINE
8
BLACK
6
CONTINUOUS
10
189.05
20
-115.3
11
187.85
21
-115.3
0
LINE
8
BLACK
6
CONTINUOUS
10
187.85
20
-115.3
11
187.85
21
-114.5
0
LINE
8
BLACK
6
CONTINUOUS
10
187.85
20
-114.5
11
189.05
21
-114.5
0
LINE
8
BLACK
6
CONTINUOUS
10
189.05
20
-114.5
11
189.05
21
-115.3
0
LINE
8
BLACK
6
CONTINUOUS
10
180.531
20
-114.288
11
180.597
21
-114.326
0
LINE
8
BLACK
6
CONTINUOUS
10
180.597
20
-114.326
11
180.646
21
-114.384
0
LINE
8
BLACK
6
CONTINUOUS
10
180.646
20
-114.384
11
180.675
21
-114.494
0
LINE
8
BLACK
6
CONTINUOUS
10
180.675
20
-114.494
11
180.675
21
-114.931
0
LINE
8
BLACK
6
CONTINUOUS
10
180.675
20
-114.931
11
180.662
21
-115.006
0
LINE
8
BLACK
6
CONTINUOUS
10
180.662
20
-115.006
11
180.624
21
-115.072
0
LINE
8
BLACK
6
CONTINUOUS
10
180.624
20
-115.072
11
180.566
21
-115.121
0
LINE
8
BLACK
6
CONTINUOUS
10
180.566
20
-115.121
11
180.456
21
-115.15
0
LINE
8
BLACK
6
CONTINUOUS
10
180.456
20
-115.15
11
179.944
21
-115.15
0
LINE
8
BLACK
6
CONTINUOUS
10
179.944
20
-115.15
11
179.869
21
-115.137
0
LINE
8
BLACK
6
CONTINUOUS
10
179.869
20
-115.137
11
179.803
21
-115.099
0
LINE
8
BLACK
6
CONTINUOUS
10
179.803
20
-115.099
11
179.754
21
-115.041
0
LINE
8
BLACK
6
CONTINUOUS
10
179.754
20
-115.041
11
179.725
21
-114.931
0
LINE
8
BLACK
6
CONTINUOUS
10
179.725
20
-114.931
11
179.725
21
-114.494
0
LINE
8
BLACK
6
CONTINUOUS
10
179.725
20
-114.494
11
179.738
21
-114.419
0
LINE
8
BLACK
6
CONTINUOUS
10
179.738
20
-114.419
11
179.776
21
-114.353
0
LINE
8
BLACK
6
CONTINUOUS
10
179.776
20
-114.353
11
179.834
21
-114.304
0
LINE
8
BLACK
6
CONTINUOUS
10
179.834
20
-114.304
11
179.944
21
-114.275
0
LINE
8
BLACK
6
CONTINUOUS
10
179.944
20
-114.275
11
180.456
21
-114.275
0
LINE
8
BLACK
6
CONTINUOUS
10
180.456
20
-114.275
11
180.531
21
-114.288
0
LINE
8
BLACK
6
CONTINUOUS
10
160.531
20
-114.288
11
160.597
21
-114.326
0
LINE
8
BLACK
6
CONTINUOUS
10
160.597
20
-114.326
11
160.646
21
-114.384
0
LINE
8
BLACK
6
CONTINUOUS
10
160.646
20
-114.384
11
160.675
21
-114.494
0
LINE
8
BLACK
6
CONTINUOUS
10
160.675
20
-114.494
11
160.675
21
-114.931
0
LINE
8
BLACK
6
CONTINUOUS
10
160.675
20
-114.931
11
160.662
21
-115.006
0
LINE
8
BLACK
6
CONTINUOUS
10
160.662
20
-115.006
11
160.624
21
-115.072
0
LINE
8
BLACK
6
CONTINUOUS
10
160.624
20
-115.072
11
160.566
21
-115.121
0
LINE
8
BLACK
6
CONTINUOUS
10
160.566
20
-115.121
11
160.456
21
-115.15
0
LINE
8
BLACK
6
CONTINUOUS
10
160.456
20
-115.15
11
159.944
21
-115.15
0
LINE
8
BLACK
6
CONTINUOUS
10
159.944
20
-115.15
11
159.869
21
-115.137
0
LINE
8
BLACK
6
CONTINUOUS
10
159.869
20
-115.137
11
159.803
21
-115.099
0
LINE
8
BLACK
6
CONTINUOUS
10
159.803
20
-115.099
11
159.754
21
-115.041
0
LINE
8
BLACK
6
CONTINUOUS
10
159.754
20
-115.041
11
159.725
21
-114.931
0
LINE
8
BLACK
6
CONTINUOUS
10
159.725
20
-114.931
11
159.725
21
-114.494
0
LINE
8
BLACK
6
CONTINUOUS
10
159.725
20
-114.494
11
159.738
21
-114.419
0
LINE
8
BLACK
6
CONTINUOUS
10
159.738
20
-114.419
11
159.776
21
-114.353
0
LINE
8
BLACK
6
CONTINUOUS
10
159.776
20
-114.353
11
159.834
21
-114.304
0
LINE
8
BLACK
6
CONTINUOUS
10
159.834
20
-114.304
11
159.944
21
-114.275
0
LINE
8
BLACK
6
CONTINUOUS
10
159.944
20
-114.275
11
160.456
21
-114.275
0
LINE
8
BLACK
6
CONTINUOUS
10
160.456
20
-114.275
11
160.531
21
-114.288
0
LINE
8
BLACK
6
CONTINUOUS
10
191.18
20
-113.483
11
191.246
21
-113.521
0
LINE
8
BLACK
6
CONTINUOUS
10
191.246
20
-113.521
11
191.294
21
-113.579
0
LINE
8
BLACK
6
CONTINUOUS
10
191.294
20
-113.579
11
191.324
21
-113.688
0
LINE
8
BLACK
6
CONTINUOUS
10
191.324
20
-113.688
11
191.324
21
-114.126
0
LINE
8
BLACK
6
CONTINUOUS
10
191.324
20
-114.126
11
191.31
21
-114.201
0
LINE
8
BLACK
6
CONTINUOUS
10
191.31
20
-114.201
11
191.272
21
-114.266
0
LINE
8
BLACK
6
CONTINUOUS
10
191.272
20
-114.266
11
191.214
21
-114.315
0
LINE
8
BLACK
6
CONTINUOUS
10
191.214
20
-114.315
11
191.105
21
-114.345
0
LINE
8
BLACK
6
CONTINUOUS
10
191.105
20
-114.345
11
190.592
21
-114.345
0
LINE
8
BLACK
6
CONTINUOUS
10
190.592
20
-114.345
11
190.518
21
-114.331
0
LINE
8
BLACK
6
CONTINUOUS
10
190.518
20
-114.331
11
190.452
21
-114.293
0
LINE
8
BLACK
6
CONTINUOUS
10
190.452
20
-114.293
11
190.403
21
-114.235
0
LINE
8
BLACK
6
CONTINUOUS
10
190.403
20
-114.235
11
190.374
21
-114.126
0
LINE
8
BLACK
6
CONTINUOUS
10
190.374
20
-114.126
11
190.374
21
-113.688
0
LINE
8
BLACK
6
CONTINUOUS
10
190.374
20
-113.688
11
190.387
21
-113.614
0
LINE
8
BLACK
6
CONTINUOUS
10
190.387
20
-113.614
11
190.425
21
-113.548
0
LINE
8
BLACK
6
CONTINUOUS
10
190.425
20
-113.548
11
190.483
21
-113.499
0
LINE
8
BLACK
6
CONTINUOUS
10
190.483
20
-113.499
11
190.592
21
-113.47
0
LINE
8
BLACK
6
CONTINUOUS
10
190.592
20
-113.47
11
191.105
21
-113.47
0
LINE
8
BLACK
6
CONTINUOUS
10
191.105
20
-113.47
11
191.18
21
-113.483
0
LINE
8
BLACK
6
CONTINUOUS
10
194.28
20
-113.483
11
194.346
21
-113.521
0
LINE
8
BLACK
6
CONTINUOUS
10
194.346
20
-113.521
11
194.394
21
-113.579
0
LINE
8
BLACK
6
CONTINUOUS
10
194.394
20
-113.579
11
194.424
21
-113.688
0
LINE
8
BLACK
6
CONTINUOUS
10
194.424
20
-113.688
11
194.424
21
-114.126
0
LINE
8
BLACK
6
CONTINUOUS
10
194.424
20
-114.126
11
194.41
21
-114.201
0
LINE
8
BLACK
6
CONTINUOUS
10
194.41
20
-114.201
11
194.372
21
-114.266
0
LINE
8
BLACK
6
CONTINUOUS
10
194.372
20
-114.266
11
194.314
21
-114.315
0
LINE
8
BLACK
6
CONTINUOUS
10
194.314
20
-114.315
11
194.205
21
-114.345
0
LINE
8
BLACK
6
CONTINUOUS
10
194.205
20
-114.345
11
193.692
21
-114.345
0
LINE
8
BLACK
6
CONTINUOUS
10
193.692
20
-114.345
11
193.618
21
-114.331
0
LINE
8
BLACK
6
CONTINUOUS
10
193.618
20
-114.331
11
193.552
21
-114.293
0
LINE
8
BLACK
6
CONTINUOUS
10
193.552
20
-114.293
11
193.503
21
-114.235
0
LINE
8
BLACK
6
CONTINUOUS
10
193.503
20
-114.235
11
193.474
21
-114.126
0
LINE
8
BLACK
6
CONTINUOUS
10
193.474
20
-114.126
11
193.474
21
-113.688
0
LINE
8
BLACK
6
CONTINUOUS
10
193.474
20
-113.688
11
193.487
21
-113.614
0
LINE
8
BLACK
6
CONTINUOUS
10
193.487
20
-113.614
11
193.525
21
-113.548
0
LINE
8
BLACK
6
CONTINUOUS
10
193.525
20
-113.548
11
193.583
21
-113.499
0
LINE
8
BLACK
6
CONTINUOUS
10
193.583
20
-113.499
11
193.692
21
-113.47
0
LINE
8
BLACK
6
CONTINUOUS
10
193.692
20
-113.47
11
194.205
21
-113.47
0
LINE
8
BLACK
6
CONTINUOUS
10
194.205
20
-113.47
11
194.28
21
-113.483
0
LINE
8
BLACK
6
CONTINUOUS
10
192.73
20
-113.483
11
192.796
21
-113.521
0
LINE
8
BLACK
6
CONTINUOUS
10
192.796
20
-113.521
11
192.844
21
-113.579
0
LINE
8
BLACK
6
CONTINUOUS
10
192.844
20
-113.579
11
192.874
21
-113.688
0
LINE
8
BLACK
6
CONTINUOUS
10
192.874
20
-113.688
11
192.874
21
-114.126
0
LINE
8
BLACK
6
CONTINUOUS
10
192.874
20
-114.126
11
192.86
21
-114.201
0
LINE
8
BLACK
6
CONTINUOUS
10
192.86
20
-114.201
11
192.822
21
-114.266
0
LINE
8
BLACK
6
CONTINUOUS
10
192.822
20
-114.266
11
192.764
21
-114.315
0
LINE
8
BLACK
6
CONTINUOUS
10
192.764
20
-114.315
11
192.655
21
-114.345
0
LINE
8
BLACK
6
CONTINUOUS
10
192.655
20
-114.345
11
192.142
21
-114.345
0
LINE
8
BLACK
6
CONTINUOUS
10
192.142
20
-114.345
11
192.068
21
-114.331
0
LINE
8
BLACK
6
CONTINUOUS
10
192.068
20
-114.331
11
192.002
21
-114.293
0
LINE
8
BLACK
6
CONTINUOUS
10
192.002
20
-114.293
11
191.953
21
-114.235
0
LINE
8
BLACK
6
CONTINUOUS
10
191.953
20
-114.235
11
191.924
21
-114.126
0
LINE
8
BLACK
6
CONTINUOUS
10
191.924
20
-114.126
11
191.924
21
-113.688
0
LINE
8
BLACK
6
CONTINUOUS
10
191.924
20
-113.688
11
191.937
21
-113.614
0
LINE
8
BLACK
6
CONTINUOUS
10
191.937
20
-113.614
11
191.975
21
-113.548
0
LINE
8
BLACK
6
CONTINUOUS
10
191.975
20
-113.548
11
192.033
21
-113.499
0
LINE
8
BLACK
6
CONTINUOUS
10
192.033
20
-113.499
11
192.142
21
-113.47
0
LINE
8
BLACK
6
CONTINUOUS
10
192.142
20
-113.47
11
192.655
21
-113.47
0
LINE
8
BLACK
6
CONTINUOUS
10
192.655
20
-113.47
11
192.73
21
-113.483
0
LINE
8
BLACK
6
CONTINUOUS
10
189.05
20
-114.03
11
187.85
21
-114.03
0
LINE
8
BLACK
6
CONTINUOUS
10
187.85
20
-114.03
11
187.85
21
-113.23
0
LINE
8
BLACK
6
CONTINUOUS
10
187.85
20
-113.23
11
189.05
21
-113.23
0
LINE
8
BLACK
6
CONTINUOUS
10
189.05
20
-113.23
11
189.05
21
-114.03
0
LINE
8
BLACK
6
CONTINUOUS
10
182.75
20
-114.03
11
181.55
21
-114.03
0
LINE
8
BLACK
6
CONTINUOUS
10
181.55
20
-114.03
11
181.55
21
-113.23
0
LINE
8
BLACK
6
CONTINUOUS
10
181.55
20
-113.23
11
182.75
21
-113.23
0
LINE
8
BLACK
6
CONTINUOUS
10
182.75
20
-113.23
11
182.75
21
-114.03
0
LINE
8
BLACK
6
CONTINUOUS
10
166.4
20
-113.8
11
165.5
21
-113.8
0
LINE
8
BLACK
6
CONTINUOUS
10
165.5
20
-113.8
11
165.5
21
-112.8
0
LINE
8
BLACK
6
CONTINUOUS
10
165.5
20
-112.8
11
166.4
21
-112.8
0
LINE
8
BLACK
6
CONTINUOUS
10
166.4
20
-112.8
11
166.4
21
-113.8
0
LINE
8
BLACK
6
CONTINUOUS
10
162.3
20
-113.8
11
161.4
21
-113.8
0
LINE
8
BLACK
6
CONTINUOUS
10
161.4
20
-113.8
11
161.4
21
-112.8
0
LINE
8
BLACK
6
CONTINUOUS
10
161.4
20
-112.8
11
162.3
21
-112.8
0
LINE
8
BLACK
6
CONTINUOUS
10
162.3
20
-112.8
11
162.3
21
-113.8
0
LINE
8
BLACK
6
CONTINUOUS
10
174.461
20
-111.09
11
174.536
21
-111.133
0
LINE
8
BLACK
6
CONTINUOUS
10
174.536
20
-111.133
11
174.592
21
-111.2
0
LINE
8
BLACK
6
CONTINUOUS
10
174.592
20
-111.2
11
174.625
21
-111.325
0
LINE
8
BLACK
6
CONTINUOUS
10
174.625
20
-111.325
11
174.625
21
-113.475
0
LINE
8
BLACK
6
CONTINUOUS
10
174.625
20
-113.475
11
174.61
21
-113.561
0
LINE
8
BLACK
6
CONTINUOUS
10
174.61
20
-113.561
11
174.567
21
-113.636
0
LINE
8
BLACK
6
CONTINUOUS
10
174.567
20
-113.636
11
174.5
21
-113.692
0
LINE
8
BLACK
6
CONTINUOUS
10
174.5
20
-113.692
11
174.375
21
-113.725
0
LINE
8
BLACK
6
CONTINUOUS
10
174.375
20
-113.725
11
173.625
21
-113.725
0
LINE
8
BLACK
6
CONTINUOUS
10
173.625
20
-113.725
11
173.539
21
-113.71
0
LINE
8
BLACK
6
CONTINUOUS
10
173.539
20
-113.71
11
173.464
21
-113.667
0
LINE
8
BLACK
6
CONTINUOUS
10
173.464
20
-113.667
11
173.408
21
-113.6
0
LINE
8
BLACK
6
CONTINUOUS
10
173.408
20
-113.6
11
173.375
21
-113.475
0
LINE
8
BLACK
6
CONTINUOUS
10
173.375
20
-113.475
11
173.375
21
-111.325
0
LINE
8
BLACK
6
CONTINUOUS
10
173.375
20
-111.325
11
173.39
21
-111.239
0
LINE
8
BLACK
6
CONTINUOUS
10
173.39
20
-111.239
11
173.433
21
-111.164
0
LINE
8
BLACK
6
CONTINUOUS
10
173.433
20
-111.164
11
173.5
21
-111.108
0
LINE
8
BLACK
6
CONTINUOUS
10
173.5
20
-111.108
11
173.625
21
-111.075
0
LINE
8
BLACK
6
CONTINUOUS
10
173.625
20
-111.075
11
174.375
21
-111.075
0
LINE
8
BLACK
6
CONTINUOUS
10
174.375
20
-111.075
11
174.461
21
-111.09
0
LINE
8
BLACK
6
CONTINUOUS
10
177.261
20
-111.09
11
177.336
21
-111.133
0
LINE
8
BLACK
6
CONTINUOUS
10
177.336
20
-111.133
11
177.392
21
-111.2
0
LINE
8
BLACK
6
CONTINUOUS
10
177.392
20
-111.2
11
177.425
21
-111.325
0
LINE
8
BLACK
6
CONTINUOUS
10
177.425
20
-111.325
11
177.425
21
-113.475
0
LINE
8
BLACK
6
CONTINUOUS
10
177.425
20
-113.475
11
177.41
21
-113.561
0
LINE
8
BLACK
6
CONTINUOUS
10
177.41
20
-113.561
11
177.367
21
-113.636
0
LINE
8
BLACK
6
CONTINUOUS
10
177.367
20
-113.636
11
177.3
21
-113.692
0
LINE
8
BLACK
6
CONTINUOUS
10
177.3
20
-113.692
11
177.175
21
-113.725
0
LINE
8
BLACK
6
CONTINUOUS
10
177.175
20
-113.725
11
176.425
21
-113.725
0
LINE
8
BLACK
6
CONTINUOUS
10
176.425
20
-113.725
11
176.339
21
-113.71
0
LINE
8
BLACK
6
CONTINUOUS
10
176.339
20
-113.71
11
176.264
21
-113.667
0
LINE
8
BLACK
6
CONTINUOUS
10
176.264
20
-113.667
11
176.208
21
-113.6
0
LINE
8
BLACK
6
CONTINUOUS
10
176.208
20
-113.6
11
176.175
21
-113.475
0
LINE
8
BLACK
6
CONTINUOUS
10
176.175
20
-113.475
11
176.175
21
-111.325
0
LINE
8
BLACK
6
CONTINUOUS
10
176.175
20
-111.325
11
176.19
21
-111.239
0
LINE
8
BLACK
6
CONTINUOUS
10
176.19
20
-111.239
11
176.233
21
-111.164
0
LINE
8
BLACK
6
CONTINUOUS
10
176.233
20
-111.164
11
176.3
21
-111.108
0
LINE
8
BLACK
6
CONTINUOUS
10
176.3
20
-111.108
11
176.425
21
-111.075
0
LINE
8
BLACK
6
CONTINUOUS
10
176.425
20
-111.075
11
177.175
21
-111.075
0
LINE
8
BLACK
6
CONTINUOUS
10
177.175
20
-111.075
11
177.261
21
-111.09
0
LINE
8
BLACK
6
CONTINUOUS
10
160.531
20
-112.863
11
160.597
21
-112.901
0
LINE
8
BLACK
6
CONTINUOUS
10
160.597
20
-112.901
11
160.646
21
-112.959
0
LINE
8
BLACK
6
CONTINUOUS
10
160.646
20
-112.959
11
160.675
21
-113.069
0
LINE
8
BLACK
6
CONTINUOUS
10
160.675
20
-113.069
11
160.675
21
-113.506
0
LINE
8
BLACK
6
CONTINUOUS
10
160.675
20
-113.506
11
160.662
21
-113.581
0
LINE
8
BLACK
6
CONTINUOUS
10
160.662
20
-113.581
11
160.624
21
-113.647
0
LINE
8
BLACK
6
CONTINUOUS
10
160.624
20
-113.647
11
160.566
21
-113.696
0
LINE
8
BLACK
6
CONTINUOUS
10
160.566
20
-113.696
11
160.456
21
-113.725
0
LINE
8
BLACK
6
CONTINUOUS
10
160.456
20
-113.725
11
159.944
21
-113.725
0
LINE
8
BLACK
6
CONTINUOUS
10
159.944
20
-113.725
11
159.869
21
-113.712
0
LINE
8
BLACK
6
CONTINUOUS
10
159.869
20
-113.712
11
159.803
21
-113.674
0
LINE
8
BLACK
6
CONTINUOUS
10
159.803
20
-113.674
11
159.754
21
-113.616
0
LINE
8
BLACK
6
CONTINUOUS
10
159.754
20
-113.616
11
159.725
21
-113.506
0
LINE
8
BLACK
6
CONTINUOUS
10
159.725
20
-113.506
11
159.725
21
-113.069
0
LINE
8
BLACK
6
CONTINUOUS
10
159.725
20
-113.069
11
159.738
21
-112.994
0
LINE
8
BLACK
6
CONTINUOUS
10
159.738
20
-112.994
11
159.776
21
-112.928
0
LINE
8
BLACK
6
CONTINUOUS
10
159.776
20
-112.928
11
159.834
21
-112.879
0
LINE
8
BLACK
6
CONTINUOUS
10
159.834
20
-112.879
11
159.944
21
-112.85
0
LINE
8
BLACK
6
CONTINUOUS
10
159.944
20
-112.85
11
160.456
21
-112.85
0
LINE
8
BLACK
6
CONTINUOUS
10
160.456
20
-112.85
11
160.531
21
-112.863
0
LINE
8
BLACK
6
CONTINUOUS
10
179.05
20
-113.55
11
178.15
21
-113.55
0
LINE
8
BLACK
6
CONTINUOUS
10
178.15
20
-113.55
11
178.15
21
-112.75
0
LINE
8
BLACK
6
CONTINUOUS
10
178.15
20
-112.75
11
179.05
21
-112.75
0
LINE
8
BLACK
6
CONTINUOUS
10
179.05
20
-112.75
11
179.05
21
-113.55
0
LINE
8
BLACK
6
CONTINUOUS
10
181.05
20
-112.6
11
180.15
21
-112.6
0
LINE
8
BLACK
6
CONTINUOUS
10
180.15
20
-112.6
11
180.15
21
-111.8
0
LINE
8
BLACK
6
CONTINUOUS
10
180.15
20
-111.8
11
181.05
21
-111.8
0
LINE
8
BLACK
6
CONTINUOUS
10
181.05
20
-111.8
11
181.05
21
-112.6
0
LINE
8
BLACK
6
CONTINUOUS
10
166.4
20
-112.2
11
165.5
21
-112.2
0
LINE
8
BLACK
6
CONTINUOUS
10
165.5
20
-112.2
11
165.5
21
-111.2
0
LINE
8
BLACK
6
CONTINUOUS
10
165.5
20
-111.2
11
166.4
21
-111.2
0
LINE
8
BLACK
6
CONTINUOUS
10
166.4
20
-111.2
11
166.4
21
-112.2
0
LINE
8
BLACK
6
CONTINUOUS
10
162.3
20
-112.2
11
161.4
21
-112.2
0
LINE
8
BLACK
6
CONTINUOUS
10
161.4
20
-112.2
11
161.4
21
-111.2
0
LINE
8
BLACK
6
CONTINUOUS
10
161.4
20
-111.2
11
162.3
21
-111.2
0
LINE
8
BLACK
6
CONTINUOUS
10
162.3
20
-111.2
11
162.3
21
-112.2
0
LINE
8
BLACK
6
CONTINUOUS
10
160.531
20
-111.288
11
160.597
21
-111.326
0
LINE
8
BLACK
6
CONTINUOUS
10
160.597
20
-111.326
11
160.646
21
-111.384
0
LINE
8
BLACK
6
CONTINUOUS
10
160.646
20
-111.384
11
160.675
21
-111.494
0
LINE
8
BLACK
6
CONTINUOUS
10
160.675
20
-111.494
11
160.675
21
-111.931
0
LINE
8
BLACK
6
CONTINUOUS
10
160.675
20
-111.931
11
160.662
21
-112.006
0
LINE
8
BLACK
6
CONTINUOUS
10
160.662
20
-112.006
11
160.624
21
-112.072
0
LINE
8
BLACK
6
CONTINUOUS
10
160.624
20
-112.072
11
160.566
21
-112.121
0
LINE
8
BLACK
6
CONTINUOUS
10
160.566
20
-112.121
11
160.456
21
-112.15
0
LINE
8
BLACK
6
CONTINUOUS
10
160.456
20
-112.15
11
159.944
21
-112.15
0
LINE
8
BLACK
6
CONTINUOUS
10
159.944
20
-112.15
11
159.869
21
-112.137
0
LINE
8
BLACK
6
CONTINUOUS
10
159.869
20
-112.137
11
159.803
21
-112.099
0
LINE
8
BLACK
6
CONTINUOUS
10
159.803
20
-112.099
11
159.754
21
-112.041
0
LINE
8
BLACK
6
CONTINUOUS
10
159.754
20
-112.041
11
159.725
21
-111.931
0
LINE
8
BLACK
6
CONTINUOUS
10
159.725
20
-111.931
11
159.725
21
-111.494
0
LINE
8
BLACK
6
CONTINUOUS
10
159.725
20
-111.494
11
159.738
21
-111.419
0
LINE
8
BLACK
6
CONTINUOUS
10
159.738
20
-111.419
11
159.776
21
-111.353
0
LINE
8
BLACK
6
CONTINUOUS
10
159.776
20
-111.353
11
159.834
21
-111.304
0
LINE
8
BLACK
6
CONTINUOUS
10
159.834
20
-111.304
11
159.944
21
-111.275
0
LINE
8
BLACK
6
CONTINUOUS
10
159.944
20
-111.275
11
160.456
21
-111.275
0
LINE
8
BLACK
6
CONTINUOUS
10
160.456
20
-111.275
11
160.531
21
-111.288
0
LINE
8
BLACK
6
CONTINUOUS
10
182.531
20
-111.163
11
182.597
21
-111.201
0
LINE
8
BLACK
6
CONTINUOUS
10
182.597
20
-111.201
11
182.646
21
-111.259
0
LINE
8
BLACK
6
CONTINUOUS
10
182.646
20
-111.259
11
182.675
21
-111.369
0
LINE
8
BLACK
6
CONTINUOUS
10
182.675
20
-111.369
11
182.675
21
-111.806
0
LINE
8
BLACK
6
CONTINUOUS
10
182.675
20
-111.806
11
182.662
21
-111.881
0
LINE
8
BLACK
6
CONTINUOUS
10
182.662
20
-111.881
11
182.624
21
-111.947
0
LINE
8
BLACK
6
CONTINUOUS
10
182.624
20
-111.947
11
182.566
21
-111.996
0
LINE
8
BLACK
6
CONTINUOUS
10
182.566
20
-111.996
11
182.456
21
-112.025
0
LINE
8
BLACK
6
CONTINUOUS
10
182.456
20
-112.025
11
181.944
21
-112.025
0
LINE
8
BLACK
6
CONTINUOUS
10
181.944
20
-112.025
11
181.869
21
-112.012
0
LINE
8
BLACK
6
CONTINUOUS
10
181.869
20
-112.012
11
181.803
21
-111.974
0
LINE
8
BLACK
6
CONTINUOUS
10
181.803
20
-111.974
11
181.754
21
-111.916
0
LINE
8
BLACK
6
CONTINUOUS
10
181.754
20
-111.916
11
181.725
21
-111.806
0
LINE
8
BLACK
6
CONTINUOUS
10
181.725
20
-111.806
11
181.725
21
-111.369
0
LINE
8
BLACK
6
CONTINUOUS
10
181.725
20
-111.369
11
181.738
21
-111.294
0
LINE
8
BLACK
6
CONTINUOUS
10
181.738
20
-111.294
11
181.776
21
-111.228
0
LINE
8
BLACK
6
CONTINUOUS
10
181.776
20
-111.228
11
181.834
21
-111.179
0
LINE
8
BLACK
6
CONTINUOUS
10
181.834
20
-111.179
11
181.944
21
-111.15
0
LINE
8
BLACK
6
CONTINUOUS
10
181.944
20
-111.15
11
182.456
21
-111.15
0
LINE
8
BLACK
6
CONTINUOUS
10
182.456
20
-111.15
11
182.531
21
-111.163
0
LINE
8
BLACK
6
CONTINUOUS
10
189.7
20
-112
11
186.65
21
-112
0
LINE
8
BLACK
6
CONTINUOUS
10
186.65
20
-112
11
186.65
21
-109.25
0
LINE
8
BLACK
6
CONTINUOUS
10
186.65
20
-109.25
11
189.7
21
-109.25
0
LINE
8
BLACK
6
CONTINUOUS
10
189.7
20
-109.25
11
189.7
21
-112
0
LINE
8
BLACK
6
CONTINUOUS
10
186.35
20
-112
11
183.3
21
-112
0
LINE
8
BLACK
6
CONTINUOUS
10
183.3
20
-112
11
183.3
21
-109.25
0
LINE
8
BLACK
6
CONTINUOUS
10
183.3
20
-109.25
11
186.35
21
-109.25
0
LINE
8
BLACK
6
CONTINUOUS
10
186.35
20
-109.25
11
186.35
21
-112
0
LINE
8
BLACK
6
CONTINUOUS
10
193.9
20
-111.98
11
191.7
21
-111.98
0
LINE
8
BLACK
6
CONTINUOUS
10
191.7
20
-111.98
11
191.7
21
-110.78
0
LINE
8
BLACK
6
CONTINUOUS
10
191.7
20
-110.78
11
193.9
21
-110.78
0
LINE
8
BLACK
6
CONTINUOUS
10
193.9
20
-110.78
11
193.9
21
-111.98
0
LINE
8
BLACK
6
CONTINUOUS
10
179.05
20
-111.65
11
178.15
21
-111.65
0
LINE
8
BLACK
6
CONTINUOUS
10
178.15
20
-111.65
11
178.15
21
-110.85
0
LINE
8
BLACK
6
CONTINUOUS
10
178.15
20
-110.85
11
179.05
21
-110.85
0
LINE
8
BLACK
6
CONTINUOUS
10
179.05
20
-110.85
11
179.05
21
-111.65
0
LINE
8
BLACK
6
CONTINUOUS
10
164.75
20
-111.35
11
163.05
21
-111.35
0
LINE
8
BLACK
6
CONTINUOUS
10
163.05
20
-111.35
11
163.05
21
-110.8
0
LINE
8
BLACK
6
CONTINUOUS
10
163.05
20
-110.8
11
164.75
21
-110.8
0
LINE
8
BLACK
6
CONTINUOUS
10
164.75
20
-110.8
11
164.75
21
-111.35
0
LINE
8
BLACK
6
CONTINUOUS
10
182.531
20
-109.588
11
182.597
21
-109.626
0
LINE
8
BLACK
6
CONTINUOUS
10
182.597
20
-109.626
11
182.646
21
-109.684
0
LINE
8
BLACK
6
CONTINUOUS
10
182.646
20
-109.684
11
182.675
21
-109.794
0
LINE
8
BLACK
6
CONTINUOUS
10
182.675
20
-109.794
11
182.675
21
-110.231
0
LINE
8
BLACK
6
CONTINUOUS
10
182.675
20
-110.231
11
182.662
21
-110.306
0
LINE
8
BLACK
6
CONTINUOUS
10
182.662
20
-110.306
11
182.624
21
-110.372
0
LINE
8
BLACK
6
CONTINUOUS
10
182.624
20
-110.372
11
182.566
21
-110.421
0
LINE
8
BLACK
6
CONTINUOUS
10
182.566
20
-110.421
11
182.456
21
-110.45
0
LINE
8
BLACK
6
CONTINUOUS
10
182.456
20
-110.45
11
181.944
21
-110.45
0
LINE
8
BLACK
6
CONTINUOUS
10
181.944
20
-110.45
11
181.869
21
-110.437
0
LINE
8
BLACK
6
CONTINUOUS
10
181.869
20
-110.437
11
181.803
21
-110.399
0
LINE
8
BLACK
6
CONTINUOUS
10
181.803
20
-110.399
11
181.754
21
-110.341
0
LINE
8
BLACK
6
CONTINUOUS
10
181.754
20
-110.341
11
181.725
21
-110.231
0
LINE
8
BLACK
6
CONTINUOUS
10
181.725
20
-110.231
11
181.725
21
-109.794
0
LINE
8
BLACK
6
CONTINUOUS
10
181.725
20
-109.794
11
181.738
21
-109.719
0
LINE
8
BLACK
6
CONTINUOUS
10
181.738
20
-109.719
11
181.776
21
-109.653
0
LINE
8
BLACK
6
CONTINUOUS
10
181.776
20
-109.653
11
181.834
21
-109.604
0
LINE
8
BLACK
6
CONTINUOUS
10
181.834
20
-109.604
11
181.944
21
-109.575
0
LINE
8
BLACK
6
CONTINUOUS
10
181.944
20
-109.575
11
182.456
21
-109.575
0
LINE
8
BLACK
6
CONTINUOUS
10
182.456
20
-109.575
11
182.531
21
-109.588
0
LINE
8
BLACK
6
CONTINUOUS
10
170.131
20
-109.563
11
170.197
21
-109.601
0
LINE
8
BLACK
6
CONTINUOUS
10
170.197
20
-109.601
11
170.246
21
-109.659
0
LINE
8
BLACK
6
CONTINUOUS
10
170.246
20
-109.659
11
170.275
21
-109.769
0
LINE
8
BLACK
6
CONTINUOUS
10
170.275
20
-109.769
11
170.275
21
-110.206
0
LINE
8
BLACK
6
CONTINUOUS
10
170.275
20
-110.206
11
170.262
21
-110.281
0
LINE
8
BLACK
6
CONTINUOUS
10
170.262
20
-110.281
11
170.224
21
-110.347
0
LINE
8
BLACK
6
CONTINUOUS
10
170.224
20
-110.347
11
170.166
21
-110.396
0
LINE
8
BLACK
6
CONTINUOUS
10
170.166
20
-110.396
11
170.056
21
-110.425
0
LINE
8
BLACK
6
CONTINUOUS
10
170.056
20
-110.425
11
169.544
21
-110.425
0
LINE
8
BLACK
6
CONTINUOUS
10
169.544
20
-110.425
11
169.469
21
-110.412
0
LINE
8
BLACK
6
CONTINUOUS
10
169.469
20
-110.412
11
169.403
21
-110.374
0
LINE
8
BLACK
6
CONTINUOUS
10
169.403
20
-110.374
11
169.354
21
-110.316
0
LINE
8
BLACK
6
CONTINUOUS
10
169.354
20
-110.316
11
169.325
21
-110.206
0
LINE
8
BLACK
6
CONTINUOUS
10
169.325
20
-110.206
11
169.325
21
-109.769
0
LINE
8
BLACK
6
CONTINUOUS
10
169.325
20
-109.769
11
169.338
21
-109.694
0
LINE
8
BLACK
6
CONTINUOUS
10
169.338
20
-109.694
11
169.376
21
-109.628
0
LINE
8
BLACK
6
CONTINUOUS
10
169.376
20
-109.628
11
169.434
21
-109.579
0
LINE
8
BLACK
6
CONTINUOUS
10
169.434
20
-109.579
11
169.544
21
-109.55
0
LINE
8
BLACK
6
CONTINUOUS
10
169.544
20
-109.55
11
170.056
21
-109.55
0
LINE
8
BLACK
6
CONTINUOUS
10
170.056
20
-109.55
11
170.131
21
-109.563
0
LINE
8
BLACK
6
CONTINUOUS
10
175.2
20
-110.38
11
173.6
21
-110.38
0
LINE
8
BLACK
6
CONTINUOUS
10
173.6
20
-110.38
11
173.6
21
-108.78
0
LINE
8
BLACK
6
CONTINUOUS
10
173.6
20
-108.78
11
175.2
21
-108.78
0
LINE
8
BLACK
6
CONTINUOUS
10
175.2
20
-108.78
11
175.2
21
-110.38
0
LINE
8
BLACK
6
CONTINUOUS
10
172.66
20
-110.38
11
171.06
21
-110.38
0
LINE
8
BLACK
6
CONTINUOUS
10
171.06
20
-110.38
11
171.06
21
-108.78
0
LINE
8
BLACK
6
CONTINUOUS
10
171.06
20
-108.78
11
172.66
21
-108.78
0
LINE
8
BLACK
6
CONTINUOUS
10
172.66
20
-108.78
11
172.66
21
-110.38
0
LINE
8
BLACK
6
CONTINUOUS
10
177.74
20
-110.38
11
176.14
21
-110.38
0
LINE
8
BLACK
6
CONTINUOUS
10
176.14
20
-110.38
11
176.14
21
-108.78
0
LINE
8
BLACK
6
CONTINUOUS
10
176.14
20
-108.78
11
177.74
21
-108.78
0
LINE
8
BLACK
6
CONTINUOUS
10
177.74
20
-108.78
11
177.74
21
-110.38
0
LINE
8
BLACK
6
CONTINUOUS
10
180.881
20
-109.138
11
180.947
21
-109.176
0
LINE
8
BLACK
6
CONTINUOUS
10
180.947
20
-109.176
11
180.996
21
-109.234
0
LINE
8
BLACK
6
CONTINUOUS
10
180.996
20
-109.234
11
181.025
21
-109.344
0
LINE
8
BLACK
6
CONTINUOUS
10
181.025
20
-109.344
11
181.025
21
-109.856
0
LINE
8
BLACK
6
CONTINUOUS
10
181.025
20
-109.856
11
181.012
21
-109.931
0
LINE
8
BLACK
6
CONTINUOUS
10
181.012
20
-109.931
11
180.974
21
-109.997
0
LINE
8
BLACK
6
CONTINUOUS
10
180.974
20
-109.997
11
180.916
21
-110.046
0
LINE
8
BLACK
6
CONTINUOUS
10
180.916
20
-110.046
11
180.806
21
-110.075
0
LINE
8
BLACK
6
CONTINUOUS
10
180.806
20
-110.075
11
180.369
21
-110.075
0
LINE
8
BLACK
6
CONTINUOUS
10
180.369
20
-110.075
11
180.294
21
-110.062
0
LINE
8
BLACK
6
CONTINUOUS
10
180.294
20
-110.062
11
180.228
21
-110.024
0
LINE
8
BLACK
6
CONTINUOUS
10
180.228
20
-110.024
11
180.179
21
-109.966
0
LINE
8
BLACK
6
CONTINUOUS
10
180.179
20
-109.966
11
180.15
21
-109.856
0
LINE
8
BLACK
6
CONTINUOUS
10
180.15
20
-109.856
11
180.15
21
-109.344
0
LINE
8
BLACK
6
CONTINUOUS
10
180.15
20
-109.344
11
180.163
21
-109.269
0
LINE
8
BLACK
6
CONTINUOUS
10
180.163
20
-109.269
11
180.201
21
-109.203
0
LINE
8
BLACK
6
CONTINUOUS
10
180.201
20
-109.203
11
180.259
21
-109.154
0
LINE
8
BLACK
6
CONTINUOUS
10
180.259
20
-109.154
11
180.369
21
-109.125
0
LINE
8
BLACK
6
CONTINUOUS
10
180.369
20
-109.125
11
180.806
21
-109.125
0
LINE
8
BLACK
6
CONTINUOUS
10
180.806
20
-109.125
11
180.881
21
-109.138
0
LINE
8
BLACK
6
CONTINUOUS
10
179.306
20
-109.138
11
179.372
21
-109.176
0
LINE
8
BLACK
6
CONTINUOUS
10
179.372
20
-109.176
11
179.421
21
-109.234
0
LINE
8
BLACK
6
CONTINUOUS
10
179.421
20
-109.234
11
179.45
21
-109.344
0
LINE
8
BLACK
6
CONTINUOUS
10
179.45
20
-109.344
11
179.45
21
-109.856
0
LINE
8
BLACK
6
CONTINUOUS
10
179.45
20
-109.856
11
179.437
21
-109.931
0
LINE
8
BLACK
6
CONTINUOUS
10
179.437
20
-109.931
11
179.399
21
-109.997
0
LINE
8
BLACK
6
CONTINUOUS
10
179.399
20
-109.997
11
179.341
21
-110.046
0
LINE
8
BLACK
6
CONTINUOUS
10
179.341
20
-110.046
11
179.231
21
-110.075
0
LINE
8
BLACK
6
CONTINUOUS
10
179.231
20
-110.075
11
178.794
21
-110.075
0
LINE
8
BLACK
6
CONTINUOUS
10
178.794
20
-110.075
11
178.719
21
-110.062
0
LINE
8
BLACK
6
CONTINUOUS
10
178.719
20
-110.062
11
178.653
21
-110.024
0
LINE
8
BLACK
6
CONTINUOUS
10
178.653
20
-110.024
11
178.604
21
-109.966
0
LINE
8
BLACK
6
CONTINUOUS
10
178.604
20
-109.966
11
178.575
21
-109.856
0
LINE
8
BLACK
6
CONTINUOUS
10
178.575
20
-109.856
11
178.575
21
-109.344
0
LINE
8
BLACK
6
CONTINUOUS
10
178.575
20
-109.344
11
178.588
21
-109.269
0
LINE
8
BLACK
6
CONTINUOUS
10
178.588
20
-109.269
11
178.626
21
-109.203
0
LINE
8
BLACK
6
CONTINUOUS
10
178.626
20
-109.203
11
178.684
21
-109.154
0
LINE
8
BLACK
6
CONTINUOUS
10
178.684
20
-109.154
11
178.794
21
-109.125
0
LINE
8
BLACK
6
CONTINUOUS
10
178.794
20
-109.125
11
179.231
21
-109.125
0
LINE
8
BLACK
6
CONTINUOUS
10
179.231
20
-109.125
11
179.306
21
-109.138
0
LINE
8
BLACK
6
CONTINUOUS
10
158.94
20
-109.92
11
157.34
21
-109.92
0
LINE
8
BLACK
6
CONTINUOUS
10
157.34
20
-109.92
11
157.34
21
-108.32
0
LINE
8
BLACK
6
CONTINUOUS
10
157.34
20
-108.32
11
158.94
21
-108.32
0
LINE
8
BLACK
6
CONTINUOUS
10
158.94
20
-108.32
11
158.94
21
-109.92
0
LINE
8
BLACK
6
CONTINUOUS
10
156.4
20
-109.92
11
154.8
21
-109.92
0
LINE
8
BLACK
6
CONTINUOUS
10
154.8
20
-109.92
11
154.8
21
-108.32
0
LINE
8
BLACK
6
CONTINUOUS
10
154.8
20
-108.32
11
156.4
21
-108.32
0
LINE
8
BLACK
6
CONTINUOUS
10
156.4
20
-108.32
11
156.4
21
-109.92
0
LINE
8
BLACK
6
CONTINUOUS
10
153.86
20
-109.92
11
152.26
21
-109.92
0
LINE
8
BLACK
6
CONTINUOUS
10
152.26
20
-109.92
11
152.26
21
-108.32
0
LINE
8
BLACK
6
CONTINUOUS
10
152.26
20
-108.32
11
153.86
21
-108.32
0
LINE
8
BLACK
6
CONTINUOUS
10
153.86
20
-108.32
11
153.86
21
-109.92
0
LINE
8
BLACK
6
CONTINUOUS
10
151.331
20
-108.763
11
151.397
21
-108.801
0
LINE
8
BLACK
6
CONTINUOUS
10
151.397
20
-108.801
11
151.446
21
-108.859
0
LINE
8
BLACK
6
CONTINUOUS
10
151.446
20
-108.859
11
151.475
21
-108.969
0
LINE
8
BLACK
6
CONTINUOUS
10
151.475
20
-108.969
11
151.475
21
-109.406
0
LINE
8
BLACK
6
CONTINUOUS
10
151.475
20
-109.406
11
151.462
21
-109.481
0
LINE
8
BLACK
6
CONTINUOUS
10
151.462
20
-109.481
11
151.424
21
-109.547
0
LINE
8
BLACK
6
CONTINUOUS
10
151.424
20
-109.547
11
151.366
21
-109.596
0
LINE
8
BLACK
6
CONTINUOUS
10
151.366
20
-109.596
11
151.256
21
-109.625
0
LINE
8
BLACK
6
CONTINUOUS
10
151.256
20
-109.625
11
150.744
21
-109.625
0
LINE
8
BLACK
6
CONTINUOUS
10
150.744
20
-109.625
11
150.669
21
-109.612
0
LINE
8
BLACK
6
CONTINUOUS
10
150.669
20
-109.612
11
150.603
21
-109.574
0
LINE
8
BLACK
6
CONTINUOUS
10
150.603
20
-109.574
11
150.554
21
-109.516
0
LINE
8
BLACK
6
CONTINUOUS
10
150.554
20
-109.516
11
150.525
21
-109.406
0
LINE
8
BLACK
6
CONTINUOUS
10
150.525
20
-109.406
11
150.525
21
-108.969
0
LINE
8
BLACK
6
CONTINUOUS
10
150.525
20
-108.969
11
150.538
21
-108.894
0
LINE
8
BLACK
6
CONTINUOUS
10
150.538
20
-108.894
11
150.576
21
-108.828
0
LINE
8
BLACK
6
CONTINUOUS
10
150.576
20
-108.828
11
150.634
21
-108.779
0
LINE
8
BLACK
6
CONTINUOUS
10
150.634
20
-108.779
11
150.744
21
-108.75
0
LINE
8
BLACK
6
CONTINUOUS
10
150.744
20
-108.75
11
151.256
21
-108.75
0
LINE
8
BLACK
6
CONTINUOUS
10
151.256
20
-108.75
11
151.331
21
-108.763
0
LINE
8
BLACK
6
CONTINUOUS
10
193.781
20
-108.238
11
193.847
21
-108.276
0
LINE
8
BLACK
6
CONTINUOUS
10
193.847
20
-108.276
11
193.896
21
-108.334
0
LINE
8
BLACK
6
CONTINUOUS
10
193.896
20
-108.334
11
193.925
21
-108.444
0
LINE
8
BLACK
6
CONTINUOUS
10
193.925
20
-108.444
11
193.925
21
-108.956
0
LINE
8
BLACK
6
CONTINUOUS
10
193.925
20
-108.956
11
193.912
21
-109.031
0
LINE
8
BLACK
6
CONTINUOUS
10
193.912
20
-109.031
11
193.874
21
-109.097
0
LINE
8
BLACK
6
CONTINUOUS
10
193.874
20
-109.097
11
193.816
21
-109.146
0
LINE
8
BLACK
6
CONTINUOUS
10
193.816
20
-109.146
11
193.706
21
-109.175
0
LINE
8
BLACK
6
CONTINUOUS
10
193.706
20
-109.175
11
193.269
21
-109.175
0
LINE
8
BLACK
6
CONTINUOUS
10
193.269
20
-109.175
11
193.194
21
-109.162
0
LINE
8
BLACK
6
CONTINUOUS
10
193.194
20
-109.162
11
193.128
21
-109.124
0
LINE
8
BLACK
6
CONTINUOUS
10
193.128
20
-109.124
11
193.079
21
-109.066
0
LINE
8
BLACK
6
CONTINUOUS
10
193.079
20
-109.066
11
193.05
21
-108.956
0
LINE
8
BLACK
6
CONTINUOUS
10
193.05
20
-108.956
11
193.05
21
-108.444
0
LINE
8
BLACK
6
CONTINUOUS
10
193.05
20
-108.444
11
193.063
21
-108.369
0
LINE
8
BLACK
6
CONTINUOUS
10
193.063
20
-108.369
11
193.101
21
-108.303
0
LINE
8
BLACK
6
CONTINUOUS
10
193.101
20
-108.303
11
193.159
21
-108.254
0
LINE
8
BLACK
6
CONTINUOUS
10
193.159
20
-108.254
11
193.269
21
-108.225
0
LINE
8
BLACK
6
CONTINUOUS
10
193.269
20
-108.225
11
193.706
21
-108.225
0
LINE
8
BLACK
6
CONTINUOUS
10
193.706
20
-108.225
11
193.781
21
-108.238
0
LINE
8
BLACK
6
CONTINUOUS
10
192.206
20
-108.238
11
192.272
21
-108.276
0
LINE
8
BLACK
6
CONTINUOUS
10
192.272
20
-108.276
11
192.321
21
-108.334
0
LINE
8
BLACK
6
CONTINUOUS
10
192.321
20
-108.334
11
192.35
21
-108.444
0
LINE
8
BLACK
6
CONTINUOUS
10
192.35
20
-108.444
11
192.35
21
-108.956
0
LINE
8
BLACK
6
CONTINUOUS
10
192.35
20
-108.956
11
192.337
21
-109.031
0
LINE
8
BLACK
6
CONTINUOUS
10
192.337
20
-109.031
11
192.299
21
-109.097
0
LINE
8
BLACK
6
CONTINUOUS
10
192.299
20
-109.097
11
192.241
21
-109.146
0
LINE
8
BLACK
6
CONTINUOUS
10
192.241
20
-109.146
11
192.131
21
-109.175
0
LINE
8
BLACK
6
CONTINUOUS
10
192.131
20
-109.175
11
191.694
21
-109.175
0
LINE
8
BLACK
6
CONTINUOUS
10
191.694
20
-109.175
11
191.619
21
-109.162
0
LINE
8
BLACK
6
CONTINUOUS
10
191.619
20
-109.162
11
191.553
21
-109.124
0
LINE
8
BLACK
6
CONTINUOUS
10
191.553
20
-109.124
11
191.504
21
-109.066
0
LINE
8
BLACK
6
CONTINUOUS
10
191.504
20
-109.066
11
191.475
21
-108.956
0
LINE
8
BLACK
6
CONTINUOUS
10
191.475
20
-108.956
11
191.475
21
-108.444
0
LINE
8
BLACK
6
CONTINUOUS
10
191.475
20
-108.444
11
191.488
21
-108.369
0
LINE
8
BLACK
6
CONTINUOUS
10
191.488
20
-108.369
11
191.526
21
-108.303
0
LINE
8
BLACK
6
CONTINUOUS
10
191.526
20
-108.303
11
191.584
21
-108.254
0
LINE
8
BLACK
6
CONTINUOUS
10
191.584
20
-108.254
11
191.694
21
-108.225
0
LINE
8
BLACK
6
CONTINUOUS
10
191.694
20
-108.225
11
192.131
21
-108.225
0
LINE
8
BLACK
6
CONTINUOUS
10
192.131
20
-108.225
11
192.206
21
-108.238
0
LINE
8
BLACK
6
CONTINUOUS
10
189.7
20
-108.95
11
186.65
21
-108.95
0
LINE
8
BLACK
6
CONTINUOUS
10
186.65
20
-108.95
11
186.65
21
-106.2
0
LINE
8
BLACK
6
CONTINUOUS
10
186.65
20
-106.2
11
189.7
21
-106.2
0
LINE
8
BLACK
6
CONTINUOUS
10
189.7
20
-106.2
11
189.7
21
-108.95
0
LINE
8
BLACK
6
CONTINUOUS
10
186.35
20
-108.95
11
183.3
21
-108.95
0
LINE
8
BLACK
6
CONTINUOUS
10
183.3
20
-108.95
11
183.3
21
-106.2
0
LINE
8
BLACK
6
CONTINUOUS
10
183.3
20
-106.2
11
186.35
21
-106.2
0
LINE
8
BLACK
6
CONTINUOUS
10
186.35
20
-106.2
11
186.35
21
-108.95
0
LINE
8
BLACK
6
CONTINUOUS
10
170.131
20
-107.988
11
170.197
21
-108.026
0
LINE
8
BLACK
6
CONTINUOUS
10
170.197
20
-108.026
11
170.246
21
-108.084
0
LINE
8
BLACK
6
CONTINUOUS
10
170.246
20
-108.084
11
170.275
21
-108.194
0
LINE
8
BLACK
6
CONTINUOUS
10
170.275
20
-108.194
11
170.275
21
-108.631
0
LINE
8
BLACK
6
CONTINUOUS
10
170.275
20
-108.631
11
170.262
21
-108.706
0
LINE
8
BLACK
6
CONTINUOUS
10
170.262
20
-108.706
11
170.224
21
-108.772
0
LINE
8
BLACK
6
CONTINUOUS
10
170.224
20
-108.772
11
170.166
21
-108.821
0
LINE
8
BLACK
6
CONTINUOUS
10
170.166
20
-108.821
11
170.056
21
-108.85
0
LINE
8
BLACK
6
CONTINUOUS
10
170.056
20
-108.85
11
169.544
21
-108.85
0
LINE
8
BLACK
6
CONTINUOUS
10
169.544
20
-108.85
11
169.469
21
-108.837
0
LINE
8
BLACK
6
CONTINUOUS
10
169.469
20
-108.837
11
169.403
21
-108.799
0
LINE
8
BLACK
6
CONTINUOUS
10
169.403
20
-108.799
11
169.354
21
-108.741
0
LINE
8
BLACK
6
CONTINUOUS
10
169.354
20
-108.741
11
169.325
21
-108.631
0
LINE
8
BLACK
6
CONTINUOUS
10
169.325
20
-108.631
11
169.325
21
-108.194
0
LINE
8
BLACK
6
CONTINUOUS
10
169.325
20
-108.194
11
169.338
21
-108.119
0
LINE
8
BLACK
6
CONTINUOUS
10
169.338
20
-108.119
11
169.376
21
-108.053
0
LINE
8
BLACK
6
CONTINUOUS
10
169.376
20
-108.053
11
169.434
21
-108.004
0
LINE
8
BLACK
6
CONTINUOUS
10
169.434
20
-108.004
11
169.544
21
-107.975
0
LINE
8
BLACK
6
CONTINUOUS
10
169.544
20
-107.975
11
170.056
21
-107.975
0
LINE
8
BLACK
6
CONTINUOUS
10
170.056
20
-107.975
11
170.131
21
-107.988
0
LINE
8
BLACK
6
CONTINUOUS
10
179.306
20
-107.538
11
179.372
21
-107.576
0
LINE
8
BLACK
6
CONTINUOUS
10
179.372
20
-107.576
11
179.421
21
-107.634
0
LINE
8
BLACK
6
CONTINUOUS
10
179.421
20
-107.634
11
179.45
21
-107.744
0
LINE
8
BLACK
6
CONTINUOUS
10
179.45
20
-107.744
11
179.45
21
-108.256
0
LINE
8
BLACK
6
CONTINUOUS
10
179.45
20
-108.256
11
179.437
21
-108.331
0
LINE
8
BLACK
6
CONTINUOUS
10
179.437
20
-108.331
11
179.399
21
-108.397
0
LINE
8
BLACK
6
CONTINUOUS
10
179.399
20
-108.397
11
179.341
21
-108.446
0
LINE
8
BLACK
6
CONTINUOUS
10
179.341
20
-108.446
11
179.231
21
-108.475
0
LINE
8
BLACK
6
CONTINUOUS
10
179.231
20
-108.475
11
178.794
21
-108.475
0
LINE
8
BLACK
6
CONTINUOUS
10
178.794
20
-108.475
11
178.719
21
-108.462
0
LINE
8
BLACK
6
CONTINUOUS
10
178.719
20
-108.462
11
178.653
21
-108.424
0
LINE
8
BLACK
6
CONTINUOUS
10
178.653
20
-108.424
11
178.604
21
-108.366
0
LINE
8
BLACK
6
CONTINUOUS
10
178.604
20
-108.366
11
178.575
21
-108.256
0
LINE
8
BLACK
6
CONTINUOUS
10
178.575
20
-108.256
11
178.575
21
-107.744
0
LINE
8
BLACK
6
CONTINUOUS
10
178.575
20
-107.744
11
178.588
21
-107.669
0
LINE
8
BLACK
6
CONTINUOUS
10
178.588
20
-107.669
11
178.626
21
-107.603
0
LINE
8
BLACK
6
CONTINUOUS
10
178.626
20
-107.603
11
178.684
21
-107.554
0
LINE
8
BLACK
6
CONTINUOUS
10
178.684
20
-107.554
11
178.794
21
-107.525
0
LINE
8
BLACK
6
CONTINUOUS
10
178.794
20
-107.525
11
179.231
21
-107.525
0
LINE
8
BLACK
6
CONTINUOUS
10
179.231
20
-107.525
11
179.306
21
-107.538
0
LINE
8
BLACK
6
CONTINUOUS
10
180.881
20
-107.538
11
180.947
21
-107.576
0
LINE
8
BLACK
6
CONTINUOUS
10
180.947
20
-107.576
11
180.996
21
-107.634
0
LINE
8
BLACK
6
CONTINUOUS
10
180.996
20
-107.634
11
181.025
21
-107.744
0
LINE
8
BLACK
6
CONTINUOUS
10
181.025
20
-107.744
11
181.025
21
-108.256
0
LINE
8
BLACK
6
CONTINUOUS
10
181.025
20
-108.256
11
181.012
21
-108.331
0
LINE
8
BLACK
6
CONTINUOUS
10
181.012
20
-108.331
11
180.974
21
-108.397
0
LINE
8
BLACK
6
CONTINUOUS
10
180.974
20
-108.397
11
180.916
21
-108.446
0
LINE
8
BLACK
6
CONTINUOUS
10
180.916
20
-108.446
11
180.806
21
-108.475
0
LINE
8
BLACK
6
CONTINUOUS
10
180.806
20
-108.475
11
180.369
21
-108.475
0
LINE
8
BLACK
6
CONTINUOUS
10
180.369
20
-108.475
11
180.294
21
-108.462
0
LINE
8
BLACK
6
CONTINUOUS
10
180.294
20
-108.462
11
180.228
21
-108.424
0
LINE
8
BLACK
6
CONTINUOUS
10
180.228
20
-108.424
11
180.179
21
-108.366
0
LINE
8
BLACK
6
CONTINUOUS
10
180.179
20
-108.366
11
180.15
21
-108.256
0
LINE
8
BLACK
6
CONTINUOUS
10
180.15
20
-108.256
11
180.15
21
-107.744
0
LINE
8
BLACK
6
CONTINUOUS
10
180.15
20
-107.744
11
180.163
21
-107.669
0
LINE
8
BLACK
6
CONTINUOUS
10
180.163
20
-107.669
11
180.201
21
-107.603
0
LINE
8
BLACK
6
CONTINUOUS
10
180.201
20
-107.603
11
180.259
21
-107.554
0
LINE
8
BLACK
6
CONTINUOUS
10
180.259
20
-107.554
11
180.369
21
-107.525
0
LINE
8
BLACK
6
CONTINUOUS
10
180.369
20
-107.525
11
180.806
21
-107.525
0
LINE
8
BLACK
6
CONTINUOUS
10
180.806
20
-107.525
11
180.881
21
-107.538
0
LINE
8
BLACK
6
CONTINUOUS
10
151.331
20
-107.188
11
151.397
21
-107.226
0
LINE
8
BLACK
6
CONTINUOUS
10
151.397
20
-107.226
11
151.446
21
-107.284
0
LINE
8
BLACK
6
CONTINUOUS
10
151.446
20
-107.284
11
151.475
21
-107.394
0
LINE
8
BLACK
6
CONTINUOUS
10
151.475
20
-107.394
11
151.475
21
-107.831
0
LINE
8
BLACK
6
CONTINUOUS
10
151.475
20
-107.831
11
151.462
21
-107.906
0
LINE
8
BLACK
6
CONTINUOUS
10
151.462
20
-107.906
11
151.424
21
-107.972
0
LINE
8
BLACK
6
CONTINUOUS
10
151.424
20
-107.972
11
151.366
21
-108.021
0
LINE
8
BLACK
6
CONTINUOUS
10
151.366
20
-108.021
11
151.256
21
-108.05
0
LINE
8
BLACK
6
CONTINUOUS
10
151.256
20
-108.05
11
150.744
21
-108.05
0
LINE
8
BLACK
6
CONTINUOUS
10
150.744
20
-108.05
11
150.669
21
-108.037
0
LINE
8
BLACK
6
CONTINUOUS
10
150.669
20
-108.037
11
150.603
21
-107.999
0
LINE
8
BLACK
6
CONTINUOUS
10
150.603
20
-107.999
11
150.554
21
-107.941
0
LINE
8
BLACK
6
CONTINUOUS
10
150.554
20
-107.941
11
150.525
21
-107.831
0
LINE
8
BLACK
6
CONTINUOUS
10
150.525
20
-107.831
11
150.525
21
-107.394
0
LINE
8
BLACK
6
CONTINUOUS
10
150.525
20
-107.394
11
150.538
21
-107.319
0
LINE
8
BLACK
6
CONTINUOUS
10
150.538
20
-107.319
11
150.576
21
-107.253
0
LINE
8
BLACK
6
CONTINUOUS
10
150.576
20
-107.253
11
150.634
21
-107.204
0
LINE
8
BLACK
6
CONTINUOUS
10
150.634
20
-107.204
11
150.744
21
-107.175
0
LINE
8
BLACK
6
CONTINUOUS
10
150.744
20
-107.175
11
151.256
21
-107.175
0
LINE
8
BLACK
6
CONTINUOUS
10
151.256
20
-107.175
11
151.331
21
-107.188
0
LINE
8
BLACK
6
CONTINUOUS
10
153.99
20
-107.53
11
153.09
21
-107.53
0
LINE
8
BLACK
6
CONTINUOUS
10
153.09
20
-107.53
11
153.09
21
-106.73
0
LINE
8
BLACK
6
CONTINUOUS
10
153.09
20
-106.73
11
153.99
21
-106.73
0
LINE
8
BLACK
6
CONTINUOUS
10
153.99
20
-106.73
11
153.99
21
-107.53
0
LINE
8
BLACK
6
CONTINUOUS
10
158.806
20
-106.538
11
158.872
21
-106.576
0
LINE
8
BLACK
6
CONTINUOUS
10
158.872
20
-106.576
11
158.921
21
-106.634
0
LINE
8
BLACK
6
CONTINUOUS
10
158.921
20
-106.634
11
158.95
21
-106.744
0
LINE
8
BLACK
6
CONTINUOUS
10
158.95
20
-106.744
11
158.95
21
-107.256
0
LINE
8
BLACK
6
CONTINUOUS
10
158.95
20
-107.256
11
158.937
21
-107.331
0
LINE
8
BLACK
6
CONTINUOUS
10
158.937
20
-107.331
11
158.899
21
-107.397
0
LINE
8
BLACK
6
CONTINUOUS
10
158.899
20
-107.397
11
158.841
21
-107.446
0
LINE
8
BLACK
6
CONTINUOUS
10
158.841
20
-107.446
11
158.731
21
-107.475
0
LINE
8
BLACK
6
CONTINUOUS
10
158.731
20
-107.475
11
158.294
21
-107.475
0
LINE
8
BLACK
6
CONTINUOUS
10
158.294
20
-107.475
11
158.219
21
-107.462
0
LINE
8
BLACK
6
CONTINUOUS
10
158.219
20
-107.462
11
158.153
21
-107.424
0
LINE
8
BLACK
6
CONTINUOUS
10
158.153
20
-107.424
11
158.104
21
-107.366
0
LINE
8
BLACK
6
CONTINUOUS
10
158.104
20
-107.366
11
158.075
21
-107.256
0
LINE
8
BLACK
6
CONTINUOUS
10
158.075
20
-107.256
11
158.075
21
-106.744
0
LINE
8
BLACK
6
CONTINUOUS
10
158.075
20
-106.744
11
158.088
21
-106.669
0
LINE
8
BLACK
6
CONTINUOUS
10
158.088
20
-106.669
11
158.126
21
-106.603
0
LINE
8
BLACK
6
CONTINUOUS
10
158.126
20
-106.603
11
158.184
21
-106.554
0
LINE
8
BLACK
6
CONTINUOUS
10
158.184
20
-106.554
11
158.294
21
-106.525
0
LINE
8
BLACK
6
CONTINUOUS
10
158.294
20
-106.525
11
158.731
21
-106.525
0
LINE
8
BLACK
6
CONTINUOUS
10
158.731
20
-106.525
11
158.806
21
-106.538
0
LINE
8
BLACK
6
CONTINUOUS
10
160.381
20
-106.538
11
160.447
21
-106.576
0
LINE
8
BLACK
6
CONTINUOUS
10
160.447
20
-106.576
11
160.496
21
-106.634
0
LINE
8
BLACK
6
CONTINUOUS
10
160.496
20
-106.634
11
160.525
21
-106.744
0
LINE
8
BLACK
6
CONTINUOUS
10
160.525
20
-106.744
11
160.525
21
-107.256
0
LINE
8
BLACK
6
CONTINUOUS
10
160.525
20
-107.256
11
160.512
21
-107.331
0
LINE
8
BLACK
6
CONTINUOUS
10
160.512
20
-107.331
11
160.474
21
-107.397
0
LINE
8
BLACK
6
CONTINUOUS
10
160.474
20
-107.397
11
160.416
21
-107.446
0
LINE
8
BLACK
6
CONTINUOUS
10
160.416
20
-107.446
11
160.306
21
-107.475
0
LINE
8
BLACK
6
CONTINUOUS
10
160.306
20
-107.475
11
159.869
21
-107.475
0
LINE
8
BLACK
6
CONTINUOUS
10
159.869
20
-107.475
11
159.794
21
-107.462
0
LINE
8
BLACK
6
CONTINUOUS
10
159.794
20
-107.462
11
159.728
21
-107.424
0
LINE
8
BLACK
6
CONTINUOUS
10
159.728
20
-107.424
11
159.679
21
-107.366
0
LINE
8
BLACK
6
CONTINUOUS
10
159.679
20
-107.366
11
159.65
21
-107.256
0
LINE
8
BLACK
6
CONTINUOUS
10
159.65
20
-107.256
11
159.65
21
-106.744
0
LINE
8
BLACK
6
CONTINUOUS
10
159.65
20
-106.744
11
159.663
21
-106.669
0
LINE
8
BLACK
6
CONTINUOUS
10
159.663
20
-106.669
11
159.701
21
-106.603
0
LINE
8
BLACK
6
CONTINUOUS
10
159.701
20
-106.603
11
159.759
21
-106.554
0
LINE
8
BLACK
6
CONTINUOUS
10
159.759
20
-106.554
11
159.869
21
-106.525
0
LINE
8
BLACK
6
CONTINUOUS
10
159.869
20
-106.525
11
160.306
21
-106.525
0
LINE
8
BLACK
6
CONTINUOUS
10
160.306
20
-106.525
11
160.381
21
-106.538
0
LINE
8
BLACK
6
CONTINUOUS
10
157.231
20
-106.563
11
157.297
21
-106.601
0
LINE
8
BLACK
6
CONTINUOUS
10
157.297
20
-106.601
11
157.346
21
-106.659
0
LINE
8
BLACK
6
CONTINUOUS
10
157.346
20
-106.659
11
157.375
21
-106.769
0
LINE
8
BLACK
6
CONTINUOUS
10
157.375
20
-106.769
11
157.375
21
-107.206
0
LINE
8
BLACK
6
CONTINUOUS
10
157.375
20
-107.206
11
157.362
21
-107.281
0
LINE
8
BLACK
6
CONTINUOUS
10
157.362
20
-107.281
11
157.324
21
-107.347
0
LINE
8
BLACK
6
CONTINUOUS
10
157.324
20
-107.347
11
157.266
21
-107.396
0
LINE
8
BLACK
6
CONTINUOUS
10
157.266
20
-107.396
11
157.156
21
-107.425
0
LINE
8
BLACK
6
CONTINUOUS
10
157.156
20
-107.425
11
156.644
21
-107.425
0
LINE
8
BLACK
6
CONTINUOUS
10
156.644
20
-107.425
11
156.569
21
-107.412
0
LINE
8
BLACK
6
CONTINUOUS
10
156.569
20
-107.412
11
156.503
21
-107.374
0
LINE
8
BLACK
6
CONTINUOUS
10
156.503
20
-107.374
11
156.454
21
-107.316
0
LINE
8
BLACK
6
CONTINUOUS
10
156.454
20
-107.316
11
156.425
21
-107.206
0
LINE
8
BLACK
6
CONTINUOUS
10
156.425
20
-107.206
11
156.425
21
-106.769
0
LINE
8
BLACK
6
CONTINUOUS
10
156.425
20
-106.769
11
156.438
21
-106.694
0
LINE
8
BLACK
6
CONTINUOUS
10
156.438
20
-106.694
11
156.476
21
-106.628
0
LINE
8
BLACK
6
CONTINUOUS
10
156.476
20
-106.628
11
156.534
21
-106.579
0
LINE
8
BLACK
6
CONTINUOUS
10
156.534
20
-106.579
11
156.644
21
-106.55
0
LINE
8
BLACK
6
CONTINUOUS
10
156.644
20
-106.55
11
157.156
21
-106.55
0
LINE
8
BLACK
6
CONTINUOUS
10
157.156
20
-106.55
11
157.231
21
-106.563
0
LINE
8
BLACK
6
CONTINUOUS
10
193.9
20
-107.42
11
191.7
21
-107.42
0
LINE
8
BLACK
6
CONTINUOUS
10
191.7
20
-107.42
11
191.7
21
-106.22
0
LINE
8
BLACK
6
CONTINUOUS
10
191.7
20
-106.22
11
193.9
21
-106.22
0
LINE
8
BLACK
6
CONTINUOUS
10
193.9
20
-106.22
11
193.9
21
-107.42
0
LINE
8
BLACK
6
CONTINUOUS
10
155.471
20
-106.543
11
155.537
21
-106.581
0
LINE
8
BLACK
6
CONTINUOUS
10
155.537
20
-106.581
11
155.586
21
-106.639
0
LINE
8
BLACK
6
CONTINUOUS
10
155.586
20
-106.639
11
155.615
21
-106.748
0
LINE
8
BLACK
6
CONTINUOUS
10
155.615
20
-106.748
11
155.615
21
-107.186
0
LINE
8
BLACK
6
CONTINUOUS
10
155.615
20
-107.186
11
155.602
21
-107.261
0
LINE
8
BLACK
6
CONTINUOUS
10
155.602
20
-107.261
11
155.564
21
-107.327
0
LINE
8
BLACK
6
CONTINUOUS
10
155.564
20
-107.327
11
155.506
21
-107.375
0
LINE
8
BLACK
6
CONTINUOUS
10
155.506
20
-107.375
11
155.396
21
-107.405
0
LINE
8
BLACK
6
CONTINUOUS
10
155.396
20
-107.405
11
154.884
21
-107.405
0
LINE
8
BLACK
6
CONTINUOUS
10
154.884
20
-107.405
11
154.809
21
-107.391
0
LINE
8
BLACK
6
CONTINUOUS
10
154.809
20
-107.391
11
154.743
21
-107.353
0
LINE
8
BLACK
6
CONTINUOUS
10
154.743
20
-107.353
11
154.694
21
-107.295
0
LINE
8
BLACK
6
CONTINUOUS
10
154.694
20
-107.295
11
154.665
21
-107.186
0
LINE
8
BLACK
6
CONTINUOUS
10
154.665
20
-107.186
11
154.665
21
-106.748
0
LINE
8
BLACK
6
CONTINUOUS
10
154.665
20
-106.748
11
154.678
21
-106.674
0
LINE
8
BLACK
6
CONTINUOUS
10
154.678
20
-106.674
11
154.716
21
-106.608
0
LINE
8
BLACK
6
CONTINUOUS
10
154.716
20
-106.608
11
154.775
21
-106.559
0
LINE
8
BLACK
6
CONTINUOUS
10
154.775
20
-106.559
11
154.884
21
-106.53
0
LINE
8
BLACK
6
CONTINUOUS
10
154.884
20
-106.53
11
155.396
21
-106.53
0
LINE
8
BLACK
6
CONTINUOUS
10
155.396
20
-106.53
11
155.471
21
-106.543
0
LINE
8
BLACK
6
CONTINUOUS
10
180.911
20
-104.84
11
180.986
21
-104.883
0
LINE
8
BLACK
6
CONTINUOUS
10
180.986
20
-104.883
11
181.042
21
-104.95
0
LINE
8
BLACK
6
CONTINUOUS
10
181.042
20
-104.95
11
181.075
21
-105.075
0
LINE
8
BLACK
6
CONTINUOUS
10
181.075
20
-105.075
11
181.075
21
-106.65
0
LINE
8
BLACK
6
CONTINUOUS
10
181.075
20
-106.65
11
181.06
21
-106.736
0
LINE
8
BLACK
6
CONTINUOUS
10
181.06
20
-106.736
11
181.017
21
-106.811
0
LINE
8
BLACK
6
CONTINUOUS
10
181.017
20
-106.811
11
180.95
21
-106.867
0
LINE
8
BLACK
6
CONTINUOUS
10
180.95
20
-106.867
11
180.825
21
-106.9
0
LINE
8
BLACK
6
CONTINUOUS
10
180.825
20
-106.9
11
178.975
21
-106.9
0
LINE
8
BLACK
6
CONTINUOUS
10
178.975
20
-106.9
11
178.889
21
-106.885
0
LINE
8
BLACK
6
CONTINUOUS
10
178.889
20
-106.885
11
178.814
21
-106.842
0
LINE
8
BLACK
6
CONTINUOUS
10
178.814
20
-106.842
11
178.758
21
-106.775
0
LINE
8
BLACK
6
CONTINUOUS
10
178.758
20
-106.775
11
178.725
21
-106.65
0
LINE
8
BLACK
6
CONTINUOUS
10
178.725
20
-106.65
11
178.725
21
-105.075
0
LINE
8
BLACK
6
CONTINUOUS
10
178.725
20
-105.075
11
178.74
21
-104.989
0
LINE
8
BLACK
6
CONTINUOUS
10
178.74
20
-104.989
11
178.783
21
-104.914
0
LINE
8
BLACK
6
CONTINUOUS
10
178.783
20
-104.914
11
178.85
21
-104.858
0
LINE
8
BLACK
6
CONTINUOUS
10
178.85
20
-104.858
11
178.975
21
-104.825
0
LINE
8
BLACK
6
CONTINUOUS
10
178.975
20
-104.825
11
180.825
21
-104.825
0
LINE
8
BLACK
6
CONTINUOUS
10
180.825
20
-104.825
11
180.911
21
-104.84
0
LINE
8
BLACK
6
CONTINUOUS
10
151.99
20
-106.58
11
151.09
21
-106.58
0
LINE
8
BLACK
6
CONTINUOUS
10
151.09
20
-106.58
11
151.09
21
-105.78
0
LINE
8
BLACK
6
CONTINUOUS
10
151.09
20
-105.78
11
151.99
21
-105.78
0
LINE
8
BLACK
6
CONTINUOUS
10
151.99
20
-105.78
11
151.99
21
-106.58
0
LINE
8
BLACK
6
CONTINUOUS
10
157.231
20
-104.988
11
157.297
21
-105.026
0
LINE
8
BLACK
6
CONTINUOUS
10
157.297
20
-105.026
11
157.346
21
-105.084
0
LINE
8
BLACK
6
CONTINUOUS
10
157.346
20
-105.084
11
157.375
21
-105.194
0
LINE
8
BLACK
6
CONTINUOUS
10
157.375
20
-105.194
11
157.375
21
-105.631
0
LINE
8
BLACK
6
CONTINUOUS
10
157.375
20
-105.631
11
157.362
21
-105.706
0
LINE
8
BLACK
6
CONTINUOUS
10
157.362
20
-105.706
11
157.324
21
-105.772
0
LINE
8
BLACK
6
CONTINUOUS
10
157.324
20
-105.772
11
157.266
21
-105.821
0
LINE
8
BLACK
6
CONTINUOUS
10
157.266
20
-105.821
11
157.156
21
-105.85
0
LINE
8
BLACK
6
CONTINUOUS
10
157.156
20
-105.85
11
156.644
21
-105.85
0
LINE
8
BLACK
6
CONTINUOUS
10
156.644
20
-105.85
11
156.569
21
-105.837
0
LINE
8
BLACK
6
CONTINUOUS
10
156.569
20
-105.837
11
156.503
21
-105.799
0
LINE
8
BLACK
6
CONTINUOUS
10
156.503
20
-105.799
11
156.454
21
-105.741
0
LINE
8
BLACK
6
CONTINUOUS
10
156.454
20
-105.741
11
156.425
21
-105.631
0
LINE
8
BLACK
6
CONTINUOUS
10
156.425
20
-105.631
11
156.425
21
-105.194
0
LINE
8
BLACK
6
CONTINUOUS
10
156.425
20
-105.194
11
156.438
21
-105.119
0
LINE
8
BLACK
6
CONTINUOUS
10
156.438
20
-105.119
11
156.476
21
-105.053
0
LINE
8
BLACK
6
CONTINUOUS
10
156.476
20
-105.053
11
156.534
21
-105.004
0
LINE
8
BLACK
6
CONTINUOUS
10
156.534
20
-105.004
11
156.644
21
-104.975
0
LINE
8
BLACK
6
CONTINUOUS
10
156.644
20
-104.975
11
157.156
21
-104.975
0
LINE
8
BLACK
6
CONTINUOUS
10
157.156
20
-104.975
11
157.231
21
-104.988
0
LINE
8
BLACK
6
CONTINUOUS
10
155.471
20
-104.968
11
155.537
21
-105.006
0
LINE
8
BLACK
6
CONTINUOUS
10
155.537
20
-105.006
11
155.586
21
-105.064
0
LINE
8
BLACK
6
CONTINUOUS
10
155.586
20
-105.064
11
155.615
21
-105.173
0
LINE
8
BLACK
6
CONTINUOUS
10
155.615
20
-105.173
11
155.615
21
-105.611
0
LINE
8
BLACK
6
CONTINUOUS
10
155.615
20
-105.611
11
155.602
21
-105.686
0
LINE
8
BLACK
6
CONTINUOUS
10
155.602
20
-105.686
11
155.564
21
-105.752
0
LINE
8
BLACK
6
CONTINUOUS
10
155.564
20
-105.752
11
155.506
21
-105.8
0
LINE
8
BLACK
6
CONTINUOUS
10
155.506
20
-105.8
11
155.396
21
-105.83
0
LINE
8
BLACK
6
CONTINUOUS
10
155.396
20
-105.83
11
154.884
21
-105.83
0
LINE
8
BLACK
6
CONTINUOUS
10
154.884
20
-105.83
11
154.809
21
-105.816
0
LINE
8
BLACK
6
CONTINUOUS
10
154.809
20
-105.816
11
154.743
21
-105.778
0
LINE
8
BLACK
6
CONTINUOUS
10
154.743
20
-105.778
11
154.694
21
-105.72
0
LINE
8
BLACK
6
CONTINUOUS
10
154.694
20
-105.72
11
154.665
21
-105.611
0
LINE
8
BLACK
6
CONTINUOUS
10
154.665
20
-105.611
11
154.665
21
-105.173
0
LINE
8
BLACK
6
CONTINUOUS
10
154.665
20
-105.173
11
154.678
21
-105.099
0
LINE
8
BLACK
6
CONTINUOUS
10
154.678
20
-105.099
11
154.716
21
-105.033
0
LINE
8
BLACK
6
CONTINUOUS
10
154.716
20
-105.033
11
154.775
21
-104.984
0
LINE
8
BLACK
6
CONTINUOUS
10
154.775
20
-104.984
11
154.884
21
-104.955
0
LINE
8
BLACK
6
CONTINUOUS
10
154.884
20
-104.955
11
155.396
21
-104.955
0
LINE
8
BLACK
6
CONTINUOUS
10
155.396
20
-104.955
11
155.471
21
-104.968
0
LINE
8
BLACK
6
CONTINUOUS
10
165.05
20
-105.725
11
164.45
21
-105.725
0
LINE
8
BLACK
6
CONTINUOUS
10
164.45
20
-105.725
11
164.45
21
-105.275
0
LINE
8
BLACK
6
CONTINUOUS
10
164.45
20
-105.275
11
165.05
21
-105.275
0
LINE
8
BLACK
6
CONTINUOUS
10
165.05
20
-105.275
11
165.05
21
-105.725
0
LINE
8
BLACK
6
CONTINUOUS
10
167.15
20
-105.725
11
166.55
21
-105.725
0
LINE
8
BLACK
6
CONTINUOUS
10
166.55
20
-105.725
11
166.55
21
-105.275
0
LINE
8
BLACK
6
CONTINUOUS
10
166.55
20
-105.275
11
167.15
21
-105.275
0
LINE
8
BLACK
6
CONTINUOUS
10
167.15
20
-105.275
11
167.15
21
-105.725
0
LINE
8
BLACK
6
CONTINUOUS
10
153.99
20
-105.63
11
153.09
21
-105.63
0
LINE
8
BLACK
6
CONTINUOUS
10
153.09
20
-105.63
11
153.09
21
-104.83
0
LINE
8
BLACK
6
CONTINUOUS
10
153.09
20
-104.83
11
153.99
21
-104.83
0
LINE
8
BLACK
6
CONTINUOUS
10
153.99
20
-104.83
11
153.99
21
-105.63
0
LINE
8
BLACK
6
CONTINUOUS
10
160.55
20
-105.525
11
159.95
21
-105.525
0
LINE
8
BLACK
6
CONTINUOUS
10
159.95
20
-105.525
11
159.95
21
-105.075
0
LINE
8
BLACK
6
CONTINUOUS
10
159.95
20
-105.075
11
160.55
21
-105.075
0
LINE
8
BLACK
6
CONTINUOUS
10
160.55
20
-105.075
11
160.55
21
-105.525
0
LINE
8
BLACK
6
CONTINUOUS
10
182.661
20
-102.89
11
182.736
21
-102.933
0
LINE
8
BLACK
6
CONTINUOUS
10
182.736
20
-102.933
11
182.792
21
-103
0
LINE
8
BLACK
6
CONTINUOUS
10
182.792
20
-103
11
182.825
21
-103.125
0
LINE
8
BLACK
6
CONTINUOUS
10
182.825
20
-103.125
11
182.825
21
-105.275
0
LINE
8
BLACK
6
CONTINUOUS
10
182.825
20
-105.275
11
182.81
21
-105.361
0
LINE
8
BLACK
6
CONTINUOUS
10
182.81
20
-105.361
11
182.767
21
-105.436
0
LINE
8
BLACK
6
CONTINUOUS
10
182.767
20
-105.436
11
182.7
21
-105.492
0
LINE
8
BLACK
6
CONTINUOUS
10
182.7
20
-105.492
11
182.575
21
-105.525
0
LINE
8
BLACK
6
CONTINUOUS
10
182.575
20
-105.525
11
181.825
21
-105.525
0
LINE
8
BLACK
6
CONTINUOUS
10
181.825
20
-105.525
11
181.739
21
-105.51
0
LINE
8
BLACK
6
CONTINUOUS
10
181.739
20
-105.51
11
181.664
21
-105.467
0
LINE
8
BLACK
6
CONTINUOUS
10
181.664
20
-105.467
11
181.608
21
-105.4
0
LINE
8
BLACK
6
CONTINUOUS
10
181.608
20
-105.4
11
181.575
21
-105.275
0
LINE
8
BLACK
6
CONTINUOUS
10
181.575
20
-105.275
11
181.575
21
-103.125
0
LINE
8
BLACK
6
CONTINUOUS
10
181.575
20
-103.125
11
181.59
21
-103.039
0
LINE
8
BLACK
6
CONTINUOUS
10
181.59
20
-103.039
11
181.633
21
-102.964
0
LINE
8
BLACK
6
CONTINUOUS
10
181.633
20
-102.964
11
181.7
21
-102.908
0
LINE
8
BLACK
6
CONTINUOUS
10
181.7
20
-102.908
11
181.825
21
-102.875
0
LINE
8
BLACK
6
CONTINUOUS
10
181.825
20
-102.875
11
182.575
21
-102.875
0
LINE
8
BLACK
6
CONTINUOUS
10
182.575
20
-102.875
11
182.661
21
-102.89
0
LINE
8
BLACK
6
CONTINUOUS
10
185.461
20
-102.89
11
185.536
21
-102.933
0
LINE
8
BLACK
6
CONTINUOUS
10
185.536
20
-102.933
11
185.592
21
-103
0
LINE
8
BLACK
6
CONTINUOUS
10
185.592
20
-103
11
185.625
21
-103.125
0
LINE
8
BLACK
6
CONTINUOUS
10
185.625
20
-103.125
11
185.625
21
-105.275
0
LINE
8
BLACK
6
CONTINUOUS
10
185.625
20
-105.275
11
185.61
21
-105.361
0
LINE
8
BLACK
6
CONTINUOUS
10
185.61
20
-105.361
11
185.567
21
-105.436
0
LINE
8
BLACK
6
CONTINUOUS
10
185.567
20
-105.436
11
185.5
21
-105.492
0
LINE
8
BLACK
6
CONTINUOUS
10
185.5
20
-105.492
11
185.375
21
-105.525
0
LINE
8
BLACK
6
CONTINUOUS
10
185.375
20
-105.525
11
184.625
21
-105.525
0
LINE
8
BLACK
6
CONTINUOUS
10
184.625
20
-105.525
11
184.539
21
-105.51
0
LINE
8
BLACK
6
CONTINUOUS
10
184.539
20
-105.51
11
184.464
21
-105.467
0
LINE
8
BLACK
6
CONTINUOUS
10
184.464
20
-105.467
11
184.408
21
-105.4
0
LINE
8
BLACK
6
CONTINUOUS
10
184.408
20
-105.4
11
184.375
21
-105.275
0
LINE
8
BLACK
6
CONTINUOUS
10
184.375
20
-105.275
11
184.375
21
-103.125
0
LINE
8
BLACK
6
CONTINUOUS
10
184.375
20
-103.125
11
184.39
21
-103.039
0
LINE
8
BLACK
6
CONTINUOUS
10
184.39
20
-103.039
11
184.433
21
-102.964
0
LINE
8
BLACK
6
CONTINUOUS
10
184.433
20
-102.964
11
184.5
21
-102.908
0
LINE
8
BLACK
6
CONTINUOUS
10
184.5
20
-102.908
11
184.625
21
-102.875
0
LINE
8
BLACK
6
CONTINUOUS
10
184.625
20
-102.875
11
185.375
21
-102.875
0
LINE
8
BLACK
6
CONTINUOUS
10
185.375
20
-102.875
11
185.461
21
-102.89
0
LINE
8
BLACK
6
CONTINUOUS
10
158.45
20
-105.525
11
157.85
21
-105.525
0
LINE
8
BLACK
6
CONTINUOUS
10
157.85
20
-105.525
11
157.85
21
-105.075
0
LINE
8
BLACK
6
CONTINUOUS
10
157.85
20
-105.075
11
158.45
21
-105.075
0
LINE
8
BLACK
6
CONTINUOUS
10
158.45
20
-105.075
11
158.45
21
-105.525
0
LINE
8
BLACK
6
CONTINUOUS
10
170.131
20
-104.363
11
170.197
21
-104.401
0
LINE
8
BLACK
6
CONTINUOUS
10
170.197
20
-104.401
11
170.246
21
-104.459
0
LINE
8
BLACK
6
CONTINUOUS
10
170.246
20
-104.459
11
170.275
21
-104.569
0
LINE
8
BLACK
6
CONTINUOUS
10
170.275
20
-104.569
11
170.275
21
-105.006
0
LINE
8
BLACK
6
CONTINUOUS
10
170.275
20
-105.006
11
170.262
21
-105.081
0
LINE
8
BLACK
6
CONTINUOUS
10
170.262
20
-105.081
11
170.224
21
-105.147
0
LINE
8
BLACK
6
CONTINUOUS
10
170.224
20
-105.147
11
170.166
21
-105.196
0
LINE
8
BLACK
6
CONTINUOUS
10
170.166
20
-105.196
11
170.056
21
-105.225
0
LINE
8
BLACK
6
CONTINUOUS
10
170.056
20
-105.225
11
169.544
21
-105.225
0
LINE
8
BLACK
6
CONTINUOUS
10
169.544
20
-105.225
11
169.469
21
-105.212
0
LINE
8
BLACK
6
CONTINUOUS
10
169.469
20
-105.212
11
169.403
21
-105.174
0
LINE
8
BLACK
6
CONTINUOUS
10
169.403
20
-105.174
11
169.354
21
-105.116
0
LINE
8
BLACK
6
CONTINUOUS
10
169.354
20
-105.116
11
169.325
21
-105.006
0
LINE
8
BLACK
6
CONTINUOUS
10
169.325
20
-105.006
11
169.325
21
-104.569
0
LINE
8
BLACK
6
CONTINUOUS
10
169.325
20
-104.569
11
169.338
21
-104.494
0
LINE
8
BLACK
6
CONTINUOUS
10
169.338
20
-104.494
11
169.376
21
-104.428
0
LINE
8
BLACK
6
CONTINUOUS
10
169.376
20
-104.428
11
169.434
21
-104.379
0
LINE
8
BLACK
6
CONTINUOUS
10
169.434
20
-104.379
11
169.544
21
-104.35
0
LINE
8
BLACK
6
CONTINUOUS
10
169.544
20
-104.35
11
170.056
21
-104.35
0
LINE
8
BLACK
6
CONTINUOUS
10
170.056
20
-104.35
11
170.131
21
-104.363
0
LINE
8
BLACK
6
CONTINUOUS
10
170.131
20
-102.788
11
170.197
21
-102.826
0
LINE
8
BLACK
6
CONTINUOUS
10
170.197
20
-102.826
11
170.246
21
-102.884
0
LINE
8
BLACK
6
CONTINUOUS
10
170.246
20
-102.884
11
170.275
21
-102.994
0
LINE
8
BLACK
6
CONTINUOUS
10
170.275
20
-102.994
11
170.275
21
-103.431
0
LINE
8
BLACK
6
CONTINUOUS
10
170.275
20
-103.431
11
170.262
21
-103.506
0
LINE
8
BLACK
6
CONTINUOUS
10
170.262
20
-103.506
11
170.224
21
-103.572
0
LINE
8
BLACK
6
CONTINUOUS
10
170.224
20
-103.572
11
170.166
21
-103.621
0
LINE
8
BLACK
6
CONTINUOUS
10
170.166
20
-103.621
11
170.056
21
-103.65
0
LINE
8
BLACK
6
CONTINUOUS
10
170.056
20
-103.65
11
169.544
21
-103.65
0
LINE
8
BLACK
6
CONTINUOUS
10
169.544
20
-103.65
11
169.469
21
-103.637
0
LINE
8
BLACK
6
CONTINUOUS
10
169.469
20
-103.637
11
169.403
21
-103.599
0
LINE
8
BLACK
6
CONTINUOUS
10
169.403
20
-103.599
11
169.354
21
-103.541
0
LINE
8
BLACK
6
CONTINUOUS
10
169.354
20
-103.541
11
169.325
21
-103.431
0
LINE
8
BLACK
6
CONTINUOUS
10
169.325
20
-103.431
11
169.325
21
-102.994
0
LINE
8
BLACK
6
CONTINUOUS
10
169.325
20
-102.994
11
169.338
21
-102.919
0
LINE
8
BLACK
6
CONTINUOUS
10
169.338
20
-102.919
11
169.376
21
-102.853
0
LINE
8
BLACK
6
CONTINUOUS
10
169.376
20
-102.853
11
169.434
21
-102.804
0
LINE
8
BLACK
6
CONTINUOUS
10
169.434
20
-102.804
11
169.544
21
-102.775
0
LINE
8
BLACK
6
CONTINUOUS
10
169.544
20
-102.775
11
170.056
21
-102.775
0
LINE
8
BLACK
6
CONTINUOUS
10
170.056
20
-102.775
11
170.131
21
-102.788
0
LINE
8
BLACK
6
CONTINUOUS
10
170.131
20
-101.263
11
170.197
21
-101.301
0
LINE
8
BLACK
6
CONTINUOUS
10
170.197
20
-101.301
11
170.246
21
-101.359
0
LINE
8
BLACK
6
CONTINUOUS
10
170.246
20
-101.359
11
170.275
21
-101.469
0
LINE
8
BLACK
6
CONTINUOUS
10
170.275
20
-101.469
11
170.275
21
-101.906
0
LINE
8
BLACK
6
CONTINUOUS
10
170.275
20
-101.906
11
170.262
21
-101.981
0
LINE
8
BLACK
6
CONTINUOUS
10
170.262
20
-101.981
11
170.224
21
-102.047
0
LINE
8
BLACK
6
CONTINUOUS
10
170.224
20
-102.047
11
170.166
21
-102.096
0
LINE
8
BLACK
6
CONTINUOUS
10
170.166
20
-102.096
11
170.056
21
-102.125
0
LINE
8
BLACK
6
CONTINUOUS
10
170.056
20
-102.125
11
169.544
21
-102.125
0
LINE
8
BLACK
6
CONTINUOUS
10
169.544
20
-102.125
11
169.469
21
-102.112
0
LINE
8
BLACK
6
CONTINUOUS
10
169.469
20
-102.112
11
169.403
21
-102.074
0
LINE
8
BLACK
6
CONTINUOUS
10
169.403
20
-102.074
11
169.354
21
-102.016
0
LINE
8
BLACK
6
CONTINUOUS
10
169.354
20
-102.016
11
169.325
21
-101.906
0
LINE
8
BLACK
6
CONTINUOUS
10
169.325
20
-101.906
11
169.325
21
-101.469
0
LINE
8
BLACK
6
CONTINUOUS
10
169.325
20
-101.469
11
169.338
21
-101.394
0
LINE
8
BLACK
6
CONTINUOUS
10
169.338
20
-101.394
11
169.376
21
-101.328
0
LINE
8
BLACK
6
CONTINUOUS
10
169.376
20
-101.328
11
169.434
21
-101.279
0
LINE
8
BLACK
6
CONTINUOUS
10
169.434
20
-101.279
11
169.544
21
-101.25
0
LINE
8
BLACK
6
CONTINUOUS
10
169.544
20
-101.25
11
170.056
21
-101.25
0
LINE
8
BLACK
6
CONTINUOUS
10
170.056
20
-101.25
11
170.131
21
-101.263
0
LINE
8
BLACK
6
CONTINUOUS
10
180.911
20
-99.9151
11
180.986
21
-99.9585
0
LINE
8
BLACK
6
CONTINUOUS
10
180.986
20
-99.9585
11
181.042
21
-100.025
0
LINE
8
BLACK
6
CONTINUOUS
10
181.042
20
-100.025
11
181.075
21
-100.15
0
LINE
8
BLACK
6
CONTINUOUS
10
181.075
20
-100.15
11
181.075
21
-101.725
0
LINE
8
BLACK
6
CONTINUOUS
10
181.075
20
-101.725
11
181.06
21
-101.811
0
LINE
8
BLACK
6
CONTINUOUS
10
181.06
20
-101.811
11
181.017
21
-101.886
0
LINE
8
BLACK
6
CONTINUOUS
10
181.017
20
-101.886
11
180.95
21
-101.942
0
LINE
8
BLACK
6
CONTINUOUS
10
180.95
20
-101.942
11
180.825
21
-101.975
0
LINE
8
BLACK
6
CONTINUOUS
10
180.825
20
-101.975
11
178.975
21
-101.975
0
LINE
8
BLACK
6
CONTINUOUS
10
178.975
20
-101.975
11
178.889
21
-101.96
0
LINE
8
BLACK
6
CONTINUOUS
10
178.889
20
-101.96
11
178.814
21
-101.917
0
LINE
8
BLACK
6
CONTINUOUS
10
178.814
20
-101.917
11
178.758
21
-101.85
0
LINE
8
BLACK
6
CONTINUOUS
10
178.758
20
-101.85
11
178.725
21
-101.725
0
LINE
8
BLACK
6
CONTINUOUS
10
178.725
20
-101.725
11
178.725
21
-100.15
0
LINE
8
BLACK
6
CONTINUOUS
10
178.725
20
-100.15
11
178.74
21
-100.064
0
LINE
8
BLACK
6
CONTINUOUS
10
178.74
20
-100.064
11
178.783
21
-99.9893
0
LINE
8
BLACK
6
CONTINUOUS
10
178.783
20
-99.9893
11
178.85
21
-99.9335
0
LINE
8
BLACK
6
CONTINUOUS
10
178.85
20
-99.9335
11
178.975
21
-99.9
0
LINE
8
BLACK
6
CONTINUOUS
10
178.975
20
-99.9
11
180.825
21
-99.9
0
LINE
8
BLACK
6
CONTINUOUS
10
180.825
20
-99.9
11
180.911
21
-99.9151
0
LINE
8
BLACK
6
CONTINUOUS
10
175.2
20
-101.42
11
173.6
21
-101.42
0
LINE
8
BLACK
6
CONTINUOUS
10
173.6
20
-101.42
11
173.6
21
-99.82
0
LINE
8
BLACK
6
CONTINUOUS
10
173.6
20
-99.82
11
175.2
21
-99.82
0
LINE
8
BLACK
6
CONTINUOUS
10
175.2
20
-99.82
11
175.2
21
-101.42
0
LINE
8
BLACK
6
CONTINUOUS
10
172.66
20
-101.42
11
171.06
21
-101.42
0
LINE
8
BLACK
6
CONTINUOUS
10
171.06
20
-101.42
11
171.06
21
-99.82
0
LINE
8
BLACK
6
CONTINUOUS
10
171.06
20
-99.82
11
172.66
21
-99.82
0
LINE
8
BLACK
6
CONTINUOUS
10
172.66
20
-99.82
11
172.66
21
-101.42
0
LINE
8
BLACK
6
CONTINUOUS
10
177.74
20
-101.42
11
176.14
21
-101.42
0
LINE
8
BLACK
6
CONTINUOUS
10
176.14
20
-101.42
11
176.14
21
-99.82
0
LINE
8
BLACK
6
CONTINUOUS
10
176.14
20
-99.82
11
177.74
21
-99.82
0
LINE
8
BLACK
6
CONTINUOUS
10
177.74
20
-99.82
11
177.74
21
-101.42
0
LINE
8
BLACK
6
CONTINUOUS
10
170.131
20
-99.6882
11
170.197
21
-99.7262
0
LINE
8
BLACK
6
CONTINUOUS
10
170.197
20
-99.7262
11
170.246
21
-99.7844
0
LINE
8
BLACK
6
CONTINUOUS
10
170.246
20
-99.7844
11
170.275
21
-99.8937
0
LINE
8
BLACK
6
CONTINUOUS
10
170.275
20
-99.8937
11
170.275
21
-100.331
0
LINE
8
BLACK
6
CONTINUOUS
10
170.275
20
-100.331
11
170.262
21
-100.406
0
LINE
8
BLACK
6
CONTINUOUS
10
170.262
20
-100.406
11
170.224
21
-100.472
0
LINE
8
BLACK
6
CONTINUOUS
10
170.224
20
-100.472
11
170.166
21
-100.521
0
LINE
8
BLACK
6
CONTINUOUS
10
170.166
20
-100.521
11
170.056
21
-100.55
0
LINE
8
BLACK
6
CONTINUOUS
10
170.056
20
-100.55
11
169.544
21
-100.55
0
LINE
8
BLACK
6
CONTINUOUS
10
169.544
20
-100.55
11
169.469
21
-100.537
0
LINE
8
BLACK
6
CONTINUOUS
10
169.469
20
-100.537
11
169.403
21
-100.499
0
LINE
8
BLACK
6
CONTINUOUS
10
169.403
20
-100.499
11
169.354
21
-100.441
0
LINE
8
BLACK
6
CONTINUOUS
10
169.354
20
-100.441
11
169.325
21
-100.331
0
LINE
8
BLACK
6
CONTINUOUS
10
169.325
20
-100.331
11
169.325
21
-99.8937
0
LINE
8
BLACK
6
CONTINUOUS
10
169.325
20
-99.8937
11
169.338
21
-99.8189
0
LINE
8
BLACK
6
CONTINUOUS
10
169.338
20
-99.8189
11
169.376
21
-99.7531
0
LINE
8
BLACK
6
CONTINUOUS
10
169.376
20
-99.7531
11
169.434
21
-99.7043
0
LINE
8
BLACK
6
CONTINUOUS
10
169.434
20
-99.7043
11
169.544
21
-99.675
0
LINE
8
BLACK
6
CONTINUOUS
10
169.544
20
-99.675
11
170.056
21
-99.675
0
LINE
8
BLACK
6
CONTINUOUS
10
170.056
20
-99.675
11
170.131
21
-99.6882
0
LINE
8
BLACK
6
CONTINUOUS
10
172.25
20
-99.15
11
171.35
21
-99.15
0
LINE
8
BLACK
6
CONTINUOUS
10
171.35
20
-99.15
11
171.35
21
-98.35
0
LINE
8
BLACK
6
CONTINUOUS
10
171.35
20
-98.35
11
172.25
21
-98.35
0
LINE
8
BLACK
6
CONTINUOUS
10
172.25
20
-98.35
11
172.25
21
-99.15
0
LINE
8
BLACK
6
CONTINUOUS
10
183.536
20
-96.6401
11
183.611
21
-96.6835
0
LINE
8
BLACK
6
CONTINUOUS
10
183.611
20
-96.6835
11
183.667
21
-96.75
0
LINE
8
BLACK
6
CONTINUOUS
10
183.667
20
-96.75
11
183.7
21
-96.875
0
LINE
8
BLACK
6
CONTINUOUS
10
183.7
20
-96.875
11
183.7
21
-98.725
0
LINE
8
BLACK
6
CONTINUOUS
10
183.7
20
-98.725
11
183.685
21
-98.8105
0
LINE
8
BLACK
6
CONTINUOUS
10
183.685
20
-98.8105
11
183.642
21
-98.8857
0
LINE
8
BLACK
6
CONTINUOUS
10
183.642
20
-98.8857
11
183.575
21
-98.9415
0
LINE
8
BLACK
6
CONTINUOUS
10
183.575
20
-98.9415
11
183.45
21
-98.975
0
LINE
8
BLACK
6
CONTINUOUS
10
183.45
20
-98.975
11
181.875
21
-98.975
0
LINE
8
BLACK
6
CONTINUOUS
10
181.875
20
-98.975
11
181.789
21
-98.9599
0
LINE
8
BLACK
6
CONTINUOUS
10
181.789
20
-98.9599
11
181.714
21
-98.9165
0
LINE
8
BLACK
6
CONTINUOUS
10
181.714
20
-98.9165
11
181.658
21
-98.85
0
LINE
8
BLACK
6
CONTINUOUS
10
181.658
20
-98.85
11
181.625
21
-98.725
0
LINE
8
BLACK
6
CONTINUOUS
10
181.625
20
-98.725
11
181.625
21
-96.875
0
LINE
8
BLACK
6
CONTINUOUS
10
181.625
20
-96.875
11
181.64
21
-96.7895
0
LINE
8
BLACK
6
CONTINUOUS
10
181.64
20
-96.7895
11
181.683
21
-96.7143
0
LINE
8
BLACK
6
CONTINUOUS
10
181.683
20
-96.7143
11
181.75
21
-96.6585
0
LINE
8
BLACK
6
CONTINUOUS
10
181.75
20
-96.6585
11
181.875
21
-96.625
0
LINE
8
BLACK
6
CONTINUOUS
10
181.875
20
-96.625
11
183.45
21
-96.625
0
LINE
8
BLACK
6
CONTINUOUS
10
183.45
20
-96.625
11
183.536
21
-96.6401
0
LINE
8
BLACK
6
CONTINUOUS
10
178.611
20
-96.6401
11
178.686
21
-96.6835
0
LINE
8
BLACK
6
CONTINUOUS
10
178.686
20
-96.6835
11
178.742
21
-96.75
0
LINE
8
BLACK
6
CONTINUOUS
10
178.742
20
-96.75
11
178.775
21
-96.875
0
LINE
8
BLACK
6
CONTINUOUS
10
178.775
20
-96.875
11
178.775
21
-98.725
0
LINE
8
BLACK
6
CONTINUOUS
10
178.775
20
-98.725
11
178.76
21
-98.8105
0
LINE
8
BLACK
6
CONTINUOUS
10
178.76
20
-98.8105
11
178.717
21
-98.8857
0
LINE
8
BLACK
6
CONTINUOUS
10
178.717
20
-98.8857
11
178.65
21
-98.9415
0
LINE
8
BLACK
6
CONTINUOUS
10
178.65
20
-98.9415
11
178.525
21
-98.975
0
LINE
8
BLACK
6
CONTINUOUS
10
178.525
20
-98.975
11
176.95
21
-98.975
0
LINE
8
BLACK
6
CONTINUOUS
10
176.95
20
-98.975
11
176.864
21
-98.9599
0
LINE
8
BLACK
6
CONTINUOUS
10
176.864
20
-98.9599
11
176.789
21
-98.9165
0
LINE
8
BLACK
6
CONTINUOUS
10
176.789
20
-98.9165
11
176.733
21
-98.85
0
LINE
8
BLACK
6
CONTINUOUS
10
176.733
20
-98.85
11
176.7
21
-98.725
0
LINE
8
BLACK
6
CONTINUOUS
10
176.7
20
-98.725
11
176.7
21
-96.875
0
LINE
8
BLACK
6
CONTINUOUS
10
176.7
20
-96.875
11
176.715
21
-96.7895
0
LINE
8
BLACK
6
CONTINUOUS
10
176.715
20
-96.7895
11
176.758
21
-96.7143
0
LINE
8
BLACK
6
CONTINUOUS
10
176.758
20
-96.7143
11
176.825
21
-96.6585
0
LINE
8
BLACK
6
CONTINUOUS
10
176.825
20
-96.6585
11
176.95
21
-96.625
0
LINE
8
BLACK
6
CONTINUOUS
10
176.95
20
-96.625
11
178.525
21
-96.625
0
LINE
8
BLACK
6
CONTINUOUS
10
178.525
20
-96.625
11
178.611
21
-96.6401
0
LINE
8
BLACK
6
CONTINUOUS
10
173.731
20
-98.0632
11
173.797
21
-98.1012
0
LINE
8
BLACK
6
CONTINUOUS
10
173.797
20
-98.1012
11
173.846
21
-98.1594
0
LINE
8
BLACK
6
CONTINUOUS
10
173.846
20
-98.1594
11
173.875
21
-98.2687
0
LINE
8
BLACK
6
CONTINUOUS
10
173.875
20
-98.2687
11
173.875
21
-98.7062
0
LINE
8
BLACK
6
CONTINUOUS
10
173.875
20
-98.7062
11
173.862
21
-98.7811
0
LINE
8
BLACK
6
CONTINUOUS
10
173.862
20
-98.7811
11
173.824
21
-98.8469
0
LINE
8
BLACK
6
CONTINUOUS
10
173.824
20
-98.8469
11
173.766
21
-98.8957
0
LINE
8
BLACK
6
CONTINUOUS
10
173.766
20
-98.8957
11
173.656
21
-98.925
0
LINE
8
BLACK
6
CONTINUOUS
10
173.656
20
-98.925
11
173.144
21
-98.925
0
LINE
8
BLACK
6
CONTINUOUS
10
173.144
20
-98.925
11
173.069
21
-98.9118
0
LINE
8
BLACK
6
CONTINUOUS
10
173.069
20
-98.9118
11
173.003
21
-98.8738
0
LINE
8
BLACK
6
CONTINUOUS
10
173.003
20
-98.8738
11
172.954
21
-98.8156
0
LINE
8
BLACK
6
CONTINUOUS
10
172.954
20
-98.8156
11
172.925
21
-98.7062
0
LINE
8
BLACK
6
CONTINUOUS
10
172.925
20
-98.7062
11
172.925
21
-98.2687
0
LINE
8
BLACK
6
CONTINUOUS
10
172.925
20
-98.2687
11
172.938
21
-98.1939
0
LINE
8
BLACK
6
CONTINUOUS
10
172.938
20
-98.1939
11
172.976
21
-98.1281
0
LINE
8
BLACK
6
CONTINUOUS
10
172.976
20
-98.1281
11
173.034
21
-98.0793
0
LINE
8
BLACK
6
CONTINUOUS
10
173.034
20
-98.0793
11
173.144
21
-98.05
0
LINE
8
BLACK
6
CONTINUOUS
10
173.144
20
-98.05
11
173.656
21
-98.05
0
LINE
8
BLACK
6
CONTINUOUS
10
173.656
20
-98.05
11
173.731
21
-98.0632
0
LINE
8
BLACK
6
CONTINUOUS
10
175.831
20
-98.0632
11
175.897
21
-98.1012
0
LINE
8
BLACK
6
CONTINUOUS
10
175.897
20
-98.1012
11
175.946
21
-98.1594
0
LINE
8
BLACK
6
CONTINUOUS
10
175.946
20
-98.1594
11
175.975
21
-98.2687
0
LINE
8
BLACK
6
CONTINUOUS
10
175.975
20
-98.2687
11
175.975
21
-98.7062
0
LINE
8
BLACK
6
CONTINUOUS
10
175.975
20
-98.7062
11
175.962
21
-98.7811
0
LINE
8
BLACK
6
CONTINUOUS
10
175.962
20
-98.7811
11
175.924
21
-98.8469
0
LINE
8
BLACK
6
CONTINUOUS
10
175.924
20
-98.8469
11
175.866
21
-98.8957
0
LINE
8
BLACK
6
CONTINUOUS
10
175.866
20
-98.8957
11
175.756
21
-98.925
0
LINE
8
BLACK
6
CONTINUOUS
10
175.756
20
-98.925
11
175.244
21
-98.925
0
LINE
8
BLACK
6
CONTINUOUS
10
175.244
20
-98.925
11
175.169
21
-98.9118
0
LINE
8
BLACK
6
CONTINUOUS
10
175.169
20
-98.9118
11
175.103
21
-98.8738
0
LINE
8
BLACK
6
CONTINUOUS
10
175.103
20
-98.8738
11
175.054
21
-98.8156
0
LINE
8
BLACK
6
CONTINUOUS
10
175.054
20
-98.8156
11
175.025
21
-98.7062
0
LINE
8
BLACK
6
CONTINUOUS
10
175.025
20
-98.7062
11
175.025
21
-98.2687
0
LINE
8
BLACK
6
CONTINUOUS
10
175.025
20
-98.2687
11
175.038
21
-98.1939
0
LINE
8
BLACK
6
CONTINUOUS
10
175.038
20
-98.1939
11
175.076
21
-98.1281
0
LINE
8
BLACK
6
CONTINUOUS
10
175.076
20
-98.1281
11
175.134
21
-98.0793
0
LINE
8
BLACK
6
CONTINUOUS
10
175.134
20
-98.0793
11
175.244
21
-98.05
0
LINE
8
BLACK
6
CONTINUOUS
10
175.244
20
-98.05
11
175.756
21
-98.05
0
LINE
8
BLACK
6
CONTINUOUS
10
175.756
20
-98.05
11
175.831
21
-98.0632
0
LINE
8
BLACK
6
CONTINUOUS
10
170.25
20
-98.2
11
169.35
21
-98.2
0
LINE
8
BLACK
6
CONTINUOUS
10
169.35
20
-98.2
11
169.35
21
-97.4
0
LINE
8
BLACK
6
CONTINUOUS
10
169.35
20
-97.4
11
170.25
21
-97.4
0
LINE
8
BLACK
6
CONTINUOUS
10
170.25
20
-97.4
11
170.25
21
-98.2
0
LINE
8
BLACK
6
CONTINUOUS
10
173.731
20
-96.4882
11
173.797
21
-96.5262
0
LINE
8
BLACK
6
CONTINUOUS
10
173.797
20
-96.5262
11
173.846
21
-96.5844
0
LINE
8
BLACK
6
CONTINUOUS
10
173.846
20
-96.5844
11
173.875
21
-96.6937
0
LINE
8
BLACK
6
CONTINUOUS
10
173.875
20
-96.6937
11
173.875
21
-97.1312
0
LINE
8
BLACK
6
CONTINUOUS
10
173.875
20
-97.1312
11
173.862
21
-97.2061
0
LINE
8
BLACK
6
CONTINUOUS
10
173.862
20
-97.2061
11
173.824
21
-97.2719
0
LINE
8
BLACK
6
CONTINUOUS
10
173.824
20
-97.2719
11
173.766
21
-97.3207
0
LINE
8
BLACK
6
CONTINUOUS
10
173.766
20
-97.3207
11
173.656
21
-97.35
0
LINE
8
BLACK
6
CONTINUOUS
10
173.656
20
-97.35
11
173.144
21
-97.35
0
LINE
8
BLACK
6
CONTINUOUS
10
173.144
20
-97.35
11
173.069
21
-97.3368
0
LINE
8
BLACK
6
CONTINUOUS
10
173.069
20
-97.3368
11
173.003
21
-97.2988
0
LINE
8
BLACK
6
CONTINUOUS
10
173.003
20
-97.2988
11
172.954
21
-97.2406
0
LINE
8
BLACK
6
CONTINUOUS
10
172.954
20
-97.2406
11
172.925
21
-97.1312
0
LINE
8
BLACK
6
CONTINUOUS
10
172.925
20
-97.1312
11
172.925
21
-96.6937
0
LINE
8
BLACK
6
CONTINUOUS
10
172.925
20
-96.6937
11
172.938
21
-96.6189
0
LINE
8
BLACK
6
CONTINUOUS
10
172.938
20
-96.6189
11
172.976
21
-96.5531
0
LINE
8
BLACK
6
CONTINUOUS
10
172.976
20
-96.5531
11
173.034
21
-96.5043
0
LINE
8
BLACK
6
CONTINUOUS
10
173.034
20
-96.5043
11
173.144
21
-96.475
0
LINE
8
BLACK
6
CONTINUOUS
10
173.144
20
-96.475
11
173.656
21
-96.475
0
LINE
8
BLACK
6
CONTINUOUS
10
173.656
20
-96.475
11
173.731
21
-96.4882
0
LINE
8
BLACK
6
CONTINUOUS
10
175.831
20
-96.4882
11
175.897
21
-96.5262
0
LINE
8
BLACK
6
CONTINUOUS
10
175.897
20
-96.5262
11
175.946
21
-96.5844
0
LINE
8
BLACK
6
CONTINUOUS
10
175.946
20
-96.5844
11
175.975
21
-96.6937
0
LINE
8
BLACK
6
CONTINUOUS
10
175.975
20
-96.6937
11
175.975
21
-97.1312
0
LINE
8
BLACK
6
CONTINUOUS
10
175.975
20
-97.1312
11
175.962
21
-97.2061
0
LINE
8
BLACK
6
CONTINUOUS
10
175.962
20
-97.2061
11
175.924
21
-97.2719
0
LINE
8
BLACK
6
CONTINUOUS
10
175.924
20
-97.2719
11
175.866
21
-97.3207
0
LINE
8
BLACK
6
CONTINUOUS
10
175.866
20
-97.3207
11
175.756
21
-97.35
0
LINE
8
BLACK
6
CONTINUOUS
10
175.756
20
-97.35
11
175.244
21
-97.35
0
LINE
8
BLACK
6
CONTINUOUS
10
175.244
20
-97.35
11
175.169
21
-97.3368
0
LINE
8
BLACK
6
CONTINUOUS
10
175.169
20
-97.3368
11
175.103
21
-97.2988
0
LINE
8
BLACK
6
CONTINUOUS
10
175.103
20
-97.2988
11
175.054
21
-97.2406
0
LINE
8
BLACK
6
CONTINUOUS
10
175.054
20
-97.2406
11
175.025
21
-97.1312
0
LINE
8
BLACK
6
CONTINUOUS
10
175.025
20
-97.1312
11
175.025
21
-96.6937
0
LINE
8
BLACK
6
CONTINUOUS
10
175.025
20
-96.6937
11
175.038
21
-96.6189
0
LINE
8
BLACK
6
CONTINUOUS
10
175.038
20
-96.6189
11
175.076
21
-96.5531
0
LINE
8
BLACK
6
CONTINUOUS
10
175.076
20
-96.5531
11
175.134
21
-96.5043
0
LINE
8
BLACK
6
CONTINUOUS
10
175.134
20
-96.5043
11
175.244
21
-96.475
0
LINE
8
BLACK
6
CONTINUOUS
10
175.244
20
-96.475
11
175.756
21
-96.475
0
LINE
8
BLACK
6
CONTINUOUS
10
175.756
20
-96.475
11
175.831
21
-96.4882
0
LINE
8
BLACK
6
CONTINUOUS
10
172.25
20
-97.25
11
171.35
21
-97.25
0
LINE
8
BLACK
6
CONTINUOUS
10
171.35
20
-97.25
11
171.35
21
-96.45
0
LINE
8
BLACK
6
CONTINUOUS
10
171.35
20
-96.45
11
172.25
21
-96.45
0
LINE
8
BLACK
6
CONTINUOUS
10
172.25
20
-96.45
11
172.25
21
-97.25
  0
ENDSEC
  0
EOF
