  0
SECTION
  2
HEADER
  9
$ANGBASE
  50
0.0
  9
$ANGDIR
  70
  1
  9
$MEASUREMENT
  70
0
  0
ENDSEC
  0
SECTION
  2
TABLES
  0
TABLE
  2
LTYPE
  70
4
  0
LTYPE
  5
40F
  2
CONTINUOUS
  70
0
  3
Solid line
  72
65
  73
0
  40
0.0
  0
LTYPE
  5
410
  2
DASHDOT
 70
0
  3
Dash Dot ____ _ ____ _
 72
65
 73
4
 40
2.0
 49
1.25
 49
-0.25
 49
0.25
 49
-0.25
  0
LTYPE
  5
411
  2
DASHED
 70
0
  3
Dashed __ __ __ __ __
 72
65
 73
2
 40
0.75
 49
0.5
 49
-0.25
  0
LTYPE
  5
43B
  2
DOTTED
 70
0
  3
Dotted .  .  .  .
 72
65
 73
2
 40
0.2
 49
0.0
 49
-0.2
  0
ENDTAB
  0
TABLE
  2
STYLE
  70
4
  0
STYLE
  2
KICAD
  70
0
  40
0
  41
1
  42
1
  50
0
  71
0
  3
isocp.shx
  0
STYLE
  2
KICADB
  70
0
  40
0
  41
1
  42
1
  50
0
  71
0
  3
isocp.shx
  0
STYLE
  2
KICADI
  70
0
  40
0
  41
1
  42
1
  50
15
  71
0
  3
isocp.shx
  0
STYLE
  2
KICADBI
  70
0
  40
0
  41
1
  42
1
  50
15
  71
0
  3
isocp.shx
  0
ENDTAB
  0
TABLE
  2
LAYER
  70
30
  0
LAYER
  2
BLACK
  70
0
  62
7
  6
CONTINUOUS
  0
LAYER
  2
GRAY1
  70
0
  62
251
  6
CONTINUOUS
  0
LAYER
  2
GRAY2
  70
0
  62
8
  6
CONTINUOUS
  0
LAYER
  2
GRAY3
  70
0
  62
9
  6
CONTINUOUS
  0
LAYER
  2
WHITE
  70
0
  62
7
  6
CONTINUOUS
  0
LAYER
  2
LYELLOW
  70
0
  62
51
  6
CONTINUOUS
  0
LAYER
  2
BLUE1
  70
0
  62
178
  6
CONTINUOUS
  0
LAYER
  2
GREEN1
  70
0
  62
98
  6
CONTINUOUS
  0
LAYER
  2
CYAN1
  70
0
  62
138
  6
CONTINUOUS
  0
LAYER
  2
RED1
  70
0
  62
18
  6
CONTINUOUS
  0
LAYER
  2
MAGENTA1
  70
0
  62
228
  6
CONTINUOUS
  0
LAYER
  2
BROWN1
  70
0
  62
58
  6
CONTINUOUS
  0
LAYER
  2
BLUE2
  70
0
  62
5
  6
CONTINUOUS
  0
LAYER
  2
GREEN2
  70
0
  62
3
  6
CONTINUOUS
  0
LAYER
  2
CYAN2
  70
0
  62
4
  6
CONTINUOUS
  0
LAYER
  2
RED2
  70
0
  62
1
  6
CONTINUOUS
  0
LAYER
  2
MAGENTA2
  70
0
  62
6
  6
CONTINUOUS
  0
LAYER
  2
BROWN2
  70
0
  62
54
  6
CONTINUOUS
  0
LAYER
  2
BLUE3
  70
0
  62
171
  6
CONTINUOUS
  0
LAYER
  2
GREEN3
  70
0
  62
91
  6
CONTINUOUS
  0
LAYER
  2
CYAN3
  70
0
  62
131
  6
CONTINUOUS
  0
LAYER
  2
RED3
  70
0
  62
11
  6
CONTINUOUS
  0
LAYER
  2
MAGENTA3
  70
0
  62
221
  6
CONTINUOUS
  0
LAYER
  2
YELLOW3
  70
0
  62
2
  6
CONTINUOUS
  0
LAYER
  2
BLUE4
  70
0
  62
5
  6
CONTINUOUS
  0
LAYER
  2
GREEN4
  70
0
  62
3
  6
CONTINUOUS
  0
LAYER
  2
CYAN4
  70
0
  62
4
  6
CONTINUOUS
  0
LAYER
  2
RED4
  70
0
  62
1
  6
CONTINUOUS
  0
LAYER
  2
MAGENTA4
  70
0
  62
6
  6
CONTINUOUS
  0
LAYER
  2
YELLOW4
  70
0
  62
2
  6
CONTINUOUS
  0
ENDTAB
  0
ENDSEC
  0
SECTION
  2
ENTITIES
0
LINE
8
BLACK
6
CONTINUOUS
10
150.304
20
-96.125
11
190.404
21
-96.125
0
LINE
8
BLACK
6
CONTINUOUS
10
190.404
20
-96.125
11
190.407
21
-96.1253
0
LINE
8
BLACK
6
CONTINUOUS
10
190.407
20
-96.1253
11
191.245
21
-96.2023
0
LINE
8
BLACK
6
CONTINUOUS
10
191.245
20
-96.2023
11
191.247
21
-96.2025
0
LINE
8
BLACK
6
CONTINUOUS
10
191.247
20
-96.2025
11
191.253
21
-96.2038
0
LINE
8
BLACK
6
CONTINUOUS
10
191.253
20
-96.2038
11
191.259
21
-96.2048
0
LINE
8
BLACK
6
CONTINUOUS
10
191.259
20
-96.2048
11
192.069
21
-96.4333
0
LINE
8
BLACK
6
CONTINUOUS
10
192.069
20
-96.4333
11
192.071
21
-96.4339
0
LINE
8
BLACK
6
CONTINUOUS
10
192.071
20
-96.4339
11
192.076
21
-96.4362
0
LINE
8
BLACK
6
CONTINUOUS
10
192.076
20
-96.4362
11
192.082
21
-96.4383
0
LINE
8
BLACK
6
CONTINUOUS
10
192.082
20
-96.4383
11
192.837
21
-96.8106
0
LINE
8
BLACK
6
CONTINUOUS
10
192.837
20
-96.8106
11
192.837
21
-96.8106
0
LINE
8
BLACK
6
CONTINUOUS
10
192.837
20
-96.8106
11
192.837
21
-96.8106
0
LINE
8
BLACK
6
CONTINUOUS
10
192.837
20
-96.8106
11
192.838
21
-96.8115
0
LINE
8
BLACK
6
CONTINUOUS
10
192.838
20
-96.8115
11
192.843
21
-96.8147
0
LINE
8
BLACK
6
CONTINUOUS
10
192.843
20
-96.8147
11
192.848
21
-96.8178
0
LINE
8
BLACK
6
CONTINUOUS
10
192.848
20
-96.8178
11
193.523
21
-97.3214
0
LINE
8
BLACK
6
CONTINUOUS
10
193.523
20
-97.3214
11
193.524
21
-97.3226
0
LINE
8
BLACK
6
CONTINUOUS
10
193.524
20
-97.3226
11
193.529
21
-97.3267
0
LINE
8
BLACK
6
CONTINUOUS
10
193.529
20
-97.3267
11
193.533
21
-97.3306
0
LINE
8
BLACK
6
CONTINUOUS
10
193.533
20
-97.3306
11
194.104
21
-97.9488
0
LINE
8
BLACK
6
CONTINUOUS
10
194.104
20
-97.9488
11
194.106
21
-97.9502
0
LINE
8
BLACK
6
CONTINUOUS
10
194.106
20
-97.9502
11
194.109
21
-97.955
0
LINE
8
BLACK
6
CONTINUOUS
10
194.109
20
-97.955
11
194.113
21
-97.9597
0
LINE
8
BLACK
6
CONTINUOUS
10
194.113
20
-97.9597
11
194.562
21
-98.6716
0
LINE
8
BLACK
6
CONTINUOUS
10
194.562
20
-98.6716
11
194.563
21
-98.6733
0
LINE
8
BLACK
6
CONTINUOUS
10
194.563
20
-98.6733
11
194.566
21
-98.6786
0
LINE
8
BLACK
6
CONTINUOUS
10
194.566
20
-98.6786
11
194.568
21
-98.6839
0
LINE
8
BLACK
6
CONTINUOUS
10
194.568
20
-98.6839
11
194.88
21
-99.4657
0
LINE
8
BLACK
6
CONTINUOUS
10
194.88
20
-99.4657
11
194.881
21
-99.4676
0
LINE
8
BLACK
6
CONTINUOUS
10
194.881
20
-99.4676
11
194.882
21
-99.4732
0
LINE
8
BLACK
6
CONTINUOUS
10
194.882
20
-99.4732
11
194.884
21
-99.4789
0
LINE
8
BLACK
6
CONTINUOUS
10
194.884
20
-99.4789
11
195.048
21
-100.305
0
LINE
8
BLACK
6
CONTINUOUS
10
195.048
20
-100.305
11
195.049
21
-100.306
0
LINE
8
BLACK
6
CONTINUOUS
10
195.049
20
-100.306
11
195.049
21
-100.311
0
LINE
8
BLACK
6
CONTINUOUS
10
195.049
20
-100.311
11
195.05
21
-100.315
0
LINE
8
BLACK
6
CONTINUOUS
10
195.05
20
-100.315
11
195.075
21
-100.794
0
LINE
8
BLACK
6
CONTINUOUS
10
195.075
20
-100.794
11
195.075
21
-100.796
0
LINE
8
BLACK
6
CONTINUOUS
10
195.075
20
-100.796
11
195.075
21
-130.804
0
LINE
8
BLACK
6
CONTINUOUS
10
195.075
20
-130.804
11
195.075
21
-130.807
0
LINE
8
BLACK
6
CONTINUOUS
10
195.075
20
-130.807
11
194.998
21
-131.645
0
LINE
8
BLACK
6
CONTINUOUS
10
194.998
20
-131.645
11
194.997
21
-131.647
0
LINE
8
BLACK
6
CONTINUOUS
10
194.997
20
-131.647
11
194.996
21
-131.653
0
LINE
8
BLACK
6
CONTINUOUS
10
194.996
20
-131.653
11
194.995
21
-131.659
0
LINE
8
BLACK
6
CONTINUOUS
10
194.995
20
-131.659
11
194.767
21
-132.469
0
LINE
8
BLACK
6
CONTINUOUS
10
194.767
20
-132.469
11
194.766
21
-132.471
0
LINE
8
BLACK
6
CONTINUOUS
10
194.766
20
-132.471
11
194.764
21
-132.476
0
LINE
8
BLACK
6
CONTINUOUS
10
194.764
20
-132.476
11
194.762
21
-132.482
0
LINE
8
BLACK
6
CONTINUOUS
10
194.762
20
-132.482
11
194.389
21
-133.237
0
LINE
8
BLACK
6
CONTINUOUS
10
194.389
20
-133.237
11
194.389
21
-133.237
0
LINE
8
BLACK
6
CONTINUOUS
10
194.389
20
-133.237
11
194.389
21
-133.237
0
LINE
8
BLACK
6
CONTINUOUS
10
194.389
20
-133.237
11
194.389
21
-133.238
0
LINE
8
BLACK
6
CONTINUOUS
10
194.389
20
-133.238
11
194.385
21
-133.243
0
LINE
8
BLACK
6
CONTINUOUS
10
194.385
20
-133.243
11
194.382
21
-133.248
0
LINE
8
BLACK
6
CONTINUOUS
10
194.382
20
-133.248
11
193.879
21
-133.923
0
LINE
8
BLACK
6
CONTINUOUS
10
193.879
20
-133.923
11
193.877
21
-133.924
0
LINE
8
BLACK
6
CONTINUOUS
10
193.877
20
-133.924
11
193.873
21
-133.929
0
LINE
8
BLACK
6
CONTINUOUS
10
193.873
20
-133.929
11
193.869
21
-133.933
0
LINE
8
BLACK
6
CONTINUOUS
10
193.869
20
-133.933
11
193.251
21
-134.504
0
LINE
8
BLACK
6
CONTINUOUS
10
193.251
20
-134.504
11
193.251
21
-134.504
0
LINE
8
BLACK
6
CONTINUOUS
10
193.251
20
-134.504
11
193.251
21
-134.505
0
LINE
8
BLACK
6
CONTINUOUS
10
193.251
20
-134.505
11
193.25
21
-134.506
0
LINE
8
BLACK
6
CONTINUOUS
10
193.25
20
-134.506
11
193.245
21
-134.509
0
LINE
8
BLACK
6
CONTINUOUS
10
193.245
20
-134.509
11
193.24
21
-134.513
0
LINE
8
BLACK
6
CONTINUOUS
10
193.24
20
-134.513
11
192.528
21
-134.962
0
LINE
8
BLACK
6
CONTINUOUS
10
192.528
20
-134.962
11
192.527
21
-134.963
0
LINE
8
BLACK
6
CONTINUOUS
10
192.527
20
-134.963
11
192.521
21
-134.966
0
LINE
8
BLACK
6
CONTINUOUS
10
192.521
20
-134.966
11
192.516
21
-134.968
0
LINE
8
BLACK
6
CONTINUOUS
10
192.516
20
-134.968
11
191.734
21
-135.28
0
LINE
8
BLACK
6
CONTINUOUS
10
191.734
20
-135.28
11
191.732
21
-135.281
0
LINE
8
BLACK
6
CONTINUOUS
10
191.732
20
-135.281
11
191.727
21
-135.282
0
LINE
8
BLACK
6
CONTINUOUS
10
191.727
20
-135.282
11
191.721
21
-135.284
0
LINE
8
BLACK
6
CONTINUOUS
10
191.721
20
-135.284
11
190.895
21
-135.448
0
LINE
8
BLACK
6
CONTINUOUS
10
190.895
20
-135.448
11
190.894
21
-135.449
0
LINE
8
BLACK
6
CONTINUOUS
10
190.894
20
-135.449
11
190.889
21
-135.449
0
LINE
8
BLACK
6
CONTINUOUS
10
190.889
20
-135.449
11
190.885
21
-135.45
0
LINE
8
BLACK
6
CONTINUOUS
10
190.885
20
-135.45
11
190.406
21
-135.475
0
LINE
8
BLACK
6
CONTINUOUS
10
190.406
20
-135.475
11
190.404
21
-135.475
0
LINE
8
BLACK
6
CONTINUOUS
10
190.404
20
-135.475
11
150.304
21
-135.475
0
LINE
8
BLACK
6
CONTINUOUS
10
150.304
20
-135.475
11
150.3
21
-135.475
0
LINE
8
BLACK
6
CONTINUOUS
10
150.3
20
-135.475
11
150.285
21
-135.474
0
LINE
8
BLACK
6
CONTINUOUS
10
150.285
20
-135.474
11
150.271
21
-135.47
0
LINE
8
BLACK
6
CONTINUOUS
10
150.271
20
-135.47
11
150.258
21
-135.463
0
LINE
8
BLACK
6
CONTINUOUS
10
150.258
20
-135.463
11
150.247
21
-135.453
0
LINE
8
BLACK
6
CONTINUOUS
10
150.247
20
-135.453
11
150.242
21
-135.448
0
LINE
8
BLACK
6
CONTINUOUS
10
150.242
20
-135.448
11
150.237
21
-135.442
0
LINE
8
BLACK
6
CONTINUOUS
10
150.237
20
-135.442
11
150.23
21
-135.429
0
LINE
8
BLACK
6
CONTINUOUS
10
150.23
20
-135.429
11
150.226
21
-135.415
0
LINE
8
BLACK
6
CONTINUOUS
10
150.226
20
-135.415
11
150.225
21
-135.4
0
LINE
8
BLACK
6
CONTINUOUS
10
150.225
20
-135.4
11
150.225
21
-135.396
0
LINE
8
BLACK
6
CONTINUOUS
10
150.225
20
-135.396
11
150.225
21
-96.2037
0
LINE
8
BLACK
6
CONTINUOUS
10
150.225
20
-96.2037
11
150.225
21
-96.2
0
LINE
8
BLACK
6
CONTINUOUS
10
150.225
20
-96.2
11
150.226
21
-96.1853
0
LINE
8
BLACK
6
CONTINUOUS
10
150.226
20
-96.1853
11
150.23
21
-96.1712
0
LINE
8
BLACK
6
CONTINUOUS
10
150.23
20
-96.1712
11
150.237
21
-96.1581
0
LINE
8
BLACK
6
CONTINUOUS
10
150.237
20
-96.1581
11
150.247
21
-96.1467
0
LINE
8
BLACK
6
CONTINUOUS
10
150.247
20
-96.1467
11
150.258
21
-96.1373
0
LINE
8
BLACK
6
CONTINUOUS
10
150.258
20
-96.1373
11
150.271
21
-96.1304
0
LINE
8
BLACK
6
CONTINUOUS
10
150.271
20
-96.1304
11
150.285
21
-96.1261
0
LINE
8
BLACK
6
CONTINUOUS
10
150.285
20
-96.1261
11
150.296
21
-96.125
0
LINE
8
BLACK
6
CONTINUOUS
10
150.296
20
-96.125
11
150.3
21
-96.1246
0
LINE
8
BLACK
6
CONTINUOUS
10
150.3
20
-96.1246
11
150.304
21
-96.125
0
LINE
8
BLACK
6
CONTINUOUS
10
150.375
20
-96.275
11
150.375
21
-135.325
0
LINE
8
BLACK
6
CONTINUOUS
10
150.375
20
-135.325
11
190.398
21
-135.325
0
LINE
8
BLACK
6
CONTINUOUS
10
190.398
20
-135.325
11
190.872
21
-135.3
0
LINE
8
BLACK
6
CONTINUOUS
10
190.872
20
-135.3
11
191.685
21
-135.138
0
LINE
8
BLACK
6
CONTINUOUS
10
191.685
20
-135.138
11
192.454
21
-134.832
0
LINE
8
BLACK
6
CONTINUOUS
10
192.454
20
-134.832
11
193.154
21
-134.39
0
LINE
8
BLACK
6
CONTINUOUS
10
193.154
20
-134.39
11
193.762
21
-133.828
0
LINE
8
BLACK
6
CONTINUOUS
10
193.762
20
-133.828
11
194.258
21
-133.164
0
LINE
8
BLACK
6
CONTINUOUS
10
194.258
20
-133.164
11
194.624
21
-132.422
0
LINE
8
BLACK
6
CONTINUOUS
10
194.624
20
-132.422
11
194.849
21
-131.625
0
LINE
8
BLACK
6
CONTINUOUS
10
194.849
20
-131.625
11
194.925
21
-130.797
0
LINE
8
BLACK
6
CONTINUOUS
10
194.925
20
-130.797
11
194.925
21
-100.802
0
LINE
8
BLACK
6
CONTINUOUS
10
194.925
20
-100.802
11
194.9
21
-100.328
0
LINE
8
BLACK
6
CONTINUOUS
10
194.9
20
-100.328
11
194.738
21
-99.5149
0
LINE
8
BLACK
6
CONTINUOUS
10
194.738
20
-99.5149
11
194.432
21
-98.7458
0
LINE
8
BLACK
6
CONTINUOUS
10
194.432
20
-98.7458
11
193.99
21
-98.0455
0
LINE
8
BLACK
6
CONTINUOUS
10
193.99
20
-98.0455
11
193.428
21
-97.4375
0
LINE
8
BLACK
6
CONTINUOUS
10
193.428
20
-97.4375
11
192.764
21
-96.9421
0
LINE
8
BLACK
6
CONTINUOUS
10
192.764
20
-96.9421
11
192.022
21
-96.5758
0
LINE
8
BLACK
6
CONTINUOUS
10
192.022
20
-96.5758
11
191.225
21
-96.3511
0
LINE
8
BLACK
6
CONTINUOUS
10
191.225
20
-96.3511
11
190.397
21
-96.275
0
LINE
8
BLACK
6
CONTINUOUS
10
190.397
20
-96.275
11
150.375
21
-96.275
  0
ENDSEC
  0
EOF
