G04 #@! TF.GenerationSoftware,KiCad,Pcbnew,5.1.2-f72e74a~84~ubuntu18.04.1*
G04 #@! TF.CreationDate,2019-07-31T21:01:39+02:00*
G04 #@! TF.ProjectId,Pulse_Arc_Welder_logic,50756c73-655f-4417-9263-5f57656c6465,rev?*
G04 #@! TF.SameCoordinates,Original*
G04 #@! TF.FileFunction,Paste,Top*
G04 #@! TF.FilePolarity,Positive*
%FSLAX46Y46*%
G04 Gerber Fmt 4.6, Leading zero omitted, Abs format (unit mm)*
G04 Created by KiCad (PCBNEW 5.1.2-f72e74a~84~ubuntu18.04.1) date 2019-07-31 21:01:39*
%MOMM*%
%LPD*%
G04 APERTURE LIST*
%ADD10C,0.100000*%
%ADD11C,0.875000*%
%ADD12R,0.650000X1.060000*%
%ADD13C,1.250000*%
%ADD14R,2.200000X1.200000*%
%ADD15R,3.050000X2.750000*%
%ADD16R,1.600000X1.600000*%
%ADD17C,2.075000*%
%ADD18R,0.550000X1.700000*%
%ADD19R,1.000000X0.900000*%
%ADD20R,1.700000X0.550000*%
%ADD21R,0.900000X1.000000*%
%ADD22C,0.100000*%
%ADD23R,0.400000X0.400000*%
%ADD24R,1.200000X0.800000*%
%ADD25R,0.600000X0.450000*%
%ADD26R,0.700000X0.600000*%
%ADD27C,0.450000*%
%ADD28R,0.900000X0.800000*%
G04 APERTURE END LIST*
D10*
G36*
X182852691Y-125826053D02*
G01*
X182873926Y-125829203D01*
X182894750Y-125834419D01*
X182914962Y-125841651D01*
X182934368Y-125850830D01*
X182952781Y-125861866D01*
X182970024Y-125874654D01*
X182985930Y-125889070D01*
X183000346Y-125904976D01*
X183013134Y-125922219D01*
X183024170Y-125940632D01*
X183033349Y-125960038D01*
X183040581Y-125980250D01*
X183045797Y-126001074D01*
X183048947Y-126022309D01*
X183050000Y-126043750D01*
X183050000Y-126556250D01*
X183048947Y-126577691D01*
X183045797Y-126598926D01*
X183040581Y-126619750D01*
X183033349Y-126639962D01*
X183024170Y-126659368D01*
X183013134Y-126677781D01*
X183000346Y-126695024D01*
X182985930Y-126710930D01*
X182970024Y-126725346D01*
X182952781Y-126738134D01*
X182934368Y-126749170D01*
X182914962Y-126758349D01*
X182894750Y-126765581D01*
X182873926Y-126770797D01*
X182852691Y-126773947D01*
X182831250Y-126775000D01*
X182393750Y-126775000D01*
X182372309Y-126773947D01*
X182351074Y-126770797D01*
X182330250Y-126765581D01*
X182310038Y-126758349D01*
X182290632Y-126749170D01*
X182272219Y-126738134D01*
X182254976Y-126725346D01*
X182239070Y-126710930D01*
X182224654Y-126695024D01*
X182211866Y-126677781D01*
X182200830Y-126659368D01*
X182191651Y-126639962D01*
X182184419Y-126619750D01*
X182179203Y-126598926D01*
X182176053Y-126577691D01*
X182175000Y-126556250D01*
X182175000Y-126043750D01*
X182176053Y-126022309D01*
X182179203Y-126001074D01*
X182184419Y-125980250D01*
X182191651Y-125960038D01*
X182200830Y-125940632D01*
X182211866Y-125922219D01*
X182224654Y-125904976D01*
X182239070Y-125889070D01*
X182254976Y-125874654D01*
X182272219Y-125861866D01*
X182290632Y-125850830D01*
X182310038Y-125841651D01*
X182330250Y-125834419D01*
X182351074Y-125829203D01*
X182372309Y-125826053D01*
X182393750Y-125825000D01*
X182831250Y-125825000D01*
X182852691Y-125826053D01*
X182852691Y-125826053D01*
G37*
D11*
X182612500Y-126300000D03*
D10*
G36*
X184427691Y-125826053D02*
G01*
X184448926Y-125829203D01*
X184469750Y-125834419D01*
X184489962Y-125841651D01*
X184509368Y-125850830D01*
X184527781Y-125861866D01*
X184545024Y-125874654D01*
X184560930Y-125889070D01*
X184575346Y-125904976D01*
X184588134Y-125922219D01*
X184599170Y-125940632D01*
X184608349Y-125960038D01*
X184615581Y-125980250D01*
X184620797Y-126001074D01*
X184623947Y-126022309D01*
X184625000Y-126043750D01*
X184625000Y-126556250D01*
X184623947Y-126577691D01*
X184620797Y-126598926D01*
X184615581Y-126619750D01*
X184608349Y-126639962D01*
X184599170Y-126659368D01*
X184588134Y-126677781D01*
X184575346Y-126695024D01*
X184560930Y-126710930D01*
X184545024Y-126725346D01*
X184527781Y-126738134D01*
X184509368Y-126749170D01*
X184489962Y-126758349D01*
X184469750Y-126765581D01*
X184448926Y-126770797D01*
X184427691Y-126773947D01*
X184406250Y-126775000D01*
X183968750Y-126775000D01*
X183947309Y-126773947D01*
X183926074Y-126770797D01*
X183905250Y-126765581D01*
X183885038Y-126758349D01*
X183865632Y-126749170D01*
X183847219Y-126738134D01*
X183829976Y-126725346D01*
X183814070Y-126710930D01*
X183799654Y-126695024D01*
X183786866Y-126677781D01*
X183775830Y-126659368D01*
X183766651Y-126639962D01*
X183759419Y-126619750D01*
X183754203Y-126598926D01*
X183751053Y-126577691D01*
X183750000Y-126556250D01*
X183750000Y-126043750D01*
X183751053Y-126022309D01*
X183754203Y-126001074D01*
X183759419Y-125980250D01*
X183766651Y-125960038D01*
X183775830Y-125940632D01*
X183786866Y-125922219D01*
X183799654Y-125904976D01*
X183814070Y-125889070D01*
X183829976Y-125874654D01*
X183847219Y-125861866D01*
X183865632Y-125850830D01*
X183885038Y-125841651D01*
X183905250Y-125834419D01*
X183926074Y-125829203D01*
X183947309Y-125826053D01*
X183968750Y-125825000D01*
X184406250Y-125825000D01*
X184427691Y-125826053D01*
X184427691Y-125826053D01*
G37*
D11*
X184187500Y-126300000D03*
D10*
G36*
X183607691Y-118901053D02*
G01*
X183628926Y-118904203D01*
X183649750Y-118909419D01*
X183669962Y-118916651D01*
X183689368Y-118925830D01*
X183707781Y-118936866D01*
X183725024Y-118949654D01*
X183740930Y-118964070D01*
X183755346Y-118979976D01*
X183768134Y-118997219D01*
X183779170Y-119015632D01*
X183788349Y-119035038D01*
X183795581Y-119055250D01*
X183800797Y-119076074D01*
X183803947Y-119097309D01*
X183805000Y-119118750D01*
X183805000Y-119556250D01*
X183803947Y-119577691D01*
X183800797Y-119598926D01*
X183795581Y-119619750D01*
X183788349Y-119639962D01*
X183779170Y-119659368D01*
X183768134Y-119677781D01*
X183755346Y-119695024D01*
X183740930Y-119710930D01*
X183725024Y-119725346D01*
X183707781Y-119738134D01*
X183689368Y-119749170D01*
X183669962Y-119758349D01*
X183649750Y-119765581D01*
X183628926Y-119770797D01*
X183607691Y-119773947D01*
X183586250Y-119775000D01*
X183073750Y-119775000D01*
X183052309Y-119773947D01*
X183031074Y-119770797D01*
X183010250Y-119765581D01*
X182990038Y-119758349D01*
X182970632Y-119749170D01*
X182952219Y-119738134D01*
X182934976Y-119725346D01*
X182919070Y-119710930D01*
X182904654Y-119695024D01*
X182891866Y-119677781D01*
X182880830Y-119659368D01*
X182871651Y-119639962D01*
X182864419Y-119619750D01*
X182859203Y-119598926D01*
X182856053Y-119577691D01*
X182855000Y-119556250D01*
X182855000Y-119118750D01*
X182856053Y-119097309D01*
X182859203Y-119076074D01*
X182864419Y-119055250D01*
X182871651Y-119035038D01*
X182880830Y-119015632D01*
X182891866Y-118997219D01*
X182904654Y-118979976D01*
X182919070Y-118964070D01*
X182934976Y-118949654D01*
X182952219Y-118936866D01*
X182970632Y-118925830D01*
X182990038Y-118916651D01*
X183010250Y-118909419D01*
X183031074Y-118904203D01*
X183052309Y-118901053D01*
X183073750Y-118900000D01*
X183586250Y-118900000D01*
X183607691Y-118901053D01*
X183607691Y-118901053D01*
G37*
D11*
X183330000Y-119337500D03*
D10*
G36*
X183607691Y-117326053D02*
G01*
X183628926Y-117329203D01*
X183649750Y-117334419D01*
X183669962Y-117341651D01*
X183689368Y-117350830D01*
X183707781Y-117361866D01*
X183725024Y-117374654D01*
X183740930Y-117389070D01*
X183755346Y-117404976D01*
X183768134Y-117422219D01*
X183779170Y-117440632D01*
X183788349Y-117460038D01*
X183795581Y-117480250D01*
X183800797Y-117501074D01*
X183803947Y-117522309D01*
X183805000Y-117543750D01*
X183805000Y-117981250D01*
X183803947Y-118002691D01*
X183800797Y-118023926D01*
X183795581Y-118044750D01*
X183788349Y-118064962D01*
X183779170Y-118084368D01*
X183768134Y-118102781D01*
X183755346Y-118120024D01*
X183740930Y-118135930D01*
X183725024Y-118150346D01*
X183707781Y-118163134D01*
X183689368Y-118174170D01*
X183669962Y-118183349D01*
X183649750Y-118190581D01*
X183628926Y-118195797D01*
X183607691Y-118198947D01*
X183586250Y-118200000D01*
X183073750Y-118200000D01*
X183052309Y-118198947D01*
X183031074Y-118195797D01*
X183010250Y-118190581D01*
X182990038Y-118183349D01*
X182970632Y-118174170D01*
X182952219Y-118163134D01*
X182934976Y-118150346D01*
X182919070Y-118135930D01*
X182904654Y-118120024D01*
X182891866Y-118102781D01*
X182880830Y-118084368D01*
X182871651Y-118064962D01*
X182864419Y-118044750D01*
X182859203Y-118023926D01*
X182856053Y-118002691D01*
X182855000Y-117981250D01*
X182855000Y-117543750D01*
X182856053Y-117522309D01*
X182859203Y-117501074D01*
X182864419Y-117480250D01*
X182871651Y-117460038D01*
X182880830Y-117440632D01*
X182891866Y-117422219D01*
X182904654Y-117404976D01*
X182919070Y-117389070D01*
X182934976Y-117374654D01*
X182952219Y-117361866D01*
X182970632Y-117350830D01*
X182990038Y-117341651D01*
X183010250Y-117334419D01*
X183031074Y-117329203D01*
X183052309Y-117326053D01*
X183073750Y-117325000D01*
X183586250Y-117325000D01*
X183607691Y-117326053D01*
X183607691Y-117326053D01*
G37*
D11*
X183330000Y-117762500D03*
D12*
X185750000Y-124600000D03*
X186700000Y-124600000D03*
X187650000Y-124600000D03*
X187650000Y-122400000D03*
X185750000Y-122400000D03*
D10*
G36*
X188027691Y-120326053D02*
G01*
X188048926Y-120329203D01*
X188069750Y-120334419D01*
X188089962Y-120341651D01*
X188109368Y-120350830D01*
X188127781Y-120361866D01*
X188145024Y-120374654D01*
X188160930Y-120389070D01*
X188175346Y-120404976D01*
X188188134Y-120422219D01*
X188199170Y-120440632D01*
X188208349Y-120460038D01*
X188215581Y-120480250D01*
X188220797Y-120501074D01*
X188223947Y-120522309D01*
X188225000Y-120543750D01*
X188225000Y-121056250D01*
X188223947Y-121077691D01*
X188220797Y-121098926D01*
X188215581Y-121119750D01*
X188208349Y-121139962D01*
X188199170Y-121159368D01*
X188188134Y-121177781D01*
X188175346Y-121195024D01*
X188160930Y-121210930D01*
X188145024Y-121225346D01*
X188127781Y-121238134D01*
X188109368Y-121249170D01*
X188089962Y-121258349D01*
X188069750Y-121265581D01*
X188048926Y-121270797D01*
X188027691Y-121273947D01*
X188006250Y-121275000D01*
X187568750Y-121275000D01*
X187547309Y-121273947D01*
X187526074Y-121270797D01*
X187505250Y-121265581D01*
X187485038Y-121258349D01*
X187465632Y-121249170D01*
X187447219Y-121238134D01*
X187429976Y-121225346D01*
X187414070Y-121210930D01*
X187399654Y-121195024D01*
X187386866Y-121177781D01*
X187375830Y-121159368D01*
X187366651Y-121139962D01*
X187359419Y-121119750D01*
X187354203Y-121098926D01*
X187351053Y-121077691D01*
X187350000Y-121056250D01*
X187350000Y-120543750D01*
X187351053Y-120522309D01*
X187354203Y-120501074D01*
X187359419Y-120480250D01*
X187366651Y-120460038D01*
X187375830Y-120440632D01*
X187386866Y-120422219D01*
X187399654Y-120404976D01*
X187414070Y-120389070D01*
X187429976Y-120374654D01*
X187447219Y-120361866D01*
X187465632Y-120350830D01*
X187485038Y-120341651D01*
X187505250Y-120334419D01*
X187526074Y-120329203D01*
X187547309Y-120326053D01*
X187568750Y-120325000D01*
X188006250Y-120325000D01*
X188027691Y-120326053D01*
X188027691Y-120326053D01*
G37*
D11*
X187787500Y-120800000D03*
D10*
G36*
X186452691Y-120326053D02*
G01*
X186473926Y-120329203D01*
X186494750Y-120334419D01*
X186514962Y-120341651D01*
X186534368Y-120350830D01*
X186552781Y-120361866D01*
X186570024Y-120374654D01*
X186585930Y-120389070D01*
X186600346Y-120404976D01*
X186613134Y-120422219D01*
X186624170Y-120440632D01*
X186633349Y-120460038D01*
X186640581Y-120480250D01*
X186645797Y-120501074D01*
X186648947Y-120522309D01*
X186650000Y-120543750D01*
X186650000Y-121056250D01*
X186648947Y-121077691D01*
X186645797Y-121098926D01*
X186640581Y-121119750D01*
X186633349Y-121139962D01*
X186624170Y-121159368D01*
X186613134Y-121177781D01*
X186600346Y-121195024D01*
X186585930Y-121210930D01*
X186570024Y-121225346D01*
X186552781Y-121238134D01*
X186534368Y-121249170D01*
X186514962Y-121258349D01*
X186494750Y-121265581D01*
X186473926Y-121270797D01*
X186452691Y-121273947D01*
X186431250Y-121275000D01*
X185993750Y-121275000D01*
X185972309Y-121273947D01*
X185951074Y-121270797D01*
X185930250Y-121265581D01*
X185910038Y-121258349D01*
X185890632Y-121249170D01*
X185872219Y-121238134D01*
X185854976Y-121225346D01*
X185839070Y-121210930D01*
X185824654Y-121195024D01*
X185811866Y-121177781D01*
X185800830Y-121159368D01*
X185791651Y-121139962D01*
X185784419Y-121119750D01*
X185779203Y-121098926D01*
X185776053Y-121077691D01*
X185775000Y-121056250D01*
X185775000Y-120543750D01*
X185776053Y-120522309D01*
X185779203Y-120501074D01*
X185784419Y-120480250D01*
X185791651Y-120460038D01*
X185800830Y-120440632D01*
X185811866Y-120422219D01*
X185824654Y-120404976D01*
X185839070Y-120389070D01*
X185854976Y-120374654D01*
X185872219Y-120361866D01*
X185890632Y-120350830D01*
X185910038Y-120341651D01*
X185930250Y-120334419D01*
X185951074Y-120329203D01*
X185972309Y-120326053D01*
X185993750Y-120325000D01*
X186431250Y-120325000D01*
X186452691Y-120326053D01*
X186452691Y-120326053D01*
G37*
D11*
X186212500Y-120800000D03*
D10*
G36*
X189452691Y-120326053D02*
G01*
X189473926Y-120329203D01*
X189494750Y-120334419D01*
X189514962Y-120341651D01*
X189534368Y-120350830D01*
X189552781Y-120361866D01*
X189570024Y-120374654D01*
X189585930Y-120389070D01*
X189600346Y-120404976D01*
X189613134Y-120422219D01*
X189624170Y-120440632D01*
X189633349Y-120460038D01*
X189640581Y-120480250D01*
X189645797Y-120501074D01*
X189648947Y-120522309D01*
X189650000Y-120543750D01*
X189650000Y-121056250D01*
X189648947Y-121077691D01*
X189645797Y-121098926D01*
X189640581Y-121119750D01*
X189633349Y-121139962D01*
X189624170Y-121159368D01*
X189613134Y-121177781D01*
X189600346Y-121195024D01*
X189585930Y-121210930D01*
X189570024Y-121225346D01*
X189552781Y-121238134D01*
X189534368Y-121249170D01*
X189514962Y-121258349D01*
X189494750Y-121265581D01*
X189473926Y-121270797D01*
X189452691Y-121273947D01*
X189431250Y-121275000D01*
X188993750Y-121275000D01*
X188972309Y-121273947D01*
X188951074Y-121270797D01*
X188930250Y-121265581D01*
X188910038Y-121258349D01*
X188890632Y-121249170D01*
X188872219Y-121238134D01*
X188854976Y-121225346D01*
X188839070Y-121210930D01*
X188824654Y-121195024D01*
X188811866Y-121177781D01*
X188800830Y-121159368D01*
X188791651Y-121139962D01*
X188784419Y-121119750D01*
X188779203Y-121098926D01*
X188776053Y-121077691D01*
X188775000Y-121056250D01*
X188775000Y-120543750D01*
X188776053Y-120522309D01*
X188779203Y-120501074D01*
X188784419Y-120480250D01*
X188791651Y-120460038D01*
X188800830Y-120440632D01*
X188811866Y-120422219D01*
X188824654Y-120404976D01*
X188839070Y-120389070D01*
X188854976Y-120374654D01*
X188872219Y-120361866D01*
X188890632Y-120350830D01*
X188910038Y-120341651D01*
X188930250Y-120334419D01*
X188951074Y-120329203D01*
X188972309Y-120326053D01*
X188993750Y-120325000D01*
X189431250Y-120325000D01*
X189452691Y-120326053D01*
X189452691Y-120326053D01*
G37*
D11*
X189212500Y-120800000D03*
D10*
G36*
X191027691Y-120326053D02*
G01*
X191048926Y-120329203D01*
X191069750Y-120334419D01*
X191089962Y-120341651D01*
X191109368Y-120350830D01*
X191127781Y-120361866D01*
X191145024Y-120374654D01*
X191160930Y-120389070D01*
X191175346Y-120404976D01*
X191188134Y-120422219D01*
X191199170Y-120440632D01*
X191208349Y-120460038D01*
X191215581Y-120480250D01*
X191220797Y-120501074D01*
X191223947Y-120522309D01*
X191225000Y-120543750D01*
X191225000Y-121056250D01*
X191223947Y-121077691D01*
X191220797Y-121098926D01*
X191215581Y-121119750D01*
X191208349Y-121139962D01*
X191199170Y-121159368D01*
X191188134Y-121177781D01*
X191175346Y-121195024D01*
X191160930Y-121210930D01*
X191145024Y-121225346D01*
X191127781Y-121238134D01*
X191109368Y-121249170D01*
X191089962Y-121258349D01*
X191069750Y-121265581D01*
X191048926Y-121270797D01*
X191027691Y-121273947D01*
X191006250Y-121275000D01*
X190568750Y-121275000D01*
X190547309Y-121273947D01*
X190526074Y-121270797D01*
X190505250Y-121265581D01*
X190485038Y-121258349D01*
X190465632Y-121249170D01*
X190447219Y-121238134D01*
X190429976Y-121225346D01*
X190414070Y-121210930D01*
X190399654Y-121195024D01*
X190386866Y-121177781D01*
X190375830Y-121159368D01*
X190366651Y-121139962D01*
X190359419Y-121119750D01*
X190354203Y-121098926D01*
X190351053Y-121077691D01*
X190350000Y-121056250D01*
X190350000Y-120543750D01*
X190351053Y-120522309D01*
X190354203Y-120501074D01*
X190359419Y-120480250D01*
X190366651Y-120460038D01*
X190375830Y-120440632D01*
X190386866Y-120422219D01*
X190399654Y-120404976D01*
X190414070Y-120389070D01*
X190429976Y-120374654D01*
X190447219Y-120361866D01*
X190465632Y-120350830D01*
X190485038Y-120341651D01*
X190505250Y-120334419D01*
X190526074Y-120329203D01*
X190547309Y-120326053D01*
X190568750Y-120325000D01*
X191006250Y-120325000D01*
X191027691Y-120326053D01*
X191027691Y-120326053D01*
G37*
D11*
X190787500Y-120800000D03*
D10*
G36*
X174399504Y-111076204D02*
G01*
X174423773Y-111079804D01*
X174447571Y-111085765D01*
X174470671Y-111094030D01*
X174492849Y-111104520D01*
X174513893Y-111117133D01*
X174533598Y-111131747D01*
X174551777Y-111148223D01*
X174568253Y-111166402D01*
X174582867Y-111186107D01*
X174595480Y-111207151D01*
X174605970Y-111229329D01*
X174614235Y-111252429D01*
X174620196Y-111276227D01*
X174623796Y-111300496D01*
X174625000Y-111325000D01*
X174625000Y-113475000D01*
X174623796Y-113499504D01*
X174620196Y-113523773D01*
X174614235Y-113547571D01*
X174605970Y-113570671D01*
X174595480Y-113592849D01*
X174582867Y-113613893D01*
X174568253Y-113633598D01*
X174551777Y-113651777D01*
X174533598Y-113668253D01*
X174513893Y-113682867D01*
X174492849Y-113695480D01*
X174470671Y-113705970D01*
X174447571Y-113714235D01*
X174423773Y-113720196D01*
X174399504Y-113723796D01*
X174375000Y-113725000D01*
X173625000Y-113725000D01*
X173600496Y-113723796D01*
X173576227Y-113720196D01*
X173552429Y-113714235D01*
X173529329Y-113705970D01*
X173507151Y-113695480D01*
X173486107Y-113682867D01*
X173466402Y-113668253D01*
X173448223Y-113651777D01*
X173431747Y-113633598D01*
X173417133Y-113613893D01*
X173404520Y-113592849D01*
X173394030Y-113570671D01*
X173385765Y-113547571D01*
X173379804Y-113523773D01*
X173376204Y-113499504D01*
X173375000Y-113475000D01*
X173375000Y-111325000D01*
X173376204Y-111300496D01*
X173379804Y-111276227D01*
X173385765Y-111252429D01*
X173394030Y-111229329D01*
X173404520Y-111207151D01*
X173417133Y-111186107D01*
X173431747Y-111166402D01*
X173448223Y-111148223D01*
X173466402Y-111131747D01*
X173486107Y-111117133D01*
X173507151Y-111104520D01*
X173529329Y-111094030D01*
X173552429Y-111085765D01*
X173576227Y-111079804D01*
X173600496Y-111076204D01*
X173625000Y-111075000D01*
X174375000Y-111075000D01*
X174399504Y-111076204D01*
X174399504Y-111076204D01*
G37*
D13*
X174000000Y-112400000D03*
D10*
G36*
X177199504Y-111076204D02*
G01*
X177223773Y-111079804D01*
X177247571Y-111085765D01*
X177270671Y-111094030D01*
X177292849Y-111104520D01*
X177313893Y-111117133D01*
X177333598Y-111131747D01*
X177351777Y-111148223D01*
X177368253Y-111166402D01*
X177382867Y-111186107D01*
X177395480Y-111207151D01*
X177405970Y-111229329D01*
X177414235Y-111252429D01*
X177420196Y-111276227D01*
X177423796Y-111300496D01*
X177425000Y-111325000D01*
X177425000Y-113475000D01*
X177423796Y-113499504D01*
X177420196Y-113523773D01*
X177414235Y-113547571D01*
X177405970Y-113570671D01*
X177395480Y-113592849D01*
X177382867Y-113613893D01*
X177368253Y-113633598D01*
X177351777Y-113651777D01*
X177333598Y-113668253D01*
X177313893Y-113682867D01*
X177292849Y-113695480D01*
X177270671Y-113705970D01*
X177247571Y-113714235D01*
X177223773Y-113720196D01*
X177199504Y-113723796D01*
X177175000Y-113725000D01*
X176425000Y-113725000D01*
X176400496Y-113723796D01*
X176376227Y-113720196D01*
X176352429Y-113714235D01*
X176329329Y-113705970D01*
X176307151Y-113695480D01*
X176286107Y-113682867D01*
X176266402Y-113668253D01*
X176248223Y-113651777D01*
X176231747Y-113633598D01*
X176217133Y-113613893D01*
X176204520Y-113592849D01*
X176194030Y-113570671D01*
X176185765Y-113547571D01*
X176179804Y-113523773D01*
X176176204Y-113499504D01*
X176175000Y-113475000D01*
X176175000Y-111325000D01*
X176176204Y-111300496D01*
X176179804Y-111276227D01*
X176185765Y-111252429D01*
X176194030Y-111229329D01*
X176204520Y-111207151D01*
X176217133Y-111186107D01*
X176231747Y-111166402D01*
X176248223Y-111148223D01*
X176266402Y-111131747D01*
X176286107Y-111117133D01*
X176307151Y-111104520D01*
X176329329Y-111094030D01*
X176352429Y-111085765D01*
X176376227Y-111079804D01*
X176400496Y-111076204D01*
X176425000Y-111075000D01*
X177175000Y-111075000D01*
X177199504Y-111076204D01*
X177199504Y-111076204D01*
G37*
D13*
X176800000Y-112400000D03*
D14*
X192800000Y-111380000D03*
X192800000Y-106820000D03*
D15*
X184825000Y-107575000D03*
X188175000Y-110625000D03*
X184825000Y-110625000D03*
X188175000Y-107575000D03*
D10*
G36*
X157677691Y-130026053D02*
G01*
X157698926Y-130029203D01*
X157719750Y-130034419D01*
X157739962Y-130041651D01*
X157759368Y-130050830D01*
X157777781Y-130061866D01*
X157795024Y-130074654D01*
X157810930Y-130089070D01*
X157825346Y-130104976D01*
X157838134Y-130122219D01*
X157849170Y-130140632D01*
X157858349Y-130160038D01*
X157865581Y-130180250D01*
X157870797Y-130201074D01*
X157873947Y-130222309D01*
X157875000Y-130243750D01*
X157875000Y-130681250D01*
X157873947Y-130702691D01*
X157870797Y-130723926D01*
X157865581Y-130744750D01*
X157858349Y-130764962D01*
X157849170Y-130784368D01*
X157838134Y-130802781D01*
X157825346Y-130820024D01*
X157810930Y-130835930D01*
X157795024Y-130850346D01*
X157777781Y-130863134D01*
X157759368Y-130874170D01*
X157739962Y-130883349D01*
X157719750Y-130890581D01*
X157698926Y-130895797D01*
X157677691Y-130898947D01*
X157656250Y-130900000D01*
X157143750Y-130900000D01*
X157122309Y-130898947D01*
X157101074Y-130895797D01*
X157080250Y-130890581D01*
X157060038Y-130883349D01*
X157040632Y-130874170D01*
X157022219Y-130863134D01*
X157004976Y-130850346D01*
X156989070Y-130835930D01*
X156974654Y-130820024D01*
X156961866Y-130802781D01*
X156950830Y-130784368D01*
X156941651Y-130764962D01*
X156934419Y-130744750D01*
X156929203Y-130723926D01*
X156926053Y-130702691D01*
X156925000Y-130681250D01*
X156925000Y-130243750D01*
X156926053Y-130222309D01*
X156929203Y-130201074D01*
X156934419Y-130180250D01*
X156941651Y-130160038D01*
X156950830Y-130140632D01*
X156961866Y-130122219D01*
X156974654Y-130104976D01*
X156989070Y-130089070D01*
X157004976Y-130074654D01*
X157022219Y-130061866D01*
X157040632Y-130050830D01*
X157060038Y-130041651D01*
X157080250Y-130034419D01*
X157101074Y-130029203D01*
X157122309Y-130026053D01*
X157143750Y-130025000D01*
X157656250Y-130025000D01*
X157677691Y-130026053D01*
X157677691Y-130026053D01*
G37*
D11*
X157400000Y-130462500D03*
D10*
G36*
X157677691Y-131601053D02*
G01*
X157698926Y-131604203D01*
X157719750Y-131609419D01*
X157739962Y-131616651D01*
X157759368Y-131625830D01*
X157777781Y-131636866D01*
X157795024Y-131649654D01*
X157810930Y-131664070D01*
X157825346Y-131679976D01*
X157838134Y-131697219D01*
X157849170Y-131715632D01*
X157858349Y-131735038D01*
X157865581Y-131755250D01*
X157870797Y-131776074D01*
X157873947Y-131797309D01*
X157875000Y-131818750D01*
X157875000Y-132256250D01*
X157873947Y-132277691D01*
X157870797Y-132298926D01*
X157865581Y-132319750D01*
X157858349Y-132339962D01*
X157849170Y-132359368D01*
X157838134Y-132377781D01*
X157825346Y-132395024D01*
X157810930Y-132410930D01*
X157795024Y-132425346D01*
X157777781Y-132438134D01*
X157759368Y-132449170D01*
X157739962Y-132458349D01*
X157719750Y-132465581D01*
X157698926Y-132470797D01*
X157677691Y-132473947D01*
X157656250Y-132475000D01*
X157143750Y-132475000D01*
X157122309Y-132473947D01*
X157101074Y-132470797D01*
X157080250Y-132465581D01*
X157060038Y-132458349D01*
X157040632Y-132449170D01*
X157022219Y-132438134D01*
X157004976Y-132425346D01*
X156989070Y-132410930D01*
X156974654Y-132395024D01*
X156961866Y-132377781D01*
X156950830Y-132359368D01*
X156941651Y-132339962D01*
X156934419Y-132319750D01*
X156929203Y-132298926D01*
X156926053Y-132277691D01*
X156925000Y-132256250D01*
X156925000Y-131818750D01*
X156926053Y-131797309D01*
X156929203Y-131776074D01*
X156934419Y-131755250D01*
X156941651Y-131735038D01*
X156950830Y-131715632D01*
X156961866Y-131697219D01*
X156974654Y-131679976D01*
X156989070Y-131664070D01*
X157004976Y-131649654D01*
X157022219Y-131636866D01*
X157040632Y-131625830D01*
X157060038Y-131616651D01*
X157080250Y-131609419D01*
X157101074Y-131604203D01*
X157122309Y-131601053D01*
X157143750Y-131600000D01*
X157656250Y-131600000D01*
X157677691Y-131601053D01*
X157677691Y-131601053D01*
G37*
D11*
X157400000Y-132037500D03*
D10*
G36*
X175427691Y-116626053D02*
G01*
X175448926Y-116629203D01*
X175469750Y-116634419D01*
X175489962Y-116641651D01*
X175509368Y-116650830D01*
X175527781Y-116661866D01*
X175545024Y-116674654D01*
X175560930Y-116689070D01*
X175575346Y-116704976D01*
X175588134Y-116722219D01*
X175599170Y-116740632D01*
X175608349Y-116760038D01*
X175615581Y-116780250D01*
X175620797Y-116801074D01*
X175623947Y-116822309D01*
X175625000Y-116843750D01*
X175625000Y-117356250D01*
X175623947Y-117377691D01*
X175620797Y-117398926D01*
X175615581Y-117419750D01*
X175608349Y-117439962D01*
X175599170Y-117459368D01*
X175588134Y-117477781D01*
X175575346Y-117495024D01*
X175560930Y-117510930D01*
X175545024Y-117525346D01*
X175527781Y-117538134D01*
X175509368Y-117549170D01*
X175489962Y-117558349D01*
X175469750Y-117565581D01*
X175448926Y-117570797D01*
X175427691Y-117573947D01*
X175406250Y-117575000D01*
X174968750Y-117575000D01*
X174947309Y-117573947D01*
X174926074Y-117570797D01*
X174905250Y-117565581D01*
X174885038Y-117558349D01*
X174865632Y-117549170D01*
X174847219Y-117538134D01*
X174829976Y-117525346D01*
X174814070Y-117510930D01*
X174799654Y-117495024D01*
X174786866Y-117477781D01*
X174775830Y-117459368D01*
X174766651Y-117439962D01*
X174759419Y-117419750D01*
X174754203Y-117398926D01*
X174751053Y-117377691D01*
X174750000Y-117356250D01*
X174750000Y-116843750D01*
X174751053Y-116822309D01*
X174754203Y-116801074D01*
X174759419Y-116780250D01*
X174766651Y-116760038D01*
X174775830Y-116740632D01*
X174786866Y-116722219D01*
X174799654Y-116704976D01*
X174814070Y-116689070D01*
X174829976Y-116674654D01*
X174847219Y-116661866D01*
X174865632Y-116650830D01*
X174885038Y-116641651D01*
X174905250Y-116634419D01*
X174926074Y-116629203D01*
X174947309Y-116626053D01*
X174968750Y-116625000D01*
X175406250Y-116625000D01*
X175427691Y-116626053D01*
X175427691Y-116626053D01*
G37*
D11*
X175187500Y-117100000D03*
D10*
G36*
X173852691Y-116626053D02*
G01*
X173873926Y-116629203D01*
X173894750Y-116634419D01*
X173914962Y-116641651D01*
X173934368Y-116650830D01*
X173952781Y-116661866D01*
X173970024Y-116674654D01*
X173985930Y-116689070D01*
X174000346Y-116704976D01*
X174013134Y-116722219D01*
X174024170Y-116740632D01*
X174033349Y-116760038D01*
X174040581Y-116780250D01*
X174045797Y-116801074D01*
X174048947Y-116822309D01*
X174050000Y-116843750D01*
X174050000Y-117356250D01*
X174048947Y-117377691D01*
X174045797Y-117398926D01*
X174040581Y-117419750D01*
X174033349Y-117439962D01*
X174024170Y-117459368D01*
X174013134Y-117477781D01*
X174000346Y-117495024D01*
X173985930Y-117510930D01*
X173970024Y-117525346D01*
X173952781Y-117538134D01*
X173934368Y-117549170D01*
X173914962Y-117558349D01*
X173894750Y-117565581D01*
X173873926Y-117570797D01*
X173852691Y-117573947D01*
X173831250Y-117575000D01*
X173393750Y-117575000D01*
X173372309Y-117573947D01*
X173351074Y-117570797D01*
X173330250Y-117565581D01*
X173310038Y-117558349D01*
X173290632Y-117549170D01*
X173272219Y-117538134D01*
X173254976Y-117525346D01*
X173239070Y-117510930D01*
X173224654Y-117495024D01*
X173211866Y-117477781D01*
X173200830Y-117459368D01*
X173191651Y-117439962D01*
X173184419Y-117419750D01*
X173179203Y-117398926D01*
X173176053Y-117377691D01*
X173175000Y-117356250D01*
X173175000Y-116843750D01*
X173176053Y-116822309D01*
X173179203Y-116801074D01*
X173184419Y-116780250D01*
X173191651Y-116760038D01*
X173200830Y-116740632D01*
X173211866Y-116722219D01*
X173224654Y-116704976D01*
X173239070Y-116689070D01*
X173254976Y-116674654D01*
X173272219Y-116661866D01*
X173290632Y-116650830D01*
X173310038Y-116641651D01*
X173330250Y-116634419D01*
X173351074Y-116629203D01*
X173372309Y-116626053D01*
X173393750Y-116625000D01*
X173831250Y-116625000D01*
X173852691Y-116626053D01*
X173852691Y-116626053D01*
G37*
D11*
X173612500Y-117100000D03*
D10*
G36*
X157177691Y-106551053D02*
G01*
X157198926Y-106554203D01*
X157219750Y-106559419D01*
X157239962Y-106566651D01*
X157259368Y-106575830D01*
X157277781Y-106586866D01*
X157295024Y-106599654D01*
X157310930Y-106614070D01*
X157325346Y-106629976D01*
X157338134Y-106647219D01*
X157349170Y-106665632D01*
X157358349Y-106685038D01*
X157365581Y-106705250D01*
X157370797Y-106726074D01*
X157373947Y-106747309D01*
X157375000Y-106768750D01*
X157375000Y-107206250D01*
X157373947Y-107227691D01*
X157370797Y-107248926D01*
X157365581Y-107269750D01*
X157358349Y-107289962D01*
X157349170Y-107309368D01*
X157338134Y-107327781D01*
X157325346Y-107345024D01*
X157310930Y-107360930D01*
X157295024Y-107375346D01*
X157277781Y-107388134D01*
X157259368Y-107399170D01*
X157239962Y-107408349D01*
X157219750Y-107415581D01*
X157198926Y-107420797D01*
X157177691Y-107423947D01*
X157156250Y-107425000D01*
X156643750Y-107425000D01*
X156622309Y-107423947D01*
X156601074Y-107420797D01*
X156580250Y-107415581D01*
X156560038Y-107408349D01*
X156540632Y-107399170D01*
X156522219Y-107388134D01*
X156504976Y-107375346D01*
X156489070Y-107360930D01*
X156474654Y-107345024D01*
X156461866Y-107327781D01*
X156450830Y-107309368D01*
X156441651Y-107289962D01*
X156434419Y-107269750D01*
X156429203Y-107248926D01*
X156426053Y-107227691D01*
X156425000Y-107206250D01*
X156425000Y-106768750D01*
X156426053Y-106747309D01*
X156429203Y-106726074D01*
X156434419Y-106705250D01*
X156441651Y-106685038D01*
X156450830Y-106665632D01*
X156461866Y-106647219D01*
X156474654Y-106629976D01*
X156489070Y-106614070D01*
X156504976Y-106599654D01*
X156522219Y-106586866D01*
X156540632Y-106575830D01*
X156560038Y-106566651D01*
X156580250Y-106559419D01*
X156601074Y-106554203D01*
X156622309Y-106551053D01*
X156643750Y-106550000D01*
X157156250Y-106550000D01*
X157177691Y-106551053D01*
X157177691Y-106551053D01*
G37*
D11*
X156900000Y-106987500D03*
D10*
G36*
X157177691Y-104976053D02*
G01*
X157198926Y-104979203D01*
X157219750Y-104984419D01*
X157239962Y-104991651D01*
X157259368Y-105000830D01*
X157277781Y-105011866D01*
X157295024Y-105024654D01*
X157310930Y-105039070D01*
X157325346Y-105054976D01*
X157338134Y-105072219D01*
X157349170Y-105090632D01*
X157358349Y-105110038D01*
X157365581Y-105130250D01*
X157370797Y-105151074D01*
X157373947Y-105172309D01*
X157375000Y-105193750D01*
X157375000Y-105631250D01*
X157373947Y-105652691D01*
X157370797Y-105673926D01*
X157365581Y-105694750D01*
X157358349Y-105714962D01*
X157349170Y-105734368D01*
X157338134Y-105752781D01*
X157325346Y-105770024D01*
X157310930Y-105785930D01*
X157295024Y-105800346D01*
X157277781Y-105813134D01*
X157259368Y-105824170D01*
X157239962Y-105833349D01*
X157219750Y-105840581D01*
X157198926Y-105845797D01*
X157177691Y-105848947D01*
X157156250Y-105850000D01*
X156643750Y-105850000D01*
X156622309Y-105848947D01*
X156601074Y-105845797D01*
X156580250Y-105840581D01*
X156560038Y-105833349D01*
X156540632Y-105824170D01*
X156522219Y-105813134D01*
X156504976Y-105800346D01*
X156489070Y-105785930D01*
X156474654Y-105770024D01*
X156461866Y-105752781D01*
X156450830Y-105734368D01*
X156441651Y-105714962D01*
X156434419Y-105694750D01*
X156429203Y-105673926D01*
X156426053Y-105652691D01*
X156425000Y-105631250D01*
X156425000Y-105193750D01*
X156426053Y-105172309D01*
X156429203Y-105151074D01*
X156434419Y-105130250D01*
X156441651Y-105110038D01*
X156450830Y-105090632D01*
X156461866Y-105072219D01*
X156474654Y-105054976D01*
X156489070Y-105039070D01*
X156504976Y-105024654D01*
X156522219Y-105011866D01*
X156540632Y-105000830D01*
X156560038Y-104991651D01*
X156580250Y-104984419D01*
X156601074Y-104979203D01*
X156622309Y-104976053D01*
X156643750Y-104975000D01*
X157156250Y-104975000D01*
X157177691Y-104976053D01*
X157177691Y-104976053D01*
G37*
D11*
X156900000Y-105412500D03*
D10*
G36*
X170077691Y-101251053D02*
G01*
X170098926Y-101254203D01*
X170119750Y-101259419D01*
X170139962Y-101266651D01*
X170159368Y-101275830D01*
X170177781Y-101286866D01*
X170195024Y-101299654D01*
X170210930Y-101314070D01*
X170225346Y-101329976D01*
X170238134Y-101347219D01*
X170249170Y-101365632D01*
X170258349Y-101385038D01*
X170265581Y-101405250D01*
X170270797Y-101426074D01*
X170273947Y-101447309D01*
X170275000Y-101468750D01*
X170275000Y-101906250D01*
X170273947Y-101927691D01*
X170270797Y-101948926D01*
X170265581Y-101969750D01*
X170258349Y-101989962D01*
X170249170Y-102009368D01*
X170238134Y-102027781D01*
X170225346Y-102045024D01*
X170210930Y-102060930D01*
X170195024Y-102075346D01*
X170177781Y-102088134D01*
X170159368Y-102099170D01*
X170139962Y-102108349D01*
X170119750Y-102115581D01*
X170098926Y-102120797D01*
X170077691Y-102123947D01*
X170056250Y-102125000D01*
X169543750Y-102125000D01*
X169522309Y-102123947D01*
X169501074Y-102120797D01*
X169480250Y-102115581D01*
X169460038Y-102108349D01*
X169440632Y-102099170D01*
X169422219Y-102088134D01*
X169404976Y-102075346D01*
X169389070Y-102060930D01*
X169374654Y-102045024D01*
X169361866Y-102027781D01*
X169350830Y-102009368D01*
X169341651Y-101989962D01*
X169334419Y-101969750D01*
X169329203Y-101948926D01*
X169326053Y-101927691D01*
X169325000Y-101906250D01*
X169325000Y-101468750D01*
X169326053Y-101447309D01*
X169329203Y-101426074D01*
X169334419Y-101405250D01*
X169341651Y-101385038D01*
X169350830Y-101365632D01*
X169361866Y-101347219D01*
X169374654Y-101329976D01*
X169389070Y-101314070D01*
X169404976Y-101299654D01*
X169422219Y-101286866D01*
X169440632Y-101275830D01*
X169460038Y-101266651D01*
X169480250Y-101259419D01*
X169501074Y-101254203D01*
X169522309Y-101251053D01*
X169543750Y-101250000D01*
X170056250Y-101250000D01*
X170077691Y-101251053D01*
X170077691Y-101251053D01*
G37*
D11*
X169800000Y-101687500D03*
D10*
G36*
X170077691Y-99676053D02*
G01*
X170098926Y-99679203D01*
X170119750Y-99684419D01*
X170139962Y-99691651D01*
X170159368Y-99700830D01*
X170177781Y-99711866D01*
X170195024Y-99724654D01*
X170210930Y-99739070D01*
X170225346Y-99754976D01*
X170238134Y-99772219D01*
X170249170Y-99790632D01*
X170258349Y-99810038D01*
X170265581Y-99830250D01*
X170270797Y-99851074D01*
X170273947Y-99872309D01*
X170275000Y-99893750D01*
X170275000Y-100331250D01*
X170273947Y-100352691D01*
X170270797Y-100373926D01*
X170265581Y-100394750D01*
X170258349Y-100414962D01*
X170249170Y-100434368D01*
X170238134Y-100452781D01*
X170225346Y-100470024D01*
X170210930Y-100485930D01*
X170195024Y-100500346D01*
X170177781Y-100513134D01*
X170159368Y-100524170D01*
X170139962Y-100533349D01*
X170119750Y-100540581D01*
X170098926Y-100545797D01*
X170077691Y-100548947D01*
X170056250Y-100550000D01*
X169543750Y-100550000D01*
X169522309Y-100548947D01*
X169501074Y-100545797D01*
X169480250Y-100540581D01*
X169460038Y-100533349D01*
X169440632Y-100524170D01*
X169422219Y-100513134D01*
X169404976Y-100500346D01*
X169389070Y-100485930D01*
X169374654Y-100470024D01*
X169361866Y-100452781D01*
X169350830Y-100434368D01*
X169341651Y-100414962D01*
X169334419Y-100394750D01*
X169329203Y-100373926D01*
X169326053Y-100352691D01*
X169325000Y-100331250D01*
X169325000Y-99893750D01*
X169326053Y-99872309D01*
X169329203Y-99851074D01*
X169334419Y-99830250D01*
X169341651Y-99810038D01*
X169350830Y-99790632D01*
X169361866Y-99772219D01*
X169374654Y-99754976D01*
X169389070Y-99739070D01*
X169404976Y-99724654D01*
X169422219Y-99711866D01*
X169440632Y-99700830D01*
X169460038Y-99691651D01*
X169480250Y-99684419D01*
X169501074Y-99679203D01*
X169522309Y-99676053D01*
X169543750Y-99675000D01*
X170056250Y-99675000D01*
X170077691Y-99676053D01*
X170077691Y-99676053D01*
G37*
D11*
X169800000Y-100112500D03*
D10*
G36*
X164191111Y-120989580D02*
G01*
X164212346Y-120992730D01*
X164233170Y-120997946D01*
X164253382Y-121005178D01*
X164272788Y-121014357D01*
X164291201Y-121025393D01*
X164308444Y-121038181D01*
X164324350Y-121052597D01*
X164633709Y-121361956D01*
X164648125Y-121377862D01*
X164660913Y-121395105D01*
X164671949Y-121413518D01*
X164681128Y-121432924D01*
X164688360Y-121453136D01*
X164693576Y-121473960D01*
X164696726Y-121495195D01*
X164697779Y-121516636D01*
X164696726Y-121538077D01*
X164693576Y-121559312D01*
X164688360Y-121580136D01*
X164681128Y-121600348D01*
X164671949Y-121619754D01*
X164660913Y-121638167D01*
X164648125Y-121655410D01*
X164633709Y-121671316D01*
X164271316Y-122033709D01*
X164255410Y-122048125D01*
X164238167Y-122060913D01*
X164219754Y-122071949D01*
X164200348Y-122081128D01*
X164180136Y-122088360D01*
X164159312Y-122093576D01*
X164138077Y-122096726D01*
X164116636Y-122097779D01*
X164095195Y-122096726D01*
X164073960Y-122093576D01*
X164053136Y-122088360D01*
X164032924Y-122081128D01*
X164013518Y-122071949D01*
X163995105Y-122060913D01*
X163977862Y-122048125D01*
X163961956Y-122033709D01*
X163652597Y-121724350D01*
X163638181Y-121708444D01*
X163625393Y-121691201D01*
X163614357Y-121672788D01*
X163605178Y-121653382D01*
X163597946Y-121633170D01*
X163592730Y-121612346D01*
X163589580Y-121591111D01*
X163588527Y-121569670D01*
X163589580Y-121548229D01*
X163592730Y-121526994D01*
X163597946Y-121506170D01*
X163605178Y-121485958D01*
X163614357Y-121466552D01*
X163625393Y-121448139D01*
X163638181Y-121430896D01*
X163652597Y-121414990D01*
X164014990Y-121052597D01*
X164030896Y-121038181D01*
X164048139Y-121025393D01*
X164066552Y-121014357D01*
X164085958Y-121005178D01*
X164106170Y-120997946D01*
X164126994Y-120992730D01*
X164148229Y-120989580D01*
X164169670Y-120988527D01*
X164191111Y-120989580D01*
X164191111Y-120989580D01*
G37*
D11*
X164143153Y-121543153D03*
D10*
G36*
X165304805Y-122103274D02*
G01*
X165326040Y-122106424D01*
X165346864Y-122111640D01*
X165367076Y-122118872D01*
X165386482Y-122128051D01*
X165404895Y-122139087D01*
X165422138Y-122151875D01*
X165438044Y-122166291D01*
X165747403Y-122475650D01*
X165761819Y-122491556D01*
X165774607Y-122508799D01*
X165785643Y-122527212D01*
X165794822Y-122546618D01*
X165802054Y-122566830D01*
X165807270Y-122587654D01*
X165810420Y-122608889D01*
X165811473Y-122630330D01*
X165810420Y-122651771D01*
X165807270Y-122673006D01*
X165802054Y-122693830D01*
X165794822Y-122714042D01*
X165785643Y-122733448D01*
X165774607Y-122751861D01*
X165761819Y-122769104D01*
X165747403Y-122785010D01*
X165385010Y-123147403D01*
X165369104Y-123161819D01*
X165351861Y-123174607D01*
X165333448Y-123185643D01*
X165314042Y-123194822D01*
X165293830Y-123202054D01*
X165273006Y-123207270D01*
X165251771Y-123210420D01*
X165230330Y-123211473D01*
X165208889Y-123210420D01*
X165187654Y-123207270D01*
X165166830Y-123202054D01*
X165146618Y-123194822D01*
X165127212Y-123185643D01*
X165108799Y-123174607D01*
X165091556Y-123161819D01*
X165075650Y-123147403D01*
X164766291Y-122838044D01*
X164751875Y-122822138D01*
X164739087Y-122804895D01*
X164728051Y-122786482D01*
X164718872Y-122767076D01*
X164711640Y-122746864D01*
X164706424Y-122726040D01*
X164703274Y-122704805D01*
X164702221Y-122683364D01*
X164703274Y-122661923D01*
X164706424Y-122640688D01*
X164711640Y-122619864D01*
X164718872Y-122599652D01*
X164728051Y-122580246D01*
X164739087Y-122561833D01*
X164751875Y-122544590D01*
X164766291Y-122528684D01*
X165128684Y-122166291D01*
X165144590Y-122151875D01*
X165161833Y-122139087D01*
X165180246Y-122128051D01*
X165199652Y-122118872D01*
X165219864Y-122111640D01*
X165240688Y-122106424D01*
X165261923Y-122103274D01*
X165283364Y-122102221D01*
X165304805Y-122103274D01*
X165304805Y-122103274D01*
G37*
D11*
X165256847Y-122656847D03*
D10*
G36*
X182599504Y-102876204D02*
G01*
X182623773Y-102879804D01*
X182647571Y-102885765D01*
X182670671Y-102894030D01*
X182692849Y-102904520D01*
X182713893Y-102917133D01*
X182733598Y-102931747D01*
X182751777Y-102948223D01*
X182768253Y-102966402D01*
X182782867Y-102986107D01*
X182795480Y-103007151D01*
X182805970Y-103029329D01*
X182814235Y-103052429D01*
X182820196Y-103076227D01*
X182823796Y-103100496D01*
X182825000Y-103125000D01*
X182825000Y-105275000D01*
X182823796Y-105299504D01*
X182820196Y-105323773D01*
X182814235Y-105347571D01*
X182805970Y-105370671D01*
X182795480Y-105392849D01*
X182782867Y-105413893D01*
X182768253Y-105433598D01*
X182751777Y-105451777D01*
X182733598Y-105468253D01*
X182713893Y-105482867D01*
X182692849Y-105495480D01*
X182670671Y-105505970D01*
X182647571Y-105514235D01*
X182623773Y-105520196D01*
X182599504Y-105523796D01*
X182575000Y-105525000D01*
X181825000Y-105525000D01*
X181800496Y-105523796D01*
X181776227Y-105520196D01*
X181752429Y-105514235D01*
X181729329Y-105505970D01*
X181707151Y-105495480D01*
X181686107Y-105482867D01*
X181666402Y-105468253D01*
X181648223Y-105451777D01*
X181631747Y-105433598D01*
X181617133Y-105413893D01*
X181604520Y-105392849D01*
X181594030Y-105370671D01*
X181585765Y-105347571D01*
X181579804Y-105323773D01*
X181576204Y-105299504D01*
X181575000Y-105275000D01*
X181575000Y-103125000D01*
X181576204Y-103100496D01*
X181579804Y-103076227D01*
X181585765Y-103052429D01*
X181594030Y-103029329D01*
X181604520Y-103007151D01*
X181617133Y-102986107D01*
X181631747Y-102966402D01*
X181648223Y-102948223D01*
X181666402Y-102931747D01*
X181686107Y-102917133D01*
X181707151Y-102904520D01*
X181729329Y-102894030D01*
X181752429Y-102885765D01*
X181776227Y-102879804D01*
X181800496Y-102876204D01*
X181825000Y-102875000D01*
X182575000Y-102875000D01*
X182599504Y-102876204D01*
X182599504Y-102876204D01*
G37*
D13*
X182200000Y-104200000D03*
D10*
G36*
X185399504Y-102876204D02*
G01*
X185423773Y-102879804D01*
X185447571Y-102885765D01*
X185470671Y-102894030D01*
X185492849Y-102904520D01*
X185513893Y-102917133D01*
X185533598Y-102931747D01*
X185551777Y-102948223D01*
X185568253Y-102966402D01*
X185582867Y-102986107D01*
X185595480Y-103007151D01*
X185605970Y-103029329D01*
X185614235Y-103052429D01*
X185620196Y-103076227D01*
X185623796Y-103100496D01*
X185625000Y-103125000D01*
X185625000Y-105275000D01*
X185623796Y-105299504D01*
X185620196Y-105323773D01*
X185614235Y-105347571D01*
X185605970Y-105370671D01*
X185595480Y-105392849D01*
X185582867Y-105413893D01*
X185568253Y-105433598D01*
X185551777Y-105451777D01*
X185533598Y-105468253D01*
X185513893Y-105482867D01*
X185492849Y-105495480D01*
X185470671Y-105505970D01*
X185447571Y-105514235D01*
X185423773Y-105520196D01*
X185399504Y-105523796D01*
X185375000Y-105525000D01*
X184625000Y-105525000D01*
X184600496Y-105523796D01*
X184576227Y-105520196D01*
X184552429Y-105514235D01*
X184529329Y-105505970D01*
X184507151Y-105495480D01*
X184486107Y-105482867D01*
X184466402Y-105468253D01*
X184448223Y-105451777D01*
X184431747Y-105433598D01*
X184417133Y-105413893D01*
X184404520Y-105392849D01*
X184394030Y-105370671D01*
X184385765Y-105347571D01*
X184379804Y-105323773D01*
X184376204Y-105299504D01*
X184375000Y-105275000D01*
X184375000Y-103125000D01*
X184376204Y-103100496D01*
X184379804Y-103076227D01*
X184385765Y-103052429D01*
X184394030Y-103029329D01*
X184404520Y-103007151D01*
X184417133Y-102986107D01*
X184431747Y-102966402D01*
X184448223Y-102948223D01*
X184466402Y-102931747D01*
X184486107Y-102917133D01*
X184507151Y-102904520D01*
X184529329Y-102894030D01*
X184552429Y-102885765D01*
X184576227Y-102879804D01*
X184600496Y-102876204D01*
X184625000Y-102875000D01*
X185375000Y-102875000D01*
X185399504Y-102876204D01*
X185399504Y-102876204D01*
G37*
D13*
X185000000Y-104200000D03*
D16*
X153060000Y-109120000D03*
X155600000Y-109120000D03*
X158140000Y-109120000D03*
X158140000Y-118080000D03*
X155600000Y-118080000D03*
X153060000Y-118080000D03*
D10*
G36*
X170077691Y-104351053D02*
G01*
X170098926Y-104354203D01*
X170119750Y-104359419D01*
X170139962Y-104366651D01*
X170159368Y-104375830D01*
X170177781Y-104386866D01*
X170195024Y-104399654D01*
X170210930Y-104414070D01*
X170225346Y-104429976D01*
X170238134Y-104447219D01*
X170249170Y-104465632D01*
X170258349Y-104485038D01*
X170265581Y-104505250D01*
X170270797Y-104526074D01*
X170273947Y-104547309D01*
X170275000Y-104568750D01*
X170275000Y-105006250D01*
X170273947Y-105027691D01*
X170270797Y-105048926D01*
X170265581Y-105069750D01*
X170258349Y-105089962D01*
X170249170Y-105109368D01*
X170238134Y-105127781D01*
X170225346Y-105145024D01*
X170210930Y-105160930D01*
X170195024Y-105175346D01*
X170177781Y-105188134D01*
X170159368Y-105199170D01*
X170139962Y-105208349D01*
X170119750Y-105215581D01*
X170098926Y-105220797D01*
X170077691Y-105223947D01*
X170056250Y-105225000D01*
X169543750Y-105225000D01*
X169522309Y-105223947D01*
X169501074Y-105220797D01*
X169480250Y-105215581D01*
X169460038Y-105208349D01*
X169440632Y-105199170D01*
X169422219Y-105188134D01*
X169404976Y-105175346D01*
X169389070Y-105160930D01*
X169374654Y-105145024D01*
X169361866Y-105127781D01*
X169350830Y-105109368D01*
X169341651Y-105089962D01*
X169334419Y-105069750D01*
X169329203Y-105048926D01*
X169326053Y-105027691D01*
X169325000Y-105006250D01*
X169325000Y-104568750D01*
X169326053Y-104547309D01*
X169329203Y-104526074D01*
X169334419Y-104505250D01*
X169341651Y-104485038D01*
X169350830Y-104465632D01*
X169361866Y-104447219D01*
X169374654Y-104429976D01*
X169389070Y-104414070D01*
X169404976Y-104399654D01*
X169422219Y-104386866D01*
X169440632Y-104375830D01*
X169460038Y-104366651D01*
X169480250Y-104359419D01*
X169501074Y-104354203D01*
X169522309Y-104351053D01*
X169543750Y-104350000D01*
X170056250Y-104350000D01*
X170077691Y-104351053D01*
X170077691Y-104351053D01*
G37*
D11*
X169800000Y-104787500D03*
D10*
G36*
X170077691Y-102776053D02*
G01*
X170098926Y-102779203D01*
X170119750Y-102784419D01*
X170139962Y-102791651D01*
X170159368Y-102800830D01*
X170177781Y-102811866D01*
X170195024Y-102824654D01*
X170210930Y-102839070D01*
X170225346Y-102854976D01*
X170238134Y-102872219D01*
X170249170Y-102890632D01*
X170258349Y-102910038D01*
X170265581Y-102930250D01*
X170270797Y-102951074D01*
X170273947Y-102972309D01*
X170275000Y-102993750D01*
X170275000Y-103431250D01*
X170273947Y-103452691D01*
X170270797Y-103473926D01*
X170265581Y-103494750D01*
X170258349Y-103514962D01*
X170249170Y-103534368D01*
X170238134Y-103552781D01*
X170225346Y-103570024D01*
X170210930Y-103585930D01*
X170195024Y-103600346D01*
X170177781Y-103613134D01*
X170159368Y-103624170D01*
X170139962Y-103633349D01*
X170119750Y-103640581D01*
X170098926Y-103645797D01*
X170077691Y-103648947D01*
X170056250Y-103650000D01*
X169543750Y-103650000D01*
X169522309Y-103648947D01*
X169501074Y-103645797D01*
X169480250Y-103640581D01*
X169460038Y-103633349D01*
X169440632Y-103624170D01*
X169422219Y-103613134D01*
X169404976Y-103600346D01*
X169389070Y-103585930D01*
X169374654Y-103570024D01*
X169361866Y-103552781D01*
X169350830Y-103534368D01*
X169341651Y-103514962D01*
X169334419Y-103494750D01*
X169329203Y-103473926D01*
X169326053Y-103452691D01*
X169325000Y-103431250D01*
X169325000Y-102993750D01*
X169326053Y-102972309D01*
X169329203Y-102951074D01*
X169334419Y-102930250D01*
X169341651Y-102910038D01*
X169350830Y-102890632D01*
X169361866Y-102872219D01*
X169374654Y-102854976D01*
X169389070Y-102839070D01*
X169404976Y-102824654D01*
X169422219Y-102811866D01*
X169440632Y-102800830D01*
X169460038Y-102791651D01*
X169480250Y-102784419D01*
X169501074Y-102779203D01*
X169522309Y-102776053D01*
X169543750Y-102775000D01*
X170056250Y-102775000D01*
X170077691Y-102776053D01*
X170077691Y-102776053D01*
G37*
D11*
X169800000Y-103212500D03*
D10*
G36*
X158752691Y-106526053D02*
G01*
X158773926Y-106529203D01*
X158794750Y-106534419D01*
X158814962Y-106541651D01*
X158834368Y-106550830D01*
X158852781Y-106561866D01*
X158870024Y-106574654D01*
X158885930Y-106589070D01*
X158900346Y-106604976D01*
X158913134Y-106622219D01*
X158924170Y-106640632D01*
X158933349Y-106660038D01*
X158940581Y-106680250D01*
X158945797Y-106701074D01*
X158948947Y-106722309D01*
X158950000Y-106743750D01*
X158950000Y-107256250D01*
X158948947Y-107277691D01*
X158945797Y-107298926D01*
X158940581Y-107319750D01*
X158933349Y-107339962D01*
X158924170Y-107359368D01*
X158913134Y-107377781D01*
X158900346Y-107395024D01*
X158885930Y-107410930D01*
X158870024Y-107425346D01*
X158852781Y-107438134D01*
X158834368Y-107449170D01*
X158814962Y-107458349D01*
X158794750Y-107465581D01*
X158773926Y-107470797D01*
X158752691Y-107473947D01*
X158731250Y-107475000D01*
X158293750Y-107475000D01*
X158272309Y-107473947D01*
X158251074Y-107470797D01*
X158230250Y-107465581D01*
X158210038Y-107458349D01*
X158190632Y-107449170D01*
X158172219Y-107438134D01*
X158154976Y-107425346D01*
X158139070Y-107410930D01*
X158124654Y-107395024D01*
X158111866Y-107377781D01*
X158100830Y-107359368D01*
X158091651Y-107339962D01*
X158084419Y-107319750D01*
X158079203Y-107298926D01*
X158076053Y-107277691D01*
X158075000Y-107256250D01*
X158075000Y-106743750D01*
X158076053Y-106722309D01*
X158079203Y-106701074D01*
X158084419Y-106680250D01*
X158091651Y-106660038D01*
X158100830Y-106640632D01*
X158111866Y-106622219D01*
X158124654Y-106604976D01*
X158139070Y-106589070D01*
X158154976Y-106574654D01*
X158172219Y-106561866D01*
X158190632Y-106550830D01*
X158210038Y-106541651D01*
X158230250Y-106534419D01*
X158251074Y-106529203D01*
X158272309Y-106526053D01*
X158293750Y-106525000D01*
X158731250Y-106525000D01*
X158752691Y-106526053D01*
X158752691Y-106526053D01*
G37*
D11*
X158512500Y-107000000D03*
D10*
G36*
X160327691Y-106526053D02*
G01*
X160348926Y-106529203D01*
X160369750Y-106534419D01*
X160389962Y-106541651D01*
X160409368Y-106550830D01*
X160427781Y-106561866D01*
X160445024Y-106574654D01*
X160460930Y-106589070D01*
X160475346Y-106604976D01*
X160488134Y-106622219D01*
X160499170Y-106640632D01*
X160508349Y-106660038D01*
X160515581Y-106680250D01*
X160520797Y-106701074D01*
X160523947Y-106722309D01*
X160525000Y-106743750D01*
X160525000Y-107256250D01*
X160523947Y-107277691D01*
X160520797Y-107298926D01*
X160515581Y-107319750D01*
X160508349Y-107339962D01*
X160499170Y-107359368D01*
X160488134Y-107377781D01*
X160475346Y-107395024D01*
X160460930Y-107410930D01*
X160445024Y-107425346D01*
X160427781Y-107438134D01*
X160409368Y-107449170D01*
X160389962Y-107458349D01*
X160369750Y-107465581D01*
X160348926Y-107470797D01*
X160327691Y-107473947D01*
X160306250Y-107475000D01*
X159868750Y-107475000D01*
X159847309Y-107473947D01*
X159826074Y-107470797D01*
X159805250Y-107465581D01*
X159785038Y-107458349D01*
X159765632Y-107449170D01*
X159747219Y-107438134D01*
X159729976Y-107425346D01*
X159714070Y-107410930D01*
X159699654Y-107395024D01*
X159686866Y-107377781D01*
X159675830Y-107359368D01*
X159666651Y-107339962D01*
X159659419Y-107319750D01*
X159654203Y-107298926D01*
X159651053Y-107277691D01*
X159650000Y-107256250D01*
X159650000Y-106743750D01*
X159651053Y-106722309D01*
X159654203Y-106701074D01*
X159659419Y-106680250D01*
X159666651Y-106660038D01*
X159675830Y-106640632D01*
X159686866Y-106622219D01*
X159699654Y-106604976D01*
X159714070Y-106589070D01*
X159729976Y-106574654D01*
X159747219Y-106561866D01*
X159765632Y-106550830D01*
X159785038Y-106541651D01*
X159805250Y-106534419D01*
X159826074Y-106529203D01*
X159847309Y-106526053D01*
X159868750Y-106525000D01*
X160306250Y-106525000D01*
X160327691Y-106526053D01*
X160327691Y-106526053D01*
G37*
D11*
X160087500Y-107000000D03*
D10*
G36*
X188027691Y-117326053D02*
G01*
X188048926Y-117329203D01*
X188069750Y-117334419D01*
X188089962Y-117341651D01*
X188109368Y-117350830D01*
X188127781Y-117361866D01*
X188145024Y-117374654D01*
X188160930Y-117389070D01*
X188175346Y-117404976D01*
X188188134Y-117422219D01*
X188199170Y-117440632D01*
X188208349Y-117460038D01*
X188215581Y-117480250D01*
X188220797Y-117501074D01*
X188223947Y-117522309D01*
X188225000Y-117543750D01*
X188225000Y-118056250D01*
X188223947Y-118077691D01*
X188220797Y-118098926D01*
X188215581Y-118119750D01*
X188208349Y-118139962D01*
X188199170Y-118159368D01*
X188188134Y-118177781D01*
X188175346Y-118195024D01*
X188160930Y-118210930D01*
X188145024Y-118225346D01*
X188127781Y-118238134D01*
X188109368Y-118249170D01*
X188089962Y-118258349D01*
X188069750Y-118265581D01*
X188048926Y-118270797D01*
X188027691Y-118273947D01*
X188006250Y-118275000D01*
X187568750Y-118275000D01*
X187547309Y-118273947D01*
X187526074Y-118270797D01*
X187505250Y-118265581D01*
X187485038Y-118258349D01*
X187465632Y-118249170D01*
X187447219Y-118238134D01*
X187429976Y-118225346D01*
X187414070Y-118210930D01*
X187399654Y-118195024D01*
X187386866Y-118177781D01*
X187375830Y-118159368D01*
X187366651Y-118139962D01*
X187359419Y-118119750D01*
X187354203Y-118098926D01*
X187351053Y-118077691D01*
X187350000Y-118056250D01*
X187350000Y-117543750D01*
X187351053Y-117522309D01*
X187354203Y-117501074D01*
X187359419Y-117480250D01*
X187366651Y-117460038D01*
X187375830Y-117440632D01*
X187386866Y-117422219D01*
X187399654Y-117404976D01*
X187414070Y-117389070D01*
X187429976Y-117374654D01*
X187447219Y-117361866D01*
X187465632Y-117350830D01*
X187485038Y-117341651D01*
X187505250Y-117334419D01*
X187526074Y-117329203D01*
X187547309Y-117326053D01*
X187568750Y-117325000D01*
X188006250Y-117325000D01*
X188027691Y-117326053D01*
X188027691Y-117326053D01*
G37*
D11*
X187787500Y-117800000D03*
D10*
G36*
X186452691Y-117326053D02*
G01*
X186473926Y-117329203D01*
X186494750Y-117334419D01*
X186514962Y-117341651D01*
X186534368Y-117350830D01*
X186552781Y-117361866D01*
X186570024Y-117374654D01*
X186585930Y-117389070D01*
X186600346Y-117404976D01*
X186613134Y-117422219D01*
X186624170Y-117440632D01*
X186633349Y-117460038D01*
X186640581Y-117480250D01*
X186645797Y-117501074D01*
X186648947Y-117522309D01*
X186650000Y-117543750D01*
X186650000Y-118056250D01*
X186648947Y-118077691D01*
X186645797Y-118098926D01*
X186640581Y-118119750D01*
X186633349Y-118139962D01*
X186624170Y-118159368D01*
X186613134Y-118177781D01*
X186600346Y-118195024D01*
X186585930Y-118210930D01*
X186570024Y-118225346D01*
X186552781Y-118238134D01*
X186534368Y-118249170D01*
X186514962Y-118258349D01*
X186494750Y-118265581D01*
X186473926Y-118270797D01*
X186452691Y-118273947D01*
X186431250Y-118275000D01*
X185993750Y-118275000D01*
X185972309Y-118273947D01*
X185951074Y-118270797D01*
X185930250Y-118265581D01*
X185910038Y-118258349D01*
X185890632Y-118249170D01*
X185872219Y-118238134D01*
X185854976Y-118225346D01*
X185839070Y-118210930D01*
X185824654Y-118195024D01*
X185811866Y-118177781D01*
X185800830Y-118159368D01*
X185791651Y-118139962D01*
X185784419Y-118119750D01*
X185779203Y-118098926D01*
X185776053Y-118077691D01*
X185775000Y-118056250D01*
X185775000Y-117543750D01*
X185776053Y-117522309D01*
X185779203Y-117501074D01*
X185784419Y-117480250D01*
X185791651Y-117460038D01*
X185800830Y-117440632D01*
X185811866Y-117422219D01*
X185824654Y-117404976D01*
X185839070Y-117389070D01*
X185854976Y-117374654D01*
X185872219Y-117361866D01*
X185890632Y-117350830D01*
X185910038Y-117341651D01*
X185930250Y-117334419D01*
X185951074Y-117329203D01*
X185972309Y-117326053D01*
X185993750Y-117325000D01*
X186431250Y-117325000D01*
X186452691Y-117326053D01*
X186452691Y-117326053D01*
G37*
D11*
X186212500Y-117800000D03*
D10*
G36*
X184377691Y-121851053D02*
G01*
X184398926Y-121854203D01*
X184419750Y-121859419D01*
X184439962Y-121866651D01*
X184459368Y-121875830D01*
X184477781Y-121886866D01*
X184495024Y-121899654D01*
X184510930Y-121914070D01*
X184525346Y-121929976D01*
X184538134Y-121947219D01*
X184549170Y-121965632D01*
X184558349Y-121985038D01*
X184565581Y-122005250D01*
X184570797Y-122026074D01*
X184573947Y-122047309D01*
X184575000Y-122068750D01*
X184575000Y-122506250D01*
X184573947Y-122527691D01*
X184570797Y-122548926D01*
X184565581Y-122569750D01*
X184558349Y-122589962D01*
X184549170Y-122609368D01*
X184538134Y-122627781D01*
X184525346Y-122645024D01*
X184510930Y-122660930D01*
X184495024Y-122675346D01*
X184477781Y-122688134D01*
X184459368Y-122699170D01*
X184439962Y-122708349D01*
X184419750Y-122715581D01*
X184398926Y-122720797D01*
X184377691Y-122723947D01*
X184356250Y-122725000D01*
X183843750Y-122725000D01*
X183822309Y-122723947D01*
X183801074Y-122720797D01*
X183780250Y-122715581D01*
X183760038Y-122708349D01*
X183740632Y-122699170D01*
X183722219Y-122688134D01*
X183704976Y-122675346D01*
X183689070Y-122660930D01*
X183674654Y-122645024D01*
X183661866Y-122627781D01*
X183650830Y-122609368D01*
X183641651Y-122589962D01*
X183634419Y-122569750D01*
X183629203Y-122548926D01*
X183626053Y-122527691D01*
X183625000Y-122506250D01*
X183625000Y-122068750D01*
X183626053Y-122047309D01*
X183629203Y-122026074D01*
X183634419Y-122005250D01*
X183641651Y-121985038D01*
X183650830Y-121965632D01*
X183661866Y-121947219D01*
X183674654Y-121929976D01*
X183689070Y-121914070D01*
X183704976Y-121899654D01*
X183722219Y-121886866D01*
X183740632Y-121875830D01*
X183760038Y-121866651D01*
X183780250Y-121859419D01*
X183801074Y-121854203D01*
X183822309Y-121851053D01*
X183843750Y-121850000D01*
X184356250Y-121850000D01*
X184377691Y-121851053D01*
X184377691Y-121851053D01*
G37*
D11*
X184100000Y-122287500D03*
D10*
G36*
X184377691Y-120276053D02*
G01*
X184398926Y-120279203D01*
X184419750Y-120284419D01*
X184439962Y-120291651D01*
X184459368Y-120300830D01*
X184477781Y-120311866D01*
X184495024Y-120324654D01*
X184510930Y-120339070D01*
X184525346Y-120354976D01*
X184538134Y-120372219D01*
X184549170Y-120390632D01*
X184558349Y-120410038D01*
X184565581Y-120430250D01*
X184570797Y-120451074D01*
X184573947Y-120472309D01*
X184575000Y-120493750D01*
X184575000Y-120931250D01*
X184573947Y-120952691D01*
X184570797Y-120973926D01*
X184565581Y-120994750D01*
X184558349Y-121014962D01*
X184549170Y-121034368D01*
X184538134Y-121052781D01*
X184525346Y-121070024D01*
X184510930Y-121085930D01*
X184495024Y-121100346D01*
X184477781Y-121113134D01*
X184459368Y-121124170D01*
X184439962Y-121133349D01*
X184419750Y-121140581D01*
X184398926Y-121145797D01*
X184377691Y-121148947D01*
X184356250Y-121150000D01*
X183843750Y-121150000D01*
X183822309Y-121148947D01*
X183801074Y-121145797D01*
X183780250Y-121140581D01*
X183760038Y-121133349D01*
X183740632Y-121124170D01*
X183722219Y-121113134D01*
X183704976Y-121100346D01*
X183689070Y-121085930D01*
X183674654Y-121070024D01*
X183661866Y-121052781D01*
X183650830Y-121034368D01*
X183641651Y-121014962D01*
X183634419Y-120994750D01*
X183629203Y-120973926D01*
X183626053Y-120952691D01*
X183625000Y-120931250D01*
X183625000Y-120493750D01*
X183626053Y-120472309D01*
X183629203Y-120451074D01*
X183634419Y-120430250D01*
X183641651Y-120410038D01*
X183650830Y-120390632D01*
X183661866Y-120372219D01*
X183674654Y-120354976D01*
X183689070Y-120339070D01*
X183704976Y-120324654D01*
X183722219Y-120311866D01*
X183740632Y-120300830D01*
X183760038Y-120291651D01*
X183780250Y-120284419D01*
X183801074Y-120279203D01*
X183822309Y-120276053D01*
X183843750Y-120275000D01*
X184356250Y-120275000D01*
X184377691Y-120276053D01*
X184377691Y-120276053D01*
G37*
D11*
X184100000Y-120712500D03*
D10*
G36*
X182852691Y-124126053D02*
G01*
X182873926Y-124129203D01*
X182894750Y-124134419D01*
X182914962Y-124141651D01*
X182934368Y-124150830D01*
X182952781Y-124161866D01*
X182970024Y-124174654D01*
X182985930Y-124189070D01*
X183000346Y-124204976D01*
X183013134Y-124222219D01*
X183024170Y-124240632D01*
X183033349Y-124260038D01*
X183040581Y-124280250D01*
X183045797Y-124301074D01*
X183048947Y-124322309D01*
X183050000Y-124343750D01*
X183050000Y-124856250D01*
X183048947Y-124877691D01*
X183045797Y-124898926D01*
X183040581Y-124919750D01*
X183033349Y-124939962D01*
X183024170Y-124959368D01*
X183013134Y-124977781D01*
X183000346Y-124995024D01*
X182985930Y-125010930D01*
X182970024Y-125025346D01*
X182952781Y-125038134D01*
X182934368Y-125049170D01*
X182914962Y-125058349D01*
X182894750Y-125065581D01*
X182873926Y-125070797D01*
X182852691Y-125073947D01*
X182831250Y-125075000D01*
X182393750Y-125075000D01*
X182372309Y-125073947D01*
X182351074Y-125070797D01*
X182330250Y-125065581D01*
X182310038Y-125058349D01*
X182290632Y-125049170D01*
X182272219Y-125038134D01*
X182254976Y-125025346D01*
X182239070Y-125010930D01*
X182224654Y-124995024D01*
X182211866Y-124977781D01*
X182200830Y-124959368D01*
X182191651Y-124939962D01*
X182184419Y-124919750D01*
X182179203Y-124898926D01*
X182176053Y-124877691D01*
X182175000Y-124856250D01*
X182175000Y-124343750D01*
X182176053Y-124322309D01*
X182179203Y-124301074D01*
X182184419Y-124280250D01*
X182191651Y-124260038D01*
X182200830Y-124240632D01*
X182211866Y-124222219D01*
X182224654Y-124204976D01*
X182239070Y-124189070D01*
X182254976Y-124174654D01*
X182272219Y-124161866D01*
X182290632Y-124150830D01*
X182310038Y-124141651D01*
X182330250Y-124134419D01*
X182351074Y-124129203D01*
X182372309Y-124126053D01*
X182393750Y-124125000D01*
X182831250Y-124125000D01*
X182852691Y-124126053D01*
X182852691Y-124126053D01*
G37*
D11*
X182612500Y-124600000D03*
D10*
G36*
X184427691Y-124126053D02*
G01*
X184448926Y-124129203D01*
X184469750Y-124134419D01*
X184489962Y-124141651D01*
X184509368Y-124150830D01*
X184527781Y-124161866D01*
X184545024Y-124174654D01*
X184560930Y-124189070D01*
X184575346Y-124204976D01*
X184588134Y-124222219D01*
X184599170Y-124240632D01*
X184608349Y-124260038D01*
X184615581Y-124280250D01*
X184620797Y-124301074D01*
X184623947Y-124322309D01*
X184625000Y-124343750D01*
X184625000Y-124856250D01*
X184623947Y-124877691D01*
X184620797Y-124898926D01*
X184615581Y-124919750D01*
X184608349Y-124939962D01*
X184599170Y-124959368D01*
X184588134Y-124977781D01*
X184575346Y-124995024D01*
X184560930Y-125010930D01*
X184545024Y-125025346D01*
X184527781Y-125038134D01*
X184509368Y-125049170D01*
X184489962Y-125058349D01*
X184469750Y-125065581D01*
X184448926Y-125070797D01*
X184427691Y-125073947D01*
X184406250Y-125075000D01*
X183968750Y-125075000D01*
X183947309Y-125073947D01*
X183926074Y-125070797D01*
X183905250Y-125065581D01*
X183885038Y-125058349D01*
X183865632Y-125049170D01*
X183847219Y-125038134D01*
X183829976Y-125025346D01*
X183814070Y-125010930D01*
X183799654Y-124995024D01*
X183786866Y-124977781D01*
X183775830Y-124959368D01*
X183766651Y-124939962D01*
X183759419Y-124919750D01*
X183754203Y-124898926D01*
X183751053Y-124877691D01*
X183750000Y-124856250D01*
X183750000Y-124343750D01*
X183751053Y-124322309D01*
X183754203Y-124301074D01*
X183759419Y-124280250D01*
X183766651Y-124260038D01*
X183775830Y-124240632D01*
X183786866Y-124222219D01*
X183799654Y-124204976D01*
X183814070Y-124189070D01*
X183829976Y-124174654D01*
X183847219Y-124161866D01*
X183865632Y-124150830D01*
X183885038Y-124141651D01*
X183905250Y-124134419D01*
X183926074Y-124129203D01*
X183947309Y-124126053D01*
X183968750Y-124125000D01*
X184406250Y-124125000D01*
X184427691Y-124126053D01*
X184427691Y-124126053D01*
G37*
D11*
X184187500Y-124600000D03*
D10*
G36*
X192152691Y-108226053D02*
G01*
X192173926Y-108229203D01*
X192194750Y-108234419D01*
X192214962Y-108241651D01*
X192234368Y-108250830D01*
X192252781Y-108261866D01*
X192270024Y-108274654D01*
X192285930Y-108289070D01*
X192300346Y-108304976D01*
X192313134Y-108322219D01*
X192324170Y-108340632D01*
X192333349Y-108360038D01*
X192340581Y-108380250D01*
X192345797Y-108401074D01*
X192348947Y-108422309D01*
X192350000Y-108443750D01*
X192350000Y-108956250D01*
X192348947Y-108977691D01*
X192345797Y-108998926D01*
X192340581Y-109019750D01*
X192333349Y-109039962D01*
X192324170Y-109059368D01*
X192313134Y-109077781D01*
X192300346Y-109095024D01*
X192285930Y-109110930D01*
X192270024Y-109125346D01*
X192252781Y-109138134D01*
X192234368Y-109149170D01*
X192214962Y-109158349D01*
X192194750Y-109165581D01*
X192173926Y-109170797D01*
X192152691Y-109173947D01*
X192131250Y-109175000D01*
X191693750Y-109175000D01*
X191672309Y-109173947D01*
X191651074Y-109170797D01*
X191630250Y-109165581D01*
X191610038Y-109158349D01*
X191590632Y-109149170D01*
X191572219Y-109138134D01*
X191554976Y-109125346D01*
X191539070Y-109110930D01*
X191524654Y-109095024D01*
X191511866Y-109077781D01*
X191500830Y-109059368D01*
X191491651Y-109039962D01*
X191484419Y-109019750D01*
X191479203Y-108998926D01*
X191476053Y-108977691D01*
X191475000Y-108956250D01*
X191475000Y-108443750D01*
X191476053Y-108422309D01*
X191479203Y-108401074D01*
X191484419Y-108380250D01*
X191491651Y-108360038D01*
X191500830Y-108340632D01*
X191511866Y-108322219D01*
X191524654Y-108304976D01*
X191539070Y-108289070D01*
X191554976Y-108274654D01*
X191572219Y-108261866D01*
X191590632Y-108250830D01*
X191610038Y-108241651D01*
X191630250Y-108234419D01*
X191651074Y-108229203D01*
X191672309Y-108226053D01*
X191693750Y-108225000D01*
X192131250Y-108225000D01*
X192152691Y-108226053D01*
X192152691Y-108226053D01*
G37*
D11*
X191912500Y-108700000D03*
D10*
G36*
X193727691Y-108226053D02*
G01*
X193748926Y-108229203D01*
X193769750Y-108234419D01*
X193789962Y-108241651D01*
X193809368Y-108250830D01*
X193827781Y-108261866D01*
X193845024Y-108274654D01*
X193860930Y-108289070D01*
X193875346Y-108304976D01*
X193888134Y-108322219D01*
X193899170Y-108340632D01*
X193908349Y-108360038D01*
X193915581Y-108380250D01*
X193920797Y-108401074D01*
X193923947Y-108422309D01*
X193925000Y-108443750D01*
X193925000Y-108956250D01*
X193923947Y-108977691D01*
X193920797Y-108998926D01*
X193915581Y-109019750D01*
X193908349Y-109039962D01*
X193899170Y-109059368D01*
X193888134Y-109077781D01*
X193875346Y-109095024D01*
X193860930Y-109110930D01*
X193845024Y-109125346D01*
X193827781Y-109138134D01*
X193809368Y-109149170D01*
X193789962Y-109158349D01*
X193769750Y-109165581D01*
X193748926Y-109170797D01*
X193727691Y-109173947D01*
X193706250Y-109175000D01*
X193268750Y-109175000D01*
X193247309Y-109173947D01*
X193226074Y-109170797D01*
X193205250Y-109165581D01*
X193185038Y-109158349D01*
X193165632Y-109149170D01*
X193147219Y-109138134D01*
X193129976Y-109125346D01*
X193114070Y-109110930D01*
X193099654Y-109095024D01*
X193086866Y-109077781D01*
X193075830Y-109059368D01*
X193066651Y-109039962D01*
X193059419Y-109019750D01*
X193054203Y-108998926D01*
X193051053Y-108977691D01*
X193050000Y-108956250D01*
X193050000Y-108443750D01*
X193051053Y-108422309D01*
X193054203Y-108401074D01*
X193059419Y-108380250D01*
X193066651Y-108360038D01*
X193075830Y-108340632D01*
X193086866Y-108322219D01*
X193099654Y-108304976D01*
X193114070Y-108289070D01*
X193129976Y-108274654D01*
X193147219Y-108261866D01*
X193165632Y-108250830D01*
X193185038Y-108241651D01*
X193205250Y-108234419D01*
X193226074Y-108229203D01*
X193247309Y-108226053D01*
X193268750Y-108225000D01*
X193706250Y-108225000D01*
X193727691Y-108226053D01*
X193727691Y-108226053D01*
G37*
D11*
X193487500Y-108700000D03*
D10*
G36*
X172052691Y-124826053D02*
G01*
X172073926Y-124829203D01*
X172094750Y-124834419D01*
X172114962Y-124841651D01*
X172134368Y-124850830D01*
X172152781Y-124861866D01*
X172170024Y-124874654D01*
X172185930Y-124889070D01*
X172200346Y-124904976D01*
X172213134Y-124922219D01*
X172224170Y-124940632D01*
X172233349Y-124960038D01*
X172240581Y-124980250D01*
X172245797Y-125001074D01*
X172248947Y-125022309D01*
X172250000Y-125043750D01*
X172250000Y-125556250D01*
X172248947Y-125577691D01*
X172245797Y-125598926D01*
X172240581Y-125619750D01*
X172233349Y-125639962D01*
X172224170Y-125659368D01*
X172213134Y-125677781D01*
X172200346Y-125695024D01*
X172185930Y-125710930D01*
X172170024Y-125725346D01*
X172152781Y-125738134D01*
X172134368Y-125749170D01*
X172114962Y-125758349D01*
X172094750Y-125765581D01*
X172073926Y-125770797D01*
X172052691Y-125773947D01*
X172031250Y-125775000D01*
X171593750Y-125775000D01*
X171572309Y-125773947D01*
X171551074Y-125770797D01*
X171530250Y-125765581D01*
X171510038Y-125758349D01*
X171490632Y-125749170D01*
X171472219Y-125738134D01*
X171454976Y-125725346D01*
X171439070Y-125710930D01*
X171424654Y-125695024D01*
X171411866Y-125677781D01*
X171400830Y-125659368D01*
X171391651Y-125639962D01*
X171384419Y-125619750D01*
X171379203Y-125598926D01*
X171376053Y-125577691D01*
X171375000Y-125556250D01*
X171375000Y-125043750D01*
X171376053Y-125022309D01*
X171379203Y-125001074D01*
X171384419Y-124980250D01*
X171391651Y-124960038D01*
X171400830Y-124940632D01*
X171411866Y-124922219D01*
X171424654Y-124904976D01*
X171439070Y-124889070D01*
X171454976Y-124874654D01*
X171472219Y-124861866D01*
X171490632Y-124850830D01*
X171510038Y-124841651D01*
X171530250Y-124834419D01*
X171551074Y-124829203D01*
X171572309Y-124826053D01*
X171593750Y-124825000D01*
X172031250Y-124825000D01*
X172052691Y-124826053D01*
X172052691Y-124826053D01*
G37*
D11*
X171812500Y-125300000D03*
D10*
G36*
X173627691Y-124826053D02*
G01*
X173648926Y-124829203D01*
X173669750Y-124834419D01*
X173689962Y-124841651D01*
X173709368Y-124850830D01*
X173727781Y-124861866D01*
X173745024Y-124874654D01*
X173760930Y-124889070D01*
X173775346Y-124904976D01*
X173788134Y-124922219D01*
X173799170Y-124940632D01*
X173808349Y-124960038D01*
X173815581Y-124980250D01*
X173820797Y-125001074D01*
X173823947Y-125022309D01*
X173825000Y-125043750D01*
X173825000Y-125556250D01*
X173823947Y-125577691D01*
X173820797Y-125598926D01*
X173815581Y-125619750D01*
X173808349Y-125639962D01*
X173799170Y-125659368D01*
X173788134Y-125677781D01*
X173775346Y-125695024D01*
X173760930Y-125710930D01*
X173745024Y-125725346D01*
X173727781Y-125738134D01*
X173709368Y-125749170D01*
X173689962Y-125758349D01*
X173669750Y-125765581D01*
X173648926Y-125770797D01*
X173627691Y-125773947D01*
X173606250Y-125775000D01*
X173168750Y-125775000D01*
X173147309Y-125773947D01*
X173126074Y-125770797D01*
X173105250Y-125765581D01*
X173085038Y-125758349D01*
X173065632Y-125749170D01*
X173047219Y-125738134D01*
X173029976Y-125725346D01*
X173014070Y-125710930D01*
X172999654Y-125695024D01*
X172986866Y-125677781D01*
X172975830Y-125659368D01*
X172966651Y-125639962D01*
X172959419Y-125619750D01*
X172954203Y-125598926D01*
X172951053Y-125577691D01*
X172950000Y-125556250D01*
X172950000Y-125043750D01*
X172951053Y-125022309D01*
X172954203Y-125001074D01*
X172959419Y-124980250D01*
X172966651Y-124960038D01*
X172975830Y-124940632D01*
X172986866Y-124922219D01*
X172999654Y-124904976D01*
X173014070Y-124889070D01*
X173029976Y-124874654D01*
X173047219Y-124861866D01*
X173065632Y-124850830D01*
X173085038Y-124841651D01*
X173105250Y-124834419D01*
X173126074Y-124829203D01*
X173147309Y-124826053D01*
X173168750Y-124825000D01*
X173606250Y-124825000D01*
X173627691Y-124826053D01*
X173627691Y-124826053D01*
G37*
D11*
X173387500Y-125300000D03*
D10*
G36*
X176927691Y-124826053D02*
G01*
X176948926Y-124829203D01*
X176969750Y-124834419D01*
X176989962Y-124841651D01*
X177009368Y-124850830D01*
X177027781Y-124861866D01*
X177045024Y-124874654D01*
X177060930Y-124889070D01*
X177075346Y-124904976D01*
X177088134Y-124922219D01*
X177099170Y-124940632D01*
X177108349Y-124960038D01*
X177115581Y-124980250D01*
X177120797Y-125001074D01*
X177123947Y-125022309D01*
X177125000Y-125043750D01*
X177125000Y-125556250D01*
X177123947Y-125577691D01*
X177120797Y-125598926D01*
X177115581Y-125619750D01*
X177108349Y-125639962D01*
X177099170Y-125659368D01*
X177088134Y-125677781D01*
X177075346Y-125695024D01*
X177060930Y-125710930D01*
X177045024Y-125725346D01*
X177027781Y-125738134D01*
X177009368Y-125749170D01*
X176989962Y-125758349D01*
X176969750Y-125765581D01*
X176948926Y-125770797D01*
X176927691Y-125773947D01*
X176906250Y-125775000D01*
X176468750Y-125775000D01*
X176447309Y-125773947D01*
X176426074Y-125770797D01*
X176405250Y-125765581D01*
X176385038Y-125758349D01*
X176365632Y-125749170D01*
X176347219Y-125738134D01*
X176329976Y-125725346D01*
X176314070Y-125710930D01*
X176299654Y-125695024D01*
X176286866Y-125677781D01*
X176275830Y-125659368D01*
X176266651Y-125639962D01*
X176259419Y-125619750D01*
X176254203Y-125598926D01*
X176251053Y-125577691D01*
X176250000Y-125556250D01*
X176250000Y-125043750D01*
X176251053Y-125022309D01*
X176254203Y-125001074D01*
X176259419Y-124980250D01*
X176266651Y-124960038D01*
X176275830Y-124940632D01*
X176286866Y-124922219D01*
X176299654Y-124904976D01*
X176314070Y-124889070D01*
X176329976Y-124874654D01*
X176347219Y-124861866D01*
X176365632Y-124850830D01*
X176385038Y-124841651D01*
X176405250Y-124834419D01*
X176426074Y-124829203D01*
X176447309Y-124826053D01*
X176468750Y-124825000D01*
X176906250Y-124825000D01*
X176927691Y-124826053D01*
X176927691Y-124826053D01*
G37*
D11*
X176687500Y-125300000D03*
D10*
G36*
X175352691Y-124826053D02*
G01*
X175373926Y-124829203D01*
X175394750Y-124834419D01*
X175414962Y-124841651D01*
X175434368Y-124850830D01*
X175452781Y-124861866D01*
X175470024Y-124874654D01*
X175485930Y-124889070D01*
X175500346Y-124904976D01*
X175513134Y-124922219D01*
X175524170Y-124940632D01*
X175533349Y-124960038D01*
X175540581Y-124980250D01*
X175545797Y-125001074D01*
X175548947Y-125022309D01*
X175550000Y-125043750D01*
X175550000Y-125556250D01*
X175548947Y-125577691D01*
X175545797Y-125598926D01*
X175540581Y-125619750D01*
X175533349Y-125639962D01*
X175524170Y-125659368D01*
X175513134Y-125677781D01*
X175500346Y-125695024D01*
X175485930Y-125710930D01*
X175470024Y-125725346D01*
X175452781Y-125738134D01*
X175434368Y-125749170D01*
X175414962Y-125758349D01*
X175394750Y-125765581D01*
X175373926Y-125770797D01*
X175352691Y-125773947D01*
X175331250Y-125775000D01*
X174893750Y-125775000D01*
X174872309Y-125773947D01*
X174851074Y-125770797D01*
X174830250Y-125765581D01*
X174810038Y-125758349D01*
X174790632Y-125749170D01*
X174772219Y-125738134D01*
X174754976Y-125725346D01*
X174739070Y-125710930D01*
X174724654Y-125695024D01*
X174711866Y-125677781D01*
X174700830Y-125659368D01*
X174691651Y-125639962D01*
X174684419Y-125619750D01*
X174679203Y-125598926D01*
X174676053Y-125577691D01*
X174675000Y-125556250D01*
X174675000Y-125043750D01*
X174676053Y-125022309D01*
X174679203Y-125001074D01*
X174684419Y-124980250D01*
X174691651Y-124960038D01*
X174700830Y-124940632D01*
X174711866Y-124922219D01*
X174724654Y-124904976D01*
X174739070Y-124889070D01*
X174754976Y-124874654D01*
X174772219Y-124861866D01*
X174790632Y-124850830D01*
X174810038Y-124841651D01*
X174830250Y-124834419D01*
X174851074Y-124829203D01*
X174872309Y-124826053D01*
X174893750Y-124825000D01*
X175331250Y-124825000D01*
X175352691Y-124826053D01*
X175352691Y-124826053D01*
G37*
D11*
X175112500Y-125300000D03*
D10*
G36*
X178549504Y-96626204D02*
G01*
X178573773Y-96629804D01*
X178597571Y-96635765D01*
X178620671Y-96644030D01*
X178642849Y-96654520D01*
X178663893Y-96667133D01*
X178683598Y-96681747D01*
X178701777Y-96698223D01*
X178718253Y-96716402D01*
X178732867Y-96736107D01*
X178745480Y-96757151D01*
X178755970Y-96779329D01*
X178764235Y-96802429D01*
X178770196Y-96826227D01*
X178773796Y-96850496D01*
X178775000Y-96875000D01*
X178775000Y-98725000D01*
X178773796Y-98749504D01*
X178770196Y-98773773D01*
X178764235Y-98797571D01*
X178755970Y-98820671D01*
X178745480Y-98842849D01*
X178732867Y-98863893D01*
X178718253Y-98883598D01*
X178701777Y-98901777D01*
X178683598Y-98918253D01*
X178663893Y-98932867D01*
X178642849Y-98945480D01*
X178620671Y-98955970D01*
X178597571Y-98964235D01*
X178573773Y-98970196D01*
X178549504Y-98973796D01*
X178525000Y-98975000D01*
X176950000Y-98975000D01*
X176925496Y-98973796D01*
X176901227Y-98970196D01*
X176877429Y-98964235D01*
X176854329Y-98955970D01*
X176832151Y-98945480D01*
X176811107Y-98932867D01*
X176791402Y-98918253D01*
X176773223Y-98901777D01*
X176756747Y-98883598D01*
X176742133Y-98863893D01*
X176729520Y-98842849D01*
X176719030Y-98820671D01*
X176710765Y-98797571D01*
X176704804Y-98773773D01*
X176701204Y-98749504D01*
X176700000Y-98725000D01*
X176700000Y-96875000D01*
X176701204Y-96850496D01*
X176704804Y-96826227D01*
X176710765Y-96802429D01*
X176719030Y-96779329D01*
X176729520Y-96757151D01*
X176742133Y-96736107D01*
X176756747Y-96716402D01*
X176773223Y-96698223D01*
X176791402Y-96681747D01*
X176811107Y-96667133D01*
X176832151Y-96654520D01*
X176854329Y-96644030D01*
X176877429Y-96635765D01*
X176901227Y-96629804D01*
X176925496Y-96626204D01*
X176950000Y-96625000D01*
X178525000Y-96625000D01*
X178549504Y-96626204D01*
X178549504Y-96626204D01*
G37*
D17*
X177737500Y-97800000D03*
D10*
G36*
X183474504Y-96626204D02*
G01*
X183498773Y-96629804D01*
X183522571Y-96635765D01*
X183545671Y-96644030D01*
X183567849Y-96654520D01*
X183588893Y-96667133D01*
X183608598Y-96681747D01*
X183626777Y-96698223D01*
X183643253Y-96716402D01*
X183657867Y-96736107D01*
X183670480Y-96757151D01*
X183680970Y-96779329D01*
X183689235Y-96802429D01*
X183695196Y-96826227D01*
X183698796Y-96850496D01*
X183700000Y-96875000D01*
X183700000Y-98725000D01*
X183698796Y-98749504D01*
X183695196Y-98773773D01*
X183689235Y-98797571D01*
X183680970Y-98820671D01*
X183670480Y-98842849D01*
X183657867Y-98863893D01*
X183643253Y-98883598D01*
X183626777Y-98901777D01*
X183608598Y-98918253D01*
X183588893Y-98932867D01*
X183567849Y-98945480D01*
X183545671Y-98955970D01*
X183522571Y-98964235D01*
X183498773Y-98970196D01*
X183474504Y-98973796D01*
X183450000Y-98975000D01*
X181875000Y-98975000D01*
X181850496Y-98973796D01*
X181826227Y-98970196D01*
X181802429Y-98964235D01*
X181779329Y-98955970D01*
X181757151Y-98945480D01*
X181736107Y-98932867D01*
X181716402Y-98918253D01*
X181698223Y-98901777D01*
X181681747Y-98883598D01*
X181667133Y-98863893D01*
X181654520Y-98842849D01*
X181644030Y-98820671D01*
X181635765Y-98797571D01*
X181629804Y-98773773D01*
X181626204Y-98749504D01*
X181625000Y-98725000D01*
X181625000Y-96875000D01*
X181626204Y-96850496D01*
X181629804Y-96826227D01*
X181635765Y-96802429D01*
X181644030Y-96779329D01*
X181654520Y-96757151D01*
X181667133Y-96736107D01*
X181681747Y-96716402D01*
X181698223Y-96698223D01*
X181716402Y-96681747D01*
X181736107Y-96667133D01*
X181757151Y-96654520D01*
X181779329Y-96644030D01*
X181802429Y-96635765D01*
X181826227Y-96629804D01*
X181850496Y-96626204D01*
X181875000Y-96625000D01*
X183450000Y-96625000D01*
X183474504Y-96626204D01*
X183474504Y-96626204D01*
G37*
D17*
X182662500Y-97800000D03*
D10*
G36*
X180849504Y-99901204D02*
G01*
X180873773Y-99904804D01*
X180897571Y-99910765D01*
X180920671Y-99919030D01*
X180942849Y-99929520D01*
X180963893Y-99942133D01*
X180983598Y-99956747D01*
X181001777Y-99973223D01*
X181018253Y-99991402D01*
X181032867Y-100011107D01*
X181045480Y-100032151D01*
X181055970Y-100054329D01*
X181064235Y-100077429D01*
X181070196Y-100101227D01*
X181073796Y-100125496D01*
X181075000Y-100150000D01*
X181075000Y-101725000D01*
X181073796Y-101749504D01*
X181070196Y-101773773D01*
X181064235Y-101797571D01*
X181055970Y-101820671D01*
X181045480Y-101842849D01*
X181032867Y-101863893D01*
X181018253Y-101883598D01*
X181001777Y-101901777D01*
X180983598Y-101918253D01*
X180963893Y-101932867D01*
X180942849Y-101945480D01*
X180920671Y-101955970D01*
X180897571Y-101964235D01*
X180873773Y-101970196D01*
X180849504Y-101973796D01*
X180825000Y-101975000D01*
X178975000Y-101975000D01*
X178950496Y-101973796D01*
X178926227Y-101970196D01*
X178902429Y-101964235D01*
X178879329Y-101955970D01*
X178857151Y-101945480D01*
X178836107Y-101932867D01*
X178816402Y-101918253D01*
X178798223Y-101901777D01*
X178781747Y-101883598D01*
X178767133Y-101863893D01*
X178754520Y-101842849D01*
X178744030Y-101820671D01*
X178735765Y-101797571D01*
X178729804Y-101773773D01*
X178726204Y-101749504D01*
X178725000Y-101725000D01*
X178725000Y-100150000D01*
X178726204Y-100125496D01*
X178729804Y-100101227D01*
X178735765Y-100077429D01*
X178744030Y-100054329D01*
X178754520Y-100032151D01*
X178767133Y-100011107D01*
X178781747Y-99991402D01*
X178798223Y-99973223D01*
X178816402Y-99956747D01*
X178836107Y-99942133D01*
X178857151Y-99929520D01*
X178879329Y-99919030D01*
X178902429Y-99910765D01*
X178926227Y-99904804D01*
X178950496Y-99901204D01*
X178975000Y-99900000D01*
X180825000Y-99900000D01*
X180849504Y-99901204D01*
X180849504Y-99901204D01*
G37*
D17*
X179900000Y-100937500D03*
D10*
G36*
X180849504Y-104826204D02*
G01*
X180873773Y-104829804D01*
X180897571Y-104835765D01*
X180920671Y-104844030D01*
X180942849Y-104854520D01*
X180963893Y-104867133D01*
X180983598Y-104881747D01*
X181001777Y-104898223D01*
X181018253Y-104916402D01*
X181032867Y-104936107D01*
X181045480Y-104957151D01*
X181055970Y-104979329D01*
X181064235Y-105002429D01*
X181070196Y-105026227D01*
X181073796Y-105050496D01*
X181075000Y-105075000D01*
X181075000Y-106650000D01*
X181073796Y-106674504D01*
X181070196Y-106698773D01*
X181064235Y-106722571D01*
X181055970Y-106745671D01*
X181045480Y-106767849D01*
X181032867Y-106788893D01*
X181018253Y-106808598D01*
X181001777Y-106826777D01*
X180983598Y-106843253D01*
X180963893Y-106857867D01*
X180942849Y-106870480D01*
X180920671Y-106880970D01*
X180897571Y-106889235D01*
X180873773Y-106895196D01*
X180849504Y-106898796D01*
X180825000Y-106900000D01*
X178975000Y-106900000D01*
X178950496Y-106898796D01*
X178926227Y-106895196D01*
X178902429Y-106889235D01*
X178879329Y-106880970D01*
X178857151Y-106870480D01*
X178836107Y-106857867D01*
X178816402Y-106843253D01*
X178798223Y-106826777D01*
X178781747Y-106808598D01*
X178767133Y-106788893D01*
X178754520Y-106767849D01*
X178744030Y-106745671D01*
X178735765Y-106722571D01*
X178729804Y-106698773D01*
X178726204Y-106674504D01*
X178725000Y-106650000D01*
X178725000Y-105075000D01*
X178726204Y-105050496D01*
X178729804Y-105026227D01*
X178735765Y-105002429D01*
X178744030Y-104979329D01*
X178754520Y-104957151D01*
X178767133Y-104936107D01*
X178781747Y-104916402D01*
X178798223Y-104898223D01*
X178816402Y-104881747D01*
X178836107Y-104867133D01*
X178857151Y-104854520D01*
X178879329Y-104844030D01*
X178902429Y-104835765D01*
X178926227Y-104829804D01*
X178950496Y-104826204D01*
X178975000Y-104825000D01*
X180825000Y-104825000D01*
X180849504Y-104826204D01*
X180849504Y-104826204D01*
G37*
D17*
X179900000Y-105862500D03*
D18*
X153475000Y-130000000D03*
D19*
X154100000Y-127950000D03*
X155700000Y-127950000D03*
X155700000Y-132050000D03*
X154100000Y-132050000D03*
D20*
X163900000Y-111075000D03*
D21*
X165950000Y-111700000D03*
X165950000Y-113300000D03*
X161850000Y-113300000D03*
X161850000Y-111700000D03*
D22*
X162250000Y-124400000D03*
D10*
G36*
X162050000Y-124200000D02*
G01*
X162300000Y-124200000D01*
X162450000Y-124350000D01*
X162450000Y-124600000D01*
X162050000Y-124600000D01*
X162050000Y-124200000D01*
X162050000Y-124200000D01*
G37*
D23*
X162250000Y-123800000D03*
X161650000Y-123800000D03*
X161650000Y-124400000D03*
D16*
X171860000Y-100620000D03*
X174400000Y-100620000D03*
X176940000Y-100620000D03*
X176940000Y-109580000D03*
X174400000Y-109580000D03*
X171860000Y-109580000D03*
D24*
X188450000Y-113630000D03*
X188450000Y-114900000D03*
X188450000Y-116170000D03*
X182150000Y-116170000D03*
X182150000Y-113630000D03*
D25*
X166850000Y-105500000D03*
X164750000Y-105500000D03*
X160250000Y-105300000D03*
X158150000Y-105300000D03*
D26*
X181900000Y-119500000D03*
X181900000Y-118100000D03*
D27*
X168682322Y-123154252D03*
D10*
G36*
X169035875Y-122482501D02*
G01*
X169354073Y-122800699D01*
X168328769Y-123826003D01*
X168010571Y-123507805D01*
X169035875Y-122482501D01*
X169035875Y-122482501D01*
G37*
D27*
X168222703Y-122694633D03*
D10*
G36*
X168576256Y-122022882D02*
G01*
X168894454Y-122341080D01*
X167869150Y-123366384D01*
X167550952Y-123048186D01*
X168576256Y-122022882D01*
X168576256Y-122022882D01*
G37*
D27*
X167763084Y-122235014D03*
D10*
G36*
X168116637Y-121563263D02*
G01*
X168434835Y-121881461D01*
X167409531Y-122906765D01*
X167091333Y-122588567D01*
X168116637Y-121563263D01*
X168116637Y-121563263D01*
G37*
D27*
X167303464Y-121775394D03*
D10*
G36*
X167657017Y-121103643D02*
G01*
X167975215Y-121421841D01*
X166949911Y-122447145D01*
X166631713Y-122128947D01*
X167657017Y-121103643D01*
X167657017Y-121103643D01*
G37*
D27*
X166843845Y-121315775D03*
D10*
G36*
X167197398Y-120644024D02*
G01*
X167515596Y-120962222D01*
X166490292Y-121987526D01*
X166172094Y-121669328D01*
X167197398Y-120644024D01*
X167197398Y-120644024D01*
G37*
D27*
X166384225Y-120856155D03*
D10*
G36*
X166737778Y-120184404D02*
G01*
X167055976Y-120502602D01*
X166030672Y-121527906D01*
X165712474Y-121209708D01*
X166737778Y-120184404D01*
X166737778Y-120184404D01*
G37*
D27*
X165924606Y-120396536D03*
D10*
G36*
X166278159Y-119724785D02*
G01*
X166596357Y-120042983D01*
X165571053Y-121068287D01*
X165252855Y-120750089D01*
X166278159Y-119724785D01*
X166278159Y-119724785D01*
G37*
D27*
X165464986Y-119936916D03*
D10*
G36*
X165818539Y-119265165D02*
G01*
X166136737Y-119583363D01*
X165111433Y-120608667D01*
X164793235Y-120290469D01*
X165818539Y-119265165D01*
X165818539Y-119265165D01*
G37*
D27*
X165005367Y-119477297D03*
D10*
G36*
X165358920Y-118805546D02*
G01*
X165677118Y-119123744D01*
X164651814Y-120149048D01*
X164333616Y-119830850D01*
X165358920Y-118805546D01*
X165358920Y-118805546D01*
G37*
D27*
X164545748Y-119017678D03*
D10*
G36*
X164899301Y-118345927D02*
G01*
X165217499Y-118664125D01*
X164192195Y-119689429D01*
X163873997Y-119371231D01*
X164899301Y-118345927D01*
X164899301Y-118345927D01*
G37*
D27*
X168717678Y-114845748D03*
D10*
G36*
X169071231Y-114173997D02*
G01*
X169389429Y-114492195D01*
X168364125Y-115517499D01*
X168045927Y-115199301D01*
X169071231Y-114173997D01*
X169071231Y-114173997D01*
G37*
D27*
X169177297Y-115305367D03*
D10*
G36*
X169530850Y-114633616D02*
G01*
X169849048Y-114951814D01*
X168823744Y-115977118D01*
X168505546Y-115658920D01*
X169530850Y-114633616D01*
X169530850Y-114633616D01*
G37*
D27*
X169636916Y-115764986D03*
D10*
G36*
X169990469Y-115093235D02*
G01*
X170308667Y-115411433D01*
X169283363Y-116436737D01*
X168965165Y-116118539D01*
X169990469Y-115093235D01*
X169990469Y-115093235D01*
G37*
D27*
X170096536Y-116224606D03*
D10*
G36*
X170450089Y-115552855D02*
G01*
X170768287Y-115871053D01*
X169742983Y-116896357D01*
X169424785Y-116578159D01*
X170450089Y-115552855D01*
X170450089Y-115552855D01*
G37*
D27*
X170556155Y-116684225D03*
D10*
G36*
X170909708Y-116012474D02*
G01*
X171227906Y-116330672D01*
X170202602Y-117355976D01*
X169884404Y-117037778D01*
X170909708Y-116012474D01*
X170909708Y-116012474D01*
G37*
D27*
X171015775Y-117143845D03*
D10*
G36*
X171369328Y-116472094D02*
G01*
X171687526Y-116790292D01*
X170662222Y-117815596D01*
X170344024Y-117497398D01*
X171369328Y-116472094D01*
X171369328Y-116472094D01*
G37*
D27*
X171475394Y-117603464D03*
D10*
G36*
X171828947Y-116931713D02*
G01*
X172147145Y-117249911D01*
X171121841Y-118275215D01*
X170803643Y-117957017D01*
X171828947Y-116931713D01*
X171828947Y-116931713D01*
G37*
D27*
X171935014Y-118063084D03*
D10*
G36*
X172288567Y-117391333D02*
G01*
X172606765Y-117709531D01*
X171581461Y-118734835D01*
X171263263Y-118416637D01*
X172288567Y-117391333D01*
X172288567Y-117391333D01*
G37*
D27*
X172394633Y-118522703D03*
D10*
G36*
X172748186Y-117850952D02*
G01*
X173066384Y-118169150D01*
X172041080Y-119194454D01*
X171722882Y-118876256D01*
X172748186Y-117850952D01*
X172748186Y-117850952D01*
G37*
D27*
X172854252Y-118982322D03*
D10*
G36*
X173207805Y-118310571D02*
G01*
X173526003Y-118628769D01*
X172500699Y-119654073D01*
X172182501Y-119335875D01*
X173207805Y-118310571D01*
X173207805Y-118310571D01*
G37*
D28*
X180600000Y-112200000D03*
X178600000Y-113150000D03*
X178600000Y-111250000D03*
X151540160Y-106179658D03*
X153540160Y-105229658D03*
X153540160Y-107129658D03*
X169800000Y-97800000D03*
X171800000Y-96850000D03*
X171800000Y-98750000D03*
D10*
G36*
X160477691Y-112851053D02*
G01*
X160498926Y-112854203D01*
X160519750Y-112859419D01*
X160539962Y-112866651D01*
X160559368Y-112875830D01*
X160577781Y-112886866D01*
X160595024Y-112899654D01*
X160610930Y-112914070D01*
X160625346Y-112929976D01*
X160638134Y-112947219D01*
X160649170Y-112965632D01*
X160658349Y-112985038D01*
X160665581Y-113005250D01*
X160670797Y-113026074D01*
X160673947Y-113047309D01*
X160675000Y-113068750D01*
X160675000Y-113506250D01*
X160673947Y-113527691D01*
X160670797Y-113548926D01*
X160665581Y-113569750D01*
X160658349Y-113589962D01*
X160649170Y-113609368D01*
X160638134Y-113627781D01*
X160625346Y-113645024D01*
X160610930Y-113660930D01*
X160595024Y-113675346D01*
X160577781Y-113688134D01*
X160559368Y-113699170D01*
X160539962Y-113708349D01*
X160519750Y-113715581D01*
X160498926Y-113720797D01*
X160477691Y-113723947D01*
X160456250Y-113725000D01*
X159943750Y-113725000D01*
X159922309Y-113723947D01*
X159901074Y-113720797D01*
X159880250Y-113715581D01*
X159860038Y-113708349D01*
X159840632Y-113699170D01*
X159822219Y-113688134D01*
X159804976Y-113675346D01*
X159789070Y-113660930D01*
X159774654Y-113645024D01*
X159761866Y-113627781D01*
X159750830Y-113609368D01*
X159741651Y-113589962D01*
X159734419Y-113569750D01*
X159729203Y-113548926D01*
X159726053Y-113527691D01*
X159725000Y-113506250D01*
X159725000Y-113068750D01*
X159726053Y-113047309D01*
X159729203Y-113026074D01*
X159734419Y-113005250D01*
X159741651Y-112985038D01*
X159750830Y-112965632D01*
X159761866Y-112947219D01*
X159774654Y-112929976D01*
X159789070Y-112914070D01*
X159804976Y-112899654D01*
X159822219Y-112886866D01*
X159840632Y-112875830D01*
X159860038Y-112866651D01*
X159880250Y-112859419D01*
X159901074Y-112854203D01*
X159922309Y-112851053D01*
X159943750Y-112850000D01*
X160456250Y-112850000D01*
X160477691Y-112851053D01*
X160477691Y-112851053D01*
G37*
D11*
X160200000Y-113287500D03*
D10*
G36*
X160477691Y-111276053D02*
G01*
X160498926Y-111279203D01*
X160519750Y-111284419D01*
X160539962Y-111291651D01*
X160559368Y-111300830D01*
X160577781Y-111311866D01*
X160595024Y-111324654D01*
X160610930Y-111339070D01*
X160625346Y-111354976D01*
X160638134Y-111372219D01*
X160649170Y-111390632D01*
X160658349Y-111410038D01*
X160665581Y-111430250D01*
X160670797Y-111451074D01*
X160673947Y-111472309D01*
X160675000Y-111493750D01*
X160675000Y-111931250D01*
X160673947Y-111952691D01*
X160670797Y-111973926D01*
X160665581Y-111994750D01*
X160658349Y-112014962D01*
X160649170Y-112034368D01*
X160638134Y-112052781D01*
X160625346Y-112070024D01*
X160610930Y-112085930D01*
X160595024Y-112100346D01*
X160577781Y-112113134D01*
X160559368Y-112124170D01*
X160539962Y-112133349D01*
X160519750Y-112140581D01*
X160498926Y-112145797D01*
X160477691Y-112148947D01*
X160456250Y-112150000D01*
X159943750Y-112150000D01*
X159922309Y-112148947D01*
X159901074Y-112145797D01*
X159880250Y-112140581D01*
X159860038Y-112133349D01*
X159840632Y-112124170D01*
X159822219Y-112113134D01*
X159804976Y-112100346D01*
X159789070Y-112085930D01*
X159774654Y-112070024D01*
X159761866Y-112052781D01*
X159750830Y-112034368D01*
X159741651Y-112014962D01*
X159734419Y-111994750D01*
X159729203Y-111973926D01*
X159726053Y-111952691D01*
X159725000Y-111931250D01*
X159725000Y-111493750D01*
X159726053Y-111472309D01*
X159729203Y-111451074D01*
X159734419Y-111430250D01*
X159741651Y-111410038D01*
X159750830Y-111390632D01*
X159761866Y-111372219D01*
X159774654Y-111354976D01*
X159789070Y-111339070D01*
X159804976Y-111324654D01*
X159822219Y-111311866D01*
X159840632Y-111300830D01*
X159860038Y-111291651D01*
X159880250Y-111284419D01*
X159901074Y-111279203D01*
X159922309Y-111276053D01*
X159943750Y-111275000D01*
X160456250Y-111275000D01*
X160477691Y-111276053D01*
X160477691Y-111276053D01*
G37*
D11*
X160200000Y-111712500D03*
D10*
G36*
X155417851Y-106530711D02*
G01*
X155439086Y-106533861D01*
X155459910Y-106539077D01*
X155480122Y-106546309D01*
X155499528Y-106555488D01*
X155517941Y-106566524D01*
X155535184Y-106579312D01*
X155551090Y-106593728D01*
X155565506Y-106609634D01*
X155578294Y-106626877D01*
X155589330Y-106645290D01*
X155598509Y-106664696D01*
X155605741Y-106684908D01*
X155610957Y-106705732D01*
X155614107Y-106726967D01*
X155615160Y-106748408D01*
X155615160Y-107185908D01*
X155614107Y-107207349D01*
X155610957Y-107228584D01*
X155605741Y-107249408D01*
X155598509Y-107269620D01*
X155589330Y-107289026D01*
X155578294Y-107307439D01*
X155565506Y-107324682D01*
X155551090Y-107340588D01*
X155535184Y-107355004D01*
X155517941Y-107367792D01*
X155499528Y-107378828D01*
X155480122Y-107388007D01*
X155459910Y-107395239D01*
X155439086Y-107400455D01*
X155417851Y-107403605D01*
X155396410Y-107404658D01*
X154883910Y-107404658D01*
X154862469Y-107403605D01*
X154841234Y-107400455D01*
X154820410Y-107395239D01*
X154800198Y-107388007D01*
X154780792Y-107378828D01*
X154762379Y-107367792D01*
X154745136Y-107355004D01*
X154729230Y-107340588D01*
X154714814Y-107324682D01*
X154702026Y-107307439D01*
X154690990Y-107289026D01*
X154681811Y-107269620D01*
X154674579Y-107249408D01*
X154669363Y-107228584D01*
X154666213Y-107207349D01*
X154665160Y-107185908D01*
X154665160Y-106748408D01*
X154666213Y-106726967D01*
X154669363Y-106705732D01*
X154674579Y-106684908D01*
X154681811Y-106664696D01*
X154690990Y-106645290D01*
X154702026Y-106626877D01*
X154714814Y-106609634D01*
X154729230Y-106593728D01*
X154745136Y-106579312D01*
X154762379Y-106566524D01*
X154780792Y-106555488D01*
X154800198Y-106546309D01*
X154820410Y-106539077D01*
X154841234Y-106533861D01*
X154862469Y-106530711D01*
X154883910Y-106529658D01*
X155396410Y-106529658D01*
X155417851Y-106530711D01*
X155417851Y-106530711D01*
G37*
D11*
X155140160Y-106967158D03*
D10*
G36*
X155417851Y-104955711D02*
G01*
X155439086Y-104958861D01*
X155459910Y-104964077D01*
X155480122Y-104971309D01*
X155499528Y-104980488D01*
X155517941Y-104991524D01*
X155535184Y-105004312D01*
X155551090Y-105018728D01*
X155565506Y-105034634D01*
X155578294Y-105051877D01*
X155589330Y-105070290D01*
X155598509Y-105089696D01*
X155605741Y-105109908D01*
X155610957Y-105130732D01*
X155614107Y-105151967D01*
X155615160Y-105173408D01*
X155615160Y-105610908D01*
X155614107Y-105632349D01*
X155610957Y-105653584D01*
X155605741Y-105674408D01*
X155598509Y-105694620D01*
X155589330Y-105714026D01*
X155578294Y-105732439D01*
X155565506Y-105749682D01*
X155551090Y-105765588D01*
X155535184Y-105780004D01*
X155517941Y-105792792D01*
X155499528Y-105803828D01*
X155480122Y-105813007D01*
X155459910Y-105820239D01*
X155439086Y-105825455D01*
X155417851Y-105828605D01*
X155396410Y-105829658D01*
X154883910Y-105829658D01*
X154862469Y-105828605D01*
X154841234Y-105825455D01*
X154820410Y-105820239D01*
X154800198Y-105813007D01*
X154780792Y-105803828D01*
X154762379Y-105792792D01*
X154745136Y-105780004D01*
X154729230Y-105765588D01*
X154714814Y-105749682D01*
X154702026Y-105732439D01*
X154690990Y-105714026D01*
X154681811Y-105694620D01*
X154674579Y-105674408D01*
X154669363Y-105653584D01*
X154666213Y-105632349D01*
X154665160Y-105610908D01*
X154665160Y-105173408D01*
X154666213Y-105151967D01*
X154669363Y-105130732D01*
X154674579Y-105109908D01*
X154681811Y-105089696D01*
X154690990Y-105070290D01*
X154702026Y-105051877D01*
X154714814Y-105034634D01*
X154729230Y-105018728D01*
X154745136Y-105004312D01*
X154762379Y-104991524D01*
X154780792Y-104980488D01*
X154800198Y-104971309D01*
X154820410Y-104964077D01*
X154841234Y-104958861D01*
X154862469Y-104955711D01*
X154883910Y-104954658D01*
X155396410Y-104954658D01*
X155417851Y-104955711D01*
X155417851Y-104955711D01*
G37*
D11*
X155140160Y-105392158D03*
D10*
G36*
X161577691Y-120726053D02*
G01*
X161598926Y-120729203D01*
X161619750Y-120734419D01*
X161639962Y-120741651D01*
X161659368Y-120750830D01*
X161677781Y-120761866D01*
X161695024Y-120774654D01*
X161710930Y-120789070D01*
X161725346Y-120804976D01*
X161738134Y-120822219D01*
X161749170Y-120840632D01*
X161758349Y-120860038D01*
X161765581Y-120880250D01*
X161770797Y-120901074D01*
X161773947Y-120922309D01*
X161775000Y-120943750D01*
X161775000Y-121381250D01*
X161773947Y-121402691D01*
X161770797Y-121423926D01*
X161765581Y-121444750D01*
X161758349Y-121464962D01*
X161749170Y-121484368D01*
X161738134Y-121502781D01*
X161725346Y-121520024D01*
X161710930Y-121535930D01*
X161695024Y-121550346D01*
X161677781Y-121563134D01*
X161659368Y-121574170D01*
X161639962Y-121583349D01*
X161619750Y-121590581D01*
X161598926Y-121595797D01*
X161577691Y-121598947D01*
X161556250Y-121600000D01*
X161043750Y-121600000D01*
X161022309Y-121598947D01*
X161001074Y-121595797D01*
X160980250Y-121590581D01*
X160960038Y-121583349D01*
X160940632Y-121574170D01*
X160922219Y-121563134D01*
X160904976Y-121550346D01*
X160889070Y-121535930D01*
X160874654Y-121520024D01*
X160861866Y-121502781D01*
X160850830Y-121484368D01*
X160841651Y-121464962D01*
X160834419Y-121444750D01*
X160829203Y-121423926D01*
X160826053Y-121402691D01*
X160825000Y-121381250D01*
X160825000Y-120943750D01*
X160826053Y-120922309D01*
X160829203Y-120901074D01*
X160834419Y-120880250D01*
X160841651Y-120860038D01*
X160850830Y-120840632D01*
X160861866Y-120822219D01*
X160874654Y-120804976D01*
X160889070Y-120789070D01*
X160904976Y-120774654D01*
X160922219Y-120761866D01*
X160940632Y-120750830D01*
X160960038Y-120741651D01*
X160980250Y-120734419D01*
X161001074Y-120729203D01*
X161022309Y-120726053D01*
X161043750Y-120725000D01*
X161556250Y-120725000D01*
X161577691Y-120726053D01*
X161577691Y-120726053D01*
G37*
D11*
X161300000Y-121162500D03*
D10*
G36*
X161577691Y-122301053D02*
G01*
X161598926Y-122304203D01*
X161619750Y-122309419D01*
X161639962Y-122316651D01*
X161659368Y-122325830D01*
X161677781Y-122336866D01*
X161695024Y-122349654D01*
X161710930Y-122364070D01*
X161725346Y-122379976D01*
X161738134Y-122397219D01*
X161749170Y-122415632D01*
X161758349Y-122435038D01*
X161765581Y-122455250D01*
X161770797Y-122476074D01*
X161773947Y-122497309D01*
X161775000Y-122518750D01*
X161775000Y-122956250D01*
X161773947Y-122977691D01*
X161770797Y-122998926D01*
X161765581Y-123019750D01*
X161758349Y-123039962D01*
X161749170Y-123059368D01*
X161738134Y-123077781D01*
X161725346Y-123095024D01*
X161710930Y-123110930D01*
X161695024Y-123125346D01*
X161677781Y-123138134D01*
X161659368Y-123149170D01*
X161639962Y-123158349D01*
X161619750Y-123165581D01*
X161598926Y-123170797D01*
X161577691Y-123173947D01*
X161556250Y-123175000D01*
X161043750Y-123175000D01*
X161022309Y-123173947D01*
X161001074Y-123170797D01*
X160980250Y-123165581D01*
X160960038Y-123158349D01*
X160940632Y-123149170D01*
X160922219Y-123138134D01*
X160904976Y-123125346D01*
X160889070Y-123110930D01*
X160874654Y-123095024D01*
X160861866Y-123077781D01*
X160850830Y-123059368D01*
X160841651Y-123039962D01*
X160834419Y-123019750D01*
X160829203Y-122998926D01*
X160826053Y-122977691D01*
X160825000Y-122956250D01*
X160825000Y-122518750D01*
X160826053Y-122497309D01*
X160829203Y-122476074D01*
X160834419Y-122455250D01*
X160841651Y-122435038D01*
X160850830Y-122415632D01*
X160861866Y-122397219D01*
X160874654Y-122379976D01*
X160889070Y-122364070D01*
X160904976Y-122349654D01*
X160922219Y-122336866D01*
X160940632Y-122325830D01*
X160960038Y-122316651D01*
X160980250Y-122309419D01*
X161001074Y-122304203D01*
X161022309Y-122301053D01*
X161043750Y-122300000D01*
X161556250Y-122300000D01*
X161577691Y-122301053D01*
X161577691Y-122301053D01*
G37*
D11*
X161300000Y-122737500D03*
D10*
G36*
X162927691Y-120726053D02*
G01*
X162948926Y-120729203D01*
X162969750Y-120734419D01*
X162989962Y-120741651D01*
X163009368Y-120750830D01*
X163027781Y-120761866D01*
X163045024Y-120774654D01*
X163060930Y-120789070D01*
X163075346Y-120804976D01*
X163088134Y-120822219D01*
X163099170Y-120840632D01*
X163108349Y-120860038D01*
X163115581Y-120880250D01*
X163120797Y-120901074D01*
X163123947Y-120922309D01*
X163125000Y-120943750D01*
X163125000Y-121381250D01*
X163123947Y-121402691D01*
X163120797Y-121423926D01*
X163115581Y-121444750D01*
X163108349Y-121464962D01*
X163099170Y-121484368D01*
X163088134Y-121502781D01*
X163075346Y-121520024D01*
X163060930Y-121535930D01*
X163045024Y-121550346D01*
X163027781Y-121563134D01*
X163009368Y-121574170D01*
X162989962Y-121583349D01*
X162969750Y-121590581D01*
X162948926Y-121595797D01*
X162927691Y-121598947D01*
X162906250Y-121600000D01*
X162393750Y-121600000D01*
X162372309Y-121598947D01*
X162351074Y-121595797D01*
X162330250Y-121590581D01*
X162310038Y-121583349D01*
X162290632Y-121574170D01*
X162272219Y-121563134D01*
X162254976Y-121550346D01*
X162239070Y-121535930D01*
X162224654Y-121520024D01*
X162211866Y-121502781D01*
X162200830Y-121484368D01*
X162191651Y-121464962D01*
X162184419Y-121444750D01*
X162179203Y-121423926D01*
X162176053Y-121402691D01*
X162175000Y-121381250D01*
X162175000Y-120943750D01*
X162176053Y-120922309D01*
X162179203Y-120901074D01*
X162184419Y-120880250D01*
X162191651Y-120860038D01*
X162200830Y-120840632D01*
X162211866Y-120822219D01*
X162224654Y-120804976D01*
X162239070Y-120789070D01*
X162254976Y-120774654D01*
X162272219Y-120761866D01*
X162290632Y-120750830D01*
X162310038Y-120741651D01*
X162330250Y-120734419D01*
X162351074Y-120729203D01*
X162372309Y-120726053D01*
X162393750Y-120725000D01*
X162906250Y-120725000D01*
X162927691Y-120726053D01*
X162927691Y-120726053D01*
G37*
D11*
X162650000Y-121162500D03*
D10*
G36*
X162927691Y-122301053D02*
G01*
X162948926Y-122304203D01*
X162969750Y-122309419D01*
X162989962Y-122316651D01*
X163009368Y-122325830D01*
X163027781Y-122336866D01*
X163045024Y-122349654D01*
X163060930Y-122364070D01*
X163075346Y-122379976D01*
X163088134Y-122397219D01*
X163099170Y-122415632D01*
X163108349Y-122435038D01*
X163115581Y-122455250D01*
X163120797Y-122476074D01*
X163123947Y-122497309D01*
X163125000Y-122518750D01*
X163125000Y-122956250D01*
X163123947Y-122977691D01*
X163120797Y-122998926D01*
X163115581Y-123019750D01*
X163108349Y-123039962D01*
X163099170Y-123059368D01*
X163088134Y-123077781D01*
X163075346Y-123095024D01*
X163060930Y-123110930D01*
X163045024Y-123125346D01*
X163027781Y-123138134D01*
X163009368Y-123149170D01*
X162989962Y-123158349D01*
X162969750Y-123165581D01*
X162948926Y-123170797D01*
X162927691Y-123173947D01*
X162906250Y-123175000D01*
X162393750Y-123175000D01*
X162372309Y-123173947D01*
X162351074Y-123170797D01*
X162330250Y-123165581D01*
X162310038Y-123158349D01*
X162290632Y-123149170D01*
X162272219Y-123138134D01*
X162254976Y-123125346D01*
X162239070Y-123110930D01*
X162224654Y-123095024D01*
X162211866Y-123077781D01*
X162200830Y-123059368D01*
X162191651Y-123039962D01*
X162184419Y-123019750D01*
X162179203Y-122998926D01*
X162176053Y-122977691D01*
X162175000Y-122956250D01*
X162175000Y-122518750D01*
X162176053Y-122497309D01*
X162179203Y-122476074D01*
X162184419Y-122455250D01*
X162191651Y-122435038D01*
X162200830Y-122415632D01*
X162211866Y-122397219D01*
X162224654Y-122379976D01*
X162239070Y-122364070D01*
X162254976Y-122349654D01*
X162272219Y-122336866D01*
X162290632Y-122325830D01*
X162310038Y-122316651D01*
X162330250Y-122309419D01*
X162351074Y-122304203D01*
X162372309Y-122301053D01*
X162393750Y-122300000D01*
X162906250Y-122300000D01*
X162927691Y-122301053D01*
X162927691Y-122301053D01*
G37*
D11*
X162650000Y-122737500D03*
D10*
G36*
X185067691Y-118901053D02*
G01*
X185088926Y-118904203D01*
X185109750Y-118909419D01*
X185129962Y-118916651D01*
X185149368Y-118925830D01*
X185167781Y-118936866D01*
X185185024Y-118949654D01*
X185200930Y-118964070D01*
X185215346Y-118979976D01*
X185228134Y-118997219D01*
X185239170Y-119015632D01*
X185248349Y-119035038D01*
X185255581Y-119055250D01*
X185260797Y-119076074D01*
X185263947Y-119097309D01*
X185265000Y-119118750D01*
X185265000Y-119556250D01*
X185263947Y-119577691D01*
X185260797Y-119598926D01*
X185255581Y-119619750D01*
X185248349Y-119639962D01*
X185239170Y-119659368D01*
X185228134Y-119677781D01*
X185215346Y-119695024D01*
X185200930Y-119710930D01*
X185185024Y-119725346D01*
X185167781Y-119738134D01*
X185149368Y-119749170D01*
X185129962Y-119758349D01*
X185109750Y-119765581D01*
X185088926Y-119770797D01*
X185067691Y-119773947D01*
X185046250Y-119775000D01*
X184533750Y-119775000D01*
X184512309Y-119773947D01*
X184491074Y-119770797D01*
X184470250Y-119765581D01*
X184450038Y-119758349D01*
X184430632Y-119749170D01*
X184412219Y-119738134D01*
X184394976Y-119725346D01*
X184379070Y-119710930D01*
X184364654Y-119695024D01*
X184351866Y-119677781D01*
X184340830Y-119659368D01*
X184331651Y-119639962D01*
X184324419Y-119619750D01*
X184319203Y-119598926D01*
X184316053Y-119577691D01*
X184315000Y-119556250D01*
X184315000Y-119118750D01*
X184316053Y-119097309D01*
X184319203Y-119076074D01*
X184324419Y-119055250D01*
X184331651Y-119035038D01*
X184340830Y-119015632D01*
X184351866Y-118997219D01*
X184364654Y-118979976D01*
X184379070Y-118964070D01*
X184394976Y-118949654D01*
X184412219Y-118936866D01*
X184430632Y-118925830D01*
X184450038Y-118916651D01*
X184470250Y-118909419D01*
X184491074Y-118904203D01*
X184512309Y-118901053D01*
X184533750Y-118900000D01*
X185046250Y-118900000D01*
X185067691Y-118901053D01*
X185067691Y-118901053D01*
G37*
D11*
X184790000Y-119337500D03*
D10*
G36*
X185067691Y-117326053D02*
G01*
X185088926Y-117329203D01*
X185109750Y-117334419D01*
X185129962Y-117341651D01*
X185149368Y-117350830D01*
X185167781Y-117361866D01*
X185185024Y-117374654D01*
X185200930Y-117389070D01*
X185215346Y-117404976D01*
X185228134Y-117422219D01*
X185239170Y-117440632D01*
X185248349Y-117460038D01*
X185255581Y-117480250D01*
X185260797Y-117501074D01*
X185263947Y-117522309D01*
X185265000Y-117543750D01*
X185265000Y-117981250D01*
X185263947Y-118002691D01*
X185260797Y-118023926D01*
X185255581Y-118044750D01*
X185248349Y-118064962D01*
X185239170Y-118084368D01*
X185228134Y-118102781D01*
X185215346Y-118120024D01*
X185200930Y-118135930D01*
X185185024Y-118150346D01*
X185167781Y-118163134D01*
X185149368Y-118174170D01*
X185129962Y-118183349D01*
X185109750Y-118190581D01*
X185088926Y-118195797D01*
X185067691Y-118198947D01*
X185046250Y-118200000D01*
X184533750Y-118200000D01*
X184512309Y-118198947D01*
X184491074Y-118195797D01*
X184470250Y-118190581D01*
X184450038Y-118183349D01*
X184430632Y-118174170D01*
X184412219Y-118163134D01*
X184394976Y-118150346D01*
X184379070Y-118135930D01*
X184364654Y-118120024D01*
X184351866Y-118102781D01*
X184340830Y-118084368D01*
X184331651Y-118064962D01*
X184324419Y-118044750D01*
X184319203Y-118023926D01*
X184316053Y-118002691D01*
X184315000Y-117981250D01*
X184315000Y-117543750D01*
X184316053Y-117522309D01*
X184319203Y-117501074D01*
X184324419Y-117480250D01*
X184331651Y-117460038D01*
X184340830Y-117440632D01*
X184351866Y-117422219D01*
X184364654Y-117404976D01*
X184379070Y-117389070D01*
X184394976Y-117374654D01*
X184412219Y-117361866D01*
X184430632Y-117350830D01*
X184450038Y-117341651D01*
X184470250Y-117334419D01*
X184491074Y-117329203D01*
X184512309Y-117326053D01*
X184533750Y-117325000D01*
X185046250Y-117325000D01*
X185067691Y-117326053D01*
X185067691Y-117326053D01*
G37*
D11*
X184790000Y-117762500D03*
D10*
G36*
X188027691Y-118826053D02*
G01*
X188048926Y-118829203D01*
X188069750Y-118834419D01*
X188089962Y-118841651D01*
X188109368Y-118850830D01*
X188127781Y-118861866D01*
X188145024Y-118874654D01*
X188160930Y-118889070D01*
X188175346Y-118904976D01*
X188188134Y-118922219D01*
X188199170Y-118940632D01*
X188208349Y-118960038D01*
X188215581Y-118980250D01*
X188220797Y-119001074D01*
X188223947Y-119022309D01*
X188225000Y-119043750D01*
X188225000Y-119556250D01*
X188223947Y-119577691D01*
X188220797Y-119598926D01*
X188215581Y-119619750D01*
X188208349Y-119639962D01*
X188199170Y-119659368D01*
X188188134Y-119677781D01*
X188175346Y-119695024D01*
X188160930Y-119710930D01*
X188145024Y-119725346D01*
X188127781Y-119738134D01*
X188109368Y-119749170D01*
X188089962Y-119758349D01*
X188069750Y-119765581D01*
X188048926Y-119770797D01*
X188027691Y-119773947D01*
X188006250Y-119775000D01*
X187568750Y-119775000D01*
X187547309Y-119773947D01*
X187526074Y-119770797D01*
X187505250Y-119765581D01*
X187485038Y-119758349D01*
X187465632Y-119749170D01*
X187447219Y-119738134D01*
X187429976Y-119725346D01*
X187414070Y-119710930D01*
X187399654Y-119695024D01*
X187386866Y-119677781D01*
X187375830Y-119659368D01*
X187366651Y-119639962D01*
X187359419Y-119619750D01*
X187354203Y-119598926D01*
X187351053Y-119577691D01*
X187350000Y-119556250D01*
X187350000Y-119043750D01*
X187351053Y-119022309D01*
X187354203Y-119001074D01*
X187359419Y-118980250D01*
X187366651Y-118960038D01*
X187375830Y-118940632D01*
X187386866Y-118922219D01*
X187399654Y-118904976D01*
X187414070Y-118889070D01*
X187429976Y-118874654D01*
X187447219Y-118861866D01*
X187465632Y-118850830D01*
X187485038Y-118841651D01*
X187505250Y-118834419D01*
X187526074Y-118829203D01*
X187547309Y-118826053D01*
X187568750Y-118825000D01*
X188006250Y-118825000D01*
X188027691Y-118826053D01*
X188027691Y-118826053D01*
G37*
D11*
X187787500Y-119300000D03*
D10*
G36*
X186452691Y-118826053D02*
G01*
X186473926Y-118829203D01*
X186494750Y-118834419D01*
X186514962Y-118841651D01*
X186534368Y-118850830D01*
X186552781Y-118861866D01*
X186570024Y-118874654D01*
X186585930Y-118889070D01*
X186600346Y-118904976D01*
X186613134Y-118922219D01*
X186624170Y-118940632D01*
X186633349Y-118960038D01*
X186640581Y-118980250D01*
X186645797Y-119001074D01*
X186648947Y-119022309D01*
X186650000Y-119043750D01*
X186650000Y-119556250D01*
X186648947Y-119577691D01*
X186645797Y-119598926D01*
X186640581Y-119619750D01*
X186633349Y-119639962D01*
X186624170Y-119659368D01*
X186613134Y-119677781D01*
X186600346Y-119695024D01*
X186585930Y-119710930D01*
X186570024Y-119725346D01*
X186552781Y-119738134D01*
X186534368Y-119749170D01*
X186514962Y-119758349D01*
X186494750Y-119765581D01*
X186473926Y-119770797D01*
X186452691Y-119773947D01*
X186431250Y-119775000D01*
X185993750Y-119775000D01*
X185972309Y-119773947D01*
X185951074Y-119770797D01*
X185930250Y-119765581D01*
X185910038Y-119758349D01*
X185890632Y-119749170D01*
X185872219Y-119738134D01*
X185854976Y-119725346D01*
X185839070Y-119710930D01*
X185824654Y-119695024D01*
X185811866Y-119677781D01*
X185800830Y-119659368D01*
X185791651Y-119639962D01*
X185784419Y-119619750D01*
X185779203Y-119598926D01*
X185776053Y-119577691D01*
X185775000Y-119556250D01*
X185775000Y-119043750D01*
X185776053Y-119022309D01*
X185779203Y-119001074D01*
X185784419Y-118980250D01*
X185791651Y-118960038D01*
X185800830Y-118940632D01*
X185811866Y-118922219D01*
X185824654Y-118904976D01*
X185839070Y-118889070D01*
X185854976Y-118874654D01*
X185872219Y-118861866D01*
X185890632Y-118850830D01*
X185910038Y-118841651D01*
X185930250Y-118834419D01*
X185951074Y-118829203D01*
X185972309Y-118826053D01*
X185993750Y-118825000D01*
X186431250Y-118825000D01*
X186452691Y-118826053D01*
X186452691Y-118826053D01*
G37*
D11*
X186212500Y-119300000D03*
D10*
G36*
X175377691Y-126476053D02*
G01*
X175398926Y-126479203D01*
X175419750Y-126484419D01*
X175439962Y-126491651D01*
X175459368Y-126500830D01*
X175477781Y-126511866D01*
X175495024Y-126524654D01*
X175510930Y-126539070D01*
X175525346Y-126554976D01*
X175538134Y-126572219D01*
X175549170Y-126590632D01*
X175558349Y-126610038D01*
X175565581Y-126630250D01*
X175570797Y-126651074D01*
X175573947Y-126672309D01*
X175575000Y-126693750D01*
X175575000Y-127131250D01*
X175573947Y-127152691D01*
X175570797Y-127173926D01*
X175565581Y-127194750D01*
X175558349Y-127214962D01*
X175549170Y-127234368D01*
X175538134Y-127252781D01*
X175525346Y-127270024D01*
X175510930Y-127285930D01*
X175495024Y-127300346D01*
X175477781Y-127313134D01*
X175459368Y-127324170D01*
X175439962Y-127333349D01*
X175419750Y-127340581D01*
X175398926Y-127345797D01*
X175377691Y-127348947D01*
X175356250Y-127350000D01*
X174843750Y-127350000D01*
X174822309Y-127348947D01*
X174801074Y-127345797D01*
X174780250Y-127340581D01*
X174760038Y-127333349D01*
X174740632Y-127324170D01*
X174722219Y-127313134D01*
X174704976Y-127300346D01*
X174689070Y-127285930D01*
X174674654Y-127270024D01*
X174661866Y-127252781D01*
X174650830Y-127234368D01*
X174641651Y-127214962D01*
X174634419Y-127194750D01*
X174629203Y-127173926D01*
X174626053Y-127152691D01*
X174625000Y-127131250D01*
X174625000Y-126693750D01*
X174626053Y-126672309D01*
X174629203Y-126651074D01*
X174634419Y-126630250D01*
X174641651Y-126610038D01*
X174650830Y-126590632D01*
X174661866Y-126572219D01*
X174674654Y-126554976D01*
X174689070Y-126539070D01*
X174704976Y-126524654D01*
X174722219Y-126511866D01*
X174740632Y-126500830D01*
X174760038Y-126491651D01*
X174780250Y-126484419D01*
X174801074Y-126479203D01*
X174822309Y-126476053D01*
X174843750Y-126475000D01*
X175356250Y-126475000D01*
X175377691Y-126476053D01*
X175377691Y-126476053D01*
G37*
D11*
X175100000Y-126912500D03*
D10*
G36*
X175377691Y-128051053D02*
G01*
X175398926Y-128054203D01*
X175419750Y-128059419D01*
X175439962Y-128066651D01*
X175459368Y-128075830D01*
X175477781Y-128086866D01*
X175495024Y-128099654D01*
X175510930Y-128114070D01*
X175525346Y-128129976D01*
X175538134Y-128147219D01*
X175549170Y-128165632D01*
X175558349Y-128185038D01*
X175565581Y-128205250D01*
X175570797Y-128226074D01*
X175573947Y-128247309D01*
X175575000Y-128268750D01*
X175575000Y-128706250D01*
X175573947Y-128727691D01*
X175570797Y-128748926D01*
X175565581Y-128769750D01*
X175558349Y-128789962D01*
X175549170Y-128809368D01*
X175538134Y-128827781D01*
X175525346Y-128845024D01*
X175510930Y-128860930D01*
X175495024Y-128875346D01*
X175477781Y-128888134D01*
X175459368Y-128899170D01*
X175439962Y-128908349D01*
X175419750Y-128915581D01*
X175398926Y-128920797D01*
X175377691Y-128923947D01*
X175356250Y-128925000D01*
X174843750Y-128925000D01*
X174822309Y-128923947D01*
X174801074Y-128920797D01*
X174780250Y-128915581D01*
X174760038Y-128908349D01*
X174740632Y-128899170D01*
X174722219Y-128888134D01*
X174704976Y-128875346D01*
X174689070Y-128860930D01*
X174674654Y-128845024D01*
X174661866Y-128827781D01*
X174650830Y-128809368D01*
X174641651Y-128789962D01*
X174634419Y-128769750D01*
X174629203Y-128748926D01*
X174626053Y-128727691D01*
X174625000Y-128706250D01*
X174625000Y-128268750D01*
X174626053Y-128247309D01*
X174629203Y-128226074D01*
X174634419Y-128205250D01*
X174641651Y-128185038D01*
X174650830Y-128165632D01*
X174661866Y-128147219D01*
X174674654Y-128129976D01*
X174689070Y-128114070D01*
X174704976Y-128099654D01*
X174722219Y-128086866D01*
X174740632Y-128075830D01*
X174760038Y-128066651D01*
X174780250Y-128059419D01*
X174801074Y-128054203D01*
X174822309Y-128051053D01*
X174843750Y-128050000D01*
X175356250Y-128050000D01*
X175377691Y-128051053D01*
X175377691Y-128051053D01*
G37*
D11*
X175100000Y-128487500D03*
D10*
G36*
X176977691Y-128051053D02*
G01*
X176998926Y-128054203D01*
X177019750Y-128059419D01*
X177039962Y-128066651D01*
X177059368Y-128075830D01*
X177077781Y-128086866D01*
X177095024Y-128099654D01*
X177110930Y-128114070D01*
X177125346Y-128129976D01*
X177138134Y-128147219D01*
X177149170Y-128165632D01*
X177158349Y-128185038D01*
X177165581Y-128205250D01*
X177170797Y-128226074D01*
X177173947Y-128247309D01*
X177175000Y-128268750D01*
X177175000Y-128706250D01*
X177173947Y-128727691D01*
X177170797Y-128748926D01*
X177165581Y-128769750D01*
X177158349Y-128789962D01*
X177149170Y-128809368D01*
X177138134Y-128827781D01*
X177125346Y-128845024D01*
X177110930Y-128860930D01*
X177095024Y-128875346D01*
X177077781Y-128888134D01*
X177059368Y-128899170D01*
X177039962Y-128908349D01*
X177019750Y-128915581D01*
X176998926Y-128920797D01*
X176977691Y-128923947D01*
X176956250Y-128925000D01*
X176443750Y-128925000D01*
X176422309Y-128923947D01*
X176401074Y-128920797D01*
X176380250Y-128915581D01*
X176360038Y-128908349D01*
X176340632Y-128899170D01*
X176322219Y-128888134D01*
X176304976Y-128875346D01*
X176289070Y-128860930D01*
X176274654Y-128845024D01*
X176261866Y-128827781D01*
X176250830Y-128809368D01*
X176241651Y-128789962D01*
X176234419Y-128769750D01*
X176229203Y-128748926D01*
X176226053Y-128727691D01*
X176225000Y-128706250D01*
X176225000Y-128268750D01*
X176226053Y-128247309D01*
X176229203Y-128226074D01*
X176234419Y-128205250D01*
X176241651Y-128185038D01*
X176250830Y-128165632D01*
X176261866Y-128147219D01*
X176274654Y-128129976D01*
X176289070Y-128114070D01*
X176304976Y-128099654D01*
X176322219Y-128086866D01*
X176340632Y-128075830D01*
X176360038Y-128066651D01*
X176380250Y-128059419D01*
X176401074Y-128054203D01*
X176422309Y-128051053D01*
X176443750Y-128050000D01*
X176956250Y-128050000D01*
X176977691Y-128051053D01*
X176977691Y-128051053D01*
G37*
D11*
X176700000Y-128487500D03*
D10*
G36*
X176977691Y-126476053D02*
G01*
X176998926Y-126479203D01*
X177019750Y-126484419D01*
X177039962Y-126491651D01*
X177059368Y-126500830D01*
X177077781Y-126511866D01*
X177095024Y-126524654D01*
X177110930Y-126539070D01*
X177125346Y-126554976D01*
X177138134Y-126572219D01*
X177149170Y-126590632D01*
X177158349Y-126610038D01*
X177165581Y-126630250D01*
X177170797Y-126651074D01*
X177173947Y-126672309D01*
X177175000Y-126693750D01*
X177175000Y-127131250D01*
X177173947Y-127152691D01*
X177170797Y-127173926D01*
X177165581Y-127194750D01*
X177158349Y-127214962D01*
X177149170Y-127234368D01*
X177138134Y-127252781D01*
X177125346Y-127270024D01*
X177110930Y-127285930D01*
X177095024Y-127300346D01*
X177077781Y-127313134D01*
X177059368Y-127324170D01*
X177039962Y-127333349D01*
X177019750Y-127340581D01*
X176998926Y-127345797D01*
X176977691Y-127348947D01*
X176956250Y-127350000D01*
X176443750Y-127350000D01*
X176422309Y-127348947D01*
X176401074Y-127345797D01*
X176380250Y-127340581D01*
X176360038Y-127333349D01*
X176340632Y-127324170D01*
X176322219Y-127313134D01*
X176304976Y-127300346D01*
X176289070Y-127285930D01*
X176274654Y-127270024D01*
X176261866Y-127252781D01*
X176250830Y-127234368D01*
X176241651Y-127214962D01*
X176234419Y-127194750D01*
X176229203Y-127173926D01*
X176226053Y-127152691D01*
X176225000Y-127131250D01*
X176225000Y-126693750D01*
X176226053Y-126672309D01*
X176229203Y-126651074D01*
X176234419Y-126630250D01*
X176241651Y-126610038D01*
X176250830Y-126590632D01*
X176261866Y-126572219D01*
X176274654Y-126554976D01*
X176289070Y-126539070D01*
X176304976Y-126524654D01*
X176322219Y-126511866D01*
X176340632Y-126500830D01*
X176360038Y-126491651D01*
X176380250Y-126484419D01*
X176401074Y-126479203D01*
X176422309Y-126476053D01*
X176443750Y-126475000D01*
X176956250Y-126475000D01*
X176977691Y-126476053D01*
X176977691Y-126476053D01*
G37*
D11*
X176700000Y-126912500D03*
D10*
G36*
X172077691Y-128051053D02*
G01*
X172098926Y-128054203D01*
X172119750Y-128059419D01*
X172139962Y-128066651D01*
X172159368Y-128075830D01*
X172177781Y-128086866D01*
X172195024Y-128099654D01*
X172210930Y-128114070D01*
X172225346Y-128129976D01*
X172238134Y-128147219D01*
X172249170Y-128165632D01*
X172258349Y-128185038D01*
X172265581Y-128205250D01*
X172270797Y-128226074D01*
X172273947Y-128247309D01*
X172275000Y-128268750D01*
X172275000Y-128706250D01*
X172273947Y-128727691D01*
X172270797Y-128748926D01*
X172265581Y-128769750D01*
X172258349Y-128789962D01*
X172249170Y-128809368D01*
X172238134Y-128827781D01*
X172225346Y-128845024D01*
X172210930Y-128860930D01*
X172195024Y-128875346D01*
X172177781Y-128888134D01*
X172159368Y-128899170D01*
X172139962Y-128908349D01*
X172119750Y-128915581D01*
X172098926Y-128920797D01*
X172077691Y-128923947D01*
X172056250Y-128925000D01*
X171543750Y-128925000D01*
X171522309Y-128923947D01*
X171501074Y-128920797D01*
X171480250Y-128915581D01*
X171460038Y-128908349D01*
X171440632Y-128899170D01*
X171422219Y-128888134D01*
X171404976Y-128875346D01*
X171389070Y-128860930D01*
X171374654Y-128845024D01*
X171361866Y-128827781D01*
X171350830Y-128809368D01*
X171341651Y-128789962D01*
X171334419Y-128769750D01*
X171329203Y-128748926D01*
X171326053Y-128727691D01*
X171325000Y-128706250D01*
X171325000Y-128268750D01*
X171326053Y-128247309D01*
X171329203Y-128226074D01*
X171334419Y-128205250D01*
X171341651Y-128185038D01*
X171350830Y-128165632D01*
X171361866Y-128147219D01*
X171374654Y-128129976D01*
X171389070Y-128114070D01*
X171404976Y-128099654D01*
X171422219Y-128086866D01*
X171440632Y-128075830D01*
X171460038Y-128066651D01*
X171480250Y-128059419D01*
X171501074Y-128054203D01*
X171522309Y-128051053D01*
X171543750Y-128050000D01*
X172056250Y-128050000D01*
X172077691Y-128051053D01*
X172077691Y-128051053D01*
G37*
D11*
X171800000Y-128487500D03*
D10*
G36*
X172077691Y-126476053D02*
G01*
X172098926Y-126479203D01*
X172119750Y-126484419D01*
X172139962Y-126491651D01*
X172159368Y-126500830D01*
X172177781Y-126511866D01*
X172195024Y-126524654D01*
X172210930Y-126539070D01*
X172225346Y-126554976D01*
X172238134Y-126572219D01*
X172249170Y-126590632D01*
X172258349Y-126610038D01*
X172265581Y-126630250D01*
X172270797Y-126651074D01*
X172273947Y-126672309D01*
X172275000Y-126693750D01*
X172275000Y-127131250D01*
X172273947Y-127152691D01*
X172270797Y-127173926D01*
X172265581Y-127194750D01*
X172258349Y-127214962D01*
X172249170Y-127234368D01*
X172238134Y-127252781D01*
X172225346Y-127270024D01*
X172210930Y-127285930D01*
X172195024Y-127300346D01*
X172177781Y-127313134D01*
X172159368Y-127324170D01*
X172139962Y-127333349D01*
X172119750Y-127340581D01*
X172098926Y-127345797D01*
X172077691Y-127348947D01*
X172056250Y-127350000D01*
X171543750Y-127350000D01*
X171522309Y-127348947D01*
X171501074Y-127345797D01*
X171480250Y-127340581D01*
X171460038Y-127333349D01*
X171440632Y-127324170D01*
X171422219Y-127313134D01*
X171404976Y-127300346D01*
X171389070Y-127285930D01*
X171374654Y-127270024D01*
X171361866Y-127252781D01*
X171350830Y-127234368D01*
X171341651Y-127214962D01*
X171334419Y-127194750D01*
X171329203Y-127173926D01*
X171326053Y-127152691D01*
X171325000Y-127131250D01*
X171325000Y-126693750D01*
X171326053Y-126672309D01*
X171329203Y-126651074D01*
X171334419Y-126630250D01*
X171341651Y-126610038D01*
X171350830Y-126590632D01*
X171361866Y-126572219D01*
X171374654Y-126554976D01*
X171389070Y-126539070D01*
X171404976Y-126524654D01*
X171422219Y-126511866D01*
X171440632Y-126500830D01*
X171460038Y-126491651D01*
X171480250Y-126484419D01*
X171501074Y-126479203D01*
X171522309Y-126476053D01*
X171543750Y-126475000D01*
X172056250Y-126475000D01*
X172077691Y-126476053D01*
X172077691Y-126476053D01*
G37*
D11*
X171800000Y-126912500D03*
D10*
G36*
X170477691Y-125676053D02*
G01*
X170498926Y-125679203D01*
X170519750Y-125684419D01*
X170539962Y-125691651D01*
X170559368Y-125700830D01*
X170577781Y-125711866D01*
X170595024Y-125724654D01*
X170610930Y-125739070D01*
X170625346Y-125754976D01*
X170638134Y-125772219D01*
X170649170Y-125790632D01*
X170658349Y-125810038D01*
X170665581Y-125830250D01*
X170670797Y-125851074D01*
X170673947Y-125872309D01*
X170675000Y-125893750D01*
X170675000Y-126331250D01*
X170673947Y-126352691D01*
X170670797Y-126373926D01*
X170665581Y-126394750D01*
X170658349Y-126414962D01*
X170649170Y-126434368D01*
X170638134Y-126452781D01*
X170625346Y-126470024D01*
X170610930Y-126485930D01*
X170595024Y-126500346D01*
X170577781Y-126513134D01*
X170559368Y-126524170D01*
X170539962Y-126533349D01*
X170519750Y-126540581D01*
X170498926Y-126545797D01*
X170477691Y-126548947D01*
X170456250Y-126550000D01*
X169943750Y-126550000D01*
X169922309Y-126548947D01*
X169901074Y-126545797D01*
X169880250Y-126540581D01*
X169860038Y-126533349D01*
X169840632Y-126524170D01*
X169822219Y-126513134D01*
X169804976Y-126500346D01*
X169789070Y-126485930D01*
X169774654Y-126470024D01*
X169761866Y-126452781D01*
X169750830Y-126434368D01*
X169741651Y-126414962D01*
X169734419Y-126394750D01*
X169729203Y-126373926D01*
X169726053Y-126352691D01*
X169725000Y-126331250D01*
X169725000Y-125893750D01*
X169726053Y-125872309D01*
X169729203Y-125851074D01*
X169734419Y-125830250D01*
X169741651Y-125810038D01*
X169750830Y-125790632D01*
X169761866Y-125772219D01*
X169774654Y-125754976D01*
X169789070Y-125739070D01*
X169804976Y-125724654D01*
X169822219Y-125711866D01*
X169840632Y-125700830D01*
X169860038Y-125691651D01*
X169880250Y-125684419D01*
X169901074Y-125679203D01*
X169922309Y-125676053D01*
X169943750Y-125675000D01*
X170456250Y-125675000D01*
X170477691Y-125676053D01*
X170477691Y-125676053D01*
G37*
D11*
X170200000Y-126112500D03*
D10*
G36*
X170477691Y-127251053D02*
G01*
X170498926Y-127254203D01*
X170519750Y-127259419D01*
X170539962Y-127266651D01*
X170559368Y-127275830D01*
X170577781Y-127286866D01*
X170595024Y-127299654D01*
X170610930Y-127314070D01*
X170625346Y-127329976D01*
X170638134Y-127347219D01*
X170649170Y-127365632D01*
X170658349Y-127385038D01*
X170665581Y-127405250D01*
X170670797Y-127426074D01*
X170673947Y-127447309D01*
X170675000Y-127468750D01*
X170675000Y-127906250D01*
X170673947Y-127927691D01*
X170670797Y-127948926D01*
X170665581Y-127969750D01*
X170658349Y-127989962D01*
X170649170Y-128009368D01*
X170638134Y-128027781D01*
X170625346Y-128045024D01*
X170610930Y-128060930D01*
X170595024Y-128075346D01*
X170577781Y-128088134D01*
X170559368Y-128099170D01*
X170539962Y-128108349D01*
X170519750Y-128115581D01*
X170498926Y-128120797D01*
X170477691Y-128123947D01*
X170456250Y-128125000D01*
X169943750Y-128125000D01*
X169922309Y-128123947D01*
X169901074Y-128120797D01*
X169880250Y-128115581D01*
X169860038Y-128108349D01*
X169840632Y-128099170D01*
X169822219Y-128088134D01*
X169804976Y-128075346D01*
X169789070Y-128060930D01*
X169774654Y-128045024D01*
X169761866Y-128027781D01*
X169750830Y-128009368D01*
X169741651Y-127989962D01*
X169734419Y-127969750D01*
X169729203Y-127948926D01*
X169726053Y-127927691D01*
X169725000Y-127906250D01*
X169725000Y-127468750D01*
X169726053Y-127447309D01*
X169729203Y-127426074D01*
X169734419Y-127405250D01*
X169741651Y-127385038D01*
X169750830Y-127365632D01*
X169761866Y-127347219D01*
X169774654Y-127329976D01*
X169789070Y-127314070D01*
X169804976Y-127299654D01*
X169822219Y-127286866D01*
X169840632Y-127275830D01*
X169860038Y-127266651D01*
X169880250Y-127259419D01*
X169901074Y-127254203D01*
X169922309Y-127251053D01*
X169943750Y-127250000D01*
X170456250Y-127250000D01*
X170477691Y-127251053D01*
X170477691Y-127251053D01*
G37*
D11*
X170200000Y-127687500D03*
D10*
G36*
X173677691Y-128051053D02*
G01*
X173698926Y-128054203D01*
X173719750Y-128059419D01*
X173739962Y-128066651D01*
X173759368Y-128075830D01*
X173777781Y-128086866D01*
X173795024Y-128099654D01*
X173810930Y-128114070D01*
X173825346Y-128129976D01*
X173838134Y-128147219D01*
X173849170Y-128165632D01*
X173858349Y-128185038D01*
X173865581Y-128205250D01*
X173870797Y-128226074D01*
X173873947Y-128247309D01*
X173875000Y-128268750D01*
X173875000Y-128706250D01*
X173873947Y-128727691D01*
X173870797Y-128748926D01*
X173865581Y-128769750D01*
X173858349Y-128789962D01*
X173849170Y-128809368D01*
X173838134Y-128827781D01*
X173825346Y-128845024D01*
X173810930Y-128860930D01*
X173795024Y-128875346D01*
X173777781Y-128888134D01*
X173759368Y-128899170D01*
X173739962Y-128908349D01*
X173719750Y-128915581D01*
X173698926Y-128920797D01*
X173677691Y-128923947D01*
X173656250Y-128925000D01*
X173143750Y-128925000D01*
X173122309Y-128923947D01*
X173101074Y-128920797D01*
X173080250Y-128915581D01*
X173060038Y-128908349D01*
X173040632Y-128899170D01*
X173022219Y-128888134D01*
X173004976Y-128875346D01*
X172989070Y-128860930D01*
X172974654Y-128845024D01*
X172961866Y-128827781D01*
X172950830Y-128809368D01*
X172941651Y-128789962D01*
X172934419Y-128769750D01*
X172929203Y-128748926D01*
X172926053Y-128727691D01*
X172925000Y-128706250D01*
X172925000Y-128268750D01*
X172926053Y-128247309D01*
X172929203Y-128226074D01*
X172934419Y-128205250D01*
X172941651Y-128185038D01*
X172950830Y-128165632D01*
X172961866Y-128147219D01*
X172974654Y-128129976D01*
X172989070Y-128114070D01*
X173004976Y-128099654D01*
X173022219Y-128086866D01*
X173040632Y-128075830D01*
X173060038Y-128066651D01*
X173080250Y-128059419D01*
X173101074Y-128054203D01*
X173122309Y-128051053D01*
X173143750Y-128050000D01*
X173656250Y-128050000D01*
X173677691Y-128051053D01*
X173677691Y-128051053D01*
G37*
D11*
X173400000Y-128487500D03*
D10*
G36*
X173677691Y-126476053D02*
G01*
X173698926Y-126479203D01*
X173719750Y-126484419D01*
X173739962Y-126491651D01*
X173759368Y-126500830D01*
X173777781Y-126511866D01*
X173795024Y-126524654D01*
X173810930Y-126539070D01*
X173825346Y-126554976D01*
X173838134Y-126572219D01*
X173849170Y-126590632D01*
X173858349Y-126610038D01*
X173865581Y-126630250D01*
X173870797Y-126651074D01*
X173873947Y-126672309D01*
X173875000Y-126693750D01*
X173875000Y-127131250D01*
X173873947Y-127152691D01*
X173870797Y-127173926D01*
X173865581Y-127194750D01*
X173858349Y-127214962D01*
X173849170Y-127234368D01*
X173838134Y-127252781D01*
X173825346Y-127270024D01*
X173810930Y-127285930D01*
X173795024Y-127300346D01*
X173777781Y-127313134D01*
X173759368Y-127324170D01*
X173739962Y-127333349D01*
X173719750Y-127340581D01*
X173698926Y-127345797D01*
X173677691Y-127348947D01*
X173656250Y-127350000D01*
X173143750Y-127350000D01*
X173122309Y-127348947D01*
X173101074Y-127345797D01*
X173080250Y-127340581D01*
X173060038Y-127333349D01*
X173040632Y-127324170D01*
X173022219Y-127313134D01*
X173004976Y-127300346D01*
X172989070Y-127285930D01*
X172974654Y-127270024D01*
X172961866Y-127252781D01*
X172950830Y-127234368D01*
X172941651Y-127214962D01*
X172934419Y-127194750D01*
X172929203Y-127173926D01*
X172926053Y-127152691D01*
X172925000Y-127131250D01*
X172925000Y-126693750D01*
X172926053Y-126672309D01*
X172929203Y-126651074D01*
X172934419Y-126630250D01*
X172941651Y-126610038D01*
X172950830Y-126590632D01*
X172961866Y-126572219D01*
X172974654Y-126554976D01*
X172989070Y-126539070D01*
X173004976Y-126524654D01*
X173022219Y-126511866D01*
X173040632Y-126500830D01*
X173060038Y-126491651D01*
X173080250Y-126484419D01*
X173101074Y-126479203D01*
X173122309Y-126476053D01*
X173143750Y-126475000D01*
X173656250Y-126475000D01*
X173677691Y-126476053D01*
X173677691Y-126476053D01*
G37*
D11*
X173400000Y-126912500D03*
D10*
G36*
X160227691Y-122326053D02*
G01*
X160248926Y-122329203D01*
X160269750Y-122334419D01*
X160289962Y-122341651D01*
X160309368Y-122350830D01*
X160327781Y-122361866D01*
X160345024Y-122374654D01*
X160360930Y-122389070D01*
X160375346Y-122404976D01*
X160388134Y-122422219D01*
X160399170Y-122440632D01*
X160408349Y-122460038D01*
X160415581Y-122480250D01*
X160420797Y-122501074D01*
X160423947Y-122522309D01*
X160425000Y-122543750D01*
X160425000Y-122981250D01*
X160423947Y-123002691D01*
X160420797Y-123023926D01*
X160415581Y-123044750D01*
X160408349Y-123064962D01*
X160399170Y-123084368D01*
X160388134Y-123102781D01*
X160375346Y-123120024D01*
X160360930Y-123135930D01*
X160345024Y-123150346D01*
X160327781Y-123163134D01*
X160309368Y-123174170D01*
X160289962Y-123183349D01*
X160269750Y-123190581D01*
X160248926Y-123195797D01*
X160227691Y-123198947D01*
X160206250Y-123200000D01*
X159693750Y-123200000D01*
X159672309Y-123198947D01*
X159651074Y-123195797D01*
X159630250Y-123190581D01*
X159610038Y-123183349D01*
X159590632Y-123174170D01*
X159572219Y-123163134D01*
X159554976Y-123150346D01*
X159539070Y-123135930D01*
X159524654Y-123120024D01*
X159511866Y-123102781D01*
X159500830Y-123084368D01*
X159491651Y-123064962D01*
X159484419Y-123044750D01*
X159479203Y-123023926D01*
X159476053Y-123002691D01*
X159475000Y-122981250D01*
X159475000Y-122543750D01*
X159476053Y-122522309D01*
X159479203Y-122501074D01*
X159484419Y-122480250D01*
X159491651Y-122460038D01*
X159500830Y-122440632D01*
X159511866Y-122422219D01*
X159524654Y-122404976D01*
X159539070Y-122389070D01*
X159554976Y-122374654D01*
X159572219Y-122361866D01*
X159590632Y-122350830D01*
X159610038Y-122341651D01*
X159630250Y-122334419D01*
X159651074Y-122329203D01*
X159672309Y-122326053D01*
X159693750Y-122325000D01*
X160206250Y-122325000D01*
X160227691Y-122326053D01*
X160227691Y-122326053D01*
G37*
D11*
X159950000Y-122762500D03*
D10*
G36*
X160227691Y-123901053D02*
G01*
X160248926Y-123904203D01*
X160269750Y-123909419D01*
X160289962Y-123916651D01*
X160309368Y-123925830D01*
X160327781Y-123936866D01*
X160345024Y-123949654D01*
X160360930Y-123964070D01*
X160375346Y-123979976D01*
X160388134Y-123997219D01*
X160399170Y-124015632D01*
X160408349Y-124035038D01*
X160415581Y-124055250D01*
X160420797Y-124076074D01*
X160423947Y-124097309D01*
X160425000Y-124118750D01*
X160425000Y-124556250D01*
X160423947Y-124577691D01*
X160420797Y-124598926D01*
X160415581Y-124619750D01*
X160408349Y-124639962D01*
X160399170Y-124659368D01*
X160388134Y-124677781D01*
X160375346Y-124695024D01*
X160360930Y-124710930D01*
X160345024Y-124725346D01*
X160327781Y-124738134D01*
X160309368Y-124749170D01*
X160289962Y-124758349D01*
X160269750Y-124765581D01*
X160248926Y-124770797D01*
X160227691Y-124773947D01*
X160206250Y-124775000D01*
X159693750Y-124775000D01*
X159672309Y-124773947D01*
X159651074Y-124770797D01*
X159630250Y-124765581D01*
X159610038Y-124758349D01*
X159590632Y-124749170D01*
X159572219Y-124738134D01*
X159554976Y-124725346D01*
X159539070Y-124710930D01*
X159524654Y-124695024D01*
X159511866Y-124677781D01*
X159500830Y-124659368D01*
X159491651Y-124639962D01*
X159484419Y-124619750D01*
X159479203Y-124598926D01*
X159476053Y-124577691D01*
X159475000Y-124556250D01*
X159475000Y-124118750D01*
X159476053Y-124097309D01*
X159479203Y-124076074D01*
X159484419Y-124055250D01*
X159491651Y-124035038D01*
X159500830Y-124015632D01*
X159511866Y-123997219D01*
X159524654Y-123979976D01*
X159539070Y-123964070D01*
X159554976Y-123949654D01*
X159572219Y-123936866D01*
X159590632Y-123925830D01*
X159610038Y-123916651D01*
X159630250Y-123909419D01*
X159651074Y-123904203D01*
X159672309Y-123901053D01*
X159693750Y-123900000D01*
X160206250Y-123900000D01*
X160227691Y-123901053D01*
X160227691Y-123901053D01*
G37*
D11*
X159950000Y-124337500D03*
D10*
G36*
X180477691Y-115851053D02*
G01*
X180498926Y-115854203D01*
X180519750Y-115859419D01*
X180539962Y-115866651D01*
X180559368Y-115875830D01*
X180577781Y-115886866D01*
X180595024Y-115899654D01*
X180610930Y-115914070D01*
X180625346Y-115929976D01*
X180638134Y-115947219D01*
X180649170Y-115965632D01*
X180658349Y-115985038D01*
X180665581Y-116005250D01*
X180670797Y-116026074D01*
X180673947Y-116047309D01*
X180675000Y-116068750D01*
X180675000Y-116506250D01*
X180673947Y-116527691D01*
X180670797Y-116548926D01*
X180665581Y-116569750D01*
X180658349Y-116589962D01*
X180649170Y-116609368D01*
X180638134Y-116627781D01*
X180625346Y-116645024D01*
X180610930Y-116660930D01*
X180595024Y-116675346D01*
X180577781Y-116688134D01*
X180559368Y-116699170D01*
X180539962Y-116708349D01*
X180519750Y-116715581D01*
X180498926Y-116720797D01*
X180477691Y-116723947D01*
X180456250Y-116725000D01*
X179943750Y-116725000D01*
X179922309Y-116723947D01*
X179901074Y-116720797D01*
X179880250Y-116715581D01*
X179860038Y-116708349D01*
X179840632Y-116699170D01*
X179822219Y-116688134D01*
X179804976Y-116675346D01*
X179789070Y-116660930D01*
X179774654Y-116645024D01*
X179761866Y-116627781D01*
X179750830Y-116609368D01*
X179741651Y-116589962D01*
X179734419Y-116569750D01*
X179729203Y-116548926D01*
X179726053Y-116527691D01*
X179725000Y-116506250D01*
X179725000Y-116068750D01*
X179726053Y-116047309D01*
X179729203Y-116026074D01*
X179734419Y-116005250D01*
X179741651Y-115985038D01*
X179750830Y-115965632D01*
X179761866Y-115947219D01*
X179774654Y-115929976D01*
X179789070Y-115914070D01*
X179804976Y-115899654D01*
X179822219Y-115886866D01*
X179840632Y-115875830D01*
X179860038Y-115866651D01*
X179880250Y-115859419D01*
X179901074Y-115854203D01*
X179922309Y-115851053D01*
X179943750Y-115850000D01*
X180456250Y-115850000D01*
X180477691Y-115851053D01*
X180477691Y-115851053D01*
G37*
D11*
X180200000Y-116287500D03*
D10*
G36*
X180477691Y-114276053D02*
G01*
X180498926Y-114279203D01*
X180519750Y-114284419D01*
X180539962Y-114291651D01*
X180559368Y-114300830D01*
X180577781Y-114311866D01*
X180595024Y-114324654D01*
X180610930Y-114339070D01*
X180625346Y-114354976D01*
X180638134Y-114372219D01*
X180649170Y-114390632D01*
X180658349Y-114410038D01*
X180665581Y-114430250D01*
X180670797Y-114451074D01*
X180673947Y-114472309D01*
X180675000Y-114493750D01*
X180675000Y-114931250D01*
X180673947Y-114952691D01*
X180670797Y-114973926D01*
X180665581Y-114994750D01*
X180658349Y-115014962D01*
X180649170Y-115034368D01*
X180638134Y-115052781D01*
X180625346Y-115070024D01*
X180610930Y-115085930D01*
X180595024Y-115100346D01*
X180577781Y-115113134D01*
X180559368Y-115124170D01*
X180539962Y-115133349D01*
X180519750Y-115140581D01*
X180498926Y-115145797D01*
X180477691Y-115148947D01*
X180456250Y-115150000D01*
X179943750Y-115150000D01*
X179922309Y-115148947D01*
X179901074Y-115145797D01*
X179880250Y-115140581D01*
X179860038Y-115133349D01*
X179840632Y-115124170D01*
X179822219Y-115113134D01*
X179804976Y-115100346D01*
X179789070Y-115085930D01*
X179774654Y-115070024D01*
X179761866Y-115052781D01*
X179750830Y-115034368D01*
X179741651Y-115014962D01*
X179734419Y-114994750D01*
X179729203Y-114973926D01*
X179726053Y-114952691D01*
X179725000Y-114931250D01*
X179725000Y-114493750D01*
X179726053Y-114472309D01*
X179729203Y-114451074D01*
X179734419Y-114430250D01*
X179741651Y-114410038D01*
X179750830Y-114390632D01*
X179761866Y-114372219D01*
X179774654Y-114354976D01*
X179789070Y-114339070D01*
X179804976Y-114324654D01*
X179822219Y-114311866D01*
X179840632Y-114300830D01*
X179860038Y-114291651D01*
X179880250Y-114284419D01*
X179901074Y-114279203D01*
X179922309Y-114276053D01*
X179943750Y-114275000D01*
X180456250Y-114275000D01*
X180477691Y-114276053D01*
X180477691Y-114276053D01*
G37*
D11*
X180200000Y-114712500D03*
D10*
G36*
X182477691Y-111151053D02*
G01*
X182498926Y-111154203D01*
X182519750Y-111159419D01*
X182539962Y-111166651D01*
X182559368Y-111175830D01*
X182577781Y-111186866D01*
X182595024Y-111199654D01*
X182610930Y-111214070D01*
X182625346Y-111229976D01*
X182638134Y-111247219D01*
X182649170Y-111265632D01*
X182658349Y-111285038D01*
X182665581Y-111305250D01*
X182670797Y-111326074D01*
X182673947Y-111347309D01*
X182675000Y-111368750D01*
X182675000Y-111806250D01*
X182673947Y-111827691D01*
X182670797Y-111848926D01*
X182665581Y-111869750D01*
X182658349Y-111889962D01*
X182649170Y-111909368D01*
X182638134Y-111927781D01*
X182625346Y-111945024D01*
X182610930Y-111960930D01*
X182595024Y-111975346D01*
X182577781Y-111988134D01*
X182559368Y-111999170D01*
X182539962Y-112008349D01*
X182519750Y-112015581D01*
X182498926Y-112020797D01*
X182477691Y-112023947D01*
X182456250Y-112025000D01*
X181943750Y-112025000D01*
X181922309Y-112023947D01*
X181901074Y-112020797D01*
X181880250Y-112015581D01*
X181860038Y-112008349D01*
X181840632Y-111999170D01*
X181822219Y-111988134D01*
X181804976Y-111975346D01*
X181789070Y-111960930D01*
X181774654Y-111945024D01*
X181761866Y-111927781D01*
X181750830Y-111909368D01*
X181741651Y-111889962D01*
X181734419Y-111869750D01*
X181729203Y-111848926D01*
X181726053Y-111827691D01*
X181725000Y-111806250D01*
X181725000Y-111368750D01*
X181726053Y-111347309D01*
X181729203Y-111326074D01*
X181734419Y-111305250D01*
X181741651Y-111285038D01*
X181750830Y-111265632D01*
X181761866Y-111247219D01*
X181774654Y-111229976D01*
X181789070Y-111214070D01*
X181804976Y-111199654D01*
X181822219Y-111186866D01*
X181840632Y-111175830D01*
X181860038Y-111166651D01*
X181880250Y-111159419D01*
X181901074Y-111154203D01*
X181922309Y-111151053D01*
X181943750Y-111150000D01*
X182456250Y-111150000D01*
X182477691Y-111151053D01*
X182477691Y-111151053D01*
G37*
D11*
X182200000Y-111587500D03*
D10*
G36*
X182477691Y-109576053D02*
G01*
X182498926Y-109579203D01*
X182519750Y-109584419D01*
X182539962Y-109591651D01*
X182559368Y-109600830D01*
X182577781Y-109611866D01*
X182595024Y-109624654D01*
X182610930Y-109639070D01*
X182625346Y-109654976D01*
X182638134Y-109672219D01*
X182649170Y-109690632D01*
X182658349Y-109710038D01*
X182665581Y-109730250D01*
X182670797Y-109751074D01*
X182673947Y-109772309D01*
X182675000Y-109793750D01*
X182675000Y-110231250D01*
X182673947Y-110252691D01*
X182670797Y-110273926D01*
X182665581Y-110294750D01*
X182658349Y-110314962D01*
X182649170Y-110334368D01*
X182638134Y-110352781D01*
X182625346Y-110370024D01*
X182610930Y-110385930D01*
X182595024Y-110400346D01*
X182577781Y-110413134D01*
X182559368Y-110424170D01*
X182539962Y-110433349D01*
X182519750Y-110440581D01*
X182498926Y-110445797D01*
X182477691Y-110448947D01*
X182456250Y-110450000D01*
X181943750Y-110450000D01*
X181922309Y-110448947D01*
X181901074Y-110445797D01*
X181880250Y-110440581D01*
X181860038Y-110433349D01*
X181840632Y-110424170D01*
X181822219Y-110413134D01*
X181804976Y-110400346D01*
X181789070Y-110385930D01*
X181774654Y-110370024D01*
X181761866Y-110352781D01*
X181750830Y-110334368D01*
X181741651Y-110314962D01*
X181734419Y-110294750D01*
X181729203Y-110273926D01*
X181726053Y-110252691D01*
X181725000Y-110231250D01*
X181725000Y-109793750D01*
X181726053Y-109772309D01*
X181729203Y-109751074D01*
X181734419Y-109730250D01*
X181741651Y-109710038D01*
X181750830Y-109690632D01*
X181761866Y-109672219D01*
X181774654Y-109654976D01*
X181789070Y-109639070D01*
X181804976Y-109624654D01*
X181822219Y-109611866D01*
X181840632Y-109600830D01*
X181860038Y-109591651D01*
X181880250Y-109584419D01*
X181901074Y-109579203D01*
X181922309Y-109576053D01*
X181943750Y-109575000D01*
X182456250Y-109575000D01*
X182477691Y-109576053D01*
X182477691Y-109576053D01*
G37*
D11*
X182200000Y-110012500D03*
D10*
G36*
X151277691Y-108751053D02*
G01*
X151298926Y-108754203D01*
X151319750Y-108759419D01*
X151339962Y-108766651D01*
X151359368Y-108775830D01*
X151377781Y-108786866D01*
X151395024Y-108799654D01*
X151410930Y-108814070D01*
X151425346Y-108829976D01*
X151438134Y-108847219D01*
X151449170Y-108865632D01*
X151458349Y-108885038D01*
X151465581Y-108905250D01*
X151470797Y-108926074D01*
X151473947Y-108947309D01*
X151475000Y-108968750D01*
X151475000Y-109406250D01*
X151473947Y-109427691D01*
X151470797Y-109448926D01*
X151465581Y-109469750D01*
X151458349Y-109489962D01*
X151449170Y-109509368D01*
X151438134Y-109527781D01*
X151425346Y-109545024D01*
X151410930Y-109560930D01*
X151395024Y-109575346D01*
X151377781Y-109588134D01*
X151359368Y-109599170D01*
X151339962Y-109608349D01*
X151319750Y-109615581D01*
X151298926Y-109620797D01*
X151277691Y-109623947D01*
X151256250Y-109625000D01*
X150743750Y-109625000D01*
X150722309Y-109623947D01*
X150701074Y-109620797D01*
X150680250Y-109615581D01*
X150660038Y-109608349D01*
X150640632Y-109599170D01*
X150622219Y-109588134D01*
X150604976Y-109575346D01*
X150589070Y-109560930D01*
X150574654Y-109545024D01*
X150561866Y-109527781D01*
X150550830Y-109509368D01*
X150541651Y-109489962D01*
X150534419Y-109469750D01*
X150529203Y-109448926D01*
X150526053Y-109427691D01*
X150525000Y-109406250D01*
X150525000Y-108968750D01*
X150526053Y-108947309D01*
X150529203Y-108926074D01*
X150534419Y-108905250D01*
X150541651Y-108885038D01*
X150550830Y-108865632D01*
X150561866Y-108847219D01*
X150574654Y-108829976D01*
X150589070Y-108814070D01*
X150604976Y-108799654D01*
X150622219Y-108786866D01*
X150640632Y-108775830D01*
X150660038Y-108766651D01*
X150680250Y-108759419D01*
X150701074Y-108754203D01*
X150722309Y-108751053D01*
X150743750Y-108750000D01*
X151256250Y-108750000D01*
X151277691Y-108751053D01*
X151277691Y-108751053D01*
G37*
D11*
X151000000Y-109187500D03*
D10*
G36*
X151277691Y-107176053D02*
G01*
X151298926Y-107179203D01*
X151319750Y-107184419D01*
X151339962Y-107191651D01*
X151359368Y-107200830D01*
X151377781Y-107211866D01*
X151395024Y-107224654D01*
X151410930Y-107239070D01*
X151425346Y-107254976D01*
X151438134Y-107272219D01*
X151449170Y-107290632D01*
X151458349Y-107310038D01*
X151465581Y-107330250D01*
X151470797Y-107351074D01*
X151473947Y-107372309D01*
X151475000Y-107393750D01*
X151475000Y-107831250D01*
X151473947Y-107852691D01*
X151470797Y-107873926D01*
X151465581Y-107894750D01*
X151458349Y-107914962D01*
X151449170Y-107934368D01*
X151438134Y-107952781D01*
X151425346Y-107970024D01*
X151410930Y-107985930D01*
X151395024Y-108000346D01*
X151377781Y-108013134D01*
X151359368Y-108024170D01*
X151339962Y-108033349D01*
X151319750Y-108040581D01*
X151298926Y-108045797D01*
X151277691Y-108048947D01*
X151256250Y-108050000D01*
X150743750Y-108050000D01*
X150722309Y-108048947D01*
X150701074Y-108045797D01*
X150680250Y-108040581D01*
X150660038Y-108033349D01*
X150640632Y-108024170D01*
X150622219Y-108013134D01*
X150604976Y-108000346D01*
X150589070Y-107985930D01*
X150574654Y-107970024D01*
X150561866Y-107952781D01*
X150550830Y-107934368D01*
X150541651Y-107914962D01*
X150534419Y-107894750D01*
X150529203Y-107873926D01*
X150526053Y-107852691D01*
X150525000Y-107831250D01*
X150525000Y-107393750D01*
X150526053Y-107372309D01*
X150529203Y-107351074D01*
X150534419Y-107330250D01*
X150541651Y-107310038D01*
X150550830Y-107290632D01*
X150561866Y-107272219D01*
X150574654Y-107254976D01*
X150589070Y-107239070D01*
X150604976Y-107224654D01*
X150622219Y-107211866D01*
X150640632Y-107200830D01*
X150660038Y-107191651D01*
X150680250Y-107184419D01*
X150701074Y-107179203D01*
X150722309Y-107176053D01*
X150743750Y-107175000D01*
X151256250Y-107175000D01*
X151277691Y-107176053D01*
X151277691Y-107176053D01*
G37*
D11*
X151000000Y-107612500D03*
D10*
G36*
X192676357Y-113470643D02*
G01*
X192697592Y-113473793D01*
X192718416Y-113479009D01*
X192738628Y-113486241D01*
X192758034Y-113495420D01*
X192776447Y-113506456D01*
X192793690Y-113519244D01*
X192809596Y-113533660D01*
X192824012Y-113549566D01*
X192836800Y-113566809D01*
X192847836Y-113585222D01*
X192857015Y-113604628D01*
X192864247Y-113624840D01*
X192869463Y-113645664D01*
X192872613Y-113666899D01*
X192873666Y-113688340D01*
X192873666Y-114125840D01*
X192872613Y-114147281D01*
X192869463Y-114168516D01*
X192864247Y-114189340D01*
X192857015Y-114209552D01*
X192847836Y-114228958D01*
X192836800Y-114247371D01*
X192824012Y-114264614D01*
X192809596Y-114280520D01*
X192793690Y-114294936D01*
X192776447Y-114307724D01*
X192758034Y-114318760D01*
X192738628Y-114327939D01*
X192718416Y-114335171D01*
X192697592Y-114340387D01*
X192676357Y-114343537D01*
X192654916Y-114344590D01*
X192142416Y-114344590D01*
X192120975Y-114343537D01*
X192099740Y-114340387D01*
X192078916Y-114335171D01*
X192058704Y-114327939D01*
X192039298Y-114318760D01*
X192020885Y-114307724D01*
X192003642Y-114294936D01*
X191987736Y-114280520D01*
X191973320Y-114264614D01*
X191960532Y-114247371D01*
X191949496Y-114228958D01*
X191940317Y-114209552D01*
X191933085Y-114189340D01*
X191927869Y-114168516D01*
X191924719Y-114147281D01*
X191923666Y-114125840D01*
X191923666Y-113688340D01*
X191924719Y-113666899D01*
X191927869Y-113645664D01*
X191933085Y-113624840D01*
X191940317Y-113604628D01*
X191949496Y-113585222D01*
X191960532Y-113566809D01*
X191973320Y-113549566D01*
X191987736Y-113533660D01*
X192003642Y-113519244D01*
X192020885Y-113506456D01*
X192039298Y-113495420D01*
X192058704Y-113486241D01*
X192078916Y-113479009D01*
X192099740Y-113473793D01*
X192120975Y-113470643D01*
X192142416Y-113469590D01*
X192654916Y-113469590D01*
X192676357Y-113470643D01*
X192676357Y-113470643D01*
G37*
D11*
X192398666Y-113907090D03*
D10*
G36*
X192676357Y-115045643D02*
G01*
X192697592Y-115048793D01*
X192718416Y-115054009D01*
X192738628Y-115061241D01*
X192758034Y-115070420D01*
X192776447Y-115081456D01*
X192793690Y-115094244D01*
X192809596Y-115108660D01*
X192824012Y-115124566D01*
X192836800Y-115141809D01*
X192847836Y-115160222D01*
X192857015Y-115179628D01*
X192864247Y-115199840D01*
X192869463Y-115220664D01*
X192872613Y-115241899D01*
X192873666Y-115263340D01*
X192873666Y-115700840D01*
X192872613Y-115722281D01*
X192869463Y-115743516D01*
X192864247Y-115764340D01*
X192857015Y-115784552D01*
X192847836Y-115803958D01*
X192836800Y-115822371D01*
X192824012Y-115839614D01*
X192809596Y-115855520D01*
X192793690Y-115869936D01*
X192776447Y-115882724D01*
X192758034Y-115893760D01*
X192738628Y-115902939D01*
X192718416Y-115910171D01*
X192697592Y-115915387D01*
X192676357Y-115918537D01*
X192654916Y-115919590D01*
X192142416Y-115919590D01*
X192120975Y-115918537D01*
X192099740Y-115915387D01*
X192078916Y-115910171D01*
X192058704Y-115902939D01*
X192039298Y-115893760D01*
X192020885Y-115882724D01*
X192003642Y-115869936D01*
X191987736Y-115855520D01*
X191973320Y-115839614D01*
X191960532Y-115822371D01*
X191949496Y-115803958D01*
X191940317Y-115784552D01*
X191933085Y-115764340D01*
X191927869Y-115743516D01*
X191924719Y-115722281D01*
X191923666Y-115700840D01*
X191923666Y-115263340D01*
X191924719Y-115241899D01*
X191927869Y-115220664D01*
X191933085Y-115199840D01*
X191940317Y-115179628D01*
X191949496Y-115160222D01*
X191960532Y-115141809D01*
X191973320Y-115124566D01*
X191987736Y-115108660D01*
X192003642Y-115094244D01*
X192020885Y-115081456D01*
X192039298Y-115070420D01*
X192058704Y-115061241D01*
X192078916Y-115054009D01*
X192099740Y-115048793D01*
X192120975Y-115045643D01*
X192142416Y-115044590D01*
X192654916Y-115044590D01*
X192676357Y-115045643D01*
X192676357Y-115045643D01*
G37*
D11*
X192398666Y-115482090D03*
D10*
G36*
X179252691Y-107526053D02*
G01*
X179273926Y-107529203D01*
X179294750Y-107534419D01*
X179314962Y-107541651D01*
X179334368Y-107550830D01*
X179352781Y-107561866D01*
X179370024Y-107574654D01*
X179385930Y-107589070D01*
X179400346Y-107604976D01*
X179413134Y-107622219D01*
X179424170Y-107640632D01*
X179433349Y-107660038D01*
X179440581Y-107680250D01*
X179445797Y-107701074D01*
X179448947Y-107722309D01*
X179450000Y-107743750D01*
X179450000Y-108256250D01*
X179448947Y-108277691D01*
X179445797Y-108298926D01*
X179440581Y-108319750D01*
X179433349Y-108339962D01*
X179424170Y-108359368D01*
X179413134Y-108377781D01*
X179400346Y-108395024D01*
X179385930Y-108410930D01*
X179370024Y-108425346D01*
X179352781Y-108438134D01*
X179334368Y-108449170D01*
X179314962Y-108458349D01*
X179294750Y-108465581D01*
X179273926Y-108470797D01*
X179252691Y-108473947D01*
X179231250Y-108475000D01*
X178793750Y-108475000D01*
X178772309Y-108473947D01*
X178751074Y-108470797D01*
X178730250Y-108465581D01*
X178710038Y-108458349D01*
X178690632Y-108449170D01*
X178672219Y-108438134D01*
X178654976Y-108425346D01*
X178639070Y-108410930D01*
X178624654Y-108395024D01*
X178611866Y-108377781D01*
X178600830Y-108359368D01*
X178591651Y-108339962D01*
X178584419Y-108319750D01*
X178579203Y-108298926D01*
X178576053Y-108277691D01*
X178575000Y-108256250D01*
X178575000Y-107743750D01*
X178576053Y-107722309D01*
X178579203Y-107701074D01*
X178584419Y-107680250D01*
X178591651Y-107660038D01*
X178600830Y-107640632D01*
X178611866Y-107622219D01*
X178624654Y-107604976D01*
X178639070Y-107589070D01*
X178654976Y-107574654D01*
X178672219Y-107561866D01*
X178690632Y-107550830D01*
X178710038Y-107541651D01*
X178730250Y-107534419D01*
X178751074Y-107529203D01*
X178772309Y-107526053D01*
X178793750Y-107525000D01*
X179231250Y-107525000D01*
X179252691Y-107526053D01*
X179252691Y-107526053D01*
G37*
D11*
X179012500Y-108000000D03*
D10*
G36*
X180827691Y-107526053D02*
G01*
X180848926Y-107529203D01*
X180869750Y-107534419D01*
X180889962Y-107541651D01*
X180909368Y-107550830D01*
X180927781Y-107561866D01*
X180945024Y-107574654D01*
X180960930Y-107589070D01*
X180975346Y-107604976D01*
X180988134Y-107622219D01*
X180999170Y-107640632D01*
X181008349Y-107660038D01*
X181015581Y-107680250D01*
X181020797Y-107701074D01*
X181023947Y-107722309D01*
X181025000Y-107743750D01*
X181025000Y-108256250D01*
X181023947Y-108277691D01*
X181020797Y-108298926D01*
X181015581Y-108319750D01*
X181008349Y-108339962D01*
X180999170Y-108359368D01*
X180988134Y-108377781D01*
X180975346Y-108395024D01*
X180960930Y-108410930D01*
X180945024Y-108425346D01*
X180927781Y-108438134D01*
X180909368Y-108449170D01*
X180889962Y-108458349D01*
X180869750Y-108465581D01*
X180848926Y-108470797D01*
X180827691Y-108473947D01*
X180806250Y-108475000D01*
X180368750Y-108475000D01*
X180347309Y-108473947D01*
X180326074Y-108470797D01*
X180305250Y-108465581D01*
X180285038Y-108458349D01*
X180265632Y-108449170D01*
X180247219Y-108438134D01*
X180229976Y-108425346D01*
X180214070Y-108410930D01*
X180199654Y-108395024D01*
X180186866Y-108377781D01*
X180175830Y-108359368D01*
X180166651Y-108339962D01*
X180159419Y-108319750D01*
X180154203Y-108298926D01*
X180151053Y-108277691D01*
X180150000Y-108256250D01*
X180150000Y-107743750D01*
X180151053Y-107722309D01*
X180154203Y-107701074D01*
X180159419Y-107680250D01*
X180166651Y-107660038D01*
X180175830Y-107640632D01*
X180186866Y-107622219D01*
X180199654Y-107604976D01*
X180214070Y-107589070D01*
X180229976Y-107574654D01*
X180247219Y-107561866D01*
X180265632Y-107550830D01*
X180285038Y-107541651D01*
X180305250Y-107534419D01*
X180326074Y-107529203D01*
X180347309Y-107526053D01*
X180368750Y-107525000D01*
X180806250Y-107525000D01*
X180827691Y-107526053D01*
X180827691Y-107526053D01*
G37*
D11*
X180587500Y-108000000D03*
D10*
G36*
X179252691Y-109126053D02*
G01*
X179273926Y-109129203D01*
X179294750Y-109134419D01*
X179314962Y-109141651D01*
X179334368Y-109150830D01*
X179352781Y-109161866D01*
X179370024Y-109174654D01*
X179385930Y-109189070D01*
X179400346Y-109204976D01*
X179413134Y-109222219D01*
X179424170Y-109240632D01*
X179433349Y-109260038D01*
X179440581Y-109280250D01*
X179445797Y-109301074D01*
X179448947Y-109322309D01*
X179450000Y-109343750D01*
X179450000Y-109856250D01*
X179448947Y-109877691D01*
X179445797Y-109898926D01*
X179440581Y-109919750D01*
X179433349Y-109939962D01*
X179424170Y-109959368D01*
X179413134Y-109977781D01*
X179400346Y-109995024D01*
X179385930Y-110010930D01*
X179370024Y-110025346D01*
X179352781Y-110038134D01*
X179334368Y-110049170D01*
X179314962Y-110058349D01*
X179294750Y-110065581D01*
X179273926Y-110070797D01*
X179252691Y-110073947D01*
X179231250Y-110075000D01*
X178793750Y-110075000D01*
X178772309Y-110073947D01*
X178751074Y-110070797D01*
X178730250Y-110065581D01*
X178710038Y-110058349D01*
X178690632Y-110049170D01*
X178672219Y-110038134D01*
X178654976Y-110025346D01*
X178639070Y-110010930D01*
X178624654Y-109995024D01*
X178611866Y-109977781D01*
X178600830Y-109959368D01*
X178591651Y-109939962D01*
X178584419Y-109919750D01*
X178579203Y-109898926D01*
X178576053Y-109877691D01*
X178575000Y-109856250D01*
X178575000Y-109343750D01*
X178576053Y-109322309D01*
X178579203Y-109301074D01*
X178584419Y-109280250D01*
X178591651Y-109260038D01*
X178600830Y-109240632D01*
X178611866Y-109222219D01*
X178624654Y-109204976D01*
X178639070Y-109189070D01*
X178654976Y-109174654D01*
X178672219Y-109161866D01*
X178690632Y-109150830D01*
X178710038Y-109141651D01*
X178730250Y-109134419D01*
X178751074Y-109129203D01*
X178772309Y-109126053D01*
X178793750Y-109125000D01*
X179231250Y-109125000D01*
X179252691Y-109126053D01*
X179252691Y-109126053D01*
G37*
D11*
X179012500Y-109600000D03*
D10*
G36*
X180827691Y-109126053D02*
G01*
X180848926Y-109129203D01*
X180869750Y-109134419D01*
X180889962Y-109141651D01*
X180909368Y-109150830D01*
X180927781Y-109161866D01*
X180945024Y-109174654D01*
X180960930Y-109189070D01*
X180975346Y-109204976D01*
X180988134Y-109222219D01*
X180999170Y-109240632D01*
X181008349Y-109260038D01*
X181015581Y-109280250D01*
X181020797Y-109301074D01*
X181023947Y-109322309D01*
X181025000Y-109343750D01*
X181025000Y-109856250D01*
X181023947Y-109877691D01*
X181020797Y-109898926D01*
X181015581Y-109919750D01*
X181008349Y-109939962D01*
X180999170Y-109959368D01*
X180988134Y-109977781D01*
X180975346Y-109995024D01*
X180960930Y-110010930D01*
X180945024Y-110025346D01*
X180927781Y-110038134D01*
X180909368Y-110049170D01*
X180889962Y-110058349D01*
X180869750Y-110065581D01*
X180848926Y-110070797D01*
X180827691Y-110073947D01*
X180806250Y-110075000D01*
X180368750Y-110075000D01*
X180347309Y-110073947D01*
X180326074Y-110070797D01*
X180305250Y-110065581D01*
X180285038Y-110058349D01*
X180265632Y-110049170D01*
X180247219Y-110038134D01*
X180229976Y-110025346D01*
X180214070Y-110010930D01*
X180199654Y-109995024D01*
X180186866Y-109977781D01*
X180175830Y-109959368D01*
X180166651Y-109939962D01*
X180159419Y-109919750D01*
X180154203Y-109898926D01*
X180151053Y-109877691D01*
X180150000Y-109856250D01*
X180150000Y-109343750D01*
X180151053Y-109322309D01*
X180154203Y-109301074D01*
X180159419Y-109280250D01*
X180166651Y-109260038D01*
X180175830Y-109240632D01*
X180186866Y-109222219D01*
X180199654Y-109204976D01*
X180214070Y-109189070D01*
X180229976Y-109174654D01*
X180247219Y-109161866D01*
X180265632Y-109150830D01*
X180285038Y-109141651D01*
X180305250Y-109134419D01*
X180326074Y-109129203D01*
X180347309Y-109126053D01*
X180368750Y-109125000D01*
X180806250Y-109125000D01*
X180827691Y-109126053D01*
X180827691Y-109126053D01*
G37*
D11*
X180587500Y-109600000D03*
D10*
G36*
X155977691Y-126151053D02*
G01*
X155998926Y-126154203D01*
X156019750Y-126159419D01*
X156039962Y-126166651D01*
X156059368Y-126175830D01*
X156077781Y-126186866D01*
X156095024Y-126199654D01*
X156110930Y-126214070D01*
X156125346Y-126229976D01*
X156138134Y-126247219D01*
X156149170Y-126265632D01*
X156158349Y-126285038D01*
X156165581Y-126305250D01*
X156170797Y-126326074D01*
X156173947Y-126347309D01*
X156175000Y-126368750D01*
X156175000Y-126806250D01*
X156173947Y-126827691D01*
X156170797Y-126848926D01*
X156165581Y-126869750D01*
X156158349Y-126889962D01*
X156149170Y-126909368D01*
X156138134Y-126927781D01*
X156125346Y-126945024D01*
X156110930Y-126960930D01*
X156095024Y-126975346D01*
X156077781Y-126988134D01*
X156059368Y-126999170D01*
X156039962Y-127008349D01*
X156019750Y-127015581D01*
X155998926Y-127020797D01*
X155977691Y-127023947D01*
X155956250Y-127025000D01*
X155443750Y-127025000D01*
X155422309Y-127023947D01*
X155401074Y-127020797D01*
X155380250Y-127015581D01*
X155360038Y-127008349D01*
X155340632Y-126999170D01*
X155322219Y-126988134D01*
X155304976Y-126975346D01*
X155289070Y-126960930D01*
X155274654Y-126945024D01*
X155261866Y-126927781D01*
X155250830Y-126909368D01*
X155241651Y-126889962D01*
X155234419Y-126869750D01*
X155229203Y-126848926D01*
X155226053Y-126827691D01*
X155225000Y-126806250D01*
X155225000Y-126368750D01*
X155226053Y-126347309D01*
X155229203Y-126326074D01*
X155234419Y-126305250D01*
X155241651Y-126285038D01*
X155250830Y-126265632D01*
X155261866Y-126247219D01*
X155274654Y-126229976D01*
X155289070Y-126214070D01*
X155304976Y-126199654D01*
X155322219Y-126186866D01*
X155340632Y-126175830D01*
X155360038Y-126166651D01*
X155380250Y-126159419D01*
X155401074Y-126154203D01*
X155422309Y-126151053D01*
X155443750Y-126150000D01*
X155956250Y-126150000D01*
X155977691Y-126151053D01*
X155977691Y-126151053D01*
G37*
D11*
X155700000Y-126587500D03*
D10*
G36*
X155977691Y-124576053D02*
G01*
X155998926Y-124579203D01*
X156019750Y-124584419D01*
X156039962Y-124591651D01*
X156059368Y-124600830D01*
X156077781Y-124611866D01*
X156095024Y-124624654D01*
X156110930Y-124639070D01*
X156125346Y-124654976D01*
X156138134Y-124672219D01*
X156149170Y-124690632D01*
X156158349Y-124710038D01*
X156165581Y-124730250D01*
X156170797Y-124751074D01*
X156173947Y-124772309D01*
X156175000Y-124793750D01*
X156175000Y-125231250D01*
X156173947Y-125252691D01*
X156170797Y-125273926D01*
X156165581Y-125294750D01*
X156158349Y-125314962D01*
X156149170Y-125334368D01*
X156138134Y-125352781D01*
X156125346Y-125370024D01*
X156110930Y-125385930D01*
X156095024Y-125400346D01*
X156077781Y-125413134D01*
X156059368Y-125424170D01*
X156039962Y-125433349D01*
X156019750Y-125440581D01*
X155998926Y-125445797D01*
X155977691Y-125448947D01*
X155956250Y-125450000D01*
X155443750Y-125450000D01*
X155422309Y-125448947D01*
X155401074Y-125445797D01*
X155380250Y-125440581D01*
X155360038Y-125433349D01*
X155340632Y-125424170D01*
X155322219Y-125413134D01*
X155304976Y-125400346D01*
X155289070Y-125385930D01*
X155274654Y-125370024D01*
X155261866Y-125352781D01*
X155250830Y-125334368D01*
X155241651Y-125314962D01*
X155234419Y-125294750D01*
X155229203Y-125273926D01*
X155226053Y-125252691D01*
X155225000Y-125231250D01*
X155225000Y-124793750D01*
X155226053Y-124772309D01*
X155229203Y-124751074D01*
X155234419Y-124730250D01*
X155241651Y-124710038D01*
X155250830Y-124690632D01*
X155261866Y-124672219D01*
X155274654Y-124654976D01*
X155289070Y-124639070D01*
X155304976Y-124624654D01*
X155322219Y-124611866D01*
X155340632Y-124600830D01*
X155360038Y-124591651D01*
X155380250Y-124584419D01*
X155401074Y-124579203D01*
X155422309Y-124576053D01*
X155443750Y-124575000D01*
X155956250Y-124575000D01*
X155977691Y-124576053D01*
X155977691Y-124576053D01*
G37*
D11*
X155700000Y-125012500D03*
D10*
G36*
X189452691Y-117326053D02*
G01*
X189473926Y-117329203D01*
X189494750Y-117334419D01*
X189514962Y-117341651D01*
X189534368Y-117350830D01*
X189552781Y-117361866D01*
X189570024Y-117374654D01*
X189585930Y-117389070D01*
X189600346Y-117404976D01*
X189613134Y-117422219D01*
X189624170Y-117440632D01*
X189633349Y-117460038D01*
X189640581Y-117480250D01*
X189645797Y-117501074D01*
X189648947Y-117522309D01*
X189650000Y-117543750D01*
X189650000Y-118056250D01*
X189648947Y-118077691D01*
X189645797Y-118098926D01*
X189640581Y-118119750D01*
X189633349Y-118139962D01*
X189624170Y-118159368D01*
X189613134Y-118177781D01*
X189600346Y-118195024D01*
X189585930Y-118210930D01*
X189570024Y-118225346D01*
X189552781Y-118238134D01*
X189534368Y-118249170D01*
X189514962Y-118258349D01*
X189494750Y-118265581D01*
X189473926Y-118270797D01*
X189452691Y-118273947D01*
X189431250Y-118275000D01*
X188993750Y-118275000D01*
X188972309Y-118273947D01*
X188951074Y-118270797D01*
X188930250Y-118265581D01*
X188910038Y-118258349D01*
X188890632Y-118249170D01*
X188872219Y-118238134D01*
X188854976Y-118225346D01*
X188839070Y-118210930D01*
X188824654Y-118195024D01*
X188811866Y-118177781D01*
X188800830Y-118159368D01*
X188791651Y-118139962D01*
X188784419Y-118119750D01*
X188779203Y-118098926D01*
X188776053Y-118077691D01*
X188775000Y-118056250D01*
X188775000Y-117543750D01*
X188776053Y-117522309D01*
X188779203Y-117501074D01*
X188784419Y-117480250D01*
X188791651Y-117460038D01*
X188800830Y-117440632D01*
X188811866Y-117422219D01*
X188824654Y-117404976D01*
X188839070Y-117389070D01*
X188854976Y-117374654D01*
X188872219Y-117361866D01*
X188890632Y-117350830D01*
X188910038Y-117341651D01*
X188930250Y-117334419D01*
X188951074Y-117329203D01*
X188972309Y-117326053D01*
X188993750Y-117325000D01*
X189431250Y-117325000D01*
X189452691Y-117326053D01*
X189452691Y-117326053D01*
G37*
D11*
X189212500Y-117800000D03*
D10*
G36*
X191027691Y-117326053D02*
G01*
X191048926Y-117329203D01*
X191069750Y-117334419D01*
X191089962Y-117341651D01*
X191109368Y-117350830D01*
X191127781Y-117361866D01*
X191145024Y-117374654D01*
X191160930Y-117389070D01*
X191175346Y-117404976D01*
X191188134Y-117422219D01*
X191199170Y-117440632D01*
X191208349Y-117460038D01*
X191215581Y-117480250D01*
X191220797Y-117501074D01*
X191223947Y-117522309D01*
X191225000Y-117543750D01*
X191225000Y-118056250D01*
X191223947Y-118077691D01*
X191220797Y-118098926D01*
X191215581Y-118119750D01*
X191208349Y-118139962D01*
X191199170Y-118159368D01*
X191188134Y-118177781D01*
X191175346Y-118195024D01*
X191160930Y-118210930D01*
X191145024Y-118225346D01*
X191127781Y-118238134D01*
X191109368Y-118249170D01*
X191089962Y-118258349D01*
X191069750Y-118265581D01*
X191048926Y-118270797D01*
X191027691Y-118273947D01*
X191006250Y-118275000D01*
X190568750Y-118275000D01*
X190547309Y-118273947D01*
X190526074Y-118270797D01*
X190505250Y-118265581D01*
X190485038Y-118258349D01*
X190465632Y-118249170D01*
X190447219Y-118238134D01*
X190429976Y-118225346D01*
X190414070Y-118210930D01*
X190399654Y-118195024D01*
X190386866Y-118177781D01*
X190375830Y-118159368D01*
X190366651Y-118139962D01*
X190359419Y-118119750D01*
X190354203Y-118098926D01*
X190351053Y-118077691D01*
X190350000Y-118056250D01*
X190350000Y-117543750D01*
X190351053Y-117522309D01*
X190354203Y-117501074D01*
X190359419Y-117480250D01*
X190366651Y-117460038D01*
X190375830Y-117440632D01*
X190386866Y-117422219D01*
X190399654Y-117404976D01*
X190414070Y-117389070D01*
X190429976Y-117374654D01*
X190447219Y-117361866D01*
X190465632Y-117350830D01*
X190485038Y-117341651D01*
X190505250Y-117334419D01*
X190526074Y-117329203D01*
X190547309Y-117326053D01*
X190568750Y-117325000D01*
X191006250Y-117325000D01*
X191027691Y-117326053D01*
X191027691Y-117326053D01*
G37*
D11*
X190787500Y-117800000D03*
D10*
G36*
X191126357Y-113470643D02*
G01*
X191147592Y-113473793D01*
X191168416Y-113479009D01*
X191188628Y-113486241D01*
X191208034Y-113495420D01*
X191226447Y-113506456D01*
X191243690Y-113519244D01*
X191259596Y-113533660D01*
X191274012Y-113549566D01*
X191286800Y-113566809D01*
X191297836Y-113585222D01*
X191307015Y-113604628D01*
X191314247Y-113624840D01*
X191319463Y-113645664D01*
X191322613Y-113666899D01*
X191323666Y-113688340D01*
X191323666Y-114125840D01*
X191322613Y-114147281D01*
X191319463Y-114168516D01*
X191314247Y-114189340D01*
X191307015Y-114209552D01*
X191297836Y-114228958D01*
X191286800Y-114247371D01*
X191274012Y-114264614D01*
X191259596Y-114280520D01*
X191243690Y-114294936D01*
X191226447Y-114307724D01*
X191208034Y-114318760D01*
X191188628Y-114327939D01*
X191168416Y-114335171D01*
X191147592Y-114340387D01*
X191126357Y-114343537D01*
X191104916Y-114344590D01*
X190592416Y-114344590D01*
X190570975Y-114343537D01*
X190549740Y-114340387D01*
X190528916Y-114335171D01*
X190508704Y-114327939D01*
X190489298Y-114318760D01*
X190470885Y-114307724D01*
X190453642Y-114294936D01*
X190437736Y-114280520D01*
X190423320Y-114264614D01*
X190410532Y-114247371D01*
X190399496Y-114228958D01*
X190390317Y-114209552D01*
X190383085Y-114189340D01*
X190377869Y-114168516D01*
X190374719Y-114147281D01*
X190373666Y-114125840D01*
X190373666Y-113688340D01*
X190374719Y-113666899D01*
X190377869Y-113645664D01*
X190383085Y-113624840D01*
X190390317Y-113604628D01*
X190399496Y-113585222D01*
X190410532Y-113566809D01*
X190423320Y-113549566D01*
X190437736Y-113533660D01*
X190453642Y-113519244D01*
X190470885Y-113506456D01*
X190489298Y-113495420D01*
X190508704Y-113486241D01*
X190528916Y-113479009D01*
X190549740Y-113473793D01*
X190570975Y-113470643D01*
X190592416Y-113469590D01*
X191104916Y-113469590D01*
X191126357Y-113470643D01*
X191126357Y-113470643D01*
G37*
D11*
X190848666Y-113907090D03*
D10*
G36*
X191126357Y-115045643D02*
G01*
X191147592Y-115048793D01*
X191168416Y-115054009D01*
X191188628Y-115061241D01*
X191208034Y-115070420D01*
X191226447Y-115081456D01*
X191243690Y-115094244D01*
X191259596Y-115108660D01*
X191274012Y-115124566D01*
X191286800Y-115141809D01*
X191297836Y-115160222D01*
X191307015Y-115179628D01*
X191314247Y-115199840D01*
X191319463Y-115220664D01*
X191322613Y-115241899D01*
X191323666Y-115263340D01*
X191323666Y-115700840D01*
X191322613Y-115722281D01*
X191319463Y-115743516D01*
X191314247Y-115764340D01*
X191307015Y-115784552D01*
X191297836Y-115803958D01*
X191286800Y-115822371D01*
X191274012Y-115839614D01*
X191259596Y-115855520D01*
X191243690Y-115869936D01*
X191226447Y-115882724D01*
X191208034Y-115893760D01*
X191188628Y-115902939D01*
X191168416Y-115910171D01*
X191147592Y-115915387D01*
X191126357Y-115918537D01*
X191104916Y-115919590D01*
X190592416Y-115919590D01*
X190570975Y-115918537D01*
X190549740Y-115915387D01*
X190528916Y-115910171D01*
X190508704Y-115902939D01*
X190489298Y-115893760D01*
X190470885Y-115882724D01*
X190453642Y-115869936D01*
X190437736Y-115855520D01*
X190423320Y-115839614D01*
X190410532Y-115822371D01*
X190399496Y-115803958D01*
X190390317Y-115784552D01*
X190383085Y-115764340D01*
X190377869Y-115743516D01*
X190374719Y-115722281D01*
X190373666Y-115700840D01*
X190373666Y-115263340D01*
X190374719Y-115241899D01*
X190377869Y-115220664D01*
X190383085Y-115199840D01*
X190390317Y-115179628D01*
X190399496Y-115160222D01*
X190410532Y-115141809D01*
X190423320Y-115124566D01*
X190437736Y-115108660D01*
X190453642Y-115094244D01*
X190470885Y-115081456D01*
X190489298Y-115070420D01*
X190508704Y-115061241D01*
X190528916Y-115054009D01*
X190549740Y-115048793D01*
X190570975Y-115045643D01*
X190592416Y-115044590D01*
X191104916Y-115044590D01*
X191126357Y-115045643D01*
X191126357Y-115045643D01*
G37*
D11*
X190848666Y-115482090D03*
D10*
G36*
X194226357Y-113470643D02*
G01*
X194247592Y-113473793D01*
X194268416Y-113479009D01*
X194288628Y-113486241D01*
X194308034Y-113495420D01*
X194326447Y-113506456D01*
X194343690Y-113519244D01*
X194359596Y-113533660D01*
X194374012Y-113549566D01*
X194386800Y-113566809D01*
X194397836Y-113585222D01*
X194407015Y-113604628D01*
X194414247Y-113624840D01*
X194419463Y-113645664D01*
X194422613Y-113666899D01*
X194423666Y-113688340D01*
X194423666Y-114125840D01*
X194422613Y-114147281D01*
X194419463Y-114168516D01*
X194414247Y-114189340D01*
X194407015Y-114209552D01*
X194397836Y-114228958D01*
X194386800Y-114247371D01*
X194374012Y-114264614D01*
X194359596Y-114280520D01*
X194343690Y-114294936D01*
X194326447Y-114307724D01*
X194308034Y-114318760D01*
X194288628Y-114327939D01*
X194268416Y-114335171D01*
X194247592Y-114340387D01*
X194226357Y-114343537D01*
X194204916Y-114344590D01*
X193692416Y-114344590D01*
X193670975Y-114343537D01*
X193649740Y-114340387D01*
X193628916Y-114335171D01*
X193608704Y-114327939D01*
X193589298Y-114318760D01*
X193570885Y-114307724D01*
X193553642Y-114294936D01*
X193537736Y-114280520D01*
X193523320Y-114264614D01*
X193510532Y-114247371D01*
X193499496Y-114228958D01*
X193490317Y-114209552D01*
X193483085Y-114189340D01*
X193477869Y-114168516D01*
X193474719Y-114147281D01*
X193473666Y-114125840D01*
X193473666Y-113688340D01*
X193474719Y-113666899D01*
X193477869Y-113645664D01*
X193483085Y-113624840D01*
X193490317Y-113604628D01*
X193499496Y-113585222D01*
X193510532Y-113566809D01*
X193523320Y-113549566D01*
X193537736Y-113533660D01*
X193553642Y-113519244D01*
X193570885Y-113506456D01*
X193589298Y-113495420D01*
X193608704Y-113486241D01*
X193628916Y-113479009D01*
X193649740Y-113473793D01*
X193670975Y-113470643D01*
X193692416Y-113469590D01*
X194204916Y-113469590D01*
X194226357Y-113470643D01*
X194226357Y-113470643D01*
G37*
D11*
X193948666Y-113907090D03*
D10*
G36*
X194226357Y-115045643D02*
G01*
X194247592Y-115048793D01*
X194268416Y-115054009D01*
X194288628Y-115061241D01*
X194308034Y-115070420D01*
X194326447Y-115081456D01*
X194343690Y-115094244D01*
X194359596Y-115108660D01*
X194374012Y-115124566D01*
X194386800Y-115141809D01*
X194397836Y-115160222D01*
X194407015Y-115179628D01*
X194414247Y-115199840D01*
X194419463Y-115220664D01*
X194422613Y-115241899D01*
X194423666Y-115263340D01*
X194423666Y-115700840D01*
X194422613Y-115722281D01*
X194419463Y-115743516D01*
X194414247Y-115764340D01*
X194407015Y-115784552D01*
X194397836Y-115803958D01*
X194386800Y-115822371D01*
X194374012Y-115839614D01*
X194359596Y-115855520D01*
X194343690Y-115869936D01*
X194326447Y-115882724D01*
X194308034Y-115893760D01*
X194288628Y-115902939D01*
X194268416Y-115910171D01*
X194247592Y-115915387D01*
X194226357Y-115918537D01*
X194204916Y-115919590D01*
X193692416Y-115919590D01*
X193670975Y-115918537D01*
X193649740Y-115915387D01*
X193628916Y-115910171D01*
X193608704Y-115902939D01*
X193589298Y-115893760D01*
X193570885Y-115882724D01*
X193553642Y-115869936D01*
X193537736Y-115855520D01*
X193523320Y-115839614D01*
X193510532Y-115822371D01*
X193499496Y-115803958D01*
X193490317Y-115784552D01*
X193483085Y-115764340D01*
X193477869Y-115743516D01*
X193474719Y-115722281D01*
X193473666Y-115700840D01*
X193473666Y-115263340D01*
X193474719Y-115241899D01*
X193477869Y-115220664D01*
X193483085Y-115199840D01*
X193490317Y-115179628D01*
X193499496Y-115160222D01*
X193510532Y-115141809D01*
X193523320Y-115124566D01*
X193537736Y-115108660D01*
X193553642Y-115094244D01*
X193570885Y-115081456D01*
X193589298Y-115070420D01*
X193608704Y-115061241D01*
X193628916Y-115054009D01*
X193649740Y-115048793D01*
X193670975Y-115045643D01*
X193692416Y-115044590D01*
X194204916Y-115044590D01*
X194226357Y-115045643D01*
X194226357Y-115045643D01*
G37*
D11*
X193948666Y-115482090D03*
D10*
G36*
X160477691Y-115851053D02*
G01*
X160498926Y-115854203D01*
X160519750Y-115859419D01*
X160539962Y-115866651D01*
X160559368Y-115875830D01*
X160577781Y-115886866D01*
X160595024Y-115899654D01*
X160610930Y-115914070D01*
X160625346Y-115929976D01*
X160638134Y-115947219D01*
X160649170Y-115965632D01*
X160658349Y-115985038D01*
X160665581Y-116005250D01*
X160670797Y-116026074D01*
X160673947Y-116047309D01*
X160675000Y-116068750D01*
X160675000Y-116506250D01*
X160673947Y-116527691D01*
X160670797Y-116548926D01*
X160665581Y-116569750D01*
X160658349Y-116589962D01*
X160649170Y-116609368D01*
X160638134Y-116627781D01*
X160625346Y-116645024D01*
X160610930Y-116660930D01*
X160595024Y-116675346D01*
X160577781Y-116688134D01*
X160559368Y-116699170D01*
X160539962Y-116708349D01*
X160519750Y-116715581D01*
X160498926Y-116720797D01*
X160477691Y-116723947D01*
X160456250Y-116725000D01*
X159943750Y-116725000D01*
X159922309Y-116723947D01*
X159901074Y-116720797D01*
X159880250Y-116715581D01*
X159860038Y-116708349D01*
X159840632Y-116699170D01*
X159822219Y-116688134D01*
X159804976Y-116675346D01*
X159789070Y-116660930D01*
X159774654Y-116645024D01*
X159761866Y-116627781D01*
X159750830Y-116609368D01*
X159741651Y-116589962D01*
X159734419Y-116569750D01*
X159729203Y-116548926D01*
X159726053Y-116527691D01*
X159725000Y-116506250D01*
X159725000Y-116068750D01*
X159726053Y-116047309D01*
X159729203Y-116026074D01*
X159734419Y-116005250D01*
X159741651Y-115985038D01*
X159750830Y-115965632D01*
X159761866Y-115947219D01*
X159774654Y-115929976D01*
X159789070Y-115914070D01*
X159804976Y-115899654D01*
X159822219Y-115886866D01*
X159840632Y-115875830D01*
X159860038Y-115866651D01*
X159880250Y-115859419D01*
X159901074Y-115854203D01*
X159922309Y-115851053D01*
X159943750Y-115850000D01*
X160456250Y-115850000D01*
X160477691Y-115851053D01*
X160477691Y-115851053D01*
G37*
D11*
X160200000Y-116287500D03*
D10*
G36*
X160477691Y-114276053D02*
G01*
X160498926Y-114279203D01*
X160519750Y-114284419D01*
X160539962Y-114291651D01*
X160559368Y-114300830D01*
X160577781Y-114311866D01*
X160595024Y-114324654D01*
X160610930Y-114339070D01*
X160625346Y-114354976D01*
X160638134Y-114372219D01*
X160649170Y-114390632D01*
X160658349Y-114410038D01*
X160665581Y-114430250D01*
X160670797Y-114451074D01*
X160673947Y-114472309D01*
X160675000Y-114493750D01*
X160675000Y-114931250D01*
X160673947Y-114952691D01*
X160670797Y-114973926D01*
X160665581Y-114994750D01*
X160658349Y-115014962D01*
X160649170Y-115034368D01*
X160638134Y-115052781D01*
X160625346Y-115070024D01*
X160610930Y-115085930D01*
X160595024Y-115100346D01*
X160577781Y-115113134D01*
X160559368Y-115124170D01*
X160539962Y-115133349D01*
X160519750Y-115140581D01*
X160498926Y-115145797D01*
X160477691Y-115148947D01*
X160456250Y-115150000D01*
X159943750Y-115150000D01*
X159922309Y-115148947D01*
X159901074Y-115145797D01*
X159880250Y-115140581D01*
X159860038Y-115133349D01*
X159840632Y-115124170D01*
X159822219Y-115113134D01*
X159804976Y-115100346D01*
X159789070Y-115085930D01*
X159774654Y-115070024D01*
X159761866Y-115052781D01*
X159750830Y-115034368D01*
X159741651Y-115014962D01*
X159734419Y-114994750D01*
X159729203Y-114973926D01*
X159726053Y-114952691D01*
X159725000Y-114931250D01*
X159725000Y-114493750D01*
X159726053Y-114472309D01*
X159729203Y-114451074D01*
X159734419Y-114430250D01*
X159741651Y-114410038D01*
X159750830Y-114390632D01*
X159761866Y-114372219D01*
X159774654Y-114354976D01*
X159789070Y-114339070D01*
X159804976Y-114324654D01*
X159822219Y-114311866D01*
X159840632Y-114300830D01*
X159860038Y-114291651D01*
X159880250Y-114284419D01*
X159901074Y-114279203D01*
X159922309Y-114276053D01*
X159943750Y-114275000D01*
X160456250Y-114275000D01*
X160477691Y-114276053D01*
X160477691Y-114276053D01*
G37*
D11*
X160200000Y-114712500D03*
D10*
G36*
X173677691Y-98051053D02*
G01*
X173698926Y-98054203D01*
X173719750Y-98059419D01*
X173739962Y-98066651D01*
X173759368Y-98075830D01*
X173777781Y-98086866D01*
X173795024Y-98099654D01*
X173810930Y-98114070D01*
X173825346Y-98129976D01*
X173838134Y-98147219D01*
X173849170Y-98165632D01*
X173858349Y-98185038D01*
X173865581Y-98205250D01*
X173870797Y-98226074D01*
X173873947Y-98247309D01*
X173875000Y-98268750D01*
X173875000Y-98706250D01*
X173873947Y-98727691D01*
X173870797Y-98748926D01*
X173865581Y-98769750D01*
X173858349Y-98789962D01*
X173849170Y-98809368D01*
X173838134Y-98827781D01*
X173825346Y-98845024D01*
X173810930Y-98860930D01*
X173795024Y-98875346D01*
X173777781Y-98888134D01*
X173759368Y-98899170D01*
X173739962Y-98908349D01*
X173719750Y-98915581D01*
X173698926Y-98920797D01*
X173677691Y-98923947D01*
X173656250Y-98925000D01*
X173143750Y-98925000D01*
X173122309Y-98923947D01*
X173101074Y-98920797D01*
X173080250Y-98915581D01*
X173060038Y-98908349D01*
X173040632Y-98899170D01*
X173022219Y-98888134D01*
X173004976Y-98875346D01*
X172989070Y-98860930D01*
X172974654Y-98845024D01*
X172961866Y-98827781D01*
X172950830Y-98809368D01*
X172941651Y-98789962D01*
X172934419Y-98769750D01*
X172929203Y-98748926D01*
X172926053Y-98727691D01*
X172925000Y-98706250D01*
X172925000Y-98268750D01*
X172926053Y-98247309D01*
X172929203Y-98226074D01*
X172934419Y-98205250D01*
X172941651Y-98185038D01*
X172950830Y-98165632D01*
X172961866Y-98147219D01*
X172974654Y-98129976D01*
X172989070Y-98114070D01*
X173004976Y-98099654D01*
X173022219Y-98086866D01*
X173040632Y-98075830D01*
X173060038Y-98066651D01*
X173080250Y-98059419D01*
X173101074Y-98054203D01*
X173122309Y-98051053D01*
X173143750Y-98050000D01*
X173656250Y-98050000D01*
X173677691Y-98051053D01*
X173677691Y-98051053D01*
G37*
D11*
X173400000Y-98487500D03*
D10*
G36*
X173677691Y-96476053D02*
G01*
X173698926Y-96479203D01*
X173719750Y-96484419D01*
X173739962Y-96491651D01*
X173759368Y-96500830D01*
X173777781Y-96511866D01*
X173795024Y-96524654D01*
X173810930Y-96539070D01*
X173825346Y-96554976D01*
X173838134Y-96572219D01*
X173849170Y-96590632D01*
X173858349Y-96610038D01*
X173865581Y-96630250D01*
X173870797Y-96651074D01*
X173873947Y-96672309D01*
X173875000Y-96693750D01*
X173875000Y-97131250D01*
X173873947Y-97152691D01*
X173870797Y-97173926D01*
X173865581Y-97194750D01*
X173858349Y-97214962D01*
X173849170Y-97234368D01*
X173838134Y-97252781D01*
X173825346Y-97270024D01*
X173810930Y-97285930D01*
X173795024Y-97300346D01*
X173777781Y-97313134D01*
X173759368Y-97324170D01*
X173739962Y-97333349D01*
X173719750Y-97340581D01*
X173698926Y-97345797D01*
X173677691Y-97348947D01*
X173656250Y-97350000D01*
X173143750Y-97350000D01*
X173122309Y-97348947D01*
X173101074Y-97345797D01*
X173080250Y-97340581D01*
X173060038Y-97333349D01*
X173040632Y-97324170D01*
X173022219Y-97313134D01*
X173004976Y-97300346D01*
X172989070Y-97285930D01*
X172974654Y-97270024D01*
X172961866Y-97252781D01*
X172950830Y-97234368D01*
X172941651Y-97214962D01*
X172934419Y-97194750D01*
X172929203Y-97173926D01*
X172926053Y-97152691D01*
X172925000Y-97131250D01*
X172925000Y-96693750D01*
X172926053Y-96672309D01*
X172929203Y-96651074D01*
X172934419Y-96630250D01*
X172941651Y-96610038D01*
X172950830Y-96590632D01*
X172961866Y-96572219D01*
X172974654Y-96554976D01*
X172989070Y-96539070D01*
X173004976Y-96524654D01*
X173022219Y-96511866D01*
X173040632Y-96500830D01*
X173060038Y-96491651D01*
X173080250Y-96484419D01*
X173101074Y-96479203D01*
X173122309Y-96476053D01*
X173143750Y-96475000D01*
X173656250Y-96475000D01*
X173677691Y-96476053D01*
X173677691Y-96476053D01*
G37*
D11*
X173400000Y-96912500D03*
D10*
G36*
X175777691Y-98051053D02*
G01*
X175798926Y-98054203D01*
X175819750Y-98059419D01*
X175839962Y-98066651D01*
X175859368Y-98075830D01*
X175877781Y-98086866D01*
X175895024Y-98099654D01*
X175910930Y-98114070D01*
X175925346Y-98129976D01*
X175938134Y-98147219D01*
X175949170Y-98165632D01*
X175958349Y-98185038D01*
X175965581Y-98205250D01*
X175970797Y-98226074D01*
X175973947Y-98247309D01*
X175975000Y-98268750D01*
X175975000Y-98706250D01*
X175973947Y-98727691D01*
X175970797Y-98748926D01*
X175965581Y-98769750D01*
X175958349Y-98789962D01*
X175949170Y-98809368D01*
X175938134Y-98827781D01*
X175925346Y-98845024D01*
X175910930Y-98860930D01*
X175895024Y-98875346D01*
X175877781Y-98888134D01*
X175859368Y-98899170D01*
X175839962Y-98908349D01*
X175819750Y-98915581D01*
X175798926Y-98920797D01*
X175777691Y-98923947D01*
X175756250Y-98925000D01*
X175243750Y-98925000D01*
X175222309Y-98923947D01*
X175201074Y-98920797D01*
X175180250Y-98915581D01*
X175160038Y-98908349D01*
X175140632Y-98899170D01*
X175122219Y-98888134D01*
X175104976Y-98875346D01*
X175089070Y-98860930D01*
X175074654Y-98845024D01*
X175061866Y-98827781D01*
X175050830Y-98809368D01*
X175041651Y-98789962D01*
X175034419Y-98769750D01*
X175029203Y-98748926D01*
X175026053Y-98727691D01*
X175025000Y-98706250D01*
X175025000Y-98268750D01*
X175026053Y-98247309D01*
X175029203Y-98226074D01*
X175034419Y-98205250D01*
X175041651Y-98185038D01*
X175050830Y-98165632D01*
X175061866Y-98147219D01*
X175074654Y-98129976D01*
X175089070Y-98114070D01*
X175104976Y-98099654D01*
X175122219Y-98086866D01*
X175140632Y-98075830D01*
X175160038Y-98066651D01*
X175180250Y-98059419D01*
X175201074Y-98054203D01*
X175222309Y-98051053D01*
X175243750Y-98050000D01*
X175756250Y-98050000D01*
X175777691Y-98051053D01*
X175777691Y-98051053D01*
G37*
D11*
X175500000Y-98487500D03*
D10*
G36*
X175777691Y-96476053D02*
G01*
X175798926Y-96479203D01*
X175819750Y-96484419D01*
X175839962Y-96491651D01*
X175859368Y-96500830D01*
X175877781Y-96511866D01*
X175895024Y-96524654D01*
X175910930Y-96539070D01*
X175925346Y-96554976D01*
X175938134Y-96572219D01*
X175949170Y-96590632D01*
X175958349Y-96610038D01*
X175965581Y-96630250D01*
X175970797Y-96651074D01*
X175973947Y-96672309D01*
X175975000Y-96693750D01*
X175975000Y-97131250D01*
X175973947Y-97152691D01*
X175970797Y-97173926D01*
X175965581Y-97194750D01*
X175958349Y-97214962D01*
X175949170Y-97234368D01*
X175938134Y-97252781D01*
X175925346Y-97270024D01*
X175910930Y-97285930D01*
X175895024Y-97300346D01*
X175877781Y-97313134D01*
X175859368Y-97324170D01*
X175839962Y-97333349D01*
X175819750Y-97340581D01*
X175798926Y-97345797D01*
X175777691Y-97348947D01*
X175756250Y-97350000D01*
X175243750Y-97350000D01*
X175222309Y-97348947D01*
X175201074Y-97345797D01*
X175180250Y-97340581D01*
X175160038Y-97333349D01*
X175140632Y-97324170D01*
X175122219Y-97313134D01*
X175104976Y-97300346D01*
X175089070Y-97285930D01*
X175074654Y-97270024D01*
X175061866Y-97252781D01*
X175050830Y-97234368D01*
X175041651Y-97214962D01*
X175034419Y-97194750D01*
X175029203Y-97173926D01*
X175026053Y-97152691D01*
X175025000Y-97131250D01*
X175025000Y-96693750D01*
X175026053Y-96672309D01*
X175029203Y-96651074D01*
X175034419Y-96630250D01*
X175041651Y-96610038D01*
X175050830Y-96590632D01*
X175061866Y-96572219D01*
X175074654Y-96554976D01*
X175089070Y-96539070D01*
X175104976Y-96524654D01*
X175122219Y-96511866D01*
X175140632Y-96500830D01*
X175160038Y-96491651D01*
X175180250Y-96484419D01*
X175201074Y-96479203D01*
X175222309Y-96476053D01*
X175243750Y-96475000D01*
X175756250Y-96475000D01*
X175777691Y-96476053D01*
X175777691Y-96476053D01*
G37*
D11*
X175500000Y-96912500D03*
D10*
G36*
X170077691Y-109551053D02*
G01*
X170098926Y-109554203D01*
X170119750Y-109559419D01*
X170139962Y-109566651D01*
X170159368Y-109575830D01*
X170177781Y-109586866D01*
X170195024Y-109599654D01*
X170210930Y-109614070D01*
X170225346Y-109629976D01*
X170238134Y-109647219D01*
X170249170Y-109665632D01*
X170258349Y-109685038D01*
X170265581Y-109705250D01*
X170270797Y-109726074D01*
X170273947Y-109747309D01*
X170275000Y-109768750D01*
X170275000Y-110206250D01*
X170273947Y-110227691D01*
X170270797Y-110248926D01*
X170265581Y-110269750D01*
X170258349Y-110289962D01*
X170249170Y-110309368D01*
X170238134Y-110327781D01*
X170225346Y-110345024D01*
X170210930Y-110360930D01*
X170195024Y-110375346D01*
X170177781Y-110388134D01*
X170159368Y-110399170D01*
X170139962Y-110408349D01*
X170119750Y-110415581D01*
X170098926Y-110420797D01*
X170077691Y-110423947D01*
X170056250Y-110425000D01*
X169543750Y-110425000D01*
X169522309Y-110423947D01*
X169501074Y-110420797D01*
X169480250Y-110415581D01*
X169460038Y-110408349D01*
X169440632Y-110399170D01*
X169422219Y-110388134D01*
X169404976Y-110375346D01*
X169389070Y-110360930D01*
X169374654Y-110345024D01*
X169361866Y-110327781D01*
X169350830Y-110309368D01*
X169341651Y-110289962D01*
X169334419Y-110269750D01*
X169329203Y-110248926D01*
X169326053Y-110227691D01*
X169325000Y-110206250D01*
X169325000Y-109768750D01*
X169326053Y-109747309D01*
X169329203Y-109726074D01*
X169334419Y-109705250D01*
X169341651Y-109685038D01*
X169350830Y-109665632D01*
X169361866Y-109647219D01*
X169374654Y-109629976D01*
X169389070Y-109614070D01*
X169404976Y-109599654D01*
X169422219Y-109586866D01*
X169440632Y-109575830D01*
X169460038Y-109566651D01*
X169480250Y-109559419D01*
X169501074Y-109554203D01*
X169522309Y-109551053D01*
X169543750Y-109550000D01*
X170056250Y-109550000D01*
X170077691Y-109551053D01*
X170077691Y-109551053D01*
G37*
D11*
X169800000Y-109987500D03*
D10*
G36*
X170077691Y-107976053D02*
G01*
X170098926Y-107979203D01*
X170119750Y-107984419D01*
X170139962Y-107991651D01*
X170159368Y-108000830D01*
X170177781Y-108011866D01*
X170195024Y-108024654D01*
X170210930Y-108039070D01*
X170225346Y-108054976D01*
X170238134Y-108072219D01*
X170249170Y-108090632D01*
X170258349Y-108110038D01*
X170265581Y-108130250D01*
X170270797Y-108151074D01*
X170273947Y-108172309D01*
X170275000Y-108193750D01*
X170275000Y-108631250D01*
X170273947Y-108652691D01*
X170270797Y-108673926D01*
X170265581Y-108694750D01*
X170258349Y-108714962D01*
X170249170Y-108734368D01*
X170238134Y-108752781D01*
X170225346Y-108770024D01*
X170210930Y-108785930D01*
X170195024Y-108800346D01*
X170177781Y-108813134D01*
X170159368Y-108824170D01*
X170139962Y-108833349D01*
X170119750Y-108840581D01*
X170098926Y-108845797D01*
X170077691Y-108848947D01*
X170056250Y-108850000D01*
X169543750Y-108850000D01*
X169522309Y-108848947D01*
X169501074Y-108845797D01*
X169480250Y-108840581D01*
X169460038Y-108833349D01*
X169440632Y-108824170D01*
X169422219Y-108813134D01*
X169404976Y-108800346D01*
X169389070Y-108785930D01*
X169374654Y-108770024D01*
X169361866Y-108752781D01*
X169350830Y-108734368D01*
X169341651Y-108714962D01*
X169334419Y-108694750D01*
X169329203Y-108673926D01*
X169326053Y-108652691D01*
X169325000Y-108631250D01*
X169325000Y-108193750D01*
X169326053Y-108172309D01*
X169329203Y-108151074D01*
X169334419Y-108130250D01*
X169341651Y-108110038D01*
X169350830Y-108090632D01*
X169361866Y-108072219D01*
X169374654Y-108054976D01*
X169389070Y-108039070D01*
X169404976Y-108024654D01*
X169422219Y-108011866D01*
X169440632Y-108000830D01*
X169460038Y-107991651D01*
X169480250Y-107984419D01*
X169501074Y-107979203D01*
X169522309Y-107976053D01*
X169543750Y-107975000D01*
X170056250Y-107975000D01*
X170077691Y-107976053D01*
X170077691Y-107976053D01*
G37*
D11*
X169800000Y-108412500D03*
D10*
G36*
X191027691Y-118826053D02*
G01*
X191048926Y-118829203D01*
X191069750Y-118834419D01*
X191089962Y-118841651D01*
X191109368Y-118850830D01*
X191127781Y-118861866D01*
X191145024Y-118874654D01*
X191160930Y-118889070D01*
X191175346Y-118904976D01*
X191188134Y-118922219D01*
X191199170Y-118940632D01*
X191208349Y-118960038D01*
X191215581Y-118980250D01*
X191220797Y-119001074D01*
X191223947Y-119022309D01*
X191225000Y-119043750D01*
X191225000Y-119556250D01*
X191223947Y-119577691D01*
X191220797Y-119598926D01*
X191215581Y-119619750D01*
X191208349Y-119639962D01*
X191199170Y-119659368D01*
X191188134Y-119677781D01*
X191175346Y-119695024D01*
X191160930Y-119710930D01*
X191145024Y-119725346D01*
X191127781Y-119738134D01*
X191109368Y-119749170D01*
X191089962Y-119758349D01*
X191069750Y-119765581D01*
X191048926Y-119770797D01*
X191027691Y-119773947D01*
X191006250Y-119775000D01*
X190568750Y-119775000D01*
X190547309Y-119773947D01*
X190526074Y-119770797D01*
X190505250Y-119765581D01*
X190485038Y-119758349D01*
X190465632Y-119749170D01*
X190447219Y-119738134D01*
X190429976Y-119725346D01*
X190414070Y-119710930D01*
X190399654Y-119695024D01*
X190386866Y-119677781D01*
X190375830Y-119659368D01*
X190366651Y-119639962D01*
X190359419Y-119619750D01*
X190354203Y-119598926D01*
X190351053Y-119577691D01*
X190350000Y-119556250D01*
X190350000Y-119043750D01*
X190351053Y-119022309D01*
X190354203Y-119001074D01*
X190359419Y-118980250D01*
X190366651Y-118960038D01*
X190375830Y-118940632D01*
X190386866Y-118922219D01*
X190399654Y-118904976D01*
X190414070Y-118889070D01*
X190429976Y-118874654D01*
X190447219Y-118861866D01*
X190465632Y-118850830D01*
X190485038Y-118841651D01*
X190505250Y-118834419D01*
X190526074Y-118829203D01*
X190547309Y-118826053D01*
X190568750Y-118825000D01*
X191006250Y-118825000D01*
X191027691Y-118826053D01*
X191027691Y-118826053D01*
G37*
D11*
X190787500Y-119300000D03*
D10*
G36*
X189452691Y-118826053D02*
G01*
X189473926Y-118829203D01*
X189494750Y-118834419D01*
X189514962Y-118841651D01*
X189534368Y-118850830D01*
X189552781Y-118861866D01*
X189570024Y-118874654D01*
X189585930Y-118889070D01*
X189600346Y-118904976D01*
X189613134Y-118922219D01*
X189624170Y-118940632D01*
X189633349Y-118960038D01*
X189640581Y-118980250D01*
X189645797Y-119001074D01*
X189648947Y-119022309D01*
X189650000Y-119043750D01*
X189650000Y-119556250D01*
X189648947Y-119577691D01*
X189645797Y-119598926D01*
X189640581Y-119619750D01*
X189633349Y-119639962D01*
X189624170Y-119659368D01*
X189613134Y-119677781D01*
X189600346Y-119695024D01*
X189585930Y-119710930D01*
X189570024Y-119725346D01*
X189552781Y-119738134D01*
X189534368Y-119749170D01*
X189514962Y-119758349D01*
X189494750Y-119765581D01*
X189473926Y-119770797D01*
X189452691Y-119773947D01*
X189431250Y-119775000D01*
X188993750Y-119775000D01*
X188972309Y-119773947D01*
X188951074Y-119770797D01*
X188930250Y-119765581D01*
X188910038Y-119758349D01*
X188890632Y-119749170D01*
X188872219Y-119738134D01*
X188854976Y-119725346D01*
X188839070Y-119710930D01*
X188824654Y-119695024D01*
X188811866Y-119677781D01*
X188800830Y-119659368D01*
X188791651Y-119639962D01*
X188784419Y-119619750D01*
X188779203Y-119598926D01*
X188776053Y-119577691D01*
X188775000Y-119556250D01*
X188775000Y-119043750D01*
X188776053Y-119022309D01*
X188779203Y-119001074D01*
X188784419Y-118980250D01*
X188791651Y-118960038D01*
X188800830Y-118940632D01*
X188811866Y-118922219D01*
X188824654Y-118904976D01*
X188839070Y-118889070D01*
X188854976Y-118874654D01*
X188872219Y-118861866D01*
X188890632Y-118850830D01*
X188910038Y-118841651D01*
X188930250Y-118834419D01*
X188951074Y-118829203D01*
X188972309Y-118826053D01*
X188993750Y-118825000D01*
X189431250Y-118825000D01*
X189452691Y-118826053D01*
X189452691Y-118826053D01*
G37*
D11*
X189212500Y-119300000D03*
M02*
