<?xml version="1.0" standalone="no"?>
 <!DOCTYPE svg PUBLIC "-//W3C//DTD SVG 1.1//EN" 
 "http://www.w3.org/Graphics/SVG/1.1/DTD/svg11.dtd"> 
<svg xmlns="http://www.w3.org/2000/svg" version="1.1" 
    width="3.06324cm" height="3.30454cm" viewBox="0 0 12060 13010 ">
<title>SVG Picture created as Pulse_Arc_Welder_logic-B.Paste.svg date 2018/10/21 18:13:23 </title>
  <desc>Picture generated by PCBNEW </desc>
<g style="fill:#000000; fill-opacity:1;stroke:#000000; stroke-opacity:1;
stroke-linecap:round; stroke-linejoin:round; "
 transform="translate(0 0) scale(1 1)">
</g>
<g style="fill:#000000; fill-opacity:0.0; 
stroke:#000000; stroke-width:-0.000393701; stroke-opacity:1; 
stroke-linecap:round; stroke-linejoin:round;">
</g>
<g style="fill:#008400; fill-opacity:0.0; 
stroke:#008400; stroke-width:-0.000393701; stroke-opacity:1; 
stroke-linecap:round; stroke-linejoin:round;">
</g>
<g style="fill:#008400; fill-opacity:0.0; 
stroke:#008400; stroke-width:0; stroke-opacity:1; 
stroke-linecap:round; stroke-linejoin:round;">
</g>
<g style="fill:#008400; fill-opacity:1.0; 
stroke:#008400; stroke-width:0; stroke-opacity:1; 
stroke-linecap:round; stroke-linejoin:round;">
<polyline style="fill-rule:evenodd;"
points="7057,7096
6742,7096
6742,6348
7057,6348
7057,7096
" /> 
<polyline style="fill-rule:evenodd;"
points="6309,7096
5994,7096
5994,6348
6309,6348
6309,7096
" /> 
<polyline style="fill-rule:evenodd;"
points="6683,5915
6368,5915
6368,5167
6683,5167
6683,5915
" /> 
<polyline style="fill-rule:evenodd;"
points="5285,7096
4970,7096
4970,6348
5285,6348
5285,7096
" /> 
<polyline style="fill-rule:evenodd;"
points="4537,7096
4222,7096
4222,6348
4537,6348
4537,7096
" /> 
<polyline style="fill-rule:evenodd;"
points="4911,5915
4596,5915
4596,5167
4911,5167
4911,5915
" /> 
<polyline style="fill-rule:evenodd;"
points="3139,5915
2824,5915
2824,5167
3139,5167
3139,5915
" /> 
<polyline style="fill-rule:evenodd;"
points="2765,7096
2450,7096
2450,6348
2765,6348
2765,7096
" /> 
<polyline style="fill-rule:evenodd;"
points="3513,7096
3198,7096
3198,6348
3513,6348
3513,7096
" /> 
<polyline style="fill-rule:evenodd;"
points="6310,8268
6318,8269
6326,8271
6334,8274
6342,8277
6349,8282
6356,8287
6362,8292
6368,8299
6373,8305
6377,8313
6381,8320
6384,8328
6386,8337
6387,8345
6387,8353
6387,8555
6387,8564
6386,8572
6384,8580
6381,8588
6377,8596
6373,8603
6368,8610
6362,8616
6356,8622
6349,8627
6342,8631
6334,8635
6326,8638
6318,8640
6310,8641
6301,8641
6129,8641
6120,8641
6112,8640
6104,8638
6096,8635
6088,8631
6081,8627
6074,8622
6068,8616
6062,8610
6057,8603
6053,8596
6049,8588
6047,8580
6044,8572
6043,8564
6043,8555
6043,8353
6043,8345
6044,8337
6047,8328
6049,8320
6053,8313
6057,8305
6062,8299
6068,8292
6074,8287
6081,8282
6088,8277
6096,8274
6104,8271
6112,8269
6120,8268
6129,8267
6301,8267
6310,8268
" /> 
<polyline style="fill-rule:evenodd;"
points="6930,8268
6938,8269
6946,8271
6954,8274
6962,8277
6969,8282
6976,8287
6982,8292
6988,8299
6993,8305
6997,8313
7001,8320
7004,8328
7006,8337
7007,8345
7007,8353
7007,8555
7007,8564
7006,8572
7004,8580
7001,8588
6997,8596
6993,8603
6988,8610
6982,8616
6976,8622
6969,8627
6962,8631
6954,8635
6946,8638
6938,8640
6930,8641
6921,8641
6749,8641
6741,8641
6732,8640
6724,8638
6716,8635
6708,8631
6701,8627
6694,8622
6688,8616
6682,8610
6677,8603
6673,8596
6669,8588
6667,8580
6665,8572
6663,8564
6663,8555
6663,8353
6663,8345
6665,8337
6667,8328
6669,8320
6673,8313
6677,8305
6682,8299
6688,8292
6694,8287
6701,8282
6708,8277
6716,8274
6724,8271
6732,8269
6741,8268
6749,8267
6921,8267
6930,8268
" /> 
</g>
<g style="fill:#000000; fill-opacity:1.0; 
stroke:#000000; stroke-width:0; stroke-opacity:1; 
stroke-linecap:round; stroke-linejoin:round;">
</g>
<g style="fill:#C2C200; fill-opacity:1.0; 
stroke:#C2C200; stroke-width:0; stroke-opacity:1; 
stroke-linecap:round; stroke-linejoin:round;">
</g>
<g style="fill:#C2C200; fill-opacity:1.0; 
stroke:#C2C200; stroke-width:59.0551; stroke-opacity:1; 
stroke-linecap:round; stroke-linejoin:round;">
</g>
<g style="fill:#C2C200; fill-opacity:0.0; 
stroke:#C2C200; stroke-width:59.0551; stroke-opacity:1; 
stroke-linecap:round; stroke-linejoin:round;">
<path d="M8494 12982
L8494 3572
" />
<path d="M29 12982
L8494 12982
" />
<path d="M29 3572
L29 12982
" />
<path d="M8494 3572
L29 3572
" />
</g> 
</svg>
