  0
SECTION
  2
HEADER
  9
$ANGBASE
  50
0.0
  9
$ANGDIR
  70
  1
  9
$MEASUREMENT
  70
0
  0
ENDSEC
  0
SECTION
  2
TABLES
  0
TABLE
  2
LTYPE
  70
4
  0
LTYPE
  5
40F
  2
CONTINUOUS
  70
0
  3
Solid line
  72
65
  73
0
  40
0.0
  0
LTYPE
  5
410
  2
DASHDOT
 70
0
  3
Dash Dot ____ _ ____ _
 72
65
 73
4
 40
2.0
 49
1.25
 49
-0.25
 49
0.25
 49
-0.25
  0
LTYPE
  5
411
  2
DASHED
 70
0
  3
Dashed __ __ __ __ __
 72
65
 73
2
 40
0.75
 49
0.5
 49
-0.25
  0
LTYPE
  5
43B
  2
DOTTED
 70
0
  3
Dotted .  .  .  .
 72
65
 73
2
 40
0.2
 49
0.0
 49
-0.2
  0
ENDTAB
  0
TABLE
  2
STYLE
  70
4
  0
STYLE
  2
KICAD
  70
0
  40
0
  41
1
  42
1
  50
0
  71
0
  3
isocp.shx
  0
STYLE
  2
KICADB
  70
0
  40
0
  41
1
  42
1
  50
0
  71
0
  3
isocp.shx
  0
STYLE
  2
KICADI
  70
0
  40
0
  41
1
  42
1
  50
15
  71
0
  3
isocp.shx
  0
STYLE
  2
KICADBI
  70
0
  40
0
  41
1
  42
1
  50
15
  71
0
  3
isocp.shx
  0
ENDTAB
  0
TABLE
  2
LAYER
  70
30
  0
LAYER
  2
BLACK
  70
0
  62
7
  6
CONTINUOUS
  0
LAYER
  2
GRAY1
  70
0
  62
251
  6
CONTINUOUS
  0
LAYER
  2
GRAY2
  70
0
  62
8
  6
CONTINUOUS
  0
LAYER
  2
GRAY3
  70
0
  62
9
  6
CONTINUOUS
  0
LAYER
  2
WHITE
  70
0
  62
7
  6
CONTINUOUS
  0
LAYER
  2
LYELLOW
  70
0
  62
51
  6
CONTINUOUS
  0
LAYER
  2
BLUE1
  70
0
  62
178
  6
CONTINUOUS
  0
LAYER
  2
GREEN1
  70
0
  62
98
  6
CONTINUOUS
  0
LAYER
  2
CYAN1
  70
0
  62
138
  6
CONTINUOUS
  0
LAYER
  2
RED1
  70
0
  62
18
  6
CONTINUOUS
  0
LAYER
  2
MAGENTA1
  70
0
  62
228
  6
CONTINUOUS
  0
LAYER
  2
BROWN1
  70
0
  62
58
  6
CONTINUOUS
  0
LAYER
  2
BLUE2
  70
0
  62
5
  6
CONTINUOUS
  0
LAYER
  2
GREEN2
  70
0
  62
3
  6
CONTINUOUS
  0
LAYER
  2
CYAN2
  70
0
  62
4
  6
CONTINUOUS
  0
LAYER
  2
RED2
  70
0
  62
1
  6
CONTINUOUS
  0
LAYER
  2
MAGENTA2
  70
0
  62
6
  6
CONTINUOUS
  0
LAYER
  2
BROWN2
  70
0
  62
54
  6
CONTINUOUS
  0
LAYER
  2
BLUE3
  70
0
  62
171
  6
CONTINUOUS
  0
LAYER
  2
GREEN3
  70
0
  62
91
  6
CONTINUOUS
  0
LAYER
  2
CYAN3
  70
0
  62
131
  6
CONTINUOUS
  0
LAYER
  2
RED3
  70
0
  62
11
  6
CONTINUOUS
  0
LAYER
  2
MAGENTA3
  70
0
  62
221
  6
CONTINUOUS
  0
LAYER
  2
YELLOW3
  70
0
  62
2
  6
CONTINUOUS
  0
LAYER
  2
BLUE4
  70
0
  62
5
  6
CONTINUOUS
  0
LAYER
  2
GREEN4
  70
0
  62
3
  6
CONTINUOUS
  0
LAYER
  2
CYAN4
  70
0
  62
4
  6
CONTINUOUS
  0
LAYER
  2
RED4
  70
0
  62
1
  6
CONTINUOUS
  0
LAYER
  2
MAGENTA4
  70
0
  62
6
  6
CONTINUOUS
  0
LAYER
  2
YELLOW4
  70
0
  62
2
  6
CONTINUOUS
  0
ENDTAB
  0
ENDSEC
  0
SECTION
  2
ENTITIES
0
LINE
8
BLACK
6
CONTINUOUS
10
93.0811
20
-79.8632
11
93.1469
21
-79.9012
0
LINE
8
BLACK
6
CONTINUOUS
10
93.1469
20
-79.9012
11
93.1957
21
-79.9594
0
LINE
8
BLACK
6
CONTINUOUS
10
93.1957
20
-79.9594
11
93.225
21
-80.0687
0
LINE
8
BLACK
6
CONTINUOUS
10
93.225
20
-80.0687
11
93.225
21
-80.5062
0
LINE
8
BLACK
6
CONTINUOUS
10
93.225
20
-80.5062
11
93.2118
21
-80.5811
0
LINE
8
BLACK
6
CONTINUOUS
10
93.2118
20
-80.5811
11
93.1738
21
-80.6469
0
LINE
8
BLACK
6
CONTINUOUS
10
93.1738
20
-80.6469
11
93.1156
21
-80.6957
0
LINE
8
BLACK
6
CONTINUOUS
10
93.1156
20
-80.6957
11
93.0062
21
-80.725
0
LINE
8
BLACK
6
CONTINUOUS
10
93.0062
20
-80.725
11
92.4937
21
-80.725
0
LINE
8
BLACK
6
CONTINUOUS
10
92.4937
20
-80.725
11
92.4189
21
-80.7118
0
LINE
8
BLACK
6
CONTINUOUS
10
92.4189
20
-80.7118
11
92.3531
21
-80.6738
0
LINE
8
BLACK
6
CONTINUOUS
10
92.3531
20
-80.6738
11
92.3043
21
-80.6156
0
LINE
8
BLACK
6
CONTINUOUS
10
92.3043
20
-80.6156
11
92.275
21
-80.5062
0
LINE
8
BLACK
6
CONTINUOUS
10
92.275
20
-80.5062
11
92.275
21
-80.0687
0
LINE
8
BLACK
6
CONTINUOUS
10
92.275
20
-80.0687
11
92.2882
21
-79.9939
0
LINE
8
BLACK
6
CONTINUOUS
10
92.2882
20
-79.9939
11
92.3262
21
-79.9281
0
LINE
8
BLACK
6
CONTINUOUS
10
92.3262
20
-79.9281
11
92.3844
21
-79.8793
0
LINE
8
BLACK
6
CONTINUOUS
10
92.3844
20
-79.8793
11
92.4937
21
-79.85
0
LINE
8
BLACK
6
CONTINUOUS
10
92.4937
20
-79.85
11
93.0062
21
-79.85
0
LINE
8
BLACK
6
CONTINUOUS
10
93.0062
20
-79.85
11
93.0811
21
-79.8632
0
LINE
8
BLACK
6
CONTINUOUS
10
99.0811
20
-79.8632
11
99.1469
21
-79.9012
0
LINE
8
BLACK
6
CONTINUOUS
10
99.1469
20
-79.9012
11
99.1957
21
-79.9594
0
LINE
8
BLACK
6
CONTINUOUS
10
99.1957
20
-79.9594
11
99.225
21
-80.0687
0
LINE
8
BLACK
6
CONTINUOUS
10
99.225
20
-80.0687
11
99.225
21
-80.5062
0
LINE
8
BLACK
6
CONTINUOUS
10
99.225
20
-80.5062
11
99.2118
21
-80.5811
0
LINE
8
BLACK
6
CONTINUOUS
10
99.2118
20
-80.5811
11
99.1738
21
-80.6469
0
LINE
8
BLACK
6
CONTINUOUS
10
99.1738
20
-80.6469
11
99.1156
21
-80.6957
0
LINE
8
BLACK
6
CONTINUOUS
10
99.1156
20
-80.6957
11
99.0062
21
-80.725
0
LINE
8
BLACK
6
CONTINUOUS
10
99.0062
20
-80.725
11
98.4937
21
-80.725
0
LINE
8
BLACK
6
CONTINUOUS
10
98.4937
20
-80.725
11
98.4189
21
-80.7118
0
LINE
8
BLACK
6
CONTINUOUS
10
98.4189
20
-80.7118
11
98.3531
21
-80.6738
0
LINE
8
BLACK
6
CONTINUOUS
10
98.3531
20
-80.6738
11
98.3043
21
-80.6156
0
LINE
8
BLACK
6
CONTINUOUS
10
98.3043
20
-80.6156
11
98.275
21
-80.5062
0
LINE
8
BLACK
6
CONTINUOUS
10
98.275
20
-80.5062
11
98.275
21
-80.0687
0
LINE
8
BLACK
6
CONTINUOUS
10
98.275
20
-80.0687
11
98.2882
21
-79.9939
0
LINE
8
BLACK
6
CONTINUOUS
10
98.2882
20
-79.9939
11
98.3262
21
-79.9281
0
LINE
8
BLACK
6
CONTINUOUS
10
98.3262
20
-79.9281
11
98.3844
21
-79.8793
0
LINE
8
BLACK
6
CONTINUOUS
10
98.3844
20
-79.8793
11
98.4937
21
-79.85
0
LINE
8
BLACK
6
CONTINUOUS
10
98.4937
20
-79.85
11
99.0062
21
-79.85
0
LINE
8
BLACK
6
CONTINUOUS
10
99.0062
20
-79.85
11
99.0811
21
-79.8632
0
LINE
8
BLACK
6
CONTINUOUS
10
105.232
20
-79.8632
11
105.298
21
-79.9012
0
LINE
8
BLACK
6
CONTINUOUS
10
105.298
20
-79.9012
11
105.347
21
-79.9594
0
LINE
8
BLACK
6
CONTINUOUS
10
105.347
20
-79.9594
11
105.376
21
-80.0687
0
LINE
8
BLACK
6
CONTINUOUS
10
105.376
20
-80.0687
11
105.376
21
-80.5062
0
LINE
8
BLACK
6
CONTINUOUS
10
105.376
20
-80.5062
11
105.363
21
-80.5811
0
LINE
8
BLACK
6
CONTINUOUS
10
105.363
20
-80.5811
11
105.325
21
-80.6469
0
LINE
8
BLACK
6
CONTINUOUS
10
105.325
20
-80.6469
11
105.267
21
-80.6957
0
LINE
8
BLACK
6
CONTINUOUS
10
105.267
20
-80.6957
11
105.157
21
-80.725
0
LINE
8
BLACK
6
CONTINUOUS
10
105.157
20
-80.725
11
104.645
21
-80.725
0
LINE
8
BLACK
6
CONTINUOUS
10
104.645
20
-80.725
11
104.57
21
-80.7118
0
LINE
8
BLACK
6
CONTINUOUS
10
104.57
20
-80.7118
11
104.504
21
-80.6738
0
LINE
8
BLACK
6
CONTINUOUS
10
104.504
20
-80.6738
11
104.455
21
-80.6156
0
LINE
8
BLACK
6
CONTINUOUS
10
104.455
20
-80.6156
11
104.426
21
-80.5062
0
LINE
8
BLACK
6
CONTINUOUS
10
104.426
20
-80.5062
11
104.426
21
-80.0687
0
LINE
8
BLACK
6
CONTINUOUS
10
104.426
20
-80.0687
11
104.439
21
-79.9939
0
LINE
8
BLACK
6
CONTINUOUS
10
104.439
20
-79.9939
11
104.477
21
-79.9281
0
LINE
8
BLACK
6
CONTINUOUS
10
104.477
20
-79.9281
11
104.535
21
-79.8793
0
LINE
8
BLACK
6
CONTINUOUS
10
104.535
20
-79.8793
11
104.645
21
-79.85
0
LINE
8
BLACK
6
CONTINUOUS
10
104.645
20
-79.85
11
105.157
21
-79.85
0
LINE
8
BLACK
6
CONTINUOUS
10
105.157
20
-79.85
11
105.232
21
-79.8632
0
LINE
8
BLACK
6
CONTINUOUS
10
96.1878
20
-80.676
11
95.3878
21
-80.676
0
LINE
8
BLACK
6
CONTINUOUS
10
95.3878
20
-80.676
11
95.3878
21
-78.776
0
LINE
8
BLACK
6
CONTINUOUS
10
95.3878
20
-78.776
11
96.1878
21
-78.776
0
LINE
8
BLACK
6
CONTINUOUS
10
96.1878
20
-78.776
11
96.1878
21
-80.676
0
LINE
8
BLACK
6
CONTINUOUS
10
102.263
20
-80.676
11
101.463
21
-80.676
0
LINE
8
BLACK
6
CONTINUOUS
10
101.463
20
-80.676
11
101.463
21
-78.776
0
LINE
8
BLACK
6
CONTINUOUS
10
101.463
20
-78.776
11
102.263
21
-78.776
0
LINE
8
BLACK
6
CONTINUOUS
10
102.263
20
-78.776
11
102.263
21
-80.676
0
LINE
8
BLACK
6
CONTINUOUS
10
108.339
20
-80.676
11
107.539
21
-80.676
0
LINE
8
BLACK
6
CONTINUOUS
10
107.539
20
-80.676
11
107.539
21
-78.776
0
LINE
8
BLACK
6
CONTINUOUS
10
107.539
20
-78.776
11
108.339
21
-78.776
0
LINE
8
BLACK
6
CONTINUOUS
10
108.339
20
-78.776
11
108.339
21
-80.676
0
LINE
8
BLACK
6
CONTINUOUS
10
99.0811
20
-78.2882
11
99.1469
21
-78.3262
0
LINE
8
BLACK
6
CONTINUOUS
10
99.1469
20
-78.3262
11
99.1957
21
-78.3844
0
LINE
8
BLACK
6
CONTINUOUS
10
99.1957
20
-78.3844
11
99.225
21
-78.4937
0
LINE
8
BLACK
6
CONTINUOUS
10
99.225
20
-78.4937
11
99.225
21
-78.9312
0
LINE
8
BLACK
6
CONTINUOUS
10
99.225
20
-78.9312
11
99.2118
21
-79.0061
0
LINE
8
BLACK
6
CONTINUOUS
10
99.2118
20
-79.0061
11
99.1738
21
-79.0719
0
LINE
8
BLACK
6
CONTINUOUS
10
99.1738
20
-79.0719
11
99.1156
21
-79.1207
0
LINE
8
BLACK
6
CONTINUOUS
10
99.1156
20
-79.1207
11
99.0062
21
-79.15
0
LINE
8
BLACK
6
CONTINUOUS
10
99.0062
20
-79.15
11
98.4937
21
-79.15
0
LINE
8
BLACK
6
CONTINUOUS
10
98.4937
20
-79.15
11
98.4189
21
-79.1368
0
LINE
8
BLACK
6
CONTINUOUS
10
98.4189
20
-79.1368
11
98.3531
21
-79.0988
0
LINE
8
BLACK
6
CONTINUOUS
10
98.3531
20
-79.0988
11
98.3043
21
-79.0406
0
LINE
8
BLACK
6
CONTINUOUS
10
98.3043
20
-79.0406
11
98.275
21
-78.9312
0
LINE
8
BLACK
6
CONTINUOUS
10
98.275
20
-78.9312
11
98.275
21
-78.4937
0
LINE
8
BLACK
6
CONTINUOUS
10
98.275
20
-78.4937
11
98.2882
21
-78.4189
0
LINE
8
BLACK
6
CONTINUOUS
10
98.2882
20
-78.4189
11
98.3262
21
-78.3531
0
LINE
8
BLACK
6
CONTINUOUS
10
98.3262
20
-78.3531
11
98.3844
21
-78.3043
0
LINE
8
BLACK
6
CONTINUOUS
10
98.3844
20
-78.3043
11
98.4937
21
-78.275
0
LINE
8
BLACK
6
CONTINUOUS
10
98.4937
20
-78.275
11
99.0062
21
-78.275
0
LINE
8
BLACK
6
CONTINUOUS
10
99.0062
20
-78.275
11
99.0811
21
-78.2882
0
LINE
8
BLACK
6
CONTINUOUS
10
105.232
20
-78.2882
11
105.298
21
-78.3262
0
LINE
8
BLACK
6
CONTINUOUS
10
105.298
20
-78.3262
11
105.347
21
-78.3844
0
LINE
8
BLACK
6
CONTINUOUS
10
105.347
20
-78.3844
11
105.376
21
-78.4937
0
LINE
8
BLACK
6
CONTINUOUS
10
105.376
20
-78.4937
11
105.376
21
-78.9312
0
LINE
8
BLACK
6
CONTINUOUS
10
105.376
20
-78.9312
11
105.363
21
-79.0061
0
LINE
8
BLACK
6
CONTINUOUS
10
105.363
20
-79.0061
11
105.325
21
-79.0719
0
LINE
8
BLACK
6
CONTINUOUS
10
105.325
20
-79.0719
11
105.267
21
-79.1207
0
LINE
8
BLACK
6
CONTINUOUS
10
105.267
20
-79.1207
11
105.157
21
-79.15
0
LINE
8
BLACK
6
CONTINUOUS
10
105.157
20
-79.15
11
104.645
21
-79.15
0
LINE
8
BLACK
6
CONTINUOUS
10
104.645
20
-79.15
11
104.57
21
-79.1368
0
LINE
8
BLACK
6
CONTINUOUS
10
104.57
20
-79.1368
11
104.504
21
-79.0988
0
LINE
8
BLACK
6
CONTINUOUS
10
104.504
20
-79.0988
11
104.455
21
-79.0406
0
LINE
8
BLACK
6
CONTINUOUS
10
104.455
20
-79.0406
11
104.426
21
-78.9312
0
LINE
8
BLACK
6
CONTINUOUS
10
104.426
20
-78.9312
11
104.426
21
-78.4937
0
LINE
8
BLACK
6
CONTINUOUS
10
104.426
20
-78.4937
11
104.439
21
-78.4189
0
LINE
8
BLACK
6
CONTINUOUS
10
104.439
20
-78.4189
11
104.477
21
-78.3531
0
LINE
8
BLACK
6
CONTINUOUS
10
104.477
20
-78.3531
11
104.535
21
-78.3043
0
LINE
8
BLACK
6
CONTINUOUS
10
104.535
20
-78.3043
11
104.645
21
-78.275
0
LINE
8
BLACK
6
CONTINUOUS
10
104.645
20
-78.275
11
105.157
21
-78.275
0
LINE
8
BLACK
6
CONTINUOUS
10
105.157
20
-78.275
11
105.232
21
-78.2882
0
LINE
8
BLACK
6
CONTINUOUS
10
93.0811
20
-78.2882
11
93.1469
21
-78.3262
0
LINE
8
BLACK
6
CONTINUOUS
10
93.1469
20
-78.3262
11
93.1957
21
-78.3844
0
LINE
8
BLACK
6
CONTINUOUS
10
93.1957
20
-78.3844
11
93.225
21
-78.4937
0
LINE
8
BLACK
6
CONTINUOUS
10
93.225
20
-78.4937
11
93.225
21
-78.9312
0
LINE
8
BLACK
6
CONTINUOUS
10
93.225
20
-78.9312
11
93.2118
21
-79.0061
0
LINE
8
BLACK
6
CONTINUOUS
10
93.2118
20
-79.0061
11
93.1738
21
-79.0719
0
LINE
8
BLACK
6
CONTINUOUS
10
93.1738
20
-79.0719
11
93.1156
21
-79.1207
0
LINE
8
BLACK
6
CONTINUOUS
10
93.1156
20
-79.1207
11
93.0062
21
-79.15
0
LINE
8
BLACK
6
CONTINUOUS
10
93.0062
20
-79.15
11
92.4937
21
-79.15
0
LINE
8
BLACK
6
CONTINUOUS
10
92.4937
20
-79.15
11
92.4189
21
-79.1368
0
LINE
8
BLACK
6
CONTINUOUS
10
92.4189
20
-79.1368
11
92.3531
21
-79.0988
0
LINE
8
BLACK
6
CONTINUOUS
10
92.3531
20
-79.0988
11
92.3043
21
-79.0406
0
LINE
8
BLACK
6
CONTINUOUS
10
92.3043
20
-79.0406
11
92.275
21
-78.9312
0
LINE
8
BLACK
6
CONTINUOUS
10
92.275
20
-78.9312
11
92.275
21
-78.4937
0
LINE
8
BLACK
6
CONTINUOUS
10
92.275
20
-78.4937
11
92.2882
21
-78.4189
0
LINE
8
BLACK
6
CONTINUOUS
10
92.2882
20
-78.4189
11
92.3262
21
-78.3531
0
LINE
8
BLACK
6
CONTINUOUS
10
92.3262
20
-78.3531
11
92.3844
21
-78.3043
0
LINE
8
BLACK
6
CONTINUOUS
10
92.3844
20
-78.3043
11
92.4937
21
-78.275
0
LINE
8
BLACK
6
CONTINUOUS
10
92.4937
20
-78.275
11
93.0062
21
-78.275
0
LINE
8
BLACK
6
CONTINUOUS
10
93.0062
20
-78.275
11
93.0811
21
-78.2882
0
LINE
8
BLACK
6
CONTINUOUS
10
93.0811
20
-76.8632
11
93.1469
21
-76.9012
0
LINE
8
BLACK
6
CONTINUOUS
10
93.1469
20
-76.9012
11
93.1957
21
-76.9594
0
LINE
8
BLACK
6
CONTINUOUS
10
93.1957
20
-76.9594
11
93.225
21
-77.0687
0
LINE
8
BLACK
6
CONTINUOUS
10
93.225
20
-77.0687
11
93.225
21
-77.5062
0
LINE
8
BLACK
6
CONTINUOUS
10
93.225
20
-77.5062
11
93.2118
21
-77.5811
0
LINE
8
BLACK
6
CONTINUOUS
10
93.2118
20
-77.5811
11
93.1738
21
-77.6469
0
LINE
8
BLACK
6
CONTINUOUS
10
93.1738
20
-77.6469
11
93.1156
21
-77.6957
0
LINE
8
BLACK
6
CONTINUOUS
10
93.1156
20
-77.6957
11
93.0062
21
-77.725
0
LINE
8
BLACK
6
CONTINUOUS
10
93.0062
20
-77.725
11
92.4937
21
-77.725
0
LINE
8
BLACK
6
CONTINUOUS
10
92.4937
20
-77.725
11
92.4189
21
-77.7118
0
LINE
8
BLACK
6
CONTINUOUS
10
92.4189
20
-77.7118
11
92.3531
21
-77.6738
0
LINE
8
BLACK
6
CONTINUOUS
10
92.3531
20
-77.6738
11
92.3043
21
-77.6156
0
LINE
8
BLACK
6
CONTINUOUS
10
92.3043
20
-77.6156
11
92.275
21
-77.5062
0
LINE
8
BLACK
6
CONTINUOUS
10
92.275
20
-77.5062
11
92.275
21
-77.0687
0
LINE
8
BLACK
6
CONTINUOUS
10
92.275
20
-77.0687
11
92.2882
21
-76.9939
0
LINE
8
BLACK
6
CONTINUOUS
10
92.2882
20
-76.9939
11
92.3262
21
-76.9281
0
LINE
8
BLACK
6
CONTINUOUS
10
92.3262
20
-76.9281
11
92.3844
21
-76.8793
0
LINE
8
BLACK
6
CONTINUOUS
10
92.3844
20
-76.8793
11
92.4937
21
-76.85
0
LINE
8
BLACK
6
CONTINUOUS
10
92.4937
20
-76.85
11
93.0062
21
-76.85
0
LINE
8
BLACK
6
CONTINUOUS
10
93.0062
20
-76.85
11
93.0811
21
-76.8632
0
LINE
8
BLACK
6
CONTINUOUS
10
105.232
20
-76.8392
11
105.298
21
-76.8772
0
LINE
8
BLACK
6
CONTINUOUS
10
105.298
20
-76.8772
11
105.347
21
-76.9354
0
LINE
8
BLACK
6
CONTINUOUS
10
105.347
20
-76.9354
11
105.376
21
-77.0448
0
LINE
8
BLACK
6
CONTINUOUS
10
105.376
20
-77.0448
11
105.376
21
-77.4823
0
LINE
8
BLACK
6
CONTINUOUS
10
105.376
20
-77.4823
11
105.363
21
-77.5571
0
LINE
8
BLACK
6
CONTINUOUS
10
105.363
20
-77.5571
11
105.325
21
-77.6229
0
LINE
8
BLACK
6
CONTINUOUS
10
105.325
20
-77.6229
11
105.267
21
-77.6717
0
LINE
8
BLACK
6
CONTINUOUS
10
105.267
20
-77.6717
11
105.157
21
-77.701
0
LINE
8
BLACK
6
CONTINUOUS
10
105.157
20
-77.701
11
104.645
21
-77.701
0
LINE
8
BLACK
6
CONTINUOUS
10
104.645
20
-77.701
11
104.57
21
-77.6878
0
LINE
8
BLACK
6
CONTINUOUS
10
104.57
20
-77.6878
11
104.504
21
-77.6498
0
LINE
8
BLACK
6
CONTINUOUS
10
104.504
20
-77.6498
11
104.455
21
-77.5916
0
LINE
8
BLACK
6
CONTINUOUS
10
104.455
20
-77.5916
11
104.426
21
-77.4823
0
LINE
8
BLACK
6
CONTINUOUS
10
104.426
20
-77.4823
11
104.426
21
-77.0448
0
LINE
8
BLACK
6
CONTINUOUS
10
104.426
20
-77.0448
11
104.439
21
-76.9699
0
LINE
8
BLACK
6
CONTINUOUS
10
104.439
20
-76.9699
11
104.477
21
-76.9041
0
LINE
8
BLACK
6
CONTINUOUS
10
104.477
20
-76.9041
11
104.535
21
-76.8553
0
LINE
8
BLACK
6
CONTINUOUS
10
104.535
20
-76.8553
11
104.645
21
-76.826
0
LINE
8
BLACK
6
CONTINUOUS
10
104.645
20
-76.826
11
105.157
21
-76.826
0
LINE
8
BLACK
6
CONTINUOUS
10
105.157
20
-76.826
11
105.232
21
-76.8392
0
LINE
8
BLACK
6
CONTINUOUS
10
99.0811
20
-76.8392
11
99.1469
21
-76.8772
0
LINE
8
BLACK
6
CONTINUOUS
10
99.1469
20
-76.8772
11
99.1957
21
-76.9354
0
LINE
8
BLACK
6
CONTINUOUS
10
99.1957
20
-76.9354
11
99.225
21
-77.0448
0
LINE
8
BLACK
6
CONTINUOUS
10
99.225
20
-77.0448
11
99.225
21
-77.4823
0
LINE
8
BLACK
6
CONTINUOUS
10
99.225
20
-77.4823
11
99.2118
21
-77.5571
0
LINE
8
BLACK
6
CONTINUOUS
10
99.2118
20
-77.5571
11
99.1738
21
-77.6229
0
LINE
8
BLACK
6
CONTINUOUS
10
99.1738
20
-77.6229
11
99.1156
21
-77.6717
0
LINE
8
BLACK
6
CONTINUOUS
10
99.1156
20
-77.6717
11
99.0062
21
-77.701
0
LINE
8
BLACK
6
CONTINUOUS
10
99.0062
20
-77.701
11
98.4937
21
-77.701
0
LINE
8
BLACK
6
CONTINUOUS
10
98.4937
20
-77.701
11
98.4189
21
-77.6878
0
LINE
8
BLACK
6
CONTINUOUS
10
98.4189
20
-77.6878
11
98.3531
21
-77.6498
0
LINE
8
BLACK
6
CONTINUOUS
10
98.3531
20
-77.6498
11
98.3043
21
-77.5916
0
LINE
8
BLACK
6
CONTINUOUS
10
98.3043
20
-77.5916
11
98.275
21
-77.4823
0
LINE
8
BLACK
6
CONTINUOUS
10
98.275
20
-77.4823
11
98.275
21
-77.0448
0
LINE
8
BLACK
6
CONTINUOUS
10
98.275
20
-77.0448
11
98.2882
21
-76.9699
0
LINE
8
BLACK
6
CONTINUOUS
10
98.2882
20
-76.9699
11
98.3262
21
-76.9041
0
LINE
8
BLACK
6
CONTINUOUS
10
98.3262
20
-76.9041
11
98.3844
21
-76.8553
0
LINE
8
BLACK
6
CONTINUOUS
10
98.3844
20
-76.8553
11
98.4937
21
-76.826
0
LINE
8
BLACK
6
CONTINUOUS
10
98.4937
20
-76.826
11
99.0062
21
-76.826
0
LINE
8
BLACK
6
CONTINUOUS
10
99.0062
20
-76.826
11
99.0811
21
-76.8392
0
LINE
8
BLACK
6
CONTINUOUS
10
107.389
20
-77.676
11
106.589
21
-77.676
0
LINE
8
BLACK
6
CONTINUOUS
10
106.589
20
-77.676
11
106.589
21
-75.776
0
LINE
8
BLACK
6
CONTINUOUS
10
106.589
20
-75.776
11
107.389
21
-75.776
0
LINE
8
BLACK
6
CONTINUOUS
10
107.389
20
-75.776
11
107.389
21
-77.676
0
LINE
8
BLACK
6
CONTINUOUS
10
109.289
20
-77.676
11
108.489
21
-77.676
0
LINE
8
BLACK
6
CONTINUOUS
10
108.489
20
-77.676
11
108.489
21
-75.776
0
LINE
8
BLACK
6
CONTINUOUS
10
108.489
20
-75.776
11
109.289
21
-75.776
0
LINE
8
BLACK
6
CONTINUOUS
10
109.289
20
-75.776
11
109.289
21
-77.676
0
LINE
8
BLACK
6
CONTINUOUS
10
95.2378
20
-77.676
11
94.4378
21
-77.676
0
LINE
8
BLACK
6
CONTINUOUS
10
94.4378
20
-77.676
11
94.4378
21
-75.776
0
LINE
8
BLACK
6
CONTINUOUS
10
94.4378
20
-75.776
11
95.2378
21
-75.776
0
LINE
8
BLACK
6
CONTINUOUS
10
95.2378
20
-75.776
11
95.2378
21
-77.676
0
LINE
8
BLACK
6
CONTINUOUS
10
101.313
20
-77.676
11
100.513
21
-77.676
0
LINE
8
BLACK
6
CONTINUOUS
10
100.513
20
-77.676
11
100.513
21
-75.776
0
LINE
8
BLACK
6
CONTINUOUS
10
100.513
20
-75.776
11
101.313
21
-75.776
0
LINE
8
BLACK
6
CONTINUOUS
10
101.313
20
-75.776
11
101.313
21
-77.676
0
LINE
8
BLACK
6
CONTINUOUS
10
103.213
20
-77.676
11
102.413
21
-77.676
0
LINE
8
BLACK
6
CONTINUOUS
10
102.413
20
-77.676
11
102.413
21
-75.776
0
LINE
8
BLACK
6
CONTINUOUS
10
102.413
20
-75.776
11
103.213
21
-75.776
0
LINE
8
BLACK
6
CONTINUOUS
10
103.213
20
-75.776
11
103.213
21
-77.676
0
LINE
8
BLACK
6
CONTINUOUS
10
97.1378
20
-77.676
11
96.3378
21
-77.676
0
LINE
8
BLACK
6
CONTINUOUS
10
96.3378
20
-77.676
11
96.3378
21
-75.776
0
LINE
8
BLACK
6
CONTINUOUS
10
96.3378
20
-75.776
11
97.1378
21
-75.776
0
LINE
8
BLACK
6
CONTINUOUS
10
97.1378
20
-75.776
11
97.1378
21
-77.676
0
LINE
8
BLACK
6
CONTINUOUS
10
93.0811
20
-75.2882
11
93.1469
21
-75.3262
0
LINE
8
BLACK
6
CONTINUOUS
10
93.1469
20
-75.3262
11
93.1957
21
-75.3844
0
LINE
8
BLACK
6
CONTINUOUS
10
93.1957
20
-75.3844
11
93.225
21
-75.4937
0
LINE
8
BLACK
6
CONTINUOUS
10
93.225
20
-75.4937
11
93.225
21
-75.9312
0
LINE
8
BLACK
6
CONTINUOUS
10
93.225
20
-75.9312
11
93.2118
21
-76.0061
0
LINE
8
BLACK
6
CONTINUOUS
10
93.2118
20
-76.0061
11
93.1738
21
-76.0719
0
LINE
8
BLACK
6
CONTINUOUS
10
93.1738
20
-76.0719
11
93.1156
21
-76.1207
0
LINE
8
BLACK
6
CONTINUOUS
10
93.1156
20
-76.1207
11
93.0062
21
-76.15
0
LINE
8
BLACK
6
CONTINUOUS
10
93.0062
20
-76.15
11
92.4937
21
-76.15
0
LINE
8
BLACK
6
CONTINUOUS
10
92.4937
20
-76.15
11
92.4189
21
-76.1368
0
LINE
8
BLACK
6
CONTINUOUS
10
92.4189
20
-76.1368
11
92.3531
21
-76.0988
0
LINE
8
BLACK
6
CONTINUOUS
10
92.3531
20
-76.0988
11
92.3043
21
-76.0406
0
LINE
8
BLACK
6
CONTINUOUS
10
92.3043
20
-76.0406
11
92.275
21
-75.9312
0
LINE
8
BLACK
6
CONTINUOUS
10
92.275
20
-75.9312
11
92.275
21
-75.4937
0
LINE
8
BLACK
6
CONTINUOUS
10
92.275
20
-75.4937
11
92.2882
21
-75.4189
0
LINE
8
BLACK
6
CONTINUOUS
10
92.2882
20
-75.4189
11
92.3262
21
-75.3531
0
LINE
8
BLACK
6
CONTINUOUS
10
92.3262
20
-75.3531
11
92.3844
21
-75.3043
0
LINE
8
BLACK
6
CONTINUOUS
10
92.3844
20
-75.3043
11
92.4937
21
-75.275
0
LINE
8
BLACK
6
CONTINUOUS
10
92.4937
20
-75.275
11
93.0062
21
-75.275
0
LINE
8
BLACK
6
CONTINUOUS
10
93.0062
20
-75.275
11
93.0811
21
-75.2882
0
LINE
8
BLACK
6
CONTINUOUS
10
105.232
20
-75.2642
11
105.298
21
-75.3022
0
LINE
8
BLACK
6
CONTINUOUS
10
105.298
20
-75.3022
11
105.347
21
-75.3604
0
LINE
8
BLACK
6
CONTINUOUS
10
105.347
20
-75.3604
11
105.376
21
-75.4698
0
LINE
8
BLACK
6
CONTINUOUS
10
105.376
20
-75.4698
11
105.376
21
-75.9073
0
LINE
8
BLACK
6
CONTINUOUS
10
105.376
20
-75.9073
11
105.363
21
-75.9821
0
LINE
8
BLACK
6
CONTINUOUS
10
105.363
20
-75.9821
11
105.325
21
-76.0479
0
LINE
8
BLACK
6
CONTINUOUS
10
105.325
20
-76.0479
11
105.267
21
-76.0967
0
LINE
8
BLACK
6
CONTINUOUS
10
105.267
20
-76.0967
11
105.157
21
-76.126
0
LINE
8
BLACK
6
CONTINUOUS
10
105.157
20
-76.126
11
104.645
21
-76.126
0
LINE
8
BLACK
6
CONTINUOUS
10
104.645
20
-76.126
11
104.57
21
-76.1128
0
LINE
8
BLACK
6
CONTINUOUS
10
104.57
20
-76.1128
11
104.504
21
-76.0748
0
LINE
8
BLACK
6
CONTINUOUS
10
104.504
20
-76.0748
11
104.455
21
-76.0166
0
LINE
8
BLACK
6
CONTINUOUS
10
104.455
20
-76.0166
11
104.426
21
-75.9073
0
LINE
8
BLACK
6
CONTINUOUS
10
104.426
20
-75.9073
11
104.426
21
-75.4698
0
LINE
8
BLACK
6
CONTINUOUS
10
104.426
20
-75.4698
11
104.439
21
-75.3949
0
LINE
8
BLACK
6
CONTINUOUS
10
104.439
20
-75.3949
11
104.477
21
-75.3291
0
LINE
8
BLACK
6
CONTINUOUS
10
104.477
20
-75.3291
11
104.535
21
-75.2803
0
LINE
8
BLACK
6
CONTINUOUS
10
104.535
20
-75.2803
11
104.645
21
-75.251
0
LINE
8
BLACK
6
CONTINUOUS
10
104.645
20
-75.251
11
105.157
21
-75.251
0
LINE
8
BLACK
6
CONTINUOUS
10
105.157
20
-75.251
11
105.232
21
-75.2642
0
LINE
8
BLACK
6
CONTINUOUS
10
99.0811
20
-75.2642
11
99.1469
21
-75.3022
0
LINE
8
BLACK
6
CONTINUOUS
10
99.1469
20
-75.3022
11
99.1957
21
-75.3604
0
LINE
8
BLACK
6
CONTINUOUS
10
99.1957
20
-75.3604
11
99.225
21
-75.4698
0
LINE
8
BLACK
6
CONTINUOUS
10
99.225
20
-75.4698
11
99.225
21
-75.9073
0
LINE
8
BLACK
6
CONTINUOUS
10
99.225
20
-75.9073
11
99.2118
21
-75.9821
0
LINE
8
BLACK
6
CONTINUOUS
10
99.2118
20
-75.9821
11
99.1738
21
-76.0479
0
LINE
8
BLACK
6
CONTINUOUS
10
99.1738
20
-76.0479
11
99.1156
21
-76.0967
0
LINE
8
BLACK
6
CONTINUOUS
10
99.1156
20
-76.0967
11
99.0062
21
-76.126
0
LINE
8
BLACK
6
CONTINUOUS
10
99.0062
20
-76.126
11
98.4937
21
-76.126
0
LINE
8
BLACK
6
CONTINUOUS
10
98.4937
20
-76.126
11
98.4189
21
-76.1128
0
LINE
8
BLACK
6
CONTINUOUS
10
98.4189
20
-76.1128
11
98.3531
21
-76.0748
0
LINE
8
BLACK
6
CONTINUOUS
10
98.3531
20
-76.0748
11
98.3043
21
-76.0166
0
LINE
8
BLACK
6
CONTINUOUS
10
98.3043
20
-76.0166
11
98.275
21
-75.9073
0
LINE
8
BLACK
6
CONTINUOUS
10
98.275
20
-75.9073
11
98.275
21
-75.4698
0
LINE
8
BLACK
6
CONTINUOUS
10
98.275
20
-75.4698
11
98.2882
21
-75.3949
0
LINE
8
BLACK
6
CONTINUOUS
10
98.2882
20
-75.3949
11
98.3262
21
-75.3291
0
LINE
8
BLACK
6
CONTINUOUS
10
98.3262
20
-75.3291
11
98.3844
21
-75.2803
0
LINE
8
BLACK
6
CONTINUOUS
10
98.3844
20
-75.2803
11
98.4937
21
-75.251
0
LINE
8
BLACK
6
CONTINUOUS
10
98.4937
20
-75.251
11
99.0062
21
-75.251
0
LINE
8
BLACK
6
CONTINUOUS
10
99.0062
20
-75.251
11
99.0811
21
-75.2642
0
LINE
8
BLACK
6
CONTINUOUS
10
109.256
20
-73.5382
11
109.322
21
-73.5762
0
LINE
8
BLACK
6
CONTINUOUS
10
109.322
20
-73.5762
11
109.371
21
-73.6344
0
LINE
8
BLACK
6
CONTINUOUS
10
109.371
20
-73.6344
11
109.4
21
-73.7437
0
LINE
8
BLACK
6
CONTINUOUS
10
109.4
20
-73.7437
11
109.4
21
-74.2562
0
LINE
8
BLACK
6
CONTINUOUS
10
109.4
20
-74.2562
11
109.387
21
-74.3311
0
LINE
8
BLACK
6
CONTINUOUS
10
109.387
20
-74.3311
11
109.349
21
-74.3969
0
LINE
8
BLACK
6
CONTINUOUS
10
109.349
20
-74.3969
11
109.291
21
-74.4457
0
LINE
8
BLACK
6
CONTINUOUS
10
109.291
20
-74.4457
11
109.181
21
-74.475
0
LINE
8
BLACK
6
CONTINUOUS
10
109.181
20
-74.475
11
108.744
21
-74.475
0
LINE
8
BLACK
6
CONTINUOUS
10
108.744
20
-74.475
11
108.669
21
-74.4618
0
LINE
8
BLACK
6
CONTINUOUS
10
108.669
20
-74.4618
11
108.603
21
-74.4238
0
LINE
8
BLACK
6
CONTINUOUS
10
108.603
20
-74.4238
11
108.554
21
-74.3656
0
LINE
8
BLACK
6
CONTINUOUS
10
108.554
20
-74.3656
11
108.525
21
-74.2562
0
LINE
8
BLACK
6
CONTINUOUS
10
108.525
20
-74.2562
11
108.525
21
-73.7437
0
LINE
8
BLACK
6
CONTINUOUS
10
108.525
20
-73.7437
11
108.538
21
-73.6689
0
LINE
8
BLACK
6
CONTINUOUS
10
108.538
20
-73.6689
11
108.576
21
-73.6031
0
LINE
8
BLACK
6
CONTINUOUS
10
108.576
20
-73.6031
11
108.634
21
-73.5543
0
LINE
8
BLACK
6
CONTINUOUS
10
108.634
20
-73.5543
11
108.744
21
-73.525
0
LINE
8
BLACK
6
CONTINUOUS
10
108.744
20
-73.525
11
109.181
21
-73.525
0
LINE
8
BLACK
6
CONTINUOUS
10
109.181
20
-73.525
11
109.256
21
-73.5382
0
LINE
8
BLACK
6
CONTINUOUS
10
110.831
20
-73.5382
11
110.897
21
-73.5762
0
LINE
8
BLACK
6
CONTINUOUS
10
110.897
20
-73.5762
11
110.946
21
-73.6344
0
LINE
8
BLACK
6
CONTINUOUS
10
110.946
20
-73.6344
11
110.975
21
-73.7437
0
LINE
8
BLACK
6
CONTINUOUS
10
110.975
20
-73.7437
11
110.975
21
-74.2562
0
LINE
8
BLACK
6
CONTINUOUS
10
110.975
20
-74.2562
11
110.962
21
-74.3311
0
LINE
8
BLACK
6
CONTINUOUS
10
110.962
20
-74.3311
11
110.924
21
-74.3969
0
LINE
8
BLACK
6
CONTINUOUS
10
110.924
20
-74.3969
11
110.866
21
-74.4457
0
LINE
8
BLACK
6
CONTINUOUS
10
110.866
20
-74.4457
11
110.756
21
-74.475
0
LINE
8
BLACK
6
CONTINUOUS
10
110.756
20
-74.475
11
110.319
21
-74.475
0
LINE
8
BLACK
6
CONTINUOUS
10
110.319
20
-74.475
11
110.244
21
-74.4618
0
LINE
8
BLACK
6
CONTINUOUS
10
110.244
20
-74.4618
11
110.178
21
-74.4238
0
LINE
8
BLACK
6
CONTINUOUS
10
110.178
20
-74.4238
11
110.129
21
-74.3656
0
LINE
8
BLACK
6
CONTINUOUS
10
110.129
20
-74.3656
11
110.1
21
-74.2562
0
LINE
8
BLACK
6
CONTINUOUS
10
110.1
20
-74.2562
11
110.1
21
-73.7437
0
LINE
8
BLACK
6
CONTINUOUS
10
110.1
20
-73.7437
11
110.113
21
-73.6689
0
LINE
8
BLACK
6
CONTINUOUS
10
110.113
20
-73.6689
11
110.151
21
-73.6031
0
LINE
8
BLACK
6
CONTINUOUS
10
110.151
20
-73.6031
11
110.209
21
-73.5543
0
LINE
8
BLACK
6
CONTINUOUS
10
110.209
20
-73.5543
11
110.319
21
-73.525
0
LINE
8
BLACK
6
CONTINUOUS
10
110.319
20
-73.525
11
110.756
21
-73.525
0
LINE
8
BLACK
6
CONTINUOUS
10
110.756
20
-73.525
11
110.831
21
-73.5382
  0
ENDSEC
  0
EOF
