<?xml version="1.0"?>
<!DOCTYPE svg PUBLIC "-//W3C//DTD SVG 1.1//EN" "http://www.w3.org/Graphics/SVG/1.1/DTD/svg11.dtd">
<svg width="94.30012098000002mm" height="41.84902198mm" viewBox="0 0 94.30012098000002 41.84902198" xmlns="http://www.w3.org/2000/svg" version="1.1">
<g id="Sketch001" transform="translate(22.174511,5.924511) scale(1,-1)">
<path id="Sketch001_w0000"  d="M 40.842556 5.0 L 64.50000000000001 5.0 A 5 5 0 0 0 64.5 -5L 59.500000000000014 -5.0 L 59.500000000000014 -13.999999999999998 L 49.5 -13.999999999999998 L 49.5 -5.0 L 43.679684 -5.0 L -6.25 -5.0 L -6.25 5.0 L 43.75 5.0 " stroke="#000000" stroke-width="0.35 px" style="stroke-width:0.35;stroke-miterlimit:4;stroke-dasharray:none;fill:none;fill-rule: evenodd "/>
<circle cx="7.226716502129116e-32" cy="-3.7827411160765836e-285" r="2.0" stroke="#000000" stroke-width="0.35 px" style="stroke-width:0.35;stroke-miterlimit:4;stroke-dasharray:none;fill:none"/>
<circle cx="12.5" cy="-3.7857669957336782e-270" r="2.0" stroke="#000000" stroke-width="0.35 px" style="stroke-width:0.35;stroke-miterlimit:4;stroke-dasharray:none;fill:none"/>
<circle cx="25.0" cy="-3.0286135965869426e-269" r="2.0" stroke="#000000" stroke-width="0.35 px" style="stroke-width:0.35;stroke-miterlimit:4;stroke-dasharray:none;fill:none"/>
<circle cx="37.5" cy="-6.057227193173887e-269" r="2.0" stroke="#000000" stroke-width="0.35 px" style="stroke-width:0.35;stroke-miterlimit:4;stroke-dasharray:none;fill:none"/>
<circle cx="7.226716502129116e-32" cy="-19.0" r="2.0" stroke="#000000" stroke-width="0.35 px" style="stroke-width:0.35;stroke-miterlimit:4;stroke-dasharray:none;fill:none"/>
<circle cx="12.5" cy="-19.0" r="2.0" stroke="#000000" stroke-width="0.35 px" style="stroke-width:0.35;stroke-miterlimit:4;stroke-dasharray:none;fill:none"/>
<circle cx="25.0" cy="-19.0" r="2.0" stroke="#000000" stroke-width="0.35 px" style="stroke-width:0.35;stroke-miterlimit:4;stroke-dasharray:none;fill:none"/>
<path id="Sketch001_w0008"  d="M -21.25 -24.0 L -6.25 -24.0 L 31.25 -24.0 L 31.25 -14.0 L -6.25 -14.0 L -21.25 -14.0 L -21.25 -24.0 " stroke="#000000" stroke-width="0.35 px" style="stroke-width:0.35;stroke-miterlimit:4;stroke-dasharray:none;fill:none;fill-rule: evenodd "/>
<circle cx="64.50000000000001" cy="-7.99397758641989e-33" r="2.65" stroke="#000000" stroke-width="0.35 px" style="stroke-width:0.35;stroke-miterlimit:4;stroke-dasharray:none;fill:none"/>
<circle cx="64.50000000000001" cy="-30.0" r="2.65" stroke="#000000" stroke-width="0.35 px" style="stroke-width:0.35;stroke-miterlimit:4;stroke-dasharray:none;fill:none"/>
<path id="Sketch001_w0011"  d="M 64.50000000000001 -35.0 A 5 5 0 0 1 64.5 -25L 59.50000000000001 -25.0 L 59.50000000000001 -16.000000000000004 L 49.50000000000001 -16.000000000000004 L 49.50000000000001 -35.0 L 64.50000000000001 -35.0 " stroke="#000000" stroke-width="0.35 px" style="stroke-width:0.35;stroke-miterlimit:4;stroke-dasharray:none;fill:none;fill-rule: evenodd "/>
<circle cx="54.50000000000001" cy="-9.5" r="3.0" stroke="#000000" stroke-width="0.35 px" style="stroke-width:0.35;stroke-miterlimit:4;stroke-dasharray:none;fill:none"/>
<circle cx="54.50000000000001" cy="-20.5" r="3.0" stroke="#000000" stroke-width="0.35 px" style="stroke-width:0.35;stroke-miterlimit:4;stroke-dasharray:none;fill:none"/>
<circle cx="-16.25" cy="-19.0" r="2.65" stroke="#000000" stroke-width="0.35 px" style="stroke-width:0.35;stroke-miterlimit:4;stroke-dasharray:none;fill:none"/>
<circle cx="54.50000000000001" cy="-30.0" r="2.65" stroke="#000000" stroke-width="0.35 px" style="stroke-width:0.35;stroke-miterlimit:4;stroke-dasharray:none;fill:none"/>
<title>b'Sketch001'</title>
</g>
</svg>