  0
SECTION
  2
HEADER
  9
$ANGBASE
  50
0.0
  9
$ANGDIR
  70
  1
  9
$MEASUREMENT
  70
0
  0
ENDSEC
  0
SECTION
  2
TABLES
  0
TABLE
  2
LTYPE
  70
4
  0
LTYPE
  5
40F
  2
CONTINUOUS
  70
0
  3
Solid line
  72
65
  73
0
  40
0.0
  0
LTYPE
  5
410
  2
DASHDOT
 70
0
  3
Dash Dot ____ _ ____ _
 72
65
 73
4
 40
2.0
 49
1.25
 49
-0.25
 49
0.25
 49
-0.25
  0
LTYPE
  5
411
  2
DASHED
 70
0
  3
Dashed __ __ __ __ __
 72
65
 73
2
 40
0.75
 49
0.5
 49
-0.25
  0
LTYPE
  5
43B
  2
DOTTED
 70
0
  3
Dotted .  .  .  .
 72
65
 73
2
 40
0.2
 49
0.0
 49
-0.2
  0
ENDTAB
  0
TABLE
  2
STYLE
  70
4
  0
STYLE
  2
KICAD
  70
0
  40
0
  41
1
  42
1
  50
0
  71
0
  3
isocp.shx
  0
STYLE
  2
KICADB
  70
0
  40
0
  41
1
  42
1
  50
0
  71
0
  3
isocp.shx
  0
STYLE
  2
KICADI
  70
0
  40
0
  41
1
  42
1
  50
15
  71
0
  3
isocp.shx
  0
STYLE
  2
KICADBI
  70
0
  40
0
  41
1
  42
1
  50
15
  71
0
  3
isocp.shx
  0
ENDTAB
  0
TABLE
  2
LAYER
  70
30
  0
LAYER
  2
BLACK
  70
0
  62
7
  6
CONTINUOUS
  0
LAYER
  2
GRAY1
  70
0
  62
251
  6
CONTINUOUS
  0
LAYER
  2
GRAY2
  70
0
  62
8
  6
CONTINUOUS
  0
LAYER
  2
GRAY3
  70
0
  62
9
  6
CONTINUOUS
  0
LAYER
  2
WHITE
  70
0
  62
7
  6
CONTINUOUS
  0
LAYER
  2
LYELLOW
  70
0
  62
51
  6
CONTINUOUS
  0
LAYER
  2
BLUE1
  70
0
  62
178
  6
CONTINUOUS
  0
LAYER
  2
GREEN1
  70
0
  62
98
  6
CONTINUOUS
  0
LAYER
  2
CYAN1
  70
0
  62
138
  6
CONTINUOUS
  0
LAYER
  2
RED1
  70
0
  62
18
  6
CONTINUOUS
  0
LAYER
  2
MAGENTA1
  70
0
  62
228
  6
CONTINUOUS
  0
LAYER
  2
BROWN1
  70
0
  62
58
  6
CONTINUOUS
  0
LAYER
  2
BLUE2
  70
0
  62
5
  6
CONTINUOUS
  0
LAYER
  2
GREEN2
  70
0
  62
3
  6
CONTINUOUS
  0
LAYER
  2
CYAN2
  70
0
  62
4
  6
CONTINUOUS
  0
LAYER
  2
RED2
  70
0
  62
1
  6
CONTINUOUS
  0
LAYER
  2
MAGENTA2
  70
0
  62
6
  6
CONTINUOUS
  0
LAYER
  2
BROWN2
  70
0
  62
54
  6
CONTINUOUS
  0
LAYER
  2
BLUE3
  70
0
  62
171
  6
CONTINUOUS
  0
LAYER
  2
GREEN3
  70
0
  62
91
  6
CONTINUOUS
  0
LAYER
  2
CYAN3
  70
0
  62
131
  6
CONTINUOUS
  0
LAYER
  2
RED3
  70
0
  62
11
  6
CONTINUOUS
  0
LAYER
  2
MAGENTA3
  70
0
  62
221
  6
CONTINUOUS
  0
LAYER
  2
YELLOW3
  70
0
  62
2
  6
CONTINUOUS
  0
LAYER
  2
BLUE4
  70
0
  62
5
  6
CONTINUOUS
  0
LAYER
  2
GREEN4
  70
0
  62
3
  6
CONTINUOUS
  0
LAYER
  2
CYAN4
  70
0
  62
4
  6
CONTINUOUS
  0
LAYER
  2
RED4
  70
0
  62
1
  6
CONTINUOUS
  0
LAYER
  2
MAGENTA4
  70
0
  62
6
  6
CONTINUOUS
  0
LAYER
  2
YELLOW4
  70
0
  62
2
  6
CONTINUOUS
  0
ENDTAB
  0
ENDSEC
  0
SECTION
  2
ENTITIES
0
LINE
8
BLACK
6
CONTINUOUS
10
154.5
20
-132.4
11
153.7
21
-132.4
0
LINE
8
BLACK
6
CONTINUOUS
10
153.7
20
-132.4
11
153.7
21
-131.7
0
LINE
8
BLACK
6
CONTINUOUS
10
153.7
20
-131.7
11
154.5
21
-131.7
0
LINE
8
BLACK
6
CONTINUOUS
10
154.5
20
-131.7
11
154.5
21
-132.4
0
LINE
8
BLACK
6
CONTINUOUS
10
156.1
20
-132.4
11
155.3
21
-132.4
0
LINE
8
BLACK
6
CONTINUOUS
10
155.3
20
-132.4
11
155.3
21
-131.7
0
LINE
8
BLACK
6
CONTINUOUS
10
155.3
20
-131.7
11
156.1
21
-131.7
0
LINE
8
BLACK
6
CONTINUOUS
10
156.1
20
-131.7
11
156.1
21
-132.4
0
LINE
8
BLACK
6
CONTINUOUS
10
157.664
20
-131.71
11
157.715
21
-131.739
0
LINE
8
BLACK
6
CONTINUOUS
10
157.715
20
-131.739
11
157.752
21
-131.784
0
LINE
8
BLACK
6
CONTINUOUS
10
157.752
20
-131.784
11
157.775
21
-131.869
0
LINE
8
BLACK
6
CONTINUOUS
10
157.775
20
-131.869
11
157.775
21
-132.206
0
LINE
8
BLACK
6
CONTINUOUS
10
157.775
20
-132.206
11
157.765
21
-132.264
0
LINE
8
BLACK
6
CONTINUOUS
10
157.765
20
-132.264
11
157.736
21
-132.315
0
LINE
8
BLACK
6
CONTINUOUS
10
157.736
20
-132.315
11
157.691
21
-132.352
0
LINE
8
BLACK
6
CONTINUOUS
10
157.691
20
-132.352
11
157.606
21
-132.375
0
LINE
8
BLACK
6
CONTINUOUS
10
157.606
20
-132.375
11
157.194
21
-132.375
0
LINE
8
BLACK
6
CONTINUOUS
10
157.194
20
-132.375
11
157.136
21
-132.365
0
LINE
8
BLACK
6
CONTINUOUS
10
157.136
20
-132.365
11
157.085
21
-132.336
0
LINE
8
BLACK
6
CONTINUOUS
10
157.085
20
-132.336
11
157.048
21
-132.291
0
LINE
8
BLACK
6
CONTINUOUS
10
157.048
20
-132.291
11
157.025
21
-132.206
0
LINE
8
BLACK
6
CONTINUOUS
10
157.025
20
-132.206
11
157.025
21
-131.869
0
LINE
8
BLACK
6
CONTINUOUS
10
157.025
20
-131.869
11
157.035
21
-131.811
0
LINE
8
BLACK
6
CONTINUOUS
10
157.035
20
-131.811
11
157.064
21
-131.76
0
LINE
8
BLACK
6
CONTINUOUS
10
157.064
20
-131.76
11
157.109
21
-131.723
0
LINE
8
BLACK
6
CONTINUOUS
10
157.109
20
-131.723
11
157.194
21
-131.7
0
LINE
8
BLACK
6
CONTINUOUS
10
157.194
20
-131.7
11
157.606
21
-131.7
0
LINE
8
BLACK
6
CONTINUOUS
10
157.606
20
-131.7
11
157.664
21
-131.71
0
LINE
8
BLACK
6
CONTINUOUS
10
157.664
20
-130.135
11
157.715
21
-130.164
0
LINE
8
BLACK
6
CONTINUOUS
10
157.715
20
-130.164
11
157.752
21
-130.209
0
LINE
8
BLACK
6
CONTINUOUS
10
157.752
20
-130.209
11
157.775
21
-130.294
0
LINE
8
BLACK
6
CONTINUOUS
10
157.775
20
-130.294
11
157.775
21
-130.631
0
LINE
8
BLACK
6
CONTINUOUS
10
157.775
20
-130.631
11
157.765
21
-130.689
0
LINE
8
BLACK
6
CONTINUOUS
10
157.765
20
-130.689
11
157.736
21
-130.74
0
LINE
8
BLACK
6
CONTINUOUS
10
157.736
20
-130.74
11
157.691
21
-130.777
0
LINE
8
BLACK
6
CONTINUOUS
10
157.691
20
-130.777
11
157.606
21
-130.8
0
LINE
8
BLACK
6
CONTINUOUS
10
157.606
20
-130.8
11
157.194
21
-130.8
0
LINE
8
BLACK
6
CONTINUOUS
10
157.194
20
-130.8
11
157.136
21
-130.79
0
LINE
8
BLACK
6
CONTINUOUS
10
157.136
20
-130.79
11
157.085
21
-130.761
0
LINE
8
BLACK
6
CONTINUOUS
10
157.085
20
-130.761
11
157.048
21
-130.716
0
LINE
8
BLACK
6
CONTINUOUS
10
157.048
20
-130.716
11
157.025
21
-130.631
0
LINE
8
BLACK
6
CONTINUOUS
10
157.025
20
-130.631
11
157.025
21
-130.294
0
LINE
8
BLACK
6
CONTINUOUS
10
157.025
20
-130.294
11
157.035
21
-130.236
0
LINE
8
BLACK
6
CONTINUOUS
10
157.035
20
-130.236
11
157.064
21
-130.185
0
LINE
8
BLACK
6
CONTINUOUS
10
157.064
20
-130.185
11
157.109
21
-130.148
0
LINE
8
BLACK
6
CONTINUOUS
10
157.109
20
-130.148
11
157.194
21
-130.125
0
LINE
8
BLACK
6
CONTINUOUS
10
157.194
20
-130.125
11
157.606
21
-130.125
0
LINE
8
BLACK
6
CONTINUOUS
10
157.606
20
-130.125
11
157.664
21
-130.135
0
LINE
8
BLACK
6
CONTINUOUS
10
153.65
20
-130.75
11
153.3
21
-130.75
0
LINE
8
BLACK
6
CONTINUOUS
10
153.3
20
-130.75
11
153.3
21
-129.25
0
LINE
8
BLACK
6
CONTINUOUS
10
153.3
20
-129.25
11
153.65
21
-129.25
0
LINE
8
BLACK
6
CONTINUOUS
10
153.65
20
-129.25
11
153.65
21
-130.75
0
LINE
8
BLACK
6
CONTINUOUS
10
176.964
20
-128.16
11
177.015
21
-128.189
0
LINE
8
BLACK
6
CONTINUOUS
10
177.015
20
-128.189
11
177.052
21
-128.234
0
LINE
8
BLACK
6
CONTINUOUS
10
177.052
20
-128.234
11
177.075
21
-128.319
0
LINE
8
BLACK
6
CONTINUOUS
10
177.075
20
-128.319
11
177.075
21
-128.656
0
LINE
8
BLACK
6
CONTINUOUS
10
177.075
20
-128.656
11
177.065
21
-128.714
0
LINE
8
BLACK
6
CONTINUOUS
10
177.065
20
-128.714
11
177.036
21
-128.765
0
LINE
8
BLACK
6
CONTINUOUS
10
177.036
20
-128.765
11
176.991
21
-128.802
0
LINE
8
BLACK
6
CONTINUOUS
10
176.991
20
-128.802
11
176.906
21
-128.825
0
LINE
8
BLACK
6
CONTINUOUS
10
176.906
20
-128.825
11
176.494
21
-128.825
0
LINE
8
BLACK
6
CONTINUOUS
10
176.494
20
-128.825
11
176.436
21
-128.815
0
LINE
8
BLACK
6
CONTINUOUS
10
176.436
20
-128.815
11
176.385
21
-128.786
0
LINE
8
BLACK
6
CONTINUOUS
10
176.385
20
-128.786
11
176.348
21
-128.741
0
LINE
8
BLACK
6
CONTINUOUS
10
176.348
20
-128.741
11
176.325
21
-128.656
0
LINE
8
BLACK
6
CONTINUOUS
10
176.325
20
-128.656
11
176.325
21
-128.319
0
LINE
8
BLACK
6
CONTINUOUS
10
176.325
20
-128.319
11
176.335
21
-128.261
0
LINE
8
BLACK
6
CONTINUOUS
10
176.335
20
-128.261
11
176.364
21
-128.21
0
LINE
8
BLACK
6
CONTINUOUS
10
176.364
20
-128.21
11
176.409
21
-128.173
0
LINE
8
BLACK
6
CONTINUOUS
10
176.409
20
-128.173
11
176.494
21
-128.15
0
LINE
8
BLACK
6
CONTINUOUS
10
176.494
20
-128.15
11
176.906
21
-128.15
0
LINE
8
BLACK
6
CONTINUOUS
10
176.906
20
-128.15
11
176.964
21
-128.16
0
LINE
8
BLACK
6
CONTINUOUS
10
173.664
20
-128.16
11
173.715
21
-128.189
0
LINE
8
BLACK
6
CONTINUOUS
10
173.715
20
-128.189
11
173.752
21
-128.234
0
LINE
8
BLACK
6
CONTINUOUS
10
173.752
20
-128.234
11
173.775
21
-128.319
0
LINE
8
BLACK
6
CONTINUOUS
10
173.775
20
-128.319
11
173.775
21
-128.656
0
LINE
8
BLACK
6
CONTINUOUS
10
173.775
20
-128.656
11
173.765
21
-128.714
0
LINE
8
BLACK
6
CONTINUOUS
10
173.765
20
-128.714
11
173.736
21
-128.765
0
LINE
8
BLACK
6
CONTINUOUS
10
173.736
20
-128.765
11
173.691
21
-128.802
0
LINE
8
BLACK
6
CONTINUOUS
10
173.691
20
-128.802
11
173.606
21
-128.825
0
LINE
8
BLACK
6
CONTINUOUS
10
173.606
20
-128.825
11
173.194
21
-128.825
0
LINE
8
BLACK
6
CONTINUOUS
10
173.194
20
-128.825
11
173.136
21
-128.815
0
LINE
8
BLACK
6
CONTINUOUS
10
173.136
20
-128.815
11
173.085
21
-128.786
0
LINE
8
BLACK
6
CONTINUOUS
10
173.085
20
-128.786
11
173.048
21
-128.741
0
LINE
8
BLACK
6
CONTINUOUS
10
173.048
20
-128.741
11
173.025
21
-128.656
0
LINE
8
BLACK
6
CONTINUOUS
10
173.025
20
-128.656
11
173.025
21
-128.319
0
LINE
8
BLACK
6
CONTINUOUS
10
173.025
20
-128.319
11
173.035
21
-128.261
0
LINE
8
BLACK
6
CONTINUOUS
10
173.035
20
-128.261
11
173.064
21
-128.21
0
LINE
8
BLACK
6
CONTINUOUS
10
173.064
20
-128.21
11
173.109
21
-128.173
0
LINE
8
BLACK
6
CONTINUOUS
10
173.109
20
-128.173
11
173.194
21
-128.15
0
LINE
8
BLACK
6
CONTINUOUS
10
173.194
20
-128.15
11
173.606
21
-128.15
0
LINE
8
BLACK
6
CONTINUOUS
10
173.606
20
-128.15
11
173.664
21
-128.16
0
LINE
8
BLACK
6
CONTINUOUS
10
172.064
20
-128.16
11
172.115
21
-128.189
0
LINE
8
BLACK
6
CONTINUOUS
10
172.115
20
-128.189
11
172.152
21
-128.234
0
LINE
8
BLACK
6
CONTINUOUS
10
172.152
20
-128.234
11
172.175
21
-128.319
0
LINE
8
BLACK
6
CONTINUOUS
10
172.175
20
-128.319
11
172.175
21
-128.656
0
LINE
8
BLACK
6
CONTINUOUS
10
172.175
20
-128.656
11
172.165
21
-128.714
0
LINE
8
BLACK
6
CONTINUOUS
10
172.165
20
-128.714
11
172.136
21
-128.765
0
LINE
8
BLACK
6
CONTINUOUS
10
172.136
20
-128.765
11
172.091
21
-128.802
0
LINE
8
BLACK
6
CONTINUOUS
10
172.091
20
-128.802
11
172.006
21
-128.825
0
LINE
8
BLACK
6
CONTINUOUS
10
172.006
20
-128.825
11
171.594
21
-128.825
0
LINE
8
BLACK
6
CONTINUOUS
10
171.594
20
-128.825
11
171.536
21
-128.815
0
LINE
8
BLACK
6
CONTINUOUS
10
171.536
20
-128.815
11
171.485
21
-128.786
0
LINE
8
BLACK
6
CONTINUOUS
10
171.485
20
-128.786
11
171.448
21
-128.741
0
LINE
8
BLACK
6
CONTINUOUS
10
171.448
20
-128.741
11
171.425
21
-128.656
0
LINE
8
BLACK
6
CONTINUOUS
10
171.425
20
-128.656
11
171.425
21
-128.319
0
LINE
8
BLACK
6
CONTINUOUS
10
171.425
20
-128.319
11
171.435
21
-128.261
0
LINE
8
BLACK
6
CONTINUOUS
10
171.435
20
-128.261
11
171.464
21
-128.21
0
LINE
8
BLACK
6
CONTINUOUS
10
171.464
20
-128.21
11
171.509
21
-128.173
0
LINE
8
BLACK
6
CONTINUOUS
10
171.509
20
-128.173
11
171.594
21
-128.15
0
LINE
8
BLACK
6
CONTINUOUS
10
171.594
20
-128.15
11
172.006
21
-128.15
0
LINE
8
BLACK
6
CONTINUOUS
10
172.006
20
-128.15
11
172.064
21
-128.16
0
LINE
8
BLACK
6
CONTINUOUS
10
175.364
20
-128.16
11
175.415
21
-128.189
0
LINE
8
BLACK
6
CONTINUOUS
10
175.415
20
-128.189
11
175.452
21
-128.234
0
LINE
8
BLACK
6
CONTINUOUS
10
175.452
20
-128.234
11
175.475
21
-128.319
0
LINE
8
BLACK
6
CONTINUOUS
10
175.475
20
-128.319
11
175.475
21
-128.656
0
LINE
8
BLACK
6
CONTINUOUS
10
175.475
20
-128.656
11
175.465
21
-128.714
0
LINE
8
BLACK
6
CONTINUOUS
10
175.465
20
-128.714
11
175.436
21
-128.765
0
LINE
8
BLACK
6
CONTINUOUS
10
175.436
20
-128.765
11
175.391
21
-128.802
0
LINE
8
BLACK
6
CONTINUOUS
10
175.391
20
-128.802
11
175.306
21
-128.825
0
LINE
8
BLACK
6
CONTINUOUS
10
175.306
20
-128.825
11
174.894
21
-128.825
0
LINE
8
BLACK
6
CONTINUOUS
10
174.894
20
-128.825
11
174.836
21
-128.815
0
LINE
8
BLACK
6
CONTINUOUS
10
174.836
20
-128.815
11
174.785
21
-128.786
0
LINE
8
BLACK
6
CONTINUOUS
10
174.785
20
-128.786
11
174.748
21
-128.741
0
LINE
8
BLACK
6
CONTINUOUS
10
174.748
20
-128.741
11
174.725
21
-128.656
0
LINE
8
BLACK
6
CONTINUOUS
10
174.725
20
-128.656
11
174.725
21
-128.319
0
LINE
8
BLACK
6
CONTINUOUS
10
174.725
20
-128.319
11
174.735
21
-128.261
0
LINE
8
BLACK
6
CONTINUOUS
10
174.735
20
-128.261
11
174.764
21
-128.21
0
LINE
8
BLACK
6
CONTINUOUS
10
174.764
20
-128.21
11
174.809
21
-128.173
0
LINE
8
BLACK
6
CONTINUOUS
10
174.809
20
-128.173
11
174.894
21
-128.15
0
LINE
8
BLACK
6
CONTINUOUS
10
174.894
20
-128.15
11
175.306
21
-128.15
0
LINE
8
BLACK
6
CONTINUOUS
10
175.306
20
-128.15
11
175.364
21
-128.16
0
LINE
8
BLACK
6
CONTINUOUS
10
156.1
20
-128.3
11
155.3
21
-128.3
0
LINE
8
BLACK
6
CONTINUOUS
10
155.3
20
-128.3
11
155.3
21
-127.6
0
LINE
8
BLACK
6
CONTINUOUS
10
155.3
20
-127.6
11
156.1
21
-127.6
0
LINE
8
BLACK
6
CONTINUOUS
10
156.1
20
-127.6
11
156.1
21
-128.3
0
LINE
8
BLACK
6
CONTINUOUS
10
154.5
20
-128.3
11
153.7
21
-128.3
0
LINE
8
BLACK
6
CONTINUOUS
10
153.7
20
-128.3
11
153.7
21
-127.6
0
LINE
8
BLACK
6
CONTINUOUS
10
153.7
20
-127.6
11
154.5
21
-127.6
0
LINE
8
BLACK
6
CONTINUOUS
10
154.5
20
-127.6
11
154.5
21
-128.3
0
LINE
8
BLACK
6
CONTINUOUS
10
170.464
20
-127.36
11
170.515
21
-127.389
0
LINE
8
BLACK
6
CONTINUOUS
10
170.515
20
-127.389
11
170.552
21
-127.434
0
LINE
8
BLACK
6
CONTINUOUS
10
170.552
20
-127.434
11
170.575
21
-127.519
0
LINE
8
BLACK
6
CONTINUOUS
10
170.575
20
-127.519
11
170.575
21
-127.856
0
LINE
8
BLACK
6
CONTINUOUS
10
170.575
20
-127.856
11
170.565
21
-127.914
0
LINE
8
BLACK
6
CONTINUOUS
10
170.565
20
-127.914
11
170.536
21
-127.965
0
LINE
8
BLACK
6
CONTINUOUS
10
170.536
20
-127.965
11
170.491
21
-128.002
0
LINE
8
BLACK
6
CONTINUOUS
10
170.491
20
-128.002
11
170.406
21
-128.025
0
LINE
8
BLACK
6
CONTINUOUS
10
170.406
20
-128.025
11
169.994
21
-128.025
0
LINE
8
BLACK
6
CONTINUOUS
10
169.994
20
-128.025
11
169.936
21
-128.015
0
LINE
8
BLACK
6
CONTINUOUS
10
169.936
20
-128.015
11
169.885
21
-127.986
0
LINE
8
BLACK
6
CONTINUOUS
10
169.885
20
-127.986
11
169.848
21
-127.941
0
LINE
8
BLACK
6
CONTINUOUS
10
169.848
20
-127.941
11
169.825
21
-127.856
0
LINE
8
BLACK
6
CONTINUOUS
10
169.825
20
-127.856
11
169.825
21
-127.519
0
LINE
8
BLACK
6
CONTINUOUS
10
169.825
20
-127.519
11
169.835
21
-127.461
0
LINE
8
BLACK
6
CONTINUOUS
10
169.835
20
-127.461
11
169.864
21
-127.41
0
LINE
8
BLACK
6
CONTINUOUS
10
169.864
20
-127.41
11
169.909
21
-127.373
0
LINE
8
BLACK
6
CONTINUOUS
10
169.909
20
-127.373
11
169.994
21
-127.35
0
LINE
8
BLACK
6
CONTINUOUS
10
169.994
20
-127.35
11
170.406
21
-127.35
0
LINE
8
BLACK
6
CONTINUOUS
10
170.406
20
-127.35
11
170.464
21
-127.36
0
LINE
8
BLACK
6
CONTINUOUS
10
176.964
20
-126.585
11
177.015
21
-126.614
0
LINE
8
BLACK
6
CONTINUOUS
10
177.015
20
-126.614
11
177.052
21
-126.659
0
LINE
8
BLACK
6
CONTINUOUS
10
177.052
20
-126.659
11
177.075
21
-126.744
0
LINE
8
BLACK
6
CONTINUOUS
10
177.075
20
-126.744
11
177.075
21
-127.081
0
LINE
8
BLACK
6
CONTINUOUS
10
177.075
20
-127.081
11
177.065
21
-127.139
0
LINE
8
BLACK
6
CONTINUOUS
10
177.065
20
-127.139
11
177.036
21
-127.19
0
LINE
8
BLACK
6
CONTINUOUS
10
177.036
20
-127.19
11
176.991
21
-127.227
0
LINE
8
BLACK
6
CONTINUOUS
10
176.991
20
-127.227
11
176.906
21
-127.25
0
LINE
8
BLACK
6
CONTINUOUS
10
176.906
20
-127.25
11
176.494
21
-127.25
0
LINE
8
BLACK
6
CONTINUOUS
10
176.494
20
-127.25
11
176.436
21
-127.24
0
LINE
8
BLACK
6
CONTINUOUS
10
176.436
20
-127.24
11
176.385
21
-127.211
0
LINE
8
BLACK
6
CONTINUOUS
10
176.385
20
-127.211
11
176.348
21
-127.166
0
LINE
8
BLACK
6
CONTINUOUS
10
176.348
20
-127.166
11
176.325
21
-127.081
0
LINE
8
BLACK
6
CONTINUOUS
10
176.325
20
-127.081
11
176.325
21
-126.744
0
LINE
8
BLACK
6
CONTINUOUS
10
176.325
20
-126.744
11
176.335
21
-126.686
0
LINE
8
BLACK
6
CONTINUOUS
10
176.335
20
-126.686
11
176.364
21
-126.635
0
LINE
8
BLACK
6
CONTINUOUS
10
176.364
20
-126.635
11
176.409
21
-126.598
0
LINE
8
BLACK
6
CONTINUOUS
10
176.409
20
-126.598
11
176.494
21
-126.575
0
LINE
8
BLACK
6
CONTINUOUS
10
176.494
20
-126.575
11
176.906
21
-126.575
0
LINE
8
BLACK
6
CONTINUOUS
10
176.906
20
-126.575
11
176.964
21
-126.585
0
LINE
8
BLACK
6
CONTINUOUS
10
175.364
20
-126.585
11
175.415
21
-126.614
0
LINE
8
BLACK
6
CONTINUOUS
10
175.415
20
-126.614
11
175.452
21
-126.659
0
LINE
8
BLACK
6
CONTINUOUS
10
175.452
20
-126.659
11
175.475
21
-126.744
0
LINE
8
BLACK
6
CONTINUOUS
10
175.475
20
-126.744
11
175.475
21
-127.081
0
LINE
8
BLACK
6
CONTINUOUS
10
175.475
20
-127.081
11
175.465
21
-127.139
0
LINE
8
BLACK
6
CONTINUOUS
10
175.465
20
-127.139
11
175.436
21
-127.19
0
LINE
8
BLACK
6
CONTINUOUS
10
175.436
20
-127.19
11
175.391
21
-127.227
0
LINE
8
BLACK
6
CONTINUOUS
10
175.391
20
-127.227
11
175.306
21
-127.25
0
LINE
8
BLACK
6
CONTINUOUS
10
175.306
20
-127.25
11
174.894
21
-127.25
0
LINE
8
BLACK
6
CONTINUOUS
10
174.894
20
-127.25
11
174.836
21
-127.24
0
LINE
8
BLACK
6
CONTINUOUS
10
174.836
20
-127.24
11
174.785
21
-127.211
0
LINE
8
BLACK
6
CONTINUOUS
10
174.785
20
-127.211
11
174.748
21
-127.166
0
LINE
8
BLACK
6
CONTINUOUS
10
174.748
20
-127.166
11
174.725
21
-127.081
0
LINE
8
BLACK
6
CONTINUOUS
10
174.725
20
-127.081
11
174.725
21
-126.744
0
LINE
8
BLACK
6
CONTINUOUS
10
174.725
20
-126.744
11
174.735
21
-126.686
0
LINE
8
BLACK
6
CONTINUOUS
10
174.735
20
-126.686
11
174.764
21
-126.635
0
LINE
8
BLACK
6
CONTINUOUS
10
174.764
20
-126.635
11
174.809
21
-126.598
0
LINE
8
BLACK
6
CONTINUOUS
10
174.809
20
-126.598
11
174.894
21
-126.575
0
LINE
8
BLACK
6
CONTINUOUS
10
174.894
20
-126.575
11
175.306
21
-126.575
0
LINE
8
BLACK
6
CONTINUOUS
10
175.306
20
-126.575
11
175.364
21
-126.585
0
LINE
8
BLACK
6
CONTINUOUS
10
172.064
20
-126.585
11
172.115
21
-126.614
0
LINE
8
BLACK
6
CONTINUOUS
10
172.115
20
-126.614
11
172.152
21
-126.659
0
LINE
8
BLACK
6
CONTINUOUS
10
172.152
20
-126.659
11
172.175
21
-126.744
0
LINE
8
BLACK
6
CONTINUOUS
10
172.175
20
-126.744
11
172.175
21
-127.081
0
LINE
8
BLACK
6
CONTINUOUS
10
172.175
20
-127.081
11
172.165
21
-127.139
0
LINE
8
BLACK
6
CONTINUOUS
10
172.165
20
-127.139
11
172.136
21
-127.19
0
LINE
8
BLACK
6
CONTINUOUS
10
172.136
20
-127.19
11
172.091
21
-127.227
0
LINE
8
BLACK
6
CONTINUOUS
10
172.091
20
-127.227
11
172.006
21
-127.25
0
LINE
8
BLACK
6
CONTINUOUS
10
172.006
20
-127.25
11
171.594
21
-127.25
0
LINE
8
BLACK
6
CONTINUOUS
10
171.594
20
-127.25
11
171.536
21
-127.24
0
LINE
8
BLACK
6
CONTINUOUS
10
171.536
20
-127.24
11
171.485
21
-127.211
0
LINE
8
BLACK
6
CONTINUOUS
10
171.485
20
-127.211
11
171.448
21
-127.166
0
LINE
8
BLACK
6
CONTINUOUS
10
171.448
20
-127.166
11
171.425
21
-127.081
0
LINE
8
BLACK
6
CONTINUOUS
10
171.425
20
-127.081
11
171.425
21
-126.744
0
LINE
8
BLACK
6
CONTINUOUS
10
171.425
20
-126.744
11
171.435
21
-126.686
0
LINE
8
BLACK
6
CONTINUOUS
10
171.435
20
-126.686
11
171.464
21
-126.635
0
LINE
8
BLACK
6
CONTINUOUS
10
171.464
20
-126.635
11
171.509
21
-126.598
0
LINE
8
BLACK
6
CONTINUOUS
10
171.509
20
-126.598
11
171.594
21
-126.575
0
LINE
8
BLACK
6
CONTINUOUS
10
171.594
20
-126.575
11
172.006
21
-126.575
0
LINE
8
BLACK
6
CONTINUOUS
10
172.006
20
-126.575
11
172.064
21
-126.585
0
LINE
8
BLACK
6
CONTINUOUS
10
173.664
20
-126.585
11
173.715
21
-126.614
0
LINE
8
BLACK
6
CONTINUOUS
10
173.715
20
-126.614
11
173.752
21
-126.659
0
LINE
8
BLACK
6
CONTINUOUS
10
173.752
20
-126.659
11
173.775
21
-126.744
0
LINE
8
BLACK
6
CONTINUOUS
10
173.775
20
-126.744
11
173.775
21
-127.081
0
LINE
8
BLACK
6
CONTINUOUS
10
173.775
20
-127.081
11
173.765
21
-127.139
0
LINE
8
BLACK
6
CONTINUOUS
10
173.765
20
-127.139
11
173.736
21
-127.19
0
LINE
8
BLACK
6
CONTINUOUS
10
173.736
20
-127.19
11
173.691
21
-127.227
0
LINE
8
BLACK
6
CONTINUOUS
10
173.691
20
-127.227
11
173.606
21
-127.25
0
LINE
8
BLACK
6
CONTINUOUS
10
173.606
20
-127.25
11
173.194
21
-127.25
0
LINE
8
BLACK
6
CONTINUOUS
10
173.194
20
-127.25
11
173.136
21
-127.24
0
LINE
8
BLACK
6
CONTINUOUS
10
173.136
20
-127.24
11
173.085
21
-127.211
0
LINE
8
BLACK
6
CONTINUOUS
10
173.085
20
-127.211
11
173.048
21
-127.166
0
LINE
8
BLACK
6
CONTINUOUS
10
173.048
20
-127.166
11
173.025
21
-127.081
0
LINE
8
BLACK
6
CONTINUOUS
10
173.025
20
-127.081
11
173.025
21
-126.744
0
LINE
8
BLACK
6
CONTINUOUS
10
173.025
20
-126.744
11
173.035
21
-126.686
0
LINE
8
BLACK
6
CONTINUOUS
10
173.035
20
-126.686
11
173.064
21
-126.635
0
LINE
8
BLACK
6
CONTINUOUS
10
173.064
20
-126.635
11
173.109
21
-126.598
0
LINE
8
BLACK
6
CONTINUOUS
10
173.109
20
-126.598
11
173.194
21
-126.575
0
LINE
8
BLACK
6
CONTINUOUS
10
173.194
20
-126.575
11
173.606
21
-126.575
0
LINE
8
BLACK
6
CONTINUOUS
10
173.606
20
-126.575
11
173.664
21
-126.585
0
LINE
8
BLACK
6
CONTINUOUS
10
155.964
20
-126.26
11
156.015
21
-126.289
0
LINE
8
BLACK
6
CONTINUOUS
10
156.015
20
-126.289
11
156.052
21
-126.334
0
LINE
8
BLACK
6
CONTINUOUS
10
156.052
20
-126.334
11
156.075
21
-126.419
0
LINE
8
BLACK
6
CONTINUOUS
10
156.075
20
-126.419
11
156.075
21
-126.756
0
LINE
8
BLACK
6
CONTINUOUS
10
156.075
20
-126.756
11
156.065
21
-126.814
0
LINE
8
BLACK
6
CONTINUOUS
10
156.065
20
-126.814
11
156.036
21
-126.865
0
LINE
8
BLACK
6
CONTINUOUS
10
156.036
20
-126.865
11
155.991
21
-126.902
0
LINE
8
BLACK
6
CONTINUOUS
10
155.991
20
-126.902
11
155.906
21
-126.925
0
LINE
8
BLACK
6
CONTINUOUS
10
155.906
20
-126.925
11
155.494
21
-126.925
0
LINE
8
BLACK
6
CONTINUOUS
10
155.494
20
-126.925
11
155.436
21
-126.915
0
LINE
8
BLACK
6
CONTINUOUS
10
155.436
20
-126.915
11
155.385
21
-126.886
0
LINE
8
BLACK
6
CONTINUOUS
10
155.385
20
-126.886
11
155.348
21
-126.841
0
LINE
8
BLACK
6
CONTINUOUS
10
155.348
20
-126.841
11
155.325
21
-126.756
0
LINE
8
BLACK
6
CONTINUOUS
10
155.325
20
-126.756
11
155.325
21
-126.419
0
LINE
8
BLACK
6
CONTINUOUS
10
155.325
20
-126.419
11
155.335
21
-126.361
0
LINE
8
BLACK
6
CONTINUOUS
10
155.335
20
-126.361
11
155.364
21
-126.31
0
LINE
8
BLACK
6
CONTINUOUS
10
155.364
20
-126.31
11
155.409
21
-126.273
0
LINE
8
BLACK
6
CONTINUOUS
10
155.409
20
-126.273
11
155.494
21
-126.25
0
LINE
8
BLACK
6
CONTINUOUS
10
155.494
20
-126.25
11
155.906
21
-126.25
0
LINE
8
BLACK
6
CONTINUOUS
10
155.906
20
-126.25
11
155.964
21
-126.26
0
LINE
8
BLACK
6
CONTINUOUS
10
182.839
20
-125.935
11
182.89
21
-125.964
0
LINE
8
BLACK
6
CONTINUOUS
10
182.89
20
-125.964
11
182.927
21
-126.009
0
LINE
8
BLACK
6
CONTINUOUS
10
182.927
20
-126.009
11
182.95
21
-126.094
0
LINE
8
BLACK
6
CONTINUOUS
10
182.95
20
-126.094
11
182.95
21
-126.506
0
LINE
8
BLACK
6
CONTINUOUS
10
182.95
20
-126.506
11
182.94
21
-126.564
0
LINE
8
BLACK
6
CONTINUOUS
10
182.94
20
-126.564
11
182.911
21
-126.615
0
LINE
8
BLACK
6
CONTINUOUS
10
182.911
20
-126.615
11
182.866
21
-126.652
0
LINE
8
BLACK
6
CONTINUOUS
10
182.866
20
-126.652
11
182.781
21
-126.675
0
LINE
8
BLACK
6
CONTINUOUS
10
182.781
20
-126.675
11
182.444
21
-126.675
0
LINE
8
BLACK
6
CONTINUOUS
10
182.444
20
-126.675
11
182.386
21
-126.665
0
LINE
8
BLACK
6
CONTINUOUS
10
182.386
20
-126.665
11
182.335
21
-126.636
0
LINE
8
BLACK
6
CONTINUOUS
10
182.335
20
-126.636
11
182.298
21
-126.591
0
LINE
8
BLACK
6
CONTINUOUS
10
182.298
20
-126.591
11
182.275
21
-126.506
0
LINE
8
BLACK
6
CONTINUOUS
10
182.275
20
-126.506
11
182.275
21
-126.094
0
LINE
8
BLACK
6
CONTINUOUS
10
182.275
20
-126.094
11
182.285
21
-126.036
0
LINE
8
BLACK
6
CONTINUOUS
10
182.285
20
-126.036
11
182.314
21
-125.985
0
LINE
8
BLACK
6
CONTINUOUS
10
182.314
20
-125.985
11
182.359
21
-125.948
0
LINE
8
BLACK
6
CONTINUOUS
10
182.359
20
-125.948
11
182.444
21
-125.925
0
LINE
8
BLACK
6
CONTINUOUS
10
182.444
20
-125.925
11
182.781
21
-125.925
0
LINE
8
BLACK
6
CONTINUOUS
10
182.781
20
-125.925
11
182.839
21
-125.935
0
LINE
8
BLACK
6
CONTINUOUS
10
184.414
20
-125.935
11
184.465
21
-125.964
0
LINE
8
BLACK
6
CONTINUOUS
10
184.465
20
-125.964
11
184.502
21
-126.009
0
LINE
8
BLACK
6
CONTINUOUS
10
184.502
20
-126.009
11
184.525
21
-126.094
0
LINE
8
BLACK
6
CONTINUOUS
10
184.525
20
-126.094
11
184.525
21
-126.506
0
LINE
8
BLACK
6
CONTINUOUS
10
184.525
20
-126.506
11
184.515
21
-126.564
0
LINE
8
BLACK
6
CONTINUOUS
10
184.515
20
-126.564
11
184.486
21
-126.615
0
LINE
8
BLACK
6
CONTINUOUS
10
184.486
20
-126.615
11
184.441
21
-126.652
0
LINE
8
BLACK
6
CONTINUOUS
10
184.441
20
-126.652
11
184.356
21
-126.675
0
LINE
8
BLACK
6
CONTINUOUS
10
184.356
20
-126.675
11
184.019
21
-126.675
0
LINE
8
BLACK
6
CONTINUOUS
10
184.019
20
-126.675
11
183.961
21
-126.665
0
LINE
8
BLACK
6
CONTINUOUS
10
183.961
20
-126.665
11
183.91
21
-126.636
0
LINE
8
BLACK
6
CONTINUOUS
10
183.91
20
-126.636
11
183.873
21
-126.591
0
LINE
8
BLACK
6
CONTINUOUS
10
183.873
20
-126.591
11
183.85
21
-126.506
0
LINE
8
BLACK
6
CONTINUOUS
10
183.85
20
-126.506
11
183.85
21
-126.094
0
LINE
8
BLACK
6
CONTINUOUS
10
183.85
20
-126.094
11
183.86
21
-126.036
0
LINE
8
BLACK
6
CONTINUOUS
10
183.86
20
-126.036
11
183.889
21
-125.985
0
LINE
8
BLACK
6
CONTINUOUS
10
183.889
20
-125.985
11
183.934
21
-125.948
0
LINE
8
BLACK
6
CONTINUOUS
10
183.934
20
-125.948
11
184.019
21
-125.925
0
LINE
8
BLACK
6
CONTINUOUS
10
184.019
20
-125.925
11
184.356
21
-125.925
0
LINE
8
BLACK
6
CONTINUOUS
10
184.356
20
-125.925
11
184.414
21
-125.935
0
LINE
8
BLACK
6
CONTINUOUS
10
170.464
20
-125.785
11
170.515
21
-125.814
0
LINE
8
BLACK
6
CONTINUOUS
10
170.515
20
-125.814
11
170.552
21
-125.859
0
LINE
8
BLACK
6
CONTINUOUS
10
170.552
20
-125.859
11
170.575
21
-125.944
0
LINE
8
BLACK
6
CONTINUOUS
10
170.575
20
-125.944
11
170.575
21
-126.281
0
LINE
8
BLACK
6
CONTINUOUS
10
170.575
20
-126.281
11
170.565
21
-126.339
0
LINE
8
BLACK
6
CONTINUOUS
10
170.565
20
-126.339
11
170.536
21
-126.39
0
LINE
8
BLACK
6
CONTINUOUS
10
170.536
20
-126.39
11
170.491
21
-126.427
0
LINE
8
BLACK
6
CONTINUOUS
10
170.491
20
-126.427
11
170.406
21
-126.45
0
LINE
8
BLACK
6
CONTINUOUS
10
170.406
20
-126.45
11
169.994
21
-126.45
0
LINE
8
BLACK
6
CONTINUOUS
10
169.994
20
-126.45
11
169.936
21
-126.44
0
LINE
8
BLACK
6
CONTINUOUS
10
169.936
20
-126.44
11
169.885
21
-126.411
0
LINE
8
BLACK
6
CONTINUOUS
10
169.885
20
-126.411
11
169.848
21
-126.366
0
LINE
8
BLACK
6
CONTINUOUS
10
169.848
20
-126.366
11
169.825
21
-126.281
0
LINE
8
BLACK
6
CONTINUOUS
10
169.825
20
-126.281
11
169.825
21
-125.944
0
LINE
8
BLACK
6
CONTINUOUS
10
169.825
20
-125.944
11
169.835
21
-125.886
0
LINE
8
BLACK
6
CONTINUOUS
10
169.835
20
-125.886
11
169.864
21
-125.835
0
LINE
8
BLACK
6
CONTINUOUS
10
169.864
20
-125.835
11
169.909
21
-125.798
0
LINE
8
BLACK
6
CONTINUOUS
10
169.909
20
-125.798
11
169.994
21
-125.775
0
LINE
8
BLACK
6
CONTINUOUS
10
169.994
20
-125.775
11
170.406
21
-125.775
0
LINE
8
BLACK
6
CONTINUOUS
10
170.406
20
-125.775
11
170.464
21
-125.785
0
LINE
8
BLACK
6
CONTINUOUS
10
173.614
20
-124.935
11
173.665
21
-124.964
0
LINE
8
BLACK
6
CONTINUOUS
10
173.665
20
-124.964
11
173.702
21
-125.009
0
LINE
8
BLACK
6
CONTINUOUS
10
173.702
20
-125.009
11
173.725
21
-125.094
0
LINE
8
BLACK
6
CONTINUOUS
10
173.725
20
-125.094
11
173.725
21
-125.506
0
LINE
8
BLACK
6
CONTINUOUS
10
173.725
20
-125.506
11
173.715
21
-125.564
0
LINE
8
BLACK
6
CONTINUOUS
10
173.715
20
-125.564
11
173.686
21
-125.615
0
LINE
8
BLACK
6
CONTINUOUS
10
173.686
20
-125.615
11
173.641
21
-125.652
0
LINE
8
BLACK
6
CONTINUOUS
10
173.641
20
-125.652
11
173.556
21
-125.675
0
LINE
8
BLACK
6
CONTINUOUS
10
173.556
20
-125.675
11
173.219
21
-125.675
0
LINE
8
BLACK
6
CONTINUOUS
10
173.219
20
-125.675
11
173.161
21
-125.665
0
LINE
8
BLACK
6
CONTINUOUS
10
173.161
20
-125.665
11
173.11
21
-125.636
0
LINE
8
BLACK
6
CONTINUOUS
10
173.11
20
-125.636
11
173.073
21
-125.591
0
LINE
8
BLACK
6
CONTINUOUS
10
173.073
20
-125.591
11
173.05
21
-125.506
0
LINE
8
BLACK
6
CONTINUOUS
10
173.05
20
-125.506
11
173.05
21
-125.094
0
LINE
8
BLACK
6
CONTINUOUS
10
173.05
20
-125.094
11
173.06
21
-125.036
0
LINE
8
BLACK
6
CONTINUOUS
10
173.06
20
-125.036
11
173.089
21
-124.985
0
LINE
8
BLACK
6
CONTINUOUS
10
173.089
20
-124.985
11
173.134
21
-124.948
0
LINE
8
BLACK
6
CONTINUOUS
10
173.134
20
-124.948
11
173.219
21
-124.925
0
LINE
8
BLACK
6
CONTINUOUS
10
173.219
20
-124.925
11
173.556
21
-124.925
0
LINE
8
BLACK
6
CONTINUOUS
10
173.556
20
-124.925
11
173.614
21
-124.935
0
LINE
8
BLACK
6
CONTINUOUS
10
172.039
20
-124.935
11
172.09
21
-124.964
0
LINE
8
BLACK
6
CONTINUOUS
10
172.09
20
-124.964
11
172.127
21
-125.009
0
LINE
8
BLACK
6
CONTINUOUS
10
172.127
20
-125.009
11
172.15
21
-125.094
0
LINE
8
BLACK
6
CONTINUOUS
10
172.15
20
-125.094
11
172.15
21
-125.506
0
LINE
8
BLACK
6
CONTINUOUS
10
172.15
20
-125.506
11
172.14
21
-125.564
0
LINE
8
BLACK
6
CONTINUOUS
10
172.14
20
-125.564
11
172.111
21
-125.615
0
LINE
8
BLACK
6
CONTINUOUS
10
172.111
20
-125.615
11
172.066
21
-125.652
0
LINE
8
BLACK
6
CONTINUOUS
10
172.066
20
-125.652
11
171.981
21
-125.675
0
LINE
8
BLACK
6
CONTINUOUS
10
171.981
20
-125.675
11
171.644
21
-125.675
0
LINE
8
BLACK
6
CONTINUOUS
10
171.644
20
-125.675
11
171.586
21
-125.665
0
LINE
8
BLACK
6
CONTINUOUS
10
171.586
20
-125.665
11
171.535
21
-125.636
0
LINE
8
BLACK
6
CONTINUOUS
10
171.535
20
-125.636
11
171.498
21
-125.591
0
LINE
8
BLACK
6
CONTINUOUS
10
171.498
20
-125.591
11
171.475
21
-125.506
0
LINE
8
BLACK
6
CONTINUOUS
10
171.475
20
-125.506
11
171.475
21
-125.094
0
LINE
8
BLACK
6
CONTINUOUS
10
171.475
20
-125.094
11
171.485
21
-125.036
0
LINE
8
BLACK
6
CONTINUOUS
10
171.485
20
-125.036
11
171.514
21
-124.985
0
LINE
8
BLACK
6
CONTINUOUS
10
171.514
20
-124.985
11
171.559
21
-124.948
0
LINE
8
BLACK
6
CONTINUOUS
10
171.559
20
-124.948
11
171.644
21
-124.925
0
LINE
8
BLACK
6
CONTINUOUS
10
171.644
20
-124.925
11
171.981
21
-124.925
0
LINE
8
BLACK
6
CONTINUOUS
10
171.981
20
-124.925
11
172.039
21
-124.935
0
LINE
8
BLACK
6
CONTINUOUS
10
176.914
20
-124.935
11
176.965
21
-124.964
0
LINE
8
BLACK
6
CONTINUOUS
10
176.965
20
-124.964
11
177.002
21
-125.009
0
LINE
8
BLACK
6
CONTINUOUS
10
177.002
20
-125.009
11
177.025
21
-125.094
0
LINE
8
BLACK
6
CONTINUOUS
10
177.025
20
-125.094
11
177.025
21
-125.506
0
LINE
8
BLACK
6
CONTINUOUS
10
177.025
20
-125.506
11
177.015
21
-125.564
0
LINE
8
BLACK
6
CONTINUOUS
10
177.015
20
-125.564
11
176.986
21
-125.615
0
LINE
8
BLACK
6
CONTINUOUS
10
176.986
20
-125.615
11
176.941
21
-125.652
0
LINE
8
BLACK
6
CONTINUOUS
10
176.941
20
-125.652
11
176.856
21
-125.675
0
LINE
8
BLACK
6
CONTINUOUS
10
176.856
20
-125.675
11
176.519
21
-125.675
0
LINE
8
BLACK
6
CONTINUOUS
10
176.519
20
-125.675
11
176.461
21
-125.665
0
LINE
8
BLACK
6
CONTINUOUS
10
176.461
20
-125.665
11
176.41
21
-125.636
0
LINE
8
BLACK
6
CONTINUOUS
10
176.41
20
-125.636
11
176.373
21
-125.591
0
LINE
8
BLACK
6
CONTINUOUS
10
176.373
20
-125.591
11
176.35
21
-125.506
0
LINE
8
BLACK
6
CONTINUOUS
10
176.35
20
-125.506
11
176.35
21
-125.094
0
LINE
8
BLACK
6
CONTINUOUS
10
176.35
20
-125.094
11
176.36
21
-125.036
0
LINE
8
BLACK
6
CONTINUOUS
10
176.36
20
-125.036
11
176.389
21
-124.985
0
LINE
8
BLACK
6
CONTINUOUS
10
176.389
20
-124.985
11
176.434
21
-124.948
0
LINE
8
BLACK
6
CONTINUOUS
10
176.434
20
-124.948
11
176.519
21
-124.925
0
LINE
8
BLACK
6
CONTINUOUS
10
176.519
20
-124.925
11
176.856
21
-124.925
0
LINE
8
BLACK
6
CONTINUOUS
10
176.856
20
-124.925
11
176.914
21
-124.935
0
LINE
8
BLACK
6
CONTINUOUS
10
175.339
20
-124.935
11
175.39
21
-124.964
0
LINE
8
BLACK
6
CONTINUOUS
10
175.39
20
-124.964
11
175.427
21
-125.009
0
LINE
8
BLACK
6
CONTINUOUS
10
175.427
20
-125.009
11
175.45
21
-125.094
0
LINE
8
BLACK
6
CONTINUOUS
10
175.45
20
-125.094
11
175.45
21
-125.506
0
LINE
8
BLACK
6
CONTINUOUS
10
175.45
20
-125.506
11
175.44
21
-125.564
0
LINE
8
BLACK
6
CONTINUOUS
10
175.44
20
-125.564
11
175.411
21
-125.615
0
LINE
8
BLACK
6
CONTINUOUS
10
175.411
20
-125.615
11
175.366
21
-125.652
0
LINE
8
BLACK
6
CONTINUOUS
10
175.366
20
-125.652
11
175.281
21
-125.675
0
LINE
8
BLACK
6
CONTINUOUS
10
175.281
20
-125.675
11
174.944
21
-125.675
0
LINE
8
BLACK
6
CONTINUOUS
10
174.944
20
-125.675
11
174.886
21
-125.665
0
LINE
8
BLACK
6
CONTINUOUS
10
174.886
20
-125.665
11
174.835
21
-125.636
0
LINE
8
BLACK
6
CONTINUOUS
10
174.835
20
-125.636
11
174.798
21
-125.591
0
LINE
8
BLACK
6
CONTINUOUS
10
174.798
20
-125.591
11
174.775
21
-125.506
0
LINE
8
BLACK
6
CONTINUOUS
10
174.775
20
-125.506
11
174.775
21
-125.094
0
LINE
8
BLACK
6
CONTINUOUS
10
174.775
20
-125.094
11
174.785
21
-125.036
0
LINE
8
BLACK
6
CONTINUOUS
10
174.785
20
-125.036
11
174.814
21
-124.985
0
LINE
8
BLACK
6
CONTINUOUS
10
174.814
20
-124.985
11
174.859
21
-124.948
0
LINE
8
BLACK
6
CONTINUOUS
10
174.859
20
-124.948
11
174.944
21
-124.925
0
LINE
8
BLACK
6
CONTINUOUS
10
174.944
20
-124.925
11
175.281
21
-124.925
0
LINE
8
BLACK
6
CONTINUOUS
10
175.281
20
-124.925
11
175.339
21
-124.935
0
LINE
8
BLACK
6
CONTINUOUS
10
155.964
20
-124.685
11
156.015
21
-124.714
0
LINE
8
BLACK
6
CONTINUOUS
10
156.015
20
-124.714
11
156.052
21
-124.759
0
LINE
8
BLACK
6
CONTINUOUS
10
156.052
20
-124.759
11
156.075
21
-124.844
0
LINE
8
BLACK
6
CONTINUOUS
10
156.075
20
-124.844
11
156.075
21
-125.181
0
LINE
8
BLACK
6
CONTINUOUS
10
156.075
20
-125.181
11
156.065
21
-125.239
0
LINE
8
BLACK
6
CONTINUOUS
10
156.065
20
-125.239
11
156.036
21
-125.29
0
LINE
8
BLACK
6
CONTINUOUS
10
156.036
20
-125.29
11
155.991
21
-125.327
0
LINE
8
BLACK
6
CONTINUOUS
10
155.991
20
-125.327
11
155.906
21
-125.35
0
LINE
8
BLACK
6
CONTINUOUS
10
155.906
20
-125.35
11
155.494
21
-125.35
0
LINE
8
BLACK
6
CONTINUOUS
10
155.494
20
-125.35
11
155.436
21
-125.34
0
LINE
8
BLACK
6
CONTINUOUS
10
155.436
20
-125.34
11
155.385
21
-125.311
0
LINE
8
BLACK
6
CONTINUOUS
10
155.385
20
-125.311
11
155.348
21
-125.266
0
LINE
8
BLACK
6
CONTINUOUS
10
155.348
20
-125.266
11
155.325
21
-125.181
0
LINE
8
BLACK
6
CONTINUOUS
10
155.325
20
-125.181
11
155.325
21
-124.844
0
LINE
8
BLACK
6
CONTINUOUS
10
155.325
20
-124.844
11
155.335
21
-124.786
0
LINE
8
BLACK
6
CONTINUOUS
10
155.335
20
-124.786
11
155.364
21
-124.735
0
LINE
8
BLACK
6
CONTINUOUS
10
155.364
20
-124.735
11
155.409
21
-124.698
0
LINE
8
BLACK
6
CONTINUOUS
10
155.409
20
-124.698
11
155.494
21
-124.675
0
LINE
8
BLACK
6
CONTINUOUS
10
155.494
20
-124.675
11
155.906
21
-124.675
0
LINE
8
BLACK
6
CONTINUOUS
10
155.906
20
-124.675
11
155.964
21
-124.685
0
LINE
8
BLACK
6
CONTINUOUS
10
187.875
20
-125.03
11
187.425
21
-125.03
0
LINE
8
BLACK
6
CONTINUOUS
10
187.425
20
-125.03
11
187.425
21
-124.17
0
LINE
8
BLACK
6
CONTINUOUS
10
187.425
20
-124.17
11
187.875
21
-124.17
0
LINE
8
BLACK
6
CONTINUOUS
10
187.875
20
-124.17
11
187.875
21
-125.03
0
LINE
8
BLACK
6
CONTINUOUS
10
186.925
20
-125.03
11
186.475
21
-125.03
0
LINE
8
BLACK
6
CONTINUOUS
10
186.475
20
-125.03
11
186.475
21
-124.17
0
LINE
8
BLACK
6
CONTINUOUS
10
186.475
20
-124.17
11
186.925
21
-124.17
0
LINE
8
BLACK
6
CONTINUOUS
10
186.925
20
-124.17
11
186.925
21
-125.03
0
LINE
8
BLACK
6
CONTINUOUS
10
185.975
20
-125.03
11
185.525
21
-125.03
0
LINE
8
BLACK
6
CONTINUOUS
10
185.525
20
-125.03
11
185.525
21
-124.17
0
LINE
8
BLACK
6
CONTINUOUS
10
185.525
20
-124.17
11
185.975
21
-124.17
0
LINE
8
BLACK
6
CONTINUOUS
10
185.975
20
-124.17
11
185.975
21
-125.03
0
LINE
8
BLACK
6
CONTINUOUS
10
184.414
20
-124.235
11
184.465
21
-124.264
0
LINE
8
BLACK
6
CONTINUOUS
10
184.465
20
-124.264
11
184.502
21
-124.309
0
LINE
8
BLACK
6
CONTINUOUS
10
184.502
20
-124.309
11
184.525
21
-124.394
0
LINE
8
BLACK
6
CONTINUOUS
10
184.525
20
-124.394
11
184.525
21
-124.806
0
LINE
8
BLACK
6
CONTINUOUS
10
184.525
20
-124.806
11
184.515
21
-124.864
0
LINE
8
BLACK
6
CONTINUOUS
10
184.515
20
-124.864
11
184.486
21
-124.915
0
LINE
8
BLACK
6
CONTINUOUS
10
184.486
20
-124.915
11
184.441
21
-124.952
0
LINE
8
BLACK
6
CONTINUOUS
10
184.441
20
-124.952
11
184.356
21
-124.975
0
LINE
8
BLACK
6
CONTINUOUS
10
184.356
20
-124.975
11
184.019
21
-124.975
0
LINE
8
BLACK
6
CONTINUOUS
10
184.019
20
-124.975
11
183.961
21
-124.965
0
LINE
8
BLACK
6
CONTINUOUS
10
183.961
20
-124.965
11
183.91
21
-124.936
0
LINE
8
BLACK
6
CONTINUOUS
10
183.91
20
-124.936
11
183.873
21
-124.891
0
LINE
8
BLACK
6
CONTINUOUS
10
183.873
20
-124.891
11
183.85
21
-124.806
0
LINE
8
BLACK
6
CONTINUOUS
10
183.85
20
-124.806
11
183.85
21
-124.394
0
LINE
8
BLACK
6
CONTINUOUS
10
183.85
20
-124.394
11
183.86
21
-124.336
0
LINE
8
BLACK
6
CONTINUOUS
10
183.86
20
-124.336
11
183.889
21
-124.285
0
LINE
8
BLACK
6
CONTINUOUS
10
183.889
20
-124.285
11
183.934
21
-124.248
0
LINE
8
BLACK
6
CONTINUOUS
10
183.934
20
-124.248
11
184.019
21
-124.225
0
LINE
8
BLACK
6
CONTINUOUS
10
184.019
20
-124.225
11
184.356
21
-124.225
0
LINE
8
BLACK
6
CONTINUOUS
10
184.356
20
-124.225
11
184.414
21
-124.235
0
LINE
8
BLACK
6
CONTINUOUS
10
182.839
20
-124.235
11
182.89
21
-124.264
0
LINE
8
BLACK
6
CONTINUOUS
10
182.89
20
-124.264
11
182.927
21
-124.309
0
LINE
8
BLACK
6
CONTINUOUS
10
182.927
20
-124.309
11
182.95
21
-124.394
0
LINE
8
BLACK
6
CONTINUOUS
10
182.95
20
-124.394
11
182.95
21
-124.806
0
LINE
8
BLACK
6
CONTINUOUS
10
182.95
20
-124.806
11
182.94
21
-124.864
0
LINE
8
BLACK
6
CONTINUOUS
10
182.94
20
-124.864
11
182.911
21
-124.915
0
LINE
8
BLACK
6
CONTINUOUS
10
182.911
20
-124.915
11
182.866
21
-124.952
0
LINE
8
BLACK
6
CONTINUOUS
10
182.866
20
-124.952
11
182.781
21
-124.975
0
LINE
8
BLACK
6
CONTINUOUS
10
182.781
20
-124.975
11
182.444
21
-124.975
0
LINE
8
BLACK
6
CONTINUOUS
10
182.444
20
-124.975
11
182.386
21
-124.965
0
LINE
8
BLACK
6
CONTINUOUS
10
182.386
20
-124.965
11
182.335
21
-124.936
0
LINE
8
BLACK
6
CONTINUOUS
10
182.335
20
-124.936
11
182.298
21
-124.891
0
LINE
8
BLACK
6
CONTINUOUS
10
182.298
20
-124.891
11
182.275
21
-124.806
0
LINE
8
BLACK
6
CONTINUOUS
10
182.275
20
-124.806
11
182.275
21
-124.394
0
LINE
8
BLACK
6
CONTINUOUS
10
182.275
20
-124.394
11
182.285
21
-124.336
0
LINE
8
BLACK
6
CONTINUOUS
10
182.285
20
-124.336
11
182.314
21
-124.285
0
LINE
8
BLACK
6
CONTINUOUS
10
182.314
20
-124.285
11
182.359
21
-124.248
0
LINE
8
BLACK
6
CONTINUOUS
10
182.359
20
-124.248
11
182.444
21
-124.225
0
LINE
8
BLACK
6
CONTINUOUS
10
182.444
20
-124.225
11
182.781
21
-124.225
0
LINE
8
BLACK
6
CONTINUOUS
10
182.781
20
-124.225
11
182.839
21
-124.235
0
LINE
8
BLACK
6
CONTINUOUS
10
160.214
20
-124.01
11
160.265
21
-124.039
0
LINE
8
BLACK
6
CONTINUOUS
10
160.265
20
-124.039
11
160.302
21
-124.084
0
LINE
8
BLACK
6
CONTINUOUS
10
160.302
20
-124.084
11
160.325
21
-124.169
0
LINE
8
BLACK
6
CONTINUOUS
10
160.325
20
-124.169
11
160.325
21
-124.506
0
LINE
8
BLACK
6
CONTINUOUS
10
160.325
20
-124.506
11
160.315
21
-124.564
0
LINE
8
BLACK
6
CONTINUOUS
10
160.315
20
-124.564
11
160.286
21
-124.615
0
LINE
8
BLACK
6
CONTINUOUS
10
160.286
20
-124.615
11
160.241
21
-124.652
0
LINE
8
BLACK
6
CONTINUOUS
10
160.241
20
-124.652
11
160.156
21
-124.675
0
LINE
8
BLACK
6
CONTINUOUS
10
160.156
20
-124.675
11
159.744
21
-124.675
0
LINE
8
BLACK
6
CONTINUOUS
10
159.744
20
-124.675
11
159.686
21
-124.665
0
LINE
8
BLACK
6
CONTINUOUS
10
159.686
20
-124.665
11
159.635
21
-124.636
0
LINE
8
BLACK
6
CONTINUOUS
10
159.635
20
-124.636
11
159.598
21
-124.591
0
LINE
8
BLACK
6
CONTINUOUS
10
159.598
20
-124.591
11
159.575
21
-124.506
0
LINE
8
BLACK
6
CONTINUOUS
10
159.575
20
-124.506
11
159.575
21
-124.169
0
LINE
8
BLACK
6
CONTINUOUS
10
159.575
20
-124.169
11
159.585
21
-124.111
0
LINE
8
BLACK
6
CONTINUOUS
10
159.585
20
-124.111
11
159.614
21
-124.06
0
LINE
8
BLACK
6
CONTINUOUS
10
159.614
20
-124.06
11
159.659
21
-124.023
0
LINE
8
BLACK
6
CONTINUOUS
10
159.659
20
-124.023
11
159.744
21
-124
0
LINE
8
BLACK
6
CONTINUOUS
10
159.744
20
-124
11
160.156
21
-124
0
LINE
8
BLACK
6
CONTINUOUS
10
160.156
20
-124
11
160.214
21
-124.01
0
LINE
8
BLACK
6
CONTINUOUS
10
162.374
20
-124.382
11
162.374
21
-124.524
0
LINE
8
BLACK
6
CONTINUOUS
10
162.374
20
-124.524
11
162.126
21
-124.524
0
LINE
8
BLACK
6
CONTINUOUS
10
162.126
20
-124.524
11
162.126
21
-124.276
0
LINE
8
BLACK
6
CONTINUOUS
10
162.126
20
-124.276
11
162.268
21
-124.276
0
LINE
8
BLACK
6
CONTINUOUS
10
162.268
20
-124.276
11
162.374
21
-124.382
0
LINE
8
BLACK
6
CONTINUOUS
10
161.75
20
-124.5
11
161.55
21
-124.5
0
LINE
8
BLACK
6
CONTINUOUS
10
161.55
20
-124.5
11
161.55
21
-124.3
0
LINE
8
BLACK
6
CONTINUOUS
10
161.55
20
-124.3
11
161.75
21
-124.3
0
LINE
8
BLACK
6
CONTINUOUS
10
161.75
20
-124.3
11
161.75
21
-124.5
0
LINE
8
BLACK
6
CONTINUOUS
10
162.35
20
-123.9
11
162.15
21
-123.9
0
LINE
8
BLACK
6
CONTINUOUS
10
162.15
20
-123.9
11
162.15
21
-123.7
0
LINE
8
BLACK
6
CONTINUOUS
10
162.15
20
-123.7
11
162.35
21
-123.7
0
LINE
8
BLACK
6
CONTINUOUS
10
162.35
20
-123.7
11
162.35
21
-123.9
0
LINE
8
BLACK
6
CONTINUOUS
10
161.75
20
-123.9
11
161.55
21
-123.9
0
LINE
8
BLACK
6
CONTINUOUS
10
161.55
20
-123.9
11
161.55
21
-123.7
0
LINE
8
BLACK
6
CONTINUOUS
10
161.55
20
-123.7
11
161.75
21
-123.7
0
LINE
8
BLACK
6
CONTINUOUS
10
161.75
20
-123.7
11
161.75
21
-123.9
0
LINE
8
BLACK
6
CONTINUOUS
10
169.213
20
-122.801
11
168.329
21
-123.685
0
LINE
8
BLACK
6
CONTINUOUS
10
168.329
20
-123.685
11
168.152
21
-123.508
0
LINE
8
BLACK
6
CONTINUOUS
10
168.152
20
-123.508
11
169.036
21
-122.624
0
LINE
8
BLACK
6
CONTINUOUS
10
169.036
20
-122.624
11
169.213
21
-122.801
0
LINE
8
BLACK
6
CONTINUOUS
10
168.753
20
-122.341
11
167.869
21
-123.225
0
LINE
8
BLACK
6
CONTINUOUS
10
167.869
20
-123.225
11
167.692
21
-123.048
0
LINE
8
BLACK
6
CONTINUOUS
10
167.692
20
-123.048
11
168.576
21
-122.164
0
LINE
8
BLACK
6
CONTINUOUS
10
168.576
20
-122.164
11
168.753
21
-122.341
0
LINE
8
BLACK
6
CONTINUOUS
10
160.214
20
-122.435
11
160.265
21
-122.464
0
LINE
8
BLACK
6
CONTINUOUS
10
160.265
20
-122.464
11
160.302
21
-122.509
0
LINE
8
BLACK
6
CONTINUOUS
10
160.302
20
-122.509
11
160.325
21
-122.594
0
LINE
8
BLACK
6
CONTINUOUS
10
160.325
20
-122.594
11
160.325
21
-122.931
0
LINE
8
BLACK
6
CONTINUOUS
10
160.325
20
-122.931
11
160.315
21
-122.989
0
LINE
8
BLACK
6
CONTINUOUS
10
160.315
20
-122.989
11
160.286
21
-123.04
0
LINE
8
BLACK
6
CONTINUOUS
10
160.286
20
-123.04
11
160.241
21
-123.077
0
LINE
8
BLACK
6
CONTINUOUS
10
160.241
20
-123.077
11
160.156
21
-123.1
0
LINE
8
BLACK
6
CONTINUOUS
10
160.156
20
-123.1
11
159.744
21
-123.1
0
LINE
8
BLACK
6
CONTINUOUS
10
159.744
20
-123.1
11
159.686
21
-123.09
0
LINE
8
BLACK
6
CONTINUOUS
10
159.686
20
-123.09
11
159.635
21
-123.061
0
LINE
8
BLACK
6
CONTINUOUS
10
159.635
20
-123.061
11
159.598
21
-123.016
0
LINE
8
BLACK
6
CONTINUOUS
10
159.598
20
-123.016
11
159.575
21
-122.931
0
LINE
8
BLACK
6
CONTINUOUS
10
159.575
20
-122.931
11
159.575
21
-122.594
0
LINE
8
BLACK
6
CONTINUOUS
10
159.575
20
-122.594
11
159.585
21
-122.536
0
LINE
8
BLACK
6
CONTINUOUS
10
159.585
20
-122.536
11
159.614
21
-122.485
0
LINE
8
BLACK
6
CONTINUOUS
10
159.614
20
-122.485
11
159.659
21
-122.448
0
LINE
8
BLACK
6
CONTINUOUS
10
159.659
20
-122.448
11
159.744
21
-122.425
0
LINE
8
BLACK
6
CONTINUOUS
10
159.744
20
-122.425
11
160.156
21
-122.425
0
LINE
8
BLACK
6
CONTINUOUS
10
160.156
20
-122.425
11
160.214
21
-122.435
0
LINE
8
BLACK
6
CONTINUOUS
10
165.327
20
-122.229
11
165.403
21
-122.272
0
LINE
8
BLACK
6
CONTINUOUS
10
165.403
20
-122.272
11
165.641
21
-122.511
0
LINE
8
BLACK
6
CONTINUOUS
10
165.641
20
-122.511
11
165.675
21
-122.559
0
LINE
8
BLACK
6
CONTINUOUS
10
165.675
20
-122.559
11
165.69
21
-122.616
0
LINE
8
BLACK
6
CONTINUOUS
10
165.69
20
-122.616
11
165.685
21
-122.674
0
LINE
8
BLACK
6
CONTINUOUS
10
165.685
20
-122.674
11
165.641
21
-122.75
0
LINE
8
BLACK
6
CONTINUOUS
10
165.641
20
-122.75
11
165.35
21
-123.041
0
LINE
8
BLACK
6
CONTINUOUS
10
165.35
20
-123.041
11
165.302
21
-123.075
0
LINE
8
BLACK
6
CONTINUOUS
10
165.302
20
-123.075
11
165.245
21
-123.09
0
LINE
8
BLACK
6
CONTINUOUS
10
165.245
20
-123.09
11
165.187
21
-123.085
0
LINE
8
BLACK
6
CONTINUOUS
10
165.187
20
-123.085
11
165.111
21
-123.041
0
LINE
8
BLACK
6
CONTINUOUS
10
165.111
20
-123.041
11
164.872
21
-122.803
0
LINE
8
BLACK
6
CONTINUOUS
10
164.872
20
-122.803
11
164.839
21
-122.755
0
LINE
8
BLACK
6
CONTINUOUS
10
164.839
20
-122.755
11
164.824
21
-122.698
0
LINE
8
BLACK
6
CONTINUOUS
10
164.824
20
-122.698
11
164.829
21
-122.64
0
LINE
8
BLACK
6
CONTINUOUS
10
164.829
20
-122.64
11
164.872
21
-122.564
0
LINE
8
BLACK
6
CONTINUOUS
10
164.872
20
-122.564
11
165.164
21
-122.272
0
LINE
8
BLACK
6
CONTINUOUS
10
165.164
20
-122.272
11
165.212
21
-122.239
0
LINE
8
BLACK
6
CONTINUOUS
10
165.212
20
-122.239
11
165.269
21
-122.224
0
LINE
8
BLACK
6
CONTINUOUS
10
165.269
20
-122.224
11
165.327
21
-122.229
0
LINE
8
BLACK
6
CONTINUOUS
10
162.914
20
-122.41
11
162.965
21
-122.439
0
LINE
8
BLACK
6
CONTINUOUS
10
162.965
20
-122.439
11
163.002
21
-122.484
0
LINE
8
BLACK
6
CONTINUOUS
10
163.002
20
-122.484
11
163.025
21
-122.569
0
LINE
8
BLACK
6
CONTINUOUS
10
163.025
20
-122.569
11
163.025
21
-122.906
0
LINE
8
BLACK
6
CONTINUOUS
10
163.025
20
-122.906
11
163.015
21
-122.964
0
LINE
8
BLACK
6
CONTINUOUS
10
163.015
20
-122.964
11
162.986
21
-123.015
0
LINE
8
BLACK
6
CONTINUOUS
10
162.986
20
-123.015
11
162.941
21
-123.052
0
LINE
8
BLACK
6
CONTINUOUS
10
162.941
20
-123.052
11
162.856
21
-123.075
0
LINE
8
BLACK
6
CONTINUOUS
10
162.856
20
-123.075
11
162.444
21
-123.075
0
LINE
8
BLACK
6
CONTINUOUS
10
162.444
20
-123.075
11
162.386
21
-123.065
0
LINE
8
BLACK
6
CONTINUOUS
10
162.386
20
-123.065
11
162.335
21
-123.036
0
LINE
8
BLACK
6
CONTINUOUS
10
162.335
20
-123.036
11
162.298
21
-122.991
0
LINE
8
BLACK
6
CONTINUOUS
10
162.298
20
-122.991
11
162.275
21
-122.906
0
LINE
8
BLACK
6
CONTINUOUS
10
162.275
20
-122.906
11
162.275
21
-122.569
0
LINE
8
BLACK
6
CONTINUOUS
10
162.275
20
-122.569
11
162.285
21
-122.511
0
LINE
8
BLACK
6
CONTINUOUS
10
162.285
20
-122.511
11
162.314
21
-122.46
0
LINE
8
BLACK
6
CONTINUOUS
10
162.314
20
-122.46
11
162.359
21
-122.423
0
LINE
8
BLACK
6
CONTINUOUS
10
162.359
20
-122.423
11
162.444
21
-122.4
0
LINE
8
BLACK
6
CONTINUOUS
10
162.444
20
-122.4
11
162.856
21
-122.4
0
LINE
8
BLACK
6
CONTINUOUS
10
162.856
20
-122.4
11
162.914
21
-122.41
0
LINE
8
BLACK
6
CONTINUOUS
10
161.564
20
-122.41
11
161.615
21
-122.439
0
LINE
8
BLACK
6
CONTINUOUS
10
161.615
20
-122.439
11
161.652
21
-122.484
0
LINE
8
BLACK
6
CONTINUOUS
10
161.652
20
-122.484
11
161.675
21
-122.569
0
LINE
8
BLACK
6
CONTINUOUS
10
161.675
20
-122.569
11
161.675
21
-122.906
0
LINE
8
BLACK
6
CONTINUOUS
10
161.675
20
-122.906
11
161.665
21
-122.964
0
LINE
8
BLACK
6
CONTINUOUS
10
161.665
20
-122.964
11
161.636
21
-123.015
0
LINE
8
BLACK
6
CONTINUOUS
10
161.636
20
-123.015
11
161.591
21
-123.052
0
LINE
8
BLACK
6
CONTINUOUS
10
161.591
20
-123.052
11
161.506
21
-123.075
0
LINE
8
BLACK
6
CONTINUOUS
10
161.506
20
-123.075
11
161.094
21
-123.075
0
LINE
8
BLACK
6
CONTINUOUS
10
161.094
20
-123.075
11
161.036
21
-123.065
0
LINE
8
BLACK
6
CONTINUOUS
10
161.036
20
-123.065
11
160.985
21
-123.036
0
LINE
8
BLACK
6
CONTINUOUS
10
160.985
20
-123.036
11
160.948
21
-122.991
0
LINE
8
BLACK
6
CONTINUOUS
10
160.948
20
-122.991
11
160.925
21
-122.906
0
LINE
8
BLACK
6
CONTINUOUS
10
160.925
20
-122.906
11
160.925
21
-122.569
0
LINE
8
BLACK
6
CONTINUOUS
10
160.925
20
-122.569
11
160.935
21
-122.511
0
LINE
8
BLACK
6
CONTINUOUS
10
160.935
20
-122.511
11
160.964
21
-122.46
0
LINE
8
BLACK
6
CONTINUOUS
10
160.964
20
-122.46
11
161.009
21
-122.423
0
LINE
8
BLACK
6
CONTINUOUS
10
161.009
20
-122.423
11
161.094
21
-122.4
0
LINE
8
BLACK
6
CONTINUOUS
10
161.094
20
-122.4
11
161.506
21
-122.4
0
LINE
8
BLACK
6
CONTINUOUS
10
161.506
20
-122.4
11
161.564
21
-122.41
0
LINE
8
BLACK
6
CONTINUOUS
10
187.875
20
-122.83
11
187.425
21
-122.83
0
LINE
8
BLACK
6
CONTINUOUS
10
187.425
20
-122.83
11
187.425
21
-121.97
0
LINE
8
BLACK
6
CONTINUOUS
10
187.425
20
-121.97
11
187.875
21
-121.97
0
LINE
8
BLACK
6
CONTINUOUS
10
187.875
20
-121.97
11
187.875
21
-122.83
0
LINE
8
BLACK
6
CONTINUOUS
10
185.975
20
-122.83
11
185.525
21
-122.83
0
LINE
8
BLACK
6
CONTINUOUS
10
185.525
20
-122.83
11
185.525
21
-121.97
0
LINE
8
BLACK
6
CONTINUOUS
10
185.525
20
-121.97
11
185.975
21
-121.97
0
LINE
8
BLACK
6
CONTINUOUS
10
185.975
20
-121.97
11
185.975
21
-122.83
0
LINE
8
BLACK
6
CONTINUOUS
10
168.293
20
-121.881
11
167.41
21
-122.765
0
LINE
8
BLACK
6
CONTINUOUS
10
167.41
20
-122.765
11
167.233
21
-122.589
0
LINE
8
BLACK
6
CONTINUOUS
10
167.233
20
-122.589
11
168.117
21
-121.705
0
LINE
8
BLACK
6
CONTINUOUS
10
168.117
20
-121.705
11
168.293
21
-121.881
0
LINE
8
BLACK
6
CONTINUOUS
10
184.364
20
-121.96
11
184.415
21
-121.989
0
LINE
8
BLACK
6
CONTINUOUS
10
184.415
20
-121.989
11
184.452
21
-122.034
0
LINE
8
BLACK
6
CONTINUOUS
10
184.452
20
-122.034
11
184.475
21
-122.119
0
LINE
8
BLACK
6
CONTINUOUS
10
184.475
20
-122.119
11
184.475
21
-122.456
0
LINE
8
BLACK
6
CONTINUOUS
10
184.475
20
-122.456
11
184.465
21
-122.514
0
LINE
8
BLACK
6
CONTINUOUS
10
184.465
20
-122.514
11
184.436
21
-122.565
0
LINE
8
BLACK
6
CONTINUOUS
10
184.436
20
-122.565
11
184.391
21
-122.602
0
LINE
8
BLACK
6
CONTINUOUS
10
184.391
20
-122.602
11
184.306
21
-122.625
0
LINE
8
BLACK
6
CONTINUOUS
10
184.306
20
-122.625
11
183.894
21
-122.625
0
LINE
8
BLACK
6
CONTINUOUS
10
183.894
20
-122.625
11
183.836
21
-122.615
0
LINE
8
BLACK
6
CONTINUOUS
10
183.836
20
-122.615
11
183.785
21
-122.586
0
LINE
8
BLACK
6
CONTINUOUS
10
183.785
20
-122.586
11
183.748
21
-122.541
0
LINE
8
BLACK
6
CONTINUOUS
10
183.748
20
-122.541
11
183.725
21
-122.456
0
LINE
8
BLACK
6
CONTINUOUS
10
183.725
20
-122.456
11
183.725
21
-122.119
0
LINE
8
BLACK
6
CONTINUOUS
10
183.725
20
-122.119
11
183.735
21
-122.061
0
LINE
8
BLACK
6
CONTINUOUS
10
183.735
20
-122.061
11
183.764
21
-122.01
0
LINE
8
BLACK
6
CONTINUOUS
10
183.764
20
-122.01
11
183.809
21
-121.973
0
LINE
8
BLACK
6
CONTINUOUS
10
183.809
20
-121.973
11
183.894
21
-121.95
0
LINE
8
BLACK
6
CONTINUOUS
10
183.894
20
-121.95
11
184.306
21
-121.95
0
LINE
8
BLACK
6
CONTINUOUS
10
184.306
20
-121.95
11
184.364
21
-121.96
0
LINE
8
BLACK
6
CONTINUOUS
10
167.834
20
-121.422
11
166.95
21
-122.306
0
LINE
8
BLACK
6
CONTINUOUS
10
166.95
20
-122.306
11
166.773
21
-122.129
0
LINE
8
BLACK
6
CONTINUOUS
10
166.773
20
-122.129
11
167.657
21
-121.245
0
LINE
8
BLACK
6
CONTINUOUS
10
167.657
20
-121.245
11
167.834
21
-121.422
0
LINE
8
BLACK
6
CONTINUOUS
10
164.213
20
-121.115
11
164.289
21
-121.159
0
LINE
8
BLACK
6
CONTINUOUS
10
164.289
20
-121.159
11
164.528
21
-121.397
0
LINE
8
BLACK
6
CONTINUOUS
10
164.528
20
-121.397
11
164.561
21
-121.445
0
LINE
8
BLACK
6
CONTINUOUS
10
164.561
20
-121.445
11
164.576
21
-121.502
0
LINE
8
BLACK
6
CONTINUOUS
10
164.576
20
-121.502
11
164.571
21
-121.56
0
LINE
8
BLACK
6
CONTINUOUS
10
164.571
20
-121.56
11
164.528
21
-121.636
0
LINE
8
BLACK
6
CONTINUOUS
10
164.528
20
-121.636
11
164.236
21
-121.928
0
LINE
8
BLACK
6
CONTINUOUS
10
164.236
20
-121.928
11
164.188
21
-121.961
0
LINE
8
BLACK
6
CONTINUOUS
10
164.188
20
-121.961
11
164.131
21
-121.976
0
LINE
8
BLACK
6
CONTINUOUS
10
164.131
20
-121.976
11
164.073
21
-121.971
0
LINE
8
BLACK
6
CONTINUOUS
10
164.073
20
-121.971
11
163.997
21
-121.928
0
LINE
8
BLACK
6
CONTINUOUS
10
163.997
20
-121.928
11
163.759
21
-121.689
0
LINE
8
BLACK
6
CONTINUOUS
10
163.759
20
-121.689
11
163.725
21
-121.641
0
LINE
8
BLACK
6
CONTINUOUS
10
163.725
20
-121.641
11
163.71
21
-121.584
0
LINE
8
BLACK
6
CONTINUOUS
10
163.71
20
-121.584
11
163.715
21
-121.526
0
LINE
8
BLACK
6
CONTINUOUS
10
163.715
20
-121.526
11
163.759
21
-121.45
0
LINE
8
BLACK
6
CONTINUOUS
10
163.759
20
-121.45
11
164.05
21
-121.159
0
LINE
8
BLACK
6
CONTINUOUS
10
164.05
20
-121.159
11
164.098
21
-121.125
0
LINE
8
BLACK
6
CONTINUOUS
10
164.098
20
-121.125
11
164.155
21
-121.11
0
LINE
8
BLACK
6
CONTINUOUS
10
164.155
20
-121.11
11
164.213
21
-121.115
0
LINE
8
BLACK
6
CONTINUOUS
10
167.374
20
-120.962
11
166.49
21
-121.846
0
LINE
8
BLACK
6
CONTINUOUS
10
166.49
20
-121.846
11
166.314
21
-121.669
0
LINE
8
BLACK
6
CONTINUOUS
10
166.314
20
-121.669
11
167.197
21
-120.785
0
LINE
8
BLACK
6
CONTINUOUS
10
167.197
20
-120.785
11
167.374
21
-120.962
0
LINE
8
BLACK
6
CONTINUOUS
10
161.564
20
-120.835
11
161.615
21
-120.864
0
LINE
8
BLACK
6
CONTINUOUS
10
161.615
20
-120.864
11
161.652
21
-120.909
0
LINE
8
BLACK
6
CONTINUOUS
10
161.652
20
-120.909
11
161.675
21
-120.994
0
LINE
8
BLACK
6
CONTINUOUS
10
161.675
20
-120.994
11
161.675
21
-121.331
0
LINE
8
BLACK
6
CONTINUOUS
10
161.675
20
-121.331
11
161.665
21
-121.389
0
LINE
8
BLACK
6
CONTINUOUS
10
161.665
20
-121.389
11
161.636
21
-121.44
0
LINE
8
BLACK
6
CONTINUOUS
10
161.636
20
-121.44
11
161.591
21
-121.477
0
LINE
8
BLACK
6
CONTINUOUS
10
161.591
20
-121.477
11
161.506
21
-121.5
0
LINE
8
BLACK
6
CONTINUOUS
10
161.506
20
-121.5
11
161.094
21
-121.5
0
LINE
8
BLACK
6
CONTINUOUS
10
161.094
20
-121.5
11
161.036
21
-121.49
0
LINE
8
BLACK
6
CONTINUOUS
10
161.036
20
-121.49
11
160.985
21
-121.461
0
LINE
8
BLACK
6
CONTINUOUS
10
160.985
20
-121.461
11
160.948
21
-121.416
0
LINE
8
BLACK
6
CONTINUOUS
10
160.948
20
-121.416
11
160.925
21
-121.331
0
LINE
8
BLACK
6
CONTINUOUS
10
160.925
20
-121.331
11
160.925
21
-120.994
0
LINE
8
BLACK
6
CONTINUOUS
10
160.925
20
-120.994
11
160.935
21
-120.936
0
LINE
8
BLACK
6
CONTINUOUS
10
160.935
20
-120.936
11
160.964
21
-120.885
0
LINE
8
BLACK
6
CONTINUOUS
10
160.964
20
-120.885
11
161.009
21
-120.848
0
LINE
8
BLACK
6
CONTINUOUS
10
161.009
20
-120.848
11
161.094
21
-120.825
0
LINE
8
BLACK
6
CONTINUOUS
10
161.094
20
-120.825
11
161.506
21
-120.825
0
LINE
8
BLACK
6
CONTINUOUS
10
161.506
20
-120.825
11
161.564
21
-120.835
0
LINE
8
BLACK
6
CONTINUOUS
10
162.914
20
-120.835
11
162.965
21
-120.864
0
LINE
8
BLACK
6
CONTINUOUS
10
162.965
20
-120.864
11
163.002
21
-120.909
0
LINE
8
BLACK
6
CONTINUOUS
10
163.002
20
-120.909
11
163.025
21
-120.994
0
LINE
8
BLACK
6
CONTINUOUS
10
163.025
20
-120.994
11
163.025
21
-121.331
0
LINE
8
BLACK
6
CONTINUOUS
10
163.025
20
-121.331
11
163.015
21
-121.389
0
LINE
8
BLACK
6
CONTINUOUS
10
163.015
20
-121.389
11
162.986
21
-121.44
0
LINE
8
BLACK
6
CONTINUOUS
10
162.986
20
-121.44
11
162.941
21
-121.477
0
LINE
8
BLACK
6
CONTINUOUS
10
162.941
20
-121.477
11
162.856
21
-121.5
0
LINE
8
BLACK
6
CONTINUOUS
10
162.856
20
-121.5
11
162.444
21
-121.5
0
LINE
8
BLACK
6
CONTINUOUS
10
162.444
20
-121.5
11
162.386
21
-121.49
0
LINE
8
BLACK
6
CONTINUOUS
10
162.386
20
-121.49
11
162.335
21
-121.461
0
LINE
8
BLACK
6
CONTINUOUS
10
162.335
20
-121.461
11
162.298
21
-121.416
0
LINE
8
BLACK
6
CONTINUOUS
10
162.298
20
-121.416
11
162.275
21
-121.331
0
LINE
8
BLACK
6
CONTINUOUS
10
162.275
20
-121.331
11
162.275
21
-120.994
0
LINE
8
BLACK
6
CONTINUOUS
10
162.275
20
-120.994
11
162.285
21
-120.936
0
LINE
8
BLACK
6
CONTINUOUS
10
162.285
20
-120.936
11
162.314
21
-120.885
0
LINE
8
BLACK
6
CONTINUOUS
10
162.314
20
-120.885
11
162.359
21
-120.848
0
LINE
8
BLACK
6
CONTINUOUS
10
162.359
20
-120.848
11
162.444
21
-120.825
0
LINE
8
BLACK
6
CONTINUOUS
10
162.444
20
-120.825
11
162.856
21
-120.825
0
LINE
8
BLACK
6
CONTINUOUS
10
162.856
20
-120.825
11
162.914
21
-120.835
0
LINE
8
BLACK
6
CONTINUOUS
10
166.915
20
-120.503
11
166.031
21
-121.386
0
LINE
8
BLACK
6
CONTINUOUS
10
166.031
20
-121.386
11
165.854
21
-121.21
0
LINE
8
BLACK
6
CONTINUOUS
10
165.854
20
-121.21
11
166.738
21
-120.326
0
LINE
8
BLACK
6
CONTINUOUS
10
166.738
20
-120.326
11
166.915
21
-120.503
0
LINE
8
BLACK
6
CONTINUOUS
10
188.014
20
-120.435
11
188.065
21
-120.464
0
LINE
8
BLACK
6
CONTINUOUS
10
188.065
20
-120.464
11
188.102
21
-120.509
0
LINE
8
BLACK
6
CONTINUOUS
10
188.102
20
-120.509
11
188.125
21
-120.594
0
LINE
8
BLACK
6
CONTINUOUS
10
188.125
20
-120.594
11
188.125
21
-121.006
0
LINE
8
BLACK
6
CONTINUOUS
10
188.125
20
-121.006
11
188.115
21
-121.064
0
LINE
8
BLACK
6
CONTINUOUS
10
188.115
20
-121.064
11
188.086
21
-121.115
0
LINE
8
BLACK
6
CONTINUOUS
10
188.086
20
-121.115
11
188.041
21
-121.152
0
LINE
8
BLACK
6
CONTINUOUS
10
188.041
20
-121.152
11
187.956
21
-121.175
0
LINE
8
BLACK
6
CONTINUOUS
10
187.956
20
-121.175
11
187.619
21
-121.175
0
LINE
8
BLACK
6
CONTINUOUS
10
187.619
20
-121.175
11
187.561
21
-121.165
0
LINE
8
BLACK
6
CONTINUOUS
10
187.561
20
-121.165
11
187.51
21
-121.136
0
LINE
8
BLACK
6
CONTINUOUS
10
187.51
20
-121.136
11
187.473
21
-121.091
0
LINE
8
BLACK
6
CONTINUOUS
10
187.473
20
-121.091
11
187.45
21
-121.006
0
LINE
8
BLACK
6
CONTINUOUS
10
187.45
20
-121.006
11
187.45
21
-120.594
0
LINE
8
BLACK
6
CONTINUOUS
10
187.45
20
-120.594
11
187.46
21
-120.536
0
LINE
8
BLACK
6
CONTINUOUS
10
187.46
20
-120.536
11
187.489
21
-120.485
0
LINE
8
BLACK
6
CONTINUOUS
10
187.489
20
-120.485
11
187.534
21
-120.448
0
LINE
8
BLACK
6
CONTINUOUS
10
187.534
20
-120.448
11
187.619
21
-120.425
0
LINE
8
BLACK
6
CONTINUOUS
10
187.619
20
-120.425
11
187.956
21
-120.425
0
LINE
8
BLACK
6
CONTINUOUS
10
187.956
20
-120.425
11
188.014
21
-120.435
0
LINE
8
BLACK
6
CONTINUOUS
10
186.439
20
-120.435
11
186.49
21
-120.464
0
LINE
8
BLACK
6
CONTINUOUS
10
186.49
20
-120.464
11
186.527
21
-120.509
0
LINE
8
BLACK
6
CONTINUOUS
10
186.527
20
-120.509
11
186.55
21
-120.594
0
LINE
8
BLACK
6
CONTINUOUS
10
186.55
20
-120.594
11
186.55
21
-121.006
0
LINE
8
BLACK
6
CONTINUOUS
10
186.55
20
-121.006
11
186.54
21
-121.064
0
LINE
8
BLACK
6
CONTINUOUS
10
186.54
20
-121.064
11
186.511
21
-121.115
0
LINE
8
BLACK
6
CONTINUOUS
10
186.511
20
-121.115
11
186.466
21
-121.152
0
LINE
8
BLACK
6
CONTINUOUS
10
186.466
20
-121.152
11
186.381
21
-121.175
0
LINE
8
BLACK
6
CONTINUOUS
10
186.381
20
-121.175
11
186.044
21
-121.175
0
LINE
8
BLACK
6
CONTINUOUS
10
186.044
20
-121.175
11
185.986
21
-121.165
0
LINE
8
BLACK
6
CONTINUOUS
10
185.986
20
-121.165
11
185.935
21
-121.136
0
LINE
8
BLACK
6
CONTINUOUS
10
185.935
20
-121.136
11
185.898
21
-121.091
0
LINE
8
BLACK
6
CONTINUOUS
10
185.898
20
-121.091
11
185.875
21
-121.006
0
LINE
8
BLACK
6
CONTINUOUS
10
185.875
20
-121.006
11
185.875
21
-120.594
0
LINE
8
BLACK
6
CONTINUOUS
10
185.875
20
-120.594
11
185.885
21
-120.536
0
LINE
8
BLACK
6
CONTINUOUS
10
185.885
20
-120.536
11
185.914
21
-120.485
0
LINE
8
BLACK
6
CONTINUOUS
10
185.914
20
-120.485
11
185.959
21
-120.448
0
LINE
8
BLACK
6
CONTINUOUS
10
185.959
20
-120.448
11
186.044
21
-120.425
0
LINE
8
BLACK
6
CONTINUOUS
10
186.044
20
-120.425
11
186.381
21
-120.425
0
LINE
8
BLACK
6
CONTINUOUS
10
186.381
20
-120.425
11
186.439
21
-120.435
0
LINE
8
BLACK
6
CONTINUOUS
10
189.439
20
-120.435
11
189.49
21
-120.464
0
LINE
8
BLACK
6
CONTINUOUS
10
189.49
20
-120.464
11
189.527
21
-120.509
0
LINE
8
BLACK
6
CONTINUOUS
10
189.527
20
-120.509
11
189.55
21
-120.594
0
LINE
8
BLACK
6
CONTINUOUS
10
189.55
20
-120.594
11
189.55
21
-121.006
0
LINE
8
BLACK
6
CONTINUOUS
10
189.55
20
-121.006
11
189.54
21
-121.064
0
LINE
8
BLACK
6
CONTINUOUS
10
189.54
20
-121.064
11
189.511
21
-121.115
0
LINE
8
BLACK
6
CONTINUOUS
10
189.511
20
-121.115
11
189.466
21
-121.152
0
LINE
8
BLACK
6
CONTINUOUS
10
189.466
20
-121.152
11
189.381
21
-121.175
0
LINE
8
BLACK
6
CONTINUOUS
10
189.381
20
-121.175
11
189.044
21
-121.175
0
LINE
8
BLACK
6
CONTINUOUS
10
189.044
20
-121.175
11
188.986
21
-121.165
0
LINE
8
BLACK
6
CONTINUOUS
10
188.986
20
-121.165
11
188.935
21
-121.136
0
LINE
8
BLACK
6
CONTINUOUS
10
188.935
20
-121.136
11
188.898
21
-121.091
0
LINE
8
BLACK
6
CONTINUOUS
10
188.898
20
-121.091
11
188.875
21
-121.006
0
LINE
8
BLACK
6
CONTINUOUS
10
188.875
20
-121.006
11
188.875
21
-120.594
0
LINE
8
BLACK
6
CONTINUOUS
10
188.875
20
-120.594
11
188.885
21
-120.536
0
LINE
8
BLACK
6
CONTINUOUS
10
188.885
20
-120.536
11
188.914
21
-120.485
0
LINE
8
BLACK
6
CONTINUOUS
10
188.914
20
-120.485
11
188.959
21
-120.448
0
LINE
8
BLACK
6
CONTINUOUS
10
188.959
20
-120.448
11
189.044
21
-120.425
0
LINE
8
BLACK
6
CONTINUOUS
10
189.044
20
-120.425
11
189.381
21
-120.425
0
LINE
8
BLACK
6
CONTINUOUS
10
189.381
20
-120.425
11
189.439
21
-120.435
0
LINE
8
BLACK
6
CONTINUOUS
10
191.014
20
-120.435
11
191.065
21
-120.464
0
LINE
8
BLACK
6
CONTINUOUS
10
191.065
20
-120.464
11
191.102
21
-120.509
0
LINE
8
BLACK
6
CONTINUOUS
10
191.102
20
-120.509
11
191.125
21
-120.594
0
LINE
8
BLACK
6
CONTINUOUS
10
191.125
20
-120.594
11
191.125
21
-121.006
0
LINE
8
BLACK
6
CONTINUOUS
10
191.125
20
-121.006
11
191.115
21
-121.064
0
LINE
8
BLACK
6
CONTINUOUS
10
191.115
20
-121.064
11
191.086
21
-121.115
0
LINE
8
BLACK
6
CONTINUOUS
10
191.086
20
-121.115
11
191.041
21
-121.152
0
LINE
8
BLACK
6
CONTINUOUS
10
191.041
20
-121.152
11
190.956
21
-121.175
0
LINE
8
BLACK
6
CONTINUOUS
10
190.956
20
-121.175
11
190.619
21
-121.175
0
LINE
8
BLACK
6
CONTINUOUS
10
190.619
20
-121.175
11
190.561
21
-121.165
0
LINE
8
BLACK
6
CONTINUOUS
10
190.561
20
-121.165
11
190.51
21
-121.136
0
LINE
8
BLACK
6
CONTINUOUS
10
190.51
20
-121.136
11
190.473
21
-121.091
0
LINE
8
BLACK
6
CONTINUOUS
10
190.473
20
-121.091
11
190.45
21
-121.006
0
LINE
8
BLACK
6
CONTINUOUS
10
190.45
20
-121.006
11
190.45
21
-120.594
0
LINE
8
BLACK
6
CONTINUOUS
10
190.45
20
-120.594
11
190.46
21
-120.536
0
LINE
8
BLACK
6
CONTINUOUS
10
190.46
20
-120.536
11
190.489
21
-120.485
0
LINE
8
BLACK
6
CONTINUOUS
10
190.489
20
-120.485
11
190.534
21
-120.448
0
LINE
8
BLACK
6
CONTINUOUS
10
190.534
20
-120.448
11
190.619
21
-120.425
0
LINE
8
BLACK
6
CONTINUOUS
10
190.619
20
-120.425
11
190.956
21
-120.425
0
LINE
8
BLACK
6
CONTINUOUS
10
190.956
20
-120.425
11
191.014
21
-120.435
0
LINE
8
BLACK
6
CONTINUOUS
10
184.364
20
-120.385
11
184.415
21
-120.414
0
LINE
8
BLACK
6
CONTINUOUS
10
184.415
20
-120.414
11
184.452
21
-120.459
0
LINE
8
BLACK
6
CONTINUOUS
10
184.452
20
-120.459
11
184.475
21
-120.544
0
LINE
8
BLACK
6
CONTINUOUS
10
184.475
20
-120.544
11
184.475
21
-120.881
0
LINE
8
BLACK
6
CONTINUOUS
10
184.475
20
-120.881
11
184.465
21
-120.939
0
LINE
8
BLACK
6
CONTINUOUS
10
184.465
20
-120.939
11
184.436
21
-120.99
0
LINE
8
BLACK
6
CONTINUOUS
10
184.436
20
-120.99
11
184.391
21
-121.027
0
LINE
8
BLACK
6
CONTINUOUS
10
184.391
20
-121.027
11
184.306
21
-121.05
0
LINE
8
BLACK
6
CONTINUOUS
10
184.306
20
-121.05
11
183.894
21
-121.05
0
LINE
8
BLACK
6
CONTINUOUS
10
183.894
20
-121.05
11
183.836
21
-121.04
0
LINE
8
BLACK
6
CONTINUOUS
10
183.836
20
-121.04
11
183.785
21
-121.011
0
LINE
8
BLACK
6
CONTINUOUS
10
183.785
20
-121.011
11
183.748
21
-120.966
0
LINE
8
BLACK
6
CONTINUOUS
10
183.748
20
-120.966
11
183.725
21
-120.881
0
LINE
8
BLACK
6
CONTINUOUS
10
183.725
20
-120.881
11
183.725
21
-120.544
0
LINE
8
BLACK
6
CONTINUOUS
10
183.725
20
-120.544
11
183.735
21
-120.486
0
LINE
8
BLACK
6
CONTINUOUS
10
183.735
20
-120.486
11
183.764
21
-120.435
0
LINE
8
BLACK
6
CONTINUOUS
10
183.764
20
-120.435
11
183.809
21
-120.398
0
LINE
8
BLACK
6
CONTINUOUS
10
183.809
20
-120.398
11
183.894
21
-120.375
0
LINE
8
BLACK
6
CONTINUOUS
10
183.894
20
-120.375
11
184.306
21
-120.375
0
LINE
8
BLACK
6
CONTINUOUS
10
184.306
20
-120.375
11
184.364
21
-120.385
0
LINE
8
BLACK
6
CONTINUOUS
10
166.455
20
-120.043
11
165.571
21
-120.927
0
LINE
8
BLACK
6
CONTINUOUS
10
165.571
20
-120.927
11
165.394
21
-120.75
0
LINE
8
BLACK
6
CONTINUOUS
10
165.394
20
-120.75
11
166.278
21
-119.866
0
LINE
8
BLACK
6
CONTINUOUS
10
166.278
20
-119.866
11
166.455
21
-120.043
0
LINE
8
BLACK
6
CONTINUOUS
10
165.995
20
-119.583
11
165.111
21
-120.467
0
LINE
8
BLACK
6
CONTINUOUS
10
165.111
20
-120.467
11
164.935
21
-120.29
0
LINE
8
BLACK
6
CONTINUOUS
10
164.935
20
-120.29
11
165.819
21
-119.407
0
LINE
8
BLACK
6
CONTINUOUS
10
165.819
20
-119.407
11
165.995
21
-119.583
0
LINE
8
BLACK
6
CONTINUOUS
10
165.536
20
-119.124
11
164.652
21
-120.008
0
LINE
8
BLACK
6
CONTINUOUS
10
164.652
20
-120.008
11
164.475
21
-119.831
0
LINE
8
BLACK
6
CONTINUOUS
10
164.475
20
-119.831
11
165.359
21
-118.947
0
LINE
8
BLACK
6
CONTINUOUS
10
165.359
20
-118.947
11
165.536
21
-119.124
0
LINE
8
BLACK
6
CONTINUOUS
10
182.15
20
-119.7
11
181.65
21
-119.7
0
LINE
8
BLACK
6
CONTINUOUS
10
181.65
20
-119.7
11
181.65
21
-119.3
0
LINE
8
BLACK
6
CONTINUOUS
10
181.65
20
-119.3
11
182.15
21
-119.3
0
LINE
8
BLACK
6
CONTINUOUS
10
182.15
20
-119.3
11
182.15
21
-119.7
0
LINE
8
BLACK
6
CONTINUOUS
10
191.014
20
-118.935
11
191.065
21
-118.964
0
LINE
8
BLACK
6
CONTINUOUS
10
191.065
20
-118.964
11
191.102
21
-119.009
0
LINE
8
BLACK
6
CONTINUOUS
10
191.102
20
-119.009
11
191.125
21
-119.094
0
LINE
8
BLACK
6
CONTINUOUS
10
191.125
20
-119.094
11
191.125
21
-119.506
0
LINE
8
BLACK
6
CONTINUOUS
10
191.125
20
-119.506
11
191.115
21
-119.564
0
LINE
8
BLACK
6
CONTINUOUS
10
191.115
20
-119.564
11
191.086
21
-119.615
0
LINE
8
BLACK
6
CONTINUOUS
10
191.086
20
-119.615
11
191.041
21
-119.652
0
LINE
8
BLACK
6
CONTINUOUS
10
191.041
20
-119.652
11
190.956
21
-119.675
0
LINE
8
BLACK
6
CONTINUOUS
10
190.956
20
-119.675
11
190.619
21
-119.675
0
LINE
8
BLACK
6
CONTINUOUS
10
190.619
20
-119.675
11
190.561
21
-119.665
0
LINE
8
BLACK
6
CONTINUOUS
10
190.561
20
-119.665
11
190.51
21
-119.636
0
LINE
8
BLACK
6
CONTINUOUS
10
190.51
20
-119.636
11
190.473
21
-119.591
0
LINE
8
BLACK
6
CONTINUOUS
10
190.473
20
-119.591
11
190.45
21
-119.506
0
LINE
8
BLACK
6
CONTINUOUS
10
190.45
20
-119.506
11
190.45
21
-119.094
0
LINE
8
BLACK
6
CONTINUOUS
10
190.45
20
-119.094
11
190.46
21
-119.036
0
LINE
8
BLACK
6
CONTINUOUS
10
190.46
20
-119.036
11
190.489
21
-118.985
0
LINE
8
BLACK
6
CONTINUOUS
10
190.489
20
-118.985
11
190.534
21
-118.948
0
LINE
8
BLACK
6
CONTINUOUS
10
190.534
20
-118.948
11
190.619
21
-118.925
0
LINE
8
BLACK
6
CONTINUOUS
10
190.619
20
-118.925
11
190.956
21
-118.925
0
LINE
8
BLACK
6
CONTINUOUS
10
190.956
20
-118.925
11
191.014
21
-118.935
0
LINE
8
BLACK
6
CONTINUOUS
10
189.439
20
-118.935
11
189.49
21
-118.964
0
LINE
8
BLACK
6
CONTINUOUS
10
189.49
20
-118.964
11
189.527
21
-119.009
0
LINE
8
BLACK
6
CONTINUOUS
10
189.527
20
-119.009
11
189.55
21
-119.094
0
LINE
8
BLACK
6
CONTINUOUS
10
189.55
20
-119.094
11
189.55
21
-119.506
0
LINE
8
BLACK
6
CONTINUOUS
10
189.55
20
-119.506
11
189.54
21
-119.564
0
LINE
8
BLACK
6
CONTINUOUS
10
189.54
20
-119.564
11
189.511
21
-119.615
0
LINE
8
BLACK
6
CONTINUOUS
10
189.511
20
-119.615
11
189.466
21
-119.652
0
LINE
8
BLACK
6
CONTINUOUS
10
189.466
20
-119.652
11
189.381
21
-119.675
0
LINE
8
BLACK
6
CONTINUOUS
10
189.381
20
-119.675
11
189.044
21
-119.675
0
LINE
8
BLACK
6
CONTINUOUS
10
189.044
20
-119.675
11
188.986
21
-119.665
0
LINE
8
BLACK
6
CONTINUOUS
10
188.986
20
-119.665
11
188.935
21
-119.636
0
LINE
8
BLACK
6
CONTINUOUS
10
188.935
20
-119.636
11
188.898
21
-119.591
0
LINE
8
BLACK
6
CONTINUOUS
10
188.898
20
-119.591
11
188.875
21
-119.506
0
LINE
8
BLACK
6
CONTINUOUS
10
188.875
20
-119.506
11
188.875
21
-119.094
0
LINE
8
BLACK
6
CONTINUOUS
10
188.875
20
-119.094
11
188.885
21
-119.036
0
LINE
8
BLACK
6
CONTINUOUS
10
188.885
20
-119.036
11
188.914
21
-118.985
0
LINE
8
BLACK
6
CONTINUOUS
10
188.914
20
-118.985
11
188.959
21
-118.948
0
LINE
8
BLACK
6
CONTINUOUS
10
188.959
20
-118.948
11
189.044
21
-118.925
0
LINE
8
BLACK
6
CONTINUOUS
10
189.044
20
-118.925
11
189.381
21
-118.925
0
LINE
8
BLACK
6
CONTINUOUS
10
189.381
20
-118.925
11
189.439
21
-118.935
0
LINE
8
BLACK
6
CONTINUOUS
10
188.014
20
-118.935
11
188.065
21
-118.964
0
LINE
8
BLACK
6
CONTINUOUS
10
188.065
20
-118.964
11
188.102
21
-119.009
0
LINE
8
BLACK
6
CONTINUOUS
10
188.102
20
-119.009
11
188.125
21
-119.094
0
LINE
8
BLACK
6
CONTINUOUS
10
188.125
20
-119.094
11
188.125
21
-119.506
0
LINE
8
BLACK
6
CONTINUOUS
10
188.125
20
-119.506
11
188.115
21
-119.564
0
LINE
8
BLACK
6
CONTINUOUS
10
188.115
20
-119.564
11
188.086
21
-119.615
0
LINE
8
BLACK
6
CONTINUOUS
10
188.086
20
-119.615
11
188.041
21
-119.652
0
LINE
8
BLACK
6
CONTINUOUS
10
188.041
20
-119.652
11
187.956
21
-119.675
0
LINE
8
BLACK
6
CONTINUOUS
10
187.956
20
-119.675
11
187.619
21
-119.675
0
LINE
8
BLACK
6
CONTINUOUS
10
187.619
20
-119.675
11
187.561
21
-119.665
0
LINE
8
BLACK
6
CONTINUOUS
10
187.561
20
-119.665
11
187.51
21
-119.636
0
LINE
8
BLACK
6
CONTINUOUS
10
187.51
20
-119.636
11
187.473
21
-119.591
0
LINE
8
BLACK
6
CONTINUOUS
10
187.473
20
-119.591
11
187.45
21
-119.506
0
LINE
8
BLACK
6
CONTINUOUS
10
187.45
20
-119.506
11
187.45
21
-119.094
0
LINE
8
BLACK
6
CONTINUOUS
10
187.45
20
-119.094
11
187.46
21
-119.036
0
LINE
8
BLACK
6
CONTINUOUS
10
187.46
20
-119.036
11
187.489
21
-118.985
0
LINE
8
BLACK
6
CONTINUOUS
10
187.489
20
-118.985
11
187.534
21
-118.948
0
LINE
8
BLACK
6
CONTINUOUS
10
187.534
20
-118.948
11
187.619
21
-118.925
0
LINE
8
BLACK
6
CONTINUOUS
10
187.619
20
-118.925
11
187.956
21
-118.925
0
LINE
8
BLACK
6
CONTINUOUS
10
187.956
20
-118.925
11
188.014
21
-118.935
0
LINE
8
BLACK
6
CONTINUOUS
10
186.439
20
-118.935
11
186.49
21
-118.964
0
LINE
8
BLACK
6
CONTINUOUS
10
186.49
20
-118.964
11
186.527
21
-119.009
0
LINE
8
BLACK
6
CONTINUOUS
10
186.527
20
-119.009
11
186.55
21
-119.094
0
LINE
8
BLACK
6
CONTINUOUS
10
186.55
20
-119.094
11
186.55
21
-119.506
0
LINE
8
BLACK
6
CONTINUOUS
10
186.55
20
-119.506
11
186.54
21
-119.564
0
LINE
8
BLACK
6
CONTINUOUS
10
186.54
20
-119.564
11
186.511
21
-119.615
0
LINE
8
BLACK
6
CONTINUOUS
10
186.511
20
-119.615
11
186.466
21
-119.652
0
LINE
8
BLACK
6
CONTINUOUS
10
186.466
20
-119.652
11
186.381
21
-119.675
0
LINE
8
BLACK
6
CONTINUOUS
10
186.381
20
-119.675
11
186.044
21
-119.675
0
LINE
8
BLACK
6
CONTINUOUS
10
186.044
20
-119.675
11
185.986
21
-119.665
0
LINE
8
BLACK
6
CONTINUOUS
10
185.986
20
-119.665
11
185.935
21
-119.636
0
LINE
8
BLACK
6
CONTINUOUS
10
185.935
20
-119.636
11
185.898
21
-119.591
0
LINE
8
BLACK
6
CONTINUOUS
10
185.898
20
-119.591
11
185.875
21
-119.506
0
LINE
8
BLACK
6
CONTINUOUS
10
185.875
20
-119.506
11
185.875
21
-119.094
0
LINE
8
BLACK
6
CONTINUOUS
10
185.875
20
-119.094
11
185.885
21
-119.036
0
LINE
8
BLACK
6
CONTINUOUS
10
185.885
20
-119.036
11
185.914
21
-118.985
0
LINE
8
BLACK
6
CONTINUOUS
10
185.914
20
-118.985
11
185.959
21
-118.948
0
LINE
8
BLACK
6
CONTINUOUS
10
185.959
20
-118.948
11
186.044
21
-118.925
0
LINE
8
BLACK
6
CONTINUOUS
10
186.044
20
-118.925
11
186.381
21
-118.925
0
LINE
8
BLACK
6
CONTINUOUS
10
186.381
20
-118.925
11
186.439
21
-118.935
0
LINE
8
BLACK
6
CONTINUOUS
10
185.054
20
-119.01
11
185.105
21
-119.039
0
LINE
8
BLACK
6
CONTINUOUS
10
185.105
20
-119.039
11
185.142
21
-119.084
0
LINE
8
BLACK
6
CONTINUOUS
10
185.142
20
-119.084
11
185.165
21
-119.169
0
LINE
8
BLACK
6
CONTINUOUS
10
185.165
20
-119.169
11
185.165
21
-119.506
0
LINE
8
BLACK
6
CONTINUOUS
10
185.165
20
-119.506
11
185.155
21
-119.564
0
LINE
8
BLACK
6
CONTINUOUS
10
185.155
20
-119.564
11
185.126
21
-119.615
0
LINE
8
BLACK
6
CONTINUOUS
10
185.126
20
-119.615
11
185.081
21
-119.652
0
LINE
8
BLACK
6
CONTINUOUS
10
185.081
20
-119.652
11
184.996
21
-119.675
0
LINE
8
BLACK
6
CONTINUOUS
10
184.996
20
-119.675
11
184.584
21
-119.675
0
LINE
8
BLACK
6
CONTINUOUS
10
184.584
20
-119.675
11
184.526
21
-119.665
0
LINE
8
BLACK
6
CONTINUOUS
10
184.526
20
-119.665
11
184.475
21
-119.636
0
LINE
8
BLACK
6
CONTINUOUS
10
184.475
20
-119.636
11
184.438
21
-119.591
0
LINE
8
BLACK
6
CONTINUOUS
10
184.438
20
-119.591
11
184.415
21
-119.506
0
LINE
8
BLACK
6
CONTINUOUS
10
184.415
20
-119.506
11
184.415
21
-119.169
0
LINE
8
BLACK
6
CONTINUOUS
10
184.415
20
-119.169
11
184.425
21
-119.111
0
LINE
8
BLACK
6
CONTINUOUS
10
184.425
20
-119.111
11
184.454
21
-119.06
0
LINE
8
BLACK
6
CONTINUOUS
10
184.454
20
-119.06
11
184.499
21
-119.023
0
LINE
8
BLACK
6
CONTINUOUS
10
184.499
20
-119.023
11
184.584
21
-119
0
LINE
8
BLACK
6
CONTINUOUS
10
184.584
20
-119
11
184.996
21
-119
0
LINE
8
BLACK
6
CONTINUOUS
10
184.996
20
-119
11
185.054
21
-119.01
0
LINE
8
BLACK
6
CONTINUOUS
10
183.594
20
-119.01
11
183.645
21
-119.039
0
LINE
8
BLACK
6
CONTINUOUS
10
183.645
20
-119.039
11
183.682
21
-119.084
0
LINE
8
BLACK
6
CONTINUOUS
10
183.682
20
-119.084
11
183.705
21
-119.169
0
LINE
8
BLACK
6
CONTINUOUS
10
183.705
20
-119.169
11
183.705
21
-119.506
0
LINE
8
BLACK
6
CONTINUOUS
10
183.705
20
-119.506
11
183.695
21
-119.564
0
LINE
8
BLACK
6
CONTINUOUS
10
183.695
20
-119.564
11
183.666
21
-119.615
0
LINE
8
BLACK
6
CONTINUOUS
10
183.666
20
-119.615
11
183.621
21
-119.652
0
LINE
8
BLACK
6
CONTINUOUS
10
183.621
20
-119.652
11
183.536
21
-119.675
0
LINE
8
BLACK
6
CONTINUOUS
10
183.536
20
-119.675
11
183.124
21
-119.675
0
LINE
8
BLACK
6
CONTINUOUS
10
183.124
20
-119.675
11
183.066
21
-119.665
0
LINE
8
BLACK
6
CONTINUOUS
10
183.066
20
-119.665
11
183.015
21
-119.636
0
LINE
8
BLACK
6
CONTINUOUS
10
183.015
20
-119.636
11
182.978
21
-119.591
0
LINE
8
BLACK
6
CONTINUOUS
10
182.978
20
-119.591
11
182.955
21
-119.506
0
LINE
8
BLACK
6
CONTINUOUS
10
182.955
20
-119.506
11
182.955
21
-119.169
0
LINE
8
BLACK
6
CONTINUOUS
10
182.955
20
-119.169
11
182.965
21
-119.111
0
LINE
8
BLACK
6
CONTINUOUS
10
182.965
20
-119.111
11
182.994
21
-119.06
0
LINE
8
BLACK
6
CONTINUOUS
10
182.994
20
-119.06
11
183.039
21
-119.023
0
LINE
8
BLACK
6
CONTINUOUS
10
183.039
20
-119.023
11
183.124
21
-119
0
LINE
8
BLACK
6
CONTINUOUS
10
183.124
20
-119
11
183.536
21
-119
0
LINE
8
BLACK
6
CONTINUOUS
10
183.536
20
-119
11
183.594
21
-119.01
0
LINE
8
BLACK
6
CONTINUOUS
10
165.076
20
-118.664
11
164.192
21
-119.548
0
LINE
8
BLACK
6
CONTINUOUS
10
164.192
20
-119.548
11
164.015
21
-119.371
0
LINE
8
BLACK
6
CONTINUOUS
10
164.015
20
-119.371
11
164.899
21
-118.487
0
LINE
8
BLACK
6
CONTINUOUS
10
164.899
20
-118.487
11
165.076
21
-118.664
0
LINE
8
BLACK
6
CONTINUOUS
10
173.385
20
-118.629
11
172.501
21
-119.513
0
LINE
8
BLACK
6
CONTINUOUS
10
172.501
20
-119.513
11
172.324
21
-119.336
0
LINE
8
BLACK
6
CONTINUOUS
10
172.324
20
-119.336
11
173.208
21
-118.452
0
LINE
8
BLACK
6
CONTINUOUS
10
173.208
20
-118.452
11
173.385
21
-118.629
0
LINE
8
BLACK
6
CONTINUOUS
10
172.925
20
-118.169
11
172.041
21
-119.053
0
LINE
8
BLACK
6
CONTINUOUS
10
172.041
20
-119.053
11
171.864
21
-118.876
0
LINE
8
BLACK
6
CONTINUOUS
10
171.864
20
-118.876
11
172.748
21
-117.992
0
LINE
8
BLACK
6
CONTINUOUS
10
172.748
20
-117.992
11
172.925
21
-118.169
0
LINE
8
BLACK
6
CONTINUOUS
10
158.84
20
-118.78
11
157.44
21
-118.78
0
LINE
8
BLACK
6
CONTINUOUS
10
157.44
20
-118.78
11
157.44
21
-117.38
0
LINE
8
BLACK
6
CONTINUOUS
10
157.44
20
-117.38
11
158.84
21
-117.38
0
LINE
8
BLACK
6
CONTINUOUS
10
158.84
20
-117.38
11
158.84
21
-118.78
0
LINE
8
BLACK
6
CONTINUOUS
10
153.76
20
-118.78
11
152.36
21
-118.78
0
LINE
8
BLACK
6
CONTINUOUS
10
152.36
20
-118.78
11
152.36
21
-117.38
0
LINE
8
BLACK
6
CONTINUOUS
10
152.36
20
-117.38
11
153.76
21
-117.38
0
LINE
8
BLACK
6
CONTINUOUS
10
153.76
20
-117.38
11
153.76
21
-118.78
0
LINE
8
BLACK
6
CONTINUOUS
10
156.3
20
-118.78
11
154.9
21
-118.78
0
LINE
8
BLACK
6
CONTINUOUS
10
154.9
20
-118.78
11
154.9
21
-117.38
0
LINE
8
BLACK
6
CONTINUOUS
10
154.9
20
-117.38
11
156.3
21
-117.38
0
LINE
8
BLACK
6
CONTINUOUS
10
156.3
20
-117.38
11
156.3
21
-118.78
0
LINE
8
BLACK
6
CONTINUOUS
10
172.465
20
-117.71
11
171.581
21
-118.593
0
LINE
8
BLACK
6
CONTINUOUS
10
171.581
20
-118.593
11
171.405
21
-118.417
0
LINE
8
BLACK
6
CONTINUOUS
10
171.405
20
-118.417
11
172.289
21
-117.533
0
LINE
8
BLACK
6
CONTINUOUS
10
172.289
20
-117.533
11
172.465
21
-117.71
0
LINE
8
BLACK
6
CONTINUOUS
10
182.15
20
-118.3
11
181.65
21
-118.3
0
LINE
8
BLACK
6
CONTINUOUS
10
181.65
20
-118.3
11
181.65
21
-117.9
0
LINE
8
BLACK
6
CONTINUOUS
10
181.65
20
-117.9
11
182.15
21
-117.9
0
LINE
8
BLACK
6
CONTINUOUS
10
182.15
20
-117.9
11
182.15
21
-118.3
0
LINE
8
BLACK
6
CONTINUOUS
10
191.014
20
-117.435
11
191.065
21
-117.464
0
LINE
8
BLACK
6
CONTINUOUS
10
191.065
20
-117.464
11
191.102
21
-117.509
0
LINE
8
BLACK
6
CONTINUOUS
10
191.102
20
-117.509
11
191.125
21
-117.594
0
LINE
8
BLACK
6
CONTINUOUS
10
191.125
20
-117.594
11
191.125
21
-118.006
0
LINE
8
BLACK
6
CONTINUOUS
10
191.125
20
-118.006
11
191.115
21
-118.064
0
LINE
8
BLACK
6
CONTINUOUS
10
191.115
20
-118.064
11
191.086
21
-118.115
0
LINE
8
BLACK
6
CONTINUOUS
10
191.086
20
-118.115
11
191.041
21
-118.152
0
LINE
8
BLACK
6
CONTINUOUS
10
191.041
20
-118.152
11
190.956
21
-118.175
0
LINE
8
BLACK
6
CONTINUOUS
10
190.956
20
-118.175
11
190.619
21
-118.175
0
LINE
8
BLACK
6
CONTINUOUS
10
190.619
20
-118.175
11
190.561
21
-118.165
0
LINE
8
BLACK
6
CONTINUOUS
10
190.561
20
-118.165
11
190.51
21
-118.136
0
LINE
8
BLACK
6
CONTINUOUS
10
190.51
20
-118.136
11
190.473
21
-118.091
0
LINE
8
BLACK
6
CONTINUOUS
10
190.473
20
-118.091
11
190.45
21
-118.006
0
LINE
8
BLACK
6
CONTINUOUS
10
190.45
20
-118.006
11
190.45
21
-117.594
0
LINE
8
BLACK
6
CONTINUOUS
10
190.45
20
-117.594
11
190.46
21
-117.536
0
LINE
8
BLACK
6
CONTINUOUS
10
190.46
20
-117.536
11
190.489
21
-117.485
0
LINE
8
BLACK
6
CONTINUOUS
10
190.489
20
-117.485
11
190.534
21
-117.448
0
LINE
8
BLACK
6
CONTINUOUS
10
190.534
20
-117.448
11
190.619
21
-117.425
0
LINE
8
BLACK
6
CONTINUOUS
10
190.619
20
-117.425
11
190.956
21
-117.425
0
LINE
8
BLACK
6
CONTINUOUS
10
190.956
20
-117.425
11
191.014
21
-117.435
0
LINE
8
BLACK
6
CONTINUOUS
10
186.439
20
-117.435
11
186.49
21
-117.464
0
LINE
8
BLACK
6
CONTINUOUS
10
186.49
20
-117.464
11
186.527
21
-117.509
0
LINE
8
BLACK
6
CONTINUOUS
10
186.527
20
-117.509
11
186.55
21
-117.594
0
LINE
8
BLACK
6
CONTINUOUS
10
186.55
20
-117.594
11
186.55
21
-118.006
0
LINE
8
BLACK
6
CONTINUOUS
10
186.55
20
-118.006
11
186.54
21
-118.064
0
LINE
8
BLACK
6
CONTINUOUS
10
186.54
20
-118.064
11
186.511
21
-118.115
0
LINE
8
BLACK
6
CONTINUOUS
10
186.511
20
-118.115
11
186.466
21
-118.152
0
LINE
8
BLACK
6
CONTINUOUS
10
186.466
20
-118.152
11
186.381
21
-118.175
0
LINE
8
BLACK
6
CONTINUOUS
10
186.381
20
-118.175
11
186.044
21
-118.175
0
LINE
8
BLACK
6
CONTINUOUS
10
186.044
20
-118.175
11
185.986
21
-118.165
0
LINE
8
BLACK
6
CONTINUOUS
10
185.986
20
-118.165
11
185.935
21
-118.136
0
LINE
8
BLACK
6
CONTINUOUS
10
185.935
20
-118.136
11
185.898
21
-118.091
0
LINE
8
BLACK
6
CONTINUOUS
10
185.898
20
-118.091
11
185.875
21
-118.006
0
LINE
8
BLACK
6
CONTINUOUS
10
185.875
20
-118.006
11
185.875
21
-117.594
0
LINE
8
BLACK
6
CONTINUOUS
10
185.875
20
-117.594
11
185.885
21
-117.536
0
LINE
8
BLACK
6
CONTINUOUS
10
185.885
20
-117.536
11
185.914
21
-117.485
0
LINE
8
BLACK
6
CONTINUOUS
10
185.914
20
-117.485
11
185.959
21
-117.448
0
LINE
8
BLACK
6
CONTINUOUS
10
185.959
20
-117.448
11
186.044
21
-117.425
0
LINE
8
BLACK
6
CONTINUOUS
10
186.044
20
-117.425
11
186.381
21
-117.425
0
LINE
8
BLACK
6
CONTINUOUS
10
186.381
20
-117.425
11
186.439
21
-117.435
0
LINE
8
BLACK
6
CONTINUOUS
10
188.014
20
-117.435
11
188.065
21
-117.464
0
LINE
8
BLACK
6
CONTINUOUS
10
188.065
20
-117.464
11
188.102
21
-117.509
0
LINE
8
BLACK
6
CONTINUOUS
10
188.102
20
-117.509
11
188.125
21
-117.594
0
LINE
8
BLACK
6
CONTINUOUS
10
188.125
20
-117.594
11
188.125
21
-118.006
0
LINE
8
BLACK
6
CONTINUOUS
10
188.125
20
-118.006
11
188.115
21
-118.064
0
LINE
8
BLACK
6
CONTINUOUS
10
188.115
20
-118.064
11
188.086
21
-118.115
0
LINE
8
BLACK
6
CONTINUOUS
10
188.086
20
-118.115
11
188.041
21
-118.152
0
LINE
8
BLACK
6
CONTINUOUS
10
188.041
20
-118.152
11
187.956
21
-118.175
0
LINE
8
BLACK
6
CONTINUOUS
10
187.956
20
-118.175
11
187.619
21
-118.175
0
LINE
8
BLACK
6
CONTINUOUS
10
187.619
20
-118.175
11
187.561
21
-118.165
0
LINE
8
BLACK
6
CONTINUOUS
10
187.561
20
-118.165
11
187.51
21
-118.136
0
LINE
8
BLACK
6
CONTINUOUS
10
187.51
20
-118.136
11
187.473
21
-118.091
0
LINE
8
BLACK
6
CONTINUOUS
10
187.473
20
-118.091
11
187.45
21
-118.006
0
LINE
8
BLACK
6
CONTINUOUS
10
187.45
20
-118.006
11
187.45
21
-117.594
0
LINE
8
BLACK
6
CONTINUOUS
10
187.45
20
-117.594
11
187.46
21
-117.536
0
LINE
8
BLACK
6
CONTINUOUS
10
187.46
20
-117.536
11
187.489
21
-117.485
0
LINE
8
BLACK
6
CONTINUOUS
10
187.489
20
-117.485
11
187.534
21
-117.448
0
LINE
8
BLACK
6
CONTINUOUS
10
187.534
20
-117.448
11
187.619
21
-117.425
0
LINE
8
BLACK
6
CONTINUOUS
10
187.619
20
-117.425
11
187.956
21
-117.425
0
LINE
8
BLACK
6
CONTINUOUS
10
187.956
20
-117.425
11
188.014
21
-117.435
0
LINE
8
BLACK
6
CONTINUOUS
10
189.439
20
-117.435
11
189.49
21
-117.464
0
LINE
8
BLACK
6
CONTINUOUS
10
189.49
20
-117.464
11
189.527
21
-117.509
0
LINE
8
BLACK
6
CONTINUOUS
10
189.527
20
-117.509
11
189.55
21
-117.594
0
LINE
8
BLACK
6
CONTINUOUS
10
189.55
20
-117.594
11
189.55
21
-118.006
0
LINE
8
BLACK
6
CONTINUOUS
10
189.55
20
-118.006
11
189.54
21
-118.064
0
LINE
8
BLACK
6
CONTINUOUS
10
189.54
20
-118.064
11
189.511
21
-118.115
0
LINE
8
BLACK
6
CONTINUOUS
10
189.511
20
-118.115
11
189.466
21
-118.152
0
LINE
8
BLACK
6
CONTINUOUS
10
189.466
20
-118.152
11
189.381
21
-118.175
0
LINE
8
BLACK
6
CONTINUOUS
10
189.381
20
-118.175
11
189.044
21
-118.175
0
LINE
8
BLACK
6
CONTINUOUS
10
189.044
20
-118.175
11
188.986
21
-118.165
0
LINE
8
BLACK
6
CONTINUOUS
10
188.986
20
-118.165
11
188.935
21
-118.136
0
LINE
8
BLACK
6
CONTINUOUS
10
188.935
20
-118.136
11
188.898
21
-118.091
0
LINE
8
BLACK
6
CONTINUOUS
10
188.898
20
-118.091
11
188.875
21
-118.006
0
LINE
8
BLACK
6
CONTINUOUS
10
188.875
20
-118.006
11
188.875
21
-117.594
0
LINE
8
BLACK
6
CONTINUOUS
10
188.875
20
-117.594
11
188.885
21
-117.536
0
LINE
8
BLACK
6
CONTINUOUS
10
188.885
20
-117.536
11
188.914
21
-117.485
0
LINE
8
BLACK
6
CONTINUOUS
10
188.914
20
-117.485
11
188.959
21
-117.448
0
LINE
8
BLACK
6
CONTINUOUS
10
188.959
20
-117.448
11
189.044
21
-117.425
0
LINE
8
BLACK
6
CONTINUOUS
10
189.044
20
-117.425
11
189.381
21
-117.425
0
LINE
8
BLACK
6
CONTINUOUS
10
189.381
20
-117.425
11
189.439
21
-117.435
0
LINE
8
BLACK
6
CONTINUOUS
10
172.006
20
-117.25
11
171.122
21
-118.134
0
LINE
8
BLACK
6
CONTINUOUS
10
171.122
20
-118.134
11
170.945
21
-117.957
0
LINE
8
BLACK
6
CONTINUOUS
10
170.945
20
-117.957
11
171.829
21
-117.073
0
LINE
8
BLACK
6
CONTINUOUS
10
171.829
20
-117.073
11
172.006
21
-117.25
0
LINE
8
BLACK
6
CONTINUOUS
10
183.594
20
-117.435
11
183.645
21
-117.464
0
LINE
8
BLACK
6
CONTINUOUS
10
183.645
20
-117.464
11
183.682
21
-117.509
0
LINE
8
BLACK
6
CONTINUOUS
10
183.682
20
-117.509
11
183.705
21
-117.594
0
LINE
8
BLACK
6
CONTINUOUS
10
183.705
20
-117.594
11
183.705
21
-117.931
0
LINE
8
BLACK
6
CONTINUOUS
10
183.705
20
-117.931
11
183.695
21
-117.989
0
LINE
8
BLACK
6
CONTINUOUS
10
183.695
20
-117.989
11
183.666
21
-118.04
0
LINE
8
BLACK
6
CONTINUOUS
10
183.666
20
-118.04
11
183.621
21
-118.077
0
LINE
8
BLACK
6
CONTINUOUS
10
183.621
20
-118.077
11
183.536
21
-118.1
0
LINE
8
BLACK
6
CONTINUOUS
10
183.536
20
-118.1
11
183.124
21
-118.1
0
LINE
8
BLACK
6
CONTINUOUS
10
183.124
20
-118.1
11
183.066
21
-118.09
0
LINE
8
BLACK
6
CONTINUOUS
10
183.066
20
-118.09
11
183.015
21
-118.061
0
LINE
8
BLACK
6
CONTINUOUS
10
183.015
20
-118.061
11
182.978
21
-118.016
0
LINE
8
BLACK
6
CONTINUOUS
10
182.978
20
-118.016
11
182.955
21
-117.931
0
LINE
8
BLACK
6
CONTINUOUS
10
182.955
20
-117.931
11
182.955
21
-117.594
0
LINE
8
BLACK
6
CONTINUOUS
10
182.955
20
-117.594
11
182.965
21
-117.536
0
LINE
8
BLACK
6
CONTINUOUS
10
182.965
20
-117.536
11
182.994
21
-117.485
0
LINE
8
BLACK
6
CONTINUOUS
10
182.994
20
-117.485
11
183.039
21
-117.448
0
LINE
8
BLACK
6
CONTINUOUS
10
183.039
20
-117.448
11
183.124
21
-117.425
0
LINE
8
BLACK
6
CONTINUOUS
10
183.124
20
-117.425
11
183.536
21
-117.425
0
LINE
8
BLACK
6
CONTINUOUS
10
183.536
20
-117.425
11
183.594
21
-117.435
0
LINE
8
BLACK
6
CONTINUOUS
10
185.054
20
-117.435
11
185.105
21
-117.464
0
LINE
8
BLACK
6
CONTINUOUS
10
185.105
20
-117.464
11
185.142
21
-117.509
0
LINE
8
BLACK
6
CONTINUOUS
10
185.142
20
-117.509
11
185.165
21
-117.594
0
LINE
8
BLACK
6
CONTINUOUS
10
185.165
20
-117.594
11
185.165
21
-117.931
0
LINE
8
BLACK
6
CONTINUOUS
10
185.165
20
-117.931
11
185.155
21
-117.989
0
LINE
8
BLACK
6
CONTINUOUS
10
185.155
20
-117.989
11
185.126
21
-118.04
0
LINE
8
BLACK
6
CONTINUOUS
10
185.126
20
-118.04
11
185.081
21
-118.077
0
LINE
8
BLACK
6
CONTINUOUS
10
185.081
20
-118.077
11
184.996
21
-118.1
0
LINE
8
BLACK
6
CONTINUOUS
10
184.996
20
-118.1
11
184.584
21
-118.1
0
LINE
8
BLACK
6
CONTINUOUS
10
184.584
20
-118.1
11
184.526
21
-118.09
0
LINE
8
BLACK
6
CONTINUOUS
10
184.526
20
-118.09
11
184.475
21
-118.061
0
LINE
8
BLACK
6
CONTINUOUS
10
184.475
20
-118.061
11
184.438
21
-118.016
0
LINE
8
BLACK
6
CONTINUOUS
10
184.438
20
-118.016
11
184.415
21
-117.931
0
LINE
8
BLACK
6
CONTINUOUS
10
184.415
20
-117.931
11
184.415
21
-117.594
0
LINE
8
BLACK
6
CONTINUOUS
10
184.415
20
-117.594
11
184.425
21
-117.536
0
LINE
8
BLACK
6
CONTINUOUS
10
184.425
20
-117.536
11
184.454
21
-117.485
0
LINE
8
BLACK
6
CONTINUOUS
10
184.454
20
-117.485
11
184.499
21
-117.448
0
LINE
8
BLACK
6
CONTINUOUS
10
184.499
20
-117.448
11
184.584
21
-117.425
0
LINE
8
BLACK
6
CONTINUOUS
10
184.584
20
-117.425
11
184.996
21
-117.425
0
LINE
8
BLACK
6
CONTINUOUS
10
184.996
20
-117.425
11
185.054
21
-117.435
0
LINE
8
BLACK
6
CONTINUOUS
10
171.546
20
-116.79
11
170.662
21
-117.674
0
LINE
8
BLACK
6
CONTINUOUS
10
170.662
20
-117.674
11
170.485
21
-117.497
0
LINE
8
BLACK
6
CONTINUOUS
10
170.485
20
-117.497
11
171.369
21
-116.614
0
LINE
8
BLACK
6
CONTINUOUS
10
171.369
20
-116.614
11
171.546
21
-116.79
0
LINE
8
BLACK
6
CONTINUOUS
10
175.414
20
-116.735
11
175.465
21
-116.764
0
LINE
8
BLACK
6
CONTINUOUS
10
175.465
20
-116.764
11
175.502
21
-116.809
0
LINE
8
BLACK
6
CONTINUOUS
10
175.502
20
-116.809
11
175.525
21
-116.894
0
LINE
8
BLACK
6
CONTINUOUS
10
175.525
20
-116.894
11
175.525
21
-117.306
0
LINE
8
BLACK
6
CONTINUOUS
10
175.525
20
-117.306
11
175.515
21
-117.364
0
LINE
8
BLACK
6
CONTINUOUS
10
175.515
20
-117.364
11
175.486
21
-117.415
0
LINE
8
BLACK
6
CONTINUOUS
10
175.486
20
-117.415
11
175.441
21
-117.452
0
LINE
8
BLACK
6
CONTINUOUS
10
175.441
20
-117.452
11
175.356
21
-117.475
0
LINE
8
BLACK
6
CONTINUOUS
10
175.356
20
-117.475
11
175.019
21
-117.475
0
LINE
8
BLACK
6
CONTINUOUS
10
175.019
20
-117.475
11
174.961
21
-117.465
0
LINE
8
BLACK
6
CONTINUOUS
10
174.961
20
-117.465
11
174.91
21
-117.436
0
LINE
8
BLACK
6
CONTINUOUS
10
174.91
20
-117.436
11
174.873
21
-117.391
0
LINE
8
BLACK
6
CONTINUOUS
10
174.873
20
-117.391
11
174.85
21
-117.306
0
LINE
8
BLACK
6
CONTINUOUS
10
174.85
20
-117.306
11
174.85
21
-116.894
0
LINE
8
BLACK
6
CONTINUOUS
10
174.85
20
-116.894
11
174.86
21
-116.836
0
LINE
8
BLACK
6
CONTINUOUS
10
174.86
20
-116.836
11
174.889
21
-116.785
0
LINE
8
BLACK
6
CONTINUOUS
10
174.889
20
-116.785
11
174.934
21
-116.748
0
LINE
8
BLACK
6
CONTINUOUS
10
174.934
20
-116.748
11
175.019
21
-116.725
0
LINE
8
BLACK
6
CONTINUOUS
10
175.019
20
-116.725
11
175.356
21
-116.725
0
LINE
8
BLACK
6
CONTINUOUS
10
175.356
20
-116.725
11
175.414
21
-116.735
0
LINE
8
BLACK
6
CONTINUOUS
10
173.839
20
-116.735
11
173.89
21
-116.764
0
LINE
8
BLACK
6
CONTINUOUS
10
173.89
20
-116.764
11
173.927
21
-116.809
0
LINE
8
BLACK
6
CONTINUOUS
10
173.927
20
-116.809
11
173.95
21
-116.894
0
LINE
8
BLACK
6
CONTINUOUS
10
173.95
20
-116.894
11
173.95
21
-117.306
0
LINE
8
BLACK
6
CONTINUOUS
10
173.95
20
-117.306
11
173.94
21
-117.364
0
LINE
8
BLACK
6
CONTINUOUS
10
173.94
20
-117.364
11
173.911
21
-117.415
0
LINE
8
BLACK
6
CONTINUOUS
10
173.911
20
-117.415
11
173.866
21
-117.452
0
LINE
8
BLACK
6
CONTINUOUS
10
173.866
20
-117.452
11
173.781
21
-117.475
0
LINE
8
BLACK
6
CONTINUOUS
10
173.781
20
-117.475
11
173.444
21
-117.475
0
LINE
8
BLACK
6
CONTINUOUS
10
173.444
20
-117.475
11
173.386
21
-117.465
0
LINE
8
BLACK
6
CONTINUOUS
10
173.386
20
-117.465
11
173.335
21
-117.436
0
LINE
8
BLACK
6
CONTINUOUS
10
173.335
20
-117.436
11
173.298
21
-117.391
0
LINE
8
BLACK
6
CONTINUOUS
10
173.298
20
-117.391
11
173.275
21
-117.306
0
LINE
8
BLACK
6
CONTINUOUS
10
173.275
20
-117.306
11
173.275
21
-116.894
0
LINE
8
BLACK
6
CONTINUOUS
10
173.275
20
-116.894
11
173.285
21
-116.836
0
LINE
8
BLACK
6
CONTINUOUS
10
173.285
20
-116.836
11
173.314
21
-116.785
0
LINE
8
BLACK
6
CONTINUOUS
10
173.314
20
-116.785
11
173.359
21
-116.748
0
LINE
8
BLACK
6
CONTINUOUS
10
173.359
20
-116.748
11
173.444
21
-116.725
0
LINE
8
BLACK
6
CONTINUOUS
10
173.444
20
-116.725
11
173.781
21
-116.725
0
LINE
8
BLACK
6
CONTINUOUS
10
173.781
20
-116.725
11
173.839
21
-116.735
0
LINE
8
BLACK
6
CONTINUOUS
10
171.086
20
-116.331
11
170.203
21
-117.215
0
LINE
8
BLACK
6
CONTINUOUS
10
170.203
20
-117.215
11
170.026
21
-117.038
0
LINE
8
BLACK
6
CONTINUOUS
10
170.026
20
-117.038
11
170.91
21
-116.154
0
LINE
8
BLACK
6
CONTINUOUS
10
170.91
20
-116.154
11
171.086
21
-116.331
0
LINE
8
BLACK
6
CONTINUOUS
10
170.627
20
-115.871
11
169.743
21
-116.755
0
LINE
8
BLACK
6
CONTINUOUS
10
169.743
20
-116.755
11
169.566
21
-116.578
0
LINE
8
BLACK
6
CONTINUOUS
10
169.566
20
-116.578
11
170.45
21
-115.694
0
LINE
8
BLACK
6
CONTINUOUS
10
170.45
20
-115.694
11
170.627
21
-115.871
0
LINE
8
BLACK
6
CONTINUOUS
10
180.464
20
-115.96
11
180.515
21
-115.989
0
LINE
8
BLACK
6
CONTINUOUS
10
180.515
20
-115.989
11
180.552
21
-116.034
0
LINE
8
BLACK
6
CONTINUOUS
10
180.552
20
-116.034
11
180.575
21
-116.119
0
LINE
8
BLACK
6
CONTINUOUS
10
180.575
20
-116.119
11
180.575
21
-116.456
0
LINE
8
BLACK
6
CONTINUOUS
10
180.575
20
-116.456
11
180.565
21
-116.514
0
LINE
8
BLACK
6
CONTINUOUS
10
180.565
20
-116.514
11
180.536
21
-116.565
0
LINE
8
BLACK
6
CONTINUOUS
10
180.536
20
-116.565
11
180.491
21
-116.602
0
LINE
8
BLACK
6
CONTINUOUS
10
180.491
20
-116.602
11
180.406
21
-116.625
0
LINE
8
BLACK
6
CONTINUOUS
10
180.406
20
-116.625
11
179.994
21
-116.625
0
LINE
8
BLACK
6
CONTINUOUS
10
179.994
20
-116.625
11
179.936
21
-116.615
0
LINE
8
BLACK
6
CONTINUOUS
10
179.936
20
-116.615
11
179.885
21
-116.586
0
LINE
8
BLACK
6
CONTINUOUS
10
179.885
20
-116.586
11
179.848
21
-116.541
0
LINE
8
BLACK
6
CONTINUOUS
10
179.848
20
-116.541
11
179.825
21
-116.456
0
LINE
8
BLACK
6
CONTINUOUS
10
179.825
20
-116.456
11
179.825
21
-116.119
0
LINE
8
BLACK
6
CONTINUOUS
10
179.825
20
-116.119
11
179.835
21
-116.061
0
LINE
8
BLACK
6
CONTINUOUS
10
179.835
20
-116.061
11
179.864
21
-116.01
0
LINE
8
BLACK
6
CONTINUOUS
10
179.864
20
-116.01
11
179.909
21
-115.973
0
LINE
8
BLACK
6
CONTINUOUS
10
179.909
20
-115.973
11
179.994
21
-115.95
0
LINE
8
BLACK
6
CONTINUOUS
10
179.994
20
-115.95
11
180.406
21
-115.95
0
LINE
8
BLACK
6
CONTINUOUS
10
180.406
20
-115.95
11
180.464
21
-115.96
0
LINE
8
BLACK
6
CONTINUOUS
10
160.464
20
-115.96
11
160.515
21
-115.989
0
LINE
8
BLACK
6
CONTINUOUS
10
160.515
20
-115.989
11
160.552
21
-116.034
0
LINE
8
BLACK
6
CONTINUOUS
10
160.552
20
-116.034
11
160.575
21
-116.119
0
LINE
8
BLACK
6
CONTINUOUS
10
160.575
20
-116.119
11
160.575
21
-116.456
0
LINE
8
BLACK
6
CONTINUOUS
10
160.575
20
-116.456
11
160.565
21
-116.514
0
LINE
8
BLACK
6
CONTINUOUS
10
160.565
20
-116.514
11
160.536
21
-116.565
0
LINE
8
BLACK
6
CONTINUOUS
10
160.536
20
-116.565
11
160.491
21
-116.602
0
LINE
8
BLACK
6
CONTINUOUS
10
160.491
20
-116.602
11
160.406
21
-116.625
0
LINE
8
BLACK
6
CONTINUOUS
10
160.406
20
-116.625
11
159.994
21
-116.625
0
LINE
8
BLACK
6
CONTINUOUS
10
159.994
20
-116.625
11
159.936
21
-116.615
0
LINE
8
BLACK
6
CONTINUOUS
10
159.936
20
-116.615
11
159.885
21
-116.586
0
LINE
8
BLACK
6
CONTINUOUS
10
159.885
20
-116.586
11
159.848
21
-116.541
0
LINE
8
BLACK
6
CONTINUOUS
10
159.848
20
-116.541
11
159.825
21
-116.456
0
LINE
8
BLACK
6
CONTINUOUS
10
159.825
20
-116.456
11
159.825
21
-116.119
0
LINE
8
BLACK
6
CONTINUOUS
10
159.825
20
-116.119
11
159.835
21
-116.061
0
LINE
8
BLACK
6
CONTINUOUS
10
159.835
20
-116.061
11
159.864
21
-116.01
0
LINE
8
BLACK
6
CONTINUOUS
10
159.864
20
-116.01
11
159.909
21
-115.973
0
LINE
8
BLACK
6
CONTINUOUS
10
159.909
20
-115.973
11
159.994
21
-115.95
0
LINE
8
BLACK
6
CONTINUOUS
10
159.994
20
-115.95
11
160.406
21
-115.95
0
LINE
8
BLACK
6
CONTINUOUS
10
160.406
20
-115.95
11
160.464
21
-115.96
0
LINE
8
BLACK
6
CONTINUOUS
10
182.65
20
-116.47
11
181.65
21
-116.47
0
LINE
8
BLACK
6
CONTINUOUS
10
181.65
20
-116.47
11
181.65
21
-115.87
0
LINE
8
BLACK
6
CONTINUOUS
10
181.65
20
-115.87
11
182.65
21
-115.87
0
LINE
8
BLACK
6
CONTINUOUS
10
182.65
20
-115.87
11
182.65
21
-116.47
0
LINE
8
BLACK
6
CONTINUOUS
10
188.95
20
-116.47
11
187.95
21
-116.47
0
LINE
8
BLACK
6
CONTINUOUS
10
187.95
20
-116.47
11
187.95
21
-115.87
0
LINE
8
BLACK
6
CONTINUOUS
10
187.95
20
-115.87
11
188.95
21
-115.87
0
LINE
8
BLACK
6
CONTINUOUS
10
188.95
20
-115.87
11
188.95
21
-116.47
0
LINE
8
BLACK
6
CONTINUOUS
10
170.167
20
-115.411
11
169.283
21
-116.295
0
LINE
8
BLACK
6
CONTINUOUS
10
169.283
20
-116.295
11
169.107
21
-116.119
0
LINE
8
BLACK
6
CONTINUOUS
10
169.107
20
-116.119
11
169.99
21
-115.235
0
LINE
8
BLACK
6
CONTINUOUS
10
169.99
20
-115.235
11
170.167
21
-115.411
0
LINE
8
BLACK
6
CONTINUOUS
10
169.708
20
-114.952
11
168.824
21
-115.836
0
LINE
8
BLACK
6
CONTINUOUS
10
168.824
20
-115.836
11
168.647
21
-115.659
0
LINE
8
BLACK
6
CONTINUOUS
10
168.647
20
-115.659
11
169.531
21
-114.775
0
LINE
8
BLACK
6
CONTINUOUS
10
169.531
20
-114.775
11
169.708
21
-114.952
0
LINE
8
BLACK
6
CONTINUOUS
10
192.663
20
-115.155
11
192.713
21
-115.184
0
LINE
8
BLACK
6
CONTINUOUS
10
192.713
20
-115.184
11
192.751
21
-115.229
0
LINE
8
BLACK
6
CONTINUOUS
10
192.751
20
-115.229
11
192.774
21
-115.313
0
LINE
8
BLACK
6
CONTINUOUS
10
192.774
20
-115.313
11
192.774
21
-115.651
0
LINE
8
BLACK
6
CONTINUOUS
10
192.774
20
-115.651
11
192.763
21
-115.709
0
LINE
8
BLACK
6
CONTINUOUS
10
192.763
20
-115.709
11
192.734
21
-115.759
0
LINE
8
BLACK
6
CONTINUOUS
10
192.734
20
-115.759
11
192.689
21
-115.797
0
LINE
8
BLACK
6
CONTINUOUS
10
192.689
20
-115.797
11
192.605
21
-115.82
0
LINE
8
BLACK
6
CONTINUOUS
10
192.605
20
-115.82
11
192.192
21
-115.82
0
LINE
8
BLACK
6
CONTINUOUS
10
192.192
20
-115.82
11
192.135
21
-115.809
0
LINE
8
BLACK
6
CONTINUOUS
10
192.135
20
-115.809
11
192.084
21
-115.78
0
LINE
8
BLACK
6
CONTINUOUS
10
192.084
20
-115.78
11
192.046
21
-115.735
0
LINE
8
BLACK
6
CONTINUOUS
10
192.046
20
-115.735
11
192.024
21
-115.651
0
LINE
8
BLACK
6
CONTINUOUS
10
192.024
20
-115.651
11
192.024
21
-115.313
0
LINE
8
BLACK
6
CONTINUOUS
10
192.024
20
-115.313
11
192.034
21
-115.256
0
LINE
8
BLACK
6
CONTINUOUS
10
192.034
20
-115.256
11
192.063
21
-115.205
0
LINE
8
BLACK
6
CONTINUOUS
10
192.063
20
-115.205
11
192.108
21
-115.167
0
LINE
8
BLACK
6
CONTINUOUS
10
192.108
20
-115.167
11
192.192
21
-115.145
0
LINE
8
BLACK
6
CONTINUOUS
10
192.192
20
-115.145
11
192.605
21
-115.145
0
LINE
8
BLACK
6
CONTINUOUS
10
192.605
20
-115.145
11
192.663
21
-115.155
0
LINE
8
BLACK
6
CONTINUOUS
10
191.113
20
-115.155
11
191.163
21
-115.184
0
LINE
8
BLACK
6
CONTINUOUS
10
191.163
20
-115.184
11
191.201
21
-115.229
0
LINE
8
BLACK
6
CONTINUOUS
10
191.201
20
-115.229
11
191.224
21
-115.313
0
LINE
8
BLACK
6
CONTINUOUS
10
191.224
20
-115.313
11
191.224
21
-115.651
0
LINE
8
BLACK
6
CONTINUOUS
10
191.224
20
-115.651
11
191.213
21
-115.709
0
LINE
8
BLACK
6
CONTINUOUS
10
191.213
20
-115.709
11
191.184
21
-115.759
0
LINE
8
BLACK
6
CONTINUOUS
10
191.184
20
-115.759
11
191.139
21
-115.797
0
LINE
8
BLACK
6
CONTINUOUS
10
191.139
20
-115.797
11
191.055
21
-115.82
0
LINE
8
BLACK
6
CONTINUOUS
10
191.055
20
-115.82
11
190.642
21
-115.82
0
LINE
8
BLACK
6
CONTINUOUS
10
190.642
20
-115.82
11
190.585
21
-115.809
0
LINE
8
BLACK
6
CONTINUOUS
10
190.585
20
-115.809
11
190.534
21
-115.78
0
LINE
8
BLACK
6
CONTINUOUS
10
190.534
20
-115.78
11
190.496
21
-115.735
0
LINE
8
BLACK
6
CONTINUOUS
10
190.496
20
-115.735
11
190.474
21
-115.651
0
LINE
8
BLACK
6
CONTINUOUS
10
190.474
20
-115.651
11
190.474
21
-115.313
0
LINE
8
BLACK
6
CONTINUOUS
10
190.474
20
-115.313
11
190.484
21
-115.256
0
LINE
8
BLACK
6
CONTINUOUS
10
190.484
20
-115.256
11
190.513
21
-115.205
0
LINE
8
BLACK
6
CONTINUOUS
10
190.513
20
-115.205
11
190.558
21
-115.167
0
LINE
8
BLACK
6
CONTINUOUS
10
190.558
20
-115.167
11
190.642
21
-115.145
0
LINE
8
BLACK
6
CONTINUOUS
10
190.642
20
-115.145
11
191.055
21
-115.145
0
LINE
8
BLACK
6
CONTINUOUS
10
191.055
20
-115.145
11
191.113
21
-115.155
0
LINE
8
BLACK
6
CONTINUOUS
10
194.213
20
-115.155
11
194.263
21
-115.184
0
LINE
8
BLACK
6
CONTINUOUS
10
194.263
20
-115.184
11
194.301
21
-115.229
0
LINE
8
BLACK
6
CONTINUOUS
10
194.301
20
-115.229
11
194.324
21
-115.313
0
LINE
8
BLACK
6
CONTINUOUS
10
194.324
20
-115.313
11
194.324
21
-115.651
0
LINE
8
BLACK
6
CONTINUOUS
10
194.324
20
-115.651
11
194.313
21
-115.709
0
LINE
8
BLACK
6
CONTINUOUS
10
194.313
20
-115.709
11
194.284
21
-115.759
0
LINE
8
BLACK
6
CONTINUOUS
10
194.284
20
-115.759
11
194.239
21
-115.797
0
LINE
8
BLACK
6
CONTINUOUS
10
194.239
20
-115.797
11
194.155
21
-115.82
0
LINE
8
BLACK
6
CONTINUOUS
10
194.155
20
-115.82
11
193.742
21
-115.82
0
LINE
8
BLACK
6
CONTINUOUS
10
193.742
20
-115.82
11
193.685
21
-115.809
0
LINE
8
BLACK
6
CONTINUOUS
10
193.685
20
-115.809
11
193.634
21
-115.78
0
LINE
8
BLACK
6
CONTINUOUS
10
193.634
20
-115.78
11
193.596
21
-115.735
0
LINE
8
BLACK
6
CONTINUOUS
10
193.596
20
-115.735
11
193.574
21
-115.651
0
LINE
8
BLACK
6
CONTINUOUS
10
193.574
20
-115.651
11
193.574
21
-115.313
0
LINE
8
BLACK
6
CONTINUOUS
10
193.574
20
-115.313
11
193.584
21
-115.256
0
LINE
8
BLACK
6
CONTINUOUS
10
193.584
20
-115.256
11
193.613
21
-115.205
0
LINE
8
BLACK
6
CONTINUOUS
10
193.613
20
-115.205
11
193.658
21
-115.167
0
LINE
8
BLACK
6
CONTINUOUS
10
193.658
20
-115.167
11
193.742
21
-115.145
0
LINE
8
BLACK
6
CONTINUOUS
10
193.742
20
-115.145
11
194.155
21
-115.145
0
LINE
8
BLACK
6
CONTINUOUS
10
194.155
20
-115.145
11
194.213
21
-115.155
0
LINE
8
BLACK
6
CONTINUOUS
10
169.248
20
-114.492
11
168.364
21
-115.376
0
LINE
8
BLACK
6
CONTINUOUS
10
168.364
20
-115.376
11
168.187
21
-115.199
0
LINE
8
BLACK
6
CONTINUOUS
10
168.187
20
-115.199
11
169.071
21
-114.315
0
LINE
8
BLACK
6
CONTINUOUS
10
169.071
20
-114.315
11
169.248
21
-114.492
0
LINE
8
BLACK
6
CONTINUOUS
10
188.95
20
-115.2
11
187.95
21
-115.2
0
LINE
8
BLACK
6
CONTINUOUS
10
187.95
20
-115.2
11
187.95
21
-114.6
0
LINE
8
BLACK
6
CONTINUOUS
10
187.95
20
-114.6
11
188.95
21
-114.6
0
LINE
8
BLACK
6
CONTINUOUS
10
188.95
20
-114.6
11
188.95
21
-115.2
0
LINE
8
BLACK
6
CONTINUOUS
10
180.464
20
-114.385
11
180.515
21
-114.414
0
LINE
8
BLACK
6
CONTINUOUS
10
180.515
20
-114.414
11
180.552
21
-114.459
0
LINE
8
BLACK
6
CONTINUOUS
10
180.552
20
-114.459
11
180.575
21
-114.544
0
LINE
8
BLACK
6
CONTINUOUS
10
180.575
20
-114.544
11
180.575
21
-114.881
0
LINE
8
BLACK
6
CONTINUOUS
10
180.575
20
-114.881
11
180.565
21
-114.939
0
LINE
8
BLACK
6
CONTINUOUS
10
180.565
20
-114.939
11
180.536
21
-114.99
0
LINE
8
BLACK
6
CONTINUOUS
10
180.536
20
-114.99
11
180.491
21
-115.027
0
LINE
8
BLACK
6
CONTINUOUS
10
180.491
20
-115.027
11
180.406
21
-115.05
0
LINE
8
BLACK
6
CONTINUOUS
10
180.406
20
-115.05
11
179.994
21
-115.05
0
LINE
8
BLACK
6
CONTINUOUS
10
179.994
20
-115.05
11
179.936
21
-115.04
0
LINE
8
BLACK
6
CONTINUOUS
10
179.936
20
-115.04
11
179.885
21
-115.011
0
LINE
8
BLACK
6
CONTINUOUS
10
179.885
20
-115.011
11
179.848
21
-114.966
0
LINE
8
BLACK
6
CONTINUOUS
10
179.848
20
-114.966
11
179.825
21
-114.881
0
LINE
8
BLACK
6
CONTINUOUS
10
179.825
20
-114.881
11
179.825
21
-114.544
0
LINE
8
BLACK
6
CONTINUOUS
10
179.825
20
-114.544
11
179.835
21
-114.486
0
LINE
8
BLACK
6
CONTINUOUS
10
179.835
20
-114.486
11
179.864
21
-114.435
0
LINE
8
BLACK
6
CONTINUOUS
10
179.864
20
-114.435
11
179.909
21
-114.398
0
LINE
8
BLACK
6
CONTINUOUS
10
179.909
20
-114.398
11
179.994
21
-114.375
0
LINE
8
BLACK
6
CONTINUOUS
10
179.994
20
-114.375
11
180.406
21
-114.375
0
LINE
8
BLACK
6
CONTINUOUS
10
180.406
20
-114.375
11
180.464
21
-114.385
0
LINE
8
BLACK
6
CONTINUOUS
10
160.464
20
-114.385
11
160.515
21
-114.414
0
LINE
8
BLACK
6
CONTINUOUS
10
160.515
20
-114.414
11
160.552
21
-114.459
0
LINE
8
BLACK
6
CONTINUOUS
10
160.552
20
-114.459
11
160.575
21
-114.544
0
LINE
8
BLACK
6
CONTINUOUS
10
160.575
20
-114.544
11
160.575
21
-114.881
0
LINE
8
BLACK
6
CONTINUOUS
10
160.575
20
-114.881
11
160.565
21
-114.939
0
LINE
8
BLACK
6
CONTINUOUS
10
160.565
20
-114.939
11
160.536
21
-114.99
0
LINE
8
BLACK
6
CONTINUOUS
10
160.536
20
-114.99
11
160.491
21
-115.027
0
LINE
8
BLACK
6
CONTINUOUS
10
160.491
20
-115.027
11
160.406
21
-115.05
0
LINE
8
BLACK
6
CONTINUOUS
10
160.406
20
-115.05
11
159.994
21
-115.05
0
LINE
8
BLACK
6
CONTINUOUS
10
159.994
20
-115.05
11
159.936
21
-115.04
0
LINE
8
BLACK
6
CONTINUOUS
10
159.936
20
-115.04
11
159.885
21
-115.011
0
LINE
8
BLACK
6
CONTINUOUS
10
159.885
20
-115.011
11
159.848
21
-114.966
0
LINE
8
BLACK
6
CONTINUOUS
10
159.848
20
-114.966
11
159.825
21
-114.881
0
LINE
8
BLACK
6
CONTINUOUS
10
159.825
20
-114.881
11
159.825
21
-114.544
0
LINE
8
BLACK
6
CONTINUOUS
10
159.825
20
-114.544
11
159.835
21
-114.486
0
LINE
8
BLACK
6
CONTINUOUS
10
159.835
20
-114.486
11
159.864
21
-114.435
0
LINE
8
BLACK
6
CONTINUOUS
10
159.864
20
-114.435
11
159.909
21
-114.398
0
LINE
8
BLACK
6
CONTINUOUS
10
159.909
20
-114.398
11
159.994
21
-114.375
0
LINE
8
BLACK
6
CONTINUOUS
10
159.994
20
-114.375
11
160.406
21
-114.375
0
LINE
8
BLACK
6
CONTINUOUS
10
160.406
20
-114.375
11
160.464
21
-114.385
0
LINE
8
BLACK
6
CONTINUOUS
10
191.113
20
-113.58
11
191.163
21
-113.609
0
LINE
8
BLACK
6
CONTINUOUS
10
191.163
20
-113.609
11
191.201
21
-113.654
0
LINE
8
BLACK
6
CONTINUOUS
10
191.201
20
-113.654
11
191.224
21
-113.738
0
LINE
8
BLACK
6
CONTINUOUS
10
191.224
20
-113.738
11
191.224
21
-114.076
0
LINE
8
BLACK
6
CONTINUOUS
10
191.224
20
-114.076
11
191.213
21
-114.134
0
LINE
8
BLACK
6
CONTINUOUS
10
191.213
20
-114.134
11
191.184
21
-114.184
0
LINE
8
BLACK
6
CONTINUOUS
10
191.184
20
-114.184
11
191.139
21
-114.222
0
LINE
8
BLACK
6
CONTINUOUS
10
191.139
20
-114.222
11
191.055
21
-114.245
0
LINE
8
BLACK
6
CONTINUOUS
10
191.055
20
-114.245
11
190.642
21
-114.245
0
LINE
8
BLACK
6
CONTINUOUS
10
190.642
20
-114.245
11
190.585
21
-114.234
0
LINE
8
BLACK
6
CONTINUOUS
10
190.585
20
-114.234
11
190.534
21
-114.205
0
LINE
8
BLACK
6
CONTINUOUS
10
190.534
20
-114.205
11
190.496
21
-114.16
0
LINE
8
BLACK
6
CONTINUOUS
10
190.496
20
-114.16
11
190.474
21
-114.076
0
LINE
8
BLACK
6
CONTINUOUS
10
190.474
20
-114.076
11
190.474
21
-113.738
0
LINE
8
BLACK
6
CONTINUOUS
10
190.474
20
-113.738
11
190.484
21
-113.681
0
LINE
8
BLACK
6
CONTINUOUS
10
190.484
20
-113.681
11
190.513
21
-113.63
0
LINE
8
BLACK
6
CONTINUOUS
10
190.513
20
-113.63
11
190.558
21
-113.592
0
LINE
8
BLACK
6
CONTINUOUS
10
190.558
20
-113.592
11
190.642
21
-113.57
0
LINE
8
BLACK
6
CONTINUOUS
10
190.642
20
-113.57
11
191.055
21
-113.57
0
LINE
8
BLACK
6
CONTINUOUS
10
191.055
20
-113.57
11
191.113
21
-113.58
0
LINE
8
BLACK
6
CONTINUOUS
10
194.213
20
-113.58
11
194.263
21
-113.609
0
LINE
8
BLACK
6
CONTINUOUS
10
194.263
20
-113.609
11
194.301
21
-113.654
0
LINE
8
BLACK
6
CONTINUOUS
10
194.301
20
-113.654
11
194.324
21
-113.738
0
LINE
8
BLACK
6
CONTINUOUS
10
194.324
20
-113.738
11
194.324
21
-114.076
0
LINE
8
BLACK
6
CONTINUOUS
10
194.324
20
-114.076
11
194.313
21
-114.134
0
LINE
8
BLACK
6
CONTINUOUS
10
194.313
20
-114.134
11
194.284
21
-114.184
0
LINE
8
BLACK
6
CONTINUOUS
10
194.284
20
-114.184
11
194.239
21
-114.222
0
LINE
8
BLACK
6
CONTINUOUS
10
194.239
20
-114.222
11
194.155
21
-114.245
0
LINE
8
BLACK
6
CONTINUOUS
10
194.155
20
-114.245
11
193.742
21
-114.245
0
LINE
8
BLACK
6
CONTINUOUS
10
193.742
20
-114.245
11
193.685
21
-114.234
0
LINE
8
BLACK
6
CONTINUOUS
10
193.685
20
-114.234
11
193.634
21
-114.205
0
LINE
8
BLACK
6
CONTINUOUS
10
193.634
20
-114.205
11
193.596
21
-114.16
0
LINE
8
BLACK
6
CONTINUOUS
10
193.596
20
-114.16
11
193.574
21
-114.076
0
LINE
8
BLACK
6
CONTINUOUS
10
193.574
20
-114.076
11
193.574
21
-113.738
0
LINE
8
BLACK
6
CONTINUOUS
10
193.574
20
-113.738
11
193.584
21
-113.681
0
LINE
8
BLACK
6
CONTINUOUS
10
193.584
20
-113.681
11
193.613
21
-113.63
0
LINE
8
BLACK
6
CONTINUOUS
10
193.613
20
-113.63
11
193.658
21
-113.592
0
LINE
8
BLACK
6
CONTINUOUS
10
193.658
20
-113.592
11
193.742
21
-113.57
0
LINE
8
BLACK
6
CONTINUOUS
10
193.742
20
-113.57
11
194.155
21
-113.57
0
LINE
8
BLACK
6
CONTINUOUS
10
194.155
20
-113.57
11
194.213
21
-113.58
0
LINE
8
BLACK
6
CONTINUOUS
10
192.663
20
-113.58
11
192.713
21
-113.609
0
LINE
8
BLACK
6
CONTINUOUS
10
192.713
20
-113.609
11
192.751
21
-113.654
0
LINE
8
BLACK
6
CONTINUOUS
10
192.751
20
-113.654
11
192.774
21
-113.738
0
LINE
8
BLACK
6
CONTINUOUS
10
192.774
20
-113.738
11
192.774
21
-114.076
0
LINE
8
BLACK
6
CONTINUOUS
10
192.774
20
-114.076
11
192.763
21
-114.134
0
LINE
8
BLACK
6
CONTINUOUS
10
192.763
20
-114.134
11
192.734
21
-114.184
0
LINE
8
BLACK
6
CONTINUOUS
10
192.734
20
-114.184
11
192.689
21
-114.222
0
LINE
8
BLACK
6
CONTINUOUS
10
192.689
20
-114.222
11
192.605
21
-114.245
0
LINE
8
BLACK
6
CONTINUOUS
10
192.605
20
-114.245
11
192.192
21
-114.245
0
LINE
8
BLACK
6
CONTINUOUS
10
192.192
20
-114.245
11
192.135
21
-114.234
0
LINE
8
BLACK
6
CONTINUOUS
10
192.135
20
-114.234
11
192.084
21
-114.205
0
LINE
8
BLACK
6
CONTINUOUS
10
192.084
20
-114.205
11
192.046
21
-114.16
0
LINE
8
BLACK
6
CONTINUOUS
10
192.046
20
-114.16
11
192.024
21
-114.076
0
LINE
8
BLACK
6
CONTINUOUS
10
192.024
20
-114.076
11
192.024
21
-113.738
0
LINE
8
BLACK
6
CONTINUOUS
10
192.024
20
-113.738
11
192.034
21
-113.681
0
LINE
8
BLACK
6
CONTINUOUS
10
192.034
20
-113.681
11
192.063
21
-113.63
0
LINE
8
BLACK
6
CONTINUOUS
10
192.063
20
-113.63
11
192.108
21
-113.592
0
LINE
8
BLACK
6
CONTINUOUS
10
192.108
20
-113.592
11
192.192
21
-113.57
0
LINE
8
BLACK
6
CONTINUOUS
10
192.192
20
-113.57
11
192.605
21
-113.57
0
LINE
8
BLACK
6
CONTINUOUS
10
192.605
20
-113.57
11
192.663
21
-113.58
0
LINE
8
BLACK
6
CONTINUOUS
10
188.95
20
-113.93
11
187.95
21
-113.93
0
LINE
8
BLACK
6
CONTINUOUS
10
187.95
20
-113.93
11
187.95
21
-113.33
0
LINE
8
BLACK
6
CONTINUOUS
10
187.95
20
-113.33
11
188.95
21
-113.33
0
LINE
8
BLACK
6
CONTINUOUS
10
188.95
20
-113.33
11
188.95
21
-113.93
0
LINE
8
BLACK
6
CONTINUOUS
10
182.65
20
-113.93
11
181.65
21
-113.93
0
LINE
8
BLACK
6
CONTINUOUS
10
181.65
20
-113.93
11
181.65
21
-113.33
0
LINE
8
BLACK
6
CONTINUOUS
10
181.65
20
-113.33
11
182.65
21
-113.33
0
LINE
8
BLACK
6
CONTINUOUS
10
182.65
20
-113.33
11
182.65
21
-113.93
0
LINE
8
BLACK
6
CONTINUOUS
10
166.3
20
-113.7
11
165.6
21
-113.7
0
LINE
8
BLACK
6
CONTINUOUS
10
165.6
20
-113.7
11
165.6
21
-112.9
0
LINE
8
BLACK
6
CONTINUOUS
10
165.6
20
-112.9
11
166.3
21
-112.9
0
LINE
8
BLACK
6
CONTINUOUS
10
166.3
20
-112.9
11
166.3
21
-113.7
0
LINE
8
BLACK
6
CONTINUOUS
10
162.2
20
-113.7
11
161.5
21
-113.7
0
LINE
8
BLACK
6
CONTINUOUS
10
161.5
20
-113.7
11
161.5
21
-112.9
0
LINE
8
BLACK
6
CONTINUOUS
10
161.5
20
-112.9
11
162.2
21
-112.9
0
LINE
8
BLACK
6
CONTINUOUS
10
162.2
20
-112.9
11
162.2
21
-113.7
0
LINE
8
BLACK
6
CONTINUOUS
10
174.387
20
-111.188
11
174.45
21
-111.224
0
LINE
8
BLACK
6
CONTINUOUS
10
174.45
20
-111.224
11
174.497
21
-111.28
0
LINE
8
BLACK
6
CONTINUOUS
10
174.497
20
-111.28
11
174.525
21
-111.385
0
LINE
8
BLACK
6
CONTINUOUS
10
174.525
20
-111.385
11
174.525
21
-113.415
0
LINE
8
BLACK
6
CONTINUOUS
10
174.525
20
-113.415
11
174.512
21
-113.487
0
LINE
8
BLACK
6
CONTINUOUS
10
174.512
20
-113.487
11
174.476
21
-113.55
0
LINE
8
BLACK
6
CONTINUOUS
10
174.476
20
-113.55
11
174.42
21
-113.597
0
LINE
8
BLACK
6
CONTINUOUS
10
174.42
20
-113.597
11
174.315
21
-113.625
0
LINE
8
BLACK
6
CONTINUOUS
10
174.315
20
-113.625
11
173.685
21
-113.625
0
LINE
8
BLACK
6
CONTINUOUS
10
173.685
20
-113.625
11
173.613
21
-113.612
0
LINE
8
BLACK
6
CONTINUOUS
10
173.613
20
-113.612
11
173.55
21
-113.576
0
LINE
8
BLACK
6
CONTINUOUS
10
173.55
20
-113.576
11
173.503
21
-113.52
0
LINE
8
BLACK
6
CONTINUOUS
10
173.503
20
-113.52
11
173.475
21
-113.415
0
LINE
8
BLACK
6
CONTINUOUS
10
173.475
20
-113.415
11
173.475
21
-111.385
0
LINE
8
BLACK
6
CONTINUOUS
10
173.475
20
-111.385
11
173.488
21
-111.313
0
LINE
8
BLACK
6
CONTINUOUS
10
173.488
20
-111.313
11
173.524
21
-111.25
0
LINE
8
BLACK
6
CONTINUOUS
10
173.524
20
-111.25
11
173.58
21
-111.203
0
LINE
8
BLACK
6
CONTINUOUS
10
173.58
20
-111.203
11
173.685
21
-111.175
0
LINE
8
BLACK
6
CONTINUOUS
10
173.685
20
-111.175
11
174.315
21
-111.175
0
LINE
8
BLACK
6
CONTINUOUS
10
174.315
20
-111.175
11
174.387
21
-111.188
0
LINE
8
BLACK
6
CONTINUOUS
10
177.187
20
-111.188
11
177.25
21
-111.224
0
LINE
8
BLACK
6
CONTINUOUS
10
177.25
20
-111.224
11
177.297
21
-111.28
0
LINE
8
BLACK
6
CONTINUOUS
10
177.297
20
-111.28
11
177.325
21
-111.385
0
LINE
8
BLACK
6
CONTINUOUS
10
177.325
20
-111.385
11
177.325
21
-113.415
0
LINE
8
BLACK
6
CONTINUOUS
10
177.325
20
-113.415
11
177.312
21
-113.487
0
LINE
8
BLACK
6
CONTINUOUS
10
177.312
20
-113.487
11
177.276
21
-113.55
0
LINE
8
BLACK
6
CONTINUOUS
10
177.276
20
-113.55
11
177.22
21
-113.597
0
LINE
8
BLACK
6
CONTINUOUS
10
177.22
20
-113.597
11
177.115
21
-113.625
0
LINE
8
BLACK
6
CONTINUOUS
10
177.115
20
-113.625
11
176.485
21
-113.625
0
LINE
8
BLACK
6
CONTINUOUS
10
176.485
20
-113.625
11
176.413
21
-113.612
0
LINE
8
BLACK
6
CONTINUOUS
10
176.413
20
-113.612
11
176.35
21
-113.576
0
LINE
8
BLACK
6
CONTINUOUS
10
176.35
20
-113.576
11
176.303
21
-113.52
0
LINE
8
BLACK
6
CONTINUOUS
10
176.303
20
-113.52
11
176.275
21
-113.415
0
LINE
8
BLACK
6
CONTINUOUS
10
176.275
20
-113.415
11
176.275
21
-111.385
0
LINE
8
BLACK
6
CONTINUOUS
10
176.275
20
-111.385
11
176.288
21
-111.313
0
LINE
8
BLACK
6
CONTINUOUS
10
176.288
20
-111.313
11
176.324
21
-111.25
0
LINE
8
BLACK
6
CONTINUOUS
10
176.324
20
-111.25
11
176.38
21
-111.203
0
LINE
8
BLACK
6
CONTINUOUS
10
176.38
20
-111.203
11
176.485
21
-111.175
0
LINE
8
BLACK
6
CONTINUOUS
10
176.485
20
-111.175
11
177.115
21
-111.175
0
LINE
8
BLACK
6
CONTINUOUS
10
177.115
20
-111.175
11
177.187
21
-111.188
0
LINE
8
BLACK
6
CONTINUOUS
10
160.464
20
-112.96
11
160.515
21
-112.989
0
LINE
8
BLACK
6
CONTINUOUS
10
160.515
20
-112.989
11
160.552
21
-113.034
0
LINE
8
BLACK
6
CONTINUOUS
10
160.552
20
-113.034
11
160.575
21
-113.119
0
LINE
8
BLACK
6
CONTINUOUS
10
160.575
20
-113.119
11
160.575
21
-113.456
0
LINE
8
BLACK
6
CONTINUOUS
10
160.575
20
-113.456
11
160.565
21
-113.514
0
LINE
8
BLACK
6
CONTINUOUS
10
160.565
20
-113.514
11
160.536
21
-113.565
0
LINE
8
BLACK
6
CONTINUOUS
10
160.536
20
-113.565
11
160.491
21
-113.602
0
LINE
8
BLACK
6
CONTINUOUS
10
160.491
20
-113.602
11
160.406
21
-113.625
0
LINE
8
BLACK
6
CONTINUOUS
10
160.406
20
-113.625
11
159.994
21
-113.625
0
LINE
8
BLACK
6
CONTINUOUS
10
159.994
20
-113.625
11
159.936
21
-113.615
0
LINE
8
BLACK
6
CONTINUOUS
10
159.936
20
-113.615
11
159.885
21
-113.586
0
LINE
8
BLACK
6
CONTINUOUS
10
159.885
20
-113.586
11
159.848
21
-113.541
0
LINE
8
BLACK
6
CONTINUOUS
10
159.848
20
-113.541
11
159.825
21
-113.456
0
LINE
8
BLACK
6
CONTINUOUS
10
159.825
20
-113.456
11
159.825
21
-113.119
0
LINE
8
BLACK
6
CONTINUOUS
10
159.825
20
-113.119
11
159.835
21
-113.061
0
LINE
8
BLACK
6
CONTINUOUS
10
159.835
20
-113.061
11
159.864
21
-113.01
0
LINE
8
BLACK
6
CONTINUOUS
10
159.864
20
-113.01
11
159.909
21
-112.973
0
LINE
8
BLACK
6
CONTINUOUS
10
159.909
20
-112.973
11
159.994
21
-112.95
0
LINE
8
BLACK
6
CONTINUOUS
10
159.994
20
-112.95
11
160.406
21
-112.95
0
LINE
8
BLACK
6
CONTINUOUS
10
160.406
20
-112.95
11
160.464
21
-112.96
0
LINE
8
BLACK
6
CONTINUOUS
10
178.95
20
-113.45
11
178.25
21
-113.45
0
LINE
8
BLACK
6
CONTINUOUS
10
178.25
20
-113.45
11
178.25
21
-112.85
0
LINE
8
BLACK
6
CONTINUOUS
10
178.25
20
-112.85
11
178.95
21
-112.85
0
LINE
8
BLACK
6
CONTINUOUS
10
178.95
20
-112.85
11
178.95
21
-113.45
0
LINE
8
BLACK
6
CONTINUOUS
10
180.95
20
-112.5
11
180.25
21
-112.5
0
LINE
8
BLACK
6
CONTINUOUS
10
180.25
20
-112.5
11
180.25
21
-111.9
0
LINE
8
BLACK
6
CONTINUOUS
10
180.25
20
-111.9
11
180.95
21
-111.9
0
LINE
8
BLACK
6
CONTINUOUS
10
180.95
20
-111.9
11
180.95
21
-112.5
0
LINE
8
BLACK
6
CONTINUOUS
10
166.3
20
-112.1
11
165.6
21
-112.1
0
LINE
8
BLACK
6
CONTINUOUS
10
165.6
20
-112.1
11
165.6
21
-111.3
0
LINE
8
BLACK
6
CONTINUOUS
10
165.6
20
-111.3
11
166.3
21
-111.3
0
LINE
8
BLACK
6
CONTINUOUS
10
166.3
20
-111.3
11
166.3
21
-112.1
0
LINE
8
BLACK
6
CONTINUOUS
10
162.2
20
-112.1
11
161.5
21
-112.1
0
LINE
8
BLACK
6
CONTINUOUS
10
161.5
20
-112.1
11
161.5
21
-111.3
0
LINE
8
BLACK
6
CONTINUOUS
10
161.5
20
-111.3
11
162.2
21
-111.3
0
LINE
8
BLACK
6
CONTINUOUS
10
162.2
20
-111.3
11
162.2
21
-112.1
0
LINE
8
BLACK
6
CONTINUOUS
10
160.464
20
-111.385
11
160.515
21
-111.414
0
LINE
8
BLACK
6
CONTINUOUS
10
160.515
20
-111.414
11
160.552
21
-111.459
0
LINE
8
BLACK
6
CONTINUOUS
10
160.552
20
-111.459
11
160.575
21
-111.544
0
LINE
8
BLACK
6
CONTINUOUS
10
160.575
20
-111.544
11
160.575
21
-111.881
0
LINE
8
BLACK
6
CONTINUOUS
10
160.575
20
-111.881
11
160.565
21
-111.939
0
LINE
8
BLACK
6
CONTINUOUS
10
160.565
20
-111.939
11
160.536
21
-111.99
0
LINE
8
BLACK
6
CONTINUOUS
10
160.536
20
-111.99
11
160.491
21
-112.027
0
LINE
8
BLACK
6
CONTINUOUS
10
160.491
20
-112.027
11
160.406
21
-112.05
0
LINE
8
BLACK
6
CONTINUOUS
10
160.406
20
-112.05
11
159.994
21
-112.05
0
LINE
8
BLACK
6
CONTINUOUS
10
159.994
20
-112.05
11
159.936
21
-112.04
0
LINE
8
BLACK
6
CONTINUOUS
10
159.936
20
-112.04
11
159.885
21
-112.011
0
LINE
8
BLACK
6
CONTINUOUS
10
159.885
20
-112.011
11
159.848
21
-111.966
0
LINE
8
BLACK
6
CONTINUOUS
10
159.848
20
-111.966
11
159.825
21
-111.881
0
LINE
8
BLACK
6
CONTINUOUS
10
159.825
20
-111.881
11
159.825
21
-111.544
0
LINE
8
BLACK
6
CONTINUOUS
10
159.825
20
-111.544
11
159.835
21
-111.486
0
LINE
8
BLACK
6
CONTINUOUS
10
159.835
20
-111.486
11
159.864
21
-111.435
0
LINE
8
BLACK
6
CONTINUOUS
10
159.864
20
-111.435
11
159.909
21
-111.398
0
LINE
8
BLACK
6
CONTINUOUS
10
159.909
20
-111.398
11
159.994
21
-111.375
0
LINE
8
BLACK
6
CONTINUOUS
10
159.994
20
-111.375
11
160.406
21
-111.375
0
LINE
8
BLACK
6
CONTINUOUS
10
160.406
20
-111.375
11
160.464
21
-111.385
0
LINE
8
BLACK
6
CONTINUOUS
10
189.7
20
-112
11
186.65
21
-112
0
LINE
8
BLACK
6
CONTINUOUS
10
186.65
20
-112
11
186.65
21
-109.25
0
LINE
8
BLACK
6
CONTINUOUS
10
186.65
20
-109.25
11
189.7
21
-109.25
0
LINE
8
BLACK
6
CONTINUOUS
10
189.7
20
-109.25
11
189.7
21
-112
0
LINE
8
BLACK
6
CONTINUOUS
10
186.35
20
-112
11
183.3
21
-112
0
LINE
8
BLACK
6
CONTINUOUS
10
183.3
20
-112
11
183.3
21
-109.25
0
LINE
8
BLACK
6
CONTINUOUS
10
183.3
20
-109.25
11
186.35
21
-109.25
0
LINE
8
BLACK
6
CONTINUOUS
10
186.35
20
-109.25
11
186.35
21
-112
0
LINE
8
BLACK
6
CONTINUOUS
10
182.464
20
-111.26
11
182.515
21
-111.289
0
LINE
8
BLACK
6
CONTINUOUS
10
182.515
20
-111.289
11
182.552
21
-111.334
0
LINE
8
BLACK
6
CONTINUOUS
10
182.552
20
-111.334
11
182.575
21
-111.419
0
LINE
8
BLACK
6
CONTINUOUS
10
182.575
20
-111.419
11
182.575
21
-111.756
0
LINE
8
BLACK
6
CONTINUOUS
10
182.575
20
-111.756
11
182.565
21
-111.814
0
LINE
8
BLACK
6
CONTINUOUS
10
182.565
20
-111.814
11
182.536
21
-111.865
0
LINE
8
BLACK
6
CONTINUOUS
10
182.536
20
-111.865
11
182.491
21
-111.902
0
LINE
8
BLACK
6
CONTINUOUS
10
182.491
20
-111.902
11
182.406
21
-111.925
0
LINE
8
BLACK
6
CONTINUOUS
10
182.406
20
-111.925
11
181.994
21
-111.925
0
LINE
8
BLACK
6
CONTINUOUS
10
181.994
20
-111.925
11
181.936
21
-111.915
0
LINE
8
BLACK
6
CONTINUOUS
10
181.936
20
-111.915
11
181.885
21
-111.886
0
LINE
8
BLACK
6
CONTINUOUS
10
181.885
20
-111.886
11
181.848
21
-111.841
0
LINE
8
BLACK
6
CONTINUOUS
10
181.848
20
-111.841
11
181.825
21
-111.756
0
LINE
8
BLACK
6
CONTINUOUS
10
181.825
20
-111.756
11
181.825
21
-111.419
0
LINE
8
BLACK
6
CONTINUOUS
10
181.825
20
-111.419
11
181.835
21
-111.361
0
LINE
8
BLACK
6
CONTINUOUS
10
181.835
20
-111.361
11
181.864
21
-111.31
0
LINE
8
BLACK
6
CONTINUOUS
10
181.864
20
-111.31
11
181.909
21
-111.273
0
LINE
8
BLACK
6
CONTINUOUS
10
181.909
20
-111.273
11
181.994
21
-111.25
0
LINE
8
BLACK
6
CONTINUOUS
10
181.994
20
-111.25
11
182.406
21
-111.25
0
LINE
8
BLACK
6
CONTINUOUS
10
182.406
20
-111.25
11
182.464
21
-111.26
0
LINE
8
BLACK
6
CONTINUOUS
10
193.8
20
-111.88
11
191.8
21
-111.88
0
LINE
8
BLACK
6
CONTINUOUS
10
191.8
20
-111.88
11
191.8
21
-110.88
0
LINE
8
BLACK
6
CONTINUOUS
10
191.8
20
-110.88
11
193.8
21
-110.88
0
LINE
8
BLACK
6
CONTINUOUS
10
193.8
20
-110.88
11
193.8
21
-111.88
0
LINE
8
BLACK
6
CONTINUOUS
10
178.95
20
-111.55
11
178.25
21
-111.55
0
LINE
8
BLACK
6
CONTINUOUS
10
178.25
20
-111.55
11
178.25
21
-110.95
0
LINE
8
BLACK
6
CONTINUOUS
10
178.25
20
-110.95
11
178.95
21
-110.95
0
LINE
8
BLACK
6
CONTINUOUS
10
178.95
20
-110.95
11
178.95
21
-111.55
0
LINE
8
BLACK
6
CONTINUOUS
10
164.65
20
-111.25
11
163.15
21
-111.25
0
LINE
8
BLACK
6
CONTINUOUS
10
163.15
20
-111.25
11
163.15
21
-110.9
0
LINE
8
BLACK
6
CONTINUOUS
10
163.15
20
-110.9
11
164.65
21
-110.9
0
LINE
8
BLACK
6
CONTINUOUS
10
164.65
20
-110.9
11
164.65
21
-111.25
0
LINE
8
BLACK
6
CONTINUOUS
10
182.464
20
-109.685
11
182.515
21
-109.714
0
LINE
8
BLACK
6
CONTINUOUS
10
182.515
20
-109.714
11
182.552
21
-109.759
0
LINE
8
BLACK
6
CONTINUOUS
10
182.552
20
-109.759
11
182.575
21
-109.844
0
LINE
8
BLACK
6
CONTINUOUS
10
182.575
20
-109.844
11
182.575
21
-110.181
0
LINE
8
BLACK
6
CONTINUOUS
10
182.575
20
-110.181
11
182.565
21
-110.239
0
LINE
8
BLACK
6
CONTINUOUS
10
182.565
20
-110.239
11
182.536
21
-110.29
0
LINE
8
BLACK
6
CONTINUOUS
10
182.536
20
-110.29
11
182.491
21
-110.327
0
LINE
8
BLACK
6
CONTINUOUS
10
182.491
20
-110.327
11
182.406
21
-110.35
0
LINE
8
BLACK
6
CONTINUOUS
10
182.406
20
-110.35
11
181.994
21
-110.35
0
LINE
8
BLACK
6
CONTINUOUS
10
181.994
20
-110.35
11
181.936
21
-110.34
0
LINE
8
BLACK
6
CONTINUOUS
10
181.936
20
-110.34
11
181.885
21
-110.311
0
LINE
8
BLACK
6
CONTINUOUS
10
181.885
20
-110.311
11
181.848
21
-110.266
0
LINE
8
BLACK
6
CONTINUOUS
10
181.848
20
-110.266
11
181.825
21
-110.181
0
LINE
8
BLACK
6
CONTINUOUS
10
181.825
20
-110.181
11
181.825
21
-109.844
0
LINE
8
BLACK
6
CONTINUOUS
10
181.825
20
-109.844
11
181.835
21
-109.786
0
LINE
8
BLACK
6
CONTINUOUS
10
181.835
20
-109.786
11
181.864
21
-109.735
0
LINE
8
BLACK
6
CONTINUOUS
10
181.864
20
-109.735
11
181.909
21
-109.698
0
LINE
8
BLACK
6
CONTINUOUS
10
181.909
20
-109.698
11
181.994
21
-109.675
0
LINE
8
BLACK
6
CONTINUOUS
10
181.994
20
-109.675
11
182.406
21
-109.675
0
LINE
8
BLACK
6
CONTINUOUS
10
182.406
20
-109.675
11
182.464
21
-109.685
0
LINE
8
BLACK
6
CONTINUOUS
10
170.064
20
-109.66
11
170.115
21
-109.689
0
LINE
8
BLACK
6
CONTINUOUS
10
170.115
20
-109.689
11
170.152
21
-109.734
0
LINE
8
BLACK
6
CONTINUOUS
10
170.152
20
-109.734
11
170.175
21
-109.819
0
LINE
8
BLACK
6
CONTINUOUS
10
170.175
20
-109.819
11
170.175
21
-110.156
0
LINE
8
BLACK
6
CONTINUOUS
10
170.175
20
-110.156
11
170.165
21
-110.214
0
LINE
8
BLACK
6
CONTINUOUS
10
170.165
20
-110.214
11
170.136
21
-110.265
0
LINE
8
BLACK
6
CONTINUOUS
10
170.136
20
-110.265
11
170.091
21
-110.302
0
LINE
8
BLACK
6
CONTINUOUS
10
170.091
20
-110.302
11
170.006
21
-110.325
0
LINE
8
BLACK
6
CONTINUOUS
10
170.006
20
-110.325
11
169.594
21
-110.325
0
LINE
8
BLACK
6
CONTINUOUS
10
169.594
20
-110.325
11
169.536
21
-110.315
0
LINE
8
BLACK
6
CONTINUOUS
10
169.536
20
-110.315
11
169.485
21
-110.286
0
LINE
8
BLACK
6
CONTINUOUS
10
169.485
20
-110.286
11
169.448
21
-110.241
0
LINE
8
BLACK
6
CONTINUOUS
10
169.448
20
-110.241
11
169.425
21
-110.156
0
LINE
8
BLACK
6
CONTINUOUS
10
169.425
20
-110.156
11
169.425
21
-109.819
0
LINE
8
BLACK
6
CONTINUOUS
10
169.425
20
-109.819
11
169.435
21
-109.761
0
LINE
8
BLACK
6
CONTINUOUS
10
169.435
20
-109.761
11
169.464
21
-109.71
0
LINE
8
BLACK
6
CONTINUOUS
10
169.464
20
-109.71
11
169.509
21
-109.673
0
LINE
8
BLACK
6
CONTINUOUS
10
169.509
20
-109.673
11
169.594
21
-109.65
0
LINE
8
BLACK
6
CONTINUOUS
10
169.594
20
-109.65
11
170.006
21
-109.65
0
LINE
8
BLACK
6
CONTINUOUS
10
170.006
20
-109.65
11
170.064
21
-109.66
0
LINE
8
BLACK
6
CONTINUOUS
10
172.56
20
-110.28
11
171.16
21
-110.28
0
LINE
8
BLACK
6
CONTINUOUS
10
171.16
20
-110.28
11
171.16
21
-108.88
0
LINE
8
BLACK
6
CONTINUOUS
10
171.16
20
-108.88
11
172.56
21
-108.88
0
LINE
8
BLACK
6
CONTINUOUS
10
172.56
20
-108.88
11
172.56
21
-110.28
0
LINE
8
BLACK
6
CONTINUOUS
10
175.1
20
-110.28
11
173.7
21
-110.28
0
LINE
8
BLACK
6
CONTINUOUS
10
173.7
20
-110.28
11
173.7
21
-108.88
0
LINE
8
BLACK
6
CONTINUOUS
10
173.7
20
-108.88
11
175.1
21
-108.88
0
LINE
8
BLACK
6
CONTINUOUS
10
175.1
20
-108.88
11
175.1
21
-110.28
0
LINE
8
BLACK
6
CONTINUOUS
10
177.64
20
-110.28
11
176.24
21
-110.28
0
LINE
8
BLACK
6
CONTINUOUS
10
176.24
20
-110.28
11
176.24
21
-108.88
0
LINE
8
BLACK
6
CONTINUOUS
10
176.24
20
-108.88
11
177.64
21
-108.88
0
LINE
8
BLACK
6
CONTINUOUS
10
177.64
20
-108.88
11
177.64
21
-110.28
0
LINE
8
BLACK
6
CONTINUOUS
10
180.814
20
-109.235
11
180.865
21
-109.264
0
LINE
8
BLACK
6
CONTINUOUS
10
180.865
20
-109.264
11
180.902
21
-109.309
0
LINE
8
BLACK
6
CONTINUOUS
10
180.902
20
-109.309
11
180.925
21
-109.394
0
LINE
8
BLACK
6
CONTINUOUS
10
180.925
20
-109.394
11
180.925
21
-109.806
0
LINE
8
BLACK
6
CONTINUOUS
10
180.925
20
-109.806
11
180.915
21
-109.864
0
LINE
8
BLACK
6
CONTINUOUS
10
180.915
20
-109.864
11
180.886
21
-109.915
0
LINE
8
BLACK
6
CONTINUOUS
10
180.886
20
-109.915
11
180.841
21
-109.952
0
LINE
8
BLACK
6
CONTINUOUS
10
180.841
20
-109.952
11
180.756
21
-109.975
0
LINE
8
BLACK
6
CONTINUOUS
10
180.756
20
-109.975
11
180.419
21
-109.975
0
LINE
8
BLACK
6
CONTINUOUS
10
180.419
20
-109.975
11
180.361
21
-109.965
0
LINE
8
BLACK
6
CONTINUOUS
10
180.361
20
-109.965
11
180.31
21
-109.936
0
LINE
8
BLACK
6
CONTINUOUS
10
180.31
20
-109.936
11
180.273
21
-109.891
0
LINE
8
BLACK
6
CONTINUOUS
10
180.273
20
-109.891
11
180.25
21
-109.806
0
LINE
8
BLACK
6
CONTINUOUS
10
180.25
20
-109.806
11
180.25
21
-109.394
0
LINE
8
BLACK
6
CONTINUOUS
10
180.25
20
-109.394
11
180.26
21
-109.336
0
LINE
8
BLACK
6
CONTINUOUS
10
180.26
20
-109.336
11
180.289
21
-109.285
0
LINE
8
BLACK
6
CONTINUOUS
10
180.289
20
-109.285
11
180.334
21
-109.248
0
LINE
8
BLACK
6
CONTINUOUS
10
180.334
20
-109.248
11
180.419
21
-109.225
0
LINE
8
BLACK
6
CONTINUOUS
10
180.419
20
-109.225
11
180.756
21
-109.225
0
LINE
8
BLACK
6
CONTINUOUS
10
180.756
20
-109.225
11
180.814
21
-109.235
0
LINE
8
BLACK
6
CONTINUOUS
10
179.239
20
-109.235
11
179.29
21
-109.264
0
LINE
8
BLACK
6
CONTINUOUS
10
179.29
20
-109.264
11
179.327
21
-109.309
0
LINE
8
BLACK
6
CONTINUOUS
10
179.327
20
-109.309
11
179.35
21
-109.394
0
LINE
8
BLACK
6
CONTINUOUS
10
179.35
20
-109.394
11
179.35
21
-109.806
0
LINE
8
BLACK
6
CONTINUOUS
10
179.35
20
-109.806
11
179.34
21
-109.864
0
LINE
8
BLACK
6
CONTINUOUS
10
179.34
20
-109.864
11
179.311
21
-109.915
0
LINE
8
BLACK
6
CONTINUOUS
10
179.311
20
-109.915
11
179.266
21
-109.952
0
LINE
8
BLACK
6
CONTINUOUS
10
179.266
20
-109.952
11
179.181
21
-109.975
0
LINE
8
BLACK
6
CONTINUOUS
10
179.181
20
-109.975
11
178.844
21
-109.975
0
LINE
8
BLACK
6
CONTINUOUS
10
178.844
20
-109.975
11
178.786
21
-109.965
0
LINE
8
BLACK
6
CONTINUOUS
10
178.786
20
-109.965
11
178.735
21
-109.936
0
LINE
8
BLACK
6
CONTINUOUS
10
178.735
20
-109.936
11
178.698
21
-109.891
0
LINE
8
BLACK
6
CONTINUOUS
10
178.698
20
-109.891
11
178.675
21
-109.806
0
LINE
8
BLACK
6
CONTINUOUS
10
178.675
20
-109.806
11
178.675
21
-109.394
0
LINE
8
BLACK
6
CONTINUOUS
10
178.675
20
-109.394
11
178.685
21
-109.336
0
LINE
8
BLACK
6
CONTINUOUS
10
178.685
20
-109.336
11
178.714
21
-109.285
0
LINE
8
BLACK
6
CONTINUOUS
10
178.714
20
-109.285
11
178.759
21
-109.248
0
LINE
8
BLACK
6
CONTINUOUS
10
178.759
20
-109.248
11
178.844
21
-109.225
0
LINE
8
BLACK
6
CONTINUOUS
10
178.844
20
-109.225
11
179.181
21
-109.225
0
LINE
8
BLACK
6
CONTINUOUS
10
179.181
20
-109.225
11
179.239
21
-109.235
0
LINE
8
BLACK
6
CONTINUOUS
10
158.84
20
-109.82
11
157.44
21
-109.82
0
LINE
8
BLACK
6
CONTINUOUS
10
157.44
20
-109.82
11
157.44
21
-108.42
0
LINE
8
BLACK
6
CONTINUOUS
10
157.44
20
-108.42
11
158.84
21
-108.42
0
LINE
8
BLACK
6
CONTINUOUS
10
158.84
20
-108.42
11
158.84
21
-109.82
0
LINE
8
BLACK
6
CONTINUOUS
10
156.3
20
-109.82
11
154.9
21
-109.82
0
LINE
8
BLACK
6
CONTINUOUS
10
154.9
20
-109.82
11
154.9
21
-108.42
0
LINE
8
BLACK
6
CONTINUOUS
10
154.9
20
-108.42
11
156.3
21
-108.42
0
LINE
8
BLACK
6
CONTINUOUS
10
156.3
20
-108.42
11
156.3
21
-109.82
0
LINE
8
BLACK
6
CONTINUOUS
10
153.76
20
-109.82
11
152.36
21
-109.82
0
LINE
8
BLACK
6
CONTINUOUS
10
152.36
20
-109.82
11
152.36
21
-108.42
0
LINE
8
BLACK
6
CONTINUOUS
10
152.36
20
-108.42
11
153.76
21
-108.42
0
LINE
8
BLACK
6
CONTINUOUS
10
153.76
20
-108.42
11
153.76
21
-109.82
0
LINE
8
BLACK
6
CONTINUOUS
10
151.264
20
-108.86
11
151.315
21
-108.889
0
LINE
8
BLACK
6
CONTINUOUS
10
151.315
20
-108.889
11
151.352
21
-108.934
0
LINE
8
BLACK
6
CONTINUOUS
10
151.352
20
-108.934
11
151.375
21
-109.019
0
LINE
8
BLACK
6
CONTINUOUS
10
151.375
20
-109.019
11
151.375
21
-109.356
0
LINE
8
BLACK
6
CONTINUOUS
10
151.375
20
-109.356
11
151.365
21
-109.414
0
LINE
8
BLACK
6
CONTINUOUS
10
151.365
20
-109.414
11
151.336
21
-109.465
0
LINE
8
BLACK
6
CONTINUOUS
10
151.336
20
-109.465
11
151.291
21
-109.502
0
LINE
8
BLACK
6
CONTINUOUS
10
151.291
20
-109.502
11
151.206
21
-109.525
0
LINE
8
BLACK
6
CONTINUOUS
10
151.206
20
-109.525
11
150.794
21
-109.525
0
LINE
8
BLACK
6
CONTINUOUS
10
150.794
20
-109.525
11
150.736
21
-109.515
0
LINE
8
BLACK
6
CONTINUOUS
10
150.736
20
-109.515
11
150.685
21
-109.486
0
LINE
8
BLACK
6
CONTINUOUS
10
150.685
20
-109.486
11
150.648
21
-109.441
0
LINE
8
BLACK
6
CONTINUOUS
10
150.648
20
-109.441
11
150.625
21
-109.356
0
LINE
8
BLACK
6
CONTINUOUS
10
150.625
20
-109.356
11
150.625
21
-109.019
0
LINE
8
BLACK
6
CONTINUOUS
10
150.625
20
-109.019
11
150.635
21
-108.961
0
LINE
8
BLACK
6
CONTINUOUS
10
150.635
20
-108.961
11
150.664
21
-108.91
0
LINE
8
BLACK
6
CONTINUOUS
10
150.664
20
-108.91
11
150.709
21
-108.873
0
LINE
8
BLACK
6
CONTINUOUS
10
150.709
20
-108.873
11
150.794
21
-108.85
0
LINE
8
BLACK
6
CONTINUOUS
10
150.794
20
-108.85
11
151.206
21
-108.85
0
LINE
8
BLACK
6
CONTINUOUS
10
151.206
20
-108.85
11
151.264
21
-108.86
0
LINE
8
BLACK
6
CONTINUOUS
10
193.714
20
-108.335
11
193.765
21
-108.364
0
LINE
8
BLACK
6
CONTINUOUS
10
193.765
20
-108.364
11
193.802
21
-108.409
0
LINE
8
BLACK
6
CONTINUOUS
10
193.802
20
-108.409
11
193.825
21
-108.494
0
LINE
8
BLACK
6
CONTINUOUS
10
193.825
20
-108.494
11
193.825
21
-108.906
0
LINE
8
BLACK
6
CONTINUOUS
10
193.825
20
-108.906
11
193.815
21
-108.964
0
LINE
8
BLACK
6
CONTINUOUS
10
193.815
20
-108.964
11
193.786
21
-109.015
0
LINE
8
BLACK
6
CONTINUOUS
10
193.786
20
-109.015
11
193.741
21
-109.052
0
LINE
8
BLACK
6
CONTINUOUS
10
193.741
20
-109.052
11
193.656
21
-109.075
0
LINE
8
BLACK
6
CONTINUOUS
10
193.656
20
-109.075
11
193.319
21
-109.075
0
LINE
8
BLACK
6
CONTINUOUS
10
193.319
20
-109.075
11
193.261
21
-109.065
0
LINE
8
BLACK
6
CONTINUOUS
10
193.261
20
-109.065
11
193.21
21
-109.036
0
LINE
8
BLACK
6
CONTINUOUS
10
193.21
20
-109.036
11
193.173
21
-108.991
0
LINE
8
BLACK
6
CONTINUOUS
10
193.173
20
-108.991
11
193.15
21
-108.906
0
LINE
8
BLACK
6
CONTINUOUS
10
193.15
20
-108.906
11
193.15
21
-108.494
0
LINE
8
BLACK
6
CONTINUOUS
10
193.15
20
-108.494
11
193.16
21
-108.436
0
LINE
8
BLACK
6
CONTINUOUS
10
193.16
20
-108.436
11
193.189
21
-108.385
0
LINE
8
BLACK
6
CONTINUOUS
10
193.189
20
-108.385
11
193.234
21
-108.348
0
LINE
8
BLACK
6
CONTINUOUS
10
193.234
20
-108.348
11
193.319
21
-108.325
0
LINE
8
BLACK
6
CONTINUOUS
10
193.319
20
-108.325
11
193.656
21
-108.325
0
LINE
8
BLACK
6
CONTINUOUS
10
193.656
20
-108.325
11
193.714
21
-108.335
0
LINE
8
BLACK
6
CONTINUOUS
10
192.139
20
-108.335
11
192.19
21
-108.364
0
LINE
8
BLACK
6
CONTINUOUS
10
192.19
20
-108.364
11
192.227
21
-108.409
0
LINE
8
BLACK
6
CONTINUOUS
10
192.227
20
-108.409
11
192.25
21
-108.494
0
LINE
8
BLACK
6
CONTINUOUS
10
192.25
20
-108.494
11
192.25
21
-108.906
0
LINE
8
BLACK
6
CONTINUOUS
10
192.25
20
-108.906
11
192.24
21
-108.964
0
LINE
8
BLACK
6
CONTINUOUS
10
192.24
20
-108.964
11
192.211
21
-109.015
0
LINE
8
BLACK
6
CONTINUOUS
10
192.211
20
-109.015
11
192.166
21
-109.052
0
LINE
8
BLACK
6
CONTINUOUS
10
192.166
20
-109.052
11
192.081
21
-109.075
0
LINE
8
BLACK
6
CONTINUOUS
10
192.081
20
-109.075
11
191.744
21
-109.075
0
LINE
8
BLACK
6
CONTINUOUS
10
191.744
20
-109.075
11
191.686
21
-109.065
0
LINE
8
BLACK
6
CONTINUOUS
10
191.686
20
-109.065
11
191.635
21
-109.036
0
LINE
8
BLACK
6
CONTINUOUS
10
191.635
20
-109.036
11
191.598
21
-108.991
0
LINE
8
BLACK
6
CONTINUOUS
10
191.598
20
-108.991
11
191.575
21
-108.906
0
LINE
8
BLACK
6
CONTINUOUS
10
191.575
20
-108.906
11
191.575
21
-108.494
0
LINE
8
BLACK
6
CONTINUOUS
10
191.575
20
-108.494
11
191.585
21
-108.436
0
LINE
8
BLACK
6
CONTINUOUS
10
191.585
20
-108.436
11
191.614
21
-108.385
0
LINE
8
BLACK
6
CONTINUOUS
10
191.614
20
-108.385
11
191.659
21
-108.348
0
LINE
8
BLACK
6
CONTINUOUS
10
191.659
20
-108.348
11
191.744
21
-108.325
0
LINE
8
BLACK
6
CONTINUOUS
10
191.744
20
-108.325
11
192.081
21
-108.325
0
LINE
8
BLACK
6
CONTINUOUS
10
192.081
20
-108.325
11
192.139
21
-108.335
0
LINE
8
BLACK
6
CONTINUOUS
10
189.7
20
-108.95
11
186.65
21
-108.95
0
LINE
8
BLACK
6
CONTINUOUS
10
186.65
20
-108.95
11
186.65
21
-106.2
0
LINE
8
BLACK
6
CONTINUOUS
10
186.65
20
-106.2
11
189.7
21
-106.2
0
LINE
8
BLACK
6
CONTINUOUS
10
189.7
20
-106.2
11
189.7
21
-108.95
0
LINE
8
BLACK
6
CONTINUOUS
10
186.35
20
-108.95
11
183.3
21
-108.95
0
LINE
8
BLACK
6
CONTINUOUS
10
183.3
20
-108.95
11
183.3
21
-106.2
0
LINE
8
BLACK
6
CONTINUOUS
10
183.3
20
-106.2
11
186.35
21
-106.2
0
LINE
8
BLACK
6
CONTINUOUS
10
186.35
20
-106.2
11
186.35
21
-108.95
0
LINE
8
BLACK
6
CONTINUOUS
10
170.064
20
-108.085
11
170.115
21
-108.114
0
LINE
8
BLACK
6
CONTINUOUS
10
170.115
20
-108.114
11
170.152
21
-108.159
0
LINE
8
BLACK
6
CONTINUOUS
10
170.152
20
-108.159
11
170.175
21
-108.244
0
LINE
8
BLACK
6
CONTINUOUS
10
170.175
20
-108.244
11
170.175
21
-108.581
0
LINE
8
BLACK
6
CONTINUOUS
10
170.175
20
-108.581
11
170.165
21
-108.639
0
LINE
8
BLACK
6
CONTINUOUS
10
170.165
20
-108.639
11
170.136
21
-108.69
0
LINE
8
BLACK
6
CONTINUOUS
10
170.136
20
-108.69
11
170.091
21
-108.727
0
LINE
8
BLACK
6
CONTINUOUS
10
170.091
20
-108.727
11
170.006
21
-108.75
0
LINE
8
BLACK
6
CONTINUOUS
10
170.006
20
-108.75
11
169.594
21
-108.75
0
LINE
8
BLACK
6
CONTINUOUS
10
169.594
20
-108.75
11
169.536
21
-108.74
0
LINE
8
BLACK
6
CONTINUOUS
10
169.536
20
-108.74
11
169.485
21
-108.711
0
LINE
8
BLACK
6
CONTINUOUS
10
169.485
20
-108.711
11
169.448
21
-108.666
0
LINE
8
BLACK
6
CONTINUOUS
10
169.448
20
-108.666
11
169.425
21
-108.581
0
LINE
8
BLACK
6
CONTINUOUS
10
169.425
20
-108.581
11
169.425
21
-108.244
0
LINE
8
BLACK
6
CONTINUOUS
10
169.425
20
-108.244
11
169.435
21
-108.186
0
LINE
8
BLACK
6
CONTINUOUS
10
169.435
20
-108.186
11
169.464
21
-108.135
0
LINE
8
BLACK
6
CONTINUOUS
10
169.464
20
-108.135
11
169.509
21
-108.098
0
LINE
8
BLACK
6
CONTINUOUS
10
169.509
20
-108.098
11
169.594
21
-108.075
0
LINE
8
BLACK
6
CONTINUOUS
10
169.594
20
-108.075
11
170.006
21
-108.075
0
LINE
8
BLACK
6
CONTINUOUS
10
170.006
20
-108.075
11
170.064
21
-108.085
0
LINE
8
BLACK
6
CONTINUOUS
10
179.239
20
-107.635
11
179.29
21
-107.664
0
LINE
8
BLACK
6
CONTINUOUS
10
179.29
20
-107.664
11
179.327
21
-107.709
0
LINE
8
BLACK
6
CONTINUOUS
10
179.327
20
-107.709
11
179.35
21
-107.794
0
LINE
8
BLACK
6
CONTINUOUS
10
179.35
20
-107.794
11
179.35
21
-108.206
0
LINE
8
BLACK
6
CONTINUOUS
10
179.35
20
-108.206
11
179.34
21
-108.264
0
LINE
8
BLACK
6
CONTINUOUS
10
179.34
20
-108.264
11
179.311
21
-108.315
0
LINE
8
BLACK
6
CONTINUOUS
10
179.311
20
-108.315
11
179.266
21
-108.352
0
LINE
8
BLACK
6
CONTINUOUS
10
179.266
20
-108.352
11
179.181
21
-108.375
0
LINE
8
BLACK
6
CONTINUOUS
10
179.181
20
-108.375
11
178.844
21
-108.375
0
LINE
8
BLACK
6
CONTINUOUS
10
178.844
20
-108.375
11
178.786
21
-108.365
0
LINE
8
BLACK
6
CONTINUOUS
10
178.786
20
-108.365
11
178.735
21
-108.336
0
LINE
8
BLACK
6
CONTINUOUS
10
178.735
20
-108.336
11
178.698
21
-108.291
0
LINE
8
BLACK
6
CONTINUOUS
10
178.698
20
-108.291
11
178.675
21
-108.206
0
LINE
8
BLACK
6
CONTINUOUS
10
178.675
20
-108.206
11
178.675
21
-107.794
0
LINE
8
BLACK
6
CONTINUOUS
10
178.675
20
-107.794
11
178.685
21
-107.736
0
LINE
8
BLACK
6
CONTINUOUS
10
178.685
20
-107.736
11
178.714
21
-107.685
0
LINE
8
BLACK
6
CONTINUOUS
10
178.714
20
-107.685
11
178.759
21
-107.648
0
LINE
8
BLACK
6
CONTINUOUS
10
178.759
20
-107.648
11
178.844
21
-107.625
0
LINE
8
BLACK
6
CONTINUOUS
10
178.844
20
-107.625
11
179.181
21
-107.625
0
LINE
8
BLACK
6
CONTINUOUS
10
179.181
20
-107.625
11
179.239
21
-107.635
0
LINE
8
BLACK
6
CONTINUOUS
10
180.814
20
-107.635
11
180.865
21
-107.664
0
LINE
8
BLACK
6
CONTINUOUS
10
180.865
20
-107.664
11
180.902
21
-107.709
0
LINE
8
BLACK
6
CONTINUOUS
10
180.902
20
-107.709
11
180.925
21
-107.794
0
LINE
8
BLACK
6
CONTINUOUS
10
180.925
20
-107.794
11
180.925
21
-108.206
0
LINE
8
BLACK
6
CONTINUOUS
10
180.925
20
-108.206
11
180.915
21
-108.264
0
LINE
8
BLACK
6
CONTINUOUS
10
180.915
20
-108.264
11
180.886
21
-108.315
0
LINE
8
BLACK
6
CONTINUOUS
10
180.886
20
-108.315
11
180.841
21
-108.352
0
LINE
8
BLACK
6
CONTINUOUS
10
180.841
20
-108.352
11
180.756
21
-108.375
0
LINE
8
BLACK
6
CONTINUOUS
10
180.756
20
-108.375
11
180.419
21
-108.375
0
LINE
8
BLACK
6
CONTINUOUS
10
180.419
20
-108.375
11
180.361
21
-108.365
0
LINE
8
BLACK
6
CONTINUOUS
10
180.361
20
-108.365
11
180.31
21
-108.336
0
LINE
8
BLACK
6
CONTINUOUS
10
180.31
20
-108.336
11
180.273
21
-108.291
0
LINE
8
BLACK
6
CONTINUOUS
10
180.273
20
-108.291
11
180.25
21
-108.206
0
LINE
8
BLACK
6
CONTINUOUS
10
180.25
20
-108.206
11
180.25
21
-107.794
0
LINE
8
BLACK
6
CONTINUOUS
10
180.25
20
-107.794
11
180.26
21
-107.736
0
LINE
8
BLACK
6
CONTINUOUS
10
180.26
20
-107.736
11
180.289
21
-107.685
0
LINE
8
BLACK
6
CONTINUOUS
10
180.289
20
-107.685
11
180.334
21
-107.648
0
LINE
8
BLACK
6
CONTINUOUS
10
180.334
20
-107.648
11
180.419
21
-107.625
0
LINE
8
BLACK
6
CONTINUOUS
10
180.419
20
-107.625
11
180.756
21
-107.625
0
LINE
8
BLACK
6
CONTINUOUS
10
180.756
20
-107.625
11
180.814
21
-107.635
0
LINE
8
BLACK
6
CONTINUOUS
10
151.264
20
-107.285
11
151.315
21
-107.314
0
LINE
8
BLACK
6
CONTINUOUS
10
151.315
20
-107.314
11
151.352
21
-107.359
0
LINE
8
BLACK
6
CONTINUOUS
10
151.352
20
-107.359
11
151.375
21
-107.444
0
LINE
8
BLACK
6
CONTINUOUS
10
151.375
20
-107.444
11
151.375
21
-107.781
0
LINE
8
BLACK
6
CONTINUOUS
10
151.375
20
-107.781
11
151.365
21
-107.839
0
LINE
8
BLACK
6
CONTINUOUS
10
151.365
20
-107.839
11
151.336
21
-107.89
0
LINE
8
BLACK
6
CONTINUOUS
10
151.336
20
-107.89
11
151.291
21
-107.927
0
LINE
8
BLACK
6
CONTINUOUS
10
151.291
20
-107.927
11
151.206
21
-107.95
0
LINE
8
BLACK
6
CONTINUOUS
10
151.206
20
-107.95
11
150.794
21
-107.95
0
LINE
8
BLACK
6
CONTINUOUS
10
150.794
20
-107.95
11
150.736
21
-107.94
0
LINE
8
BLACK
6
CONTINUOUS
10
150.736
20
-107.94
11
150.685
21
-107.911
0
LINE
8
BLACK
6
CONTINUOUS
10
150.685
20
-107.911
11
150.648
21
-107.866
0
LINE
8
BLACK
6
CONTINUOUS
10
150.648
20
-107.866
11
150.625
21
-107.781
0
LINE
8
BLACK
6
CONTINUOUS
10
150.625
20
-107.781
11
150.625
21
-107.444
0
LINE
8
BLACK
6
CONTINUOUS
10
150.625
20
-107.444
11
150.635
21
-107.386
0
LINE
8
BLACK
6
CONTINUOUS
10
150.635
20
-107.386
11
150.664
21
-107.335
0
LINE
8
BLACK
6
CONTINUOUS
10
150.664
20
-107.335
11
150.709
21
-107.298
0
LINE
8
BLACK
6
CONTINUOUS
10
150.709
20
-107.298
11
150.794
21
-107.275
0
LINE
8
BLACK
6
CONTINUOUS
10
150.794
20
-107.275
11
151.206
21
-107.275
0
LINE
8
BLACK
6
CONTINUOUS
10
151.206
20
-107.275
11
151.264
21
-107.285
0
LINE
8
BLACK
6
CONTINUOUS
10
153.89
20
-107.43
11
153.19
21
-107.43
0
LINE
8
BLACK
6
CONTINUOUS
10
153.19
20
-107.43
11
153.19
21
-106.83
0
LINE
8
BLACK
6
CONTINUOUS
10
153.19
20
-106.83
11
153.89
21
-106.83
0
LINE
8
BLACK
6
CONTINUOUS
10
153.89
20
-106.83
11
153.89
21
-107.43
0
LINE
8
BLACK
6
CONTINUOUS
10
158.739
20
-106.635
11
158.79
21
-106.664
0
LINE
8
BLACK
6
CONTINUOUS
10
158.79
20
-106.664
11
158.827
21
-106.709
0
LINE
8
BLACK
6
CONTINUOUS
10
158.827
20
-106.709
11
158.85
21
-106.794
0
LINE
8
BLACK
6
CONTINUOUS
10
158.85
20
-106.794
11
158.85
21
-107.206
0
LINE
8
BLACK
6
CONTINUOUS
10
158.85
20
-107.206
11
158.84
21
-107.264
0
LINE
8
BLACK
6
CONTINUOUS
10
158.84
20
-107.264
11
158.811
21
-107.315
0
LINE
8
BLACK
6
CONTINUOUS
10
158.811
20
-107.315
11
158.766
21
-107.352
0
LINE
8
BLACK
6
CONTINUOUS
10
158.766
20
-107.352
11
158.681
21
-107.375
0
LINE
8
BLACK
6
CONTINUOUS
10
158.681
20
-107.375
11
158.344
21
-107.375
0
LINE
8
BLACK
6
CONTINUOUS
10
158.344
20
-107.375
11
158.286
21
-107.365
0
LINE
8
BLACK
6
CONTINUOUS
10
158.286
20
-107.365
11
158.235
21
-107.336
0
LINE
8
BLACK
6
CONTINUOUS
10
158.235
20
-107.336
11
158.198
21
-107.291
0
LINE
8
BLACK
6
CONTINUOUS
10
158.198
20
-107.291
11
158.175
21
-107.206
0
LINE
8
BLACK
6
CONTINUOUS
10
158.175
20
-107.206
11
158.175
21
-106.794
0
LINE
8
BLACK
6
CONTINUOUS
10
158.175
20
-106.794
11
158.185
21
-106.736
0
LINE
8
BLACK
6
CONTINUOUS
10
158.185
20
-106.736
11
158.214
21
-106.685
0
LINE
8
BLACK
6
CONTINUOUS
10
158.214
20
-106.685
11
158.259
21
-106.648
0
LINE
8
BLACK
6
CONTINUOUS
10
158.259
20
-106.648
11
158.344
21
-106.625
0
LINE
8
BLACK
6
CONTINUOUS
10
158.344
20
-106.625
11
158.681
21
-106.625
0
LINE
8
BLACK
6
CONTINUOUS
10
158.681
20
-106.625
11
158.739
21
-106.635
0
LINE
8
BLACK
6
CONTINUOUS
10
160.314
20
-106.635
11
160.365
21
-106.664
0
LINE
8
BLACK
6
CONTINUOUS
10
160.365
20
-106.664
11
160.402
21
-106.709
0
LINE
8
BLACK
6
CONTINUOUS
10
160.402
20
-106.709
11
160.425
21
-106.794
0
LINE
8
BLACK
6
CONTINUOUS
10
160.425
20
-106.794
11
160.425
21
-107.206
0
LINE
8
BLACK
6
CONTINUOUS
10
160.425
20
-107.206
11
160.415
21
-107.264
0
LINE
8
BLACK
6
CONTINUOUS
10
160.415
20
-107.264
11
160.386
21
-107.315
0
LINE
8
BLACK
6
CONTINUOUS
10
160.386
20
-107.315
11
160.341
21
-107.352
0
LINE
8
BLACK
6
CONTINUOUS
10
160.341
20
-107.352
11
160.256
21
-107.375
0
LINE
8
BLACK
6
CONTINUOUS
10
160.256
20
-107.375
11
159.919
21
-107.375
0
LINE
8
BLACK
6
CONTINUOUS
10
159.919
20
-107.375
11
159.861
21
-107.365
0
LINE
8
BLACK
6
CONTINUOUS
10
159.861
20
-107.365
11
159.81
21
-107.336
0
LINE
8
BLACK
6
CONTINUOUS
10
159.81
20
-107.336
11
159.773
21
-107.291
0
LINE
8
BLACK
6
CONTINUOUS
10
159.773
20
-107.291
11
159.75
21
-107.206
0
LINE
8
BLACK
6
CONTINUOUS
10
159.75
20
-107.206
11
159.75
21
-106.794
0
LINE
8
BLACK
6
CONTINUOUS
10
159.75
20
-106.794
11
159.76
21
-106.736
0
LINE
8
BLACK
6
CONTINUOUS
10
159.76
20
-106.736
11
159.789
21
-106.685
0
LINE
8
BLACK
6
CONTINUOUS
10
159.789
20
-106.685
11
159.834
21
-106.648
0
LINE
8
BLACK
6
CONTINUOUS
10
159.834
20
-106.648
11
159.919
21
-106.625
0
LINE
8
BLACK
6
CONTINUOUS
10
159.919
20
-106.625
11
160.256
21
-106.625
0
LINE
8
BLACK
6
CONTINUOUS
10
160.256
20
-106.625
11
160.314
21
-106.635
0
LINE
8
BLACK
6
CONTINUOUS
10
157.164
20
-106.66
11
157.215
21
-106.689
0
LINE
8
BLACK
6
CONTINUOUS
10
157.215
20
-106.689
11
157.252
21
-106.734
0
LINE
8
BLACK
6
CONTINUOUS
10
157.252
20
-106.734
11
157.275
21
-106.819
0
LINE
8
BLACK
6
CONTINUOUS
10
157.275
20
-106.819
11
157.275
21
-107.156
0
LINE
8
BLACK
6
CONTINUOUS
10
157.275
20
-107.156
11
157.265
21
-107.214
0
LINE
8
BLACK
6
CONTINUOUS
10
157.265
20
-107.214
11
157.236
21
-107.265
0
LINE
8
BLACK
6
CONTINUOUS
10
157.236
20
-107.265
11
157.191
21
-107.302
0
LINE
8
BLACK
6
CONTINUOUS
10
157.191
20
-107.302
11
157.106
21
-107.325
0
LINE
8
BLACK
6
CONTINUOUS
10
157.106
20
-107.325
11
156.694
21
-107.325
0
LINE
8
BLACK
6
CONTINUOUS
10
156.694
20
-107.325
11
156.636
21
-107.315
0
LINE
8
BLACK
6
CONTINUOUS
10
156.636
20
-107.315
11
156.585
21
-107.286
0
LINE
8
BLACK
6
CONTINUOUS
10
156.585
20
-107.286
11
156.548
21
-107.241
0
LINE
8
BLACK
6
CONTINUOUS
10
156.548
20
-107.241
11
156.525
21
-107.156
0
LINE
8
BLACK
6
CONTINUOUS
10
156.525
20
-107.156
11
156.525
21
-106.819
0
LINE
8
BLACK
6
CONTINUOUS
10
156.525
20
-106.819
11
156.535
21
-106.761
0
LINE
8
BLACK
6
CONTINUOUS
10
156.535
20
-106.761
11
156.564
21
-106.71
0
LINE
8
BLACK
6
CONTINUOUS
10
156.564
20
-106.71
11
156.609
21
-106.673
0
LINE
8
BLACK
6
CONTINUOUS
10
156.609
20
-106.673
11
156.694
21
-106.65
0
LINE
8
BLACK
6
CONTINUOUS
10
156.694
20
-106.65
11
157.106
21
-106.65
0
LINE
8
BLACK
6
CONTINUOUS
10
157.106
20
-106.65
11
157.164
21
-106.66
0
LINE
8
BLACK
6
CONTINUOUS
10
193.8
20
-107.32
11
191.8
21
-107.32
0
LINE
8
BLACK
6
CONTINUOUS
10
191.8
20
-107.32
11
191.8
21
-106.32
0
LINE
8
BLACK
6
CONTINUOUS
10
191.8
20
-106.32
11
193.8
21
-106.32
0
LINE
8
BLACK
6
CONTINUOUS
10
193.8
20
-106.32
11
193.8
21
-107.32
0
LINE
8
BLACK
6
CONTINUOUS
10
155.404
20
-106.64
11
155.455
21
-106.669
0
LINE
8
BLACK
6
CONTINUOUS
10
155.455
20
-106.669
11
155.493
21
-106.714
0
LINE
8
BLACK
6
CONTINUOUS
10
155.493
20
-106.714
11
155.515
21
-106.798
0
LINE
8
BLACK
6
CONTINUOUS
10
155.515
20
-106.798
11
155.515
21
-107.136
0
LINE
8
BLACK
6
CONTINUOUS
10
155.515
20
-107.136
11
155.505
21
-107.194
0
LINE
8
BLACK
6
CONTINUOUS
10
155.505
20
-107.194
11
155.476
21
-107.244
0
LINE
8
BLACK
6
CONTINUOUS
10
155.476
20
-107.244
11
155.431
21
-107.282
0
LINE
8
BLACK
6
CONTINUOUS
10
155.431
20
-107.282
11
155.346
21
-107.305
0
LINE
8
BLACK
6
CONTINUOUS
10
155.346
20
-107.305
11
154.934
21
-107.305
0
LINE
8
BLACK
6
CONTINUOUS
10
154.934
20
-107.305
11
154.876
21
-107.294
0
LINE
8
BLACK
6
CONTINUOUS
10
154.876
20
-107.294
11
154.825
21
-107.265
0
LINE
8
BLACK
6
CONTINUOUS
10
154.825
20
-107.265
11
154.788
21
-107.22
0
LINE
8
BLACK
6
CONTINUOUS
10
154.788
20
-107.22
11
154.765
21
-107.136
0
LINE
8
BLACK
6
CONTINUOUS
10
154.765
20
-107.136
11
154.765
21
-106.798
0
LINE
8
BLACK
6
CONTINUOUS
10
154.765
20
-106.798
11
154.775
21
-106.741
0
LINE
8
BLACK
6
CONTINUOUS
10
154.775
20
-106.741
11
154.805
21
-106.69
0
LINE
8
BLACK
6
CONTINUOUS
10
154.805
20
-106.69
11
154.85
21
-106.652
0
LINE
8
BLACK
6
CONTINUOUS
10
154.85
20
-106.652
11
154.934
21
-106.63
0
LINE
8
BLACK
6
CONTINUOUS
10
154.934
20
-106.63
11
155.346
21
-106.63
0
LINE
8
BLACK
6
CONTINUOUS
10
155.346
20
-106.63
11
155.404
21
-106.64
0
LINE
8
BLACK
6
CONTINUOUS
10
180.826
20
-104.939
11
180.894
21
-104.978
0
LINE
8
BLACK
6
CONTINUOUS
10
180.894
20
-104.978
11
180.945
21
-105.038
0
LINE
8
BLACK
6
CONTINUOUS
10
180.945
20
-105.038
11
180.975
21
-105.151
0
LINE
8
BLACK
6
CONTINUOUS
10
180.975
20
-105.151
11
180.975
21
-106.574
0
LINE
8
BLACK
6
CONTINUOUS
10
180.975
20
-106.574
11
180.961
21
-106.651
0
LINE
8
BLACK
6
CONTINUOUS
10
180.961
20
-106.651
11
180.922
21
-106.719
0
LINE
8
BLACK
6
CONTINUOUS
10
180.922
20
-106.719
11
180.862
21
-106.77
0
LINE
8
BLACK
6
CONTINUOUS
10
180.862
20
-106.77
11
180.749
21
-106.8
0
LINE
8
BLACK
6
CONTINUOUS
10
180.749
20
-106.8
11
179.051
21
-106.8
0
LINE
8
BLACK
6
CONTINUOUS
10
179.051
20
-106.8
11
178.974
21
-106.786
0
LINE
8
BLACK
6
CONTINUOUS
10
178.974
20
-106.786
11
178.906
21
-106.747
0
LINE
8
BLACK
6
CONTINUOUS
10
178.906
20
-106.747
11
178.855
21
-106.687
0
LINE
8
BLACK
6
CONTINUOUS
10
178.855
20
-106.687
11
178.825
21
-106.574
0
LINE
8
BLACK
6
CONTINUOUS
10
178.825
20
-106.574
11
178.825
21
-105.151
0
LINE
8
BLACK
6
CONTINUOUS
10
178.825
20
-105.151
11
178.839
21
-105.074
0
LINE
8
BLACK
6
CONTINUOUS
10
178.839
20
-105.074
11
178.878
21
-105.006
0
LINE
8
BLACK
6
CONTINUOUS
10
178.878
20
-105.006
11
178.938
21
-104.955
0
LINE
8
BLACK
6
CONTINUOUS
10
178.938
20
-104.955
11
179.051
21
-104.925
0
LINE
8
BLACK
6
CONTINUOUS
10
179.051
20
-104.925
11
180.749
21
-104.925
0
LINE
8
BLACK
6
CONTINUOUS
10
180.749
20
-104.925
11
180.826
21
-104.939
0
LINE
8
BLACK
6
CONTINUOUS
10
151.89
20
-106.48
11
151.19
21
-106.48
0
LINE
8
BLACK
6
CONTINUOUS
10
151.19
20
-106.48
11
151.19
21
-105.88
0
LINE
8
BLACK
6
CONTINUOUS
10
151.19
20
-105.88
11
151.89
21
-105.88
0
LINE
8
BLACK
6
CONTINUOUS
10
151.89
20
-105.88
11
151.89
21
-106.48
0
LINE
8
BLACK
6
CONTINUOUS
10
157.164
20
-105.085
11
157.215
21
-105.114
0
LINE
8
BLACK
6
CONTINUOUS
10
157.215
20
-105.114
11
157.252
21
-105.159
0
LINE
8
BLACK
6
CONTINUOUS
10
157.252
20
-105.159
11
157.275
21
-105.244
0
LINE
8
BLACK
6
CONTINUOUS
10
157.275
20
-105.244
11
157.275
21
-105.581
0
LINE
8
BLACK
6
CONTINUOUS
10
157.275
20
-105.581
11
157.265
21
-105.639
0
LINE
8
BLACK
6
CONTINUOUS
10
157.265
20
-105.639
11
157.236
21
-105.69
0
LINE
8
BLACK
6
CONTINUOUS
10
157.236
20
-105.69
11
157.191
21
-105.727
0
LINE
8
BLACK
6
CONTINUOUS
10
157.191
20
-105.727
11
157.106
21
-105.75
0
LINE
8
BLACK
6
CONTINUOUS
10
157.106
20
-105.75
11
156.694
21
-105.75
0
LINE
8
BLACK
6
CONTINUOUS
10
156.694
20
-105.75
11
156.636
21
-105.74
0
LINE
8
BLACK
6
CONTINUOUS
10
156.636
20
-105.74
11
156.585
21
-105.711
0
LINE
8
BLACK
6
CONTINUOUS
10
156.585
20
-105.711
11
156.548
21
-105.666
0
LINE
8
BLACK
6
CONTINUOUS
10
156.548
20
-105.666
11
156.525
21
-105.581
0
LINE
8
BLACK
6
CONTINUOUS
10
156.525
20
-105.581
11
156.525
21
-105.244
0
LINE
8
BLACK
6
CONTINUOUS
10
156.525
20
-105.244
11
156.535
21
-105.186
0
LINE
8
BLACK
6
CONTINUOUS
10
156.535
20
-105.186
11
156.564
21
-105.135
0
LINE
8
BLACK
6
CONTINUOUS
10
156.564
20
-105.135
11
156.609
21
-105.098
0
LINE
8
BLACK
6
CONTINUOUS
10
156.609
20
-105.098
11
156.694
21
-105.075
0
LINE
8
BLACK
6
CONTINUOUS
10
156.694
20
-105.075
11
157.106
21
-105.075
0
LINE
8
BLACK
6
CONTINUOUS
10
157.106
20
-105.075
11
157.164
21
-105.085
0
LINE
8
BLACK
6
CONTINUOUS
10
155.404
20
-105.065
11
155.455
21
-105.094
0
LINE
8
BLACK
6
CONTINUOUS
10
155.455
20
-105.094
11
155.493
21
-105.139
0
LINE
8
BLACK
6
CONTINUOUS
10
155.493
20
-105.139
11
155.515
21
-105.223
0
LINE
8
BLACK
6
CONTINUOUS
10
155.515
20
-105.223
11
155.515
21
-105.561
0
LINE
8
BLACK
6
CONTINUOUS
10
155.515
20
-105.561
11
155.505
21
-105.619
0
LINE
8
BLACK
6
CONTINUOUS
10
155.505
20
-105.619
11
155.476
21
-105.669
0
LINE
8
BLACK
6
CONTINUOUS
10
155.476
20
-105.669
11
155.431
21
-105.707
0
LINE
8
BLACK
6
CONTINUOUS
10
155.431
20
-105.707
11
155.346
21
-105.73
0
LINE
8
BLACK
6
CONTINUOUS
10
155.346
20
-105.73
11
154.934
21
-105.73
0
LINE
8
BLACK
6
CONTINUOUS
10
154.934
20
-105.73
11
154.876
21
-105.719
0
LINE
8
BLACK
6
CONTINUOUS
10
154.876
20
-105.719
11
154.825
21
-105.69
0
LINE
8
BLACK
6
CONTINUOUS
10
154.825
20
-105.69
11
154.788
21
-105.645
0
LINE
8
BLACK
6
CONTINUOUS
10
154.788
20
-105.645
11
154.765
21
-105.561
0
LINE
8
BLACK
6
CONTINUOUS
10
154.765
20
-105.561
11
154.765
21
-105.223
0
LINE
8
BLACK
6
CONTINUOUS
10
154.765
20
-105.223
11
154.775
21
-105.166
0
LINE
8
BLACK
6
CONTINUOUS
10
154.775
20
-105.166
11
154.805
21
-105.115
0
LINE
8
BLACK
6
CONTINUOUS
10
154.805
20
-105.115
11
154.85
21
-105.077
0
LINE
8
BLACK
6
CONTINUOUS
10
154.85
20
-105.077
11
154.934
21
-105.055
0
LINE
8
BLACK
6
CONTINUOUS
10
154.934
20
-105.055
11
155.346
21
-105.055
0
LINE
8
BLACK
6
CONTINUOUS
10
155.346
20
-105.055
11
155.404
21
-105.065
0
LINE
8
BLACK
6
CONTINUOUS
10
164.95
20
-105.625
11
164.55
21
-105.625
0
LINE
8
BLACK
6
CONTINUOUS
10
164.55
20
-105.625
11
164.55
21
-105.375
0
LINE
8
BLACK
6
CONTINUOUS
10
164.55
20
-105.375
11
164.95
21
-105.375
0
LINE
8
BLACK
6
CONTINUOUS
10
164.95
20
-105.375
11
164.95
21
-105.625
0
LINE
8
BLACK
6
CONTINUOUS
10
167.05
20
-105.625
11
166.65
21
-105.625
0
LINE
8
BLACK
6
CONTINUOUS
10
166.65
20
-105.625
11
166.65
21
-105.375
0
LINE
8
BLACK
6
CONTINUOUS
10
166.65
20
-105.375
11
167.05
21
-105.375
0
LINE
8
BLACK
6
CONTINUOUS
10
167.05
20
-105.375
11
167.05
21
-105.625
0
LINE
8
BLACK
6
CONTINUOUS
10
153.89
20
-105.53
11
153.19
21
-105.53
0
LINE
8
BLACK
6
CONTINUOUS
10
153.19
20
-105.53
11
153.19
21
-104.93
0
LINE
8
BLACK
6
CONTINUOUS
10
153.19
20
-104.93
11
153.89
21
-104.93
0
LINE
8
BLACK
6
CONTINUOUS
10
153.89
20
-104.93
11
153.89
21
-105.53
0
LINE
8
BLACK
6
CONTINUOUS
10
160.45
20
-105.425
11
160.05
21
-105.425
0
LINE
8
BLACK
6
CONTINUOUS
10
160.05
20
-105.425
11
160.05
21
-105.175
0
LINE
8
BLACK
6
CONTINUOUS
10
160.05
20
-105.175
11
160.45
21
-105.175
0
LINE
8
BLACK
6
CONTINUOUS
10
160.45
20
-105.175
11
160.45
21
-105.425
0
LINE
8
BLACK
6
CONTINUOUS
10
182.587
20
-102.988
11
182.65
21
-103.024
0
LINE
8
BLACK
6
CONTINUOUS
10
182.65
20
-103.024
11
182.697
21
-103.08
0
LINE
8
BLACK
6
CONTINUOUS
10
182.697
20
-103.08
11
182.725
21
-103.185
0
LINE
8
BLACK
6
CONTINUOUS
10
182.725
20
-103.185
11
182.725
21
-105.215
0
LINE
8
BLACK
6
CONTINUOUS
10
182.725
20
-105.215
11
182.712
21
-105.287
0
LINE
8
BLACK
6
CONTINUOUS
10
182.712
20
-105.287
11
182.676
21
-105.35
0
LINE
8
BLACK
6
CONTINUOUS
10
182.676
20
-105.35
11
182.62
21
-105.397
0
LINE
8
BLACK
6
CONTINUOUS
10
182.62
20
-105.397
11
182.515
21
-105.425
0
LINE
8
BLACK
6
CONTINUOUS
10
182.515
20
-105.425
11
181.885
21
-105.425
0
LINE
8
BLACK
6
CONTINUOUS
10
181.885
20
-105.425
11
181.813
21
-105.412
0
LINE
8
BLACK
6
CONTINUOUS
10
181.813
20
-105.412
11
181.75
21
-105.376
0
LINE
8
BLACK
6
CONTINUOUS
10
181.75
20
-105.376
11
181.703
21
-105.32
0
LINE
8
BLACK
6
CONTINUOUS
10
181.703
20
-105.32
11
181.675
21
-105.215
0
LINE
8
BLACK
6
CONTINUOUS
10
181.675
20
-105.215
11
181.675
21
-103.185
0
LINE
8
BLACK
6
CONTINUOUS
10
181.675
20
-103.185
11
181.688
21
-103.113
0
LINE
8
BLACK
6
CONTINUOUS
10
181.688
20
-103.113
11
181.724
21
-103.05
0
LINE
8
BLACK
6
CONTINUOUS
10
181.724
20
-103.05
11
181.78
21
-103.003
0
LINE
8
BLACK
6
CONTINUOUS
10
181.78
20
-103.003
11
181.885
21
-102.975
0
LINE
8
BLACK
6
CONTINUOUS
10
181.885
20
-102.975
11
182.515
21
-102.975
0
LINE
8
BLACK
6
CONTINUOUS
10
182.515
20
-102.975
11
182.587
21
-102.988
0
LINE
8
BLACK
6
CONTINUOUS
10
185.387
20
-102.988
11
185.45
21
-103.024
0
LINE
8
BLACK
6
CONTINUOUS
10
185.45
20
-103.024
11
185.497
21
-103.08
0
LINE
8
BLACK
6
CONTINUOUS
10
185.497
20
-103.08
11
185.525
21
-103.185
0
LINE
8
BLACK
6
CONTINUOUS
10
185.525
20
-103.185
11
185.525
21
-105.215
0
LINE
8
BLACK
6
CONTINUOUS
10
185.525
20
-105.215
11
185.512
21
-105.287
0
LINE
8
BLACK
6
CONTINUOUS
10
185.512
20
-105.287
11
185.476
21
-105.35
0
LINE
8
BLACK
6
CONTINUOUS
10
185.476
20
-105.35
11
185.42
21
-105.397
0
LINE
8
BLACK
6
CONTINUOUS
10
185.42
20
-105.397
11
185.315
21
-105.425
0
LINE
8
BLACK
6
CONTINUOUS
10
185.315
20
-105.425
11
184.685
21
-105.425
0
LINE
8
BLACK
6
CONTINUOUS
10
184.685
20
-105.425
11
184.613
21
-105.412
0
LINE
8
BLACK
6
CONTINUOUS
10
184.613
20
-105.412
11
184.55
21
-105.376
0
LINE
8
BLACK
6
CONTINUOUS
10
184.55
20
-105.376
11
184.503
21
-105.32
0
LINE
8
BLACK
6
CONTINUOUS
10
184.503
20
-105.32
11
184.475
21
-105.215
0
LINE
8
BLACK
6
CONTINUOUS
10
184.475
20
-105.215
11
184.475
21
-103.185
0
LINE
8
BLACK
6
CONTINUOUS
10
184.475
20
-103.185
11
184.488
21
-103.113
0
LINE
8
BLACK
6
CONTINUOUS
10
184.488
20
-103.113
11
184.524
21
-103.05
0
LINE
8
BLACK
6
CONTINUOUS
10
184.524
20
-103.05
11
184.58
21
-103.003
0
LINE
8
BLACK
6
CONTINUOUS
10
184.58
20
-103.003
11
184.685
21
-102.975
0
LINE
8
BLACK
6
CONTINUOUS
10
184.685
20
-102.975
11
185.315
21
-102.975
0
LINE
8
BLACK
6
CONTINUOUS
10
185.315
20
-102.975
11
185.387
21
-102.988
0
LINE
8
BLACK
6
CONTINUOUS
10
158.35
20
-105.425
11
157.95
21
-105.425
0
LINE
8
BLACK
6
CONTINUOUS
10
157.95
20
-105.425
11
157.95
21
-105.175
0
LINE
8
BLACK
6
CONTINUOUS
10
157.95
20
-105.175
11
158.35
21
-105.175
0
LINE
8
BLACK
6
CONTINUOUS
10
158.35
20
-105.175
11
158.35
21
-105.425
0
LINE
8
BLACK
6
CONTINUOUS
10
170.064
20
-104.46
11
170.115
21
-104.489
0
LINE
8
BLACK
6
CONTINUOUS
10
170.115
20
-104.489
11
170.152
21
-104.534
0
LINE
8
BLACK
6
CONTINUOUS
10
170.152
20
-104.534
11
170.175
21
-104.619
0
LINE
8
BLACK
6
CONTINUOUS
10
170.175
20
-104.619
11
170.175
21
-104.956
0
LINE
8
BLACK
6
CONTINUOUS
10
170.175
20
-104.956
11
170.165
21
-105.014
0
LINE
8
BLACK
6
CONTINUOUS
10
170.165
20
-105.014
11
170.136
21
-105.065
0
LINE
8
BLACK
6
CONTINUOUS
10
170.136
20
-105.065
11
170.091
21
-105.102
0
LINE
8
BLACK
6
CONTINUOUS
10
170.091
20
-105.102
11
170.006
21
-105.125
0
LINE
8
BLACK
6
CONTINUOUS
10
170.006
20
-105.125
11
169.594
21
-105.125
0
LINE
8
BLACK
6
CONTINUOUS
10
169.594
20
-105.125
11
169.536
21
-105.115
0
LINE
8
BLACK
6
CONTINUOUS
10
169.536
20
-105.115
11
169.485
21
-105.086
0
LINE
8
BLACK
6
CONTINUOUS
10
169.485
20
-105.086
11
169.448
21
-105.041
0
LINE
8
BLACK
6
CONTINUOUS
10
169.448
20
-105.041
11
169.425
21
-104.956
0
LINE
8
BLACK
6
CONTINUOUS
10
169.425
20
-104.956
11
169.425
21
-104.619
0
LINE
8
BLACK
6
CONTINUOUS
10
169.425
20
-104.619
11
169.435
21
-104.561
0
LINE
8
BLACK
6
CONTINUOUS
10
169.435
20
-104.561
11
169.464
21
-104.51
0
LINE
8
BLACK
6
CONTINUOUS
10
169.464
20
-104.51
11
169.509
21
-104.473
0
LINE
8
BLACK
6
CONTINUOUS
10
169.509
20
-104.473
11
169.594
21
-104.45
0
LINE
8
BLACK
6
CONTINUOUS
10
169.594
20
-104.45
11
170.006
21
-104.45
0
LINE
8
BLACK
6
CONTINUOUS
10
170.006
20
-104.45
11
170.064
21
-104.46
0
LINE
8
BLACK
6
CONTINUOUS
10
170.064
20
-102.885
11
170.115
21
-102.914
0
LINE
8
BLACK
6
CONTINUOUS
10
170.115
20
-102.914
11
170.152
21
-102.959
0
LINE
8
BLACK
6
CONTINUOUS
10
170.152
20
-102.959
11
170.175
21
-103.044
0
LINE
8
BLACK
6
CONTINUOUS
10
170.175
20
-103.044
11
170.175
21
-103.381
0
LINE
8
BLACK
6
CONTINUOUS
10
170.175
20
-103.381
11
170.165
21
-103.439
0
LINE
8
BLACK
6
CONTINUOUS
10
170.165
20
-103.439
11
170.136
21
-103.49
0
LINE
8
BLACK
6
CONTINUOUS
10
170.136
20
-103.49
11
170.091
21
-103.527
0
LINE
8
BLACK
6
CONTINUOUS
10
170.091
20
-103.527
11
170.006
21
-103.55
0
LINE
8
BLACK
6
CONTINUOUS
10
170.006
20
-103.55
11
169.594
21
-103.55
0
LINE
8
BLACK
6
CONTINUOUS
10
169.594
20
-103.55
11
169.536
21
-103.54
0
LINE
8
BLACK
6
CONTINUOUS
10
169.536
20
-103.54
11
169.485
21
-103.511
0
LINE
8
BLACK
6
CONTINUOUS
10
169.485
20
-103.511
11
169.448
21
-103.466
0
LINE
8
BLACK
6
CONTINUOUS
10
169.448
20
-103.466
11
169.425
21
-103.381
0
LINE
8
BLACK
6
CONTINUOUS
10
169.425
20
-103.381
11
169.425
21
-103.044
0
LINE
8
BLACK
6
CONTINUOUS
10
169.425
20
-103.044
11
169.435
21
-102.986
0
LINE
8
BLACK
6
CONTINUOUS
10
169.435
20
-102.986
11
169.464
21
-102.935
0
LINE
8
BLACK
6
CONTINUOUS
10
169.464
20
-102.935
11
169.509
21
-102.898
0
LINE
8
BLACK
6
CONTINUOUS
10
169.509
20
-102.898
11
169.594
21
-102.875
0
LINE
8
BLACK
6
CONTINUOUS
10
169.594
20
-102.875
11
170.006
21
-102.875
0
LINE
8
BLACK
6
CONTINUOUS
10
170.006
20
-102.875
11
170.064
21
-102.885
0
LINE
8
BLACK
6
CONTINUOUS
10
170.064
20
-101.36
11
170.115
21
-101.389
0
LINE
8
BLACK
6
CONTINUOUS
10
170.115
20
-101.389
11
170.152
21
-101.434
0
LINE
8
BLACK
6
CONTINUOUS
10
170.152
20
-101.434
11
170.175
21
-101.519
0
LINE
8
BLACK
6
CONTINUOUS
10
170.175
20
-101.519
11
170.175
21
-101.856
0
LINE
8
BLACK
6
CONTINUOUS
10
170.175
20
-101.856
11
170.165
21
-101.914
0
LINE
8
BLACK
6
CONTINUOUS
10
170.165
20
-101.914
11
170.136
21
-101.965
0
LINE
8
BLACK
6
CONTINUOUS
10
170.136
20
-101.965
11
170.091
21
-102.002
0
LINE
8
BLACK
6
CONTINUOUS
10
170.091
20
-102.002
11
170.006
21
-102.025
0
LINE
8
BLACK
6
CONTINUOUS
10
170.006
20
-102.025
11
169.594
21
-102.025
0
LINE
8
BLACK
6
CONTINUOUS
10
169.594
20
-102.025
11
169.536
21
-102.015
0
LINE
8
BLACK
6
CONTINUOUS
10
169.536
20
-102.015
11
169.485
21
-101.986
0
LINE
8
BLACK
6
CONTINUOUS
10
169.485
20
-101.986
11
169.448
21
-101.941
0
LINE
8
BLACK
6
CONTINUOUS
10
169.448
20
-101.941
11
169.425
21
-101.856
0
LINE
8
BLACK
6
CONTINUOUS
10
169.425
20
-101.856
11
169.425
21
-101.519
0
LINE
8
BLACK
6
CONTINUOUS
10
169.425
20
-101.519
11
169.435
21
-101.461
0
LINE
8
BLACK
6
CONTINUOUS
10
169.435
20
-101.461
11
169.464
21
-101.41
0
LINE
8
BLACK
6
CONTINUOUS
10
169.464
20
-101.41
11
169.509
21
-101.373
0
LINE
8
BLACK
6
CONTINUOUS
10
169.509
20
-101.373
11
169.594
21
-101.35
0
LINE
8
BLACK
6
CONTINUOUS
10
169.594
20
-101.35
11
170.006
21
-101.35
0
LINE
8
BLACK
6
CONTINUOUS
10
170.006
20
-101.35
11
170.064
21
-101.36
0
LINE
8
BLACK
6
CONTINUOUS
10
180.826
20
-100.014
11
180.894
21
-100.053
0
LINE
8
BLACK
6
CONTINUOUS
10
180.894
20
-100.053
11
180.945
21
-100.113
0
LINE
8
BLACK
6
CONTINUOUS
10
180.945
20
-100.113
11
180.975
21
-100.226
0
LINE
8
BLACK
6
CONTINUOUS
10
180.975
20
-100.226
11
180.975
21
-101.649
0
LINE
8
BLACK
6
CONTINUOUS
10
180.975
20
-101.649
11
180.961
21
-101.726
0
LINE
8
BLACK
6
CONTINUOUS
10
180.961
20
-101.726
11
180.922
21
-101.794
0
LINE
8
BLACK
6
CONTINUOUS
10
180.922
20
-101.794
11
180.862
21
-101.845
0
LINE
8
BLACK
6
CONTINUOUS
10
180.862
20
-101.845
11
180.749
21
-101.875
0
LINE
8
BLACK
6
CONTINUOUS
10
180.749
20
-101.875
11
179.051
21
-101.875
0
LINE
8
BLACK
6
CONTINUOUS
10
179.051
20
-101.875
11
178.974
21
-101.861
0
LINE
8
BLACK
6
CONTINUOUS
10
178.974
20
-101.861
11
178.906
21
-101.822
0
LINE
8
BLACK
6
CONTINUOUS
10
178.906
20
-101.822
11
178.855
21
-101.762
0
LINE
8
BLACK
6
CONTINUOUS
10
178.855
20
-101.762
11
178.825
21
-101.649
0
LINE
8
BLACK
6
CONTINUOUS
10
178.825
20
-101.649
11
178.825
21
-100.226
0
LINE
8
BLACK
6
CONTINUOUS
10
178.825
20
-100.226
11
178.839
21
-100.149
0
LINE
8
BLACK
6
CONTINUOUS
10
178.839
20
-100.149
11
178.878
21
-100.081
0
LINE
8
BLACK
6
CONTINUOUS
10
178.878
20
-100.081
11
178.938
21
-100.03
0
LINE
8
BLACK
6
CONTINUOUS
10
178.938
20
-100.03
11
179.051
21
-100
0
LINE
8
BLACK
6
CONTINUOUS
10
179.051
20
-100
11
180.749
21
-100
0
LINE
8
BLACK
6
CONTINUOUS
10
180.749
20
-100
11
180.826
21
-100.014
0
LINE
8
BLACK
6
CONTINUOUS
10
175.1
20
-101.32
11
173.7
21
-101.32
0
LINE
8
BLACK
6
CONTINUOUS
10
173.7
20
-101.32
11
173.7
21
-99.92
0
LINE
8
BLACK
6
CONTINUOUS
10
173.7
20
-99.92
11
175.1
21
-99.92
0
LINE
8
BLACK
6
CONTINUOUS
10
175.1
20
-99.92
11
175.1
21
-101.32
0
LINE
8
BLACK
6
CONTINUOUS
10
172.56
20
-101.32
11
171.16
21
-101.32
0
LINE
8
BLACK
6
CONTINUOUS
10
171.16
20
-101.32
11
171.16
21
-99.92
0
LINE
8
BLACK
6
CONTINUOUS
10
171.16
20
-99.92
11
172.56
21
-99.92
0
LINE
8
BLACK
6
CONTINUOUS
10
172.56
20
-99.92
11
172.56
21
-101.32
0
LINE
8
BLACK
6
CONTINUOUS
10
177.64
20
-101.32
11
176.24
21
-101.32
0
LINE
8
BLACK
6
CONTINUOUS
10
176.24
20
-101.32
11
176.24
21
-99.92
0
LINE
8
BLACK
6
CONTINUOUS
10
176.24
20
-99.92
11
177.64
21
-99.92
0
LINE
8
BLACK
6
CONTINUOUS
10
177.64
20
-99.92
11
177.64
21
-101.32
0
LINE
8
BLACK
6
CONTINUOUS
10
170.064
20
-99.7852
11
170.115
21
-99.8145
0
LINE
8
BLACK
6
CONTINUOUS
10
170.115
20
-99.8145
11
170.152
21
-99.8594
0
LINE
8
BLACK
6
CONTINUOUS
10
170.152
20
-99.8594
11
170.175
21
-99.9437
0
LINE
8
BLACK
6
CONTINUOUS
10
170.175
20
-99.9437
11
170.175
21
-100.281
0
LINE
8
BLACK
6
CONTINUOUS
10
170.175
20
-100.281
11
170.165
21
-100.339
0
LINE
8
BLACK
6
CONTINUOUS
10
170.165
20
-100.339
11
170.136
21
-100.39
0
LINE
8
BLACK
6
CONTINUOUS
10
170.136
20
-100.39
11
170.091
21
-100.427
0
LINE
8
BLACK
6
CONTINUOUS
10
170.091
20
-100.427
11
170.006
21
-100.45
0
LINE
8
BLACK
6
CONTINUOUS
10
170.006
20
-100.45
11
169.594
21
-100.45
0
LINE
8
BLACK
6
CONTINUOUS
10
169.594
20
-100.45
11
169.536
21
-100.44
0
LINE
8
BLACK
6
CONTINUOUS
10
169.536
20
-100.44
11
169.485
21
-100.411
0
LINE
8
BLACK
6
CONTINUOUS
10
169.485
20
-100.411
11
169.448
21
-100.366
0
LINE
8
BLACK
6
CONTINUOUS
10
169.448
20
-100.366
11
169.425
21
-100.281
0
LINE
8
BLACK
6
CONTINUOUS
10
169.425
20
-100.281
11
169.425
21
-99.9437
0
LINE
8
BLACK
6
CONTINUOUS
10
169.425
20
-99.9437
11
169.435
21
-99.886
0
LINE
8
BLACK
6
CONTINUOUS
10
169.435
20
-99.886
11
169.464
21
-99.8353
0
LINE
8
BLACK
6
CONTINUOUS
10
169.464
20
-99.8353
11
169.509
21
-99.7976
0
LINE
8
BLACK
6
CONTINUOUS
10
169.509
20
-99.7976
11
169.594
21
-99.775
0
LINE
8
BLACK
6
CONTINUOUS
10
169.594
20
-99.775
11
170.006
21
-99.775
0
LINE
8
BLACK
6
CONTINUOUS
10
170.006
20
-99.775
11
170.064
21
-99.7852
0
LINE
8
BLACK
6
CONTINUOUS
10
172.15
20
-99.05
11
171.45
21
-99.05
0
LINE
8
BLACK
6
CONTINUOUS
10
171.45
20
-99.05
11
171.45
21
-98.45
0
LINE
8
BLACK
6
CONTINUOUS
10
171.45
20
-98.45
11
172.15
21
-98.45
0
LINE
8
BLACK
6
CONTINUOUS
10
172.15
20
-98.45
11
172.15
21
-99.05
0
LINE
8
BLACK
6
CONTINUOUS
10
183.451
20
-96.7386
11
183.519
21
-96.7779
0
LINE
8
BLACK
6
CONTINUOUS
10
183.519
20
-96.7779
11
183.57
21
-96.838
0
LINE
8
BLACK
6
CONTINUOUS
10
183.57
20
-96.838
11
183.6
21
-96.9509
0
LINE
8
BLACK
6
CONTINUOUS
10
183.6
20
-96.9509
11
183.6
21
-98.6491
0
LINE
8
BLACK
6
CONTINUOUS
10
183.6
20
-98.6491
11
183.586
21
-98.7264
0
LINE
8
BLACK
6
CONTINUOUS
10
183.586
20
-98.7264
11
183.547
21
-98.7943
0
LINE
8
BLACK
6
CONTINUOUS
10
183.547
20
-98.7943
11
183.487
21
-98.8447
0
LINE
8
BLACK
6
CONTINUOUS
10
183.487
20
-98.8447
11
183.374
21
-98.875
0
LINE
8
BLACK
6
CONTINUOUS
10
183.374
20
-98.875
11
181.951
21
-98.875
0
LINE
8
BLACK
6
CONTINUOUS
10
181.951
20
-98.875
11
181.874
21
-98.8614
0
LINE
8
BLACK
6
CONTINUOUS
10
181.874
20
-98.8614
11
181.806
21
-98.8221
0
LINE
8
BLACK
6
CONTINUOUS
10
181.806
20
-98.8221
11
181.755
21
-98.762
0
LINE
8
BLACK
6
CONTINUOUS
10
181.755
20
-98.762
11
181.725
21
-98.6491
0
LINE
8
BLACK
6
CONTINUOUS
10
181.725
20
-98.6491
11
181.725
21
-96.9509
0
LINE
8
BLACK
6
CONTINUOUS
10
181.725
20
-96.9509
11
181.739
21
-96.8736
0
LINE
8
BLACK
6
CONTINUOUS
10
181.739
20
-96.8736
11
181.778
21
-96.8057
0
LINE
8
BLACK
6
CONTINUOUS
10
181.778
20
-96.8057
11
181.838
21
-96.7553
0
LINE
8
BLACK
6
CONTINUOUS
10
181.838
20
-96.7553
11
181.951
21
-96.725
0
LINE
8
BLACK
6
CONTINUOUS
10
181.951
20
-96.725
11
183.374
21
-96.725
0
LINE
8
BLACK
6
CONTINUOUS
10
183.374
20
-96.725
11
183.451
21
-96.7386
0
LINE
8
BLACK
6
CONTINUOUS
10
178.526
20
-96.7386
11
178.594
21
-96.7779
0
LINE
8
BLACK
6
CONTINUOUS
10
178.594
20
-96.7779
11
178.645
21
-96.838
0
LINE
8
BLACK
6
CONTINUOUS
10
178.645
20
-96.838
11
178.675
21
-96.9509
0
LINE
8
BLACK
6
CONTINUOUS
10
178.675
20
-96.9509
11
178.675
21
-98.6491
0
LINE
8
BLACK
6
CONTINUOUS
10
178.675
20
-98.6491
11
178.661
21
-98.7264
0
LINE
8
BLACK
6
CONTINUOUS
10
178.661
20
-98.7264
11
178.622
21
-98.7943
0
LINE
8
BLACK
6
CONTINUOUS
10
178.622
20
-98.7943
11
178.562
21
-98.8447
0
LINE
8
BLACK
6
CONTINUOUS
10
178.562
20
-98.8447
11
178.449
21
-98.875
0
LINE
8
BLACK
6
CONTINUOUS
10
178.449
20
-98.875
11
177.026
21
-98.875
0
LINE
8
BLACK
6
CONTINUOUS
10
177.026
20
-98.875
11
176.949
21
-98.8614
0
LINE
8
BLACK
6
CONTINUOUS
10
176.949
20
-98.8614
11
176.881
21
-98.8221
0
LINE
8
BLACK
6
CONTINUOUS
10
176.881
20
-98.8221
11
176.83
21
-98.762
0
LINE
8
BLACK
6
CONTINUOUS
10
176.83
20
-98.762
11
176.8
21
-98.6491
0
LINE
8
BLACK
6
CONTINUOUS
10
176.8
20
-98.6491
11
176.8
21
-96.9509
0
LINE
8
BLACK
6
CONTINUOUS
10
176.8
20
-96.9509
11
176.814
21
-96.8736
0
LINE
8
BLACK
6
CONTINUOUS
10
176.814
20
-96.8736
11
176.853
21
-96.8057
0
LINE
8
BLACK
6
CONTINUOUS
10
176.853
20
-96.8057
11
176.913
21
-96.7553
0
LINE
8
BLACK
6
CONTINUOUS
10
176.913
20
-96.7553
11
177.026
21
-96.725
0
LINE
8
BLACK
6
CONTINUOUS
10
177.026
20
-96.725
11
178.449
21
-96.725
0
LINE
8
BLACK
6
CONTINUOUS
10
178.449
20
-96.725
11
178.526
21
-96.7386
0
LINE
8
BLACK
6
CONTINUOUS
10
173.664
20
-98.1602
11
173.715
21
-98.1895
0
LINE
8
BLACK
6
CONTINUOUS
10
173.715
20
-98.1895
11
173.752
21
-98.2344
0
LINE
8
BLACK
6
CONTINUOUS
10
173.752
20
-98.2344
11
173.775
21
-98.3187
0
LINE
8
BLACK
6
CONTINUOUS
10
173.775
20
-98.3187
11
173.775
21
-98.6562
0
LINE
8
BLACK
6
CONTINUOUS
10
173.775
20
-98.6562
11
173.765
21
-98.714
0
LINE
8
BLACK
6
CONTINUOUS
10
173.765
20
-98.714
11
173.736
21
-98.7647
0
LINE
8
BLACK
6
CONTINUOUS
10
173.736
20
-98.7647
11
173.691
21
-98.8024
0
LINE
8
BLACK
6
CONTINUOUS
10
173.691
20
-98.8024
11
173.606
21
-98.825
0
LINE
8
BLACK
6
CONTINUOUS
10
173.606
20
-98.825
11
173.194
21
-98.825
0
LINE
8
BLACK
6
CONTINUOUS
10
173.194
20
-98.825
11
173.136
21
-98.8148
0
LINE
8
BLACK
6
CONTINUOUS
10
173.136
20
-98.8148
11
173.085
21
-98.7855
0
LINE
8
BLACK
6
CONTINUOUS
10
173.085
20
-98.7855
11
173.048
21
-98.7406
0
LINE
8
BLACK
6
CONTINUOUS
10
173.048
20
-98.7406
11
173.025
21
-98.6562
0
LINE
8
BLACK
6
CONTINUOUS
10
173.025
20
-98.6562
11
173.025
21
-98.3187
0
LINE
8
BLACK
6
CONTINUOUS
10
173.025
20
-98.3187
11
173.035
21
-98.261
0
LINE
8
BLACK
6
CONTINUOUS
10
173.035
20
-98.261
11
173.064
21
-98.2103
0
LINE
8
BLACK
6
CONTINUOUS
10
173.064
20
-98.2103
11
173.109
21
-98.1726
0
LINE
8
BLACK
6
CONTINUOUS
10
173.109
20
-98.1726
11
173.194
21
-98.15
0
LINE
8
BLACK
6
CONTINUOUS
10
173.194
20
-98.15
11
173.606
21
-98.15
0
LINE
8
BLACK
6
CONTINUOUS
10
173.606
20
-98.15
11
173.664
21
-98.1602
0
LINE
8
BLACK
6
CONTINUOUS
10
175.764
20
-98.1602
11
175.815
21
-98.1895
0
LINE
8
BLACK
6
CONTINUOUS
10
175.815
20
-98.1895
11
175.852
21
-98.2344
0
LINE
8
BLACK
6
CONTINUOUS
10
175.852
20
-98.2344
11
175.875
21
-98.3187
0
LINE
8
BLACK
6
CONTINUOUS
10
175.875
20
-98.3187
11
175.875
21
-98.6562
0
LINE
8
BLACK
6
CONTINUOUS
10
175.875
20
-98.6562
11
175.865
21
-98.714
0
LINE
8
BLACK
6
CONTINUOUS
10
175.865
20
-98.714
11
175.836
21
-98.7647
0
LINE
8
BLACK
6
CONTINUOUS
10
175.836
20
-98.7647
11
175.791
21
-98.8024
0
LINE
8
BLACK
6
CONTINUOUS
10
175.791
20
-98.8024
11
175.706
21
-98.825
0
LINE
8
BLACK
6
CONTINUOUS
10
175.706
20
-98.825
11
175.294
21
-98.825
0
LINE
8
BLACK
6
CONTINUOUS
10
175.294
20
-98.825
11
175.236
21
-98.8148
0
LINE
8
BLACK
6
CONTINUOUS
10
175.236
20
-98.8148
11
175.185
21
-98.7855
0
LINE
8
BLACK
6
CONTINUOUS
10
175.185
20
-98.7855
11
175.148
21
-98.7406
0
LINE
8
BLACK
6
CONTINUOUS
10
175.148
20
-98.7406
11
175.125
21
-98.6562
0
LINE
8
BLACK
6
CONTINUOUS
10
175.125
20
-98.6562
11
175.125
21
-98.3187
0
LINE
8
BLACK
6
CONTINUOUS
10
175.125
20
-98.3187
11
175.135
21
-98.261
0
LINE
8
BLACK
6
CONTINUOUS
10
175.135
20
-98.261
11
175.164
21
-98.2103
0
LINE
8
BLACK
6
CONTINUOUS
10
175.164
20
-98.2103
11
175.209
21
-98.1726
0
LINE
8
BLACK
6
CONTINUOUS
10
175.209
20
-98.1726
11
175.294
21
-98.15
0
LINE
8
BLACK
6
CONTINUOUS
10
175.294
20
-98.15
11
175.706
21
-98.15
0
LINE
8
BLACK
6
CONTINUOUS
10
175.706
20
-98.15
11
175.764
21
-98.1602
0
LINE
8
BLACK
6
CONTINUOUS
10
170.15
20
-98.1
11
169.45
21
-98.1
0
LINE
8
BLACK
6
CONTINUOUS
10
169.45
20
-98.1
11
169.45
21
-97.5
0
LINE
8
BLACK
6
CONTINUOUS
10
169.45
20
-97.5
11
170.15
21
-97.5
0
LINE
8
BLACK
6
CONTINUOUS
10
170.15
20
-97.5
11
170.15
21
-98.1
0
LINE
8
BLACK
6
CONTINUOUS
10
173.664
20
-96.5852
11
173.715
21
-96.6145
0
LINE
8
BLACK
6
CONTINUOUS
10
173.715
20
-96.6145
11
173.752
21
-96.6594
0
LINE
8
BLACK
6
CONTINUOUS
10
173.752
20
-96.6594
11
173.775
21
-96.7437
0
LINE
8
BLACK
6
CONTINUOUS
10
173.775
20
-96.7437
11
173.775
21
-97.0812
0
LINE
8
BLACK
6
CONTINUOUS
10
173.775
20
-97.0812
11
173.765
21
-97.139
0
LINE
8
BLACK
6
CONTINUOUS
10
173.765
20
-97.139
11
173.736
21
-97.1897
0
LINE
8
BLACK
6
CONTINUOUS
10
173.736
20
-97.1897
11
173.691
21
-97.2274
0
LINE
8
BLACK
6
CONTINUOUS
10
173.691
20
-97.2274
11
173.606
21
-97.25
0
LINE
8
BLACK
6
CONTINUOUS
10
173.606
20
-97.25
11
173.194
21
-97.25
0
LINE
8
BLACK
6
CONTINUOUS
10
173.194
20
-97.25
11
173.136
21
-97.2398
0
LINE
8
BLACK
6
CONTINUOUS
10
173.136
20
-97.2398
11
173.085
21
-97.2105
0
LINE
8
BLACK
6
CONTINUOUS
10
173.085
20
-97.2105
11
173.048
21
-97.1656
0
LINE
8
BLACK
6
CONTINUOUS
10
173.048
20
-97.1656
11
173.025
21
-97.0812
0
LINE
8
BLACK
6
CONTINUOUS
10
173.025
20
-97.0812
11
173.025
21
-96.7437
0
LINE
8
BLACK
6
CONTINUOUS
10
173.025
20
-96.7437
11
173.035
21
-96.686
0
LINE
8
BLACK
6
CONTINUOUS
10
173.035
20
-96.686
11
173.064
21
-96.6353
0
LINE
8
BLACK
6
CONTINUOUS
10
173.064
20
-96.6353
11
173.109
21
-96.5976
0
LINE
8
BLACK
6
CONTINUOUS
10
173.109
20
-96.5976
11
173.194
21
-96.575
0
LINE
8
BLACK
6
CONTINUOUS
10
173.194
20
-96.575
11
173.606
21
-96.575
0
LINE
8
BLACK
6
CONTINUOUS
10
173.606
20
-96.575
11
173.664
21
-96.5852
0
LINE
8
BLACK
6
CONTINUOUS
10
175.764
20
-96.5852
11
175.815
21
-96.6145
0
LINE
8
BLACK
6
CONTINUOUS
10
175.815
20
-96.6145
11
175.852
21
-96.6594
0
LINE
8
BLACK
6
CONTINUOUS
10
175.852
20
-96.6594
11
175.875
21
-96.7437
0
LINE
8
BLACK
6
CONTINUOUS
10
175.875
20
-96.7437
11
175.875
21
-97.0812
0
LINE
8
BLACK
6
CONTINUOUS
10
175.875
20
-97.0812
11
175.865
21
-97.139
0
LINE
8
BLACK
6
CONTINUOUS
10
175.865
20
-97.139
11
175.836
21
-97.1897
0
LINE
8
BLACK
6
CONTINUOUS
10
175.836
20
-97.1897
11
175.791
21
-97.2274
0
LINE
8
BLACK
6
CONTINUOUS
10
175.791
20
-97.2274
11
175.706
21
-97.25
0
LINE
8
BLACK
6
CONTINUOUS
10
175.706
20
-97.25
11
175.294
21
-97.25
0
LINE
8
BLACK
6
CONTINUOUS
10
175.294
20
-97.25
11
175.236
21
-97.2398
0
LINE
8
BLACK
6
CONTINUOUS
10
175.236
20
-97.2398
11
175.185
21
-97.2105
0
LINE
8
BLACK
6
CONTINUOUS
10
175.185
20
-97.2105
11
175.148
21
-97.1656
0
LINE
8
BLACK
6
CONTINUOUS
10
175.148
20
-97.1656
11
175.125
21
-97.0812
0
LINE
8
BLACK
6
CONTINUOUS
10
175.125
20
-97.0812
11
175.125
21
-96.7437
0
LINE
8
BLACK
6
CONTINUOUS
10
175.125
20
-96.7437
11
175.135
21
-96.686
0
LINE
8
BLACK
6
CONTINUOUS
10
175.135
20
-96.686
11
175.164
21
-96.6353
0
LINE
8
BLACK
6
CONTINUOUS
10
175.164
20
-96.6353
11
175.209
21
-96.5976
0
LINE
8
BLACK
6
CONTINUOUS
10
175.209
20
-96.5976
11
175.294
21
-96.575
0
LINE
8
BLACK
6
CONTINUOUS
10
175.294
20
-96.575
11
175.706
21
-96.575
0
LINE
8
BLACK
6
CONTINUOUS
10
175.706
20
-96.575
11
175.764
21
-96.5852
0
LINE
8
BLACK
6
CONTINUOUS
10
172.15
20
-97.15
11
171.45
21
-97.15
0
LINE
8
BLACK
6
CONTINUOUS
10
171.45
20
-97.15
11
171.45
21
-96.55
0
LINE
8
BLACK
6
CONTINUOUS
10
171.45
20
-96.55
11
172.15
21
-96.55
0
LINE
8
BLACK
6
CONTINUOUS
10
172.15
20
-96.55
11
172.15
21
-97.15
  0
ENDSEC
  0
EOF
