  0
SECTION
  2
HEADER
  9
$ANGBASE
  50
0.0
  9
$ANGDIR
  70
  1
  9
$MEASUREMENT
  70
0
  0
ENDSEC
  0
SECTION
  2
TABLES
  0
TABLE
  2
LTYPE
  70
4
  0
LTYPE
  5
40F
  2
CONTINUOUS
  70
0
  3
Solid line
  72
65
  73
0
  40
0.0
  0
LTYPE
  5
410
  2
DASHDOT
 70
0
  3
Dash Dot ____ _ ____ _
 72
65
 73
4
 40
2.0
 49
1.25
 49
-0.25
 49
0.25
 49
-0.25
  0
LTYPE
  5
411
  2
DASHED
 70
0
  3
Dashed __ __ __ __ __
 72
65
 73
2
 40
0.75
 49
0.5
 49
-0.25
  0
LTYPE
  5
43B
  2
DOTTED
 70
0
  3
Dotted .  .  .  .
 72
65
 73
2
 40
0.2
 49
0.0
 49
-0.2
  0
ENDTAB
  0
TABLE
  2
STYLE
  70
4
  0
STYLE
  2
KICAD
  70
0
  40
0
  41
1
  42
1
  50
0
  71
0
  3
isocp.shx
  0
STYLE
  2
KICADB
  70
0
  40
0
  41
1
  42
1
  50
0
  71
0
  3
isocp.shx
  0
STYLE
  2
KICADI
  70
0
  40
0
  41
1
  42
1
  50
15
  71
0
  3
isocp.shx
  0
STYLE
  2
KICADBI
  70
0
  40
0
  41
1
  42
1
  50
15
  71
0
  3
isocp.shx
  0
ENDTAB
  0
TABLE
  2
LAYER
  70
30
  0
LAYER
  2
BLACK
  70
0
  62
7
  6
CONTINUOUS
  0
LAYER
  2
GRAY1
  70
0
  62
251
  6
CONTINUOUS
  0
LAYER
  2
GRAY2
  70
0
  62
8
  6
CONTINUOUS
  0
LAYER
  2
GRAY3
  70
0
  62
9
  6
CONTINUOUS
  0
LAYER
  2
WHITE
  70
0
  62
7
  6
CONTINUOUS
  0
LAYER
  2
LYELLOW
  70
0
  62
51
  6
CONTINUOUS
  0
LAYER
  2
BLUE1
  70
0
  62
178
  6
CONTINUOUS
  0
LAYER
  2
GREEN1
  70
0
  62
98
  6
CONTINUOUS
  0
LAYER
  2
CYAN1
  70
0
  62
138
  6
CONTINUOUS
  0
LAYER
  2
RED1
  70
0
  62
18
  6
CONTINUOUS
  0
LAYER
  2
MAGENTA1
  70
0
  62
228
  6
CONTINUOUS
  0
LAYER
  2
BROWN1
  70
0
  62
58
  6
CONTINUOUS
  0
LAYER
  2
BLUE2
  70
0
  62
5
  6
CONTINUOUS
  0
LAYER
  2
GREEN2
  70
0
  62
3
  6
CONTINUOUS
  0
LAYER
  2
CYAN2
  70
0
  62
4
  6
CONTINUOUS
  0
LAYER
  2
RED2
  70
0
  62
1
  6
CONTINUOUS
  0
LAYER
  2
MAGENTA2
  70
0
  62
6
  6
CONTINUOUS
  0
LAYER
  2
BROWN2
  70
0
  62
54
  6
CONTINUOUS
  0
LAYER
  2
BLUE3
  70
0
  62
171
  6
CONTINUOUS
  0
LAYER
  2
GREEN3
  70
0
  62
91
  6
CONTINUOUS
  0
LAYER
  2
CYAN3
  70
0
  62
131
  6
CONTINUOUS
  0
LAYER
  2
RED3
  70
0
  62
11
  6
CONTINUOUS
  0
LAYER
  2
MAGENTA3
  70
0
  62
221
  6
CONTINUOUS
  0
LAYER
  2
YELLOW3
  70
0
  62
2
  6
CONTINUOUS
  0
LAYER
  2
BLUE4
  70
0
  62
5
  6
CONTINUOUS
  0
LAYER
  2
GREEN4
  70
0
  62
3
  6
CONTINUOUS
  0
LAYER
  2
CYAN4
  70
0
  62
4
  6
CONTINUOUS
  0
LAYER
  2
RED4
  70
0
  62
1
  6
CONTINUOUS
  0
LAYER
  2
MAGENTA4
  70
0
  62
6
  6
CONTINUOUS
  0
LAYER
  2
YELLOW4
  70
0
  62
2
  6
CONTINUOUS
  0
ENDTAB
  0
ENDSEC
  0
SECTION
  2
ENTITIES
0
LINE
8
BLACK
6
CONTINUOUS
10
154.55
20
-132.45
11
153.65
21
-132.45
0
LINE
8
BLACK
6
CONTINUOUS
10
153.65
20
-132.45
11
153.65
21
-131.65
0
LINE
8
BLACK
6
CONTINUOUS
10
153.65
20
-131.65
11
154.55
21
-131.65
0
LINE
8
BLACK
6
CONTINUOUS
10
154.55
20
-131.65
11
154.55
21
-132.45
0
LINE
8
BLACK
6
CONTINUOUS
10
156.15
20
-132.45
11
155.25
21
-132.45
0
LINE
8
BLACK
6
CONTINUOUS
10
155.25
20
-132.45
11
155.25
21
-131.65
0
LINE
8
BLACK
6
CONTINUOUS
10
155.25
20
-131.65
11
156.15
21
-131.65
0
LINE
8
BLACK
6
CONTINUOUS
10
156.15
20
-131.65
11
156.15
21
-132.45
0
LINE
8
BLACK
6
CONTINUOUS
10
157.698
20
-131.662
11
157.756
21
-131.695
0
LINE
8
BLACK
6
CONTINUOUS
10
157.756
20
-131.695
11
157.799
21
-131.747
0
LINE
8
BLACK
6
CONTINUOUS
10
157.799
20
-131.747
11
157.825
21
-131.844
0
LINE
8
BLACK
6
CONTINUOUS
10
157.825
20
-131.844
11
157.825
21
-132.231
0
LINE
8
BLACK
6
CONTINUOUS
10
157.825
20
-132.231
11
157.813
21
-132.298
0
LINE
8
BLACK
6
CONTINUOUS
10
157.813
20
-132.298
11
157.78
21
-132.356
0
LINE
8
BLACK
6
CONTINUOUS
10
157.78
20
-132.356
11
157.728
21
-132.399
0
LINE
8
BLACK
6
CONTINUOUS
10
157.728
20
-132.399
11
157.631
21
-132.425
0
LINE
8
BLACK
6
CONTINUOUS
10
157.631
20
-132.425
11
157.169
21
-132.425
0
LINE
8
BLACK
6
CONTINUOUS
10
157.169
20
-132.425
11
157.102
21
-132.413
0
LINE
8
BLACK
6
CONTINUOUS
10
157.102
20
-132.413
11
157.044
21
-132.38
0
LINE
8
BLACK
6
CONTINUOUS
10
157.044
20
-132.38
11
157.001
21
-132.328
0
LINE
8
BLACK
6
CONTINUOUS
10
157.001
20
-132.328
11
156.975
21
-132.231
0
LINE
8
BLACK
6
CONTINUOUS
10
156.975
20
-132.231
11
156.975
21
-131.844
0
LINE
8
BLACK
6
CONTINUOUS
10
156.975
20
-131.844
11
156.987
21
-131.777
0
LINE
8
BLACK
6
CONTINUOUS
10
156.987
20
-131.777
11
157.02
21
-131.719
0
LINE
8
BLACK
6
CONTINUOUS
10
157.02
20
-131.719
11
157.072
21
-131.676
0
LINE
8
BLACK
6
CONTINUOUS
10
157.072
20
-131.676
11
157.169
21
-131.65
0
LINE
8
BLACK
6
CONTINUOUS
10
157.169
20
-131.65
11
157.631
21
-131.65
0
LINE
8
BLACK
6
CONTINUOUS
10
157.631
20
-131.65
11
157.698
21
-131.662
0
LINE
8
BLACK
6
CONTINUOUS
10
157.698
20
-130.087
11
157.756
21
-130.12
0
LINE
8
BLACK
6
CONTINUOUS
10
157.756
20
-130.12
11
157.799
21
-130.172
0
LINE
8
BLACK
6
CONTINUOUS
10
157.799
20
-130.172
11
157.825
21
-130.269
0
LINE
8
BLACK
6
CONTINUOUS
10
157.825
20
-130.269
11
157.825
21
-130.656
0
LINE
8
BLACK
6
CONTINUOUS
10
157.825
20
-130.656
11
157.813
21
-130.723
0
LINE
8
BLACK
6
CONTINUOUS
10
157.813
20
-130.723
11
157.78
21
-130.781
0
LINE
8
BLACK
6
CONTINUOUS
10
157.78
20
-130.781
11
157.728
21
-130.824
0
LINE
8
BLACK
6
CONTINUOUS
10
157.728
20
-130.824
11
157.631
21
-130.85
0
LINE
8
BLACK
6
CONTINUOUS
10
157.631
20
-130.85
11
157.169
21
-130.85
0
LINE
8
BLACK
6
CONTINUOUS
10
157.169
20
-130.85
11
157.102
21
-130.838
0
LINE
8
BLACK
6
CONTINUOUS
10
157.102
20
-130.838
11
157.044
21
-130.805
0
LINE
8
BLACK
6
CONTINUOUS
10
157.044
20
-130.805
11
157.001
21
-130.753
0
LINE
8
BLACK
6
CONTINUOUS
10
157.001
20
-130.753
11
156.975
21
-130.656
0
LINE
8
BLACK
6
CONTINUOUS
10
156.975
20
-130.656
11
156.975
21
-130.269
0
LINE
8
BLACK
6
CONTINUOUS
10
156.975
20
-130.269
11
156.987
21
-130.202
0
LINE
8
BLACK
6
CONTINUOUS
10
156.987
20
-130.202
11
157.02
21
-130.144
0
LINE
8
BLACK
6
CONTINUOUS
10
157.02
20
-130.144
11
157.072
21
-130.101
0
LINE
8
BLACK
6
CONTINUOUS
10
157.072
20
-130.101
11
157.169
21
-130.075
0
LINE
8
BLACK
6
CONTINUOUS
10
157.169
20
-130.075
11
157.631
21
-130.075
0
LINE
8
BLACK
6
CONTINUOUS
10
157.631
20
-130.075
11
157.698
21
-130.087
0
LINE
8
BLACK
6
CONTINUOUS
10
153.7
20
-130.8
11
153.25
21
-130.8
0
LINE
8
BLACK
6
CONTINUOUS
10
153.25
20
-130.8
11
153.25
21
-129.2
0
LINE
8
BLACK
6
CONTINUOUS
10
153.25
20
-129.2
11
153.7
21
-129.2
0
LINE
8
BLACK
6
CONTINUOUS
10
153.7
20
-129.2
11
153.7
21
-130.8
0
LINE
8
BLACK
6
CONTINUOUS
10
175.398
20
-128.112
11
175.456
21
-128.145
0
LINE
8
BLACK
6
CONTINUOUS
10
175.456
20
-128.145
11
175.499
21
-128.197
0
LINE
8
BLACK
6
CONTINUOUS
10
175.499
20
-128.197
11
175.525
21
-128.294
0
LINE
8
BLACK
6
CONTINUOUS
10
175.525
20
-128.294
11
175.525
21
-128.681
0
LINE
8
BLACK
6
CONTINUOUS
10
175.525
20
-128.681
11
175.513
21
-128.748
0
LINE
8
BLACK
6
CONTINUOUS
10
175.513
20
-128.748
11
175.48
21
-128.806
0
LINE
8
BLACK
6
CONTINUOUS
10
175.48
20
-128.806
11
175.428
21
-128.849
0
LINE
8
BLACK
6
CONTINUOUS
10
175.428
20
-128.849
11
175.331
21
-128.875
0
LINE
8
BLACK
6
CONTINUOUS
10
175.331
20
-128.875
11
174.869
21
-128.875
0
LINE
8
BLACK
6
CONTINUOUS
10
174.869
20
-128.875
11
174.802
21
-128.863
0
LINE
8
BLACK
6
CONTINUOUS
10
174.802
20
-128.863
11
174.744
21
-128.83
0
LINE
8
BLACK
6
CONTINUOUS
10
174.744
20
-128.83
11
174.701
21
-128.778
0
LINE
8
BLACK
6
CONTINUOUS
10
174.701
20
-128.778
11
174.675
21
-128.681
0
LINE
8
BLACK
6
CONTINUOUS
10
174.675
20
-128.681
11
174.675
21
-128.294
0
LINE
8
BLACK
6
CONTINUOUS
10
174.675
20
-128.294
11
174.687
21
-128.227
0
LINE
8
BLACK
6
CONTINUOUS
10
174.687
20
-128.227
11
174.72
21
-128.169
0
LINE
8
BLACK
6
CONTINUOUS
10
174.72
20
-128.169
11
174.772
21
-128.126
0
LINE
8
BLACK
6
CONTINUOUS
10
174.772
20
-128.126
11
174.869
21
-128.1
0
LINE
8
BLACK
6
CONTINUOUS
10
174.869
20
-128.1
11
175.331
21
-128.1
0
LINE
8
BLACK
6
CONTINUOUS
10
175.331
20
-128.1
11
175.398
21
-128.112
0
LINE
8
BLACK
6
CONTINUOUS
10
173.698
20
-128.112
11
173.756
21
-128.145
0
LINE
8
BLACK
6
CONTINUOUS
10
173.756
20
-128.145
11
173.799
21
-128.197
0
LINE
8
BLACK
6
CONTINUOUS
10
173.799
20
-128.197
11
173.825
21
-128.294
0
LINE
8
BLACK
6
CONTINUOUS
10
173.825
20
-128.294
11
173.825
21
-128.681
0
LINE
8
BLACK
6
CONTINUOUS
10
173.825
20
-128.681
11
173.813
21
-128.748
0
LINE
8
BLACK
6
CONTINUOUS
10
173.813
20
-128.748
11
173.78
21
-128.806
0
LINE
8
BLACK
6
CONTINUOUS
10
173.78
20
-128.806
11
173.728
21
-128.849
0
LINE
8
BLACK
6
CONTINUOUS
10
173.728
20
-128.849
11
173.631
21
-128.875
0
LINE
8
BLACK
6
CONTINUOUS
10
173.631
20
-128.875
11
173.169
21
-128.875
0
LINE
8
BLACK
6
CONTINUOUS
10
173.169
20
-128.875
11
173.102
21
-128.863
0
LINE
8
BLACK
6
CONTINUOUS
10
173.102
20
-128.863
11
173.044
21
-128.83
0
LINE
8
BLACK
6
CONTINUOUS
10
173.044
20
-128.83
11
173.001
21
-128.778
0
LINE
8
BLACK
6
CONTINUOUS
10
173.001
20
-128.778
11
172.975
21
-128.681
0
LINE
8
BLACK
6
CONTINUOUS
10
172.975
20
-128.681
11
172.975
21
-128.294
0
LINE
8
BLACK
6
CONTINUOUS
10
172.975
20
-128.294
11
172.987
21
-128.227
0
LINE
8
BLACK
6
CONTINUOUS
10
172.987
20
-128.227
11
173.02
21
-128.169
0
LINE
8
BLACK
6
CONTINUOUS
10
173.02
20
-128.169
11
173.072
21
-128.126
0
LINE
8
BLACK
6
CONTINUOUS
10
173.072
20
-128.126
11
173.169
21
-128.1
0
LINE
8
BLACK
6
CONTINUOUS
10
173.169
20
-128.1
11
173.631
21
-128.1
0
LINE
8
BLACK
6
CONTINUOUS
10
173.631
20
-128.1
11
173.698
21
-128.112
0
LINE
8
BLACK
6
CONTINUOUS
10
172.098
20
-128.112
11
172.156
21
-128.145
0
LINE
8
BLACK
6
CONTINUOUS
10
172.156
20
-128.145
11
172.199
21
-128.197
0
LINE
8
BLACK
6
CONTINUOUS
10
172.199
20
-128.197
11
172.225
21
-128.294
0
LINE
8
BLACK
6
CONTINUOUS
10
172.225
20
-128.294
11
172.225
21
-128.681
0
LINE
8
BLACK
6
CONTINUOUS
10
172.225
20
-128.681
11
172.213
21
-128.748
0
LINE
8
BLACK
6
CONTINUOUS
10
172.213
20
-128.748
11
172.18
21
-128.806
0
LINE
8
BLACK
6
CONTINUOUS
10
172.18
20
-128.806
11
172.128
21
-128.849
0
LINE
8
BLACK
6
CONTINUOUS
10
172.128
20
-128.849
11
172.031
21
-128.875
0
LINE
8
BLACK
6
CONTINUOUS
10
172.031
20
-128.875
11
171.569
21
-128.875
0
LINE
8
BLACK
6
CONTINUOUS
10
171.569
20
-128.875
11
171.502
21
-128.863
0
LINE
8
BLACK
6
CONTINUOUS
10
171.502
20
-128.863
11
171.444
21
-128.83
0
LINE
8
BLACK
6
CONTINUOUS
10
171.444
20
-128.83
11
171.401
21
-128.778
0
LINE
8
BLACK
6
CONTINUOUS
10
171.401
20
-128.778
11
171.375
21
-128.681
0
LINE
8
BLACK
6
CONTINUOUS
10
171.375
20
-128.681
11
171.375
21
-128.294
0
LINE
8
BLACK
6
CONTINUOUS
10
171.375
20
-128.294
11
171.387
21
-128.227
0
LINE
8
BLACK
6
CONTINUOUS
10
171.387
20
-128.227
11
171.42
21
-128.169
0
LINE
8
BLACK
6
CONTINUOUS
10
171.42
20
-128.169
11
171.472
21
-128.126
0
LINE
8
BLACK
6
CONTINUOUS
10
171.472
20
-128.126
11
171.569
21
-128.1
0
LINE
8
BLACK
6
CONTINUOUS
10
171.569
20
-128.1
11
172.031
21
-128.1
0
LINE
8
BLACK
6
CONTINUOUS
10
172.031
20
-128.1
11
172.098
21
-128.112
0
LINE
8
BLACK
6
CONTINUOUS
10
176.998
20
-128.112
11
177.056
21
-128.145
0
LINE
8
BLACK
6
CONTINUOUS
10
177.056
20
-128.145
11
177.099
21
-128.197
0
LINE
8
BLACK
6
CONTINUOUS
10
177.099
20
-128.197
11
177.125
21
-128.294
0
LINE
8
BLACK
6
CONTINUOUS
10
177.125
20
-128.294
11
177.125
21
-128.681
0
LINE
8
BLACK
6
CONTINUOUS
10
177.125
20
-128.681
11
177.113
21
-128.748
0
LINE
8
BLACK
6
CONTINUOUS
10
177.113
20
-128.748
11
177.08
21
-128.806
0
LINE
8
BLACK
6
CONTINUOUS
10
177.08
20
-128.806
11
177.028
21
-128.849
0
LINE
8
BLACK
6
CONTINUOUS
10
177.028
20
-128.849
11
176.931
21
-128.875
0
LINE
8
BLACK
6
CONTINUOUS
10
176.931
20
-128.875
11
176.469
21
-128.875
0
LINE
8
BLACK
6
CONTINUOUS
10
176.469
20
-128.875
11
176.402
21
-128.863
0
LINE
8
BLACK
6
CONTINUOUS
10
176.402
20
-128.863
11
176.344
21
-128.83
0
LINE
8
BLACK
6
CONTINUOUS
10
176.344
20
-128.83
11
176.301
21
-128.778
0
LINE
8
BLACK
6
CONTINUOUS
10
176.301
20
-128.778
11
176.275
21
-128.681
0
LINE
8
BLACK
6
CONTINUOUS
10
176.275
20
-128.681
11
176.275
21
-128.294
0
LINE
8
BLACK
6
CONTINUOUS
10
176.275
20
-128.294
11
176.287
21
-128.227
0
LINE
8
BLACK
6
CONTINUOUS
10
176.287
20
-128.227
11
176.32
21
-128.169
0
LINE
8
BLACK
6
CONTINUOUS
10
176.32
20
-128.169
11
176.372
21
-128.126
0
LINE
8
BLACK
6
CONTINUOUS
10
176.372
20
-128.126
11
176.469
21
-128.1
0
LINE
8
BLACK
6
CONTINUOUS
10
176.469
20
-128.1
11
176.931
21
-128.1
0
LINE
8
BLACK
6
CONTINUOUS
10
176.931
20
-128.1
11
176.998
21
-128.112
0
LINE
8
BLACK
6
CONTINUOUS
10
154.55
20
-128.35
11
153.65
21
-128.35
0
LINE
8
BLACK
6
CONTINUOUS
10
153.65
20
-128.35
11
153.65
21
-127.55
0
LINE
8
BLACK
6
CONTINUOUS
10
153.65
20
-127.55
11
154.55
21
-127.55
0
LINE
8
BLACK
6
CONTINUOUS
10
154.55
20
-127.55
11
154.55
21
-128.35
0
LINE
8
BLACK
6
CONTINUOUS
10
156.15
20
-128.35
11
155.25
21
-128.35
0
LINE
8
BLACK
6
CONTINUOUS
10
155.25
20
-128.35
11
155.25
21
-127.55
0
LINE
8
BLACK
6
CONTINUOUS
10
155.25
20
-127.55
11
156.15
21
-127.55
0
LINE
8
BLACK
6
CONTINUOUS
10
156.15
20
-127.55
11
156.15
21
-128.35
0
LINE
8
BLACK
6
CONTINUOUS
10
170.498
20
-127.312
11
170.556
21
-127.345
0
LINE
8
BLACK
6
CONTINUOUS
10
170.556
20
-127.345
11
170.599
21
-127.397
0
LINE
8
BLACK
6
CONTINUOUS
10
170.599
20
-127.397
11
170.625
21
-127.494
0
LINE
8
BLACK
6
CONTINUOUS
10
170.625
20
-127.494
11
170.625
21
-127.881
0
LINE
8
BLACK
6
CONTINUOUS
10
170.625
20
-127.881
11
170.613
21
-127.948
0
LINE
8
BLACK
6
CONTINUOUS
10
170.613
20
-127.948
11
170.58
21
-128.006
0
LINE
8
BLACK
6
CONTINUOUS
10
170.58
20
-128.006
11
170.528
21
-128.049
0
LINE
8
BLACK
6
CONTINUOUS
10
170.528
20
-128.049
11
170.431
21
-128.075
0
LINE
8
BLACK
6
CONTINUOUS
10
170.431
20
-128.075
11
169.969
21
-128.075
0
LINE
8
BLACK
6
CONTINUOUS
10
169.969
20
-128.075
11
169.902
21
-128.063
0
LINE
8
BLACK
6
CONTINUOUS
10
169.902
20
-128.063
11
169.844
21
-128.03
0
LINE
8
BLACK
6
CONTINUOUS
10
169.844
20
-128.03
11
169.801
21
-127.978
0
LINE
8
BLACK
6
CONTINUOUS
10
169.801
20
-127.978
11
169.775
21
-127.881
0
LINE
8
BLACK
6
CONTINUOUS
10
169.775
20
-127.881
11
169.775
21
-127.494
0
LINE
8
BLACK
6
CONTINUOUS
10
169.775
20
-127.494
11
169.787
21
-127.427
0
LINE
8
BLACK
6
CONTINUOUS
10
169.787
20
-127.427
11
169.82
21
-127.369
0
LINE
8
BLACK
6
CONTINUOUS
10
169.82
20
-127.369
11
169.872
21
-127.326
0
LINE
8
BLACK
6
CONTINUOUS
10
169.872
20
-127.326
11
169.969
21
-127.3
0
LINE
8
BLACK
6
CONTINUOUS
10
169.969
20
-127.3
11
170.431
21
-127.3
0
LINE
8
BLACK
6
CONTINUOUS
10
170.431
20
-127.3
11
170.498
21
-127.312
0
LINE
8
BLACK
6
CONTINUOUS
10
175.398
20
-126.537
11
175.456
21
-126.57
0
LINE
8
BLACK
6
CONTINUOUS
10
175.456
20
-126.57
11
175.499
21
-126.622
0
LINE
8
BLACK
6
CONTINUOUS
10
175.499
20
-126.622
11
175.525
21
-126.719
0
LINE
8
BLACK
6
CONTINUOUS
10
175.525
20
-126.719
11
175.525
21
-127.106
0
LINE
8
BLACK
6
CONTINUOUS
10
175.525
20
-127.106
11
175.513
21
-127.173
0
LINE
8
BLACK
6
CONTINUOUS
10
175.513
20
-127.173
11
175.48
21
-127.231
0
LINE
8
BLACK
6
CONTINUOUS
10
175.48
20
-127.231
11
175.428
21
-127.274
0
LINE
8
BLACK
6
CONTINUOUS
10
175.428
20
-127.274
11
175.331
21
-127.3
0
LINE
8
BLACK
6
CONTINUOUS
10
175.331
20
-127.3
11
174.869
21
-127.3
0
LINE
8
BLACK
6
CONTINUOUS
10
174.869
20
-127.3
11
174.802
21
-127.288
0
LINE
8
BLACK
6
CONTINUOUS
10
174.802
20
-127.288
11
174.744
21
-127.255
0
LINE
8
BLACK
6
CONTINUOUS
10
174.744
20
-127.255
11
174.701
21
-127.203
0
LINE
8
BLACK
6
CONTINUOUS
10
174.701
20
-127.203
11
174.675
21
-127.106
0
LINE
8
BLACK
6
CONTINUOUS
10
174.675
20
-127.106
11
174.675
21
-126.719
0
LINE
8
BLACK
6
CONTINUOUS
10
174.675
20
-126.719
11
174.687
21
-126.652
0
LINE
8
BLACK
6
CONTINUOUS
10
174.687
20
-126.652
11
174.72
21
-126.594
0
LINE
8
BLACK
6
CONTINUOUS
10
174.72
20
-126.594
11
174.772
21
-126.551
0
LINE
8
BLACK
6
CONTINUOUS
10
174.772
20
-126.551
11
174.869
21
-126.525
0
LINE
8
BLACK
6
CONTINUOUS
10
174.869
20
-126.525
11
175.331
21
-126.525
0
LINE
8
BLACK
6
CONTINUOUS
10
175.331
20
-126.525
11
175.398
21
-126.537
0
LINE
8
BLACK
6
CONTINUOUS
10
176.998
20
-126.537
11
177.056
21
-126.57
0
LINE
8
BLACK
6
CONTINUOUS
10
177.056
20
-126.57
11
177.099
21
-126.622
0
LINE
8
BLACK
6
CONTINUOUS
10
177.099
20
-126.622
11
177.125
21
-126.719
0
LINE
8
BLACK
6
CONTINUOUS
10
177.125
20
-126.719
11
177.125
21
-127.106
0
LINE
8
BLACK
6
CONTINUOUS
10
177.125
20
-127.106
11
177.113
21
-127.173
0
LINE
8
BLACK
6
CONTINUOUS
10
177.113
20
-127.173
11
177.08
21
-127.231
0
LINE
8
BLACK
6
CONTINUOUS
10
177.08
20
-127.231
11
177.028
21
-127.274
0
LINE
8
BLACK
6
CONTINUOUS
10
177.028
20
-127.274
11
176.931
21
-127.3
0
LINE
8
BLACK
6
CONTINUOUS
10
176.931
20
-127.3
11
176.469
21
-127.3
0
LINE
8
BLACK
6
CONTINUOUS
10
176.469
20
-127.3
11
176.402
21
-127.288
0
LINE
8
BLACK
6
CONTINUOUS
10
176.402
20
-127.288
11
176.344
21
-127.255
0
LINE
8
BLACK
6
CONTINUOUS
10
176.344
20
-127.255
11
176.301
21
-127.203
0
LINE
8
BLACK
6
CONTINUOUS
10
176.301
20
-127.203
11
176.275
21
-127.106
0
LINE
8
BLACK
6
CONTINUOUS
10
176.275
20
-127.106
11
176.275
21
-126.719
0
LINE
8
BLACK
6
CONTINUOUS
10
176.275
20
-126.719
11
176.287
21
-126.652
0
LINE
8
BLACK
6
CONTINUOUS
10
176.287
20
-126.652
11
176.32
21
-126.594
0
LINE
8
BLACK
6
CONTINUOUS
10
176.32
20
-126.594
11
176.372
21
-126.551
0
LINE
8
BLACK
6
CONTINUOUS
10
176.372
20
-126.551
11
176.469
21
-126.525
0
LINE
8
BLACK
6
CONTINUOUS
10
176.469
20
-126.525
11
176.931
21
-126.525
0
LINE
8
BLACK
6
CONTINUOUS
10
176.931
20
-126.525
11
176.998
21
-126.537
0
LINE
8
BLACK
6
CONTINUOUS
10
172.098
20
-126.537
11
172.156
21
-126.57
0
LINE
8
BLACK
6
CONTINUOUS
10
172.156
20
-126.57
11
172.199
21
-126.622
0
LINE
8
BLACK
6
CONTINUOUS
10
172.199
20
-126.622
11
172.225
21
-126.719
0
LINE
8
BLACK
6
CONTINUOUS
10
172.225
20
-126.719
11
172.225
21
-127.106
0
LINE
8
BLACK
6
CONTINUOUS
10
172.225
20
-127.106
11
172.213
21
-127.173
0
LINE
8
BLACK
6
CONTINUOUS
10
172.213
20
-127.173
11
172.18
21
-127.231
0
LINE
8
BLACK
6
CONTINUOUS
10
172.18
20
-127.231
11
172.128
21
-127.274
0
LINE
8
BLACK
6
CONTINUOUS
10
172.128
20
-127.274
11
172.031
21
-127.3
0
LINE
8
BLACK
6
CONTINUOUS
10
172.031
20
-127.3
11
171.569
21
-127.3
0
LINE
8
BLACK
6
CONTINUOUS
10
171.569
20
-127.3
11
171.502
21
-127.288
0
LINE
8
BLACK
6
CONTINUOUS
10
171.502
20
-127.288
11
171.444
21
-127.255
0
LINE
8
BLACK
6
CONTINUOUS
10
171.444
20
-127.255
11
171.401
21
-127.203
0
LINE
8
BLACK
6
CONTINUOUS
10
171.401
20
-127.203
11
171.375
21
-127.106
0
LINE
8
BLACK
6
CONTINUOUS
10
171.375
20
-127.106
11
171.375
21
-126.719
0
LINE
8
BLACK
6
CONTINUOUS
10
171.375
20
-126.719
11
171.387
21
-126.652
0
LINE
8
BLACK
6
CONTINUOUS
10
171.387
20
-126.652
11
171.42
21
-126.594
0
LINE
8
BLACK
6
CONTINUOUS
10
171.42
20
-126.594
11
171.472
21
-126.551
0
LINE
8
BLACK
6
CONTINUOUS
10
171.472
20
-126.551
11
171.569
21
-126.525
0
LINE
8
BLACK
6
CONTINUOUS
10
171.569
20
-126.525
11
172.031
21
-126.525
0
LINE
8
BLACK
6
CONTINUOUS
10
172.031
20
-126.525
11
172.098
21
-126.537
0
LINE
8
BLACK
6
CONTINUOUS
10
173.698
20
-126.537
11
173.756
21
-126.57
0
LINE
8
BLACK
6
CONTINUOUS
10
173.756
20
-126.57
11
173.799
21
-126.622
0
LINE
8
BLACK
6
CONTINUOUS
10
173.799
20
-126.622
11
173.825
21
-126.719
0
LINE
8
BLACK
6
CONTINUOUS
10
173.825
20
-126.719
11
173.825
21
-127.106
0
LINE
8
BLACK
6
CONTINUOUS
10
173.825
20
-127.106
11
173.813
21
-127.173
0
LINE
8
BLACK
6
CONTINUOUS
10
173.813
20
-127.173
11
173.78
21
-127.231
0
LINE
8
BLACK
6
CONTINUOUS
10
173.78
20
-127.231
11
173.728
21
-127.274
0
LINE
8
BLACK
6
CONTINUOUS
10
173.728
20
-127.274
11
173.631
21
-127.3
0
LINE
8
BLACK
6
CONTINUOUS
10
173.631
20
-127.3
11
173.169
21
-127.3
0
LINE
8
BLACK
6
CONTINUOUS
10
173.169
20
-127.3
11
173.102
21
-127.288
0
LINE
8
BLACK
6
CONTINUOUS
10
173.102
20
-127.288
11
173.044
21
-127.255
0
LINE
8
BLACK
6
CONTINUOUS
10
173.044
20
-127.255
11
173.001
21
-127.203
0
LINE
8
BLACK
6
CONTINUOUS
10
173.001
20
-127.203
11
172.975
21
-127.106
0
LINE
8
BLACK
6
CONTINUOUS
10
172.975
20
-127.106
11
172.975
21
-126.719
0
LINE
8
BLACK
6
CONTINUOUS
10
172.975
20
-126.719
11
172.987
21
-126.652
0
LINE
8
BLACK
6
CONTINUOUS
10
172.987
20
-126.652
11
173.02
21
-126.594
0
LINE
8
BLACK
6
CONTINUOUS
10
173.02
20
-126.594
11
173.072
21
-126.551
0
LINE
8
BLACK
6
CONTINUOUS
10
173.072
20
-126.551
11
173.169
21
-126.525
0
LINE
8
BLACK
6
CONTINUOUS
10
173.169
20
-126.525
11
173.631
21
-126.525
0
LINE
8
BLACK
6
CONTINUOUS
10
173.631
20
-126.525
11
173.698
21
-126.537
0
LINE
8
BLACK
6
CONTINUOUS
10
155.998
20
-126.212
11
156.056
21
-126.245
0
LINE
8
BLACK
6
CONTINUOUS
10
156.056
20
-126.245
11
156.099
21
-126.297
0
LINE
8
BLACK
6
CONTINUOUS
10
156.099
20
-126.297
11
156.125
21
-126.394
0
LINE
8
BLACK
6
CONTINUOUS
10
156.125
20
-126.394
11
156.125
21
-126.781
0
LINE
8
BLACK
6
CONTINUOUS
10
156.125
20
-126.781
11
156.113
21
-126.848
0
LINE
8
BLACK
6
CONTINUOUS
10
156.113
20
-126.848
11
156.08
21
-126.906
0
LINE
8
BLACK
6
CONTINUOUS
10
156.08
20
-126.906
11
156.028
21
-126.949
0
LINE
8
BLACK
6
CONTINUOUS
10
156.028
20
-126.949
11
155.931
21
-126.975
0
LINE
8
BLACK
6
CONTINUOUS
10
155.931
20
-126.975
11
155.469
21
-126.975
0
LINE
8
BLACK
6
CONTINUOUS
10
155.469
20
-126.975
11
155.402
21
-126.963
0
LINE
8
BLACK
6
CONTINUOUS
10
155.402
20
-126.963
11
155.344
21
-126.93
0
LINE
8
BLACK
6
CONTINUOUS
10
155.344
20
-126.93
11
155.301
21
-126.878
0
LINE
8
BLACK
6
CONTINUOUS
10
155.301
20
-126.878
11
155.275
21
-126.781
0
LINE
8
BLACK
6
CONTINUOUS
10
155.275
20
-126.781
11
155.275
21
-126.394
0
LINE
8
BLACK
6
CONTINUOUS
10
155.275
20
-126.394
11
155.287
21
-126.327
0
LINE
8
BLACK
6
CONTINUOUS
10
155.287
20
-126.327
11
155.32
21
-126.269
0
LINE
8
BLACK
6
CONTINUOUS
10
155.32
20
-126.269
11
155.372
21
-126.226
0
LINE
8
BLACK
6
CONTINUOUS
10
155.372
20
-126.226
11
155.469
21
-126.2
0
LINE
8
BLACK
6
CONTINUOUS
10
155.469
20
-126.2
11
155.931
21
-126.2
0
LINE
8
BLACK
6
CONTINUOUS
10
155.931
20
-126.2
11
155.998
21
-126.212
0
LINE
8
BLACK
6
CONTINUOUS
10
182.873
20
-125.887
11
182.931
21
-125.92
0
LINE
8
BLACK
6
CONTINUOUS
10
182.931
20
-125.92
11
182.974
21
-125.972
0
LINE
8
BLACK
6
CONTINUOUS
10
182.974
20
-125.972
11
183
21
-126.069
0
LINE
8
BLACK
6
CONTINUOUS
10
183
20
-126.069
11
183
21
-126.531
0
LINE
8
BLACK
6
CONTINUOUS
10
183
20
-126.531
11
182.988
21
-126.598
0
LINE
8
BLACK
6
CONTINUOUS
10
182.988
20
-126.598
11
182.955
21
-126.656
0
LINE
8
BLACK
6
CONTINUOUS
10
182.955
20
-126.656
11
182.903
21
-126.699
0
LINE
8
BLACK
6
CONTINUOUS
10
182.903
20
-126.699
11
182.806
21
-126.725
0
LINE
8
BLACK
6
CONTINUOUS
10
182.806
20
-126.725
11
182.419
21
-126.725
0
LINE
8
BLACK
6
CONTINUOUS
10
182.419
20
-126.725
11
182.352
21
-126.713
0
LINE
8
BLACK
6
CONTINUOUS
10
182.352
20
-126.713
11
182.294
21
-126.68
0
LINE
8
BLACK
6
CONTINUOUS
10
182.294
20
-126.68
11
182.251
21
-126.628
0
LINE
8
BLACK
6
CONTINUOUS
10
182.251
20
-126.628
11
182.225
21
-126.531
0
LINE
8
BLACK
6
CONTINUOUS
10
182.225
20
-126.531
11
182.225
21
-126.069
0
LINE
8
BLACK
6
CONTINUOUS
10
182.225
20
-126.069
11
182.237
21
-126.002
0
LINE
8
BLACK
6
CONTINUOUS
10
182.237
20
-126.002
11
182.27
21
-125.944
0
LINE
8
BLACK
6
CONTINUOUS
10
182.27
20
-125.944
11
182.322
21
-125.901
0
LINE
8
BLACK
6
CONTINUOUS
10
182.322
20
-125.901
11
182.419
21
-125.875
0
LINE
8
BLACK
6
CONTINUOUS
10
182.419
20
-125.875
11
182.806
21
-125.875
0
LINE
8
BLACK
6
CONTINUOUS
10
182.806
20
-125.875
11
182.873
21
-125.887
0
LINE
8
BLACK
6
CONTINUOUS
10
184.448
20
-125.887
11
184.506
21
-125.92
0
LINE
8
BLACK
6
CONTINUOUS
10
184.506
20
-125.92
11
184.549
21
-125.972
0
LINE
8
BLACK
6
CONTINUOUS
10
184.549
20
-125.972
11
184.575
21
-126.069
0
LINE
8
BLACK
6
CONTINUOUS
10
184.575
20
-126.069
11
184.575
21
-126.531
0
LINE
8
BLACK
6
CONTINUOUS
10
184.575
20
-126.531
11
184.563
21
-126.598
0
LINE
8
BLACK
6
CONTINUOUS
10
184.563
20
-126.598
11
184.53
21
-126.656
0
LINE
8
BLACK
6
CONTINUOUS
10
184.53
20
-126.656
11
184.478
21
-126.699
0
LINE
8
BLACK
6
CONTINUOUS
10
184.478
20
-126.699
11
184.381
21
-126.725
0
LINE
8
BLACK
6
CONTINUOUS
10
184.381
20
-126.725
11
183.994
21
-126.725
0
LINE
8
BLACK
6
CONTINUOUS
10
183.994
20
-126.725
11
183.927
21
-126.713
0
LINE
8
BLACK
6
CONTINUOUS
10
183.927
20
-126.713
11
183.869
21
-126.68
0
LINE
8
BLACK
6
CONTINUOUS
10
183.869
20
-126.68
11
183.826
21
-126.628
0
LINE
8
BLACK
6
CONTINUOUS
10
183.826
20
-126.628
11
183.8
21
-126.531
0
LINE
8
BLACK
6
CONTINUOUS
10
183.8
20
-126.531
11
183.8
21
-126.069
0
LINE
8
BLACK
6
CONTINUOUS
10
183.8
20
-126.069
11
183.812
21
-126.002
0
LINE
8
BLACK
6
CONTINUOUS
10
183.812
20
-126.002
11
183.845
21
-125.944
0
LINE
8
BLACK
6
CONTINUOUS
10
183.845
20
-125.944
11
183.897
21
-125.901
0
LINE
8
BLACK
6
CONTINUOUS
10
183.897
20
-125.901
11
183.994
21
-125.875
0
LINE
8
BLACK
6
CONTINUOUS
10
183.994
20
-125.875
11
184.381
21
-125.875
0
LINE
8
BLACK
6
CONTINUOUS
10
184.381
20
-125.875
11
184.448
21
-125.887
0
LINE
8
BLACK
6
CONTINUOUS
10
170.498
20
-125.737
11
170.556
21
-125.77
0
LINE
8
BLACK
6
CONTINUOUS
10
170.556
20
-125.77
11
170.599
21
-125.822
0
LINE
8
BLACK
6
CONTINUOUS
10
170.599
20
-125.822
11
170.625
21
-125.919
0
LINE
8
BLACK
6
CONTINUOUS
10
170.625
20
-125.919
11
170.625
21
-126.306
0
LINE
8
BLACK
6
CONTINUOUS
10
170.625
20
-126.306
11
170.613
21
-126.373
0
LINE
8
BLACK
6
CONTINUOUS
10
170.613
20
-126.373
11
170.58
21
-126.431
0
LINE
8
BLACK
6
CONTINUOUS
10
170.58
20
-126.431
11
170.528
21
-126.474
0
LINE
8
BLACK
6
CONTINUOUS
10
170.528
20
-126.474
11
170.431
21
-126.5
0
LINE
8
BLACK
6
CONTINUOUS
10
170.431
20
-126.5
11
169.969
21
-126.5
0
LINE
8
BLACK
6
CONTINUOUS
10
169.969
20
-126.5
11
169.902
21
-126.488
0
LINE
8
BLACK
6
CONTINUOUS
10
169.902
20
-126.488
11
169.844
21
-126.455
0
LINE
8
BLACK
6
CONTINUOUS
10
169.844
20
-126.455
11
169.801
21
-126.403
0
LINE
8
BLACK
6
CONTINUOUS
10
169.801
20
-126.403
11
169.775
21
-126.306
0
LINE
8
BLACK
6
CONTINUOUS
10
169.775
20
-126.306
11
169.775
21
-125.919
0
LINE
8
BLACK
6
CONTINUOUS
10
169.775
20
-125.919
11
169.787
21
-125.852
0
LINE
8
BLACK
6
CONTINUOUS
10
169.787
20
-125.852
11
169.82
21
-125.794
0
LINE
8
BLACK
6
CONTINUOUS
10
169.82
20
-125.794
11
169.872
21
-125.751
0
LINE
8
BLACK
6
CONTINUOUS
10
169.872
20
-125.751
11
169.969
21
-125.725
0
LINE
8
BLACK
6
CONTINUOUS
10
169.969
20
-125.725
11
170.431
21
-125.725
0
LINE
8
BLACK
6
CONTINUOUS
10
170.431
20
-125.725
11
170.498
21
-125.737
0
LINE
8
BLACK
6
CONTINUOUS
10
176.948
20
-124.887
11
177.006
21
-124.92
0
LINE
8
BLACK
6
CONTINUOUS
10
177.006
20
-124.92
11
177.049
21
-124.972
0
LINE
8
BLACK
6
CONTINUOUS
10
177.049
20
-124.972
11
177.075
21
-125.069
0
LINE
8
BLACK
6
CONTINUOUS
10
177.075
20
-125.069
11
177.075
21
-125.531
0
LINE
8
BLACK
6
CONTINUOUS
10
177.075
20
-125.531
11
177.063
21
-125.598
0
LINE
8
BLACK
6
CONTINUOUS
10
177.063
20
-125.598
11
177.03
21
-125.656
0
LINE
8
BLACK
6
CONTINUOUS
10
177.03
20
-125.656
11
176.978
21
-125.699
0
LINE
8
BLACK
6
CONTINUOUS
10
176.978
20
-125.699
11
176.881
21
-125.725
0
LINE
8
BLACK
6
CONTINUOUS
10
176.881
20
-125.725
11
176.494
21
-125.725
0
LINE
8
BLACK
6
CONTINUOUS
10
176.494
20
-125.725
11
176.427
21
-125.713
0
LINE
8
BLACK
6
CONTINUOUS
10
176.427
20
-125.713
11
176.369
21
-125.68
0
LINE
8
BLACK
6
CONTINUOUS
10
176.369
20
-125.68
11
176.326
21
-125.628
0
LINE
8
BLACK
6
CONTINUOUS
10
176.326
20
-125.628
11
176.3
21
-125.531
0
LINE
8
BLACK
6
CONTINUOUS
10
176.3
20
-125.531
11
176.3
21
-125.069
0
LINE
8
BLACK
6
CONTINUOUS
10
176.3
20
-125.069
11
176.312
21
-125.002
0
LINE
8
BLACK
6
CONTINUOUS
10
176.312
20
-125.002
11
176.345
21
-124.944
0
LINE
8
BLACK
6
CONTINUOUS
10
176.345
20
-124.944
11
176.397
21
-124.901
0
LINE
8
BLACK
6
CONTINUOUS
10
176.397
20
-124.901
11
176.494
21
-124.875
0
LINE
8
BLACK
6
CONTINUOUS
10
176.494
20
-124.875
11
176.881
21
-124.875
0
LINE
8
BLACK
6
CONTINUOUS
10
176.881
20
-124.875
11
176.948
21
-124.887
0
LINE
8
BLACK
6
CONTINUOUS
10
173.648
20
-124.887
11
173.706
21
-124.92
0
LINE
8
BLACK
6
CONTINUOUS
10
173.706
20
-124.92
11
173.749
21
-124.972
0
LINE
8
BLACK
6
CONTINUOUS
10
173.749
20
-124.972
11
173.775
21
-125.069
0
LINE
8
BLACK
6
CONTINUOUS
10
173.775
20
-125.069
11
173.775
21
-125.531
0
LINE
8
BLACK
6
CONTINUOUS
10
173.775
20
-125.531
11
173.763
21
-125.598
0
LINE
8
BLACK
6
CONTINUOUS
10
173.763
20
-125.598
11
173.73
21
-125.656
0
LINE
8
BLACK
6
CONTINUOUS
10
173.73
20
-125.656
11
173.678
21
-125.699
0
LINE
8
BLACK
6
CONTINUOUS
10
173.678
20
-125.699
11
173.581
21
-125.725
0
LINE
8
BLACK
6
CONTINUOUS
10
173.581
20
-125.725
11
173.194
21
-125.725
0
LINE
8
BLACK
6
CONTINUOUS
10
173.194
20
-125.725
11
173.127
21
-125.713
0
LINE
8
BLACK
6
CONTINUOUS
10
173.127
20
-125.713
11
173.069
21
-125.68
0
LINE
8
BLACK
6
CONTINUOUS
10
173.069
20
-125.68
11
173.026
21
-125.628
0
LINE
8
BLACK
6
CONTINUOUS
10
173.026
20
-125.628
11
173
21
-125.531
0
LINE
8
BLACK
6
CONTINUOUS
10
173
20
-125.531
11
173
21
-125.069
0
LINE
8
BLACK
6
CONTINUOUS
10
173
20
-125.069
11
173.012
21
-125.002
0
LINE
8
BLACK
6
CONTINUOUS
10
173.012
20
-125.002
11
173.045
21
-124.944
0
LINE
8
BLACK
6
CONTINUOUS
10
173.045
20
-124.944
11
173.097
21
-124.901
0
LINE
8
BLACK
6
CONTINUOUS
10
173.097
20
-124.901
11
173.194
21
-124.875
0
LINE
8
BLACK
6
CONTINUOUS
10
173.194
20
-124.875
11
173.581
21
-124.875
0
LINE
8
BLACK
6
CONTINUOUS
10
173.581
20
-124.875
11
173.648
21
-124.887
0
LINE
8
BLACK
6
CONTINUOUS
10
172.073
20
-124.887
11
172.131
21
-124.92
0
LINE
8
BLACK
6
CONTINUOUS
10
172.131
20
-124.92
11
172.174
21
-124.972
0
LINE
8
BLACK
6
CONTINUOUS
10
172.174
20
-124.972
11
172.2
21
-125.069
0
LINE
8
BLACK
6
CONTINUOUS
10
172.2
20
-125.069
11
172.2
21
-125.531
0
LINE
8
BLACK
6
CONTINUOUS
10
172.2
20
-125.531
11
172.188
21
-125.598
0
LINE
8
BLACK
6
CONTINUOUS
10
172.188
20
-125.598
11
172.155
21
-125.656
0
LINE
8
BLACK
6
CONTINUOUS
10
172.155
20
-125.656
11
172.103
21
-125.699
0
LINE
8
BLACK
6
CONTINUOUS
10
172.103
20
-125.699
11
172.006
21
-125.725
0
LINE
8
BLACK
6
CONTINUOUS
10
172.006
20
-125.725
11
171.619
21
-125.725
0
LINE
8
BLACK
6
CONTINUOUS
10
171.619
20
-125.725
11
171.552
21
-125.713
0
LINE
8
BLACK
6
CONTINUOUS
10
171.552
20
-125.713
11
171.494
21
-125.68
0
LINE
8
BLACK
6
CONTINUOUS
10
171.494
20
-125.68
11
171.451
21
-125.628
0
LINE
8
BLACK
6
CONTINUOUS
10
171.451
20
-125.628
11
171.425
21
-125.531
0
LINE
8
BLACK
6
CONTINUOUS
10
171.425
20
-125.531
11
171.425
21
-125.069
0
LINE
8
BLACK
6
CONTINUOUS
10
171.425
20
-125.069
11
171.437
21
-125.002
0
LINE
8
BLACK
6
CONTINUOUS
10
171.437
20
-125.002
11
171.47
21
-124.944
0
LINE
8
BLACK
6
CONTINUOUS
10
171.47
20
-124.944
11
171.522
21
-124.901
0
LINE
8
BLACK
6
CONTINUOUS
10
171.522
20
-124.901
11
171.619
21
-124.875
0
LINE
8
BLACK
6
CONTINUOUS
10
171.619
20
-124.875
11
172.006
21
-124.875
0
LINE
8
BLACK
6
CONTINUOUS
10
172.006
20
-124.875
11
172.073
21
-124.887
0
LINE
8
BLACK
6
CONTINUOUS
10
175.373
20
-124.887
11
175.431
21
-124.92
0
LINE
8
BLACK
6
CONTINUOUS
10
175.431
20
-124.92
11
175.474
21
-124.972
0
LINE
8
BLACK
6
CONTINUOUS
10
175.474
20
-124.972
11
175.5
21
-125.069
0
LINE
8
BLACK
6
CONTINUOUS
10
175.5
20
-125.069
11
175.5
21
-125.531
0
LINE
8
BLACK
6
CONTINUOUS
10
175.5
20
-125.531
11
175.488
21
-125.598
0
LINE
8
BLACK
6
CONTINUOUS
10
175.488
20
-125.598
11
175.455
21
-125.656
0
LINE
8
BLACK
6
CONTINUOUS
10
175.455
20
-125.656
11
175.403
21
-125.699
0
LINE
8
BLACK
6
CONTINUOUS
10
175.403
20
-125.699
11
175.306
21
-125.725
0
LINE
8
BLACK
6
CONTINUOUS
10
175.306
20
-125.725
11
174.919
21
-125.725
0
LINE
8
BLACK
6
CONTINUOUS
10
174.919
20
-125.725
11
174.852
21
-125.713
0
LINE
8
BLACK
6
CONTINUOUS
10
174.852
20
-125.713
11
174.794
21
-125.68
0
LINE
8
BLACK
6
CONTINUOUS
10
174.794
20
-125.68
11
174.751
21
-125.628
0
LINE
8
BLACK
6
CONTINUOUS
10
174.751
20
-125.628
11
174.725
21
-125.531
0
LINE
8
BLACK
6
CONTINUOUS
10
174.725
20
-125.531
11
174.725
21
-125.069
0
LINE
8
BLACK
6
CONTINUOUS
10
174.725
20
-125.069
11
174.737
21
-125.002
0
LINE
8
BLACK
6
CONTINUOUS
10
174.737
20
-125.002
11
174.77
21
-124.944
0
LINE
8
BLACK
6
CONTINUOUS
10
174.77
20
-124.944
11
174.822
21
-124.901
0
LINE
8
BLACK
6
CONTINUOUS
10
174.822
20
-124.901
11
174.919
21
-124.875
0
LINE
8
BLACK
6
CONTINUOUS
10
174.919
20
-124.875
11
175.306
21
-124.875
0
LINE
8
BLACK
6
CONTINUOUS
10
175.306
20
-124.875
11
175.373
21
-124.887
0
LINE
8
BLACK
6
CONTINUOUS
10
155.998
20
-124.637
11
156.056
21
-124.67
0
LINE
8
BLACK
6
CONTINUOUS
10
156.056
20
-124.67
11
156.099
21
-124.722
0
LINE
8
BLACK
6
CONTINUOUS
10
156.099
20
-124.722
11
156.125
21
-124.819
0
LINE
8
BLACK
6
CONTINUOUS
10
156.125
20
-124.819
11
156.125
21
-125.206
0
LINE
8
BLACK
6
CONTINUOUS
10
156.125
20
-125.206
11
156.113
21
-125.273
0
LINE
8
BLACK
6
CONTINUOUS
10
156.113
20
-125.273
11
156.08
21
-125.331
0
LINE
8
BLACK
6
CONTINUOUS
10
156.08
20
-125.331
11
156.028
21
-125.374
0
LINE
8
BLACK
6
CONTINUOUS
10
156.028
20
-125.374
11
155.931
21
-125.4
0
LINE
8
BLACK
6
CONTINUOUS
10
155.931
20
-125.4
11
155.469
21
-125.4
0
LINE
8
BLACK
6
CONTINUOUS
10
155.469
20
-125.4
11
155.402
21
-125.388
0
LINE
8
BLACK
6
CONTINUOUS
10
155.402
20
-125.388
11
155.344
21
-125.355
0
LINE
8
BLACK
6
CONTINUOUS
10
155.344
20
-125.355
11
155.301
21
-125.303
0
LINE
8
BLACK
6
CONTINUOUS
10
155.301
20
-125.303
11
155.275
21
-125.206
0
LINE
8
BLACK
6
CONTINUOUS
10
155.275
20
-125.206
11
155.275
21
-124.819
0
LINE
8
BLACK
6
CONTINUOUS
10
155.275
20
-124.819
11
155.287
21
-124.752
0
LINE
8
BLACK
6
CONTINUOUS
10
155.287
20
-124.752
11
155.32
21
-124.694
0
LINE
8
BLACK
6
CONTINUOUS
10
155.32
20
-124.694
11
155.372
21
-124.651
0
LINE
8
BLACK
6
CONTINUOUS
10
155.372
20
-124.651
11
155.469
21
-124.625
0
LINE
8
BLACK
6
CONTINUOUS
10
155.469
20
-124.625
11
155.931
21
-124.625
0
LINE
8
BLACK
6
CONTINUOUS
10
155.931
20
-124.625
11
155.998
21
-124.637
0
LINE
8
BLACK
6
CONTINUOUS
10
187.925
20
-125.08
11
187.375
21
-125.08
0
LINE
8
BLACK
6
CONTINUOUS
10
187.375
20
-125.08
11
187.375
21
-124.12
0
LINE
8
BLACK
6
CONTINUOUS
10
187.375
20
-124.12
11
187.925
21
-124.12
0
LINE
8
BLACK
6
CONTINUOUS
10
187.925
20
-124.12
11
187.925
21
-125.08
0
LINE
8
BLACK
6
CONTINUOUS
10
186.975
20
-125.08
11
186.425
21
-125.08
0
LINE
8
BLACK
6
CONTINUOUS
10
186.425
20
-125.08
11
186.425
21
-124.12
0
LINE
8
BLACK
6
CONTINUOUS
10
186.425
20
-124.12
11
186.975
21
-124.12
0
LINE
8
BLACK
6
CONTINUOUS
10
186.975
20
-124.12
11
186.975
21
-125.08
0
LINE
8
BLACK
6
CONTINUOUS
10
186.025
20
-125.08
11
185.475
21
-125.08
0
LINE
8
BLACK
6
CONTINUOUS
10
185.475
20
-125.08
11
185.475
21
-124.12
0
LINE
8
BLACK
6
CONTINUOUS
10
185.475
20
-124.12
11
186.025
21
-124.12
0
LINE
8
BLACK
6
CONTINUOUS
10
186.025
20
-124.12
11
186.025
21
-125.08
0
LINE
8
BLACK
6
CONTINUOUS
10
184.448
20
-124.187
11
184.506
21
-124.22
0
LINE
8
BLACK
6
CONTINUOUS
10
184.506
20
-124.22
11
184.549
21
-124.272
0
LINE
8
BLACK
6
CONTINUOUS
10
184.549
20
-124.272
11
184.575
21
-124.369
0
LINE
8
BLACK
6
CONTINUOUS
10
184.575
20
-124.369
11
184.575
21
-124.831
0
LINE
8
BLACK
6
CONTINUOUS
10
184.575
20
-124.831
11
184.563
21
-124.898
0
LINE
8
BLACK
6
CONTINUOUS
10
184.563
20
-124.898
11
184.53
21
-124.956
0
LINE
8
BLACK
6
CONTINUOUS
10
184.53
20
-124.956
11
184.478
21
-124.999
0
LINE
8
BLACK
6
CONTINUOUS
10
184.478
20
-124.999
11
184.381
21
-125.025
0
LINE
8
BLACK
6
CONTINUOUS
10
184.381
20
-125.025
11
183.994
21
-125.025
0
LINE
8
BLACK
6
CONTINUOUS
10
183.994
20
-125.025
11
183.927
21
-125.013
0
LINE
8
BLACK
6
CONTINUOUS
10
183.927
20
-125.013
11
183.869
21
-124.98
0
LINE
8
BLACK
6
CONTINUOUS
10
183.869
20
-124.98
11
183.826
21
-124.928
0
LINE
8
BLACK
6
CONTINUOUS
10
183.826
20
-124.928
11
183.8
21
-124.831
0
LINE
8
BLACK
6
CONTINUOUS
10
183.8
20
-124.831
11
183.8
21
-124.369
0
LINE
8
BLACK
6
CONTINUOUS
10
183.8
20
-124.369
11
183.812
21
-124.302
0
LINE
8
BLACK
6
CONTINUOUS
10
183.812
20
-124.302
11
183.845
21
-124.244
0
LINE
8
BLACK
6
CONTINUOUS
10
183.845
20
-124.244
11
183.897
21
-124.201
0
LINE
8
BLACK
6
CONTINUOUS
10
183.897
20
-124.201
11
183.994
21
-124.175
0
LINE
8
BLACK
6
CONTINUOUS
10
183.994
20
-124.175
11
184.381
21
-124.175
0
LINE
8
BLACK
6
CONTINUOUS
10
184.381
20
-124.175
11
184.448
21
-124.187
0
LINE
8
BLACK
6
CONTINUOUS
10
182.873
20
-124.187
11
182.931
21
-124.22
0
LINE
8
BLACK
6
CONTINUOUS
10
182.931
20
-124.22
11
182.974
21
-124.272
0
LINE
8
BLACK
6
CONTINUOUS
10
182.974
20
-124.272
11
183
21
-124.369
0
LINE
8
BLACK
6
CONTINUOUS
10
183
20
-124.369
11
183
21
-124.831
0
LINE
8
BLACK
6
CONTINUOUS
10
183
20
-124.831
11
182.988
21
-124.898
0
LINE
8
BLACK
6
CONTINUOUS
10
182.988
20
-124.898
11
182.955
21
-124.956
0
LINE
8
BLACK
6
CONTINUOUS
10
182.955
20
-124.956
11
182.903
21
-124.999
0
LINE
8
BLACK
6
CONTINUOUS
10
182.903
20
-124.999
11
182.806
21
-125.025
0
LINE
8
BLACK
6
CONTINUOUS
10
182.806
20
-125.025
11
182.419
21
-125.025
0
LINE
8
BLACK
6
CONTINUOUS
10
182.419
20
-125.025
11
182.352
21
-125.013
0
LINE
8
BLACK
6
CONTINUOUS
10
182.352
20
-125.013
11
182.294
21
-124.98
0
LINE
8
BLACK
6
CONTINUOUS
10
182.294
20
-124.98
11
182.251
21
-124.928
0
LINE
8
BLACK
6
CONTINUOUS
10
182.251
20
-124.928
11
182.225
21
-124.831
0
LINE
8
BLACK
6
CONTINUOUS
10
182.225
20
-124.831
11
182.225
21
-124.369
0
LINE
8
BLACK
6
CONTINUOUS
10
182.225
20
-124.369
11
182.237
21
-124.302
0
LINE
8
BLACK
6
CONTINUOUS
10
182.237
20
-124.302
11
182.27
21
-124.244
0
LINE
8
BLACK
6
CONTINUOUS
10
182.27
20
-124.244
11
182.322
21
-124.201
0
LINE
8
BLACK
6
CONTINUOUS
10
182.322
20
-124.201
11
182.419
21
-124.175
0
LINE
8
BLACK
6
CONTINUOUS
10
182.419
20
-124.175
11
182.806
21
-124.175
0
LINE
8
BLACK
6
CONTINUOUS
10
182.806
20
-124.175
11
182.873
21
-124.187
0
LINE
8
BLACK
6
CONTINUOUS
10
160.248
20
-123.962
11
160.306
21
-123.995
0
LINE
8
BLACK
6
CONTINUOUS
10
160.306
20
-123.995
11
160.349
21
-124.047
0
LINE
8
BLACK
6
CONTINUOUS
10
160.349
20
-124.047
11
160.375
21
-124.144
0
LINE
8
BLACK
6
CONTINUOUS
10
160.375
20
-124.144
11
160.375
21
-124.531
0
LINE
8
BLACK
6
CONTINUOUS
10
160.375
20
-124.531
11
160.363
21
-124.598
0
LINE
8
BLACK
6
CONTINUOUS
10
160.363
20
-124.598
11
160.33
21
-124.656
0
LINE
8
BLACK
6
CONTINUOUS
10
160.33
20
-124.656
11
160.278
21
-124.699
0
LINE
8
BLACK
6
CONTINUOUS
10
160.278
20
-124.699
11
160.181
21
-124.725
0
LINE
8
BLACK
6
CONTINUOUS
10
160.181
20
-124.725
11
159.719
21
-124.725
0
LINE
8
BLACK
6
CONTINUOUS
10
159.719
20
-124.725
11
159.652
21
-124.713
0
LINE
8
BLACK
6
CONTINUOUS
10
159.652
20
-124.713
11
159.594
21
-124.68
0
LINE
8
BLACK
6
CONTINUOUS
10
159.594
20
-124.68
11
159.551
21
-124.628
0
LINE
8
BLACK
6
CONTINUOUS
10
159.551
20
-124.628
11
159.525
21
-124.531
0
LINE
8
BLACK
6
CONTINUOUS
10
159.525
20
-124.531
11
159.525
21
-124.144
0
LINE
8
BLACK
6
CONTINUOUS
10
159.525
20
-124.144
11
159.537
21
-124.077
0
LINE
8
BLACK
6
CONTINUOUS
10
159.537
20
-124.077
11
159.57
21
-124.019
0
LINE
8
BLACK
6
CONTINUOUS
10
159.57
20
-124.019
11
159.622
21
-123.976
0
LINE
8
BLACK
6
CONTINUOUS
10
159.622
20
-123.976
11
159.719
21
-123.95
0
LINE
8
BLACK
6
CONTINUOUS
10
159.719
20
-123.95
11
160.181
21
-123.95
0
LINE
8
BLACK
6
CONTINUOUS
10
160.181
20
-123.95
11
160.248
21
-123.962
0
LINE
8
BLACK
6
CONTINUOUS
10
161.8
20
-124.55
11
161.5
21
-124.55
0
LINE
8
BLACK
6
CONTINUOUS
10
161.5
20
-124.55
11
161.5
21
-124.25
0
LINE
8
BLACK
6
CONTINUOUS
10
161.5
20
-124.25
11
161.8
21
-124.25
0
LINE
8
BLACK
6
CONTINUOUS
10
161.8
20
-124.25
11
161.8
21
-124.55
0
LINE
8
BLACK
6
CONTINUOUS
10
162.399
20
-124.371
11
162.399
21
-124.549
0
LINE
8
BLACK
6
CONTINUOUS
10
162.399
20
-124.549
11
162.101
21
-124.549
0
LINE
8
BLACK
6
CONTINUOUS
10
162.101
20
-124.549
11
162.101
21
-124.251
0
LINE
8
BLACK
6
CONTINUOUS
10
162.101
20
-124.251
11
162.279
21
-124.251
0
LINE
8
BLACK
6
CONTINUOUS
10
162.279
20
-124.251
11
162.399
21
-124.371
0
LINE
8
BLACK
6
CONTINUOUS
10
162.4
20
-123.95
11
162.1
21
-123.95
0
LINE
8
BLACK
6
CONTINUOUS
10
162.1
20
-123.95
11
162.1
21
-123.65
0
LINE
8
BLACK
6
CONTINUOUS
10
162.1
20
-123.65
11
162.4
21
-123.65
0
LINE
8
BLACK
6
CONTINUOUS
10
162.4
20
-123.65
11
162.4
21
-123.95
0
LINE
8
BLACK
6
CONTINUOUS
10
161.8
20
-123.95
11
161.5
21
-123.95
0
LINE
8
BLACK
6
CONTINUOUS
10
161.5
20
-123.95
11
161.5
21
-123.65
0
LINE
8
BLACK
6
CONTINUOUS
10
161.5
20
-123.65
11
161.8
21
-123.65
0
LINE
8
BLACK
6
CONTINUOUS
10
161.8
20
-123.65
11
161.8
21
-123.95
0
LINE
8
BLACK
6
CONTINUOUS
10
169.283
20
-122.801
11
168.329
21
-123.755
0
LINE
8
BLACK
6
CONTINUOUS
10
168.329
20
-123.755
11
168.081
21
-123.508
0
LINE
8
BLACK
6
CONTINUOUS
10
168.081
20
-123.508
11
169.036
21
-122.553
0
LINE
8
BLACK
6
CONTINUOUS
10
169.036
20
-122.553
11
169.283
21
-122.801
0
LINE
8
BLACK
6
CONTINUOUS
10
168.824
20
-122.341
11
167.869
21
-123.296
0
LINE
8
BLACK
6
CONTINUOUS
10
167.869
20
-123.296
11
167.622
21
-123.048
0
LINE
8
BLACK
6
CONTINUOUS
10
167.622
20
-123.048
11
168.576
21
-122.094
0
LINE
8
BLACK
6
CONTINUOUS
10
168.576
20
-122.094
11
168.824
21
-122.341
0
LINE
8
BLACK
6
CONTINUOUS
10
165.334
20
-122.169
11
165.42
21
-122.219
0
LINE
8
BLACK
6
CONTINUOUS
10
165.42
20
-122.219
11
165.694
21
-122.493
0
LINE
8
BLACK
6
CONTINUOUS
10
165.694
20
-122.493
11
165.733
21
-122.548
0
LINE
8
BLACK
6
CONTINUOUS
10
165.733
20
-122.548
11
165.75
21
-122.613
0
LINE
8
BLACK
6
CONTINUOUS
10
165.75
20
-122.613
11
165.745
21
-122.68
0
LINE
8
BLACK
6
CONTINUOUS
10
165.745
20
-122.68
11
165.694
21
-122.767
0
LINE
8
BLACK
6
CONTINUOUS
10
165.694
20
-122.767
11
165.367
21
-123.094
0
LINE
8
BLACK
6
CONTINUOUS
10
165.367
20
-123.094
11
165.312
21
-123.133
0
LINE
8
BLACK
6
CONTINUOUS
10
165.312
20
-123.133
11
165.247
21
-123.15
0
LINE
8
BLACK
6
CONTINUOUS
10
165.247
20
-123.15
11
165.18
21
-123.145
0
LINE
8
BLACK
6
CONTINUOUS
10
165.18
20
-123.145
11
165.093
21
-123.094
0
LINE
8
BLACK
6
CONTINUOUS
10
165.093
20
-123.094
11
164.819
21
-122.82
0
LINE
8
BLACK
6
CONTINUOUS
10
164.819
20
-122.82
11
164.781
21
-122.765
0
LINE
8
BLACK
6
CONTINUOUS
10
164.781
20
-122.765
11
164.763
21
-122.7
0
LINE
8
BLACK
6
CONTINUOUS
10
164.763
20
-122.7
11
164.769
21
-122.633
0
LINE
8
BLACK
6
CONTINUOUS
10
164.769
20
-122.633
11
164.819
21
-122.546
0
LINE
8
BLACK
6
CONTINUOUS
10
164.819
20
-122.546
11
165.146
21
-122.219
0
LINE
8
BLACK
6
CONTINUOUS
10
165.146
20
-122.219
11
165.201
21
-122.181
0
LINE
8
BLACK
6
CONTINUOUS
10
165.201
20
-122.181
11
165.266
21
-122.163
0
LINE
8
BLACK
6
CONTINUOUS
10
165.266
20
-122.163
11
165.334
21
-122.169
0
LINE
8
BLACK
6
CONTINUOUS
10
160.248
20
-122.387
11
160.306
21
-122.42
0
LINE
8
BLACK
6
CONTINUOUS
10
160.306
20
-122.42
11
160.349
21
-122.472
0
LINE
8
BLACK
6
CONTINUOUS
10
160.349
20
-122.472
11
160.375
21
-122.569
0
LINE
8
BLACK
6
CONTINUOUS
10
160.375
20
-122.569
11
160.375
21
-122.956
0
LINE
8
BLACK
6
CONTINUOUS
10
160.375
20
-122.956
11
160.363
21
-123.023
0
LINE
8
BLACK
6
CONTINUOUS
10
160.363
20
-123.023
11
160.33
21
-123.081
0
LINE
8
BLACK
6
CONTINUOUS
10
160.33
20
-123.081
11
160.278
21
-123.124
0
LINE
8
BLACK
6
CONTINUOUS
10
160.278
20
-123.124
11
160.181
21
-123.15
0
LINE
8
BLACK
6
CONTINUOUS
10
160.181
20
-123.15
11
159.719
21
-123.15
0
LINE
8
BLACK
6
CONTINUOUS
10
159.719
20
-123.15
11
159.652
21
-123.138
0
LINE
8
BLACK
6
CONTINUOUS
10
159.652
20
-123.138
11
159.594
21
-123.105
0
LINE
8
BLACK
6
CONTINUOUS
10
159.594
20
-123.105
11
159.551
21
-123.053
0
LINE
8
BLACK
6
CONTINUOUS
10
159.551
20
-123.053
11
159.525
21
-122.956
0
LINE
8
BLACK
6
CONTINUOUS
10
159.525
20
-122.956
11
159.525
21
-122.569
0
LINE
8
BLACK
6
CONTINUOUS
10
159.525
20
-122.569
11
159.537
21
-122.502
0
LINE
8
BLACK
6
CONTINUOUS
10
159.537
20
-122.502
11
159.57
21
-122.444
0
LINE
8
BLACK
6
CONTINUOUS
10
159.57
20
-122.444
11
159.622
21
-122.401
0
LINE
8
BLACK
6
CONTINUOUS
10
159.622
20
-122.401
11
159.719
21
-122.375
0
LINE
8
BLACK
6
CONTINUOUS
10
159.719
20
-122.375
11
160.181
21
-122.375
0
LINE
8
BLACK
6
CONTINUOUS
10
160.181
20
-122.375
11
160.248
21
-122.387
0
LINE
8
BLACK
6
CONTINUOUS
10
162.948
20
-122.362
11
163.006
21
-122.395
0
LINE
8
BLACK
6
CONTINUOUS
10
163.006
20
-122.395
11
163.049
21
-122.447
0
LINE
8
BLACK
6
CONTINUOUS
10
163.049
20
-122.447
11
163.075
21
-122.544
0
LINE
8
BLACK
6
CONTINUOUS
10
163.075
20
-122.544
11
163.075
21
-122.931
0
LINE
8
BLACK
6
CONTINUOUS
10
163.075
20
-122.931
11
163.063
21
-122.998
0
LINE
8
BLACK
6
CONTINUOUS
10
163.063
20
-122.998
11
163.03
21
-123.056
0
LINE
8
BLACK
6
CONTINUOUS
10
163.03
20
-123.056
11
162.978
21
-123.099
0
LINE
8
BLACK
6
CONTINUOUS
10
162.978
20
-123.099
11
162.881
21
-123.125
0
LINE
8
BLACK
6
CONTINUOUS
10
162.881
20
-123.125
11
162.419
21
-123.125
0
LINE
8
BLACK
6
CONTINUOUS
10
162.419
20
-123.125
11
162.352
21
-123.113
0
LINE
8
BLACK
6
CONTINUOUS
10
162.352
20
-123.113
11
162.294
21
-123.08
0
LINE
8
BLACK
6
CONTINUOUS
10
162.294
20
-123.08
11
162.251
21
-123.028
0
LINE
8
BLACK
6
CONTINUOUS
10
162.251
20
-123.028
11
162.225
21
-122.931
0
LINE
8
BLACK
6
CONTINUOUS
10
162.225
20
-122.931
11
162.225
21
-122.544
0
LINE
8
BLACK
6
CONTINUOUS
10
162.225
20
-122.544
11
162.237
21
-122.477
0
LINE
8
BLACK
6
CONTINUOUS
10
162.237
20
-122.477
11
162.27
21
-122.419
0
LINE
8
BLACK
6
CONTINUOUS
10
162.27
20
-122.419
11
162.322
21
-122.376
0
LINE
8
BLACK
6
CONTINUOUS
10
162.322
20
-122.376
11
162.419
21
-122.35
0
LINE
8
BLACK
6
CONTINUOUS
10
162.419
20
-122.35
11
162.881
21
-122.35
0
LINE
8
BLACK
6
CONTINUOUS
10
162.881
20
-122.35
11
162.948
21
-122.362
0
LINE
8
BLACK
6
CONTINUOUS
10
161.598
20
-122.362
11
161.656
21
-122.395
0
LINE
8
BLACK
6
CONTINUOUS
10
161.656
20
-122.395
11
161.699
21
-122.447
0
LINE
8
BLACK
6
CONTINUOUS
10
161.699
20
-122.447
11
161.725
21
-122.544
0
LINE
8
BLACK
6
CONTINUOUS
10
161.725
20
-122.544
11
161.725
21
-122.931
0
LINE
8
BLACK
6
CONTINUOUS
10
161.725
20
-122.931
11
161.713
21
-122.998
0
LINE
8
BLACK
6
CONTINUOUS
10
161.713
20
-122.998
11
161.68
21
-123.056
0
LINE
8
BLACK
6
CONTINUOUS
10
161.68
20
-123.056
11
161.628
21
-123.099
0
LINE
8
BLACK
6
CONTINUOUS
10
161.628
20
-123.099
11
161.531
21
-123.125
0
LINE
8
BLACK
6
CONTINUOUS
10
161.531
20
-123.125
11
161.069
21
-123.125
0
LINE
8
BLACK
6
CONTINUOUS
10
161.069
20
-123.125
11
161.002
21
-123.113
0
LINE
8
BLACK
6
CONTINUOUS
10
161.002
20
-123.113
11
160.944
21
-123.08
0
LINE
8
BLACK
6
CONTINUOUS
10
160.944
20
-123.08
11
160.901
21
-123.028
0
LINE
8
BLACK
6
CONTINUOUS
10
160.901
20
-123.028
11
160.875
21
-122.931
0
LINE
8
BLACK
6
CONTINUOUS
10
160.875
20
-122.931
11
160.875
21
-122.544
0
LINE
8
BLACK
6
CONTINUOUS
10
160.875
20
-122.544
11
160.887
21
-122.477
0
LINE
8
BLACK
6
CONTINUOUS
10
160.887
20
-122.477
11
160.92
21
-122.419
0
LINE
8
BLACK
6
CONTINUOUS
10
160.92
20
-122.419
11
160.972
21
-122.376
0
LINE
8
BLACK
6
CONTINUOUS
10
160.972
20
-122.376
11
161.069
21
-122.35
0
LINE
8
BLACK
6
CONTINUOUS
10
161.069
20
-122.35
11
161.531
21
-122.35
0
LINE
8
BLACK
6
CONTINUOUS
10
161.531
20
-122.35
11
161.598
21
-122.362
0
LINE
8
BLACK
6
CONTINUOUS
10
187.925
20
-122.88
11
187.375
21
-122.88
0
LINE
8
BLACK
6
CONTINUOUS
10
187.375
20
-122.88
11
187.375
21
-121.92
0
LINE
8
BLACK
6
CONTINUOUS
10
187.375
20
-121.92
11
187.925
21
-121.92
0
LINE
8
BLACK
6
CONTINUOUS
10
187.925
20
-121.92
11
187.925
21
-122.88
0
LINE
8
BLACK
6
CONTINUOUS
10
186.025
20
-122.88
11
185.475
21
-122.88
0
LINE
8
BLACK
6
CONTINUOUS
10
185.475
20
-122.88
11
185.475
21
-121.92
0
LINE
8
BLACK
6
CONTINUOUS
10
185.475
20
-121.92
11
186.025
21
-121.92
0
LINE
8
BLACK
6
CONTINUOUS
10
186.025
20
-121.92
11
186.025
21
-122.88
0
LINE
8
BLACK
6
CONTINUOUS
10
168.364
20
-121.881
11
167.41
21
-122.836
0
LINE
8
BLACK
6
CONTINUOUS
10
167.41
20
-122.836
11
167.162
21
-122.589
0
LINE
8
BLACK
6
CONTINUOUS
10
167.162
20
-122.589
11
168.117
21
-121.634
0
LINE
8
BLACK
6
CONTINUOUS
10
168.117
20
-121.634
11
168.364
21
-121.881
0
LINE
8
BLACK
6
CONTINUOUS
10
184.398
20
-121.912
11
184.456
21
-121.945
0
LINE
8
BLACK
6
CONTINUOUS
10
184.456
20
-121.945
11
184.499
21
-121.997
0
LINE
8
BLACK
6
CONTINUOUS
10
184.499
20
-121.997
11
184.525
21
-122.094
0
LINE
8
BLACK
6
CONTINUOUS
10
184.525
20
-122.094
11
184.525
21
-122.481
0
LINE
8
BLACK
6
CONTINUOUS
10
184.525
20
-122.481
11
184.513
21
-122.548
0
LINE
8
BLACK
6
CONTINUOUS
10
184.513
20
-122.548
11
184.48
21
-122.606
0
LINE
8
BLACK
6
CONTINUOUS
10
184.48
20
-122.606
11
184.428
21
-122.649
0
LINE
8
BLACK
6
CONTINUOUS
10
184.428
20
-122.649
11
184.331
21
-122.675
0
LINE
8
BLACK
6
CONTINUOUS
10
184.331
20
-122.675
11
183.869
21
-122.675
0
LINE
8
BLACK
6
CONTINUOUS
10
183.869
20
-122.675
11
183.802
21
-122.663
0
LINE
8
BLACK
6
CONTINUOUS
10
183.802
20
-122.663
11
183.744
21
-122.63
0
LINE
8
BLACK
6
CONTINUOUS
10
183.744
20
-122.63
11
183.701
21
-122.578
0
LINE
8
BLACK
6
CONTINUOUS
10
183.701
20
-122.578
11
183.675
21
-122.481
0
LINE
8
BLACK
6
CONTINUOUS
10
183.675
20
-122.481
11
183.675
21
-122.094
0
LINE
8
BLACK
6
CONTINUOUS
10
183.675
20
-122.094
11
183.687
21
-122.027
0
LINE
8
BLACK
6
CONTINUOUS
10
183.687
20
-122.027
11
183.72
21
-121.969
0
LINE
8
BLACK
6
CONTINUOUS
10
183.72
20
-121.969
11
183.772
21
-121.926
0
LINE
8
BLACK
6
CONTINUOUS
10
183.772
20
-121.926
11
183.869
21
-121.9
0
LINE
8
BLACK
6
CONTINUOUS
10
183.869
20
-121.9
11
184.331
21
-121.9
0
LINE
8
BLACK
6
CONTINUOUS
10
184.331
20
-121.9
11
184.398
21
-121.912
0
LINE
8
BLACK
6
CONTINUOUS
10
167.905
20
-121.422
11
166.95
21
-122.376
0
LINE
8
BLACK
6
CONTINUOUS
10
166.95
20
-122.376
11
166.702
21
-122.129
0
LINE
8
BLACK
6
CONTINUOUS
10
166.702
20
-122.129
11
167.657
21
-121.174
0
LINE
8
BLACK
6
CONTINUOUS
10
167.657
20
-121.174
11
167.905
21
-121.422
0
LINE
8
BLACK
6
CONTINUOUS
10
164.22
20
-121.055
11
164.307
21
-121.106
0
LINE
8
BLACK
6
CONTINUOUS
10
164.307
20
-121.106
11
164.581
21
-121.38
0
LINE
8
BLACK
6
CONTINUOUS
10
164.581
20
-121.38
11
164.619
21
-121.435
0
LINE
8
BLACK
6
CONTINUOUS
10
164.619
20
-121.435
11
164.637
21
-121.5
0
LINE
8
BLACK
6
CONTINUOUS
10
164.637
20
-121.5
11
164.631
21
-121.567
0
LINE
8
BLACK
6
CONTINUOUS
10
164.631
20
-121.567
11
164.581
21
-121.654
0
LINE
8
BLACK
6
CONTINUOUS
10
164.581
20
-121.654
11
164.254
21
-121.981
0
LINE
8
BLACK
6
CONTINUOUS
10
164.254
20
-121.981
11
164.199
21
-122.019
0
LINE
8
BLACK
6
CONTINUOUS
10
164.199
20
-122.019
11
164.134
21
-122.037
0
LINE
8
BLACK
6
CONTINUOUS
10
164.134
20
-122.037
11
164.066
21
-122.031
0
LINE
8
BLACK
6
CONTINUOUS
10
164.066
20
-122.031
11
163.98
21
-121.981
0
LINE
8
BLACK
6
CONTINUOUS
10
163.98
20
-121.981
11
163.706
21
-121.707
0
LINE
8
BLACK
6
CONTINUOUS
10
163.706
20
-121.707
11
163.667
21
-121.652
0
LINE
8
BLACK
6
CONTINUOUS
10
163.667
20
-121.652
11
163.65
21
-121.587
0
LINE
8
BLACK
6
CONTINUOUS
10
163.65
20
-121.587
11
163.655
21
-121.52
0
LINE
8
BLACK
6
CONTINUOUS
10
163.655
20
-121.52
11
163.706
21
-121.433
0
LINE
8
BLACK
6
CONTINUOUS
10
163.706
20
-121.433
11
164.033
21
-121.106
0
LINE
8
BLACK
6
CONTINUOUS
10
164.033
20
-121.106
11
164.088
21
-121.067
0
LINE
8
BLACK
6
CONTINUOUS
10
164.088
20
-121.067
11
164.153
21
-121.05
0
LINE
8
BLACK
6
CONTINUOUS
10
164.153
20
-121.05
11
164.22
21
-121.055
0
LINE
8
BLACK
6
CONTINUOUS
10
167.445
20
-120.962
11
166.49
21
-121.917
0
LINE
8
BLACK
6
CONTINUOUS
10
166.49
20
-121.917
11
166.243
21
-121.669
0
LINE
8
BLACK
6
CONTINUOUS
10
166.243
20
-121.669
11
167.197
21
-120.715
0
LINE
8
BLACK
6
CONTINUOUS
10
167.197
20
-120.715
11
167.445
21
-120.962
0
LINE
8
BLACK
6
CONTINUOUS
10
162.948
20
-120.787
11
163.006
21
-120.82
0
LINE
8
BLACK
6
CONTINUOUS
10
163.006
20
-120.82
11
163.049
21
-120.872
0
LINE
8
BLACK
6
CONTINUOUS
10
163.049
20
-120.872
11
163.075
21
-120.969
0
LINE
8
BLACK
6
CONTINUOUS
10
163.075
20
-120.969
11
163.075
21
-121.356
0
LINE
8
BLACK
6
CONTINUOUS
10
163.075
20
-121.356
11
163.063
21
-121.423
0
LINE
8
BLACK
6
CONTINUOUS
10
163.063
20
-121.423
11
163.03
21
-121.481
0
LINE
8
BLACK
6
CONTINUOUS
10
163.03
20
-121.481
11
162.978
21
-121.524
0
LINE
8
BLACK
6
CONTINUOUS
10
162.978
20
-121.524
11
162.881
21
-121.55
0
LINE
8
BLACK
6
CONTINUOUS
10
162.881
20
-121.55
11
162.419
21
-121.55
0
LINE
8
BLACK
6
CONTINUOUS
10
162.419
20
-121.55
11
162.352
21
-121.538
0
LINE
8
BLACK
6
CONTINUOUS
10
162.352
20
-121.538
11
162.294
21
-121.505
0
LINE
8
BLACK
6
CONTINUOUS
10
162.294
20
-121.505
11
162.251
21
-121.453
0
LINE
8
BLACK
6
CONTINUOUS
10
162.251
20
-121.453
11
162.225
21
-121.356
0
LINE
8
BLACK
6
CONTINUOUS
10
162.225
20
-121.356
11
162.225
21
-120.969
0
LINE
8
BLACK
6
CONTINUOUS
10
162.225
20
-120.969
11
162.237
21
-120.902
0
LINE
8
BLACK
6
CONTINUOUS
10
162.237
20
-120.902
11
162.27
21
-120.844
0
LINE
8
BLACK
6
CONTINUOUS
10
162.27
20
-120.844
11
162.322
21
-120.801
0
LINE
8
BLACK
6
CONTINUOUS
10
162.322
20
-120.801
11
162.419
21
-120.775
0
LINE
8
BLACK
6
CONTINUOUS
10
162.419
20
-120.775
11
162.881
21
-120.775
0
LINE
8
BLACK
6
CONTINUOUS
10
162.881
20
-120.775
11
162.948
21
-120.787
0
LINE
8
BLACK
6
CONTINUOUS
10
161.598
20
-120.787
11
161.656
21
-120.82
0
LINE
8
BLACK
6
CONTINUOUS
10
161.656
20
-120.82
11
161.699
21
-120.872
0
LINE
8
BLACK
6
CONTINUOUS
10
161.699
20
-120.872
11
161.725
21
-120.969
0
LINE
8
BLACK
6
CONTINUOUS
10
161.725
20
-120.969
11
161.725
21
-121.356
0
LINE
8
BLACK
6
CONTINUOUS
10
161.725
20
-121.356
11
161.713
21
-121.423
0
LINE
8
BLACK
6
CONTINUOUS
10
161.713
20
-121.423
11
161.68
21
-121.481
0
LINE
8
BLACK
6
CONTINUOUS
10
161.68
20
-121.481
11
161.628
21
-121.524
0
LINE
8
BLACK
6
CONTINUOUS
10
161.628
20
-121.524
11
161.531
21
-121.55
0
LINE
8
BLACK
6
CONTINUOUS
10
161.531
20
-121.55
11
161.069
21
-121.55
0
LINE
8
BLACK
6
CONTINUOUS
10
161.069
20
-121.55
11
161.002
21
-121.538
0
LINE
8
BLACK
6
CONTINUOUS
10
161.002
20
-121.538
11
160.944
21
-121.505
0
LINE
8
BLACK
6
CONTINUOUS
10
160.944
20
-121.505
11
160.901
21
-121.453
0
LINE
8
BLACK
6
CONTINUOUS
10
160.901
20
-121.453
11
160.875
21
-121.356
0
LINE
8
BLACK
6
CONTINUOUS
10
160.875
20
-121.356
11
160.875
21
-120.969
0
LINE
8
BLACK
6
CONTINUOUS
10
160.875
20
-120.969
11
160.887
21
-120.902
0
LINE
8
BLACK
6
CONTINUOUS
10
160.887
20
-120.902
11
160.92
21
-120.844
0
LINE
8
BLACK
6
CONTINUOUS
10
160.92
20
-120.844
11
160.972
21
-120.801
0
LINE
8
BLACK
6
CONTINUOUS
10
160.972
20
-120.801
11
161.069
21
-120.775
0
LINE
8
BLACK
6
CONTINUOUS
10
161.069
20
-120.775
11
161.531
21
-120.775
0
LINE
8
BLACK
6
CONTINUOUS
10
161.531
20
-120.775
11
161.598
21
-120.787
0
LINE
8
BLACK
6
CONTINUOUS
10
166.985
20
-120.503
11
166.031
21
-121.457
0
LINE
8
BLACK
6
CONTINUOUS
10
166.031
20
-121.457
11
165.783
21
-121.21
0
LINE
8
BLACK
6
CONTINUOUS
10
165.783
20
-121.21
11
166.738
21
-120.255
0
LINE
8
BLACK
6
CONTINUOUS
10
166.738
20
-120.255
11
166.985
21
-120.503
0
LINE
8
BLACK
6
CONTINUOUS
10
191.048
20
-120.387
11
191.106
21
-120.42
0
LINE
8
BLACK
6
CONTINUOUS
10
191.106
20
-120.42
11
191.149
21
-120.472
0
LINE
8
BLACK
6
CONTINUOUS
10
191.149
20
-120.472
11
191.175
21
-120.569
0
LINE
8
BLACK
6
CONTINUOUS
10
191.175
20
-120.569
11
191.175
21
-121.031
0
LINE
8
BLACK
6
CONTINUOUS
10
191.175
20
-121.031
11
191.163
21
-121.098
0
LINE
8
BLACK
6
CONTINUOUS
10
191.163
20
-121.098
11
191.13
21
-121.156
0
LINE
8
BLACK
6
CONTINUOUS
10
191.13
20
-121.156
11
191.078
21
-121.199
0
LINE
8
BLACK
6
CONTINUOUS
10
191.078
20
-121.199
11
190.981
21
-121.225
0
LINE
8
BLACK
6
CONTINUOUS
10
190.981
20
-121.225
11
190.594
21
-121.225
0
LINE
8
BLACK
6
CONTINUOUS
10
190.594
20
-121.225
11
190.527
21
-121.213
0
LINE
8
BLACK
6
CONTINUOUS
10
190.527
20
-121.213
11
190.469
21
-121.18
0
LINE
8
BLACK
6
CONTINUOUS
10
190.469
20
-121.18
11
190.426
21
-121.128
0
LINE
8
BLACK
6
CONTINUOUS
10
190.426
20
-121.128
11
190.4
21
-121.031
0
LINE
8
BLACK
6
CONTINUOUS
10
190.4
20
-121.031
11
190.4
21
-120.569
0
LINE
8
BLACK
6
CONTINUOUS
10
190.4
20
-120.569
11
190.412
21
-120.502
0
LINE
8
BLACK
6
CONTINUOUS
10
190.412
20
-120.502
11
190.445
21
-120.444
0
LINE
8
BLACK
6
CONTINUOUS
10
190.445
20
-120.444
11
190.497
21
-120.401
0
LINE
8
BLACK
6
CONTINUOUS
10
190.497
20
-120.401
11
190.594
21
-120.375
0
LINE
8
BLACK
6
CONTINUOUS
10
190.594
20
-120.375
11
190.981
21
-120.375
0
LINE
8
BLACK
6
CONTINUOUS
10
190.981
20
-120.375
11
191.048
21
-120.387
0
LINE
8
BLACK
6
CONTINUOUS
10
189.473
20
-120.387
11
189.531
21
-120.42
0
LINE
8
BLACK
6
CONTINUOUS
10
189.531
20
-120.42
11
189.574
21
-120.472
0
LINE
8
BLACK
6
CONTINUOUS
10
189.574
20
-120.472
11
189.6
21
-120.569
0
LINE
8
BLACK
6
CONTINUOUS
10
189.6
20
-120.569
11
189.6
21
-121.031
0
LINE
8
BLACK
6
CONTINUOUS
10
189.6
20
-121.031
11
189.588
21
-121.098
0
LINE
8
BLACK
6
CONTINUOUS
10
189.588
20
-121.098
11
189.555
21
-121.156
0
LINE
8
BLACK
6
CONTINUOUS
10
189.555
20
-121.156
11
189.503
21
-121.199
0
LINE
8
BLACK
6
CONTINUOUS
10
189.503
20
-121.199
11
189.406
21
-121.225
0
LINE
8
BLACK
6
CONTINUOUS
10
189.406
20
-121.225
11
189.019
21
-121.225
0
LINE
8
BLACK
6
CONTINUOUS
10
189.019
20
-121.225
11
188.952
21
-121.213
0
LINE
8
BLACK
6
CONTINUOUS
10
188.952
20
-121.213
11
188.894
21
-121.18
0
LINE
8
BLACK
6
CONTINUOUS
10
188.894
20
-121.18
11
188.851
21
-121.128
0
LINE
8
BLACK
6
CONTINUOUS
10
188.851
20
-121.128
11
188.825
21
-121.031
0
LINE
8
BLACK
6
CONTINUOUS
10
188.825
20
-121.031
11
188.825
21
-120.569
0
LINE
8
BLACK
6
CONTINUOUS
10
188.825
20
-120.569
11
188.837
21
-120.502
0
LINE
8
BLACK
6
CONTINUOUS
10
188.837
20
-120.502
11
188.87
21
-120.444
0
LINE
8
BLACK
6
CONTINUOUS
10
188.87
20
-120.444
11
188.922
21
-120.401
0
LINE
8
BLACK
6
CONTINUOUS
10
188.922
20
-120.401
11
189.019
21
-120.375
0
LINE
8
BLACK
6
CONTINUOUS
10
189.019
20
-120.375
11
189.406
21
-120.375
0
LINE
8
BLACK
6
CONTINUOUS
10
189.406
20
-120.375
11
189.473
21
-120.387
0
LINE
8
BLACK
6
CONTINUOUS
10
186.473
20
-120.387
11
186.531
21
-120.42
0
LINE
8
BLACK
6
CONTINUOUS
10
186.531
20
-120.42
11
186.574
21
-120.472
0
LINE
8
BLACK
6
CONTINUOUS
10
186.574
20
-120.472
11
186.6
21
-120.569
0
LINE
8
BLACK
6
CONTINUOUS
10
186.6
20
-120.569
11
186.6
21
-121.031
0
LINE
8
BLACK
6
CONTINUOUS
10
186.6
20
-121.031
11
186.588
21
-121.098
0
LINE
8
BLACK
6
CONTINUOUS
10
186.588
20
-121.098
11
186.555
21
-121.156
0
LINE
8
BLACK
6
CONTINUOUS
10
186.555
20
-121.156
11
186.503
21
-121.199
0
LINE
8
BLACK
6
CONTINUOUS
10
186.503
20
-121.199
11
186.406
21
-121.225
0
LINE
8
BLACK
6
CONTINUOUS
10
186.406
20
-121.225
11
186.019
21
-121.225
0
LINE
8
BLACK
6
CONTINUOUS
10
186.019
20
-121.225
11
185.952
21
-121.213
0
LINE
8
BLACK
6
CONTINUOUS
10
185.952
20
-121.213
11
185.894
21
-121.18
0
LINE
8
BLACK
6
CONTINUOUS
10
185.894
20
-121.18
11
185.851
21
-121.128
0
LINE
8
BLACK
6
CONTINUOUS
10
185.851
20
-121.128
11
185.825
21
-121.031
0
LINE
8
BLACK
6
CONTINUOUS
10
185.825
20
-121.031
11
185.825
21
-120.569
0
LINE
8
BLACK
6
CONTINUOUS
10
185.825
20
-120.569
11
185.837
21
-120.502
0
LINE
8
BLACK
6
CONTINUOUS
10
185.837
20
-120.502
11
185.87
21
-120.444
0
LINE
8
BLACK
6
CONTINUOUS
10
185.87
20
-120.444
11
185.922
21
-120.401
0
LINE
8
BLACK
6
CONTINUOUS
10
185.922
20
-120.401
11
186.019
21
-120.375
0
LINE
8
BLACK
6
CONTINUOUS
10
186.019
20
-120.375
11
186.406
21
-120.375
0
LINE
8
BLACK
6
CONTINUOUS
10
186.406
20
-120.375
11
186.473
21
-120.387
0
LINE
8
BLACK
6
CONTINUOUS
10
188.048
20
-120.387
11
188.106
21
-120.42
0
LINE
8
BLACK
6
CONTINUOUS
10
188.106
20
-120.42
11
188.149
21
-120.472
0
LINE
8
BLACK
6
CONTINUOUS
10
188.149
20
-120.472
11
188.175
21
-120.569
0
LINE
8
BLACK
6
CONTINUOUS
10
188.175
20
-120.569
11
188.175
21
-121.031
0
LINE
8
BLACK
6
CONTINUOUS
10
188.175
20
-121.031
11
188.163
21
-121.098
0
LINE
8
BLACK
6
CONTINUOUS
10
188.163
20
-121.098
11
188.13
21
-121.156
0
LINE
8
BLACK
6
CONTINUOUS
10
188.13
20
-121.156
11
188.078
21
-121.199
0
LINE
8
BLACK
6
CONTINUOUS
10
188.078
20
-121.199
11
187.981
21
-121.225
0
LINE
8
BLACK
6
CONTINUOUS
10
187.981
20
-121.225
11
187.594
21
-121.225
0
LINE
8
BLACK
6
CONTINUOUS
10
187.594
20
-121.225
11
187.527
21
-121.213
0
LINE
8
BLACK
6
CONTINUOUS
10
187.527
20
-121.213
11
187.469
21
-121.18
0
LINE
8
BLACK
6
CONTINUOUS
10
187.469
20
-121.18
11
187.426
21
-121.128
0
LINE
8
BLACK
6
CONTINUOUS
10
187.426
20
-121.128
11
187.4
21
-121.031
0
LINE
8
BLACK
6
CONTINUOUS
10
187.4
20
-121.031
11
187.4
21
-120.569
0
LINE
8
BLACK
6
CONTINUOUS
10
187.4
20
-120.569
11
187.412
21
-120.502
0
LINE
8
BLACK
6
CONTINUOUS
10
187.412
20
-120.502
11
187.445
21
-120.444
0
LINE
8
BLACK
6
CONTINUOUS
10
187.445
20
-120.444
11
187.497
21
-120.401
0
LINE
8
BLACK
6
CONTINUOUS
10
187.497
20
-120.401
11
187.594
21
-120.375
0
LINE
8
BLACK
6
CONTINUOUS
10
187.594
20
-120.375
11
187.981
21
-120.375
0
LINE
8
BLACK
6
CONTINUOUS
10
187.981
20
-120.375
11
188.048
21
-120.387
0
LINE
8
BLACK
6
CONTINUOUS
10
184.398
20
-120.337
11
184.456
21
-120.37
0
LINE
8
BLACK
6
CONTINUOUS
10
184.456
20
-120.37
11
184.499
21
-120.422
0
LINE
8
BLACK
6
CONTINUOUS
10
184.499
20
-120.422
11
184.525
21
-120.519
0
LINE
8
BLACK
6
CONTINUOUS
10
184.525
20
-120.519
11
184.525
21
-120.906
0
LINE
8
BLACK
6
CONTINUOUS
10
184.525
20
-120.906
11
184.513
21
-120.973
0
LINE
8
BLACK
6
CONTINUOUS
10
184.513
20
-120.973
11
184.48
21
-121.031
0
LINE
8
BLACK
6
CONTINUOUS
10
184.48
20
-121.031
11
184.428
21
-121.074
0
LINE
8
BLACK
6
CONTINUOUS
10
184.428
20
-121.074
11
184.331
21
-121.1
0
LINE
8
BLACK
6
CONTINUOUS
10
184.331
20
-121.1
11
183.869
21
-121.1
0
LINE
8
BLACK
6
CONTINUOUS
10
183.869
20
-121.1
11
183.802
21
-121.088
0
LINE
8
BLACK
6
CONTINUOUS
10
183.802
20
-121.088
11
183.744
21
-121.055
0
LINE
8
BLACK
6
CONTINUOUS
10
183.744
20
-121.055
11
183.701
21
-121.003
0
LINE
8
BLACK
6
CONTINUOUS
10
183.701
20
-121.003
11
183.675
21
-120.906
0
LINE
8
BLACK
6
CONTINUOUS
10
183.675
20
-120.906
11
183.675
21
-120.519
0
LINE
8
BLACK
6
CONTINUOUS
10
183.675
20
-120.519
11
183.687
21
-120.452
0
LINE
8
BLACK
6
CONTINUOUS
10
183.687
20
-120.452
11
183.72
21
-120.394
0
LINE
8
BLACK
6
CONTINUOUS
10
183.72
20
-120.394
11
183.772
21
-120.351
0
LINE
8
BLACK
6
CONTINUOUS
10
183.772
20
-120.351
11
183.869
21
-120.325
0
LINE
8
BLACK
6
CONTINUOUS
10
183.869
20
-120.325
11
184.331
21
-120.325
0
LINE
8
BLACK
6
CONTINUOUS
10
184.331
20
-120.325
11
184.398
21
-120.337
0
LINE
8
BLACK
6
CONTINUOUS
10
166.526
20
-120.043
11
165.571
21
-120.998
0
LINE
8
BLACK
6
CONTINUOUS
10
165.571
20
-120.998
11
165.324
21
-120.75
0
LINE
8
BLACK
6
CONTINUOUS
10
165.324
20
-120.75
11
166.278
21
-119.795
0
LINE
8
BLACK
6
CONTINUOUS
10
166.278
20
-119.795
11
166.526
21
-120.043
0
LINE
8
BLACK
6
CONTINUOUS
10
166.066
20
-119.583
11
165.111
21
-120.538
0
LINE
8
BLACK
6
CONTINUOUS
10
165.111
20
-120.538
11
164.864
21
-120.29
0
LINE
8
BLACK
6
CONTINUOUS
10
164.864
20
-120.29
11
165.819
21
-119.336
0
LINE
8
BLACK
6
CONTINUOUS
10
165.819
20
-119.336
11
166.066
21
-119.583
0
LINE
8
BLACK
6
CONTINUOUS
10
165.606
20
-119.124
11
164.652
21
-120.078
0
LINE
8
BLACK
6
CONTINUOUS
10
164.652
20
-120.078
11
164.404
21
-119.831
0
LINE
8
BLACK
6
CONTINUOUS
10
164.404
20
-119.831
11
165.359
21
-118.876
0
LINE
8
BLACK
6
CONTINUOUS
10
165.359
20
-118.876
11
165.606
21
-119.124
0
LINE
8
BLACK
6
CONTINUOUS
10
182.2
20
-119.75
11
181.6
21
-119.75
0
LINE
8
BLACK
6
CONTINUOUS
10
181.6
20
-119.75
11
181.6
21
-119.25
0
LINE
8
BLACK
6
CONTINUOUS
10
181.6
20
-119.25
11
182.2
21
-119.25
0
LINE
8
BLACK
6
CONTINUOUS
10
182.2
20
-119.25
11
182.2
21
-119.75
0
LINE
8
BLACK
6
CONTINUOUS
10
186.473
20
-118.887
11
186.531
21
-118.92
0
LINE
8
BLACK
6
CONTINUOUS
10
186.531
20
-118.92
11
186.574
21
-118.972
0
LINE
8
BLACK
6
CONTINUOUS
10
186.574
20
-118.972
11
186.6
21
-119.069
0
LINE
8
BLACK
6
CONTINUOUS
10
186.6
20
-119.069
11
186.6
21
-119.531
0
LINE
8
BLACK
6
CONTINUOUS
10
186.6
20
-119.531
11
186.588
21
-119.598
0
LINE
8
BLACK
6
CONTINUOUS
10
186.588
20
-119.598
11
186.555
21
-119.656
0
LINE
8
BLACK
6
CONTINUOUS
10
186.555
20
-119.656
11
186.503
21
-119.699
0
LINE
8
BLACK
6
CONTINUOUS
10
186.503
20
-119.699
11
186.406
21
-119.725
0
LINE
8
BLACK
6
CONTINUOUS
10
186.406
20
-119.725
11
186.019
21
-119.725
0
LINE
8
BLACK
6
CONTINUOUS
10
186.019
20
-119.725
11
185.952
21
-119.713
0
LINE
8
BLACK
6
CONTINUOUS
10
185.952
20
-119.713
11
185.894
21
-119.68
0
LINE
8
BLACK
6
CONTINUOUS
10
185.894
20
-119.68
11
185.851
21
-119.628
0
LINE
8
BLACK
6
CONTINUOUS
10
185.851
20
-119.628
11
185.825
21
-119.531
0
LINE
8
BLACK
6
CONTINUOUS
10
185.825
20
-119.531
11
185.825
21
-119.069
0
LINE
8
BLACK
6
CONTINUOUS
10
185.825
20
-119.069
11
185.837
21
-119.002
0
LINE
8
BLACK
6
CONTINUOUS
10
185.837
20
-119.002
11
185.87
21
-118.944
0
LINE
8
BLACK
6
CONTINUOUS
10
185.87
20
-118.944
11
185.922
21
-118.901
0
LINE
8
BLACK
6
CONTINUOUS
10
185.922
20
-118.901
11
186.019
21
-118.875
0
LINE
8
BLACK
6
CONTINUOUS
10
186.019
20
-118.875
11
186.406
21
-118.875
0
LINE
8
BLACK
6
CONTINUOUS
10
186.406
20
-118.875
11
186.473
21
-118.887
0
LINE
8
BLACK
6
CONTINUOUS
10
188.048
20
-118.887
11
188.106
21
-118.92
0
LINE
8
BLACK
6
CONTINUOUS
10
188.106
20
-118.92
11
188.149
21
-118.972
0
LINE
8
BLACK
6
CONTINUOUS
10
188.149
20
-118.972
11
188.175
21
-119.069
0
LINE
8
BLACK
6
CONTINUOUS
10
188.175
20
-119.069
11
188.175
21
-119.531
0
LINE
8
BLACK
6
CONTINUOUS
10
188.175
20
-119.531
11
188.163
21
-119.598
0
LINE
8
BLACK
6
CONTINUOUS
10
188.163
20
-119.598
11
188.13
21
-119.656
0
LINE
8
BLACK
6
CONTINUOUS
10
188.13
20
-119.656
11
188.078
21
-119.699
0
LINE
8
BLACK
6
CONTINUOUS
10
188.078
20
-119.699
11
187.981
21
-119.725
0
LINE
8
BLACK
6
CONTINUOUS
10
187.981
20
-119.725
11
187.594
21
-119.725
0
LINE
8
BLACK
6
CONTINUOUS
10
187.594
20
-119.725
11
187.527
21
-119.713
0
LINE
8
BLACK
6
CONTINUOUS
10
187.527
20
-119.713
11
187.469
21
-119.68
0
LINE
8
BLACK
6
CONTINUOUS
10
187.469
20
-119.68
11
187.426
21
-119.628
0
LINE
8
BLACK
6
CONTINUOUS
10
187.426
20
-119.628
11
187.4
21
-119.531
0
LINE
8
BLACK
6
CONTINUOUS
10
187.4
20
-119.531
11
187.4
21
-119.069
0
LINE
8
BLACK
6
CONTINUOUS
10
187.4
20
-119.069
11
187.412
21
-119.002
0
LINE
8
BLACK
6
CONTINUOUS
10
187.412
20
-119.002
11
187.445
21
-118.944
0
LINE
8
BLACK
6
CONTINUOUS
10
187.445
20
-118.944
11
187.497
21
-118.901
0
LINE
8
BLACK
6
CONTINUOUS
10
187.497
20
-118.901
11
187.594
21
-118.875
0
LINE
8
BLACK
6
CONTINUOUS
10
187.594
20
-118.875
11
187.981
21
-118.875
0
LINE
8
BLACK
6
CONTINUOUS
10
187.981
20
-118.875
11
188.048
21
-118.887
0
LINE
8
BLACK
6
CONTINUOUS
10
185.088
20
-118.962
11
185.146
21
-118.995
0
LINE
8
BLACK
6
CONTINUOUS
10
185.146
20
-118.995
11
185.189
21
-119.047
0
LINE
8
BLACK
6
CONTINUOUS
10
185.189
20
-119.047
11
185.215
21
-119.144
0
LINE
8
BLACK
6
CONTINUOUS
10
185.215
20
-119.144
11
185.215
21
-119.531
0
LINE
8
BLACK
6
CONTINUOUS
10
185.215
20
-119.531
11
185.203
21
-119.598
0
LINE
8
BLACK
6
CONTINUOUS
10
185.203
20
-119.598
11
185.17
21
-119.656
0
LINE
8
BLACK
6
CONTINUOUS
10
185.17
20
-119.656
11
185.118
21
-119.699
0
LINE
8
BLACK
6
CONTINUOUS
10
185.118
20
-119.699
11
185.021
21
-119.725
0
LINE
8
BLACK
6
CONTINUOUS
10
185.021
20
-119.725
11
184.559
21
-119.725
0
LINE
8
BLACK
6
CONTINUOUS
10
184.559
20
-119.725
11
184.492
21
-119.713
0
LINE
8
BLACK
6
CONTINUOUS
10
184.492
20
-119.713
11
184.434
21
-119.68
0
LINE
8
BLACK
6
CONTINUOUS
10
184.434
20
-119.68
11
184.391
21
-119.628
0
LINE
8
BLACK
6
CONTINUOUS
10
184.391
20
-119.628
11
184.365
21
-119.531
0
LINE
8
BLACK
6
CONTINUOUS
10
184.365
20
-119.531
11
184.365
21
-119.144
0
LINE
8
BLACK
6
CONTINUOUS
10
184.365
20
-119.144
11
184.377
21
-119.077
0
LINE
8
BLACK
6
CONTINUOUS
10
184.377
20
-119.077
11
184.41
21
-119.019
0
LINE
8
BLACK
6
CONTINUOUS
10
184.41
20
-119.019
11
184.462
21
-118.976
0
LINE
8
BLACK
6
CONTINUOUS
10
184.462
20
-118.976
11
184.559
21
-118.95
0
LINE
8
BLACK
6
CONTINUOUS
10
184.559
20
-118.95
11
185.021
21
-118.95
0
LINE
8
BLACK
6
CONTINUOUS
10
185.021
20
-118.95
11
185.088
21
-118.962
0
LINE
8
BLACK
6
CONTINUOUS
10
191.048
20
-118.887
11
191.106
21
-118.92
0
LINE
8
BLACK
6
CONTINUOUS
10
191.106
20
-118.92
11
191.149
21
-118.972
0
LINE
8
BLACK
6
CONTINUOUS
10
191.149
20
-118.972
11
191.175
21
-119.069
0
LINE
8
BLACK
6
CONTINUOUS
10
191.175
20
-119.069
11
191.175
21
-119.531
0
LINE
8
BLACK
6
CONTINUOUS
10
191.175
20
-119.531
11
191.163
21
-119.598
0
LINE
8
BLACK
6
CONTINUOUS
10
191.163
20
-119.598
11
191.13
21
-119.656
0
LINE
8
BLACK
6
CONTINUOUS
10
191.13
20
-119.656
11
191.078
21
-119.699
0
LINE
8
BLACK
6
CONTINUOUS
10
191.078
20
-119.699
11
190.981
21
-119.725
0
LINE
8
BLACK
6
CONTINUOUS
10
190.981
20
-119.725
11
190.594
21
-119.725
0
LINE
8
BLACK
6
CONTINUOUS
10
190.594
20
-119.725
11
190.527
21
-119.713
0
LINE
8
BLACK
6
CONTINUOUS
10
190.527
20
-119.713
11
190.469
21
-119.68
0
LINE
8
BLACK
6
CONTINUOUS
10
190.469
20
-119.68
11
190.426
21
-119.628
0
LINE
8
BLACK
6
CONTINUOUS
10
190.426
20
-119.628
11
190.4
21
-119.531
0
LINE
8
BLACK
6
CONTINUOUS
10
190.4
20
-119.531
11
190.4
21
-119.069
0
LINE
8
BLACK
6
CONTINUOUS
10
190.4
20
-119.069
11
190.412
21
-119.002
0
LINE
8
BLACK
6
CONTINUOUS
10
190.412
20
-119.002
11
190.445
21
-118.944
0
LINE
8
BLACK
6
CONTINUOUS
10
190.445
20
-118.944
11
190.497
21
-118.901
0
LINE
8
BLACK
6
CONTINUOUS
10
190.497
20
-118.901
11
190.594
21
-118.875
0
LINE
8
BLACK
6
CONTINUOUS
10
190.594
20
-118.875
11
190.981
21
-118.875
0
LINE
8
BLACK
6
CONTINUOUS
10
190.981
20
-118.875
11
191.048
21
-118.887
0
LINE
8
BLACK
6
CONTINUOUS
10
189.473
20
-118.887
11
189.531
21
-118.92
0
LINE
8
BLACK
6
CONTINUOUS
10
189.531
20
-118.92
11
189.574
21
-118.972
0
LINE
8
BLACK
6
CONTINUOUS
10
189.574
20
-118.972
11
189.6
21
-119.069
0
LINE
8
BLACK
6
CONTINUOUS
10
189.6
20
-119.069
11
189.6
21
-119.531
0
LINE
8
BLACK
6
CONTINUOUS
10
189.6
20
-119.531
11
189.588
21
-119.598
0
LINE
8
BLACK
6
CONTINUOUS
10
189.588
20
-119.598
11
189.555
21
-119.656
0
LINE
8
BLACK
6
CONTINUOUS
10
189.555
20
-119.656
11
189.503
21
-119.699
0
LINE
8
BLACK
6
CONTINUOUS
10
189.503
20
-119.699
11
189.406
21
-119.725
0
LINE
8
BLACK
6
CONTINUOUS
10
189.406
20
-119.725
11
189.019
21
-119.725
0
LINE
8
BLACK
6
CONTINUOUS
10
189.019
20
-119.725
11
188.952
21
-119.713
0
LINE
8
BLACK
6
CONTINUOUS
10
188.952
20
-119.713
11
188.894
21
-119.68
0
LINE
8
BLACK
6
CONTINUOUS
10
188.894
20
-119.68
11
188.851
21
-119.628
0
LINE
8
BLACK
6
CONTINUOUS
10
188.851
20
-119.628
11
188.825
21
-119.531
0
LINE
8
BLACK
6
CONTINUOUS
10
188.825
20
-119.531
11
188.825
21
-119.069
0
LINE
8
BLACK
6
CONTINUOUS
10
188.825
20
-119.069
11
188.837
21
-119.002
0
LINE
8
BLACK
6
CONTINUOUS
10
188.837
20
-119.002
11
188.87
21
-118.944
0
LINE
8
BLACK
6
CONTINUOUS
10
188.87
20
-118.944
11
188.922
21
-118.901
0
LINE
8
BLACK
6
CONTINUOUS
10
188.922
20
-118.901
11
189.019
21
-118.875
0
LINE
8
BLACK
6
CONTINUOUS
10
189.019
20
-118.875
11
189.406
21
-118.875
0
LINE
8
BLACK
6
CONTINUOUS
10
189.406
20
-118.875
11
189.473
21
-118.887
0
LINE
8
BLACK
6
CONTINUOUS
10
183.628
20
-118.962
11
183.686
21
-118.995
0
LINE
8
BLACK
6
CONTINUOUS
10
183.686
20
-118.995
11
183.729
21
-119.047
0
LINE
8
BLACK
6
CONTINUOUS
10
183.729
20
-119.047
11
183.755
21
-119.144
0
LINE
8
BLACK
6
CONTINUOUS
10
183.755
20
-119.144
11
183.755
21
-119.531
0
LINE
8
BLACK
6
CONTINUOUS
10
183.755
20
-119.531
11
183.743
21
-119.598
0
LINE
8
BLACK
6
CONTINUOUS
10
183.743
20
-119.598
11
183.71
21
-119.656
0
LINE
8
BLACK
6
CONTINUOUS
10
183.71
20
-119.656
11
183.658
21
-119.699
0
LINE
8
BLACK
6
CONTINUOUS
10
183.658
20
-119.699
11
183.561
21
-119.725
0
LINE
8
BLACK
6
CONTINUOUS
10
183.561
20
-119.725
11
183.099
21
-119.725
0
LINE
8
BLACK
6
CONTINUOUS
10
183.099
20
-119.725
11
183.032
21
-119.713
0
LINE
8
BLACK
6
CONTINUOUS
10
183.032
20
-119.713
11
182.974
21
-119.68
0
LINE
8
BLACK
6
CONTINUOUS
10
182.974
20
-119.68
11
182.931
21
-119.628
0
LINE
8
BLACK
6
CONTINUOUS
10
182.931
20
-119.628
11
182.905
21
-119.531
0
LINE
8
BLACK
6
CONTINUOUS
10
182.905
20
-119.531
11
182.905
21
-119.144
0
LINE
8
BLACK
6
CONTINUOUS
10
182.905
20
-119.144
11
182.917
21
-119.077
0
LINE
8
BLACK
6
CONTINUOUS
10
182.917
20
-119.077
11
182.95
21
-119.019
0
LINE
8
BLACK
6
CONTINUOUS
10
182.95
20
-119.019
11
183.002
21
-118.976
0
LINE
8
BLACK
6
CONTINUOUS
10
183.002
20
-118.976
11
183.099
21
-118.95
0
LINE
8
BLACK
6
CONTINUOUS
10
183.099
20
-118.95
11
183.561
21
-118.95
0
LINE
8
BLACK
6
CONTINUOUS
10
183.561
20
-118.95
11
183.628
21
-118.962
0
LINE
8
BLACK
6
CONTINUOUS
10
165.147
20
-118.664
11
164.192
21
-119.619
0
LINE
8
BLACK
6
CONTINUOUS
10
164.192
20
-119.619
11
163.945
21
-119.371
0
LINE
8
BLACK
6
CONTINUOUS
10
163.945
20
-119.371
11
164.899
21
-118.417
0
LINE
8
BLACK
6
CONTINUOUS
10
164.899
20
-118.417
11
165.147
21
-118.664
0
LINE
8
BLACK
6
CONTINUOUS
10
173.455
20
-118.629
11
172.501
21
-119.583
0
LINE
8
BLACK
6
CONTINUOUS
10
172.501
20
-119.583
11
172.253
21
-119.336
0
LINE
8
BLACK
6
CONTINUOUS
10
172.253
20
-119.336
11
173.208
21
-118.381
0
LINE
8
BLACK
6
CONTINUOUS
10
173.208
20
-118.381
11
173.455
21
-118.629
0
LINE
8
BLACK
6
CONTINUOUS
10
172.996
20
-118.169
11
172.041
21
-119.124
0
LINE
8
BLACK
6
CONTINUOUS
10
172.041
20
-119.124
11
171.794
21
-118.876
0
LINE
8
BLACK
6
CONTINUOUS
10
171.794
20
-118.876
11
172.748
21
-117.922
0
LINE
8
BLACK
6
CONTINUOUS
10
172.748
20
-117.922
11
172.996
21
-118.169
0
LINE
8
BLACK
6
CONTINUOUS
10
158.89
20
-118.83
11
157.39
21
-118.83
0
LINE
8
BLACK
6
CONTINUOUS
10
157.39
20
-118.83
11
157.39
21
-117.33
0
LINE
8
BLACK
6
CONTINUOUS
10
157.39
20
-117.33
11
158.89
21
-117.33
0
LINE
8
BLACK
6
CONTINUOUS
10
158.89
20
-117.33
11
158.89
21
-118.83
0
LINE
8
BLACK
6
CONTINUOUS
10
153.81
20
-118.83
11
152.31
21
-118.83
0
LINE
8
BLACK
6
CONTINUOUS
10
152.31
20
-118.83
11
152.31
21
-117.33
0
LINE
8
BLACK
6
CONTINUOUS
10
152.31
20
-117.33
11
153.81
21
-117.33
0
LINE
8
BLACK
6
CONTINUOUS
10
153.81
20
-117.33
11
153.81
21
-118.83
0
LINE
8
BLACK
6
CONTINUOUS
10
156.35
20
-118.83
11
154.85
21
-118.83
0
LINE
8
BLACK
6
CONTINUOUS
10
154.85
20
-118.83
11
154.85
21
-117.33
0
LINE
8
BLACK
6
CONTINUOUS
10
154.85
20
-117.33
11
156.35
21
-117.33
0
LINE
8
BLACK
6
CONTINUOUS
10
156.35
20
-117.33
11
156.35
21
-118.83
0
LINE
8
BLACK
6
CONTINUOUS
10
172.536
20
-117.71
11
171.581
21
-118.664
0
LINE
8
BLACK
6
CONTINUOUS
10
171.581
20
-118.664
11
171.334
21
-118.417
0
LINE
8
BLACK
6
CONTINUOUS
10
171.334
20
-118.417
11
172.289
21
-117.462
0
LINE
8
BLACK
6
CONTINUOUS
10
172.289
20
-117.462
11
172.536
21
-117.71
0
LINE
8
BLACK
6
CONTINUOUS
10
182.2
20
-118.35
11
181.6
21
-118.35
0
LINE
8
BLACK
6
CONTINUOUS
10
181.6
20
-118.35
11
181.6
21
-117.85
0
LINE
8
BLACK
6
CONTINUOUS
10
181.6
20
-117.85
11
182.2
21
-117.85
0
LINE
8
BLACK
6
CONTINUOUS
10
182.2
20
-117.85
11
182.2
21
-118.35
0
LINE
8
BLACK
6
CONTINUOUS
10
191.048
20
-117.387
11
191.106
21
-117.42
0
LINE
8
BLACK
6
CONTINUOUS
10
191.106
20
-117.42
11
191.149
21
-117.472
0
LINE
8
BLACK
6
CONTINUOUS
10
191.149
20
-117.472
11
191.175
21
-117.569
0
LINE
8
BLACK
6
CONTINUOUS
10
191.175
20
-117.569
11
191.175
21
-118.031
0
LINE
8
BLACK
6
CONTINUOUS
10
191.175
20
-118.031
11
191.163
21
-118.098
0
LINE
8
BLACK
6
CONTINUOUS
10
191.163
20
-118.098
11
191.13
21
-118.156
0
LINE
8
BLACK
6
CONTINUOUS
10
191.13
20
-118.156
11
191.078
21
-118.199
0
LINE
8
BLACK
6
CONTINUOUS
10
191.078
20
-118.199
11
190.981
21
-118.225
0
LINE
8
BLACK
6
CONTINUOUS
10
190.981
20
-118.225
11
190.594
21
-118.225
0
LINE
8
BLACK
6
CONTINUOUS
10
190.594
20
-118.225
11
190.527
21
-118.213
0
LINE
8
BLACK
6
CONTINUOUS
10
190.527
20
-118.213
11
190.469
21
-118.18
0
LINE
8
BLACK
6
CONTINUOUS
10
190.469
20
-118.18
11
190.426
21
-118.128
0
LINE
8
BLACK
6
CONTINUOUS
10
190.426
20
-118.128
11
190.4
21
-118.031
0
LINE
8
BLACK
6
CONTINUOUS
10
190.4
20
-118.031
11
190.4
21
-117.569
0
LINE
8
BLACK
6
CONTINUOUS
10
190.4
20
-117.569
11
190.412
21
-117.502
0
LINE
8
BLACK
6
CONTINUOUS
10
190.412
20
-117.502
11
190.445
21
-117.444
0
LINE
8
BLACK
6
CONTINUOUS
10
190.445
20
-117.444
11
190.497
21
-117.401
0
LINE
8
BLACK
6
CONTINUOUS
10
190.497
20
-117.401
11
190.594
21
-117.375
0
LINE
8
BLACK
6
CONTINUOUS
10
190.594
20
-117.375
11
190.981
21
-117.375
0
LINE
8
BLACK
6
CONTINUOUS
10
190.981
20
-117.375
11
191.048
21
-117.387
0
LINE
8
BLACK
6
CONTINUOUS
10
186.473
20
-117.387
11
186.531
21
-117.42
0
LINE
8
BLACK
6
CONTINUOUS
10
186.531
20
-117.42
11
186.574
21
-117.472
0
LINE
8
BLACK
6
CONTINUOUS
10
186.574
20
-117.472
11
186.6
21
-117.569
0
LINE
8
BLACK
6
CONTINUOUS
10
186.6
20
-117.569
11
186.6
21
-118.031
0
LINE
8
BLACK
6
CONTINUOUS
10
186.6
20
-118.031
11
186.588
21
-118.098
0
LINE
8
BLACK
6
CONTINUOUS
10
186.588
20
-118.098
11
186.555
21
-118.156
0
LINE
8
BLACK
6
CONTINUOUS
10
186.555
20
-118.156
11
186.503
21
-118.199
0
LINE
8
BLACK
6
CONTINUOUS
10
186.503
20
-118.199
11
186.406
21
-118.225
0
LINE
8
BLACK
6
CONTINUOUS
10
186.406
20
-118.225
11
186.019
21
-118.225
0
LINE
8
BLACK
6
CONTINUOUS
10
186.019
20
-118.225
11
185.952
21
-118.213
0
LINE
8
BLACK
6
CONTINUOUS
10
185.952
20
-118.213
11
185.894
21
-118.18
0
LINE
8
BLACK
6
CONTINUOUS
10
185.894
20
-118.18
11
185.851
21
-118.128
0
LINE
8
BLACK
6
CONTINUOUS
10
185.851
20
-118.128
11
185.825
21
-118.031
0
LINE
8
BLACK
6
CONTINUOUS
10
185.825
20
-118.031
11
185.825
21
-117.569
0
LINE
8
BLACK
6
CONTINUOUS
10
185.825
20
-117.569
11
185.837
21
-117.502
0
LINE
8
BLACK
6
CONTINUOUS
10
185.837
20
-117.502
11
185.87
21
-117.444
0
LINE
8
BLACK
6
CONTINUOUS
10
185.87
20
-117.444
11
185.922
21
-117.401
0
LINE
8
BLACK
6
CONTINUOUS
10
185.922
20
-117.401
11
186.019
21
-117.375
0
LINE
8
BLACK
6
CONTINUOUS
10
186.019
20
-117.375
11
186.406
21
-117.375
0
LINE
8
BLACK
6
CONTINUOUS
10
186.406
20
-117.375
11
186.473
21
-117.387
0
LINE
8
BLACK
6
CONTINUOUS
10
188.048
20
-117.387
11
188.106
21
-117.42
0
LINE
8
BLACK
6
CONTINUOUS
10
188.106
20
-117.42
11
188.149
21
-117.472
0
LINE
8
BLACK
6
CONTINUOUS
10
188.149
20
-117.472
11
188.175
21
-117.569
0
LINE
8
BLACK
6
CONTINUOUS
10
188.175
20
-117.569
11
188.175
21
-118.031
0
LINE
8
BLACK
6
CONTINUOUS
10
188.175
20
-118.031
11
188.163
21
-118.098
0
LINE
8
BLACK
6
CONTINUOUS
10
188.163
20
-118.098
11
188.13
21
-118.156
0
LINE
8
BLACK
6
CONTINUOUS
10
188.13
20
-118.156
11
188.078
21
-118.199
0
LINE
8
BLACK
6
CONTINUOUS
10
188.078
20
-118.199
11
187.981
21
-118.225
0
LINE
8
BLACK
6
CONTINUOUS
10
187.981
20
-118.225
11
187.594
21
-118.225
0
LINE
8
BLACK
6
CONTINUOUS
10
187.594
20
-118.225
11
187.527
21
-118.213
0
LINE
8
BLACK
6
CONTINUOUS
10
187.527
20
-118.213
11
187.469
21
-118.18
0
LINE
8
BLACK
6
CONTINUOUS
10
187.469
20
-118.18
11
187.426
21
-118.128
0
LINE
8
BLACK
6
CONTINUOUS
10
187.426
20
-118.128
11
187.4
21
-118.031
0
LINE
8
BLACK
6
CONTINUOUS
10
187.4
20
-118.031
11
187.4
21
-117.569
0
LINE
8
BLACK
6
CONTINUOUS
10
187.4
20
-117.569
11
187.412
21
-117.502
0
LINE
8
BLACK
6
CONTINUOUS
10
187.412
20
-117.502
11
187.445
21
-117.444
0
LINE
8
BLACK
6
CONTINUOUS
10
187.445
20
-117.444
11
187.497
21
-117.401
0
LINE
8
BLACK
6
CONTINUOUS
10
187.497
20
-117.401
11
187.594
21
-117.375
0
LINE
8
BLACK
6
CONTINUOUS
10
187.594
20
-117.375
11
187.981
21
-117.375
0
LINE
8
BLACK
6
CONTINUOUS
10
187.981
20
-117.375
11
188.048
21
-117.387
0
LINE
8
BLACK
6
CONTINUOUS
10
189.473
20
-117.387
11
189.531
21
-117.42
0
LINE
8
BLACK
6
CONTINUOUS
10
189.531
20
-117.42
11
189.574
21
-117.472
0
LINE
8
BLACK
6
CONTINUOUS
10
189.574
20
-117.472
11
189.6
21
-117.569
0
LINE
8
BLACK
6
CONTINUOUS
10
189.6
20
-117.569
11
189.6
21
-118.031
0
LINE
8
BLACK
6
CONTINUOUS
10
189.6
20
-118.031
11
189.588
21
-118.098
0
LINE
8
BLACK
6
CONTINUOUS
10
189.588
20
-118.098
11
189.555
21
-118.156
0
LINE
8
BLACK
6
CONTINUOUS
10
189.555
20
-118.156
11
189.503
21
-118.199
0
LINE
8
BLACK
6
CONTINUOUS
10
189.503
20
-118.199
11
189.406
21
-118.225
0
LINE
8
BLACK
6
CONTINUOUS
10
189.406
20
-118.225
11
189.019
21
-118.225
0
LINE
8
BLACK
6
CONTINUOUS
10
189.019
20
-118.225
11
188.952
21
-118.213
0
LINE
8
BLACK
6
CONTINUOUS
10
188.952
20
-118.213
11
188.894
21
-118.18
0
LINE
8
BLACK
6
CONTINUOUS
10
188.894
20
-118.18
11
188.851
21
-118.128
0
LINE
8
BLACK
6
CONTINUOUS
10
188.851
20
-118.128
11
188.825
21
-118.031
0
LINE
8
BLACK
6
CONTINUOUS
10
188.825
20
-118.031
11
188.825
21
-117.569
0
LINE
8
BLACK
6
CONTINUOUS
10
188.825
20
-117.569
11
188.837
21
-117.502
0
LINE
8
BLACK
6
CONTINUOUS
10
188.837
20
-117.502
11
188.87
21
-117.444
0
LINE
8
BLACK
6
CONTINUOUS
10
188.87
20
-117.444
11
188.922
21
-117.401
0
LINE
8
BLACK
6
CONTINUOUS
10
188.922
20
-117.401
11
189.019
21
-117.375
0
LINE
8
BLACK
6
CONTINUOUS
10
189.019
20
-117.375
11
189.406
21
-117.375
0
LINE
8
BLACK
6
CONTINUOUS
10
189.406
20
-117.375
11
189.473
21
-117.387
0
LINE
8
BLACK
6
CONTINUOUS
10
172.076
20
-117.25
11
171.122
21
-118.205
0
LINE
8
BLACK
6
CONTINUOUS
10
171.122
20
-118.205
11
170.874
21
-117.957
0
LINE
8
BLACK
6
CONTINUOUS
10
170.874
20
-117.957
11
171.829
21
-117.002
0
LINE
8
BLACK
6
CONTINUOUS
10
171.829
20
-117.002
11
172.076
21
-117.25
0
LINE
8
BLACK
6
CONTINUOUS
10
183.628
20
-117.387
11
183.686
21
-117.42
0
LINE
8
BLACK
6
CONTINUOUS
10
183.686
20
-117.42
11
183.729
21
-117.472
0
LINE
8
BLACK
6
CONTINUOUS
10
183.729
20
-117.472
11
183.755
21
-117.569
0
LINE
8
BLACK
6
CONTINUOUS
10
183.755
20
-117.569
11
183.755
21
-117.956
0
LINE
8
BLACK
6
CONTINUOUS
10
183.755
20
-117.956
11
183.743
21
-118.023
0
LINE
8
BLACK
6
CONTINUOUS
10
183.743
20
-118.023
11
183.71
21
-118.081
0
LINE
8
BLACK
6
CONTINUOUS
10
183.71
20
-118.081
11
183.658
21
-118.124
0
LINE
8
BLACK
6
CONTINUOUS
10
183.658
20
-118.124
11
183.561
21
-118.15
0
LINE
8
BLACK
6
CONTINUOUS
10
183.561
20
-118.15
11
183.099
21
-118.15
0
LINE
8
BLACK
6
CONTINUOUS
10
183.099
20
-118.15
11
183.032
21
-118.138
0
LINE
8
BLACK
6
CONTINUOUS
10
183.032
20
-118.138
11
182.974
21
-118.105
0
LINE
8
BLACK
6
CONTINUOUS
10
182.974
20
-118.105
11
182.931
21
-118.053
0
LINE
8
BLACK
6
CONTINUOUS
10
182.931
20
-118.053
11
182.905
21
-117.956
0
LINE
8
BLACK
6
CONTINUOUS
10
182.905
20
-117.956
11
182.905
21
-117.569
0
LINE
8
BLACK
6
CONTINUOUS
10
182.905
20
-117.569
11
182.917
21
-117.502
0
LINE
8
BLACK
6
CONTINUOUS
10
182.917
20
-117.502
11
182.95
21
-117.444
0
LINE
8
BLACK
6
CONTINUOUS
10
182.95
20
-117.444
11
183.002
21
-117.401
0
LINE
8
BLACK
6
CONTINUOUS
10
183.002
20
-117.401
11
183.099
21
-117.375
0
LINE
8
BLACK
6
CONTINUOUS
10
183.099
20
-117.375
11
183.561
21
-117.375
0
LINE
8
BLACK
6
CONTINUOUS
10
183.561
20
-117.375
11
183.628
21
-117.387
0
LINE
8
BLACK
6
CONTINUOUS
10
185.088
20
-117.387
11
185.146
21
-117.42
0
LINE
8
BLACK
6
CONTINUOUS
10
185.146
20
-117.42
11
185.189
21
-117.472
0
LINE
8
BLACK
6
CONTINUOUS
10
185.189
20
-117.472
11
185.215
21
-117.569
0
LINE
8
BLACK
6
CONTINUOUS
10
185.215
20
-117.569
11
185.215
21
-117.956
0
LINE
8
BLACK
6
CONTINUOUS
10
185.215
20
-117.956
11
185.203
21
-118.023
0
LINE
8
BLACK
6
CONTINUOUS
10
185.203
20
-118.023
11
185.17
21
-118.081
0
LINE
8
BLACK
6
CONTINUOUS
10
185.17
20
-118.081
11
185.118
21
-118.124
0
LINE
8
BLACK
6
CONTINUOUS
10
185.118
20
-118.124
11
185.021
21
-118.15
0
LINE
8
BLACK
6
CONTINUOUS
10
185.021
20
-118.15
11
184.559
21
-118.15
0
LINE
8
BLACK
6
CONTINUOUS
10
184.559
20
-118.15
11
184.492
21
-118.138
0
LINE
8
BLACK
6
CONTINUOUS
10
184.492
20
-118.138
11
184.434
21
-118.105
0
LINE
8
BLACK
6
CONTINUOUS
10
184.434
20
-118.105
11
184.391
21
-118.053
0
LINE
8
BLACK
6
CONTINUOUS
10
184.391
20
-118.053
11
184.365
21
-117.956
0
LINE
8
BLACK
6
CONTINUOUS
10
184.365
20
-117.956
11
184.365
21
-117.569
0
LINE
8
BLACK
6
CONTINUOUS
10
184.365
20
-117.569
11
184.377
21
-117.502
0
LINE
8
BLACK
6
CONTINUOUS
10
184.377
20
-117.502
11
184.41
21
-117.444
0
LINE
8
BLACK
6
CONTINUOUS
10
184.41
20
-117.444
11
184.462
21
-117.401
0
LINE
8
BLACK
6
CONTINUOUS
10
184.462
20
-117.401
11
184.559
21
-117.375
0
LINE
8
BLACK
6
CONTINUOUS
10
184.559
20
-117.375
11
185.021
21
-117.375
0
LINE
8
BLACK
6
CONTINUOUS
10
185.021
20
-117.375
11
185.088
21
-117.387
0
LINE
8
BLACK
6
CONTINUOUS
10
171.617
20
-116.79
11
170.662
21
-117.745
0
LINE
8
BLACK
6
CONTINUOUS
10
170.662
20
-117.745
11
170.415
21
-117.497
0
LINE
8
BLACK
6
CONTINUOUS
10
170.415
20
-117.497
11
171.369
21
-116.543
0
LINE
8
BLACK
6
CONTINUOUS
10
171.369
20
-116.543
11
171.617
21
-116.79
0
LINE
8
BLACK
6
CONTINUOUS
10
175.448
20
-116.687
11
175.506
21
-116.72
0
LINE
8
BLACK
6
CONTINUOUS
10
175.506
20
-116.72
11
175.549
21
-116.772
0
LINE
8
BLACK
6
CONTINUOUS
10
175.549
20
-116.772
11
175.575
21
-116.869
0
LINE
8
BLACK
6
CONTINUOUS
10
175.575
20
-116.869
11
175.575
21
-117.331
0
LINE
8
BLACK
6
CONTINUOUS
10
175.575
20
-117.331
11
175.563
21
-117.398
0
LINE
8
BLACK
6
CONTINUOUS
10
175.563
20
-117.398
11
175.53
21
-117.456
0
LINE
8
BLACK
6
CONTINUOUS
10
175.53
20
-117.456
11
175.478
21
-117.499
0
LINE
8
BLACK
6
CONTINUOUS
10
175.478
20
-117.499
11
175.381
21
-117.525
0
LINE
8
BLACK
6
CONTINUOUS
10
175.381
20
-117.525
11
174.994
21
-117.525
0
LINE
8
BLACK
6
CONTINUOUS
10
174.994
20
-117.525
11
174.927
21
-117.513
0
LINE
8
BLACK
6
CONTINUOUS
10
174.927
20
-117.513
11
174.869
21
-117.48
0
LINE
8
BLACK
6
CONTINUOUS
10
174.869
20
-117.48
11
174.826
21
-117.428
0
LINE
8
BLACK
6
CONTINUOUS
10
174.826
20
-117.428
11
174.8
21
-117.331
0
LINE
8
BLACK
6
CONTINUOUS
10
174.8
20
-117.331
11
174.8
21
-116.869
0
LINE
8
BLACK
6
CONTINUOUS
10
174.8
20
-116.869
11
174.812
21
-116.802
0
LINE
8
BLACK
6
CONTINUOUS
10
174.812
20
-116.802
11
174.845
21
-116.744
0
LINE
8
BLACK
6
CONTINUOUS
10
174.845
20
-116.744
11
174.897
21
-116.701
0
LINE
8
BLACK
6
CONTINUOUS
10
174.897
20
-116.701
11
174.994
21
-116.675
0
LINE
8
BLACK
6
CONTINUOUS
10
174.994
20
-116.675
11
175.381
21
-116.675
0
LINE
8
BLACK
6
CONTINUOUS
10
175.381
20
-116.675
11
175.448
21
-116.687
0
LINE
8
BLACK
6
CONTINUOUS
10
173.873
20
-116.687
11
173.931
21
-116.72
0
LINE
8
BLACK
6
CONTINUOUS
10
173.931
20
-116.72
11
173.974
21
-116.772
0
LINE
8
BLACK
6
CONTINUOUS
10
173.974
20
-116.772
11
174
21
-116.869
0
LINE
8
BLACK
6
CONTINUOUS
10
174
20
-116.869
11
174
21
-117.331
0
LINE
8
BLACK
6
CONTINUOUS
10
174
20
-117.331
11
173.988
21
-117.398
0
LINE
8
BLACK
6
CONTINUOUS
10
173.988
20
-117.398
11
173.955
21
-117.456
0
LINE
8
BLACK
6
CONTINUOUS
10
173.955
20
-117.456
11
173.903
21
-117.499
0
LINE
8
BLACK
6
CONTINUOUS
10
173.903
20
-117.499
11
173.806
21
-117.525
0
LINE
8
BLACK
6
CONTINUOUS
10
173.806
20
-117.525
11
173.419
21
-117.525
0
LINE
8
BLACK
6
CONTINUOUS
10
173.419
20
-117.525
11
173.352
21
-117.513
0
LINE
8
BLACK
6
CONTINUOUS
10
173.352
20
-117.513
11
173.294
21
-117.48
0
LINE
8
BLACK
6
CONTINUOUS
10
173.294
20
-117.48
11
173.251
21
-117.428
0
LINE
8
BLACK
6
CONTINUOUS
10
173.251
20
-117.428
11
173.225
21
-117.331
0
LINE
8
BLACK
6
CONTINUOUS
10
173.225
20
-117.331
11
173.225
21
-116.869
0
LINE
8
BLACK
6
CONTINUOUS
10
173.225
20
-116.869
11
173.237
21
-116.802
0
LINE
8
BLACK
6
CONTINUOUS
10
173.237
20
-116.802
11
173.27
21
-116.744
0
LINE
8
BLACK
6
CONTINUOUS
10
173.27
20
-116.744
11
173.322
21
-116.701
0
LINE
8
BLACK
6
CONTINUOUS
10
173.322
20
-116.701
11
173.419
21
-116.675
0
LINE
8
BLACK
6
CONTINUOUS
10
173.419
20
-116.675
11
173.806
21
-116.675
0
LINE
8
BLACK
6
CONTINUOUS
10
173.806
20
-116.675
11
173.873
21
-116.687
0
LINE
8
BLACK
6
CONTINUOUS
10
171.157
20
-116.331
11
170.203
21
-117.285
0
LINE
8
BLACK
6
CONTINUOUS
10
170.203
20
-117.285
11
169.955
21
-117.038
0
LINE
8
BLACK
6
CONTINUOUS
10
169.955
20
-117.038
11
170.91
21
-116.083
0
LINE
8
BLACK
6
CONTINUOUS
10
170.91
20
-116.083
11
171.157
21
-116.331
0
LINE
8
BLACK
6
CONTINUOUS
10
170.698
20
-115.871
11
169.743
21
-116.826
0
LINE
8
BLACK
6
CONTINUOUS
10
169.743
20
-116.826
11
169.495
21
-116.578
0
LINE
8
BLACK
6
CONTINUOUS
10
169.495
20
-116.578
11
170.45
21
-115.624
0
LINE
8
BLACK
6
CONTINUOUS
10
170.45
20
-115.624
11
170.698
21
-115.871
0
LINE
8
BLACK
6
CONTINUOUS
10
180.498
20
-115.912
11
180.556
21
-115.945
0
LINE
8
BLACK
6
CONTINUOUS
10
180.556
20
-115.945
11
180.599
21
-115.997
0
LINE
8
BLACK
6
CONTINUOUS
10
180.599
20
-115.997
11
180.625
21
-116.094
0
LINE
8
BLACK
6
CONTINUOUS
10
180.625
20
-116.094
11
180.625
21
-116.481
0
LINE
8
BLACK
6
CONTINUOUS
10
180.625
20
-116.481
11
180.613
21
-116.548
0
LINE
8
BLACK
6
CONTINUOUS
10
180.613
20
-116.548
11
180.58
21
-116.606
0
LINE
8
BLACK
6
CONTINUOUS
10
180.58
20
-116.606
11
180.528
21
-116.649
0
LINE
8
BLACK
6
CONTINUOUS
10
180.528
20
-116.649
11
180.431
21
-116.675
0
LINE
8
BLACK
6
CONTINUOUS
10
180.431
20
-116.675
11
179.969
21
-116.675
0
LINE
8
BLACK
6
CONTINUOUS
10
179.969
20
-116.675
11
179.902
21
-116.663
0
LINE
8
BLACK
6
CONTINUOUS
10
179.902
20
-116.663
11
179.844
21
-116.63
0
LINE
8
BLACK
6
CONTINUOUS
10
179.844
20
-116.63
11
179.801
21
-116.578
0
LINE
8
BLACK
6
CONTINUOUS
10
179.801
20
-116.578
11
179.775
21
-116.481
0
LINE
8
BLACK
6
CONTINUOUS
10
179.775
20
-116.481
11
179.775
21
-116.094
0
LINE
8
BLACK
6
CONTINUOUS
10
179.775
20
-116.094
11
179.787
21
-116.027
0
LINE
8
BLACK
6
CONTINUOUS
10
179.787
20
-116.027
11
179.82
21
-115.969
0
LINE
8
BLACK
6
CONTINUOUS
10
179.82
20
-115.969
11
179.872
21
-115.926
0
LINE
8
BLACK
6
CONTINUOUS
10
179.872
20
-115.926
11
179.969
21
-115.9
0
LINE
8
BLACK
6
CONTINUOUS
10
179.969
20
-115.9
11
180.431
21
-115.9
0
LINE
8
BLACK
6
CONTINUOUS
10
180.431
20
-115.9
11
180.498
21
-115.912
0
LINE
8
BLACK
6
CONTINUOUS
10
160.498
20
-115.912
11
160.556
21
-115.945
0
LINE
8
BLACK
6
CONTINUOUS
10
160.556
20
-115.945
11
160.599
21
-115.997
0
LINE
8
BLACK
6
CONTINUOUS
10
160.599
20
-115.997
11
160.625
21
-116.094
0
LINE
8
BLACK
6
CONTINUOUS
10
160.625
20
-116.094
11
160.625
21
-116.481
0
LINE
8
BLACK
6
CONTINUOUS
10
160.625
20
-116.481
11
160.613
21
-116.548
0
LINE
8
BLACK
6
CONTINUOUS
10
160.613
20
-116.548
11
160.58
21
-116.606
0
LINE
8
BLACK
6
CONTINUOUS
10
160.58
20
-116.606
11
160.528
21
-116.649
0
LINE
8
BLACK
6
CONTINUOUS
10
160.528
20
-116.649
11
160.431
21
-116.675
0
LINE
8
BLACK
6
CONTINUOUS
10
160.431
20
-116.675
11
159.969
21
-116.675
0
LINE
8
BLACK
6
CONTINUOUS
10
159.969
20
-116.675
11
159.902
21
-116.663
0
LINE
8
BLACK
6
CONTINUOUS
10
159.902
20
-116.663
11
159.844
21
-116.63
0
LINE
8
BLACK
6
CONTINUOUS
10
159.844
20
-116.63
11
159.801
21
-116.578
0
LINE
8
BLACK
6
CONTINUOUS
10
159.801
20
-116.578
11
159.775
21
-116.481
0
LINE
8
BLACK
6
CONTINUOUS
10
159.775
20
-116.481
11
159.775
21
-116.094
0
LINE
8
BLACK
6
CONTINUOUS
10
159.775
20
-116.094
11
159.787
21
-116.027
0
LINE
8
BLACK
6
CONTINUOUS
10
159.787
20
-116.027
11
159.82
21
-115.969
0
LINE
8
BLACK
6
CONTINUOUS
10
159.82
20
-115.969
11
159.872
21
-115.926
0
LINE
8
BLACK
6
CONTINUOUS
10
159.872
20
-115.926
11
159.969
21
-115.9
0
LINE
8
BLACK
6
CONTINUOUS
10
159.969
20
-115.9
11
160.431
21
-115.9
0
LINE
8
BLACK
6
CONTINUOUS
10
160.431
20
-115.9
11
160.498
21
-115.912
0
LINE
8
BLACK
6
CONTINUOUS
10
182.7
20
-116.52
11
181.6
21
-116.52
0
LINE
8
BLACK
6
CONTINUOUS
10
181.6
20
-116.52
11
181.6
21
-115.82
0
LINE
8
BLACK
6
CONTINUOUS
10
181.6
20
-115.82
11
182.7
21
-115.82
0
LINE
8
BLACK
6
CONTINUOUS
10
182.7
20
-115.82
11
182.7
21
-116.52
0
LINE
8
BLACK
6
CONTINUOUS
10
189
20
-116.52
11
187.9
21
-116.52
0
LINE
8
BLACK
6
CONTINUOUS
10
187.9
20
-116.52
11
187.9
21
-115.82
0
LINE
8
BLACK
6
CONTINUOUS
10
187.9
20
-115.82
11
189
21
-115.82
0
LINE
8
BLACK
6
CONTINUOUS
10
189
20
-115.82
11
189
21
-116.52
0
LINE
8
BLACK
6
CONTINUOUS
10
170.238
20
-115.411
11
169.283
21
-116.366
0
LINE
8
BLACK
6
CONTINUOUS
10
169.283
20
-116.366
11
169.036
21
-116.119
0
LINE
8
BLACK
6
CONTINUOUS
10
169.036
20
-116.119
11
169.99
21
-115.164
0
LINE
8
BLACK
6
CONTINUOUS
10
169.99
20
-115.164
11
170.238
21
-115.411
0
LINE
8
BLACK
6
CONTINUOUS
10
169.778
20
-114.952
11
168.824
21
-115.906
0
LINE
8
BLACK
6
CONTINUOUS
10
168.824
20
-115.906
11
168.576
21
-115.659
0
LINE
8
BLACK
6
CONTINUOUS
10
168.576
20
-115.659
11
169.531
21
-114.704
0
LINE
8
BLACK
6
CONTINUOUS
10
169.531
20
-114.704
11
169.778
21
-114.952
0
LINE
8
BLACK
6
CONTINUOUS
10
192.696
20
-115.106
11
192.754
21
-115.14
0
LINE
8
BLACK
6
CONTINUOUS
10
192.754
20
-115.14
11
192.798
21
-115.191
0
LINE
8
BLACK
6
CONTINUOUS
10
192.798
20
-115.191
11
192.824
21
-115.288
0
LINE
8
BLACK
6
CONTINUOUS
10
192.824
20
-115.288
11
192.824
21
-115.676
0
LINE
8
BLACK
6
CONTINUOUS
10
192.824
20
-115.676
11
192.812
21
-115.742
0
LINE
8
BLACK
6
CONTINUOUS
10
192.812
20
-115.742
11
192.778
21
-115.8
0
LINE
8
BLACK
6
CONTINUOUS
10
192.778
20
-115.8
11
192.727
21
-115.844
0
LINE
8
BLACK
6
CONTINUOUS
10
192.727
20
-115.844
11
192.63
21
-115.87
0
LINE
8
BLACK
6
CONTINUOUS
10
192.63
20
-115.87
11
192.167
21
-115.87
0
LINE
8
BLACK
6
CONTINUOUS
10
192.167
20
-115.87
11
192.101
21
-115.858
0
LINE
8
BLACK
6
CONTINUOUS
10
192.101
20
-115.858
11
192.043
21
-115.824
0
LINE
8
BLACK
6
CONTINUOUS
10
192.043
20
-115.824
11
192
21
-115.773
0
LINE
8
BLACK
6
CONTINUOUS
10
192
20
-115.773
11
191.974
21
-115.676
0
LINE
8
BLACK
6
CONTINUOUS
10
191.974
20
-115.676
11
191.974
21
-115.288
0
LINE
8
BLACK
6
CONTINUOUS
10
191.974
20
-115.288
11
191.985
21
-115.222
0
LINE
8
BLACK
6
CONTINUOUS
10
191.985
20
-115.222
11
192.019
21
-115.164
0
LINE
8
BLACK
6
CONTINUOUS
10
192.019
20
-115.164
11
192.071
21
-115.121
0
LINE
8
BLACK
6
CONTINUOUS
10
192.071
20
-115.121
11
192.167
21
-115.095
0
LINE
8
BLACK
6
CONTINUOUS
10
192.167
20
-115.095
11
192.63
21
-115.095
0
LINE
8
BLACK
6
CONTINUOUS
10
192.63
20
-115.095
11
192.696
21
-115.106
0
LINE
8
BLACK
6
CONTINUOUS
10
191.146
20
-115.106
11
191.204
21
-115.14
0
LINE
8
BLACK
6
CONTINUOUS
10
191.204
20
-115.14
11
191.248
21
-115.191
0
LINE
8
BLACK
6
CONTINUOUS
10
191.248
20
-115.191
11
191.274
21
-115.288
0
LINE
8
BLACK
6
CONTINUOUS
10
191.274
20
-115.288
11
191.274
21
-115.676
0
LINE
8
BLACK
6
CONTINUOUS
10
191.274
20
-115.676
11
191.262
21
-115.742
0
LINE
8
BLACK
6
CONTINUOUS
10
191.262
20
-115.742
11
191.228
21
-115.8
0
LINE
8
BLACK
6
CONTINUOUS
10
191.228
20
-115.8
11
191.177
21
-115.844
0
LINE
8
BLACK
6
CONTINUOUS
10
191.177
20
-115.844
11
191.08
21
-115.87
0
LINE
8
BLACK
6
CONTINUOUS
10
191.08
20
-115.87
11
190.617
21
-115.87
0
LINE
8
BLACK
6
CONTINUOUS
10
190.617
20
-115.87
11
190.551
21
-115.858
0
LINE
8
BLACK
6
CONTINUOUS
10
190.551
20
-115.858
11
190.493
21
-115.824
0
LINE
8
BLACK
6
CONTINUOUS
10
190.493
20
-115.824
11
190.45
21
-115.773
0
LINE
8
BLACK
6
CONTINUOUS
10
190.45
20
-115.773
11
190.424
21
-115.676
0
LINE
8
BLACK
6
CONTINUOUS
10
190.424
20
-115.676
11
190.424
21
-115.288
0
LINE
8
BLACK
6
CONTINUOUS
10
190.424
20
-115.288
11
190.435
21
-115.222
0
LINE
8
BLACK
6
CONTINUOUS
10
190.435
20
-115.222
11
190.469
21
-115.164
0
LINE
8
BLACK
6
CONTINUOUS
10
190.469
20
-115.164
11
190.521
21
-115.121
0
LINE
8
BLACK
6
CONTINUOUS
10
190.521
20
-115.121
11
190.617
21
-115.095
0
LINE
8
BLACK
6
CONTINUOUS
10
190.617
20
-115.095
11
191.08
21
-115.095
0
LINE
8
BLACK
6
CONTINUOUS
10
191.08
20
-115.095
11
191.146
21
-115.106
0
LINE
8
BLACK
6
CONTINUOUS
10
194.246
20
-115.106
11
194.304
21
-115.14
0
LINE
8
BLACK
6
CONTINUOUS
10
194.304
20
-115.14
11
194.348
21
-115.191
0
LINE
8
BLACK
6
CONTINUOUS
10
194.348
20
-115.191
11
194.374
21
-115.288
0
LINE
8
BLACK
6
CONTINUOUS
10
194.374
20
-115.288
11
194.374
21
-115.676
0
LINE
8
BLACK
6
CONTINUOUS
10
194.374
20
-115.676
11
194.362
21
-115.742
0
LINE
8
BLACK
6
CONTINUOUS
10
194.362
20
-115.742
11
194.328
21
-115.8
0
LINE
8
BLACK
6
CONTINUOUS
10
194.328
20
-115.8
11
194.277
21
-115.844
0
LINE
8
BLACK
6
CONTINUOUS
10
194.277
20
-115.844
11
194.18
21
-115.87
0
LINE
8
BLACK
6
CONTINUOUS
10
194.18
20
-115.87
11
193.717
21
-115.87
0
LINE
8
BLACK
6
CONTINUOUS
10
193.717
20
-115.87
11
193.651
21
-115.858
0
LINE
8
BLACK
6
CONTINUOUS
10
193.651
20
-115.858
11
193.593
21
-115.824
0
LINE
8
BLACK
6
CONTINUOUS
10
193.593
20
-115.824
11
193.55
21
-115.773
0
LINE
8
BLACK
6
CONTINUOUS
10
193.55
20
-115.773
11
193.524
21
-115.676
0
LINE
8
BLACK
6
CONTINUOUS
10
193.524
20
-115.676
11
193.524
21
-115.288
0
LINE
8
BLACK
6
CONTINUOUS
10
193.524
20
-115.288
11
193.535
21
-115.222
0
LINE
8
BLACK
6
CONTINUOUS
10
193.535
20
-115.222
11
193.569
21
-115.164
0
LINE
8
BLACK
6
CONTINUOUS
10
193.569
20
-115.164
11
193.621
21
-115.121
0
LINE
8
BLACK
6
CONTINUOUS
10
193.621
20
-115.121
11
193.717
21
-115.095
0
LINE
8
BLACK
6
CONTINUOUS
10
193.717
20
-115.095
11
194.18
21
-115.095
0
LINE
8
BLACK
6
CONTINUOUS
10
194.18
20
-115.095
11
194.246
21
-115.106
0
LINE
8
BLACK
6
CONTINUOUS
10
169.319
20
-114.492
11
168.364
21
-115.447
0
LINE
8
BLACK
6
CONTINUOUS
10
168.364
20
-115.447
11
168.117
21
-115.199
0
LINE
8
BLACK
6
CONTINUOUS
10
168.117
20
-115.199
11
169.071
21
-114.245
0
LINE
8
BLACK
6
CONTINUOUS
10
169.071
20
-114.245
11
169.319
21
-114.492
0
LINE
8
BLACK
6
CONTINUOUS
10
189
20
-115.25
11
187.9
21
-115.25
0
LINE
8
BLACK
6
CONTINUOUS
10
187.9
20
-115.25
11
187.9
21
-114.55
0
LINE
8
BLACK
6
CONTINUOUS
10
187.9
20
-114.55
11
189
21
-114.55
0
LINE
8
BLACK
6
CONTINUOUS
10
189
20
-114.55
11
189
21
-115.25
0
LINE
8
BLACK
6
CONTINUOUS
10
180.498
20
-114.337
11
180.556
21
-114.37
0
LINE
8
BLACK
6
CONTINUOUS
10
180.556
20
-114.37
11
180.599
21
-114.422
0
LINE
8
BLACK
6
CONTINUOUS
10
180.599
20
-114.422
11
180.625
21
-114.519
0
LINE
8
BLACK
6
CONTINUOUS
10
180.625
20
-114.519
11
180.625
21
-114.906
0
LINE
8
BLACK
6
CONTINUOUS
10
180.625
20
-114.906
11
180.613
21
-114.973
0
LINE
8
BLACK
6
CONTINUOUS
10
180.613
20
-114.973
11
180.58
21
-115.031
0
LINE
8
BLACK
6
CONTINUOUS
10
180.58
20
-115.031
11
180.528
21
-115.074
0
LINE
8
BLACK
6
CONTINUOUS
10
180.528
20
-115.074
11
180.431
21
-115.1
0
LINE
8
BLACK
6
CONTINUOUS
10
180.431
20
-115.1
11
179.969
21
-115.1
0
LINE
8
BLACK
6
CONTINUOUS
10
179.969
20
-115.1
11
179.902
21
-115.088
0
LINE
8
BLACK
6
CONTINUOUS
10
179.902
20
-115.088
11
179.844
21
-115.055
0
LINE
8
BLACK
6
CONTINUOUS
10
179.844
20
-115.055
11
179.801
21
-115.003
0
LINE
8
BLACK
6
CONTINUOUS
10
179.801
20
-115.003
11
179.775
21
-114.906
0
LINE
8
BLACK
6
CONTINUOUS
10
179.775
20
-114.906
11
179.775
21
-114.519
0
LINE
8
BLACK
6
CONTINUOUS
10
179.775
20
-114.519
11
179.787
21
-114.452
0
LINE
8
BLACK
6
CONTINUOUS
10
179.787
20
-114.452
11
179.82
21
-114.394
0
LINE
8
BLACK
6
CONTINUOUS
10
179.82
20
-114.394
11
179.872
21
-114.351
0
LINE
8
BLACK
6
CONTINUOUS
10
179.872
20
-114.351
11
179.969
21
-114.325
0
LINE
8
BLACK
6
CONTINUOUS
10
179.969
20
-114.325
11
180.431
21
-114.325
0
LINE
8
BLACK
6
CONTINUOUS
10
180.431
20
-114.325
11
180.498
21
-114.337
0
LINE
8
BLACK
6
CONTINUOUS
10
160.498
20
-114.337
11
160.556
21
-114.37
0
LINE
8
BLACK
6
CONTINUOUS
10
160.556
20
-114.37
11
160.599
21
-114.422
0
LINE
8
BLACK
6
CONTINUOUS
10
160.599
20
-114.422
11
160.625
21
-114.519
0
LINE
8
BLACK
6
CONTINUOUS
10
160.625
20
-114.519
11
160.625
21
-114.906
0
LINE
8
BLACK
6
CONTINUOUS
10
160.625
20
-114.906
11
160.613
21
-114.973
0
LINE
8
BLACK
6
CONTINUOUS
10
160.613
20
-114.973
11
160.58
21
-115.031
0
LINE
8
BLACK
6
CONTINUOUS
10
160.58
20
-115.031
11
160.528
21
-115.074
0
LINE
8
BLACK
6
CONTINUOUS
10
160.528
20
-115.074
11
160.431
21
-115.1
0
LINE
8
BLACK
6
CONTINUOUS
10
160.431
20
-115.1
11
159.969
21
-115.1
0
LINE
8
BLACK
6
CONTINUOUS
10
159.969
20
-115.1
11
159.902
21
-115.088
0
LINE
8
BLACK
6
CONTINUOUS
10
159.902
20
-115.088
11
159.844
21
-115.055
0
LINE
8
BLACK
6
CONTINUOUS
10
159.844
20
-115.055
11
159.801
21
-115.003
0
LINE
8
BLACK
6
CONTINUOUS
10
159.801
20
-115.003
11
159.775
21
-114.906
0
LINE
8
BLACK
6
CONTINUOUS
10
159.775
20
-114.906
11
159.775
21
-114.519
0
LINE
8
BLACK
6
CONTINUOUS
10
159.775
20
-114.519
11
159.787
21
-114.452
0
LINE
8
BLACK
6
CONTINUOUS
10
159.787
20
-114.452
11
159.82
21
-114.394
0
LINE
8
BLACK
6
CONTINUOUS
10
159.82
20
-114.394
11
159.872
21
-114.351
0
LINE
8
BLACK
6
CONTINUOUS
10
159.872
20
-114.351
11
159.969
21
-114.325
0
LINE
8
BLACK
6
CONTINUOUS
10
159.969
20
-114.325
11
160.431
21
-114.325
0
LINE
8
BLACK
6
CONTINUOUS
10
160.431
20
-114.325
11
160.498
21
-114.337
0
LINE
8
BLACK
6
CONTINUOUS
10
191.146
20
-113.531
11
191.204
21
-113.565
0
LINE
8
BLACK
6
CONTINUOUS
10
191.204
20
-113.565
11
191.248
21
-113.616
0
LINE
8
BLACK
6
CONTINUOUS
10
191.248
20
-113.616
11
191.274
21
-113.713
0
LINE
8
BLACK
6
CONTINUOUS
10
191.274
20
-113.713
11
191.274
21
-114.101
0
LINE
8
BLACK
6
CONTINUOUS
10
191.274
20
-114.101
11
191.262
21
-114.167
0
LINE
8
BLACK
6
CONTINUOUS
10
191.262
20
-114.167
11
191.228
21
-114.225
0
LINE
8
BLACK
6
CONTINUOUS
10
191.228
20
-114.225
11
191.177
21
-114.269
0
LINE
8
BLACK
6
CONTINUOUS
10
191.177
20
-114.269
11
191.08
21
-114.295
0
LINE
8
BLACK
6
CONTINUOUS
10
191.08
20
-114.295
11
190.617
21
-114.295
0
LINE
8
BLACK
6
CONTINUOUS
10
190.617
20
-114.295
11
190.551
21
-114.283
0
LINE
8
BLACK
6
CONTINUOUS
10
190.551
20
-114.283
11
190.493
21
-114.249
0
LINE
8
BLACK
6
CONTINUOUS
10
190.493
20
-114.249
11
190.45
21
-114.198
0
LINE
8
BLACK
6
CONTINUOUS
10
190.45
20
-114.198
11
190.424
21
-114.101
0
LINE
8
BLACK
6
CONTINUOUS
10
190.424
20
-114.101
11
190.424
21
-113.713
0
LINE
8
BLACK
6
CONTINUOUS
10
190.424
20
-113.713
11
190.435
21
-113.647
0
LINE
8
BLACK
6
CONTINUOUS
10
190.435
20
-113.647
11
190.469
21
-113.589
0
LINE
8
BLACK
6
CONTINUOUS
10
190.469
20
-113.589
11
190.521
21
-113.546
0
LINE
8
BLACK
6
CONTINUOUS
10
190.521
20
-113.546
11
190.617
21
-113.52
0
LINE
8
BLACK
6
CONTINUOUS
10
190.617
20
-113.52
11
191.08
21
-113.52
0
LINE
8
BLACK
6
CONTINUOUS
10
191.08
20
-113.52
11
191.146
21
-113.531
0
LINE
8
BLACK
6
CONTINUOUS
10
194.246
20
-113.531
11
194.304
21
-113.565
0
LINE
8
BLACK
6
CONTINUOUS
10
194.304
20
-113.565
11
194.348
21
-113.616
0
LINE
8
BLACK
6
CONTINUOUS
10
194.348
20
-113.616
11
194.374
21
-113.713
0
LINE
8
BLACK
6
CONTINUOUS
10
194.374
20
-113.713
11
194.374
21
-114.101
0
LINE
8
BLACK
6
CONTINUOUS
10
194.374
20
-114.101
11
194.362
21
-114.167
0
LINE
8
BLACK
6
CONTINUOUS
10
194.362
20
-114.167
11
194.328
21
-114.225
0
LINE
8
BLACK
6
CONTINUOUS
10
194.328
20
-114.225
11
194.277
21
-114.269
0
LINE
8
BLACK
6
CONTINUOUS
10
194.277
20
-114.269
11
194.18
21
-114.295
0
LINE
8
BLACK
6
CONTINUOUS
10
194.18
20
-114.295
11
193.717
21
-114.295
0
LINE
8
BLACK
6
CONTINUOUS
10
193.717
20
-114.295
11
193.651
21
-114.283
0
LINE
8
BLACK
6
CONTINUOUS
10
193.651
20
-114.283
11
193.593
21
-114.249
0
LINE
8
BLACK
6
CONTINUOUS
10
193.593
20
-114.249
11
193.55
21
-114.198
0
LINE
8
BLACK
6
CONTINUOUS
10
193.55
20
-114.198
11
193.524
21
-114.101
0
LINE
8
BLACK
6
CONTINUOUS
10
193.524
20
-114.101
11
193.524
21
-113.713
0
LINE
8
BLACK
6
CONTINUOUS
10
193.524
20
-113.713
11
193.535
21
-113.647
0
LINE
8
BLACK
6
CONTINUOUS
10
193.535
20
-113.647
11
193.569
21
-113.589
0
LINE
8
BLACK
6
CONTINUOUS
10
193.569
20
-113.589
11
193.621
21
-113.546
0
LINE
8
BLACK
6
CONTINUOUS
10
193.621
20
-113.546
11
193.717
21
-113.52
0
LINE
8
BLACK
6
CONTINUOUS
10
193.717
20
-113.52
11
194.18
21
-113.52
0
LINE
8
BLACK
6
CONTINUOUS
10
194.18
20
-113.52
11
194.246
21
-113.531
0
LINE
8
BLACK
6
CONTINUOUS
10
192.696
20
-113.531
11
192.754
21
-113.565
0
LINE
8
BLACK
6
CONTINUOUS
10
192.754
20
-113.565
11
192.798
21
-113.616
0
LINE
8
BLACK
6
CONTINUOUS
10
192.798
20
-113.616
11
192.824
21
-113.713
0
LINE
8
BLACK
6
CONTINUOUS
10
192.824
20
-113.713
11
192.824
21
-114.101
0
LINE
8
BLACK
6
CONTINUOUS
10
192.824
20
-114.101
11
192.812
21
-114.167
0
LINE
8
BLACK
6
CONTINUOUS
10
192.812
20
-114.167
11
192.778
21
-114.225
0
LINE
8
BLACK
6
CONTINUOUS
10
192.778
20
-114.225
11
192.727
21
-114.269
0
LINE
8
BLACK
6
CONTINUOUS
10
192.727
20
-114.269
11
192.63
21
-114.295
0
LINE
8
BLACK
6
CONTINUOUS
10
192.63
20
-114.295
11
192.167
21
-114.295
0
LINE
8
BLACK
6
CONTINUOUS
10
192.167
20
-114.295
11
192.101
21
-114.283
0
LINE
8
BLACK
6
CONTINUOUS
10
192.101
20
-114.283
11
192.043
21
-114.249
0
LINE
8
BLACK
6
CONTINUOUS
10
192.043
20
-114.249
11
192
21
-114.198
0
LINE
8
BLACK
6
CONTINUOUS
10
192
20
-114.198
11
191.974
21
-114.101
0
LINE
8
BLACK
6
CONTINUOUS
10
191.974
20
-114.101
11
191.974
21
-113.713
0
LINE
8
BLACK
6
CONTINUOUS
10
191.974
20
-113.713
11
191.985
21
-113.647
0
LINE
8
BLACK
6
CONTINUOUS
10
191.985
20
-113.647
11
192.019
21
-113.589
0
LINE
8
BLACK
6
CONTINUOUS
10
192.019
20
-113.589
11
192.071
21
-113.546
0
LINE
8
BLACK
6
CONTINUOUS
10
192.071
20
-113.546
11
192.167
21
-113.52
0
LINE
8
BLACK
6
CONTINUOUS
10
192.167
20
-113.52
11
192.63
21
-113.52
0
LINE
8
BLACK
6
CONTINUOUS
10
192.63
20
-113.52
11
192.696
21
-113.531
0
LINE
8
BLACK
6
CONTINUOUS
10
189
20
-113.98
11
187.9
21
-113.98
0
LINE
8
BLACK
6
CONTINUOUS
10
187.9
20
-113.98
11
187.9
21
-113.28
0
LINE
8
BLACK
6
CONTINUOUS
10
187.9
20
-113.28
11
189
21
-113.28
0
LINE
8
BLACK
6
CONTINUOUS
10
189
20
-113.28
11
189
21
-113.98
0
LINE
8
BLACK
6
CONTINUOUS
10
182.7
20
-113.98
11
181.6
21
-113.98
0
LINE
8
BLACK
6
CONTINUOUS
10
181.6
20
-113.98
11
181.6
21
-113.28
0
LINE
8
BLACK
6
CONTINUOUS
10
181.6
20
-113.28
11
182.7
21
-113.28
0
LINE
8
BLACK
6
CONTINUOUS
10
182.7
20
-113.28
11
182.7
21
-113.98
0
LINE
8
BLACK
6
CONTINUOUS
10
166.35
20
-113.75
11
165.55
21
-113.75
0
LINE
8
BLACK
6
CONTINUOUS
10
165.55
20
-113.75
11
165.55
21
-112.85
0
LINE
8
BLACK
6
CONTINUOUS
10
165.55
20
-112.85
11
166.35
21
-112.85
0
LINE
8
BLACK
6
CONTINUOUS
10
166.35
20
-112.85
11
166.35
21
-113.75
0
LINE
8
BLACK
6
CONTINUOUS
10
162.25
20
-113.75
11
161.45
21
-113.75
0
LINE
8
BLACK
6
CONTINUOUS
10
161.45
20
-113.75
11
161.45
21
-112.85
0
LINE
8
BLACK
6
CONTINUOUS
10
161.45
20
-112.85
11
162.25
21
-112.85
0
LINE
8
BLACK
6
CONTINUOUS
10
162.25
20
-112.85
11
162.25
21
-113.75
0
LINE
8
BLACK
6
CONTINUOUS
10
174.424
20
-111.139
11
174.493
21
-111.179
0
LINE
8
BLACK
6
CONTINUOUS
10
174.493
20
-111.179
11
174.544
21
-111.24
0
LINE
8
BLACK
6
CONTINUOUS
10
174.544
20
-111.24
11
174.575
21
-111.355
0
LINE
8
BLACK
6
CONTINUOUS
10
174.575
20
-111.355
11
174.575
21
-113.445
0
LINE
8
BLACK
6
CONTINUOUS
10
174.575
20
-113.445
11
174.561
21
-113.524
0
LINE
8
BLACK
6
CONTINUOUS
10
174.561
20
-113.524
11
174.521
21
-113.593
0
LINE
8
BLACK
6
CONTINUOUS
10
174.521
20
-113.593
11
174.46
21
-113.644
0
LINE
8
BLACK
6
CONTINUOUS
10
174.46
20
-113.644
11
174.345
21
-113.675
0
LINE
8
BLACK
6
CONTINUOUS
10
174.345
20
-113.675
11
173.655
21
-113.675
0
LINE
8
BLACK
6
CONTINUOUS
10
173.655
20
-113.675
11
173.576
21
-113.661
0
LINE
8
BLACK
6
CONTINUOUS
10
173.576
20
-113.661
11
173.507
21
-113.621
0
LINE
8
BLACK
6
CONTINUOUS
10
173.507
20
-113.621
11
173.456
21
-113.56
0
LINE
8
BLACK
6
CONTINUOUS
10
173.456
20
-113.56
11
173.425
21
-113.445
0
LINE
8
BLACK
6
CONTINUOUS
10
173.425
20
-113.445
11
173.425
21
-111.355
0
LINE
8
BLACK
6
CONTINUOUS
10
173.425
20
-111.355
11
173.439
21
-111.276
0
LINE
8
BLACK
6
CONTINUOUS
10
173.439
20
-111.276
11
173.479
21
-111.207
0
LINE
8
BLACK
6
CONTINUOUS
10
173.479
20
-111.207
11
173.54
21
-111.156
0
LINE
8
BLACK
6
CONTINUOUS
10
173.54
20
-111.156
11
173.655
21
-111.125
0
LINE
8
BLACK
6
CONTINUOUS
10
173.655
20
-111.125
11
174.345
21
-111.125
0
LINE
8
BLACK
6
CONTINUOUS
10
174.345
20
-111.125
11
174.424
21
-111.139
0
LINE
8
BLACK
6
CONTINUOUS
10
177.224
20
-111.139
11
177.293
21
-111.179
0
LINE
8
BLACK
6
CONTINUOUS
10
177.293
20
-111.179
11
177.344
21
-111.24
0
LINE
8
BLACK
6
CONTINUOUS
10
177.344
20
-111.24
11
177.375
21
-111.355
0
LINE
8
BLACK
6
CONTINUOUS
10
177.375
20
-111.355
11
177.375
21
-113.445
0
LINE
8
BLACK
6
CONTINUOUS
10
177.375
20
-113.445
11
177.361
21
-113.524
0
LINE
8
BLACK
6
CONTINUOUS
10
177.361
20
-113.524
11
177.321
21
-113.593
0
LINE
8
BLACK
6
CONTINUOUS
10
177.321
20
-113.593
11
177.26
21
-113.644
0
LINE
8
BLACK
6
CONTINUOUS
10
177.26
20
-113.644
11
177.145
21
-113.675
0
LINE
8
BLACK
6
CONTINUOUS
10
177.145
20
-113.675
11
176.455
21
-113.675
0
LINE
8
BLACK
6
CONTINUOUS
10
176.455
20
-113.675
11
176.376
21
-113.661
0
LINE
8
BLACK
6
CONTINUOUS
10
176.376
20
-113.661
11
176.307
21
-113.621
0
LINE
8
BLACK
6
CONTINUOUS
10
176.307
20
-113.621
11
176.256
21
-113.56
0
LINE
8
BLACK
6
CONTINUOUS
10
176.256
20
-113.56
11
176.225
21
-113.445
0
LINE
8
BLACK
6
CONTINUOUS
10
176.225
20
-113.445
11
176.225
21
-111.355
0
LINE
8
BLACK
6
CONTINUOUS
10
176.225
20
-111.355
11
176.239
21
-111.276
0
LINE
8
BLACK
6
CONTINUOUS
10
176.239
20
-111.276
11
176.279
21
-111.207
0
LINE
8
BLACK
6
CONTINUOUS
10
176.279
20
-111.207
11
176.34
21
-111.156
0
LINE
8
BLACK
6
CONTINUOUS
10
176.34
20
-111.156
11
176.455
21
-111.125
0
LINE
8
BLACK
6
CONTINUOUS
10
176.455
20
-111.125
11
177.145
21
-111.125
0
LINE
8
BLACK
6
CONTINUOUS
10
177.145
20
-111.125
11
177.224
21
-111.139
0
LINE
8
BLACK
6
CONTINUOUS
10
160.498
20
-112.912
11
160.556
21
-112.945
0
LINE
8
BLACK
6
CONTINUOUS
10
160.556
20
-112.945
11
160.599
21
-112.997
0
LINE
8
BLACK
6
CONTINUOUS
10
160.599
20
-112.997
11
160.625
21
-113.094
0
LINE
8
BLACK
6
CONTINUOUS
10
160.625
20
-113.094
11
160.625
21
-113.481
0
LINE
8
BLACK
6
CONTINUOUS
10
160.625
20
-113.481
11
160.613
21
-113.548
0
LINE
8
BLACK
6
CONTINUOUS
10
160.613
20
-113.548
11
160.58
21
-113.606
0
LINE
8
BLACK
6
CONTINUOUS
10
160.58
20
-113.606
11
160.528
21
-113.649
0
LINE
8
BLACK
6
CONTINUOUS
10
160.528
20
-113.649
11
160.431
21
-113.675
0
LINE
8
BLACK
6
CONTINUOUS
10
160.431
20
-113.675
11
159.969
21
-113.675
0
LINE
8
BLACK
6
CONTINUOUS
10
159.969
20
-113.675
11
159.902
21
-113.663
0
LINE
8
BLACK
6
CONTINUOUS
10
159.902
20
-113.663
11
159.844
21
-113.63
0
LINE
8
BLACK
6
CONTINUOUS
10
159.844
20
-113.63
11
159.801
21
-113.578
0
LINE
8
BLACK
6
CONTINUOUS
10
159.801
20
-113.578
11
159.775
21
-113.481
0
LINE
8
BLACK
6
CONTINUOUS
10
159.775
20
-113.481
11
159.775
21
-113.094
0
LINE
8
BLACK
6
CONTINUOUS
10
159.775
20
-113.094
11
159.787
21
-113.027
0
LINE
8
BLACK
6
CONTINUOUS
10
159.787
20
-113.027
11
159.82
21
-112.969
0
LINE
8
BLACK
6
CONTINUOUS
10
159.82
20
-112.969
11
159.872
21
-112.926
0
LINE
8
BLACK
6
CONTINUOUS
10
159.872
20
-112.926
11
159.969
21
-112.9
0
LINE
8
BLACK
6
CONTINUOUS
10
159.969
20
-112.9
11
160.431
21
-112.9
0
LINE
8
BLACK
6
CONTINUOUS
10
160.431
20
-112.9
11
160.498
21
-112.912
0
LINE
8
BLACK
6
CONTINUOUS
10
179
20
-113.5
11
178.2
21
-113.5
0
LINE
8
BLACK
6
CONTINUOUS
10
178.2
20
-113.5
11
178.2
21
-112.8
0
LINE
8
BLACK
6
CONTINUOUS
10
178.2
20
-112.8
11
179
21
-112.8
0
LINE
8
BLACK
6
CONTINUOUS
10
179
20
-112.8
11
179
21
-113.5
0
LINE
8
BLACK
6
CONTINUOUS
10
181
20
-112.55
11
180.2
21
-112.55
0
LINE
8
BLACK
6
CONTINUOUS
10
180.2
20
-112.55
11
180.2
21
-111.85
0
LINE
8
BLACK
6
CONTINUOUS
10
180.2
20
-111.85
11
181
21
-111.85
0
LINE
8
BLACK
6
CONTINUOUS
10
181
20
-111.85
11
181
21
-112.55
0
LINE
8
BLACK
6
CONTINUOUS
10
166.35
20
-112.15
11
165.55
21
-112.15
0
LINE
8
BLACK
6
CONTINUOUS
10
165.55
20
-112.15
11
165.55
21
-111.25
0
LINE
8
BLACK
6
CONTINUOUS
10
165.55
20
-111.25
11
166.35
21
-111.25
0
LINE
8
BLACK
6
CONTINUOUS
10
166.35
20
-111.25
11
166.35
21
-112.15
0
LINE
8
BLACK
6
CONTINUOUS
10
162.25
20
-112.15
11
161.45
21
-112.15
0
LINE
8
BLACK
6
CONTINUOUS
10
161.45
20
-112.15
11
161.45
21
-111.25
0
LINE
8
BLACK
6
CONTINUOUS
10
161.45
20
-111.25
11
162.25
21
-111.25
0
LINE
8
BLACK
6
CONTINUOUS
10
162.25
20
-111.25
11
162.25
21
-112.15
0
LINE
8
BLACK
6
CONTINUOUS
10
160.498
20
-111.337
11
160.556
21
-111.37
0
LINE
8
BLACK
6
CONTINUOUS
10
160.556
20
-111.37
11
160.599
21
-111.422
0
LINE
8
BLACK
6
CONTINUOUS
10
160.599
20
-111.422
11
160.625
21
-111.519
0
LINE
8
BLACK
6
CONTINUOUS
10
160.625
20
-111.519
11
160.625
21
-111.906
0
LINE
8
BLACK
6
CONTINUOUS
10
160.625
20
-111.906
11
160.613
21
-111.973
0
LINE
8
BLACK
6
CONTINUOUS
10
160.613
20
-111.973
11
160.58
21
-112.031
0
LINE
8
BLACK
6
CONTINUOUS
10
160.58
20
-112.031
11
160.528
21
-112.074
0
LINE
8
BLACK
6
CONTINUOUS
10
160.528
20
-112.074
11
160.431
21
-112.1
0
LINE
8
BLACK
6
CONTINUOUS
10
160.431
20
-112.1
11
159.969
21
-112.1
0
LINE
8
BLACK
6
CONTINUOUS
10
159.969
20
-112.1
11
159.902
21
-112.088
0
LINE
8
BLACK
6
CONTINUOUS
10
159.902
20
-112.088
11
159.844
21
-112.055
0
LINE
8
BLACK
6
CONTINUOUS
10
159.844
20
-112.055
11
159.801
21
-112.003
0
LINE
8
BLACK
6
CONTINUOUS
10
159.801
20
-112.003
11
159.775
21
-111.906
0
LINE
8
BLACK
6
CONTINUOUS
10
159.775
20
-111.906
11
159.775
21
-111.519
0
LINE
8
BLACK
6
CONTINUOUS
10
159.775
20
-111.519
11
159.787
21
-111.452
0
LINE
8
BLACK
6
CONTINUOUS
10
159.787
20
-111.452
11
159.82
21
-111.394
0
LINE
8
BLACK
6
CONTINUOUS
10
159.82
20
-111.394
11
159.872
21
-111.351
0
LINE
8
BLACK
6
CONTINUOUS
10
159.872
20
-111.351
11
159.969
21
-111.325
0
LINE
8
BLACK
6
CONTINUOUS
10
159.969
20
-111.325
11
160.431
21
-111.325
0
LINE
8
BLACK
6
CONTINUOUS
10
160.431
20
-111.325
11
160.498
21
-111.337
0
LINE
8
BLACK
6
CONTINUOUS
10
189.7
20
-112
11
186.65
21
-112
0
LINE
8
BLACK
6
CONTINUOUS
10
186.65
20
-112
11
186.65
21
-109.25
0
LINE
8
BLACK
6
CONTINUOUS
10
186.65
20
-109.25
11
189.7
21
-109.25
0
LINE
8
BLACK
6
CONTINUOUS
10
189.7
20
-109.25
11
189.7
21
-112
0
LINE
8
BLACK
6
CONTINUOUS
10
186.35
20
-112
11
183.3
21
-112
0
LINE
8
BLACK
6
CONTINUOUS
10
183.3
20
-112
11
183.3
21
-109.25
0
LINE
8
BLACK
6
CONTINUOUS
10
183.3
20
-109.25
11
186.35
21
-109.25
0
LINE
8
BLACK
6
CONTINUOUS
10
186.35
20
-109.25
11
186.35
21
-112
0
LINE
8
BLACK
6
CONTINUOUS
10
182.498
20
-111.212
11
182.556
21
-111.245
0
LINE
8
BLACK
6
CONTINUOUS
10
182.556
20
-111.245
11
182.599
21
-111.297
0
LINE
8
BLACK
6
CONTINUOUS
10
182.599
20
-111.297
11
182.625
21
-111.394
0
LINE
8
BLACK
6
CONTINUOUS
10
182.625
20
-111.394
11
182.625
21
-111.781
0
LINE
8
BLACK
6
CONTINUOUS
10
182.625
20
-111.781
11
182.613
21
-111.848
0
LINE
8
BLACK
6
CONTINUOUS
10
182.613
20
-111.848
11
182.58
21
-111.906
0
LINE
8
BLACK
6
CONTINUOUS
10
182.58
20
-111.906
11
182.528
21
-111.949
0
LINE
8
BLACK
6
CONTINUOUS
10
182.528
20
-111.949
11
182.431
21
-111.975
0
LINE
8
BLACK
6
CONTINUOUS
10
182.431
20
-111.975
11
181.969
21
-111.975
0
LINE
8
BLACK
6
CONTINUOUS
10
181.969
20
-111.975
11
181.902
21
-111.963
0
LINE
8
BLACK
6
CONTINUOUS
10
181.902
20
-111.963
11
181.844
21
-111.93
0
LINE
8
BLACK
6
CONTINUOUS
10
181.844
20
-111.93
11
181.801
21
-111.878
0
LINE
8
BLACK
6
CONTINUOUS
10
181.801
20
-111.878
11
181.775
21
-111.781
0
LINE
8
BLACK
6
CONTINUOUS
10
181.775
20
-111.781
11
181.775
21
-111.394
0
LINE
8
BLACK
6
CONTINUOUS
10
181.775
20
-111.394
11
181.787
21
-111.327
0
LINE
8
BLACK
6
CONTINUOUS
10
181.787
20
-111.327
11
181.82
21
-111.269
0
LINE
8
BLACK
6
CONTINUOUS
10
181.82
20
-111.269
11
181.872
21
-111.226
0
LINE
8
BLACK
6
CONTINUOUS
10
181.872
20
-111.226
11
181.969
21
-111.2
0
LINE
8
BLACK
6
CONTINUOUS
10
181.969
20
-111.2
11
182.431
21
-111.2
0
LINE
8
BLACK
6
CONTINUOUS
10
182.431
20
-111.2
11
182.498
21
-111.212
0
LINE
8
BLACK
6
CONTINUOUS
10
193.85
20
-111.93
11
191.75
21
-111.93
0
LINE
8
BLACK
6
CONTINUOUS
10
191.75
20
-111.93
11
191.75
21
-110.83
0
LINE
8
BLACK
6
CONTINUOUS
10
191.75
20
-110.83
11
193.85
21
-110.83
0
LINE
8
BLACK
6
CONTINUOUS
10
193.85
20
-110.83
11
193.85
21
-111.93
0
LINE
8
BLACK
6
CONTINUOUS
10
179
20
-111.6
11
178.2
21
-111.6
0
LINE
8
BLACK
6
CONTINUOUS
10
178.2
20
-111.6
11
178.2
21
-110.9
0
LINE
8
BLACK
6
CONTINUOUS
10
178.2
20
-110.9
11
179
21
-110.9
0
LINE
8
BLACK
6
CONTINUOUS
10
179
20
-110.9
11
179
21
-111.6
0
LINE
8
BLACK
6
CONTINUOUS
10
164.7
20
-111.3
11
163.1
21
-111.3
0
LINE
8
BLACK
6
CONTINUOUS
10
163.1
20
-111.3
11
163.1
21
-110.85
0
LINE
8
BLACK
6
CONTINUOUS
10
163.1
20
-110.85
11
164.7
21
-110.85
0
LINE
8
BLACK
6
CONTINUOUS
10
164.7
20
-110.85
11
164.7
21
-111.3
0
LINE
8
BLACK
6
CONTINUOUS
10
182.498
20
-109.637
11
182.556
21
-109.67
0
LINE
8
BLACK
6
CONTINUOUS
10
182.556
20
-109.67
11
182.599
21
-109.722
0
LINE
8
BLACK
6
CONTINUOUS
10
182.599
20
-109.722
11
182.625
21
-109.819
0
LINE
8
BLACK
6
CONTINUOUS
10
182.625
20
-109.819
11
182.625
21
-110.206
0
LINE
8
BLACK
6
CONTINUOUS
10
182.625
20
-110.206
11
182.613
21
-110.273
0
LINE
8
BLACK
6
CONTINUOUS
10
182.613
20
-110.273
11
182.58
21
-110.331
0
LINE
8
BLACK
6
CONTINUOUS
10
182.58
20
-110.331
11
182.528
21
-110.374
0
LINE
8
BLACK
6
CONTINUOUS
10
182.528
20
-110.374
11
182.431
21
-110.4
0
LINE
8
BLACK
6
CONTINUOUS
10
182.431
20
-110.4
11
181.969
21
-110.4
0
LINE
8
BLACK
6
CONTINUOUS
10
181.969
20
-110.4
11
181.902
21
-110.388
0
LINE
8
BLACK
6
CONTINUOUS
10
181.902
20
-110.388
11
181.844
21
-110.355
0
LINE
8
BLACK
6
CONTINUOUS
10
181.844
20
-110.355
11
181.801
21
-110.303
0
LINE
8
BLACK
6
CONTINUOUS
10
181.801
20
-110.303
11
181.775
21
-110.206
0
LINE
8
BLACK
6
CONTINUOUS
10
181.775
20
-110.206
11
181.775
21
-109.819
0
LINE
8
BLACK
6
CONTINUOUS
10
181.775
20
-109.819
11
181.787
21
-109.752
0
LINE
8
BLACK
6
CONTINUOUS
10
181.787
20
-109.752
11
181.82
21
-109.694
0
LINE
8
BLACK
6
CONTINUOUS
10
181.82
20
-109.694
11
181.872
21
-109.651
0
LINE
8
BLACK
6
CONTINUOUS
10
181.872
20
-109.651
11
181.969
21
-109.625
0
LINE
8
BLACK
6
CONTINUOUS
10
181.969
20
-109.625
11
182.431
21
-109.625
0
LINE
8
BLACK
6
CONTINUOUS
10
182.431
20
-109.625
11
182.498
21
-109.637
0
LINE
8
BLACK
6
CONTINUOUS
10
170.098
20
-109.612
11
170.156
21
-109.645
0
LINE
8
BLACK
6
CONTINUOUS
10
170.156
20
-109.645
11
170.199
21
-109.697
0
LINE
8
BLACK
6
CONTINUOUS
10
170.199
20
-109.697
11
170.225
21
-109.794
0
LINE
8
BLACK
6
CONTINUOUS
10
170.225
20
-109.794
11
170.225
21
-110.181
0
LINE
8
BLACK
6
CONTINUOUS
10
170.225
20
-110.181
11
170.213
21
-110.248
0
LINE
8
BLACK
6
CONTINUOUS
10
170.213
20
-110.248
11
170.18
21
-110.306
0
LINE
8
BLACK
6
CONTINUOUS
10
170.18
20
-110.306
11
170.128
21
-110.349
0
LINE
8
BLACK
6
CONTINUOUS
10
170.128
20
-110.349
11
170.031
21
-110.375
0
LINE
8
BLACK
6
CONTINUOUS
10
170.031
20
-110.375
11
169.569
21
-110.375
0
LINE
8
BLACK
6
CONTINUOUS
10
169.569
20
-110.375
11
169.502
21
-110.363
0
LINE
8
BLACK
6
CONTINUOUS
10
169.502
20
-110.363
11
169.444
21
-110.33
0
LINE
8
BLACK
6
CONTINUOUS
10
169.444
20
-110.33
11
169.401
21
-110.278
0
LINE
8
BLACK
6
CONTINUOUS
10
169.401
20
-110.278
11
169.375
21
-110.181
0
LINE
8
BLACK
6
CONTINUOUS
10
169.375
20
-110.181
11
169.375
21
-109.794
0
LINE
8
BLACK
6
CONTINUOUS
10
169.375
20
-109.794
11
169.387
21
-109.727
0
LINE
8
BLACK
6
CONTINUOUS
10
169.387
20
-109.727
11
169.42
21
-109.669
0
LINE
8
BLACK
6
CONTINUOUS
10
169.42
20
-109.669
11
169.472
21
-109.626
0
LINE
8
BLACK
6
CONTINUOUS
10
169.472
20
-109.626
11
169.569
21
-109.6
0
LINE
8
BLACK
6
CONTINUOUS
10
169.569
20
-109.6
11
170.031
21
-109.6
0
LINE
8
BLACK
6
CONTINUOUS
10
170.031
20
-109.6
11
170.098
21
-109.612
0
LINE
8
BLACK
6
CONTINUOUS
10
172.61
20
-110.33
11
171.11
21
-110.33
0
LINE
8
BLACK
6
CONTINUOUS
10
171.11
20
-110.33
11
171.11
21
-108.83
0
LINE
8
BLACK
6
CONTINUOUS
10
171.11
20
-108.83
11
172.61
21
-108.83
0
LINE
8
BLACK
6
CONTINUOUS
10
172.61
20
-108.83
11
172.61
21
-110.33
0
LINE
8
BLACK
6
CONTINUOUS
10
175.15
20
-110.33
11
173.65
21
-110.33
0
LINE
8
BLACK
6
CONTINUOUS
10
173.65
20
-110.33
11
173.65
21
-108.83
0
LINE
8
BLACK
6
CONTINUOUS
10
173.65
20
-108.83
11
175.15
21
-108.83
0
LINE
8
BLACK
6
CONTINUOUS
10
175.15
20
-108.83
11
175.15
21
-110.33
0
LINE
8
BLACK
6
CONTINUOUS
10
177.69
20
-110.33
11
176.19
21
-110.33
0
LINE
8
BLACK
6
CONTINUOUS
10
176.19
20
-110.33
11
176.19
21
-108.83
0
LINE
8
BLACK
6
CONTINUOUS
10
176.19
20
-108.83
11
177.69
21
-108.83
0
LINE
8
BLACK
6
CONTINUOUS
10
177.69
20
-108.83
11
177.69
21
-110.33
0
LINE
8
BLACK
6
CONTINUOUS
10
180.848
20
-109.187
11
180.906
21
-109.22
0
LINE
8
BLACK
6
CONTINUOUS
10
180.906
20
-109.22
11
180.949
21
-109.272
0
LINE
8
BLACK
6
CONTINUOUS
10
180.949
20
-109.272
11
180.975
21
-109.369
0
LINE
8
BLACK
6
CONTINUOUS
10
180.975
20
-109.369
11
180.975
21
-109.831
0
LINE
8
BLACK
6
CONTINUOUS
10
180.975
20
-109.831
11
180.963
21
-109.898
0
LINE
8
BLACK
6
CONTINUOUS
10
180.963
20
-109.898
11
180.93
21
-109.956
0
LINE
8
BLACK
6
CONTINUOUS
10
180.93
20
-109.956
11
180.878
21
-109.999
0
LINE
8
BLACK
6
CONTINUOUS
10
180.878
20
-109.999
11
180.781
21
-110.025
0
LINE
8
BLACK
6
CONTINUOUS
10
180.781
20
-110.025
11
180.394
21
-110.025
0
LINE
8
BLACK
6
CONTINUOUS
10
180.394
20
-110.025
11
180.327
21
-110.013
0
LINE
8
BLACK
6
CONTINUOUS
10
180.327
20
-110.013
11
180.269
21
-109.98
0
LINE
8
BLACK
6
CONTINUOUS
10
180.269
20
-109.98
11
180.226
21
-109.928
0
LINE
8
BLACK
6
CONTINUOUS
10
180.226
20
-109.928
11
180.2
21
-109.831
0
LINE
8
BLACK
6
CONTINUOUS
10
180.2
20
-109.831
11
180.2
21
-109.369
0
LINE
8
BLACK
6
CONTINUOUS
10
180.2
20
-109.369
11
180.212
21
-109.302
0
LINE
8
BLACK
6
CONTINUOUS
10
180.212
20
-109.302
11
180.245
21
-109.244
0
LINE
8
BLACK
6
CONTINUOUS
10
180.245
20
-109.244
11
180.297
21
-109.201
0
LINE
8
BLACK
6
CONTINUOUS
10
180.297
20
-109.201
11
180.394
21
-109.175
0
LINE
8
BLACK
6
CONTINUOUS
10
180.394
20
-109.175
11
180.781
21
-109.175
0
LINE
8
BLACK
6
CONTINUOUS
10
180.781
20
-109.175
11
180.848
21
-109.187
0
LINE
8
BLACK
6
CONTINUOUS
10
179.273
20
-109.187
11
179.331
21
-109.22
0
LINE
8
BLACK
6
CONTINUOUS
10
179.331
20
-109.22
11
179.374
21
-109.272
0
LINE
8
BLACK
6
CONTINUOUS
10
179.374
20
-109.272
11
179.4
21
-109.369
0
LINE
8
BLACK
6
CONTINUOUS
10
179.4
20
-109.369
11
179.4
21
-109.831
0
LINE
8
BLACK
6
CONTINUOUS
10
179.4
20
-109.831
11
179.388
21
-109.898
0
LINE
8
BLACK
6
CONTINUOUS
10
179.388
20
-109.898
11
179.355
21
-109.956
0
LINE
8
BLACK
6
CONTINUOUS
10
179.355
20
-109.956
11
179.303
21
-109.999
0
LINE
8
BLACK
6
CONTINUOUS
10
179.303
20
-109.999
11
179.206
21
-110.025
0
LINE
8
BLACK
6
CONTINUOUS
10
179.206
20
-110.025
11
178.819
21
-110.025
0
LINE
8
BLACK
6
CONTINUOUS
10
178.819
20
-110.025
11
178.752
21
-110.013
0
LINE
8
BLACK
6
CONTINUOUS
10
178.752
20
-110.013
11
178.694
21
-109.98
0
LINE
8
BLACK
6
CONTINUOUS
10
178.694
20
-109.98
11
178.651
21
-109.928
0
LINE
8
BLACK
6
CONTINUOUS
10
178.651
20
-109.928
11
178.625
21
-109.831
0
LINE
8
BLACK
6
CONTINUOUS
10
178.625
20
-109.831
11
178.625
21
-109.369
0
LINE
8
BLACK
6
CONTINUOUS
10
178.625
20
-109.369
11
178.637
21
-109.302
0
LINE
8
BLACK
6
CONTINUOUS
10
178.637
20
-109.302
11
178.67
21
-109.244
0
LINE
8
BLACK
6
CONTINUOUS
10
178.67
20
-109.244
11
178.722
21
-109.201
0
LINE
8
BLACK
6
CONTINUOUS
10
178.722
20
-109.201
11
178.819
21
-109.175
0
LINE
8
BLACK
6
CONTINUOUS
10
178.819
20
-109.175
11
179.206
21
-109.175
0
LINE
8
BLACK
6
CONTINUOUS
10
179.206
20
-109.175
11
179.273
21
-109.187
0
LINE
8
BLACK
6
CONTINUOUS
10
158.89
20
-109.87
11
157.39
21
-109.87
0
LINE
8
BLACK
6
CONTINUOUS
10
157.39
20
-109.87
11
157.39
21
-108.37
0
LINE
8
BLACK
6
CONTINUOUS
10
157.39
20
-108.37
11
158.89
21
-108.37
0
LINE
8
BLACK
6
CONTINUOUS
10
158.89
20
-108.37
11
158.89
21
-109.87
0
LINE
8
BLACK
6
CONTINUOUS
10
156.35
20
-109.87
11
154.85
21
-109.87
0
LINE
8
BLACK
6
CONTINUOUS
10
154.85
20
-109.87
11
154.85
21
-108.37
0
LINE
8
BLACK
6
CONTINUOUS
10
154.85
20
-108.37
11
156.35
21
-108.37
0
LINE
8
BLACK
6
CONTINUOUS
10
156.35
20
-108.37
11
156.35
21
-109.87
0
LINE
8
BLACK
6
CONTINUOUS
10
153.81
20
-109.87
11
152.31
21
-109.87
0
LINE
8
BLACK
6
CONTINUOUS
10
152.31
20
-109.87
11
152.31
21
-108.37
0
LINE
8
BLACK
6
CONTINUOUS
10
152.31
20
-108.37
11
153.81
21
-108.37
0
LINE
8
BLACK
6
CONTINUOUS
10
153.81
20
-108.37
11
153.81
21
-109.87
0
LINE
8
BLACK
6
CONTINUOUS
10
151.298
20
-108.812
11
151.356
21
-108.845
0
LINE
8
BLACK
6
CONTINUOUS
10
151.356
20
-108.845
11
151.399
21
-108.897
0
LINE
8
BLACK
6
CONTINUOUS
10
151.399
20
-108.897
11
151.425
21
-108.994
0
LINE
8
BLACK
6
CONTINUOUS
10
151.425
20
-108.994
11
151.425
21
-109.381
0
LINE
8
BLACK
6
CONTINUOUS
10
151.425
20
-109.381
11
151.413
21
-109.448
0
LINE
8
BLACK
6
CONTINUOUS
10
151.413
20
-109.448
11
151.38
21
-109.506
0
LINE
8
BLACK
6
CONTINUOUS
10
151.38
20
-109.506
11
151.328
21
-109.549
0
LINE
8
BLACK
6
CONTINUOUS
10
151.328
20
-109.549
11
151.231
21
-109.575
0
LINE
8
BLACK
6
CONTINUOUS
10
151.231
20
-109.575
11
150.769
21
-109.575
0
LINE
8
BLACK
6
CONTINUOUS
10
150.769
20
-109.575
11
150.702
21
-109.563
0
LINE
8
BLACK
6
CONTINUOUS
10
150.702
20
-109.563
11
150.644
21
-109.53
0
LINE
8
BLACK
6
CONTINUOUS
10
150.644
20
-109.53
11
150.601
21
-109.478
0
LINE
8
BLACK
6
CONTINUOUS
10
150.601
20
-109.478
11
150.575
21
-109.381
0
LINE
8
BLACK
6
CONTINUOUS
10
150.575
20
-109.381
11
150.575
21
-108.994
0
LINE
8
BLACK
6
CONTINUOUS
10
150.575
20
-108.994
11
150.587
21
-108.927
0
LINE
8
BLACK
6
CONTINUOUS
10
150.587
20
-108.927
11
150.62
21
-108.869
0
LINE
8
BLACK
6
CONTINUOUS
10
150.62
20
-108.869
11
150.672
21
-108.826
0
LINE
8
BLACK
6
CONTINUOUS
10
150.672
20
-108.826
11
150.769
21
-108.8
0
LINE
8
BLACK
6
CONTINUOUS
10
150.769
20
-108.8
11
151.231
21
-108.8
0
LINE
8
BLACK
6
CONTINUOUS
10
151.231
20
-108.8
11
151.298
21
-108.812
0
LINE
8
BLACK
6
CONTINUOUS
10
193.748
20
-108.287
11
193.806
21
-108.32
0
LINE
8
BLACK
6
CONTINUOUS
10
193.806
20
-108.32
11
193.849
21
-108.372
0
LINE
8
BLACK
6
CONTINUOUS
10
193.849
20
-108.372
11
193.875
21
-108.469
0
LINE
8
BLACK
6
CONTINUOUS
10
193.875
20
-108.469
11
193.875
21
-108.931
0
LINE
8
BLACK
6
CONTINUOUS
10
193.875
20
-108.931
11
193.863
21
-108.998
0
LINE
8
BLACK
6
CONTINUOUS
10
193.863
20
-108.998
11
193.83
21
-109.056
0
LINE
8
BLACK
6
CONTINUOUS
10
193.83
20
-109.056
11
193.778
21
-109.099
0
LINE
8
BLACK
6
CONTINUOUS
10
193.778
20
-109.099
11
193.681
21
-109.125
0
LINE
8
BLACK
6
CONTINUOUS
10
193.681
20
-109.125
11
193.294
21
-109.125
0
LINE
8
BLACK
6
CONTINUOUS
10
193.294
20
-109.125
11
193.227
21
-109.113
0
LINE
8
BLACK
6
CONTINUOUS
10
193.227
20
-109.113
11
193.169
21
-109.08
0
LINE
8
BLACK
6
CONTINUOUS
10
193.169
20
-109.08
11
193.126
21
-109.028
0
LINE
8
BLACK
6
CONTINUOUS
10
193.126
20
-109.028
11
193.1
21
-108.931
0
LINE
8
BLACK
6
CONTINUOUS
10
193.1
20
-108.931
11
193.1
21
-108.469
0
LINE
8
BLACK
6
CONTINUOUS
10
193.1
20
-108.469
11
193.112
21
-108.402
0
LINE
8
BLACK
6
CONTINUOUS
10
193.112
20
-108.402
11
193.145
21
-108.344
0
LINE
8
BLACK
6
CONTINUOUS
10
193.145
20
-108.344
11
193.197
21
-108.301
0
LINE
8
BLACK
6
CONTINUOUS
10
193.197
20
-108.301
11
193.294
21
-108.275
0
LINE
8
BLACK
6
CONTINUOUS
10
193.294
20
-108.275
11
193.681
21
-108.275
0
LINE
8
BLACK
6
CONTINUOUS
10
193.681
20
-108.275
11
193.748
21
-108.287
0
LINE
8
BLACK
6
CONTINUOUS
10
192.173
20
-108.287
11
192.231
21
-108.32
0
LINE
8
BLACK
6
CONTINUOUS
10
192.231
20
-108.32
11
192.274
21
-108.372
0
LINE
8
BLACK
6
CONTINUOUS
10
192.274
20
-108.372
11
192.3
21
-108.469
0
LINE
8
BLACK
6
CONTINUOUS
10
192.3
20
-108.469
11
192.3
21
-108.931
0
LINE
8
BLACK
6
CONTINUOUS
10
192.3
20
-108.931
11
192.288
21
-108.998
0
LINE
8
BLACK
6
CONTINUOUS
10
192.288
20
-108.998
11
192.255
21
-109.056
0
LINE
8
BLACK
6
CONTINUOUS
10
192.255
20
-109.056
11
192.203
21
-109.099
0
LINE
8
BLACK
6
CONTINUOUS
10
192.203
20
-109.099
11
192.106
21
-109.125
0
LINE
8
BLACK
6
CONTINUOUS
10
192.106
20
-109.125
11
191.719
21
-109.125
0
LINE
8
BLACK
6
CONTINUOUS
10
191.719
20
-109.125
11
191.652
21
-109.113
0
LINE
8
BLACK
6
CONTINUOUS
10
191.652
20
-109.113
11
191.594
21
-109.08
0
LINE
8
BLACK
6
CONTINUOUS
10
191.594
20
-109.08
11
191.551
21
-109.028
0
LINE
8
BLACK
6
CONTINUOUS
10
191.551
20
-109.028
11
191.525
21
-108.931
0
LINE
8
BLACK
6
CONTINUOUS
10
191.525
20
-108.931
11
191.525
21
-108.469
0
LINE
8
BLACK
6
CONTINUOUS
10
191.525
20
-108.469
11
191.537
21
-108.402
0
LINE
8
BLACK
6
CONTINUOUS
10
191.537
20
-108.402
11
191.57
21
-108.344
0
LINE
8
BLACK
6
CONTINUOUS
10
191.57
20
-108.344
11
191.622
21
-108.301
0
LINE
8
BLACK
6
CONTINUOUS
10
191.622
20
-108.301
11
191.719
21
-108.275
0
LINE
8
BLACK
6
CONTINUOUS
10
191.719
20
-108.275
11
192.106
21
-108.275
0
LINE
8
BLACK
6
CONTINUOUS
10
192.106
20
-108.275
11
192.173
21
-108.287
0
LINE
8
BLACK
6
CONTINUOUS
10
189.7
20
-108.95
11
186.65
21
-108.95
0
LINE
8
BLACK
6
CONTINUOUS
10
186.65
20
-108.95
11
186.65
21
-106.2
0
LINE
8
BLACK
6
CONTINUOUS
10
186.65
20
-106.2
11
189.7
21
-106.2
0
LINE
8
BLACK
6
CONTINUOUS
10
189.7
20
-106.2
11
189.7
21
-108.95
0
LINE
8
BLACK
6
CONTINUOUS
10
186.35
20
-108.95
11
183.3
21
-108.95
0
LINE
8
BLACK
6
CONTINUOUS
10
183.3
20
-108.95
11
183.3
21
-106.2
0
LINE
8
BLACK
6
CONTINUOUS
10
183.3
20
-106.2
11
186.35
21
-106.2
0
LINE
8
BLACK
6
CONTINUOUS
10
186.35
20
-106.2
11
186.35
21
-108.95
0
LINE
8
BLACK
6
CONTINUOUS
10
170.098
20
-108.037
11
170.156
21
-108.07
0
LINE
8
BLACK
6
CONTINUOUS
10
170.156
20
-108.07
11
170.199
21
-108.122
0
LINE
8
BLACK
6
CONTINUOUS
10
170.199
20
-108.122
11
170.225
21
-108.219
0
LINE
8
BLACK
6
CONTINUOUS
10
170.225
20
-108.219
11
170.225
21
-108.606
0
LINE
8
BLACK
6
CONTINUOUS
10
170.225
20
-108.606
11
170.213
21
-108.673
0
LINE
8
BLACK
6
CONTINUOUS
10
170.213
20
-108.673
11
170.18
21
-108.731
0
LINE
8
BLACK
6
CONTINUOUS
10
170.18
20
-108.731
11
170.128
21
-108.774
0
LINE
8
BLACK
6
CONTINUOUS
10
170.128
20
-108.774
11
170.031
21
-108.8
0
LINE
8
BLACK
6
CONTINUOUS
10
170.031
20
-108.8
11
169.569
21
-108.8
0
LINE
8
BLACK
6
CONTINUOUS
10
169.569
20
-108.8
11
169.502
21
-108.788
0
LINE
8
BLACK
6
CONTINUOUS
10
169.502
20
-108.788
11
169.444
21
-108.755
0
LINE
8
BLACK
6
CONTINUOUS
10
169.444
20
-108.755
11
169.401
21
-108.703
0
LINE
8
BLACK
6
CONTINUOUS
10
169.401
20
-108.703
11
169.375
21
-108.606
0
LINE
8
BLACK
6
CONTINUOUS
10
169.375
20
-108.606
11
169.375
21
-108.219
0
LINE
8
BLACK
6
CONTINUOUS
10
169.375
20
-108.219
11
169.387
21
-108.152
0
LINE
8
BLACK
6
CONTINUOUS
10
169.387
20
-108.152
11
169.42
21
-108.094
0
LINE
8
BLACK
6
CONTINUOUS
10
169.42
20
-108.094
11
169.472
21
-108.051
0
LINE
8
BLACK
6
CONTINUOUS
10
169.472
20
-108.051
11
169.569
21
-108.025
0
LINE
8
BLACK
6
CONTINUOUS
10
169.569
20
-108.025
11
170.031
21
-108.025
0
LINE
8
BLACK
6
CONTINUOUS
10
170.031
20
-108.025
11
170.098
21
-108.037
0
LINE
8
BLACK
6
CONTINUOUS
10
179.273
20
-107.587
11
179.331
21
-107.62
0
LINE
8
BLACK
6
CONTINUOUS
10
179.331
20
-107.62
11
179.374
21
-107.672
0
LINE
8
BLACK
6
CONTINUOUS
10
179.374
20
-107.672
11
179.4
21
-107.769
0
LINE
8
BLACK
6
CONTINUOUS
10
179.4
20
-107.769
11
179.4
21
-108.231
0
LINE
8
BLACK
6
CONTINUOUS
10
179.4
20
-108.231
11
179.388
21
-108.298
0
LINE
8
BLACK
6
CONTINUOUS
10
179.388
20
-108.298
11
179.355
21
-108.356
0
LINE
8
BLACK
6
CONTINUOUS
10
179.355
20
-108.356
11
179.303
21
-108.399
0
LINE
8
BLACK
6
CONTINUOUS
10
179.303
20
-108.399
11
179.206
21
-108.425
0
LINE
8
BLACK
6
CONTINUOUS
10
179.206
20
-108.425
11
178.819
21
-108.425
0
LINE
8
BLACK
6
CONTINUOUS
10
178.819
20
-108.425
11
178.752
21
-108.413
0
LINE
8
BLACK
6
CONTINUOUS
10
178.752
20
-108.413
11
178.694
21
-108.38
0
LINE
8
BLACK
6
CONTINUOUS
10
178.694
20
-108.38
11
178.651
21
-108.328
0
LINE
8
BLACK
6
CONTINUOUS
10
178.651
20
-108.328
11
178.625
21
-108.231
0
LINE
8
BLACK
6
CONTINUOUS
10
178.625
20
-108.231
11
178.625
21
-107.769
0
LINE
8
BLACK
6
CONTINUOUS
10
178.625
20
-107.769
11
178.637
21
-107.702
0
LINE
8
BLACK
6
CONTINUOUS
10
178.637
20
-107.702
11
178.67
21
-107.644
0
LINE
8
BLACK
6
CONTINUOUS
10
178.67
20
-107.644
11
178.722
21
-107.601
0
LINE
8
BLACK
6
CONTINUOUS
10
178.722
20
-107.601
11
178.819
21
-107.575
0
LINE
8
BLACK
6
CONTINUOUS
10
178.819
20
-107.575
11
179.206
21
-107.575
0
LINE
8
BLACK
6
CONTINUOUS
10
179.206
20
-107.575
11
179.273
21
-107.587
0
LINE
8
BLACK
6
CONTINUOUS
10
180.848
20
-107.587
11
180.906
21
-107.62
0
LINE
8
BLACK
6
CONTINUOUS
10
180.906
20
-107.62
11
180.949
21
-107.672
0
LINE
8
BLACK
6
CONTINUOUS
10
180.949
20
-107.672
11
180.975
21
-107.769
0
LINE
8
BLACK
6
CONTINUOUS
10
180.975
20
-107.769
11
180.975
21
-108.231
0
LINE
8
BLACK
6
CONTINUOUS
10
180.975
20
-108.231
11
180.963
21
-108.298
0
LINE
8
BLACK
6
CONTINUOUS
10
180.963
20
-108.298
11
180.93
21
-108.356
0
LINE
8
BLACK
6
CONTINUOUS
10
180.93
20
-108.356
11
180.878
21
-108.399
0
LINE
8
BLACK
6
CONTINUOUS
10
180.878
20
-108.399
11
180.781
21
-108.425
0
LINE
8
BLACK
6
CONTINUOUS
10
180.781
20
-108.425
11
180.394
21
-108.425
0
LINE
8
BLACK
6
CONTINUOUS
10
180.394
20
-108.425
11
180.327
21
-108.413
0
LINE
8
BLACK
6
CONTINUOUS
10
180.327
20
-108.413
11
180.269
21
-108.38
0
LINE
8
BLACK
6
CONTINUOUS
10
180.269
20
-108.38
11
180.226
21
-108.328
0
LINE
8
BLACK
6
CONTINUOUS
10
180.226
20
-108.328
11
180.2
21
-108.231
0
LINE
8
BLACK
6
CONTINUOUS
10
180.2
20
-108.231
11
180.2
21
-107.769
0
LINE
8
BLACK
6
CONTINUOUS
10
180.2
20
-107.769
11
180.212
21
-107.702
0
LINE
8
BLACK
6
CONTINUOUS
10
180.212
20
-107.702
11
180.245
21
-107.644
0
LINE
8
BLACK
6
CONTINUOUS
10
180.245
20
-107.644
11
180.297
21
-107.601
0
LINE
8
BLACK
6
CONTINUOUS
10
180.297
20
-107.601
11
180.394
21
-107.575
0
LINE
8
BLACK
6
CONTINUOUS
10
180.394
20
-107.575
11
180.781
21
-107.575
0
LINE
8
BLACK
6
CONTINUOUS
10
180.781
20
-107.575
11
180.848
21
-107.587
0
LINE
8
BLACK
6
CONTINUOUS
10
151.298
20
-107.237
11
151.356
21
-107.27
0
LINE
8
BLACK
6
CONTINUOUS
10
151.356
20
-107.27
11
151.399
21
-107.322
0
LINE
8
BLACK
6
CONTINUOUS
10
151.399
20
-107.322
11
151.425
21
-107.419
0
LINE
8
BLACK
6
CONTINUOUS
10
151.425
20
-107.419
11
151.425
21
-107.806
0
LINE
8
BLACK
6
CONTINUOUS
10
151.425
20
-107.806
11
151.413
21
-107.873
0
LINE
8
BLACK
6
CONTINUOUS
10
151.413
20
-107.873
11
151.38
21
-107.931
0
LINE
8
BLACK
6
CONTINUOUS
10
151.38
20
-107.931
11
151.328
21
-107.974
0
LINE
8
BLACK
6
CONTINUOUS
10
151.328
20
-107.974
11
151.231
21
-108
0
LINE
8
BLACK
6
CONTINUOUS
10
151.231
20
-108
11
150.769
21
-108
0
LINE
8
BLACK
6
CONTINUOUS
10
150.769
20
-108
11
150.702
21
-107.988
0
LINE
8
BLACK
6
CONTINUOUS
10
150.702
20
-107.988
11
150.644
21
-107.955
0
LINE
8
BLACK
6
CONTINUOUS
10
150.644
20
-107.955
11
150.601
21
-107.903
0
LINE
8
BLACK
6
CONTINUOUS
10
150.601
20
-107.903
11
150.575
21
-107.806
0
LINE
8
BLACK
6
CONTINUOUS
10
150.575
20
-107.806
11
150.575
21
-107.419
0
LINE
8
BLACK
6
CONTINUOUS
10
150.575
20
-107.419
11
150.587
21
-107.352
0
LINE
8
BLACK
6
CONTINUOUS
10
150.587
20
-107.352
11
150.62
21
-107.294
0
LINE
8
BLACK
6
CONTINUOUS
10
150.62
20
-107.294
11
150.672
21
-107.251
0
LINE
8
BLACK
6
CONTINUOUS
10
150.672
20
-107.251
11
150.769
21
-107.225
0
LINE
8
BLACK
6
CONTINUOUS
10
150.769
20
-107.225
11
151.231
21
-107.225
0
LINE
8
BLACK
6
CONTINUOUS
10
151.231
20
-107.225
11
151.298
21
-107.237
0
LINE
8
BLACK
6
CONTINUOUS
10
153.94
20
-107.48
11
153.14
21
-107.48
0
LINE
8
BLACK
6
CONTINUOUS
10
153.14
20
-107.48
11
153.14
21
-106.78
0
LINE
8
BLACK
6
CONTINUOUS
10
153.14
20
-106.78
11
153.94
21
-106.78
0
LINE
8
BLACK
6
CONTINUOUS
10
153.94
20
-106.78
11
153.94
21
-107.48
0
LINE
8
BLACK
6
CONTINUOUS
10
158.773
20
-106.587
11
158.831
21
-106.62
0
LINE
8
BLACK
6
CONTINUOUS
10
158.831
20
-106.62
11
158.874
21
-106.672
0
LINE
8
BLACK
6
CONTINUOUS
10
158.874
20
-106.672
11
158.9
21
-106.769
0
LINE
8
BLACK
6
CONTINUOUS
10
158.9
20
-106.769
11
158.9
21
-107.231
0
LINE
8
BLACK
6
CONTINUOUS
10
158.9
20
-107.231
11
158.888
21
-107.298
0
LINE
8
BLACK
6
CONTINUOUS
10
158.888
20
-107.298
11
158.855
21
-107.356
0
LINE
8
BLACK
6
CONTINUOUS
10
158.855
20
-107.356
11
158.803
21
-107.399
0
LINE
8
BLACK
6
CONTINUOUS
10
158.803
20
-107.399
11
158.706
21
-107.425
0
LINE
8
BLACK
6
CONTINUOUS
10
158.706
20
-107.425
11
158.319
21
-107.425
0
LINE
8
BLACK
6
CONTINUOUS
10
158.319
20
-107.425
11
158.252
21
-107.413
0
LINE
8
BLACK
6
CONTINUOUS
10
158.252
20
-107.413
11
158.194
21
-107.38
0
LINE
8
BLACK
6
CONTINUOUS
10
158.194
20
-107.38
11
158.151
21
-107.328
0
LINE
8
BLACK
6
CONTINUOUS
10
158.151
20
-107.328
11
158.125
21
-107.231
0
LINE
8
BLACK
6
CONTINUOUS
10
158.125
20
-107.231
11
158.125
21
-106.769
0
LINE
8
BLACK
6
CONTINUOUS
10
158.125
20
-106.769
11
158.137
21
-106.702
0
LINE
8
BLACK
6
CONTINUOUS
10
158.137
20
-106.702
11
158.17
21
-106.644
0
LINE
8
BLACK
6
CONTINUOUS
10
158.17
20
-106.644
11
158.222
21
-106.601
0
LINE
8
BLACK
6
CONTINUOUS
10
158.222
20
-106.601
11
158.319
21
-106.575
0
LINE
8
BLACK
6
CONTINUOUS
10
158.319
20
-106.575
11
158.706
21
-106.575
0
LINE
8
BLACK
6
CONTINUOUS
10
158.706
20
-106.575
11
158.773
21
-106.587
0
LINE
8
BLACK
6
CONTINUOUS
10
160.348
20
-106.587
11
160.406
21
-106.62
0
LINE
8
BLACK
6
CONTINUOUS
10
160.406
20
-106.62
11
160.449
21
-106.672
0
LINE
8
BLACK
6
CONTINUOUS
10
160.449
20
-106.672
11
160.475
21
-106.769
0
LINE
8
BLACK
6
CONTINUOUS
10
160.475
20
-106.769
11
160.475
21
-107.231
0
LINE
8
BLACK
6
CONTINUOUS
10
160.475
20
-107.231
11
160.463
21
-107.298
0
LINE
8
BLACK
6
CONTINUOUS
10
160.463
20
-107.298
11
160.43
21
-107.356
0
LINE
8
BLACK
6
CONTINUOUS
10
160.43
20
-107.356
11
160.378
21
-107.399
0
LINE
8
BLACK
6
CONTINUOUS
10
160.378
20
-107.399
11
160.281
21
-107.425
0
LINE
8
BLACK
6
CONTINUOUS
10
160.281
20
-107.425
11
159.894
21
-107.425
0
LINE
8
BLACK
6
CONTINUOUS
10
159.894
20
-107.425
11
159.827
21
-107.413
0
LINE
8
BLACK
6
CONTINUOUS
10
159.827
20
-107.413
11
159.769
21
-107.38
0
LINE
8
BLACK
6
CONTINUOUS
10
159.769
20
-107.38
11
159.726
21
-107.328
0
LINE
8
BLACK
6
CONTINUOUS
10
159.726
20
-107.328
11
159.7
21
-107.231
0
LINE
8
BLACK
6
CONTINUOUS
10
159.7
20
-107.231
11
159.7
21
-106.769
0
LINE
8
BLACK
6
CONTINUOUS
10
159.7
20
-106.769
11
159.712
21
-106.702
0
LINE
8
BLACK
6
CONTINUOUS
10
159.712
20
-106.702
11
159.745
21
-106.644
0
LINE
8
BLACK
6
CONTINUOUS
10
159.745
20
-106.644
11
159.797
21
-106.601
0
LINE
8
BLACK
6
CONTINUOUS
10
159.797
20
-106.601
11
159.894
21
-106.575
0
LINE
8
BLACK
6
CONTINUOUS
10
159.894
20
-106.575
11
160.281
21
-106.575
0
LINE
8
BLACK
6
CONTINUOUS
10
160.281
20
-106.575
11
160.348
21
-106.587
0
LINE
8
BLACK
6
CONTINUOUS
10
157.198
20
-106.612
11
157.256
21
-106.645
0
LINE
8
BLACK
6
CONTINUOUS
10
157.256
20
-106.645
11
157.299
21
-106.697
0
LINE
8
BLACK
6
CONTINUOUS
10
157.299
20
-106.697
11
157.325
21
-106.794
0
LINE
8
BLACK
6
CONTINUOUS
10
157.325
20
-106.794
11
157.325
21
-107.181
0
LINE
8
BLACK
6
CONTINUOUS
10
157.325
20
-107.181
11
157.313
21
-107.248
0
LINE
8
BLACK
6
CONTINUOUS
10
157.313
20
-107.248
11
157.28
21
-107.306
0
LINE
8
BLACK
6
CONTINUOUS
10
157.28
20
-107.306
11
157.228
21
-107.349
0
LINE
8
BLACK
6
CONTINUOUS
10
157.228
20
-107.349
11
157.131
21
-107.375
0
LINE
8
BLACK
6
CONTINUOUS
10
157.131
20
-107.375
11
156.669
21
-107.375
0
LINE
8
BLACK
6
CONTINUOUS
10
156.669
20
-107.375
11
156.602
21
-107.363
0
LINE
8
BLACK
6
CONTINUOUS
10
156.602
20
-107.363
11
156.544
21
-107.33
0
LINE
8
BLACK
6
CONTINUOUS
10
156.544
20
-107.33
11
156.501
21
-107.278
0
LINE
8
BLACK
6
CONTINUOUS
10
156.501
20
-107.278
11
156.475
21
-107.181
0
LINE
8
BLACK
6
CONTINUOUS
10
156.475
20
-107.181
11
156.475
21
-106.794
0
LINE
8
BLACK
6
CONTINUOUS
10
156.475
20
-106.794
11
156.487
21
-106.727
0
LINE
8
BLACK
6
CONTINUOUS
10
156.487
20
-106.727
11
156.52
21
-106.669
0
LINE
8
BLACK
6
CONTINUOUS
10
156.52
20
-106.669
11
156.572
21
-106.626
0
LINE
8
BLACK
6
CONTINUOUS
10
156.572
20
-106.626
11
156.669
21
-106.6
0
LINE
8
BLACK
6
CONTINUOUS
10
156.669
20
-106.6
11
157.131
21
-106.6
0
LINE
8
BLACK
6
CONTINUOUS
10
157.131
20
-106.6
11
157.198
21
-106.612
0
LINE
8
BLACK
6
CONTINUOUS
10
193.85
20
-107.37
11
191.75
21
-107.37
0
LINE
8
BLACK
6
CONTINUOUS
10
191.75
20
-107.37
11
191.75
21
-106.27
0
LINE
8
BLACK
6
CONTINUOUS
10
191.75
20
-106.27
11
193.85
21
-106.27
0
LINE
8
BLACK
6
CONTINUOUS
10
193.85
20
-106.27
11
193.85
21
-107.37
0
LINE
8
BLACK
6
CONTINUOUS
10
155.438
20
-106.591
11
155.496
21
-106.625
0
LINE
8
BLACK
6
CONTINUOUS
10
155.496
20
-106.625
11
155.539
21
-106.677
0
LINE
8
BLACK
6
CONTINUOUS
10
155.539
20
-106.677
11
155.565
21
-106.773
0
LINE
8
BLACK
6
CONTINUOUS
10
155.565
20
-106.773
11
155.565
21
-107.161
0
LINE
8
BLACK
6
CONTINUOUS
10
155.565
20
-107.161
11
155.553
21
-107.227
0
LINE
8
BLACK
6
CONTINUOUS
10
155.553
20
-107.227
11
155.52
21
-107.285
0
LINE
8
BLACK
6
CONTINUOUS
10
155.52
20
-107.285
11
155.468
21
-107.329
0
LINE
8
BLACK
6
CONTINUOUS
10
155.468
20
-107.329
11
155.371
21
-107.355
0
LINE
8
BLACK
6
CONTINUOUS
10
155.371
20
-107.355
11
154.909
21
-107.355
0
LINE
8
BLACK
6
CONTINUOUS
10
154.909
20
-107.355
11
154.843
21
-107.343
0
LINE
8
BLACK
6
CONTINUOUS
10
154.843
20
-107.343
11
154.784
21
-107.309
0
LINE
8
BLACK
6
CONTINUOUS
10
154.784
20
-107.309
11
154.741
21
-107.258
0
LINE
8
BLACK
6
CONTINUOUS
10
154.741
20
-107.258
11
154.715
21
-107.161
0
LINE
8
BLACK
6
CONTINUOUS
10
154.715
20
-107.161
11
154.715
21
-106.773
0
LINE
8
BLACK
6
CONTINUOUS
10
154.715
20
-106.773
11
154.727
21
-106.707
0
LINE
8
BLACK
6
CONTINUOUS
10
154.727
20
-106.707
11
154.76
21
-106.649
0
LINE
8
BLACK
6
CONTINUOUS
10
154.76
20
-106.649
11
154.812
21
-106.606
0
LINE
8
BLACK
6
CONTINUOUS
10
154.812
20
-106.606
11
154.909
21
-106.58
0
LINE
8
BLACK
6
CONTINUOUS
10
154.909
20
-106.58
11
155.371
21
-106.58
0
LINE
8
BLACK
6
CONTINUOUS
10
155.371
20
-106.58
11
155.438
21
-106.591
0
LINE
8
BLACK
6
CONTINUOUS
10
180.868
20
-104.889
11
180.94
21
-104.931
0
LINE
8
BLACK
6
CONTINUOUS
10
180.94
20
-104.931
11
180.993
21
-104.994
0
LINE
8
BLACK
6
CONTINUOUS
10
180.993
20
-104.994
11
181.025
21
-105.113
0
LINE
8
BLACK
6
CONTINUOUS
10
181.025
20
-105.113
11
181.025
21
-106.612
0
LINE
8
BLACK
6
CONTINUOUS
10
181.025
20
-106.612
11
181.011
21
-106.693
0
LINE
8
BLACK
6
CONTINUOUS
10
181.011
20
-106.693
11
180.969
21
-106.765
0
LINE
8
BLACK
6
CONTINUOUS
10
180.969
20
-106.765
11
180.906
21
-106.818
0
LINE
8
BLACK
6
CONTINUOUS
10
180.906
20
-106.818
11
180.787
21
-106.85
0
LINE
8
BLACK
6
CONTINUOUS
10
180.787
20
-106.85
11
179.013
21
-106.85
0
LINE
8
BLACK
6
CONTINUOUS
10
179.013
20
-106.85
11
178.932
21
-106.836
0
LINE
8
BLACK
6
CONTINUOUS
10
178.932
20
-106.836
11
178.86
21
-106.794
0
LINE
8
BLACK
6
CONTINUOUS
10
178.86
20
-106.794
11
178.807
21
-106.731
0
LINE
8
BLACK
6
CONTINUOUS
10
178.807
20
-106.731
11
178.775
21
-106.612
0
LINE
8
BLACK
6
CONTINUOUS
10
178.775
20
-106.612
11
178.775
21
-105.113
0
LINE
8
BLACK
6
CONTINUOUS
10
178.775
20
-105.113
11
178.789
21
-105.032
0
LINE
8
BLACK
6
CONTINUOUS
10
178.789
20
-105.032
11
178.831
21
-104.96
0
LINE
8
BLACK
6
CONTINUOUS
10
178.831
20
-104.96
11
178.894
21
-104.907
0
LINE
8
BLACK
6
CONTINUOUS
10
178.894
20
-104.907
11
179.013
21
-104.875
0
LINE
8
BLACK
6
CONTINUOUS
10
179.013
20
-104.875
11
180.787
21
-104.875
0
LINE
8
BLACK
6
CONTINUOUS
10
180.787
20
-104.875
11
180.868
21
-104.889
0
LINE
8
BLACK
6
CONTINUOUS
10
151.94
20
-106.53
11
151.14
21
-106.53
0
LINE
8
BLACK
6
CONTINUOUS
10
151.14
20
-106.53
11
151.14
21
-105.83
0
LINE
8
BLACK
6
CONTINUOUS
10
151.14
20
-105.83
11
151.94
21
-105.83
0
LINE
8
BLACK
6
CONTINUOUS
10
151.94
20
-105.83
11
151.94
21
-106.53
0
LINE
8
BLACK
6
CONTINUOUS
10
157.198
20
-105.037
11
157.256
21
-105.07
0
LINE
8
BLACK
6
CONTINUOUS
10
157.256
20
-105.07
11
157.299
21
-105.122
0
LINE
8
BLACK
6
CONTINUOUS
10
157.299
20
-105.122
11
157.325
21
-105.219
0
LINE
8
BLACK
6
CONTINUOUS
10
157.325
20
-105.219
11
157.325
21
-105.606
0
LINE
8
BLACK
6
CONTINUOUS
10
157.325
20
-105.606
11
157.313
21
-105.673
0
LINE
8
BLACK
6
CONTINUOUS
10
157.313
20
-105.673
11
157.28
21
-105.731
0
LINE
8
BLACK
6
CONTINUOUS
10
157.28
20
-105.731
11
157.228
21
-105.774
0
LINE
8
BLACK
6
CONTINUOUS
10
157.228
20
-105.774
11
157.131
21
-105.8
0
LINE
8
BLACK
6
CONTINUOUS
10
157.131
20
-105.8
11
156.669
21
-105.8
0
LINE
8
BLACK
6
CONTINUOUS
10
156.669
20
-105.8
11
156.602
21
-105.788
0
LINE
8
BLACK
6
CONTINUOUS
10
156.602
20
-105.788
11
156.544
21
-105.755
0
LINE
8
BLACK
6
CONTINUOUS
10
156.544
20
-105.755
11
156.501
21
-105.703
0
LINE
8
BLACK
6
CONTINUOUS
10
156.501
20
-105.703
11
156.475
21
-105.606
0
LINE
8
BLACK
6
CONTINUOUS
10
156.475
20
-105.606
11
156.475
21
-105.219
0
LINE
8
BLACK
6
CONTINUOUS
10
156.475
20
-105.219
11
156.487
21
-105.152
0
LINE
8
BLACK
6
CONTINUOUS
10
156.487
20
-105.152
11
156.52
21
-105.094
0
LINE
8
BLACK
6
CONTINUOUS
10
156.52
20
-105.094
11
156.572
21
-105.051
0
LINE
8
BLACK
6
CONTINUOUS
10
156.572
20
-105.051
11
156.669
21
-105.025
0
LINE
8
BLACK
6
CONTINUOUS
10
156.669
20
-105.025
11
157.131
21
-105.025
0
LINE
8
BLACK
6
CONTINUOUS
10
157.131
20
-105.025
11
157.198
21
-105.037
0
LINE
8
BLACK
6
CONTINUOUS
10
155.438
20
-105.016
11
155.496
21
-105.05
0
LINE
8
BLACK
6
CONTINUOUS
10
155.496
20
-105.05
11
155.539
21
-105.102
0
LINE
8
BLACK
6
CONTINUOUS
10
155.539
20
-105.102
11
155.565
21
-105.198
0
LINE
8
BLACK
6
CONTINUOUS
10
155.565
20
-105.198
11
155.565
21
-105.586
0
LINE
8
BLACK
6
CONTINUOUS
10
155.565
20
-105.586
11
155.553
21
-105.652
0
LINE
8
BLACK
6
CONTINUOUS
10
155.553
20
-105.652
11
155.52
21
-105.71
0
LINE
8
BLACK
6
CONTINUOUS
10
155.52
20
-105.71
11
155.468
21
-105.754
0
LINE
8
BLACK
6
CONTINUOUS
10
155.468
20
-105.754
11
155.371
21
-105.78
0
LINE
8
BLACK
6
CONTINUOUS
10
155.371
20
-105.78
11
154.909
21
-105.78
0
LINE
8
BLACK
6
CONTINUOUS
10
154.909
20
-105.78
11
154.843
21
-105.768
0
LINE
8
BLACK
6
CONTINUOUS
10
154.843
20
-105.768
11
154.784
21
-105.734
0
LINE
8
BLACK
6
CONTINUOUS
10
154.784
20
-105.734
11
154.741
21
-105.683
0
LINE
8
BLACK
6
CONTINUOUS
10
154.741
20
-105.683
11
154.715
21
-105.586
0
LINE
8
BLACK
6
CONTINUOUS
10
154.715
20
-105.586
11
154.715
21
-105.198
0
LINE
8
BLACK
6
CONTINUOUS
10
154.715
20
-105.198
11
154.727
21
-105.132
0
LINE
8
BLACK
6
CONTINUOUS
10
154.727
20
-105.132
11
154.76
21
-105.074
0
LINE
8
BLACK
6
CONTINUOUS
10
154.76
20
-105.074
11
154.812
21
-105.031
0
LINE
8
BLACK
6
CONTINUOUS
10
154.812
20
-105.031
11
154.909
21
-105.005
0
LINE
8
BLACK
6
CONTINUOUS
10
154.909
20
-105.005
11
155.371
21
-105.005
0
LINE
8
BLACK
6
CONTINUOUS
10
155.371
20
-105.005
11
155.438
21
-105.016
0
LINE
8
BLACK
6
CONTINUOUS
10
165
20
-105.675
11
164.5
21
-105.675
0
LINE
8
BLACK
6
CONTINUOUS
10
164.5
20
-105.675
11
164.5
21
-105.325
0
LINE
8
BLACK
6
CONTINUOUS
10
164.5
20
-105.325
11
165
21
-105.325
0
LINE
8
BLACK
6
CONTINUOUS
10
165
20
-105.325
11
165
21
-105.675
0
LINE
8
BLACK
6
CONTINUOUS
10
167.1
20
-105.675
11
166.6
21
-105.675
0
LINE
8
BLACK
6
CONTINUOUS
10
166.6
20
-105.675
11
166.6
21
-105.325
0
LINE
8
BLACK
6
CONTINUOUS
10
166.6
20
-105.325
11
167.1
21
-105.325
0
LINE
8
BLACK
6
CONTINUOUS
10
167.1
20
-105.325
11
167.1
21
-105.675
0
LINE
8
BLACK
6
CONTINUOUS
10
153.94
20
-105.58
11
153.14
21
-105.58
0
LINE
8
BLACK
6
CONTINUOUS
10
153.14
20
-105.58
11
153.14
21
-104.88
0
LINE
8
BLACK
6
CONTINUOUS
10
153.14
20
-104.88
11
153.94
21
-104.88
0
LINE
8
BLACK
6
CONTINUOUS
10
153.94
20
-104.88
11
153.94
21
-105.58
0
LINE
8
BLACK
6
CONTINUOUS
10
160.5
20
-105.475
11
160
21
-105.475
0
LINE
8
BLACK
6
CONTINUOUS
10
160
20
-105.475
11
160
21
-105.125
0
LINE
8
BLACK
6
CONTINUOUS
10
160
20
-105.125
11
160.5
21
-105.125
0
LINE
8
BLACK
6
CONTINUOUS
10
160.5
20
-105.125
11
160.5
21
-105.475
0
LINE
8
BLACK
6
CONTINUOUS
10
182.624
20
-102.939
11
182.693
21
-102.979
0
LINE
8
BLACK
6
CONTINUOUS
10
182.693
20
-102.979
11
182.744
21
-103.04
0
LINE
8
BLACK
6
CONTINUOUS
10
182.744
20
-103.04
11
182.775
21
-103.155
0
LINE
8
BLACK
6
CONTINUOUS
10
182.775
20
-103.155
11
182.775
21
-105.245
0
LINE
8
BLACK
6
CONTINUOUS
10
182.775
20
-105.245
11
182.761
21
-105.324
0
LINE
8
BLACK
6
CONTINUOUS
10
182.761
20
-105.324
11
182.721
21
-105.393
0
LINE
8
BLACK
6
CONTINUOUS
10
182.721
20
-105.393
11
182.66
21
-105.444
0
LINE
8
BLACK
6
CONTINUOUS
10
182.66
20
-105.444
11
182.545
21
-105.475
0
LINE
8
BLACK
6
CONTINUOUS
10
182.545
20
-105.475
11
181.855
21
-105.475
0
LINE
8
BLACK
6
CONTINUOUS
10
181.855
20
-105.475
11
181.776
21
-105.461
0
LINE
8
BLACK
6
CONTINUOUS
10
181.776
20
-105.461
11
181.707
21
-105.421
0
LINE
8
BLACK
6
CONTINUOUS
10
181.707
20
-105.421
11
181.656
21
-105.36
0
LINE
8
BLACK
6
CONTINUOUS
10
181.656
20
-105.36
11
181.625
21
-105.245
0
LINE
8
BLACK
6
CONTINUOUS
10
181.625
20
-105.245
11
181.625
21
-103.155
0
LINE
8
BLACK
6
CONTINUOUS
10
181.625
20
-103.155
11
181.639
21
-103.076
0
LINE
8
BLACK
6
CONTINUOUS
10
181.639
20
-103.076
11
181.679
21
-103.007
0
LINE
8
BLACK
6
CONTINUOUS
10
181.679
20
-103.007
11
181.74
21
-102.956
0
LINE
8
BLACK
6
CONTINUOUS
10
181.74
20
-102.956
11
181.855
21
-102.925
0
LINE
8
BLACK
6
CONTINUOUS
10
181.855
20
-102.925
11
182.545
21
-102.925
0
LINE
8
BLACK
6
CONTINUOUS
10
182.545
20
-102.925
11
182.624
21
-102.939
0
LINE
8
BLACK
6
CONTINUOUS
10
185.424
20
-102.939
11
185.493
21
-102.979
0
LINE
8
BLACK
6
CONTINUOUS
10
185.493
20
-102.979
11
185.544
21
-103.04
0
LINE
8
BLACK
6
CONTINUOUS
10
185.544
20
-103.04
11
185.575
21
-103.155
0
LINE
8
BLACK
6
CONTINUOUS
10
185.575
20
-103.155
11
185.575
21
-105.245
0
LINE
8
BLACK
6
CONTINUOUS
10
185.575
20
-105.245
11
185.561
21
-105.324
0
LINE
8
BLACK
6
CONTINUOUS
10
185.561
20
-105.324
11
185.521
21
-105.393
0
LINE
8
BLACK
6
CONTINUOUS
10
185.521
20
-105.393
11
185.46
21
-105.444
0
LINE
8
BLACK
6
CONTINUOUS
10
185.46
20
-105.444
11
185.345
21
-105.475
0
LINE
8
BLACK
6
CONTINUOUS
10
185.345
20
-105.475
11
184.655
21
-105.475
0
LINE
8
BLACK
6
CONTINUOUS
10
184.655
20
-105.475
11
184.576
21
-105.461
0
LINE
8
BLACK
6
CONTINUOUS
10
184.576
20
-105.461
11
184.507
21
-105.421
0
LINE
8
BLACK
6
CONTINUOUS
10
184.507
20
-105.421
11
184.456
21
-105.36
0
LINE
8
BLACK
6
CONTINUOUS
10
184.456
20
-105.36
11
184.425
21
-105.245
0
LINE
8
BLACK
6
CONTINUOUS
10
184.425
20
-105.245
11
184.425
21
-103.155
0
LINE
8
BLACK
6
CONTINUOUS
10
184.425
20
-103.155
11
184.439
21
-103.076
0
LINE
8
BLACK
6
CONTINUOUS
10
184.439
20
-103.076
11
184.479
21
-103.007
0
LINE
8
BLACK
6
CONTINUOUS
10
184.479
20
-103.007
11
184.54
21
-102.956
0
LINE
8
BLACK
6
CONTINUOUS
10
184.54
20
-102.956
11
184.655
21
-102.925
0
LINE
8
BLACK
6
CONTINUOUS
10
184.655
20
-102.925
11
185.345
21
-102.925
0
LINE
8
BLACK
6
CONTINUOUS
10
185.345
20
-102.925
11
185.424
21
-102.939
0
LINE
8
BLACK
6
CONTINUOUS
10
158.4
20
-105.475
11
157.9
21
-105.475
0
LINE
8
BLACK
6
CONTINUOUS
10
157.9
20
-105.475
11
157.9
21
-105.125
0
LINE
8
BLACK
6
CONTINUOUS
10
157.9
20
-105.125
11
158.4
21
-105.125
0
LINE
8
BLACK
6
CONTINUOUS
10
158.4
20
-105.125
11
158.4
21
-105.475
0
LINE
8
BLACK
6
CONTINUOUS
10
170.098
20
-104.412
11
170.156
21
-104.445
0
LINE
8
BLACK
6
CONTINUOUS
10
170.156
20
-104.445
11
170.199
21
-104.497
0
LINE
8
BLACK
6
CONTINUOUS
10
170.199
20
-104.497
11
170.225
21
-104.594
0
LINE
8
BLACK
6
CONTINUOUS
10
170.225
20
-104.594
11
170.225
21
-104.981
0
LINE
8
BLACK
6
CONTINUOUS
10
170.225
20
-104.981
11
170.213
21
-105.048
0
LINE
8
BLACK
6
CONTINUOUS
10
170.213
20
-105.048
11
170.18
21
-105.106
0
LINE
8
BLACK
6
CONTINUOUS
10
170.18
20
-105.106
11
170.128
21
-105.149
0
LINE
8
BLACK
6
CONTINUOUS
10
170.128
20
-105.149
11
170.031
21
-105.175
0
LINE
8
BLACK
6
CONTINUOUS
10
170.031
20
-105.175
11
169.569
21
-105.175
0
LINE
8
BLACK
6
CONTINUOUS
10
169.569
20
-105.175
11
169.502
21
-105.163
0
LINE
8
BLACK
6
CONTINUOUS
10
169.502
20
-105.163
11
169.444
21
-105.13
0
LINE
8
BLACK
6
CONTINUOUS
10
169.444
20
-105.13
11
169.401
21
-105.078
0
LINE
8
BLACK
6
CONTINUOUS
10
169.401
20
-105.078
11
169.375
21
-104.981
0
LINE
8
BLACK
6
CONTINUOUS
10
169.375
20
-104.981
11
169.375
21
-104.594
0
LINE
8
BLACK
6
CONTINUOUS
10
169.375
20
-104.594
11
169.387
21
-104.527
0
LINE
8
BLACK
6
CONTINUOUS
10
169.387
20
-104.527
11
169.42
21
-104.469
0
LINE
8
BLACK
6
CONTINUOUS
10
169.42
20
-104.469
11
169.472
21
-104.426
0
LINE
8
BLACK
6
CONTINUOUS
10
169.472
20
-104.426
11
169.569
21
-104.4
0
LINE
8
BLACK
6
CONTINUOUS
10
169.569
20
-104.4
11
170.031
21
-104.4
0
LINE
8
BLACK
6
CONTINUOUS
10
170.031
20
-104.4
11
170.098
21
-104.412
0
LINE
8
BLACK
6
CONTINUOUS
10
170.098
20
-102.837
11
170.156
21
-102.87
0
LINE
8
BLACK
6
CONTINUOUS
10
170.156
20
-102.87
11
170.199
21
-102.922
0
LINE
8
BLACK
6
CONTINUOUS
10
170.199
20
-102.922
11
170.225
21
-103.019
0
LINE
8
BLACK
6
CONTINUOUS
10
170.225
20
-103.019
11
170.225
21
-103.406
0
LINE
8
BLACK
6
CONTINUOUS
10
170.225
20
-103.406
11
170.213
21
-103.473
0
LINE
8
BLACK
6
CONTINUOUS
10
170.213
20
-103.473
11
170.18
21
-103.531
0
LINE
8
BLACK
6
CONTINUOUS
10
170.18
20
-103.531
11
170.128
21
-103.574
0
LINE
8
BLACK
6
CONTINUOUS
10
170.128
20
-103.574
11
170.031
21
-103.6
0
LINE
8
BLACK
6
CONTINUOUS
10
170.031
20
-103.6
11
169.569
21
-103.6
0
LINE
8
BLACK
6
CONTINUOUS
10
169.569
20
-103.6
11
169.502
21
-103.588
0
LINE
8
BLACK
6
CONTINUOUS
10
169.502
20
-103.588
11
169.444
21
-103.555
0
LINE
8
BLACK
6
CONTINUOUS
10
169.444
20
-103.555
11
169.401
21
-103.503
0
LINE
8
BLACK
6
CONTINUOUS
10
169.401
20
-103.503
11
169.375
21
-103.406
0
LINE
8
BLACK
6
CONTINUOUS
10
169.375
20
-103.406
11
169.375
21
-103.019
0
LINE
8
BLACK
6
CONTINUOUS
10
169.375
20
-103.019
11
169.387
21
-102.952
0
LINE
8
BLACK
6
CONTINUOUS
10
169.387
20
-102.952
11
169.42
21
-102.894
0
LINE
8
BLACK
6
CONTINUOUS
10
169.42
20
-102.894
11
169.472
21
-102.851
0
LINE
8
BLACK
6
CONTINUOUS
10
169.472
20
-102.851
11
169.569
21
-102.825
0
LINE
8
BLACK
6
CONTINUOUS
10
169.569
20
-102.825
11
170.031
21
-102.825
0
LINE
8
BLACK
6
CONTINUOUS
10
170.031
20
-102.825
11
170.098
21
-102.837
0
LINE
8
BLACK
6
CONTINUOUS
10
170.098
20
-101.312
11
170.156
21
-101.345
0
LINE
8
BLACK
6
CONTINUOUS
10
170.156
20
-101.345
11
170.199
21
-101.397
0
LINE
8
BLACK
6
CONTINUOUS
10
170.199
20
-101.397
11
170.225
21
-101.494
0
LINE
8
BLACK
6
CONTINUOUS
10
170.225
20
-101.494
11
170.225
21
-101.881
0
LINE
8
BLACK
6
CONTINUOUS
10
170.225
20
-101.881
11
170.213
21
-101.948
0
LINE
8
BLACK
6
CONTINUOUS
10
170.213
20
-101.948
11
170.18
21
-102.006
0
LINE
8
BLACK
6
CONTINUOUS
10
170.18
20
-102.006
11
170.128
21
-102.049
0
LINE
8
BLACK
6
CONTINUOUS
10
170.128
20
-102.049
11
170.031
21
-102.075
0
LINE
8
BLACK
6
CONTINUOUS
10
170.031
20
-102.075
11
169.569
21
-102.075
0
LINE
8
BLACK
6
CONTINUOUS
10
169.569
20
-102.075
11
169.502
21
-102.063
0
LINE
8
BLACK
6
CONTINUOUS
10
169.502
20
-102.063
11
169.444
21
-102.03
0
LINE
8
BLACK
6
CONTINUOUS
10
169.444
20
-102.03
11
169.401
21
-101.978
0
LINE
8
BLACK
6
CONTINUOUS
10
169.401
20
-101.978
11
169.375
21
-101.881
0
LINE
8
BLACK
6
CONTINUOUS
10
169.375
20
-101.881
11
169.375
21
-101.494
0
LINE
8
BLACK
6
CONTINUOUS
10
169.375
20
-101.494
11
169.387
21
-101.427
0
LINE
8
BLACK
6
CONTINUOUS
10
169.387
20
-101.427
11
169.42
21
-101.369
0
LINE
8
BLACK
6
CONTINUOUS
10
169.42
20
-101.369
11
169.472
21
-101.326
0
LINE
8
BLACK
6
CONTINUOUS
10
169.472
20
-101.326
11
169.569
21
-101.3
0
LINE
8
BLACK
6
CONTINUOUS
10
169.569
20
-101.3
11
170.031
21
-101.3
0
LINE
8
BLACK
6
CONTINUOUS
10
170.031
20
-101.3
11
170.098
21
-101.312
0
LINE
8
BLACK
6
CONTINUOUS
10
180.868
20
-99.9643
11
180.94
21
-100.006
0
LINE
8
BLACK
6
CONTINUOUS
10
180.94
20
-100.006
11
180.993
21
-100.069
0
LINE
8
BLACK
6
CONTINUOUS
10
180.993
20
-100.069
11
181.025
21
-100.188
0
LINE
8
BLACK
6
CONTINUOUS
10
181.025
20
-100.188
11
181.025
21
-101.687
0
LINE
8
BLACK
6
CONTINUOUS
10
181.025
20
-101.687
11
181.011
21
-101.768
0
LINE
8
BLACK
6
CONTINUOUS
10
181.011
20
-101.768
11
180.969
21
-101.84
0
LINE
8
BLACK
6
CONTINUOUS
10
180.969
20
-101.84
11
180.906
21
-101.893
0
LINE
8
BLACK
6
CONTINUOUS
10
180.906
20
-101.893
11
180.787
21
-101.925
0
LINE
8
BLACK
6
CONTINUOUS
10
180.787
20
-101.925
11
179.013
21
-101.925
0
LINE
8
BLACK
6
CONTINUOUS
10
179.013
20
-101.925
11
178.932
21
-101.911
0
LINE
8
BLACK
6
CONTINUOUS
10
178.932
20
-101.911
11
178.86
21
-101.869
0
LINE
8
BLACK
6
CONTINUOUS
10
178.86
20
-101.869
11
178.807
21
-101.806
0
LINE
8
BLACK
6
CONTINUOUS
10
178.807
20
-101.806
11
178.775
21
-101.687
0
LINE
8
BLACK
6
CONTINUOUS
10
178.775
20
-101.687
11
178.775
21
-100.188
0
LINE
8
BLACK
6
CONTINUOUS
10
178.775
20
-100.188
11
178.789
21
-100.107
0
LINE
8
BLACK
6
CONTINUOUS
10
178.789
20
-100.107
11
178.831
21
-100.035
0
LINE
8
BLACK
6
CONTINUOUS
10
178.831
20
-100.035
11
178.894
21
-99.9819
0
LINE
8
BLACK
6
CONTINUOUS
10
178.894
20
-99.9819
11
179.013
21
-99.95
0
LINE
8
BLACK
6
CONTINUOUS
10
179.013
20
-99.95
11
180.787
21
-99.95
0
LINE
8
BLACK
6
CONTINUOUS
10
180.787
20
-99.95
11
180.868
21
-99.9643
0
LINE
8
BLACK
6
CONTINUOUS
10
175.15
20
-101.37
11
173.65
21
-101.37
0
LINE
8
BLACK
6
CONTINUOUS
10
173.65
20
-101.37
11
173.65
21
-99.87
0
LINE
8
BLACK
6
CONTINUOUS
10
173.65
20
-99.87
11
175.15
21
-99.87
0
LINE
8
BLACK
6
CONTINUOUS
10
175.15
20
-99.87
11
175.15
21
-101.37
0
LINE
8
BLACK
6
CONTINUOUS
10
172.61
20
-101.37
11
171.11
21
-101.37
0
LINE
8
BLACK
6
CONTINUOUS
10
171.11
20
-101.37
11
171.11
21
-99.87
0
LINE
8
BLACK
6
CONTINUOUS
10
171.11
20
-99.87
11
172.61
21
-99.87
0
LINE
8
BLACK
6
CONTINUOUS
10
172.61
20
-99.87
11
172.61
21
-101.37
0
LINE
8
BLACK
6
CONTINUOUS
10
177.69
20
-101.37
11
176.19
21
-101.37
0
LINE
8
BLACK
6
CONTINUOUS
10
176.19
20
-101.37
11
176.19
21
-99.87
0
LINE
8
BLACK
6
CONTINUOUS
10
176.19
20
-99.87
11
177.69
21
-99.87
0
LINE
8
BLACK
6
CONTINUOUS
10
177.69
20
-99.87
11
177.69
21
-101.37
0
LINE
8
BLACK
6
CONTINUOUS
10
170.098
20
-99.7367
11
170.156
21
-99.7703
0
LINE
8
BLACK
6
CONTINUOUS
10
170.156
20
-99.7703
11
170.199
21
-99.8219
0
LINE
8
BLACK
6
CONTINUOUS
10
170.199
20
-99.8219
11
170.225
21
-99.9187
0
LINE
8
BLACK
6
CONTINUOUS
10
170.225
20
-99.9187
11
170.225
21
-100.306
0
LINE
8
BLACK
6
CONTINUOUS
10
170.225
20
-100.306
11
170.213
21
-100.373
0
LINE
8
BLACK
6
CONTINUOUS
10
170.213
20
-100.373
11
170.18
21
-100.431
0
LINE
8
BLACK
6
CONTINUOUS
10
170.18
20
-100.431
11
170.128
21
-100.474
0
LINE
8
BLACK
6
CONTINUOUS
10
170.128
20
-100.474
11
170.031
21
-100.5
0
LINE
8
BLACK
6
CONTINUOUS
10
170.031
20
-100.5
11
169.569
21
-100.5
0
LINE
8
BLACK
6
CONTINUOUS
10
169.569
20
-100.5
11
169.502
21
-100.488
0
LINE
8
BLACK
6
CONTINUOUS
10
169.502
20
-100.488
11
169.444
21
-100.455
0
LINE
8
BLACK
6
CONTINUOUS
10
169.444
20
-100.455
11
169.401
21
-100.403
0
LINE
8
BLACK
6
CONTINUOUS
10
169.401
20
-100.403
11
169.375
21
-100.306
0
LINE
8
BLACK
6
CONTINUOUS
10
169.375
20
-100.306
11
169.375
21
-99.9187
0
LINE
8
BLACK
6
CONTINUOUS
10
169.375
20
-99.9187
11
169.387
21
-99.8525
0
LINE
8
BLACK
6
CONTINUOUS
10
169.387
20
-99.8525
11
169.42
21
-99.7942
0
LINE
8
BLACK
6
CONTINUOUS
10
169.42
20
-99.7942
11
169.472
21
-99.751
0
LINE
8
BLACK
6
CONTINUOUS
10
169.472
20
-99.751
11
169.569
21
-99.725
0
LINE
8
BLACK
6
CONTINUOUS
10
169.569
20
-99.725
11
170.031
21
-99.725
0
LINE
8
BLACK
6
CONTINUOUS
10
170.031
20
-99.725
11
170.098
21
-99.7367
0
LINE
8
BLACK
6
CONTINUOUS
10
172.2
20
-99.1
11
171.4
21
-99.1
0
LINE
8
BLACK
6
CONTINUOUS
10
171.4
20
-99.1
11
171.4
21
-98.4
0
LINE
8
BLACK
6
CONTINUOUS
10
171.4
20
-98.4
11
172.2
21
-98.4
0
LINE
8
BLACK
6
CONTINUOUS
10
172.2
20
-98.4
11
172.2
21
-99.1
0
LINE
8
BLACK
6
CONTINUOUS
10
183.493
20
-96.6893
11
183.565
21
-96.7307
0
LINE
8
BLACK
6
CONTINUOUS
10
183.565
20
-96.7307
11
183.618
21
-96.794
0
LINE
8
BLACK
6
CONTINUOUS
10
183.618
20
-96.794
11
183.65
21
-96.913
0
LINE
8
BLACK
6
CONTINUOUS
10
183.65
20
-96.913
11
183.65
21
-98.687
0
LINE
8
BLACK
6
CONTINUOUS
10
183.65
20
-98.687
11
183.636
21
-98.7684
0
LINE
8
BLACK
6
CONTINUOUS
10
183.636
20
-98.7684
11
183.594
21
-98.84
0
LINE
8
BLACK
6
CONTINUOUS
10
183.594
20
-98.84
11
183.531
21
-98.8931
0
LINE
8
BLACK
6
CONTINUOUS
10
183.531
20
-98.8931
11
183.412
21
-98.925
0
LINE
8
BLACK
6
CONTINUOUS
10
183.412
20
-98.925
11
181.913
21
-98.925
0
LINE
8
BLACK
6
CONTINUOUS
10
181.913
20
-98.925
11
181.832
21
-98.9106
0
LINE
8
BLACK
6
CONTINUOUS
10
181.832
20
-98.9106
11
181.76
21
-98.8693
0
LINE
8
BLACK
6
CONTINUOUS
10
181.76
20
-98.8693
11
181.707
21
-98.806
0
LINE
8
BLACK
6
CONTINUOUS
10
181.707
20
-98.806
11
181.675
21
-98.687
0
LINE
8
BLACK
6
CONTINUOUS
10
181.675
20
-98.687
11
181.675
21
-96.913
0
LINE
8
BLACK
6
CONTINUOUS
10
181.675
20
-96.913
11
181.689
21
-96.8316
0
LINE
8
BLACK
6
CONTINUOUS
10
181.689
20
-96.8316
11
181.731
21
-96.76
0
LINE
8
BLACK
6
CONTINUOUS
10
181.731
20
-96.76
11
181.794
21
-96.7069
0
LINE
8
BLACK
6
CONTINUOUS
10
181.794
20
-96.7069
11
181.913
21
-96.675
0
LINE
8
BLACK
6
CONTINUOUS
10
181.913
20
-96.675
11
183.412
21
-96.675
0
LINE
8
BLACK
6
CONTINUOUS
10
183.412
20
-96.675
11
183.493
21
-96.6893
0
LINE
8
BLACK
6
CONTINUOUS
10
178.568
20
-96.6893
11
178.64
21
-96.7307
0
LINE
8
BLACK
6
CONTINUOUS
10
178.64
20
-96.7307
11
178.693
21
-96.794
0
LINE
8
BLACK
6
CONTINUOUS
10
178.693
20
-96.794
11
178.725
21
-96.913
0
LINE
8
BLACK
6
CONTINUOUS
10
178.725
20
-96.913
11
178.725
21
-98.687
0
LINE
8
BLACK
6
CONTINUOUS
10
178.725
20
-98.687
11
178.711
21
-98.7684
0
LINE
8
BLACK
6
CONTINUOUS
10
178.711
20
-98.7684
11
178.669
21
-98.84
0
LINE
8
BLACK
6
CONTINUOUS
10
178.669
20
-98.84
11
178.606
21
-98.8931
0
LINE
8
BLACK
6
CONTINUOUS
10
178.606
20
-98.8931
11
178.487
21
-98.925
0
LINE
8
BLACK
6
CONTINUOUS
10
178.487
20
-98.925
11
176.988
21
-98.925
0
LINE
8
BLACK
6
CONTINUOUS
10
176.988
20
-98.925
11
176.907
21
-98.9106
0
LINE
8
BLACK
6
CONTINUOUS
10
176.907
20
-98.9106
11
176.835
21
-98.8693
0
LINE
8
BLACK
6
CONTINUOUS
10
176.835
20
-98.8693
11
176.782
21
-98.806
0
LINE
8
BLACK
6
CONTINUOUS
10
176.782
20
-98.806
11
176.75
21
-98.687
0
LINE
8
BLACK
6
CONTINUOUS
10
176.75
20
-98.687
11
176.75
21
-96.913
0
LINE
8
BLACK
6
CONTINUOUS
10
176.75
20
-96.913
11
176.764
21
-96.8316
0
LINE
8
BLACK
6
CONTINUOUS
10
176.764
20
-96.8316
11
176.806
21
-96.76
0
LINE
8
BLACK
6
CONTINUOUS
10
176.806
20
-96.76
11
176.869
21
-96.7069
0
LINE
8
BLACK
6
CONTINUOUS
10
176.869
20
-96.7069
11
176.988
21
-96.675
0
LINE
8
BLACK
6
CONTINUOUS
10
176.988
20
-96.675
11
178.487
21
-96.675
0
LINE
8
BLACK
6
CONTINUOUS
10
178.487
20
-96.675
11
178.568
21
-96.6893
0
LINE
8
BLACK
6
CONTINUOUS
10
173.698
20
-98.1117
11
173.756
21
-98.1453
0
LINE
8
BLACK
6
CONTINUOUS
10
173.756
20
-98.1453
11
173.799
21
-98.1969
0
LINE
8
BLACK
6
CONTINUOUS
10
173.799
20
-98.1969
11
173.825
21
-98.2937
0
LINE
8
BLACK
6
CONTINUOUS
10
173.825
20
-98.2937
11
173.825
21
-98.6812
0
LINE
8
BLACK
6
CONTINUOUS
10
173.825
20
-98.6812
11
173.813
21
-98.7475
0
LINE
8
BLACK
6
CONTINUOUS
10
173.813
20
-98.7475
11
173.78
21
-98.8058
0
LINE
8
BLACK
6
CONTINUOUS
10
173.78
20
-98.8058
11
173.728
21
-98.849
0
LINE
8
BLACK
6
CONTINUOUS
10
173.728
20
-98.849
11
173.631
21
-98.875
0
LINE
8
BLACK
6
CONTINUOUS
10
173.631
20
-98.875
11
173.169
21
-98.875
0
LINE
8
BLACK
6
CONTINUOUS
10
173.169
20
-98.875
11
173.102
21
-98.8633
0
LINE
8
BLACK
6
CONTINUOUS
10
173.102
20
-98.8633
11
173.044
21
-98.8297
0
LINE
8
BLACK
6
CONTINUOUS
10
173.044
20
-98.8297
11
173.001
21
-98.7781
0
LINE
8
BLACK
6
CONTINUOUS
10
173.001
20
-98.7781
11
172.975
21
-98.6812
0
LINE
8
BLACK
6
CONTINUOUS
10
172.975
20
-98.6812
11
172.975
21
-98.2937
0
LINE
8
BLACK
6
CONTINUOUS
10
172.975
20
-98.2937
11
172.987
21
-98.2275
0
LINE
8
BLACK
6
CONTINUOUS
10
172.987
20
-98.2275
11
173.02
21
-98.1692
0
LINE
8
BLACK
6
CONTINUOUS
10
173.02
20
-98.1692
11
173.072
21
-98.126
0
LINE
8
BLACK
6
CONTINUOUS
10
173.072
20
-98.126
11
173.169
21
-98.1
0
LINE
8
BLACK
6
CONTINUOUS
10
173.169
20
-98.1
11
173.631
21
-98.1
0
LINE
8
BLACK
6
CONTINUOUS
10
173.631
20
-98.1
11
173.698
21
-98.1117
0
LINE
8
BLACK
6
CONTINUOUS
10
175.798
20
-98.1117
11
175.856
21
-98.1453
0
LINE
8
BLACK
6
CONTINUOUS
10
175.856
20
-98.1453
11
175.899
21
-98.1969
0
LINE
8
BLACK
6
CONTINUOUS
10
175.899
20
-98.1969
11
175.925
21
-98.2937
0
LINE
8
BLACK
6
CONTINUOUS
10
175.925
20
-98.2937
11
175.925
21
-98.6812
0
LINE
8
BLACK
6
CONTINUOUS
10
175.925
20
-98.6812
11
175.913
21
-98.7475
0
LINE
8
BLACK
6
CONTINUOUS
10
175.913
20
-98.7475
11
175.88
21
-98.8058
0
LINE
8
BLACK
6
CONTINUOUS
10
175.88
20
-98.8058
11
175.828
21
-98.849
0
LINE
8
BLACK
6
CONTINUOUS
10
175.828
20
-98.849
11
175.731
21
-98.875
0
LINE
8
BLACK
6
CONTINUOUS
10
175.731
20
-98.875
11
175.269
21
-98.875
0
LINE
8
BLACK
6
CONTINUOUS
10
175.269
20
-98.875
11
175.202
21
-98.8633
0
LINE
8
BLACK
6
CONTINUOUS
10
175.202
20
-98.8633
11
175.144
21
-98.8297
0
LINE
8
BLACK
6
CONTINUOUS
10
175.144
20
-98.8297
11
175.101
21
-98.7781
0
LINE
8
BLACK
6
CONTINUOUS
10
175.101
20
-98.7781
11
175.075
21
-98.6812
0
LINE
8
BLACK
6
CONTINUOUS
10
175.075
20
-98.6812
11
175.075
21
-98.2937
0
LINE
8
BLACK
6
CONTINUOUS
10
175.075
20
-98.2937
11
175.087
21
-98.2275
0
LINE
8
BLACK
6
CONTINUOUS
10
175.087
20
-98.2275
11
175.12
21
-98.1692
0
LINE
8
BLACK
6
CONTINUOUS
10
175.12
20
-98.1692
11
175.172
21
-98.126
0
LINE
8
BLACK
6
CONTINUOUS
10
175.172
20
-98.126
11
175.269
21
-98.1
0
LINE
8
BLACK
6
CONTINUOUS
10
175.269
20
-98.1
11
175.731
21
-98.1
0
LINE
8
BLACK
6
CONTINUOUS
10
175.731
20
-98.1
11
175.798
21
-98.1117
0
LINE
8
BLACK
6
CONTINUOUS
10
170.2
20
-98.15
11
169.4
21
-98.15
0
LINE
8
BLACK
6
CONTINUOUS
10
169.4
20
-98.15
11
169.4
21
-97.45
0
LINE
8
BLACK
6
CONTINUOUS
10
169.4
20
-97.45
11
170.2
21
-97.45
0
LINE
8
BLACK
6
CONTINUOUS
10
170.2
20
-97.45
11
170.2
21
-98.15
0
LINE
8
BLACK
6
CONTINUOUS
10
173.698
20
-96.5367
11
173.756
21
-96.5703
0
LINE
8
BLACK
6
CONTINUOUS
10
173.756
20
-96.5703
11
173.799
21
-96.6219
0
LINE
8
BLACK
6
CONTINUOUS
10
173.799
20
-96.6219
11
173.825
21
-96.7188
0
LINE
8
BLACK
6
CONTINUOUS
10
173.825
20
-96.7188
11
173.825
21
-97.1062
0
LINE
8
BLACK
6
CONTINUOUS
10
173.825
20
-97.1062
11
173.813
21
-97.1725
0
LINE
8
BLACK
6
CONTINUOUS
10
173.813
20
-97.1725
11
173.78
21
-97.2308
0
LINE
8
BLACK
6
CONTINUOUS
10
173.78
20
-97.2308
11
173.728
21
-97.274
0
LINE
8
BLACK
6
CONTINUOUS
10
173.728
20
-97.274
11
173.631
21
-97.3
0
LINE
8
BLACK
6
CONTINUOUS
10
173.631
20
-97.3
11
173.169
21
-97.3
0
LINE
8
BLACK
6
CONTINUOUS
10
173.169
20
-97.3
11
173.102
21
-97.2883
0
LINE
8
BLACK
6
CONTINUOUS
10
173.102
20
-97.2883
11
173.044
21
-97.2547
0
LINE
8
BLACK
6
CONTINUOUS
10
173.044
20
-97.2547
11
173.001
21
-97.2031
0
LINE
8
BLACK
6
CONTINUOUS
10
173.001
20
-97.2031
11
172.975
21
-97.1062
0
LINE
8
BLACK
6
CONTINUOUS
10
172.975
20
-97.1062
11
172.975
21
-96.7188
0
LINE
8
BLACK
6
CONTINUOUS
10
172.975
20
-96.7188
11
172.987
21
-96.6525
0
LINE
8
BLACK
6
CONTINUOUS
10
172.987
20
-96.6525
11
173.02
21
-96.5942
0
LINE
8
BLACK
6
CONTINUOUS
10
173.02
20
-96.5942
11
173.072
21
-96.551
0
LINE
8
BLACK
6
CONTINUOUS
10
173.072
20
-96.551
11
173.169
21
-96.525
0
LINE
8
BLACK
6
CONTINUOUS
10
173.169
20
-96.525
11
173.631
21
-96.525
0
LINE
8
BLACK
6
CONTINUOUS
10
173.631
20
-96.525
11
173.698
21
-96.5367
0
LINE
8
BLACK
6
CONTINUOUS
10
175.798
20
-96.5367
11
175.856
21
-96.5703
0
LINE
8
BLACK
6
CONTINUOUS
10
175.856
20
-96.5703
11
175.899
21
-96.6219
0
LINE
8
BLACK
6
CONTINUOUS
10
175.899
20
-96.6219
11
175.925
21
-96.7188
0
LINE
8
BLACK
6
CONTINUOUS
10
175.925
20
-96.7188
11
175.925
21
-97.1062
0
LINE
8
BLACK
6
CONTINUOUS
10
175.925
20
-97.1062
11
175.913
21
-97.1725
0
LINE
8
BLACK
6
CONTINUOUS
10
175.913
20
-97.1725
11
175.88
21
-97.2308
0
LINE
8
BLACK
6
CONTINUOUS
10
175.88
20
-97.2308
11
175.828
21
-97.274
0
LINE
8
BLACK
6
CONTINUOUS
10
175.828
20
-97.274
11
175.731
21
-97.3
0
LINE
8
BLACK
6
CONTINUOUS
10
175.731
20
-97.3
11
175.269
21
-97.3
0
LINE
8
BLACK
6
CONTINUOUS
10
175.269
20
-97.3
11
175.202
21
-97.2883
0
LINE
8
BLACK
6
CONTINUOUS
10
175.202
20
-97.2883
11
175.144
21
-97.2547
0
LINE
8
BLACK
6
CONTINUOUS
10
175.144
20
-97.2547
11
175.101
21
-97.2031
0
LINE
8
BLACK
6
CONTINUOUS
10
175.101
20
-97.2031
11
175.075
21
-97.1062
0
LINE
8
BLACK
6
CONTINUOUS
10
175.075
20
-97.1062
11
175.075
21
-96.7188
0
LINE
8
BLACK
6
CONTINUOUS
10
175.075
20
-96.7188
11
175.087
21
-96.6525
0
LINE
8
BLACK
6
CONTINUOUS
10
175.087
20
-96.6525
11
175.12
21
-96.5942
0
LINE
8
BLACK
6
CONTINUOUS
10
175.12
20
-96.5942
11
175.172
21
-96.551
0
LINE
8
BLACK
6
CONTINUOUS
10
175.172
20
-96.551
11
175.269
21
-96.525
0
LINE
8
BLACK
6
CONTINUOUS
10
175.269
20
-96.525
11
175.731
21
-96.525
0
LINE
8
BLACK
6
CONTINUOUS
10
175.731
20
-96.525
11
175.798
21
-96.5367
0
LINE
8
BLACK
6
CONTINUOUS
10
172.2
20
-97.2
11
171.4
21
-97.2
0
LINE
8
BLACK
6
CONTINUOUS
10
171.4
20
-97.2
11
171.4
21
-96.5
0
LINE
8
BLACK
6
CONTINUOUS
10
171.4
20
-96.5
11
172.2
21
-96.5
0
LINE
8
BLACK
6
CONTINUOUS
10
172.2
20
-96.5
11
172.2
21
-97.2
  0
ENDSEC
  0
EOF
